<?xml version="1.0" encoding="utf-8"?>
<!-- Generator: Adobe Illustrator 24.0.0, SVG Export Plug-In . SVG Version: 6.00 Build 0)  -->
<svg version="1.1" id="Layer_1" xmlns="http://www.w3.org/2000/svg" xmlns:xlink="http://www.w3.org/1999/xlink" x="0px" y="0px"
	 viewBox="0 0 60.24 30.89" style="enable-background:new 0 0 60.24 30.89;" xml:space="preserve">
<style type="text/css">
	.st0{fill:#6C727C;}
	.st1{fill:#FC5E31;}
	.st2{fill:#8CC63F;}
	.st3{fill:#F3F4F5;}
	.st4{fill:#F74A2D;}
	.st5{fill:#153663;}
	.st6{fill:#153765;}
	.st7{fill:#153867;}
	.st8{fill:#153969;}
	.st9{fill:#15396B;}
	.st10{fill:#153A6D;}
	.st11{fill:#153B6F;}
	.st12{fill:#153C71;}
	.st13{fill:#143D73;}
	.st14{fill:#143E75;}
	.st15{fill:#143E77;}
	.st16{fill:#143F79;}
	.st17{fill:#14407B;}
	.st18{fill:#14417D;}
	.st19{fill:#14427F;}
	.st20{fill:#144381;}
	.st21{fill:#144383;}
	.st22{fill:#144485;}
	.st23{fill:#144587;}
	.st24{fill:#144689;}
	.st25{fill:#14478B;}
	.st26{fill:#14488D;}
	.st27{fill:#14488F;}
	.st28{fill:#144991;}
	.st29{fill:#134A93;}
	.st30{fill:#134B95;}
	.st31{fill:#134C97;}
	.st32{fill:#134D99;}
	.st33{fill:#134D9B;}
	.st34{fill:#134E9D;}
	.st35{fill:#134F9F;}
	.st36{fill:#1350A1;}
	.st37{fill-rule:evenodd;clip-rule:evenodd;fill:#F1E7ED;}
	.st38{fill-rule:evenodd;clip-rule:evenodd;fill:#A893D0;}
	.st39{opacity:0.5;fill-rule:evenodd;clip-rule:evenodd;fill:#5D2C84;}
	.st40{fill-rule:evenodd;clip-rule:evenodd;fill:#CABDE2;}
	.st41{fill-rule:evenodd;clip-rule:evenodd;fill:#704E8D;}
	.st42{fill-rule:evenodd;clip-rule:evenodd;fill:#FBF9FB;}
	.st43{opacity:0.83;fill-rule:evenodd;clip-rule:evenodd;fill:url(#SVGID_2_);}
	.st44{opacity:0.83;fill-rule:evenodd;clip-rule:evenodd;fill:url(#SVGID_3_);}
	.st45{fill:#8D6B96;}
	.st46{opacity:0.2;fill-rule:evenodd;clip-rule:evenodd;fill:#864C90;}
	.st47{fill-rule:evenodd;clip-rule:evenodd;fill:#CECBEA;}
	.st48{fill-rule:evenodd;clip-rule:evenodd;fill:#39175A;}
	.st49{fill-rule:evenodd;clip-rule:evenodd;fill:#F83D45;}
	.st50{fill-rule:evenodd;clip-rule:evenodd;fill:#B32742;}
	.st51{fill-rule:evenodd;clip-rule:evenodd;fill:#A28BCC;}
	.st52{opacity:0.5;fill-rule:evenodd;clip-rule:evenodd;fill:#864C90;}
	.st53{fill-rule:evenodd;clip-rule:evenodd;fill:url(#SVGID_4_);}
	.st54{fill-rule:evenodd;clip-rule:evenodd;fill:url(#SVGID_6_);}
	.st55{fill:#B32742;}
	.st56{fill-rule:evenodd;clip-rule:evenodd;fill:url(#SVGID_8_);}
	.st57{fill-rule:evenodd;clip-rule:evenodd;fill:url(#SVGID_9_);}
	.st58{fill-rule:evenodd;clip-rule:evenodd;fill:#7A5AC4;}
	.st59{fill-rule:evenodd;clip-rule:evenodd;fill:#7A5AA7;}
	.st60{fill-rule:evenodd;clip-rule:evenodd;fill:#5A2967;}
	.st61{fill-rule:evenodd;clip-rule:evenodd;fill:#C4D1ED;}
	.st62{opacity:0.5;fill-rule:evenodd;clip-rule:evenodd;fill:#6D4C90;}
	.st63{fill:#7A5AA7;}
	.st64{fill:#39175A;}
	.st65{fill-rule:evenodd;clip-rule:evenodd;fill:url(#SVGID_10_);}
	.st66{fill:#FFFFFF;}
	.st67{fill-rule:evenodd;clip-rule:evenodd;fill:url(#SVGID_11_);}
	.st68{fill-rule:evenodd;clip-rule:evenodd;fill:url(#SVGID_12_);}
	.st69{fill-rule:evenodd;clip-rule:evenodd;fill:url(#SVGID_13_);}
	.st70{fill-rule:evenodd;clip-rule:evenodd;fill:url(#SVGID_14_);}
	.st71{fill-rule:evenodd;clip-rule:evenodd;fill:url(#SVGID_15_);}
	.st72{fill-rule:evenodd;clip-rule:evenodd;fill:url(#SVGID_16_);}
	.st73{fill-rule:evenodd;clip-rule:evenodd;fill:url(#SVGID_17_);}
	.st74{fill-rule:evenodd;clip-rule:evenodd;fill:url(#SVGID_18_);}
	.st75{fill-rule:evenodd;clip-rule:evenodd;fill:url(#SVGID_19_);}
	.st76{opacity:0.4;fill-rule:evenodd;clip-rule:evenodd;fill:#864C90;}
	.st77{fill-rule:evenodd;clip-rule:evenodd;fill:url(#SVGID_20_);}
	.st78{fill-rule:evenodd;clip-rule:evenodd;fill:#FFFFFF;}
	.st79{fill-rule:evenodd;clip-rule:evenodd;fill:url(#SVGID_21_);}
	.st80{opacity:0.44;fill-rule:evenodd;clip-rule:evenodd;fill:#60003B;}
	.st81{fill-rule:evenodd;clip-rule:evenodd;fill:url(#SVGID_22_);}
	.st82{fill-rule:evenodd;clip-rule:evenodd;fill:url(#SVGID_23_);}
	.st83{fill-rule:evenodd;clip-rule:evenodd;fill:url(#SVGID_24_);}
	.st84{fill-rule:evenodd;clip-rule:evenodd;fill:url(#SVGID_25_);}
	.st85{fill-rule:evenodd;clip-rule:evenodd;fill:url(#SVGID_26_);}
	.st86{fill-rule:evenodd;clip-rule:evenodd;fill:url(#SVGID_27_);}
	.st87{fill-rule:evenodd;clip-rule:evenodd;fill:url(#SVGID_28_);}
	.st88{fill-rule:evenodd;clip-rule:evenodd;fill:url(#SVGID_29_);}
	.st89{fill-rule:evenodd;clip-rule:evenodd;fill:url(#SVGID_30_);}
	.st90{fill-rule:evenodd;clip-rule:evenodd;fill:url(#SVGID_31_);}
	.st91{fill-rule:evenodd;clip-rule:evenodd;fill:url(#SVGID_32_);}
	.st92{fill-rule:evenodd;clip-rule:evenodd;fill:url(#SVGID_33_);}
	.st93{fill-rule:evenodd;clip-rule:evenodd;fill:url(#SVGID_34_);}
	.st94{fill-rule:evenodd;clip-rule:evenodd;fill:url(#SVGID_35_);}
	.st95{fill-rule:evenodd;clip-rule:evenodd;fill:url(#SVGID_36_);}
	.st96{fill-rule:evenodd;clip-rule:evenodd;fill:url(#SVGID_37_);}
	.st97{fill-rule:evenodd;clip-rule:evenodd;fill:url(#SVGID_38_);}
	.st98{fill-rule:evenodd;clip-rule:evenodd;fill:url(#SVGID_39_);}
	.st99{fill-rule:evenodd;clip-rule:evenodd;fill:url(#SVGID_40_);}
	.st100{fill-rule:evenodd;clip-rule:evenodd;fill:url(#SVGID_41_);}
	.st101{fill-rule:evenodd;clip-rule:evenodd;fill:url(#SVGID_42_);}
	.st102{fill-rule:evenodd;clip-rule:evenodd;fill:url(#SVGID_43_);}
	.st103{fill-rule:evenodd;clip-rule:evenodd;fill:url(#SVGID_44_);}
	.st104{fill:#F2E225;}
	.st105{opacity:0.4;fill:url(#SVGID_45_);}
	.st106{fill:#814BA2;}
	.st107{fill:#925CB4;}
	.st108{fill:#B289C9;}
	.st109{fill:#A274BF;}
	.st110{opacity:0.4;fill:url(#SVGID_46_);}
	.st111{fill:#813034;}
	.st112{fill:#802F34;}
	.st113{fill:#AFD2EF;}
	.st114{fill:#E54C3C;}
	.st115{fill:#57607F;}
	.st116{fill:#BF3A2C;}
	.st117{fill:#BF3A2B;}
	.st118{fill:#8796C8;}
	.st119{fill:#C88D95;}
	.st120{fill:#8696C9;}
	.st121{fill:#56607F;}
	.st122{fill:#E3E4E6;}
	.st123{fill:#D8DADE;}
	.st124{opacity:0.4;fill:url(#SVGID_47_);}
	.st125{fill:#F2582F;}
	.st126{fill:#FF7043;}
	.st127{fill:#8E2611;}
	.st128{fill:#E53935;}
	.st129{fill:#F0534A;}
	.st130{fill:#D5D5D3;}
	.st131{opacity:0.4;fill:url(#SVGID_48_);}
	.st132{fill:#F8749D;}
	.st133{fill:#403063;}
	.st134{fill:#403365;}
	.st135{fill:#403264;}
	.st136{fill:#413265;}
	.st137{fill:#E4E5E6;}
	.st138{fill:#E2E2E4;}
	.st139{fill:#DEDEE2;}
	.st140{fill:#3D2E61;}
	.st141{fill:#FDF7F9;}
	.st142{fill:#FDD6E4;}
	.st143{opacity:0.4;fill:url(#SVGID_49_);}
	.st144{fill:#C20047;}
	.st145{fill:#FE405C;}
	.st146{fill:#B1D3EF;}
	.st147{fill:#E0F1FD;}
	.st148{opacity:0.4;fill:url(#SVGID_50_);}
	.st149{opacity:0.4;fill:url(#SVGID_51_);}
	.st150{opacity:0.4;fill:url(#SVGID_52_);}
	.st151{opacity:0.4;fill:url(#SVGID_53_);}
	.st152{opacity:0.4;fill:url(#SVGID_54_);}
	.st153{opacity:0.4;fill:url(#SVGID_55_);}
	.st154{opacity:0.4;fill:url(#SVGID_56_);}
	.st155{fill:#FF5F85;}
	.st156{fill:#FFE878;}
	.st157{fill:#B2527E;}
	.st158{fill:#004FAB;}
	.st159{fill:#57A3FE;}
	.st160{fill:#FEFEFE;}
	.st161{fill:#37A6CD;}
	.st162{fill:#E19A4B;}
	.st163{fill:#54BBE8;}
	.st164{fill:#FBB55F;}
	.st165{fill:#E29A4C;}
	.st166{fill:#E4E8E9;}
	.st167{fill:#D1D0D0;}
	.st168{fill:#E3E7E8;}
	.st169{fill:#566369;}
	.st170{fill:#E19A4C;}
	.st171{fill:#445155;}
	.st172{fill:#E4E7E7;}
	.st173{fill:#566368;}
	.st174{fill:#6E7A7E;}
	.st175{fill:#435054;}
	.st176{fill:#5E5461;}
	.st177{fill:#6F6571;}
	.st178{fill:#5D5360;}
	.st179{fill:#4B3F4E;}
	.st180{fill:#FCCE64;}
	.st181{fill:#FEDF7E;}
	.st182{fill:#857D86;}
	.st183{fill:#3E8FC8;}
	.st184{fill:#FCB630;}
	.st185{fill:#88B237;}
	.st186{fill:#E7594A;}
	.st187{fill:#4398D0;}
	.st188{fill:#D55245;}
	.st189{fill:#80A734;}
	.st190{fill:#FEA71A;}
	.st191{fill:#FAD390;}
	.st192{fill:#F2D45C;}
	.st193{fill:#FA7B76;}
	.st194{fill:#FE5364;}
	.st195{fill:#F8E3C1;}
	.st196{fill:#2D5871;}
	.st197{fill:#FDD8A7;}
	.st198{fill:#E0EEFA;}
	.st199{fill:#F3C792;}
	.st200{fill:#CBDEEC;}
	.st201{fill:#FE4D4C;}
	.st202{fill:#F23A3A;}
	.st203{fill:#1D4859;}
	.st204{fill:#FEB025;}
	.st205{fill:#FE901D;}
	.st206{fill:#1E495A;}
	.st207{fill:#2F5972;}
	.st208{fill:#F3C892;}
	.st209{opacity:0.4;fill:url(#SVGID_57_);}
	.st210{opacity:0.4;fill:url(#SVGID_58_);}
	.st211{fill:#949AA8;}
	.st212{fill:#B3B3B3;}
	.st213{fill:#575D72;}
	.st214{fill:#A3E0F4;}
	.st215{fill:#C2EAF8;}
	.st216{fill:#28304E;}
	.st217{fill:#EC5176;}
	.st218{fill:#FECC34;}
	.st219{fill:#FE76A3;}
	.st220{fill:#E69115;}
	.st221{fill:#FF0000;}
	.st222{fill:#F4AE00;}
	.st223{opacity:0.12;fill:#1B1E23;}
	.st224{fill:#E7E8FA;}
	.st225{fill:#57A845;}
	.st226{fill:none;stroke:#283847;stroke-width:1.2169;stroke-miterlimit:10;}
	.st227{opacity:0.5;fill:#283847;}
	.st228{fill:#6B98F6;}
	.st229{fill:#79AFFF;}
	.st230{clip-path:url(#XMLID_3_);fill:#79AFFF;}
	.st231{clip-path:url(#XMLID_3_);}
	.st232{fill:none;stroke:#212121;stroke-width:1.5836;stroke-linecap:round;stroke-linejoin:round;stroke-miterlimit:10;}
	.st233{fill:#17566C;}
	.st234{clip-path:url(#XMLID_6_);fill:#79AFFF;}
	.st235{clip-path:url(#XMLID_6_);fill:#2072A9;}
	.st236{clip-path:url(#XMLID_6_);fill:#2175B8;}
	.st237{opacity:0.02;clip-path:url(#XMLID_9_);}
	.st238{opacity:0.13;clip-path:url(#XMLID_9_);fill:#FFFFFF;}
	.st239{fill:none;stroke:#212121;stroke-width:0.5;stroke-linecap:round;stroke-linejoin:round;stroke-miterlimit:10;}
	.st240{fill:#212121;}
	.st241{opacity:0.02;clip-path:url(#XMLID_19_);}
	.st242{opacity:0.13;clip-path:url(#XMLID_19_);fill:#FFFFFF;}
	.st243{clip-path:url(#XMLID_20_);fill:#B0C7D8;}
	.st244{clip-path:url(#XMLID_21_);fill:#3A4149;}
	.st245{fill:#FBFFFF;}
	.st246{fill:#EEEEEE;}
	.st247{fill:#FF7B35;}
	.st248{fill:#509DFF;}
	.st249{fill:#B0C7D8;}
	.st250{opacity:0.3;fill:#FFFFFC;}
	.st251{clip-path:url(#XMLID_26_);fill:#FC6C2B;}
	.st252{fill:#B8D0E5;}
	.st253{fill:none;stroke:#000000;stroke-width:2.5763;stroke-miterlimit:10;}
	.st254{opacity:0.12;clip-path:url(#XMLID_27_);}
	.st255{clip-path:url(#XMLID_28_);fill:#217AAB;}
	.st256{opacity:0.2;}
	.st257{opacity:0.12;clip-path:url(#XMLID_29_);fill:#FFFFFF;}
	.st258{opacity:0.03;clip-path:url(#XMLID_42_);}
	.st259{opacity:0.03;clip-path:url(#XMLID_43_);fill:#010102;}
	.st260{opacity:0.04;clip-path:url(#XMLID_44_);}
	.st261{fill:#FDAF00;}
	.st262{fill:#FF7C00;}
	.st263{opacity:0.3;clip-path:url(#XMLID_45_);}
	.st264{opacity:0.3;}
	.st265{fill:none;stroke:#212121;stroke-width:0.9542;stroke-linecap:round;stroke-linejoin:round;stroke-miterlimit:10;}
	.st266{opacity:0.3;clip-path:url(#XMLID_47_);}
	.st267{fill:none;stroke:#212121;stroke-width:1.188;stroke-linecap:round;stroke-linejoin:round;stroke-miterlimit:10;}
	.st268{fill:#FF9D38;}
	.st269{fill:#C8DFFD;}
	.st270{fill:#A8CCFF;}
	.st271{fill:#D5E9FF;}
	.st272{fill:#B8D0FC;}
	.st273{fill:#0B3563;}
	.st274{fill:none;stroke:#BEDBF7;stroke-width:1.0668;stroke-miterlimit:10;}
	.st275{fill:#25468F;}
	.st276{fill:#E4EEF7;}
	.st277{fill:none;stroke:#3A65C9;stroke-width:1.0668;stroke-miterlimit:10;}
	.st278{fill:none;stroke:#3A65C9;stroke-width:1.001;stroke-miterlimit:10;}
	.st279{fill:#FF5521;}
	.st280{fill:#3A65C9;}
	.st281{fill:none;stroke:#FFCC40;stroke-width:2.1337;stroke-linecap:round;stroke-linejoin:round;stroke-miterlimit:10;}
	.st282{fill:#BEDBF7;}
	.st283{fill:none;stroke:#FFFFFF;stroke-width:1.2169;stroke-miterlimit:10;}
	.st284{fill:#10477B;}
	.st285{fill:#D44C10;}
	.st286{fill:#FF912B;}
	.st287{fill:#FC7600;}
	.st288{fill:#FFAE73;}
	.st289{fill:#FC9F38;}
	.st290{fill:#E65F00;}
	.st291{fill:#4681E1;}
	.st292{fill:#032444;}
	.st293{fill:#0D458E;}
	.st294{fill:#1E3865;}
	.st295{fill:#F48F4E;}
	.st296{fill:#254C82;}
	.st297{fill:#F9924F;}
	.st298{opacity:0.5;}
	.st299{fill:#499936;}
	.st300{fill:url(#SVGID_59_);}
	.st301{opacity:0.08;fill:#FFFFFF;}
	.st302{opacity:0.31;fill:#323197;}
	.st303{fill:#F5F5F7;}
	.st304{fill:#A1C2FF;}
	.st305{fill:#FF8D02;}
	.st306{opacity:0.08;}
	.st307{fill:none;stroke:#FFFFFF;stroke-width:2;stroke-linecap:round;stroke-linejoin:round;stroke-miterlimit:10;}
	.st308{opacity:0.44;fill:none;stroke:#FFFFFF;stroke-miterlimit:10;}
	.st309{opacity:0.4;fill:url(#SVGID_60_);}
	.st310{opacity:0.4;fill:url(#SVGID_61_);}
	.st311{fill:#010200;}
	.st312{opacity:0.4;fill:url(#SVGID_62_);}
	.st313{fill:#F74A2D;stroke:#000000;stroke-width:0.35;stroke-miterlimit:10;}
	.st314{clip-path:url(#SVGID_63_);fill:url(#SVGID_64_);}
	.st315{clip-path:url(#SVGID_63_);fill:url(#SVGID_65_);}
	.st316{clip-path:url(#SVGID_63_);fill:url(#SVGID_66_);}
	.st317{clip-path:url(#SVGID_63_);fill:url(#SVGID_67_);}
	.st318{fill:#393D43;}
	.st319{fill:#FDFDFB;}
	.st320{fill:#0086CE;}
	.st321{fill:#69B545;}
	.st322{fill:#D6347C;}
	.st323{fill:#F07F32;}
	.st324{fill:#6F519D;}
	.st325{fill-rule:evenodd;clip-rule:evenodd;fill:#51555B;}
	.st326{fill-rule:evenodd;clip-rule:evenodd;fill:#393D43;}
	.st327{fill:#003A70;}
	.st328{fill:url(#SVGID_68_);}
	.st329{fill:#003399;}
	.st330{fill-rule:evenodd;clip-rule:evenodd;fill:#003399;}
	.st331{fill:#A1A1A1;}
	.st332{fill-rule:evenodd;clip-rule:evenodd;fill:#006677;}
	.st333{fill-rule:evenodd;clip-rule:evenodd;fill:#E45300;}
	.st334{fill-rule:evenodd;clip-rule:evenodd;fill:#2156A6;}
	.st335{fill:#2156A6;}
	.st336{fill:#FB6E3B;}
	.st337{fill:#00C9BD;}
	.st338{fill-rule:evenodd;clip-rule:evenodd;fill:#00ACD8;}
	.st339{fill-rule:evenodd;clip-rule:evenodd;}
	.st340{fill-rule:evenodd;clip-rule:evenodd;fill:#0056A6;}
	.st341{fill-rule:evenodd;clip-rule:evenodd;fill:#F48120;}
	.st342{fill-rule:evenodd;clip-rule:evenodd;fill:#2E3191;}
	.st343{fill:#FBDA00;}
	.st344{fill:#1F1A17;}
	.st345{fill:#007CC2;}
	.st346{fill:#DA251C;}
	.st347{fill-rule:evenodd;clip-rule:evenodd;fill:#F0F0F0;}
	.st348{fill-rule:evenodd;clip-rule:evenodd;fill:#FECF22;}
	.st349{fill-rule:evenodd;clip-rule:evenodd;fill:#006AB4;}
	.st350{fill-rule:evenodd;clip-rule:evenodd;fill:#D61627;}
	.st351{fill-rule:evenodd;clip-rule:evenodd;fill:#E6E6E6;}
	.st352{fill:#007BC2;}
	.st353{fill:#231F20;}
	.st354{fill:#EC1C25;}
	.st355{fill:#243E92;}
	.st356{fill:#E22228;}
	.st357{fill:#FAD701;}
	.st358{fill-rule:evenodd;clip-rule:evenodd;fill:#E61F20;}
	.st359{fill-rule:evenodd;clip-rule:evenodd;fill:#004B97;}
	.st360{fill-rule:evenodd;clip-rule:evenodd;fill:#E50013;}
	.st361{fill-rule:evenodd;clip-rule:evenodd;fill:url(#SVGID_71_);}
	.st362{fill-rule:evenodd;clip-rule:evenodd;fill:url(#SVGID_72_);}
	.st363{fill-rule:evenodd;clip-rule:evenodd;fill:#412A8B;}
</style>
<path class="st66" d="M54.71,30.89H5.53C2.48,30.89,0,28.42,0,25.36V5.53C0,2.48,2.48,0,5.53,0h49.18c3.05,0,5.53,2.48,5.53,5.53
	v19.83C60.24,28.42,57.77,30.89,54.71,30.89z"/>
<g id="Layer_x5F_1">
	<path class="st331" d="M10.06,21.71c0,0.08,0,0.21,0.1,0.33c0.13,0.17,0.39,0.19,0.51,0.19c0.42,0,0.65-0.22,0.65-0.51
		c0-0.07-0.01-0.23-0.16-0.33c-0.1-0.06-0.14-0.07-0.53-0.17c-0.2-0.05-0.3-0.1-0.3-0.24c0-0.16,0.14-0.27,0.37-0.27
		c0.16,0,0.34,0.05,0.35,0.25h0.24c0-0.07-0.01-0.18-0.1-0.28c-0.13-0.14-0.35-0.16-0.46-0.16c-0.31,0-0.63,0.15-0.63,0.48
		c0,0.11,0.04,0.23,0.17,0.32c0.08,0.06,0.2,0.08,0.45,0.15c0.23,0.06,0.38,0.09,0.38,0.28c0,0.08-0.04,0.29-0.39,0.29
		c-0.38,0-0.39-0.21-0.4-0.33H10.06z M12.49,21.66c0-0.19,0.02-0.64-0.5-0.64c-0.07,0-0.2,0.01-0.31,0.08
		c-0.18,0.13-0.23,0.31-0.23,0.54c0,0.36,0.17,0.59,0.53,0.59c0.23,0,0.34-0.1,0.4-0.15c0.08-0.09,0.09-0.18,0.1-0.24h-0.21
		C12.25,22,12.13,22.08,12,22.08c-0.24,0-0.33-0.18-0.33-0.41H12.49z M11.68,21.51c0-0.25,0.17-0.34,0.31-0.34
		c0.26,0,0.29,0.23,0.28,0.34H11.68z M12.74,22.2h0.22v-0.61c0-0.2,0.06-0.35,0.31-0.35c0.03,0,0.05,0,0.06,0
		c0.02,0,0.03,0,0.04,0.01v-0.21c-0.04,0-0.08,0-0.15,0c-0.1,0.01-0.23,0.07-0.27,0.23l0-0.22h-0.22c0.01,0.08,0.01,0.16,0.01,0.23
		V22.2z M13.85,22.2h0.22l0.5-1.15h-0.24l-0.36,0.91l-0.37-0.91h-0.24L13.85,22.2z M14.72,20.79h0.26v-0.24h-0.26V20.79z
		 M14.74,22.2h0.21v-1.15h-0.21V22.2z M15.3,22.2h0.21v-0.66c0-0.23,0.14-0.34,0.3-0.34c0.07,0,0.15,0.03,0.2,0.08
		c0.05,0.05,0.06,0.12,0.06,0.2v0.73h0.22v-0.78c0-0.35-0.31-0.39-0.42-0.39c-0.26,0-0.34,0.16-0.37,0.21l0-0.19H15.3l0,0.13V22.2z
		 M16.59,22.29c0.01,0.16,0.02,0.37,0.48,0.37c0.16,0,0.38-0.02,0.48-0.21c0.05-0.09,0.05-0.2,0.05-0.48l0-0.72l0-0.21H17.4l0,0.16
		c-0.05-0.06-0.13-0.17-0.36-0.17c-0.28,0-0.51,0.19-0.51,0.58c0,0.15,0.03,0.31,0.13,0.42c0.1,0.12,0.25,0.14,0.35,0.14
		c0.07,0,0.29,0,0.38-0.19c0,0.31,0,0.53-0.3,0.53c-0.2,0-0.26-0.1-0.27-0.22H16.59z M17.07,22.02c-0.26,0-0.32-0.23-0.32-0.41
		c0-0.15,0.04-0.42,0.31-0.42c0.1,0,0.19,0.04,0.25,0.1c0.06,0.06,0.09,0.14,0.09,0.29c0,0.21-0.03,0.27-0.08,0.33
		C17.27,21.97,17.19,22.02,17.07,22.02z M18.37,21.2h0.2v0.76c0,0.19,0.09,0.24,0.29,0.24c0.08,0,0.14-0.01,0.18-0.01v-0.17
		c-0.02,0-0.06,0.01-0.1,0.01c-0.15,0-0.15-0.1-0.15-0.15V21.2h0.26v-0.16h-0.26v-0.31l-0.21,0.07v0.24h-0.2V21.2z M19.23,22.2h0.22
		v-0.61c0-0.07,0-0.18,0.04-0.24c0.03-0.05,0.11-0.15,0.27-0.15c0.25,0,0.25,0.22,0.25,0.32v0.68h0.22v-0.72
		c0-0.17-0.02-0.22-0.04-0.27c-0.07-0.14-0.24-0.18-0.36-0.18c-0.16,0-0.3,0.07-0.37,0.19v-0.67h-0.22V22.2z M21.51,21.66
		c0-0.19,0.02-0.64-0.5-0.64c-0.07,0-0.2,0.01-0.31,0.08c-0.18,0.13-0.23,0.31-0.23,0.54c0,0.36,0.17,0.59,0.53,0.59
		c0.23,0,0.34-0.1,0.4-0.15c0.08-0.09,0.09-0.18,0.1-0.24h-0.21c-0.02,0.16-0.13,0.24-0.27,0.24c-0.24,0-0.33-0.18-0.33-0.41H21.51z
		 M20.69,21.51c0-0.25,0.17-0.34,0.31-0.34c0.26,0,0.29,0.23,0.28,0.34H20.69z M23.6,20.99c-0.03-0.37-0.36-0.47-0.59-0.47
		c-0.59,0-0.72,0.52-0.72,0.87c0,0.32,0.11,0.83,0.69,0.83c0.28,0,0.58-0.13,0.62-0.46h-0.25c-0.01,0.04-0.02,0.11-0.08,0.17
		c-0.07,0.07-0.17,0.1-0.27,0.1c-0.38,0-0.47-0.34-0.47-0.65c0-0.27,0.07-0.68,0.47-0.68c0.32,0,0.35,0.23,0.36,0.29H23.6z
		 M23.72,21.64c0,0.34,0.18,0.6,0.56,0.6c0.39,0,0.58-0.28,0.58-0.61c0-0.24-0.1-0.6-0.56-0.6C23.86,21.02,23.72,21.35,23.72,21.64z
		 M23.95,21.62c0-0.36,0.22-0.45,0.36-0.45c0.2,0,0.33,0.15,0.33,0.44c0,0.34-0.19,0.46-0.35,0.46
		C24.05,22.08,23.95,21.86,23.95,21.62z M25.1,21.05v0.77c0,0.23,0.13,0.39,0.42,0.39c0.25,0,0.32-0.13,0.37-0.21l0,0.2h0.22
		c0-0.06-0.01-0.19-0.01-0.21v-0.93h-0.22v0.65c0,0.06,0,0.15-0.05,0.21c-0.06,0.09-0.16,0.13-0.27,0.13
		c-0.22,0-0.24-0.14-0.24-0.25v-0.74H25.1z M26.45,22.2h0.21v-0.66c0-0.23,0.14-0.34,0.3-0.34c0.07,0,0.15,0.03,0.2,0.08
		c0.05,0.05,0.06,0.12,0.06,0.2v0.73h0.22v-0.78c0-0.35-0.31-0.39-0.42-0.39c-0.26,0-0.34,0.16-0.37,0.21l0-0.19h-0.21l0,0.13V22.2z
		 M27.59,21.2h0.2v0.76c0,0.19,0.09,0.24,0.29,0.24c0.08,0,0.14-0.01,0.18-0.01v-0.17c-0.02,0-0.06,0.01-0.1,0.01
		c-0.15,0-0.15-0.1-0.15-0.15V21.2h0.26v-0.16H28v-0.31l-0.21,0.07v0.24h-0.2V21.2z M28.46,22.2h0.22v-0.61
		c0-0.2,0.06-0.35,0.31-0.35c0.03,0,0.05,0,0.06,0c0.02,0,0.03,0,0.04,0.01v-0.21c-0.04,0-0.08,0-0.15,0
		c-0.1,0.01-0.23,0.07-0.27,0.23l0-0.22h-0.22c0.01,0.08,0.01,0.16,0.01,0.23V22.2z M30.29,21.05h-0.23l-0.37,0.9l-0.36-0.9h-0.24
		l0.48,1.14l-0.17,0.44h0.22l0.16-0.43L30.29,21.05z M30.39,21.92l-0.15,0.56h0.16l0.26-0.56H30.39z M31.5,22.2h0.23v-0.73H32
		c0.3,0,0.41-0.05,0.5-0.14c0.09-0.09,0.13-0.2,0.13-0.32c0-0.12-0.04-0.24-0.12-0.32c-0.11-0.12-0.25-0.13-0.45-0.13H31.5V22.2z
		 M31.73,20.73h0.32c0.12,0,0.33,0,0.33,0.26c0,0.27-0.23,0.28-0.38,0.28h-0.27V20.73z M32.79,22.2h0.22v-0.61
		c0-0.2,0.06-0.35,0.31-0.35c0.03,0,0.05,0,0.06,0c0.02,0,0.03,0,0.04,0.01v-0.21c-0.04,0-0.08,0-0.15,0
		c-0.1,0.01-0.23,0.07-0.27,0.23l0-0.22h-0.22c0.01,0.08,0.01,0.16,0.01,0.23V22.2z M33.57,20.79h0.26v-0.24h-0.26V20.79z
		 M33.59,22.2h0.21v-1.15h-0.21V22.2z M34.94,21.21c-0.03-0.05-0.11-0.19-0.36-0.19c-0.27,0-0.52,0.19-0.52,0.63
		c0,0.5,0.34,0.58,0.49,0.58c0.08,0,0.19-0.02,0.28-0.08c0.06-0.04,0.08-0.09,0.1-0.12l0,0.18h0.21c0-0.06-0.01-0.16-0.01-0.18
		v-1.46h-0.21V21.21z M34.95,21.61c0,0.09,0,0.46-0.34,0.46c-0.26,0-0.32-0.24-0.32-0.44c0-0.08,0-0.46,0.32-0.46
		c0.12,0,0.21,0.06,0.25,0.12C34.91,21.35,34.95,21.44,34.95,21.61z M36.42,21.66c0-0.19,0.02-0.64-0.5-0.64
		c-0.07,0-0.2,0.01-0.31,0.08c-0.18,0.13-0.23,0.31-0.23,0.54c0,0.36,0.17,0.59,0.53,0.59c0.23,0,0.34-0.1,0.4-0.15
		c0.08-0.09,0.09-0.18,0.1-0.24H36.2c-0.02,0.16-0.13,0.24-0.27,0.24c-0.24,0-0.33-0.18-0.33-0.41H36.42z M35.61,21.51
		c0-0.25,0.17-0.34,0.31-0.34c0.26,0,0.29,0.23,0.28,0.34H35.61z M37.19,21.64c0,0.34,0.18,0.6,0.56,0.6c0.39,0,0.58-0.28,0.58-0.61
		c0-0.24-0.1-0.6-0.56-0.6C37.32,21.02,37.19,21.35,37.19,21.64z M37.42,21.62c0-0.36,0.22-0.45,0.36-0.45
		c0.2,0,0.33,0.15,0.33,0.44c0,0.34-0.19,0.46-0.35,0.46C37.52,22.08,37.42,21.86,37.42,21.62z M39.17,20.54
		c-0.05-0.01-0.11-0.02-0.18-0.02c-0.15,0-0.24,0.05-0.29,0.13c-0.04,0.06-0.05,0.12-0.05,0.27v0.13h-0.23v0.16h0.23v0.99h0.21
		v-0.99h0.27v-0.16h-0.27v-0.18c0-0.08,0-0.17,0.17-0.17c0.04,0,0.09,0,0.13,0V20.54z M39.72,21.2h0.2v0.76
		c0,0.19,0.09,0.24,0.29,0.24c0.08,0,0.14-0.01,0.18-0.01v-0.17c-0.02,0-0.06,0.01-0.1,0.01c-0.15,0-0.15-0.1-0.15-0.15V21.2h0.26
		v-0.16h-0.26v-0.31l-0.21,0.07v0.24h-0.2V21.2z M40.58,22.2h0.22v-0.61c0-0.07,0-0.18,0.04-0.24c0.03-0.05,0.11-0.15,0.27-0.15
		c0.25,0,0.25,0.22,0.25,0.32v0.68h0.22v-0.72c0-0.17-0.02-0.22-0.04-0.27c-0.07-0.14-0.24-0.18-0.36-0.18
		c-0.16,0-0.3,0.07-0.37,0.19v-0.67h-0.22V22.2z M42.85,21.66c0-0.19,0.02-0.64-0.5-0.64c-0.07,0-0.2,0.01-0.31,0.08
		c-0.18,0.13-0.23,0.31-0.23,0.54c0,0.36,0.17,0.59,0.53,0.59c0.23,0,0.34-0.1,0.4-0.15c0.08-0.09,0.09-0.18,0.1-0.24h-0.21
		c-0.02,0.16-0.13,0.24-0.27,0.24c-0.24,0-0.33-0.18-0.33-0.41H42.85z M42.04,21.51c0-0.25,0.17-0.34,0.31-0.34
		c0.26,0,0.29,0.23,0.28,0.34H42.04z M43.72,22.2h0.21v-1.4l0.84,1.4h0.29v-1.65h-0.21v1.36l-0.81-1.36h-0.32V22.2z M46.3,22.2
		c-0.02-0.12-0.02-0.27-0.02-0.29l0.01-0.55c0-0.05,0-0.11-0.04-0.18c-0.06-0.12-0.24-0.17-0.41-0.17c-0.12,0-0.28,0.03-0.37,0.12
		c-0.07,0.08-0.07,0.16-0.08,0.22h0.21c0-0.05,0.01-0.19,0.23-0.19c0.06,0,0.16,0.02,0.2,0.08c0.04,0.05,0.04,0.11,0.04,0.25
		c-0.07,0-0.1-0.01-0.16-0.01c-0.09,0-0.27,0.01-0.4,0.08c-0.17,0.1-0.2,0.24-0.2,0.34c0,0.19,0.14,0.34,0.4,0.34
		c0.1,0,0.25-0.02,0.35-0.21c0,0.06,0,0.11,0.02,0.17H46.3z M46.08,21.64c0,0.16-0.01,0.22-0.05,0.3c-0.05,0.08-0.13,0.12-0.24,0.12
		c-0.19,0-0.24-0.13-0.24-0.2c0-0.23,0.33-0.23,0.41-0.23C46.01,21.63,46.04,21.63,46.08,21.64z M46.43,21.2h0.2v0.76
		c0,0.19,0.09,0.24,0.29,0.24c0.08,0,0.14-0.01,0.18-0.01v-0.17c-0.02,0-0.06,0.01-0.1,0.01c-0.15,0-0.15-0.1-0.15-0.15V21.2h0.26
		v-0.16h-0.26v-0.31l-0.21,0.07v0.24h-0.2V21.2z M47.27,20.79h0.26v-0.24h-0.26V20.79z M47.29,22.2h0.21v-1.15h-0.21V22.2z
		 M47.76,21.64c0,0.34,0.18,0.6,0.56,0.6c0.39,0,0.58-0.28,0.58-0.61c0-0.24-0.1-0.6-0.56-0.6C47.89,21.02,47.76,21.35,47.76,21.64z
		 M47.98,21.62c0-0.36,0.22-0.45,0.36-0.45c0.2,0,0.33,0.15,0.33,0.44c0,0.34-0.19,0.46-0.35,0.46
		C48.09,22.08,47.98,21.86,47.98,21.62z M49.17,22.2h0.21v-0.66c0-0.23,0.14-0.34,0.3-0.34c0.07,0,0.15,0.03,0.2,0.08
		c0.05,0.05,0.06,0.12,0.06,0.2v0.73h0.22v-0.78c0-0.35-0.31-0.39-0.42-0.39c-0.26,0-0.34,0.16-0.37,0.21l0-0.19h-0.21l0,0.13V22.2z
		"/>
	<path id="_719543696" class="st332" d="M34.27,8.24h2.5l6.08,8.2V9.49c0-0.7-0.96-1.22-0.96-1.22h3.12c0,0-0.82,0.47-0.82,1.21
		v10.54c0,0-1.44-0.59-2.54-2.07c-1.09-1.48-5.19-6.83-5.19-6.83v7.08c0,0.51,0.86,1.13,0.86,1.13h-3.08c0,0,0.86-0.47,0.86-1.09
		V9.59C35.1,8.65,34.27,8.24,34.27,8.24z M47.7,16.44V9.48c0-0.7-0.97-1.23-0.97-1.23h3.67c0,0-0.82,0.47-0.82,1.21v8.66
		c0,0.66,0.78,1.21,0.78,1.21h-3.53c0,0,0.86-0.53,0.86-1.08V16.44z M26.75,9.36v3.36h1.6c0.74,0,1.79-0.39,1.79-1.76
		c0-1.37-1.56-1.6-2.1-1.6H26.75z M26.75,13.81v4.37h2.1c0.82,0,2.34-0.7,2.34-2.07c0-1.37-1.25-2.3-2.41-2.3H26.75z M24.03,8.25
		h5.4c1.21,0,2.58,1.03,2.58,2.44c0,1.91-1.47,2.17-1.47,2.17s2.57,0.62,2.57,3.09c0,2.46-2.8,3.39-3.74,3.39l-5.41-0.01
		c0,0,0.93-0.49,0.93-1.31V9.58C24.9,8.72,24.03,8.25,24.03,8.25z"/>
	<g id="_719544824">
		<path class="st78" d="M9.84,19.34h11.09V8.25H9.84V19.34z"/>
		<path class="st333" d="M9.84,8.25h3.46c-0.01,0.02-0.04,0.09-0.07,0.21c-0.15,0.59-0.37,2.28,1.15,4.76
			c0.38,0.61,0.74,1.1,1.11,1.57l-1.2,0.96c-2-2.45-4.46-5.56-4.46-5.56V8.25z M9.84,12.48v6.86l3.36-2.71l-2.32-2.88L9.84,12.48z
			 M20.93,11.78c-0.02-0.03-0.13-0.19-0.28-0.34c-0.46-0.47-1.46-1.23-2.66-0.58c-1.11,0.6-1.68,1.98-0.29,3.8
			c1.14,1.5,2.16,1.65,2.74,1.56c0.1-0.01,0.41-0.09,0.49-0.14V11.78z M20.93,9.77l0-1.52h-6.17c-0.01,0.03-0.05,0.12-0.07,0.28
			c-0.04,0.35-0.05,1.02,0.19,1.97c0.34,1.3,1.29,2.46,1.29,2.46s-0.1-1.29,1.09-2.49c0.75-0.76,1.61-0.99,2.3-0.98
			c0.24,0,0.47,0.04,0.66,0.08C20.32,9.58,20.87,9.74,20.93,9.77z M20.93,16.63c-0.03,0.02-0.09,0.07-0.21,0.14
			c-0.3,0.21-0.95,0.51-2.02,0.35c-0.97-0.15-1.9-0.79-2.75-1.8l-1.22,0.98c0.86,1.04,1.53,1.87,1.75,2.03
			c0.84,0.6,1.42,0.37,1.42,0.37l-0.78,0.63h3.81V16.63z M15.18,19.34h-4.23l0.35-0.28l2.35-1.88c0,0,0.93,1.21,1.3,1.65
			c0.07,0.08,0.12,0.16,0.16,0.23C15.17,19.19,15.16,19.27,15.18,19.34z"/>
	</g>
</g>
</svg>
