<svg xmlns="http://www.w3.org/2000/svg" width="15.118" height="15.118" viewBox="0 0 15.118 15.118">
    <defs>
        <style>
            .cls-1{fill:#fc5e31}
        </style>
    </defs>
    <g id="icon_hotel_page-04" transform="translate(0.038 -0.002)">
        <path id="Path_4843" d="M7.11 15.11a4.947 4.947 0 0 1-.86-.12 7.41 7.41 0 0 1-4.36-2.45A7.369 7.369 0 0 1 1.55 3 7.46 7.46 0 0 1 6 .16 7.59 7.59 0 0 1 8.56.07a7.81 7.81 0 0 1 3.13 1.16 6.55 6.55 0 0 1 .53.39.62.62 0 0 1 .13.88.64.64 0 0 1-.87.13c-.42-.26-.83-.56-1.28-.78a6 6 0 0 0-3.45-.54 6.08 6.08 0 0 0-3.17 1.37 6.13 6.13 0 0 0-2.22 3.76 6.06 6.06 0 0 0 .62 4 6.16 6.16 0 0 0 4.5 3.28 6 6 0 0 0 5.07-1.35 6.13 6.13 0 0 0 2.28-5.27 6 6 0 0 0-.57-2.23.9.9 0 0 1-.08-.45.59.59 0 0 1 .5-.53.61.61 0 0 1 .68.37 14.081 14.081 0 0 1 .5 1.37c.11.43.15.87.22 1.31v1.37a7.45 7.45 0 0 1-1.9 4.28A7.37 7.37 0 0 1 8.85 15a6.58 6.58 0 0 0-.86.12z" class="cls-1"/>
        <path id="Path_4844" d="M8.18 6.93h2.45a.632.632 0 1 1 .11 1.26H7.62a.63.63 0 0 1-.7-.69V3.21a.64.64 0 0 1 .75-.68.62.62 0 0 1 .5.56 1.27 1.27 0 0 1 0 .2v3.64z" class="cls-1"/>
    </g>
</svg>
