<?xml version="1.0" encoding="utf-8"?>
<!-- Generator: Adobe Illustrator 24.0.0, SVG Export Plug-In . SVG Version: 6.00 Build 0)  -->
<svg version="1.1" id="Layer_1" xmlns="http://www.w3.org/2000/svg" xmlns:xlink="http://www.w3.org/1999/xlink" x="0px" y="0px"
	 viewBox="0 0 164.17 65.2" style="enable-background:new 0 0 164.17 65.2;" xml:space="preserve">
<style type="text/css">
	.st0{fill:#6C727C;}
	.st1{fill:#FC5E31;}
	.st2{fill:#8CC63F;}
	.st3{fill:#F3F4F5;}
	.st4{fill:#F74A2D;}
	.st5{fill:#153663;}
	.st6{fill:#153765;}
	.st7{fill:#153867;}
	.st8{fill:#153969;}
	.st9{fill:#15396B;}
	.st10{fill:#153A6D;}
	.st11{fill:#153B6F;}
	.st12{fill:#153C71;}
	.st13{fill:#143D73;}
	.st14{fill:#143E75;}
	.st15{fill:#143E77;}
	.st16{fill:#143F79;}
	.st17{fill:#14407B;}
	.st18{fill:#14417D;}
	.st19{fill:#14427F;}
	.st20{fill:#144381;}
	.st21{fill:#144383;}
	.st22{fill:#144485;}
	.st23{fill:#144587;}
	.st24{fill:#144689;}
	.st25{fill:#14478B;}
	.st26{fill:#14488D;}
	.st27{fill:#14488F;}
	.st28{fill:#144991;}
	.st29{fill:#134A93;}
	.st30{fill:#134B95;}
	.st31{fill:#134C97;}
	.st32{fill:#134D99;}
	.st33{fill:#134D9B;}
	.st34{fill:#134E9D;}
	.st35{fill:#134F9F;}
	.st36{fill:#1350A1;}
	.st37{fill-rule:evenodd;clip-rule:evenodd;fill:#F1E7ED;}
	.st38{fill-rule:evenodd;clip-rule:evenodd;fill:#A893D0;}
	.st39{opacity:0.5;fill-rule:evenodd;clip-rule:evenodd;fill:#5D2C84;}
	.st40{fill-rule:evenodd;clip-rule:evenodd;fill:#CABDE2;}
	.st41{fill-rule:evenodd;clip-rule:evenodd;fill:#704E8D;}
	.st42{fill-rule:evenodd;clip-rule:evenodd;fill:#FBF9FB;}
	.st43{opacity:0.83;fill-rule:evenodd;clip-rule:evenodd;fill:url(#SVGID_2_);}
	.st44{opacity:0.83;fill-rule:evenodd;clip-rule:evenodd;fill:url(#SVGID_3_);}
	.st45{fill:#8D6B96;}
	.st46{opacity:0.2;fill-rule:evenodd;clip-rule:evenodd;fill:#864C90;}
	.st47{fill-rule:evenodd;clip-rule:evenodd;fill:#CECBEA;}
	.st48{fill-rule:evenodd;clip-rule:evenodd;fill:#39175A;}
	.st49{fill-rule:evenodd;clip-rule:evenodd;fill:#F83D45;}
	.st50{fill-rule:evenodd;clip-rule:evenodd;fill:#B32742;}
	.st51{fill-rule:evenodd;clip-rule:evenodd;fill:#A28BCC;}
	.st52{opacity:0.5;fill-rule:evenodd;clip-rule:evenodd;fill:#864C90;}
	.st53{fill-rule:evenodd;clip-rule:evenodd;fill:url(#SVGID_4_);}
	.st54{fill-rule:evenodd;clip-rule:evenodd;fill:url(#SVGID_6_);}
	.st55{fill:#B32742;}
	.st56{fill-rule:evenodd;clip-rule:evenodd;fill:url(#SVGID_8_);}
	.st57{fill-rule:evenodd;clip-rule:evenodd;fill:url(#SVGID_9_);}
	.st58{fill-rule:evenodd;clip-rule:evenodd;fill:#7A5AC4;}
	.st59{fill-rule:evenodd;clip-rule:evenodd;fill:#7A5AA7;}
	.st60{fill-rule:evenodd;clip-rule:evenodd;fill:#5A2967;}
	.st61{fill-rule:evenodd;clip-rule:evenodd;fill:#C4D1ED;}
	.st62{opacity:0.5;fill-rule:evenodd;clip-rule:evenodd;fill:#6D4C90;}
	.st63{fill:#7A5AA7;}
	.st64{fill:#39175A;}
	.st65{fill-rule:evenodd;clip-rule:evenodd;fill:url(#SVGID_10_);}
	.st66{fill:#FFFFFF;}
	.st67{fill-rule:evenodd;clip-rule:evenodd;fill:url(#SVGID_11_);}
	.st68{fill-rule:evenodd;clip-rule:evenodd;fill:url(#SVGID_12_);}
	.st69{fill-rule:evenodd;clip-rule:evenodd;fill:url(#SVGID_13_);}
	.st70{fill-rule:evenodd;clip-rule:evenodd;fill:url(#SVGID_14_);}
	.st71{fill-rule:evenodd;clip-rule:evenodd;fill:url(#SVGID_15_);}
	.st72{fill-rule:evenodd;clip-rule:evenodd;fill:url(#SVGID_16_);}
	.st73{fill-rule:evenodd;clip-rule:evenodd;fill:url(#SVGID_17_);}
	.st74{fill-rule:evenodd;clip-rule:evenodd;fill:url(#SVGID_18_);}
	.st75{fill-rule:evenodd;clip-rule:evenodd;fill:url(#SVGID_19_);}
	.st76{opacity:0.4;fill-rule:evenodd;clip-rule:evenodd;fill:#864C90;}
	.st77{fill-rule:evenodd;clip-rule:evenodd;fill:url(#SVGID_20_);}
	.st78{fill-rule:evenodd;clip-rule:evenodd;fill:#FFFFFF;}
	.st79{fill-rule:evenodd;clip-rule:evenodd;fill:url(#SVGID_21_);}
	.st80{opacity:0.44;fill-rule:evenodd;clip-rule:evenodd;fill:#60003B;}
	.st81{fill-rule:evenodd;clip-rule:evenodd;fill:url(#SVGID_22_);}
	.st82{fill-rule:evenodd;clip-rule:evenodd;fill:url(#SVGID_23_);}
	.st83{fill-rule:evenodd;clip-rule:evenodd;fill:url(#SVGID_24_);}
	.st84{fill-rule:evenodd;clip-rule:evenodd;fill:url(#SVGID_25_);}
	.st85{fill-rule:evenodd;clip-rule:evenodd;fill:url(#SVGID_26_);}
	.st86{fill-rule:evenodd;clip-rule:evenodd;fill:url(#SVGID_27_);}
	.st87{fill-rule:evenodd;clip-rule:evenodd;fill:url(#SVGID_28_);}
	.st88{fill-rule:evenodd;clip-rule:evenodd;fill:url(#SVGID_29_);}
	.st89{fill-rule:evenodd;clip-rule:evenodd;fill:url(#SVGID_30_);}
	.st90{fill-rule:evenodd;clip-rule:evenodd;fill:url(#SVGID_31_);}
	.st91{fill-rule:evenodd;clip-rule:evenodd;fill:url(#SVGID_32_);}
	.st92{fill-rule:evenodd;clip-rule:evenodd;fill:url(#SVGID_33_);}
	.st93{fill-rule:evenodd;clip-rule:evenodd;fill:url(#SVGID_34_);}
	.st94{fill-rule:evenodd;clip-rule:evenodd;fill:url(#SVGID_35_);}
	.st95{fill-rule:evenodd;clip-rule:evenodd;fill:url(#SVGID_36_);}
	.st96{fill-rule:evenodd;clip-rule:evenodd;fill:url(#SVGID_37_);}
	.st97{fill-rule:evenodd;clip-rule:evenodd;fill:url(#SVGID_38_);}
	.st98{fill-rule:evenodd;clip-rule:evenodd;fill:url(#SVGID_39_);}
	.st99{fill-rule:evenodd;clip-rule:evenodd;fill:url(#SVGID_40_);}
	.st100{fill-rule:evenodd;clip-rule:evenodd;fill:url(#SVGID_41_);}
	.st101{fill-rule:evenodd;clip-rule:evenodd;fill:url(#SVGID_42_);}
	.st102{fill-rule:evenodd;clip-rule:evenodd;fill:url(#SVGID_43_);}
	.st103{fill-rule:evenodd;clip-rule:evenodd;fill:url(#SVGID_44_);}
	.st104{fill:#F2E225;}
	.st105{opacity:0.4;fill:url(#SVGID_45_);}
	.st106{fill:#814BA2;}
	.st107{fill:#925CB4;}
	.st108{fill:#B289C9;}
	.st109{fill:#A274BF;}
	.st110{opacity:0.4;fill:url(#SVGID_46_);}
	.st111{fill:#813034;}
	.st112{fill:#802F34;}
	.st113{fill:#AFD2EF;}
	.st114{fill:#E54C3C;}
	.st115{fill:#57607F;}
	.st116{fill:#BF3A2C;}
	.st117{fill:#BF3A2B;}
	.st118{fill:#8796C8;}
	.st119{fill:#C88D95;}
	.st120{fill:#8696C9;}
	.st121{fill:#56607F;}
	.st122{fill:#E3E4E6;}
	.st123{fill:#D8DADE;}
	.st124{opacity:0.4;fill:url(#SVGID_47_);}
	.st125{fill:#F2582F;}
	.st126{fill:#FF7043;}
	.st127{fill:#8E2611;}
	.st128{fill:#E53935;}
	.st129{fill:#F0534A;}
	.st130{fill:#D5D5D3;}
	.st131{opacity:0.4;fill:url(#SVGID_48_);}
	.st132{fill:#F8749D;}
	.st133{fill:#403063;}
	.st134{fill:#403365;}
	.st135{fill:#403264;}
	.st136{fill:#413265;}
	.st137{fill:#E4E5E6;}
	.st138{fill:#E2E2E4;}
	.st139{fill:#DEDEE2;}
	.st140{fill:#3D2E61;}
	.st141{fill:#FDF7F9;}
	.st142{fill:#FDD6E4;}
	.st143{opacity:0.4;fill:url(#SVGID_49_);}
	.st144{fill:#C20047;}
	.st145{fill:#FE405C;}
	.st146{fill:#B1D3EF;}
	.st147{fill:#E0F1FD;}
	.st148{opacity:0.4;fill:url(#SVGID_50_);}
	.st149{opacity:0.4;fill:url(#SVGID_51_);}
	.st150{opacity:0.4;fill:url(#SVGID_52_);}
	.st151{opacity:0.4;fill:url(#SVGID_53_);}
	.st152{opacity:0.4;fill:url(#SVGID_54_);}
	.st153{opacity:0.4;fill:url(#SVGID_55_);}
	.st154{opacity:0.4;fill:url(#SVGID_56_);}
	.st155{fill:#FF5F85;}
	.st156{fill:#FFE878;}
	.st157{fill:#B2527E;}
	.st158{fill:#004FAB;}
	.st159{fill:#57A3FE;}
	.st160{fill:#FEFEFE;}
	.st161{fill:#37A6CD;}
	.st162{fill:#E19A4B;}
	.st163{fill:#54BBE8;}
	.st164{fill:#FBB55F;}
	.st165{fill:#E29A4C;}
	.st166{fill:#E4E8E9;}
	.st167{fill:#D1D0D0;}
	.st168{fill:#E3E7E8;}
	.st169{fill:#566369;}
	.st170{fill:#E19A4C;}
	.st171{fill:#445155;}
	.st172{fill:#E4E7E7;}
	.st173{fill:#566368;}
	.st174{fill:#6E7A7E;}
	.st175{fill:#435054;}
	.st176{fill:#5E5461;}
	.st177{fill:#6F6571;}
	.st178{fill:#5D5360;}
	.st179{fill:#4B3F4E;}
	.st180{fill:#FCCE64;}
	.st181{fill:#FEDF7E;}
	.st182{fill:#857D86;}
	.st183{fill:#3E8FC8;}
	.st184{fill:#FCB630;}
	.st185{fill:#88B237;}
	.st186{fill:#E7594A;}
	.st187{fill:#4398D0;}
	.st188{fill:#D55245;}
	.st189{fill:#80A734;}
	.st190{fill:#FEA71A;}
	.st191{fill:#FAD390;}
	.st192{fill:#F2D45C;}
	.st193{fill:#FA7B76;}
	.st194{fill:#FE5364;}
	.st195{fill:#F8E3C1;}
	.st196{fill:#2D5871;}
	.st197{fill:#FDD8A7;}
	.st198{fill:#E0EEFA;}
	.st199{fill:#F3C792;}
	.st200{fill:#CBDEEC;}
	.st201{fill:#FE4D4C;}
	.st202{fill:#F23A3A;}
	.st203{fill:#1D4859;}
	.st204{fill:#FEB025;}
	.st205{fill:#FE901D;}
	.st206{fill:#1E495A;}
	.st207{fill:#2F5972;}
	.st208{fill:#F3C892;}
	.st209{opacity:0.4;fill:url(#SVGID_57_);}
	.st210{opacity:0.4;fill:url(#SVGID_58_);}
	.st211{fill:#949AA8;}
	.st212{fill:#B3B3B3;}
	.st213{fill:#575D72;}
	.st214{fill:#A3E0F4;}
	.st215{fill:#C2EAF8;}
	.st216{fill:#28304E;}
	.st217{fill:#EC5176;}
	.st218{fill:#FECC34;}
	.st219{fill:#FE76A3;}
	.st220{fill:#E69115;}
	.st221{fill:#FF0000;}
	.st222{fill:#F4AE00;}
	.st223{opacity:0.12;fill:#1B1E23;}
	.st224{fill:#E7E8FA;}
	.st225{fill:#57A845;}
	.st226{fill:none;stroke:#283847;stroke-width:1.2169;stroke-miterlimit:10;}
	.st227{opacity:0.5;fill:#283847;}
	.st228{fill:#6B98F6;}
	.st229{fill:#79AFFF;}
	.st230{clip-path:url(#XMLID_3_);fill:#79AFFF;}
	.st231{clip-path:url(#XMLID_3_);}
	.st232{fill:none;stroke:#212121;stroke-width:1.5836;stroke-linecap:round;stroke-linejoin:round;stroke-miterlimit:10;}
	.st233{fill:#17566C;}
	.st234{clip-path:url(#XMLID_6_);fill:#79AFFF;}
	.st235{clip-path:url(#XMLID_6_);fill:#2072A9;}
	.st236{clip-path:url(#XMLID_6_);fill:#2175B8;}
	.st237{opacity:0.02;clip-path:url(#XMLID_9_);}
	.st238{opacity:0.13;clip-path:url(#XMLID_9_);fill:#FFFFFF;}
	.st239{fill:none;stroke:#212121;stroke-width:0.5;stroke-linecap:round;stroke-linejoin:round;stroke-miterlimit:10;}
	.st240{fill:#212121;}
	.st241{opacity:0.02;clip-path:url(#XMLID_19_);}
	.st242{opacity:0.13;clip-path:url(#XMLID_19_);fill:#FFFFFF;}
	.st243{clip-path:url(#XMLID_20_);fill:#B0C7D8;}
	.st244{clip-path:url(#XMLID_21_);fill:#3A4149;}
	.st245{fill:#FBFFFF;}
	.st246{fill:#EEEEEE;}
	.st247{fill:#FF7B35;}
	.st248{fill:#509DFF;}
	.st249{fill:#B0C7D8;}
	.st250{opacity:0.3;fill:#FFFFFC;}
	.st251{clip-path:url(#XMLID_26_);fill:#FC6C2B;}
	.st252{fill:#B8D0E5;}
	.st253{fill:none;stroke:#000000;stroke-width:2.5763;stroke-miterlimit:10;}
	.st254{opacity:0.12;clip-path:url(#XMLID_27_);}
	.st255{clip-path:url(#XMLID_28_);fill:#217AAB;}
	.st256{opacity:0.2;}
	.st257{opacity:0.12;clip-path:url(#XMLID_29_);fill:#FFFFFF;}
	.st258{opacity:0.03;clip-path:url(#XMLID_42_);}
	.st259{opacity:0.03;clip-path:url(#XMLID_43_);fill:#010102;}
	.st260{opacity:0.04;clip-path:url(#XMLID_44_);}
	.st261{fill:#FDAF00;}
	.st262{fill:#FF7C00;}
	.st263{opacity:0.3;clip-path:url(#XMLID_45_);}
	.st264{opacity:0.3;}
	.st265{fill:none;stroke:#212121;stroke-width:0.9542;stroke-linecap:round;stroke-linejoin:round;stroke-miterlimit:10;}
	.st266{opacity:0.3;clip-path:url(#XMLID_47_);}
	.st267{fill:none;stroke:#212121;stroke-width:1.188;stroke-linecap:round;stroke-linejoin:round;stroke-miterlimit:10;}
	.st268{fill:#FF9D38;}
	.st269{fill:#C8DFFD;}
	.st270{fill:#A8CCFF;}
	.st271{fill:#D5E9FF;}
	.st272{fill:#B8D0FC;}
	.st273{fill:#0B3563;}
	.st274{fill:none;stroke:#BEDBF7;stroke-width:1.0668;stroke-miterlimit:10;}
	.st275{fill:#25468F;}
	.st276{fill:#E4EEF7;}
	.st277{fill:none;stroke:#3A65C9;stroke-width:1.0668;stroke-miterlimit:10;}
	.st278{fill:none;stroke:#3A65C9;stroke-width:1.001;stroke-miterlimit:10;}
	.st279{fill:#FF5521;}
	.st280{fill:#3A65C9;}
	.st281{fill:none;stroke:#FFCC40;stroke-width:2.1337;stroke-linecap:round;stroke-linejoin:round;stroke-miterlimit:10;}
	.st282{fill:#BEDBF7;}
	.st283{fill:none;stroke:#FFFFFF;stroke-width:1.2169;stroke-miterlimit:10;}
	.st284{fill:#10477B;}
	.st285{fill:#D44C10;}
	.st286{fill:#FF912B;}
	.st287{fill:#FC7600;}
	.st288{fill:#FFAE73;}
	.st289{fill:#FC9F38;}
	.st290{fill:#E65F00;}
	.st291{fill:#4681E1;}
	.st292{fill:#032444;}
	.st293{fill:#0D458E;}
	.st294{fill:#1E3865;}
	.st295{fill:#F48F4E;}
	.st296{fill:#254C82;}
	.st297{fill:#F9924F;}
	.st298{opacity:0.5;}
	.st299{fill:#499936;}
	.st300{fill:url(#SVGID_59_);}
	.st301{opacity:0.08;fill:#FFFFFF;}
	.st302{opacity:0.31;fill:#323197;}
	.st303{fill:#F5F5F7;}
	.st304{fill:#A1C2FF;}
	.st305{fill:#FF8D02;}
	.st306{opacity:0.08;}
	.st307{fill:none;stroke:#FFFFFF;stroke-width:2;stroke-linecap:round;stroke-linejoin:round;stroke-miterlimit:10;}
	.st308{opacity:0.44;fill:none;stroke:#FFFFFF;stroke-miterlimit:10;}
	.st309{opacity:0.4;fill:url(#SVGID_60_);}
	.st310{opacity:0.4;fill:url(#SVGID_61_);}
	.st311{fill:#010200;}
	.st312{opacity:0.4;fill:url(#SVGID_62_);}
	.st313{fill:#F74A2D;stroke:#000000;stroke-width:0.35;stroke-miterlimit:10;}
	.st314{clip-path:url(#SVGID_63_);fill:url(#SVGID_64_);}
	.st315{clip-path:url(#SVGID_63_);fill:url(#SVGID_65_);}
	.st316{clip-path:url(#SVGID_63_);fill:url(#SVGID_66_);}
	.st317{clip-path:url(#SVGID_63_);fill:url(#SVGID_67_);}
	.st318{fill:#393D43;}
	.st319{fill:#FDFDFB;}
	.st320{fill:#0086CE;}
	.st321{fill:#69B545;}
	.st322{fill:#D6347C;}
	.st323{fill:#F07F32;}
	.st324{fill:#6F519D;}
	.st325{fill-rule:evenodd;clip-rule:evenodd;fill:#51555B;}
	.st326{fill-rule:evenodd;clip-rule:evenodd;fill:#393D43;}
	.st327{fill:#003A70;}
	.st328{fill:url(#SVGID_68_);}
	.st329{fill:#003399;}
	.st330{fill-rule:evenodd;clip-rule:evenodd;fill:#003399;}
	.st331{fill:#A1A1A1;}
	.st332{fill-rule:evenodd;clip-rule:evenodd;fill:#006677;}
	.st333{fill-rule:evenodd;clip-rule:evenodd;fill:#E45300;}
	.st334{fill-rule:evenodd;clip-rule:evenodd;fill:#2156A6;}
	.st335{fill:#2156A6;}
	.st336{fill:#FB6E3B;}
	.st337{fill:#00C9BD;}
	.st338{fill-rule:evenodd;clip-rule:evenodd;fill:#00ACD8;}
	.st339{fill-rule:evenodd;clip-rule:evenodd;}
	.st340{fill-rule:evenodd;clip-rule:evenodd;fill:#0056A6;}
	.st341{fill-rule:evenodd;clip-rule:evenodd;fill:#F48120;}
	.st342{fill-rule:evenodd;clip-rule:evenodd;fill:#2E3191;}
	.st343{fill:#FBDA00;}
	.st344{fill:#1F1A17;}
	.st345{fill:#007CC2;}
	.st346{fill:#DA251C;}
	.st347{fill-rule:evenodd;clip-rule:evenodd;fill:#F0F0F0;}
	.st348{fill-rule:evenodd;clip-rule:evenodd;fill:#FECF22;}
	.st349{fill-rule:evenodd;clip-rule:evenodd;fill:#006AB4;}
	.st350{fill-rule:evenodd;clip-rule:evenodd;fill:#D61627;}
	.st351{fill-rule:evenodd;clip-rule:evenodd;fill:#E6E6E6;}
	.st352{fill:#007BC2;}
	.st353{fill:#231F20;}
	.st354{fill:#EC1C25;}
	.st355{fill:#243E92;}
	.st356{fill:#E22228;}
	.st357{fill:#FAD701;}
	.st358{fill-rule:evenodd;clip-rule:evenodd;fill:#E61F20;}
	.st359{fill-rule:evenodd;clip-rule:evenodd;fill:#004B97;}
	.st360{fill-rule:evenodd;clip-rule:evenodd;fill:#E50013;}
	.st361{fill-rule:evenodd;clip-rule:evenodd;fill:url(#SVGID_71_);}
	.st362{fill-rule:evenodd;clip-rule:evenodd;fill:url(#SVGID_72_);}
	.st363{fill-rule:evenodd;clip-rule:evenodd;fill:#412A8B;}
</style>
<g id="XMLID_120_">
	<g id="XMLID_131_">
		<g id="XMLID_156_">
			<path id="XMLID_168_" class="st319" d="M36.96,34.98c0.06-2.1,1.04-3.89,3.17-5.06c1.86-1.02,3.8-0.99,5.66,0.03
				c1.81,0.99,2.76,2.53,3.01,4.39c0.3,2.24-0.45,4.16-2.38,5.63c-2.12,1.61-5.07,1.55-7.15-0.11
				C37.69,38.6,36.98,36.99,36.96,34.98z M39.89,35.21c0,0.18-0.01,0.36,0,0.54c0.09,1.17,0.49,2.23,1.32,3.14
				c0.98,1.06,2.46,1.09,3.49,0.07c0.14-0.14,0.28-0.3,0.4-0.46c1.4-1.89,1.36-4.92-0.11-6.76c-0.25-0.31-0.59-0.58-0.94-0.78
				c-0.78-0.45-1.57-0.38-2.32,0.1c-0.44,0.28-0.76,0.67-1.02,1.09C40.12,33.1,39.86,34.12,39.89,35.21z"/>
			<path id="XMLID_165_" class="st319" d="M71.31,34.25c-0.63,0-1.26,0-1.89,0c-0.18,0-0.37,0.01-0.54,0.03
				c-0.46,0.06-0.72,0.28-0.8,0.69c-0.04,0.23-0.05,0.48-0.02,0.72c0.15,1.13,0.63,2.14,1.46,3c0.73,0.75,1.67,1.12,2.75,1.19
				c0.72,0.05,1.42-0.01,2.1-0.25c0.09-0.03,0.19-0.06,0.28-0.08c0.26-0.03,0.46,0.07,0.56,0.28c0.1,0.21,0.06,0.42-0.13,0.57
				c-0.09,0.07-0.19,0.12-0.3,0.16c-1.79,0.66-3.63,0.79-5.5,0.32c-2.09-0.53-3.29-1.83-3.76-3.71c-0.38-1.52-0.33-3.04,0.11-4.54
				c0.13-0.44,0.33-0.88,0.57-1.29c0.67-1.12,1.74-1.79,3.12-2.02c1.3-0.22,2.58-0.17,3.77,0.42c1.13,0.56,1.91,1.38,2.12,2.57
				c0.2,1.14-0.49,1.91-1.77,1.94C72.73,34.27,72.02,34.25,71.31,34.25C71.31,34.25,71.31,34.25,71.31,34.25z M68.29,33.07
				c0.16,0.02,0.26,0.04,0.35,0.04c0.96,0,1.92,0.01,2.88,0c0.2,0,0.4-0.03,0.59-0.07c0.41-0.09,0.56-0.26,0.54-0.64
				c-0.03-0.62-0.27-1.17-0.75-1.62c-0.86-0.8-2.17-0.73-2.89,0.18C68.52,31.57,68.35,32.28,68.29,33.07z"/>
			<path id="XMLID_122_" class="st319" d="M83.66,31.67c-0.3,0-0.5,0-0.7,0c-0.11,0-0.23-0.01-0.38-0.02
				c-0.04-0.21-0.07-0.42-0.12-0.62c-0.19-0.81-0.78-1.2-1.68-1.13c-1.16,0.09-1.91,0.8-1.93,1.81c-0.01,0.36,0.11,0.69,0.37,0.96
				c0.3,0.3,0.61,0.6,0.96,0.84c0.65,0.44,1.35,0.82,2,1.25c0.46,0.3,0.91,0.61,1.31,0.96c1.4,1.23,1.14,3.5-0.03,4.54
				c-0.65,0.58-1.46,0.82-2.33,0.88c-1.28,0.08-2.51-0.12-3.69-0.56c-0.12-0.04-0.24-0.1-0.34-0.18c-0.19-0.15-0.23-0.37-0.13-0.57
				c0.1-0.2,0.3-0.31,0.57-0.27c0.15,0.02,0.28,0.08,0.43,0.11c0.74,0.14,1.49,0.3,2.24,0.4c0.46,0.06,0.93,0.02,1.37-0.14
				c0.56-0.2,0.87-0.57,0.93-1.12c0.06-0.6-0.11-1.14-0.61-1.55c-0.38-0.31-0.79-0.59-1.22-0.85c-0.53-0.33-1.11-0.61-1.64-0.94
				c-0.39-0.25-0.76-0.53-1.12-0.82c-1.73-1.43-1.09-4.16,0.92-5.02c0.46-0.2,0.97-0.32,1.47-0.38c1-0.12,1.98-0.01,2.92,0.34
				c0.31,0.12,0.48,0.26,0.45,0.6C83.63,30.66,83.66,31.13,83.66,31.67z"/>
			<path id="XMLID_121_" class="st319" d="M22.97,20.81c0-0.2,0-0.37,0-0.53c0-1.56,0-3.12,0-4.68c0-0.18,0-0.36-0.03-0.54
				c-0.09-0.51-0.44-0.8-1.01-0.82c-0.18-0.01-0.36,0-0.58,0c0-0.22,0-0.39,0-0.6c0-0.06,1.18-0.04,1.28-0.04
				c0.47,0,1.01-0.05,1.37,0.28c0.11,0.1,0.2,0.22,0.28,0.35c0.06,0.1,0.12,0.21,0.2,0.36c0.14-0.09,0.25-0.16,0.36-0.24
				c0.51-0.37,1.07-0.64,1.72-0.77c1.7-0.33,2.92,0.57,3.35,1.76c0.15,0.41,0.19,0.85,0.21,1.28c0.03,0.67,0,1.35,0.01,2.02
				c0.01,0.25,0.04,0.51,0.1,0.76c0.13,0.48,0.38,0.64,0.92,0.66c0.21,0.01,0.42,0,0.67,0c0,0.28,0,0.5,0,0.74
				c-0.12,0.02-0.23,0.06-0.33,0.06c-0.56,0.01-1.13,0.01-1.69,0c-0.56-0.01-0.91-0.23-1.06-0.72c-0.08-0.27-0.12-0.56-0.13-0.84
				c-0.02-0.84,0.01-1.68-0.01-2.52c-0.01-0.36-0.05-0.72-0.16-1.06c-0.32-0.94-1.43-1.4-2.44-1.05c-0.48,0.16-0.87,0.44-1.19,0.79
				c-0.24,0.26-0.31,0.58-0.31,0.93c0.01,1.3,0,2.61,0,3.91c0,0.16-0.01,0.32-0.02,0.52C23.97,20.88,23.49,20.89,22.97,20.81z"/>
			<path id="XMLID_160_" class="st319" d="M13.22,17.31c0-1.17,0.47-2.17,1.43-2.96c1.52-1.23,3.65-1.09,5.06,0.3
				c1.5,1.49,1.42,4.09-0.18,5.49c-1.72,1.51-4.32,1.22-5.6-0.62C13.46,18.86,13.23,18.11,13.22,17.31z M19.12,17.19
				c-0.03-0.19-0.05-0.53-0.13-0.84c-0.17-0.63-0.44-1.23-1.04-1.64c-0.61-0.42-1.31-0.41-1.85,0.08c-0.29,0.27-0.56,0.61-0.72,0.96
				c-0.48,1.02-0.49,2.07-0.06,3.11c0.17,0.42,0.43,0.81,0.82,1.11c0.58,0.43,1.31,0.42,1.86-0.02c0.17-0.14,0.32-0.3,0.45-0.47
				C18.94,18.82,19.08,18.09,19.12,17.19z"/>
			<path id="XMLID_157_" class="st319" d="M46.19,16.68c-0.46,0-0.93-0.02-1.39,0c-0.62,0.03-0.86,0.27-0.82,0.84
				c0.06,0.85,0.42,1.6,1.09,2.21c0.76,0.68,1.69,0.75,2.68,0.58c0.15-0.03,0.29-0.07,0.43-0.11c0.19-0.05,0.33,0.01,0.4,0.18
				c0.06,0.15-0.04,0.26-0.17,0.33c-0.07,0.04-0.15,0.07-0.22,0.09c-1.14,0.38-2.29,0.44-3.46,0.12c-1.14-0.31-1.87-1-2.2-2.02
				c-0.37-1.15-0.34-2.31,0.06-3.46c0.83-2.41,4.22-2.32,5.39-1.06c0.31,0.33,0.53,0.69,0.61,1.11c0.13,0.67-0.3,1.15-1.05,1.17
				C47.09,16.68,46.64,16.67,46.19,16.68C46.19,16.67,46.19,16.67,46.19,16.68z M44.14,16.02c0.38,0.01,0.71,0.01,1.03,0.01
				c0.43,0,0.86,0.01,1.29-0.01c0.43-0.03,0.57-0.21,0.53-0.6c-0.05-0.42-0.25-0.77-0.61-1.04c-0.49-0.36-1.13-0.35-1.58,0.04
				C44.31,14.84,44.19,15.38,44.14,16.02z"/>
		</g>
		<path id="XMLID_115_" class="st319" d="M13,12.95c-0.41-0.01-0.76-0.02-1.09-0.02c-0.33,0-0.64,0.01-0.95,0.02l-0.1,0v0.74
			l0.08,0.02c0.37,0.07,0.55,0.13,0.61,0.23c0.05,0.08,0.04,0.2-0.04,0.41L10,17.8c-0.05-0.09-0.09-0.17-0.12-0.24l-0.05-0.11
			l-0.32-0.63c-0.7-1.37-1.78-3.5-1.97-3.87l-0.1-0.19l-0.09,0.2c-0.57,1.23-1.96,4.19-2.34,5.01L3.7,14.93v0l-0.34-0.75
			c-0.15-0.34-0.3-0.59-0.46-0.81C2.77,13.2,2.55,13,2.33,12.97c-0.27-0.03-0.56-0.05-0.91-0.05c-0.27,0-0.55,0.01-0.82,0.02
			l-0.17,0.01v0.7l0,0.07l0.07,0.02c0.03,0.01,0.06,0.02,0.11,0.02c0,0,0.05,0,0.05,0c0.45,0,0.73,0.19,0.93,0.65l3.17,6.29
			l0.11-0.09c0.02-0.02,0.02-0.03,0.03-0.05l0.01-0.02c0.05-0.12,0.21-0.47,0.41-0.94c0.52-1.19,1.54-3.51,1.84-4.17
			c0.43,0.89,2.25,4.64,2.47,5.11l0.1,0.21l3.34-7.64l0.01-0.02v-0.02l0.03-0.11L13,12.95z"/>
		<path id="XMLID_152_" class="st319" d="M40.98,20.05c-0.49-0.03-0.73-0.2-0.82-0.64c-0.06-0.28-0.08-0.57-0.08-0.85
			c0-0.45,0-0.9,0-1.35c0-0.98,0-1.95,0-2.93c0-0.94,0.06-1.91-0.04-2.84c-0.07-0.67-0.18-1.4-1.01-1.57
			c-0.59-0.12-1.2-0.02-1.79,0.01C37,9.89,37.01,10,37.02,10.17c0,0.02,0.01,0.31,0.01,0.31c0.21,0.01,0.37,0.02,0.53,0.02
			c0.44,0.01,0.74,0.18,0.87,0.57c0.03,0.1,0.06,0.2,0.08,0.3v3.2c-0.17-0.13-0.3-0.23-0.42-0.32c-0.38-0.3-0.81-0.52-1.3-0.64
			c-1.51-0.36-2.82,0.29-3.64,1.31c-0.87,1.09-1.02,2.33-0.75,3.61c0.31,1.49,1.33,2.33,2.98,2.55c0.24,0.03,0.49,0.04,0.74,0.05
			c0.94,0,1.66-0.35,2.15-1.08c0.06-0.09,0.14-0.18,0.24-0.29c0.05,0.09,0.08,0.13,0.09,0.17c0.04,0.67,0.57,0.95,1.25,0.95
			c0.41-0.01,0.83,0,1.24,0c0.21,0,0.42-0.02,0.64-0.03c0-0.26,0-0.48,0-0.77C41.44,20.05,41.21,20.07,40.98,20.05z M37.97,19.64
			c-0.92,1.05-2.79,0.9-3.52-0.3c-0.19-0.31-0.29-0.67-0.37-1.01c-0.15-0.65-0.11-1.31,0.01-1.97c0.08-0.43,0.26-0.84,0.55-1.19
			c0.77-0.96,2.21-1.1,3.17-0.28c0.3,0.26,0.56,0.55,0.7,0.89v2.94C38.4,19.05,38.22,19.36,37.97,19.64z"/>
		<path id="XMLID_149_" class="st319" d="M35.85,39.52c-0.75-0.05-1.11-0.31-1.25-0.98c-0.09-0.42-0.12-0.86-0.12-1.29
			c0-0.68,0-1.37,0-2.05c0-1.49,0-2.97,0-4.46c0-1.43,0.09-2.9-0.07-4.33c-0.11-1.02-0.28-2.13-1.54-2.4
			c-0.9-0.19-1.83-0.02-2.73,0.02c-0.35,0.02-0.33,0.18-0.32,0.44c0,0.03,0.02,0.47,0.01,0.47c0.32,0.01,0.56,0.03,0.81,0.04
			c0.67,0.02,1.12,0.27,1.33,0.86c0.05,0.15,0.09,0.3,0.12,0.45v4.87c-0.27-0.2-0.46-0.34-0.64-0.49c-0.58-0.46-1.23-0.79-1.98-0.97
			c-2.31-0.55-4.3,0.44-5.54,1.99c-1.33,1.66-1.56,3.54-1.15,5.49c0.47,2.26,2.03,3.55,4.54,3.88c0.37,0.05,0.75,0.07,1.13,0.07
			c1.43,0,2.53-0.53,3.27-1.65c0.09-0.14,0.22-0.27,0.36-0.44c0.07,0.14,0.13,0.2,0.13,0.26c0.06,1.02,0.86,1.45,1.91,1.44
			c0.63-0.01,1.26,0,1.89,0c0.32,0,0.64-0.03,0.98-0.04c0-0.4,0-0.73,0-1.18C36.55,39.52,36.2,39.54,35.85,39.52z M31.27,38.9
			c-1.4,1.6-4.26,1.37-5.36-0.46c-0.28-0.47-0.45-1.01-0.57-1.54c-0.23-0.99-0.17-2,0.01-2.99c0.12-0.66,0.39-1.27,0.83-1.82
			c1.18-1.47,3.36-1.67,4.83-0.43c0.46,0.39,0.86,0.84,1.07,1.36v4.47C31.93,38,31.65,38.47,31.27,38.9z"/>
		<path id="XMLID_73_" class="st319" d="M55.71,14.5c0,0-0.04-0.12-0.1-0.25c-0.01-0.03-0.02-0.05-0.04-0.08c0,0,0-0.01-0.01-0.01
			c-0.06-0.11-0.13-0.21-0.21-0.28c0,0,0,0,0,0c-0.3-0.3-0.75-0.43-1.23-0.32c-0.51,0.11-0.89,0.38-1.2,0.75
			c-0.08,0.1-0.17,0.19-0.29,0.33c-0.06-0.14-0.09-0.2-0.12-0.27c-0.24-0.56-0.57-0.77-1.24-0.78c-0.41-0.01-0.83,0-1.24,0
			c-0.14,0-0.28,0.03-0.44,0.04c0,0.2,0,0.36,0,0.59c0.24,0,0.42-0.01,0.6,0c0.57,0.03,0.84,0.24,0.93,0.76
			c0.04,0.25,0.06,0.51,0.06,0.76c0.01,1.51,0,3.03,0,4.54c0,0.17,0.02,0.35,0.04,0.51c0.57,0.1,1.06,0.09,1.44-0.04
			c0-0.15,0-0.31,0-0.47c0-1.08-0.01-2.16,0.01-3.24c0.01-0.39,0.04-0.78,0.13-1.16c0.07-0.32,0.19-0.64,0.36-0.92
			c0.35-0.56,1.02-0.64,1.55-0.21c0.11,0.09,0.17,0.22,0.26,0.35l0.46-0.38c0.01-0.01,0.02-0.02,0.03-0.03
			c0.03-0.02,0.05-0.04,0.07-0.06L55.71,14.5z"/>
		<path id="XMLID_72_" class="st319" d="M58.37,12.71v0.05C58.37,12.74,58.37,12.72,58.37,12.71z"/>
		<g id="XMLID_144_">
			<path id="XMLID_71_" class="st319" d="M59.81,12.92v-0.77C59.8,12.4,59.8,12.66,59.81,12.92z"/>
			<path id="XMLID_107_" class="st319" d="M59.81,12.04C59.81,12.04,59.81,12.04,59.81,12.04c0.01-0.24,0.03-0.49,0.07-0.73
				c0.01-0.07,0.04-0.15,0.06-0.22c0.15-0.42,0.39-0.57,0.88-0.59c0.19-0.01,0.39-0.02,0.58-0.03c0-0.22,0-0.38,0-0.6
				c-0.67,0-1.3-0.01-1.92,0c-0.52,0.01-0.84,0.23-0.97,0.69c-0.08,0.29-0.12,0.59-0.13,0.89c-0.01,0.42-0.01,0.83-0.01,1.25l0,0
				v0.01c0,0.02,0,0.03,0,0.05v0.84h-1.66v0.56h1.66v0.73l0,0c0,1.32,0,2.65,0,3.97c0,0.18-0.03,0.36-0.09,0.53
				c-0.15,0.48-0.42,0.66-0.97,0.68c-0.19,0.01-0.38,0.02-0.6,0.04c0,0.26,0,0.48,0,0.76c0.57,0,1.11,0.01,1.66,0
				c0.64-0.01,1.12-0.31,1.3-0.86c0.1-0.3,0.13-0.62,0.13-0.93c0.01-1.39,0-2.79,0.01-4.18c0-0.02,0-0.04,0-0.06v-0.67h1.23v-0.56
				h-1.23v-0.67c-0.01-0.26-0.01-0.52,0-0.77V12.04z"/>
		</g>
		<path id="XMLID_104_" class="st319" d="M72,20.05c-0.46-0.04-0.7-0.21-0.79-0.62c-0.06-0.26-0.08-0.54-0.08-0.8
			c0-0.44,0-0.88,0-1.33v-1.28c0-0.63,0-1.26,0-1.89c0-0.01,0-0.02,0-0.04v-0.46h-0.03h-1.46c0,0.2,0,0.36,0,0.52
			c0,0.92,0,1.84,0,2.76v1.33c-0.03,0.51-0.24,0.96-0.58,1.36c-0.44,0.52-1.03,0.73-1.75,0.63c-0.66-0.1-1.03-0.5-1.26-1.04
			c-0.21-0.47-0.26-0.96-0.26-1.46c0-0.86,0.01-1.71-0.01-2.57c-0.01-0.3-0.04-0.6-0.14-0.89c-0.09-0.28-0.32-0.57-0.65-0.66
			c-0.21-0.06-0.48-0.05-0.7-0.06c-0.13-0.01-1.68-0.03-1.68,0.06v0.6c0.25,0,0.46,0,0.67,0c0.46,0.01,0.72,0.16,0.84,0.56
			c0.09,0.27,0.13,0.56,0.14,0.84c0.02,0.87,0.01,1.74,0.01,2.61c0,0.68,0.22,1.3,0.65,1.86c1.14,1.45,3.61,1.32,4.44-0.12
			c0.05-0.08,0.13-0.14,0.21-0.22c0.04,0.06,0.07,0.09,0.08,0.11c0.17,0.74,0.46,0.97,1.28,0.98c0.5,0.01,0.99,0,1.49,0
			c0.12,0,0.25-0.03,0.37-0.05v-0.72C72.49,20.07,72.24,20.07,72,20.05z"/>
		<path id="XMLID_101_" class="st319" d="M76.99,20.06c-0.02,0-0.04,0-0.06,0c-0.56-0.02-0.82-0.21-0.91-0.71
			c-0.05-0.25-0.05-0.51-0.05-0.76c0-2.27,0.01-4.53-0.01-6.8c0-0.41-0.09-0.84-0.22-1.23c-0.14-0.45-0.51-0.69-1.04-0.68
			c-0.41,0.01-0.81,0-1.22,0c-0.19,0-0.38,0-0.57,0v0.06c0,0.14,0,0.27,0,0.41c0,0.03,0,0.07,0,0.1v0.06c0.19,0,0.39-0.01,0.58,0
			c0.17,0.01,0.35,0.04,0.49,0.13c0,0,0.01,0,0.01,0.01c0.05,0.03,0.1,0.07,0.14,0.11c0.16,0.17,0.24,0.39,0.28,0.61
			c0.06,0.29,0.06,0.6,0.06,0.9c0,2.33,0,4.65,0,6.98c0,0.21,0.02,0.42,0.02,0.63c0,0.59,0.38,1,1.18,1.01c0.27,0,0.54,0,0.81,0v0
			h1.15v-0.05c0-0.24,0-0.45,0-0.76H76.99z"/>
		<path id="XMLID_99_" class="st319" d="M3.85,40.78c0.01,0,0.01,0,0.02,0C3.85,40.78,3.84,40.78,3.85,40.78L3.85,40.78z"/>
		<path id="XMLID_98_" class="st319" d="M5.9,39.44c-0.54,0.01-0.92-0.23-1.14-0.66c-0.1-0.19-0.17-0.39-0.2-0.6
			c-0.05-0.34-0.08-0.69-0.08-1.03c-0.01-1.74,0.01-3.48-0.01-5.22c-0.01-0.4-0.06-0.81-0.18-1.19c-0.24-0.8-0.83-1.18-1.75-1.19
			c-0.71-0.01-1.43,0-2.14,0c-0.13,0-0.25,0.02-0.39,0.04v1.04c0.25,0,0.46-0.01,0.67,0c0.68,0.02,1.13,0.33,1.29,0.92
			c0.07,0.27,0.09,0.56,0.09,0.85c0.01,1.9-0.01,3.81,0.01,5.71c0.01,0.5,0.08,1.02,0.24,1.5c0.24,0.74,0.75,1.09,1.55,1.15
			c0.01,0,0.01,0,0.02,0c0.07,0.01,0.14,0.01,0.22,0.01c0.84,0.01,1.69,0,2.53,0c0.05,0,0.1,0,0.15-0.01c0.16,0,0.26,0,0.26,0v-0.03
			v-1.3C6.62,39.44,6.26,39.44,5.9,39.44z"/>
		<path id="XMLID_94_" class="st319" d="M91.37,39.44c-0.54,0.01-0.92-0.23-1.14-0.66c-0.1-0.19-0.17-0.39-0.2-0.6
			c-0.05-0.34-0.08-0.69-0.08-1.03c-0.01-1.74,0.01-3.48-0.01-5.22c-0.01-0.4-0.06-0.81-0.18-1.19c-0.24-0.8-0.83-1.18-1.75-1.19
			c-0.71-0.01-1.43,0-2.14,0c-0.13,0-0.25,0.02-0.39,0.04v1.04c0.25,0,0.46-0.01,0.67,0c0.68,0.02,1.13,0.33,1.29,0.92
			c0.07,0.27,0.09,0.56,0.09,0.85c0.01,1.9-0.01,3.81,0.01,5.71c0.01,0.5,0.08,1.02,0.24,1.5c0.24,0.74,0.75,1.09,1.55,1.15
			c0.01,0,0.01,0,0.02,0c0.07,0.01,0.14,0.01,0.22,0.01c0.84,0.01,1.69,0,2.53,0c0.05,0,0.1,0,0.15-0.01c0.16,0,0.26,0,0.26,0v-0.03
			v-1.3C92.09,39.44,91.73,39.44,91.37,39.44z"/>
		<path id="XMLID_93_" class="st319" d="M21.57,39.45c-0.16,0-0.33-0.01-0.49-0.01c-0.68-0.01-1.02-0.2-1.2-0.8
			c-0.12-0.41-0.18-0.85-0.19-1.28c-0.03-1.2,0-2.4-0.03-3.6c-0.03-1.08-0.44-2.06-1.2-2.9c-0.81-0.89-1.85-1.37-3.15-1.39
			c-1.39-0.02-2.6,0.39-3.68,1.15c-0.22,0.16-0.43,0.32-0.68,0.5c-0.06-0.14-0.11-0.25-0.16-0.36c-0.39-0.84-0.99-1.2-2-1.2
			c-0.73,0-1.46,0-2.19,0c-0.18,0-0.35,0.02-0.54,0.03c0,0.37,0,0.7,0,1.08c0.35,0,0.68,0.01,1.01,0.01
			c0.77,0.02,1.29,0.39,1.43,1.08c0.05,0.23,0.06,0.48,0.06,0.72c0,2.58,0,5.16,0,7.74c0,0.18,0.02,0.35,0.03,0.58
			c0.83,0.01,1.61,0.02,2.44-0.01c0-0.23,0-0.41,0-0.59c0-2.13,0-4.26,0-6.39c0-0.49,0.15-0.92,0.48-1.29
			c0.43-0.47,0.94-0.85,1.55-1.1c1.77-0.74,3.63,0.09,4.02,1.82c0.08,0.35,0.11,0.71,0.11,1.07c0.01,1.32,0,2.64,0.01,3.96
			c0,0.54,0.05,1.08,0.29,1.59c0.22,0.47,0.57,0.85,1.15,0.9c0.99,0.1,1.99,0.06,3,0.05h0.64c0-0.47,0-0.88,0-1.27v-0.07H21.57z"/>
		<path id="XMLID_92_" class="st319" d="M63.82,39.44c-0.74-0.01-1.07-0.21-1.26-0.85c-0.11-0.36-0.17-0.74-0.18-1.11
			c-0.03-1.18-0.01-2.37-0.02-3.56c-0.01-1.12-0.38-2.13-1.14-3.01c-0.81-0.91-1.85-1.42-3.17-1.45c-1.53-0.03-2.82,0.46-3.96,1.33
			c-0.14,0.1-0.27,0.21-0.43,0.33c-0.08-0.19-0.14-0.33-0.21-0.46c-0.33-0.62-0.8-1.03-1.52-1.11v0h-0.01
			c-0.12-0.01-0.24-0.02-0.38-0.01c-0.74,0.03-1.49,0-2.24,0.01c-0.07,0-0.13,0-0.2,0.01h-0.33v0.02c0,0.38,0,0.71,0,1.09h0.83
			c0.06,0,0.12,0,0.18,0c0.74,0.01,1.23,0.35,1.4,0.99c0.07,0.26,0.09,0.53,0.09,0.8c0.01,2.2,0,4.4,0,6.6h0v1.72h2.48v-1.72h0
			c0-1.75,0-3.49,0-5.24c0-0.5,0.13-0.96,0.48-1.34c0.43-0.46,0.94-0.85,1.56-1.1c1.74-0.72,3.56,0.06,3.98,1.75
			c0.12,0.48,0.15,0.98,0.16,1.47c0.02,1.29-0.01,2.58,0.02,3.87c0.01,0.4,0.07,0.81,0.2,1.19c0.27,0.78,0.8,1.11,1.71,1.11
			c0.9,0.01,1.79,0,2.69,0c0.14,0,0.29-0.02,0.45-0.03c0-0.44,0-0.85,0-1.31C64.58,39.44,64.2,39.45,63.82,39.44z"/>
		<path id="XMLID_134_" class="st319" d="M106.98,31.78c-0.17,0.39-0.38,0.71-0.77,0.93c-0.4,0.22-2.39,0.69-2.93,0.67
			c-0.01-0.1-0.02-0.2-0.04-0.3c-0.07-0.37-0.1-0.75-0.21-1.11c-0.45-1.52-1.71-2.4-3.45-2.41c-0.88-0.01-1.76,0-2.64,0
			c-0.16,0-0.32,0.02-0.49,0.03c0,0.36,0,0.66,0,1.05c0.24,0,0.42,0,0.6,0c0.6,0,1.19,0,1.79,0c0.52,0,0.99,0.15,1.31,0.54
			c0.67,0.82,0.71,1.77,0.63,2.75c-0.24,0.05-0.44,0.09-0.63,0.12c-0.65,0.12-1.3,0.24-1.95,0.35c-1.34,0.22-2.46,0.79-3.36,1.71
			c-0.61,0.63-0.98,1.35-1.03,2.19c-0.08,1.4,0.87,2.52,2.39,2.78c0.91,0.15,1.82,0.1,2.69-0.21c0.79-0.28,1.39-0.74,1.71-1.47
			c0.03-0.07,0.09-0.13,0.18-0.26c0.03,0.16,0.05,0.23,0.06,0.3c0.16,0.8,0.62,1.26,1.51,1.32c0.82,0.06,1.64,0.01,2.47,0.01h0.16
			v-1.29h-0.06c-0.03,0-0.08-0.01-0.09-0.01c-0.21-0.03-0.41-0.02-0.61-0.08c-0.16-0.05-0.3-0.13-0.41-0.24
			c-0.14-0.14-0.24-0.31-0.31-0.49c-0.07-0.18-0.13-0.38-0.14-0.57c-0.04-0.87-0.07-1.74-0.1-2.61c-0.01-0.24,0-0.48,0-0.74
			c0.18-0.04,0.32-0.08,0.46-0.11c0.47-0.09,0.95-0.16,1.41-0.25c0.94-0.19,1.82-0.98,1.97-1.77
			C107.15,32.32,107.15,32.04,106.98,31.78z M100.8,37.39c-0.06,0.47-0.35,0.85-0.72,1.2c-0.48,0.45-1.04,0.78-1.74,0.9
			c-0.78,0.13-1.32-0.12-1.66-0.76c-0.44-0.84-0.26-1.74,0.48-2.39c0.04-0.03,0.07-0.06,0.11-0.09c1.01-0.73,2.2-0.98,3.53-1.17
			c0,0.23,0,0.38,0,0.53c0,0.44-0.04,0.88,0,1.31V37.39z"/>
	</g>
	<g id="XMLID_88_">
		<path id="XMLID_106_" class="st320" d="M128.92,46.65c0,0,2.48,7.97,10.29,10.5c-0.96-0.31-2.08-1.72-2.75-2.4
			c-1.89-1.93-3.49-4.17-4.56-6.65c-1.51-3.51-1.49-6.86-1.07-10.59c0.55-4.86,1.02-9.73,1.43-14.6c0.19-2.28,0.45-4.56,0.55-6.85
			c0.09-2.07,0.12-4.17-0.29-6.21c-0.41-2.01-1.33-3.78-2.77-5.25c-0.04-0.04-0.09-0.09-0.13-0.13c-0.02-0.02-0.15-0.17-0.16-0.16
			c0.38-0.13,2.96-0.02,2.86-4.3c0,0-1.15,2.9-3.64,2.3s-5.19-1.33-7.34-0.64c-2.15,0.69-4.3,4.11-4.3,4.11
			c0.18-0.09,3.19-2.51,5.47-2.69c2.07-0.09,4.05,0.71,5.09,3.9c0.8,2.84,0.8,4.58,0.21,7.53c-0.53,2.04-1.75,5.05-3.25,7.09
			c-1.24,1.6-4.73,5.29-8.7,7.12c0.21-0.03,6.15-1.39,10.32-7c2.28-3.9,2.84-6.5,3.22-11.4c-0.03,0.44,1.04,3.34,0.06,7.5
			c-0.86,3.28-1.42,4.61-4.7,7.8c-2.96,2.45-6.8,4.49-9.79,5.23c-2.66,0.68-3.28-0.38-3.28-0.38s0.95,0.15,0.86-0.66
			c-0.1-0.41-0.77-0.62-1.17-0.3c-0.37,0.3-0.44,1.28,0.09,1.68c0.46,0.25,1.92,1.18,5.68-0.24c3.17-1.15,4.04-1.86,4.04-1.86
			s-1.02,1.39-4.02,2.55c-2,0.62-4.57,1.3-7.57,1.03c0.15,0.07,7.51,1.83,13.99-1.71c-0.27,0.47-4.36,10.32-17.59,10.19
			c0.53,0.31,8.21,4.34,18.64-5.05c-0.27,0.35-1.02,10.1-0.27,14.49c4.3,17.01,14.73,14.4,21.92,14.53
			C146.27,65.13,130.03,64.6,128.92,46.65z"/>
		<path id="XMLID_103_" class="st321" d="M149.81,24.18c0.39-2.05-1.22-3.91-3.05-4.51c-1.58-0.51-3.49,0.02-5.02,0.52
			c-1.48,0.48-3.13,1.23-4.12,2.49c-1.33,1.68-2.48,3.6-2.69,6.5c-0.09,2.13-0.09,7.74,7.6,11.25c0,0-6.24-1.36-7.6-3.99
			c0.34,0.67,0.61,1.27,1.14,1.82c0.5,0.53,1.08,0.97,1.69,1.37c1.84,1.22,3.89,1.97,6.05,2.38c0.79,0.15,1.59,0.28,2.4,0.25
			c0.69-0.03,1.47-0.18,1.93-0.74c0.11-0.13,0.2-0.29,0.26-0.45c0.02-0.07-0.08,0.01-0.09,0.01c-0.12,0.04-0.22,0.12-0.35,0.14
			c-0.31,0.04-0.58-0.25-0.57-0.55c0-0.22,0.14-0.43,0.33-0.54c0.38-0.22,0.84-0.07,1.06,0.29c0.26,0.42,0.16,0.92-0.13,1.29
			c-0.56,0.72-1.5,0.98-2.37,1.06c-1.15,0.1-2.29-0.14-3.41-0.4c-1.11-0.25-2.2-0.55-3.25-0.98c-0.19-0.08-0.38-0.16-0.57-0.25
			c-0.19-0.09-0.39-0.19-0.56-0.31c0.08,0.06,4.44,4.45,11.96,1.53c-0.54,0.21-1.04,0.54-1.59,0.76c-1.31,0.52-2.7,0.86-4.11,0.96
			c-4.16,0.32-8.28-1.66-10.79-4.95c-1.86-2.44-2.87-5.61-2.76-8.67c0.13-3.66,1.52-7.25,3.93-10c2.01-2.31,4.61-4.1,7.57-4.95
			c1.83-0.52,4.06-0.85,5.94-0.49c2.8,0.53,9.05,4.87,2.75,9.48c-0.04-0.04,3.28-4.12-1.64-6.56c-3.02-1.64-7.1-0.53-9.81,1.6
			C140.19,19.23,151.61,14.68,149.81,24.18z"/>
		<path id="XMLID_100_" class="st322" d="M142.23,49.31c0,0-7.1-1.06-10.25-11.87c0,0-3.46-12.85,5.99-19.94
			c0,0,9.5-6.78,19.57-1.82c0,0,4.99,3.43,3.48,6.14c-0.44,0.78-1.34,1.48-2.27,1.49c-0.99,0.01-1.85-0.96-1.96-1.91
			c0.03,0.24,0.67,0.4,0.84,0.39c1.08-0.05,1.08-1.64,0.14-1.94c-0.63-0.2-1.35,0.22-1.7,0.72c-0.4,0.59-0.39,1.5-0.19,2.17
			c0.7,2.31,3.4,2.73,5.35,1.82c0.57-0.27,1.1-0.63,1.54-1.09c2.67-2.83,1.09-7.75-1.32-10.2c-2.04-1.83-5.38-4.76-14.76-3.84
			c-5.11,0.5-10.39,3.5-13.76,7.31c-1.67,1.89-2.72,4.14-3.62,6.47c-2.15,5.59-2.44,12.89,0.37,18.3
			C131.85,44.88,135.67,48.93,142.23,49.31z"/>
	</g>
	<path id="XMLID_97_" class="st323" d="M113.13,49.4c0,0,11.06-0.41,13.9-11.81c1.84-7.4-0.32-15.6-5.41-21.26
		c-4.01-4.45-9.68-6.96-15.67-6.97c-3.28-0.01-6.57,0.7-9.51,2.17c-3.59,1.79-6.32,4.69-8.07,8.28c-0.65,1.34-1.26,2.71-1.66,4.15
		c-0.22,0.79-0.48,1.61-0.46,2.44c0.05,1.51,2.17,1.9,2.6,0.39c0.06-0.23,0.08-0.48-0.02-0.7c-0.28-0.65-1.27-0.45-1.78-0.23
		c-0.11,0.02,2.55-10.92,14.09-13.31c0,0-8.83,2.75-9.89,11.52c0.07-0.58,0.71-1.36,1.01-1.84c0.89-1.45,1.95-2.81,3.15-4.02
		c2.74-2.74,6.39-4.5,10.3-4.57c3.82-0.07,7.68,1.41,10.76,3.61c5.89,4.19,8.91,11.38,7.17,18.48
		C122.53,39.96,121.42,45.37,113.13,49.4z"/>
	<path id="XMLID_89_" class="st324" d="M124.65,4.27c-2.56-0.93-5.07,0.74-6.77,2.53c-0.08,0.08,2.04-1.64,3.79-0.69
		c-0.02,0-1.95-0.27-2.57,1.82c0,0,3.55-1.79,4.22,0.78c0.18,1.26-0.42,3.19-1.15,4.27c-0.73,1.08-1.98,2.75-3.53,3.21
		c-1.2,0.29-1.86,0.53-4.37-0.11c-2.24-0.6-4.06-1.2-6.5-1.46c-3.74-0.41-8.27,1.4-9.78,5.06c-0.06,0.14-0.11,0.28-0.15,0.42
		c-0.02,0.05-0.13,0.61-0.14,0.61c0.09-0.04,2.26-4.38,6.17-4.92c-0.11,0.07-2.57,1.31-3.68,2.84c-0.82,1.26-1.35,2.55-1.06,4.23
		c0.27,1.44,0.69,2.08,1.51,2.81c0.82,0.73,1.91,1.38,3.84,1.09c1.15-0.29,2.29-0.86,2.57-2.3c0.13-0.91-0.58-1.95-1.35-1.93
		c-0.58,0.07-0.98,0.42-1.06,0.97c-0.02,0.42,0.26,0.88,0.95,0.88c-0.27,0-0.61,0.28-0.93,0.29c-1.35,0.05-2.15-1.65-1.81-2.8
		c0.69-2.35,2.8-3.25,5.1-3.1c1.23,0.08,2.22,0.47,3.21,0.83c1.24,0.45,2.54,0.76,3.85,0.93c1.16,0.15,2.51,0.3,3.67,0.07
		c0.99-0.2,3.27-0.66,5.58-3.35c1.6-1.74,2.51-4.4,2.87-5.76C127.77,8.94,127.49,5.31,124.65,4.27z M116.29,19.98
		c-2.34,0.07-4.21-0.79-6.09-1.35c-0.97-0.29-1.98-0.54-3-0.63c-1-0.08-2,0.13-2.89,0.57c-0.71,0.34-1.34,0.82-1.86,1.42
		c-0.3,0.34-0.55,0.72-0.75,1.13c0.04-0.09,0.47-2.31,3.48-3.39c2.31-0.83,4.56,0.26,6.67,0.99c2.26,0.79,4.5,1.26,6.77,0.76
		c0.18-0.04,0.36-0.09,0.54-0.14C118.14,19.65,117.71,19.94,116.29,19.98z"/>
</g>
</svg>
