<?xml version="1.0" encoding="utf-8"?>
<!-- Generator: Adobe Illustrator 24.0.0, SVG Export Plug-In . SVG Version: 6.00 Build 0)  -->
<svg version="1.1" id="Layer_1" xmlns="http://www.w3.org/2000/svg" xmlns:xlink="http://www.w3.org/1999/xlink" x="0px" y="0px"
	 viewBox="0 0 60.24 30.89" style="enable-background:new 0 0 60.24 30.89;" xml:space="preserve">
<style type="text/css">
	.st0{fill:#6C727C;}
	.st1{fill:#FC5E31;}
	.st2{fill:#8CC63F;}
	.st3{fill:#F3F4F5;}
	.st4{fill:#F74A2D;}
	.st5{fill:#153663;}
	.st6{fill:#153765;}
	.st7{fill:#153867;}
	.st8{fill:#153969;}
	.st9{fill:#15396B;}
	.st10{fill:#153A6D;}
	.st11{fill:#153B6F;}
	.st12{fill:#153C71;}
	.st13{fill:#143D73;}
	.st14{fill:#143E75;}
	.st15{fill:#143E77;}
	.st16{fill:#143F79;}
	.st17{fill:#14407B;}
	.st18{fill:#14417D;}
	.st19{fill:#14427F;}
	.st20{fill:#144381;}
	.st21{fill:#144383;}
	.st22{fill:#144485;}
	.st23{fill:#144587;}
	.st24{fill:#144689;}
	.st25{fill:#14478B;}
	.st26{fill:#14488D;}
	.st27{fill:#14488F;}
	.st28{fill:#144991;}
	.st29{fill:#134A93;}
	.st30{fill:#134B95;}
	.st31{fill:#134C97;}
	.st32{fill:#134D99;}
	.st33{fill:#134D9B;}
	.st34{fill:#134E9D;}
	.st35{fill:#134F9F;}
	.st36{fill:#1350A1;}
	.st37{fill-rule:evenodd;clip-rule:evenodd;fill:#F1E7ED;}
	.st38{fill-rule:evenodd;clip-rule:evenodd;fill:#A893D0;}
	.st39{opacity:0.5;fill-rule:evenodd;clip-rule:evenodd;fill:#5D2C84;}
	.st40{fill-rule:evenodd;clip-rule:evenodd;fill:#CABDE2;}
	.st41{fill-rule:evenodd;clip-rule:evenodd;fill:#704E8D;}
	.st42{fill-rule:evenodd;clip-rule:evenodd;fill:#FBF9FB;}
	.st43{opacity:0.83;fill-rule:evenodd;clip-rule:evenodd;fill:url(#SVGID_2_);}
	.st44{opacity:0.83;fill-rule:evenodd;clip-rule:evenodd;fill:url(#SVGID_3_);}
	.st45{fill:#8D6B96;}
	.st46{opacity:0.2;fill-rule:evenodd;clip-rule:evenodd;fill:#864C90;}
	.st47{fill-rule:evenodd;clip-rule:evenodd;fill:#CECBEA;}
	.st48{fill-rule:evenodd;clip-rule:evenodd;fill:#39175A;}
	.st49{fill-rule:evenodd;clip-rule:evenodd;fill:#F83D45;}
	.st50{fill-rule:evenodd;clip-rule:evenodd;fill:#B32742;}
	.st51{fill-rule:evenodd;clip-rule:evenodd;fill:#A28BCC;}
	.st52{opacity:0.5;fill-rule:evenodd;clip-rule:evenodd;fill:#864C90;}
	.st53{fill-rule:evenodd;clip-rule:evenodd;fill:url(#SVGID_4_);}
	.st54{fill-rule:evenodd;clip-rule:evenodd;fill:url(#SVGID_6_);}
	.st55{fill:#B32742;}
	.st56{fill-rule:evenodd;clip-rule:evenodd;fill:url(#SVGID_8_);}
	.st57{fill-rule:evenodd;clip-rule:evenodd;fill:url(#SVGID_9_);}
	.st58{fill-rule:evenodd;clip-rule:evenodd;fill:#7A5AC4;}
	.st59{fill-rule:evenodd;clip-rule:evenodd;fill:#7A5AA7;}
	.st60{fill-rule:evenodd;clip-rule:evenodd;fill:#5A2967;}
	.st61{fill-rule:evenodd;clip-rule:evenodd;fill:#C4D1ED;}
	.st62{opacity:0.5;fill-rule:evenodd;clip-rule:evenodd;fill:#6D4C90;}
	.st63{fill:#7A5AA7;}
	.st64{fill:#39175A;}
	.st65{fill-rule:evenodd;clip-rule:evenodd;fill:url(#SVGID_10_);}
	.st66{fill:#FFFFFF;}
	.st67{fill-rule:evenodd;clip-rule:evenodd;fill:url(#SVGID_11_);}
	.st68{fill-rule:evenodd;clip-rule:evenodd;fill:url(#SVGID_12_);}
	.st69{fill-rule:evenodd;clip-rule:evenodd;fill:url(#SVGID_13_);}
	.st70{fill-rule:evenodd;clip-rule:evenodd;fill:url(#SVGID_14_);}
	.st71{fill-rule:evenodd;clip-rule:evenodd;fill:url(#SVGID_15_);}
	.st72{fill-rule:evenodd;clip-rule:evenodd;fill:url(#SVGID_16_);}
	.st73{fill-rule:evenodd;clip-rule:evenodd;fill:url(#SVGID_17_);}
	.st74{fill-rule:evenodd;clip-rule:evenodd;fill:url(#SVGID_18_);}
	.st75{fill-rule:evenodd;clip-rule:evenodd;fill:url(#SVGID_19_);}
	.st76{opacity:0.4;fill-rule:evenodd;clip-rule:evenodd;fill:#864C90;}
	.st77{fill-rule:evenodd;clip-rule:evenodd;fill:url(#SVGID_20_);}
	.st78{fill-rule:evenodd;clip-rule:evenodd;fill:#FFFFFF;}
	.st79{fill-rule:evenodd;clip-rule:evenodd;fill:url(#SVGID_21_);}
	.st80{opacity:0.44;fill-rule:evenodd;clip-rule:evenodd;fill:#60003B;}
	.st81{fill-rule:evenodd;clip-rule:evenodd;fill:url(#SVGID_22_);}
	.st82{fill-rule:evenodd;clip-rule:evenodd;fill:url(#SVGID_23_);}
	.st83{fill-rule:evenodd;clip-rule:evenodd;fill:url(#SVGID_24_);}
	.st84{fill-rule:evenodd;clip-rule:evenodd;fill:url(#SVGID_25_);}
	.st85{fill-rule:evenodd;clip-rule:evenodd;fill:url(#SVGID_26_);}
	.st86{fill-rule:evenodd;clip-rule:evenodd;fill:url(#SVGID_27_);}
	.st87{fill-rule:evenodd;clip-rule:evenodd;fill:url(#SVGID_28_);}
	.st88{fill-rule:evenodd;clip-rule:evenodd;fill:url(#SVGID_29_);}
	.st89{fill-rule:evenodd;clip-rule:evenodd;fill:url(#SVGID_30_);}
	.st90{fill-rule:evenodd;clip-rule:evenodd;fill:url(#SVGID_31_);}
	.st91{fill-rule:evenodd;clip-rule:evenodd;fill:url(#SVGID_32_);}
	.st92{fill-rule:evenodd;clip-rule:evenodd;fill:url(#SVGID_33_);}
	.st93{fill-rule:evenodd;clip-rule:evenodd;fill:url(#SVGID_34_);}
	.st94{fill-rule:evenodd;clip-rule:evenodd;fill:url(#SVGID_35_);}
	.st95{fill-rule:evenodd;clip-rule:evenodd;fill:url(#SVGID_36_);}
	.st96{fill-rule:evenodd;clip-rule:evenodd;fill:url(#SVGID_37_);}
	.st97{fill-rule:evenodd;clip-rule:evenodd;fill:url(#SVGID_38_);}
	.st98{fill-rule:evenodd;clip-rule:evenodd;fill:url(#SVGID_39_);}
	.st99{fill-rule:evenodd;clip-rule:evenodd;fill:url(#SVGID_40_);}
	.st100{fill-rule:evenodd;clip-rule:evenodd;fill:url(#SVGID_41_);}
	.st101{fill-rule:evenodd;clip-rule:evenodd;fill:url(#SVGID_42_);}
	.st102{fill-rule:evenodd;clip-rule:evenodd;fill:url(#SVGID_43_);}
	.st103{fill-rule:evenodd;clip-rule:evenodd;fill:url(#SVGID_44_);}
	.st104{fill:#F2E225;}
	.st105{opacity:0.4;fill:url(#SVGID_45_);}
	.st106{fill:#814BA2;}
	.st107{fill:#925CB4;}
	.st108{fill:#B289C9;}
	.st109{fill:#A274BF;}
	.st110{opacity:0.4;fill:url(#SVGID_46_);}
	.st111{fill:#813034;}
	.st112{fill:#802F34;}
	.st113{fill:#AFD2EF;}
	.st114{fill:#E54C3C;}
	.st115{fill:#57607F;}
	.st116{fill:#BF3A2C;}
	.st117{fill:#BF3A2B;}
	.st118{fill:#8796C8;}
	.st119{fill:#C88D95;}
	.st120{fill:#8696C9;}
	.st121{fill:#56607F;}
	.st122{fill:#E3E4E6;}
	.st123{fill:#D8DADE;}
	.st124{opacity:0.4;fill:url(#SVGID_47_);}
	.st125{fill:#F2582F;}
	.st126{fill:#FF7043;}
	.st127{fill:#8E2611;}
	.st128{fill:#E53935;}
	.st129{fill:#F0534A;}
	.st130{fill:#D5D5D3;}
	.st131{opacity:0.4;fill:url(#SVGID_48_);}
	.st132{fill:#F8749D;}
	.st133{fill:#403063;}
	.st134{fill:#403365;}
	.st135{fill:#403264;}
	.st136{fill:#413265;}
	.st137{fill:#E4E5E6;}
	.st138{fill:#E2E2E4;}
	.st139{fill:#DEDEE2;}
	.st140{fill:#3D2E61;}
	.st141{fill:#FDF7F9;}
	.st142{fill:#FDD6E4;}
	.st143{opacity:0.4;fill:url(#SVGID_49_);}
	.st144{fill:#C20047;}
	.st145{fill:#FE405C;}
	.st146{fill:#B1D3EF;}
	.st147{fill:#E0F1FD;}
	.st148{opacity:0.4;fill:url(#SVGID_50_);}
	.st149{opacity:0.4;fill:url(#SVGID_51_);}
	.st150{opacity:0.4;fill:url(#SVGID_52_);}
	.st151{opacity:0.4;fill:url(#SVGID_53_);}
	.st152{opacity:0.4;fill:url(#SVGID_54_);}
	.st153{opacity:0.4;fill:url(#SVGID_55_);}
	.st154{opacity:0.4;fill:url(#SVGID_56_);}
	.st155{fill:#FF5F85;}
	.st156{fill:#FFE878;}
	.st157{fill:#B2527E;}
	.st158{fill:#004FAB;}
	.st159{fill:#57A3FE;}
	.st160{fill:#FEFEFE;}
	.st161{fill:#37A6CD;}
	.st162{fill:#E19A4B;}
	.st163{fill:#54BBE8;}
	.st164{fill:#FBB55F;}
	.st165{fill:#E29A4C;}
	.st166{fill:#E4E8E9;}
	.st167{fill:#D1D0D0;}
	.st168{fill:#E3E7E8;}
	.st169{fill:#566369;}
	.st170{fill:#E19A4C;}
	.st171{fill:#445155;}
	.st172{fill:#E4E7E7;}
	.st173{fill:#566368;}
	.st174{fill:#6E7A7E;}
	.st175{fill:#435054;}
	.st176{fill:#5E5461;}
	.st177{fill:#6F6571;}
	.st178{fill:#5D5360;}
	.st179{fill:#4B3F4E;}
	.st180{fill:#FCCE64;}
	.st181{fill:#FEDF7E;}
	.st182{fill:#857D86;}
	.st183{fill:#3E8FC8;}
	.st184{fill:#FCB630;}
	.st185{fill:#88B237;}
	.st186{fill:#E7594A;}
	.st187{fill:#4398D0;}
	.st188{fill:#D55245;}
	.st189{fill:#80A734;}
	.st190{fill:#FEA71A;}
	.st191{fill:#FAD390;}
	.st192{fill:#F2D45C;}
	.st193{fill:#FA7B76;}
	.st194{fill:#FE5364;}
	.st195{fill:#F8E3C1;}
	.st196{fill:#2D5871;}
	.st197{fill:#FDD8A7;}
	.st198{fill:#E0EEFA;}
	.st199{fill:#F3C792;}
	.st200{fill:#CBDEEC;}
	.st201{fill:#FE4D4C;}
	.st202{fill:#F23A3A;}
	.st203{fill:#1D4859;}
	.st204{fill:#FEB025;}
	.st205{fill:#FE901D;}
	.st206{fill:#1E495A;}
	.st207{fill:#2F5972;}
	.st208{fill:#F3C892;}
	.st209{opacity:0.4;fill:url(#SVGID_57_);}
	.st210{opacity:0.4;fill:url(#SVGID_58_);}
	.st211{fill:#949AA8;}
	.st212{fill:#B3B3B3;}
	.st213{fill:#575D72;}
	.st214{fill:#A3E0F4;}
	.st215{fill:#C2EAF8;}
	.st216{fill:#28304E;}
	.st217{fill:#EC5176;}
	.st218{fill:#FECC34;}
	.st219{fill:#FE76A3;}
	.st220{fill:#E69115;}
	.st221{fill:#FF0000;}
	.st222{fill:#F4AE00;}
	.st223{opacity:0.12;fill:#1B1E23;}
	.st224{fill:#E7E8FA;}
	.st225{fill:#57A845;}
	.st226{fill:none;stroke:#283847;stroke-width:1.2169;stroke-miterlimit:10;}
	.st227{opacity:0.5;fill:#283847;}
	.st228{fill:#6B98F6;}
	.st229{fill:#79AFFF;}
	.st230{clip-path:url(#XMLID_3_);fill:#79AFFF;}
	.st231{clip-path:url(#XMLID_3_);}
	.st232{fill:none;stroke:#212121;stroke-width:1.5836;stroke-linecap:round;stroke-linejoin:round;stroke-miterlimit:10;}
	.st233{fill:#17566C;}
	.st234{clip-path:url(#XMLID_6_);fill:#79AFFF;}
	.st235{clip-path:url(#XMLID_6_);fill:#2072A9;}
	.st236{clip-path:url(#XMLID_6_);fill:#2175B8;}
	.st237{opacity:0.02;clip-path:url(#XMLID_9_);}
	.st238{opacity:0.13;clip-path:url(#XMLID_9_);fill:#FFFFFF;}
	.st239{fill:none;stroke:#212121;stroke-width:0.5;stroke-linecap:round;stroke-linejoin:round;stroke-miterlimit:10;}
	.st240{fill:#212121;}
	.st241{opacity:0.02;clip-path:url(#XMLID_19_);}
	.st242{opacity:0.13;clip-path:url(#XMLID_19_);fill:#FFFFFF;}
	.st243{clip-path:url(#XMLID_20_);fill:#B0C7D8;}
	.st244{clip-path:url(#XMLID_21_);fill:#3A4149;}
	.st245{fill:#FBFFFF;}
	.st246{fill:#EEEEEE;}
	.st247{fill:#FF7B35;}
	.st248{fill:#509DFF;}
	.st249{fill:#B0C7D8;}
	.st250{opacity:0.3;fill:#FFFFFC;}
	.st251{clip-path:url(#XMLID_26_);fill:#FC6C2B;}
	.st252{fill:#B8D0E5;}
	.st253{fill:none;stroke:#000000;stroke-width:2.5763;stroke-miterlimit:10;}
	.st254{opacity:0.12;clip-path:url(#XMLID_27_);}
	.st255{clip-path:url(#XMLID_28_);fill:#217AAB;}
	.st256{opacity:0.2;}
	.st257{opacity:0.12;clip-path:url(#XMLID_29_);fill:#FFFFFF;}
	.st258{opacity:0.03;clip-path:url(#XMLID_42_);}
	.st259{opacity:0.03;clip-path:url(#XMLID_43_);fill:#010102;}
	.st260{opacity:0.04;clip-path:url(#XMLID_44_);}
	.st261{fill:#FDAF00;}
	.st262{fill:#FF7C00;}
	.st263{opacity:0.3;clip-path:url(#XMLID_45_);}
	.st264{opacity:0.3;}
	.st265{fill:none;stroke:#212121;stroke-width:0.9542;stroke-linecap:round;stroke-linejoin:round;stroke-miterlimit:10;}
	.st266{opacity:0.3;clip-path:url(#XMLID_47_);}
	.st267{fill:none;stroke:#212121;stroke-width:1.188;stroke-linecap:round;stroke-linejoin:round;stroke-miterlimit:10;}
	.st268{fill:#FF9D38;}
	.st269{fill:#C8DFFD;}
	.st270{fill:#A8CCFF;}
	.st271{fill:#D5E9FF;}
	.st272{fill:#B8D0FC;}
	.st273{fill:#0B3563;}
	.st274{fill:none;stroke:#BEDBF7;stroke-width:1.0668;stroke-miterlimit:10;}
	.st275{fill:#25468F;}
	.st276{fill:#E4EEF7;}
	.st277{fill:none;stroke:#3A65C9;stroke-width:1.0668;stroke-miterlimit:10;}
	.st278{fill:none;stroke:#3A65C9;stroke-width:1.001;stroke-miterlimit:10;}
	.st279{fill:#FF5521;}
	.st280{fill:#3A65C9;}
	.st281{fill:none;stroke:#FFCC40;stroke-width:2.1337;stroke-linecap:round;stroke-linejoin:round;stroke-miterlimit:10;}
	.st282{fill:#BEDBF7;}
	.st283{fill:none;stroke:#FFFFFF;stroke-width:1.2169;stroke-miterlimit:10;}
	.st284{fill:#10477B;}
	.st285{fill:#D44C10;}
	.st286{fill:#FF912B;}
	.st287{fill:#FC7600;}
	.st288{fill:#FFAE73;}
	.st289{fill:#FC9F38;}
	.st290{fill:#E65F00;}
	.st291{fill:#4681E1;}
	.st292{fill:#032444;}
	.st293{fill:#0D458E;}
	.st294{fill:#1E3865;}
	.st295{fill:#F48F4E;}
	.st296{fill:#254C82;}
	.st297{fill:#F9924F;}
	.st298{opacity:0.5;}
	.st299{fill:#499936;}
	.st300{fill:url(#SVGID_59_);}
	.st301{opacity:0.08;fill:#FFFFFF;}
	.st302{opacity:0.31;fill:#323197;}
	.st303{fill:#F5F5F7;}
	.st304{fill:#A1C2FF;}
	.st305{fill:#FF8D02;}
	.st306{opacity:0.08;}
	.st307{fill:none;stroke:#FFFFFF;stroke-width:2;stroke-linecap:round;stroke-linejoin:round;stroke-miterlimit:10;}
	.st308{opacity:0.44;fill:none;stroke:#FFFFFF;stroke-miterlimit:10;}
	.st309{opacity:0.4;fill:url(#SVGID_60_);}
	.st310{opacity:0.4;fill:url(#SVGID_61_);}
	.st311{fill:#010200;}
	.st312{opacity:0.4;fill:url(#SVGID_62_);}
	.st313{fill:#F74A2D;stroke:#000000;stroke-width:0.35;stroke-miterlimit:10;}
	.st314{clip-path:url(#SVGID_63_);fill:url(#SVGID_64_);}
	.st315{clip-path:url(#SVGID_63_);fill:url(#SVGID_65_);}
	.st316{clip-path:url(#SVGID_63_);fill:url(#SVGID_66_);}
	.st317{clip-path:url(#SVGID_63_);fill:url(#SVGID_67_);}
	.st318{fill:#393D43;}
	.st319{fill:#FDFDFB;}
	.st320{fill:#0086CE;}
	.st321{fill:#69B545;}
	.st322{fill:#D6347C;}
	.st323{fill:#F07F32;}
	.st324{fill:#6F519D;}
	.st325{fill-rule:evenodd;clip-rule:evenodd;fill:#51555B;}
	.st326{fill-rule:evenodd;clip-rule:evenodd;fill:#393D43;}
	.st327{fill:#003A70;}
	.st328{fill:url(#SVGID_68_);}
	.st329{fill:#003399;}
	.st330{fill-rule:evenodd;clip-rule:evenodd;fill:#003399;}
	.st331{fill:#A1A1A1;}
	.st332{fill-rule:evenodd;clip-rule:evenodd;fill:#006677;}
	.st333{fill-rule:evenodd;clip-rule:evenodd;fill:#E45300;}
	.st334{fill-rule:evenodd;clip-rule:evenodd;fill:#2156A6;}
	.st335{fill:#2156A6;}
	.st336{fill:#FB6E3B;}
	.st337{fill:#00C9BD;}
	.st338{fill-rule:evenodd;clip-rule:evenodd;fill:#00ACD8;}
	.st339{fill-rule:evenodd;clip-rule:evenodd;}
	.st340{fill-rule:evenodd;clip-rule:evenodd;fill:#0056A6;}
	.st341{fill-rule:evenodd;clip-rule:evenodd;fill:#F48120;}
	.st342{fill-rule:evenodd;clip-rule:evenodd;fill:#2E3191;}
	.st343{fill:#FBDA00;}
	.st344{fill:#1F1A17;}
	.st345{fill:#007CC2;}
	.st346{fill:#DA251C;}
	.st347{fill-rule:evenodd;clip-rule:evenodd;fill:#F0F0F0;}
	.st348{fill-rule:evenodd;clip-rule:evenodd;fill:#FECF22;}
	.st349{fill-rule:evenodd;clip-rule:evenodd;fill:#006AB4;}
	.st350{fill-rule:evenodd;clip-rule:evenodd;fill:#D61627;}
	.st351{fill-rule:evenodd;clip-rule:evenodd;fill:#E6E6E6;}
	.st352{fill:#007BC2;}
	.st353{fill:#231F20;}
	.st354{fill:#EC1C25;}
	.st355{fill:#243E92;}
	.st356{fill:#E22228;}
	.st357{fill:#FAD701;}
	.st358{fill-rule:evenodd;clip-rule:evenodd;fill:#E61F20;}
	.st359{fill-rule:evenodd;clip-rule:evenodd;fill:#004B97;}
	.st360{fill-rule:evenodd;clip-rule:evenodd;fill:#E50013;}
	.st361{fill-rule:evenodd;clip-rule:evenodd;fill:url(#SVGID_71_);}
	.st362{fill-rule:evenodd;clip-rule:evenodd;fill:url(#SVGID_72_);}
	.st363{fill-rule:evenodd;clip-rule:evenodd;fill:#412A8B;}
</style>
<path class="st66" d="M54.71,30.89H5.53C2.48,30.89,0,28.42,0,25.36V5.53C0,2.48,2.48,0,5.53,0h49.18c3.05,0,5.53,2.48,5.53,5.53
	v19.83C60.24,28.42,57.77,30.89,54.71,30.89z"/>
<g>
	<path class="st353" d="M44.25,19.26c-0.1,0.08-0.47,0.34-0.69,0.28c-0.04-0.01-0.12-0.05-0.15-0.07c-0.04-0.02-0.07-0.05-0.06-0.09
		c0-0.01,0.01-0.01,0.01-0.02c0.02-0.02,0.09-0.04,0.12-0.05c0.04-0.02,0.04-0.04,0.07-0.06c0.01-0.01,0.02-0.01,0.04-0.01
		c0.08-0.01,0.16,0.09,0.21,0.11c0.05,0.03,0.13,0.02,0.19,0c0.1-0.04,0.18-0.21,0.06-0.25c-0.1-0.03-0.21-0.05-0.31-0.08
		c-0.12-0.04-0.21-0.11-0.24-0.18c-0.09-0.24,0.29-0.5,0.71-0.63c0.04-0.01,0.05-0.01,0.09-0.01c0.42,0.07,0.05,0.45-0.09,0.54
		c0,0.01-0.02,0.02-0.04,0.02c-0.01,0-0.04-0.02-0.04-0.03c0.03-0.08,0.26-0.39-0.01-0.41c-0.29-0.02-0.58,0.41-0.27,0.5
		c0.1,0.04,0.26,0.04,0.36,0.09c0.02,0.01,0.02,0.02,0.04,0.03C44.36,19.05,44.33,19.16,44.25,19.26L44.25,19.26z"/>
	<path class="st353" d="M29.8,19.39c-0.02-0.01-0.05-0.01-0.07-0.03c-0.01-0.01-0.02-0.02-0.03-0.02c-0.19-0.21-0.05-0.48-0.02-0.7
		c0-0.01-0.01-0.02-0.02-0.02c-0.01,0-0.02,0-0.03,0c-0.02,0-0.03-0.02-0.02-0.03c0.02-0.08,0.16-0.35-0.07-0.41
		c-0.1-0.02-0.26,0.11-0.29,0.13c-0.04,0.03-0.07,0.06-0.12,0.1c-0.26,0.22-0.52,0.51-0.55,0.75c-0.01,0.06-0.03,0.22,0.08,0.28
		c0.02,0.01,0.05,0.01,0.09,0.01c0.11,0,0.26-0.12,0.38-0.22c0.08-0.07,0.16-0.15,0.2-0.18c0.04-0.03,0.04,0.05,0.04,0.06
		c0,0.09-0.01,0.18,0,0.27c0.01,0.03,0.05,0.2,0.18,0.2c0.07,0,0.24-0.1,0.27-0.14C29.82,19.43,29.81,19.4,29.8,19.39z M29.13,19.15
		C29.13,19.15,29.12,19.15,29.13,19.15c-0.05,0.04-0.16,0.1-0.24,0.08c-0.12-0.02,0.03-0.49,0.24-0.73
		c0.06-0.07,0.12-0.11,0.18-0.13C29.48,18.33,29.42,18.86,29.13,19.15z"/>
	<path class="st353" d="M24.27,19.46c-0.02-0.01-0.05-0.02-0.07-0.03c-0.01-0.01-0.02-0.02-0.03-0.02c-0.19-0.21-0.05-0.49-0.02-0.7
		c0-0.01-0.01-0.02-0.02-0.02c-0.01,0-0.02,0.01-0.03,0.01c-0.02,0-0.03-0.03-0.02-0.03c0.02-0.08,0.16-0.35-0.07-0.41
		c-0.1-0.03-0.26,0.11-0.29,0.13c-0.04,0.03-0.08,0.06-0.12,0.1c-0.25,0.22-0.52,0.51-0.54,0.75c-0.01,0.07-0.03,0.22,0.08,0.28
		c0.02,0.01,0.05,0.01,0.08,0.01c0.11-0.01,0.26-0.12,0.38-0.22c0.09-0.08,0.16-0.15,0.21-0.18c0.04-0.03,0.04,0.05,0.04,0.06
		c0,0.09-0.01,0.18,0,0.27c0.01,0.03,0.05,0.2,0.18,0.2c0.07,0,0.24-0.1,0.27-0.14C24.3,19.5,24.29,19.47,24.27,19.46z M23.61,19.22
		c0,0-0.01,0.01-0.01,0.01c-0.04,0.04-0.15,0.09-0.23,0.07c-0.12-0.02,0.01-0.5,0.23-0.74c0.06-0.06,0.12-0.1,0.19-0.12
		C23.95,18.4,23.9,18.93,23.61,19.22z"/>
	<path class="st353" d="M41.91,18.38c0-0.02-0.04-0.12-0.11-0.12c-0.24,0.01-0.44,0.27-0.5,0.35c-0.01,0.01-0.04,0.08-0.08,0.08
		c-0.04,0-0.02-0.04-0.02-0.04c0.03-0.14,0.14-0.52-0.03-0.61c-0.01,0-0.02-0.01-0.04,0c-0.19,0.07-0.34,0.22-0.4,0.33
		c-0.02,0.04-0.08,0.3-0.02,0.3c0.07,0.01,0.18-0.09,0.18-0.12c0-0.05-0.01-0.09,0-0.14c0.01-0.08,0.07-0.18,0.08-0.16
		c0.17,0.13,0.06,0.41,0.03,0.57c-0.01,0.05-0.01,0.12-0.05,0.17c-0.04,0.05-0.13,0.11-0.19,0.16c-0.01,0.01-0.01,0.02-0.01,0.04
		c0.02,0.06,0.1,0.11,0.07,0.17c-0.03,0.1-0.1,0.2-0.12,0.3c-0.03,0.21-0.08,0.42-0.09,0.63c0,0,0,0.01,0,0
		c0.04-0.01,0.07-0.03,0.1-0.05c0.04-0.02,0.07-0.03,0.09-0.05c0.06-0.07,0.07-0.16,0.1-0.23c0.04-0.12,0.09-0.23,0.12-0.35
		c0.01-0.05,0.01-0.09,0.01-0.14c0-0.02,0.02-0.03,0.06-0.03C41.92,19.3,41.94,18.67,41.91,18.38z M41.4,19.25
		c-0.21,0.02-0.26-0.13-0.26-0.19c0-0.11,0.12-0.54,0.39-0.59c0.05-0.01,0.1,0.02,0.12,0.04C41.81,18.69,41.6,19.24,41.4,19.25z"/>
	<path class="st353" d="M33.85,18.6c-0.01-0.01-0.01-0.02-0.04-0.02c-0.04,0-0.04,0.02-0.05,0.04c-0.17,0.2-0.26,0.41-0.36,0.63
		c-0.02,0.04-0.09,0.08-0.15,0.11c-0.04,0.02-0.1,0.04-0.09,0c0.13-0.58,0.27-1.15,0.37-1.73c0.01-0.07-0.01-0.14-0.01-0.2
		c0-0.01,0.01-0.01,0.01-0.02c0.03-0.06,0.1-0.11,0.19-0.16c0.01-0.01,0.02-0.01,0.04-0.01c0.01,0,0.02,0,0.02,0
		c0.01,0,0.01,0.01,0.01,0.01c0,0.01,0,0.01,0,0.01c0,0.02,0.01,0.04,0.01,0.06c-0.01,0.05-0.01,0.11-0.02,0.16
		c-0.04,0.21-0.09,0.42-0.14,0.63c-0.05,0.21-0.1,0.41-0.15,0.62c0,0,0.01,0.04,0.02,0.03c0.17-0.14,0.27-0.28,0.5-0.4
		c0.02-0.01,0.04,0,0.05,0.01c0.05,0.04,0.05,0.08,0.05,0.12c0.01,0.26-0.09,0.54,0.04,0.8c0.01,0.02,0.03,0.05,0.05,0.07
		c0.01,0.01,0.02,0.01,0.02,0.02c0.03,0.06-0.08,0.11-0.16,0.16c0,0,0.01,0.01,0,0.01c-0.01,0.01-0.04,0.02-0.07,0.01
		c-0.09-0.03-0.09-0.2-0.09-0.24C33.89,19.07,33.9,18.84,33.85,18.6L33.85,18.6z"/>
	<path class="st353" d="M15.96,18.14c-0.02,0.02-0.02,0.04,0,0.05c0.01,0.01,0.08,0.03,0.1,0.04c0.33,0.16,0.68,0.35,0.85,0.56
		c0.2,0.25,0.07,0.74-0.71,0.76c-0.48,0.01-0.84-0.17-1.01-0.35c-0.01-0.02-0.01-0.04,0-0.05c0.09-0.09,0.22-0.2,0.41-0.25
		c0.01,0,0.02,0,0.02,0c0.02,0.01,0.01,0.03,0.01,0.04c-0.01,0.01-0.02,0.01-0.03,0.02c-0.1,0.05-0.13,0.11-0.12,0.18
		c0,0.01,0.01,0.02,0.01,0.03c0.11,0.13,0.3,0.22,0.61,0.26c0.74,0.09,0.52-0.46,0.34-0.61c-0.16-0.14-0.36-0.23-0.6-0.34
		c-0.11-0.06-0.21-0.12-0.32-0.18c-0.03-0.02-0.01-0.05,0.02-0.06c0.14-0.08,0.29-0.15,0.48-0.21c0.26-0.08,0.52-0.15,0.77-0.23
		c0.05-0.01,0.1-0.06,0.09-0.11c-0.04-0.1-0.27-0.18-0.47-0.22c-0.07-0.01-0.57-0.1-0.6-0.06c-0.41,0.66-0.73,1.33-0.91,2.01
		c0,0.01,0,0.01-0.01,0.02c-0.01,0.02-0.04,0.02-0.07,0.03c-0.07,0.02-0.13,0.05-0.21,0.07c-0.01,0-0.02,0-0.03,0
		c-0.03-0.01-0.03-0.04-0.02-0.06c0.13-0.7,0.66-1.39,1.02-2.06c0-0.01-0.01-0.03-0.03-0.03c-0.27-0.02-0.52-0.02-0.68,0.09
		c-0.02,0.01-0.03,0.03-0.05,0.04c-0.02,0.01-0.07-0.04-0.09-0.05c-0.04-0.02-0.11-0.02-0.11-0.05c0-0.21,0.81-0.21,1.09-0.22
		c0.13,0,0.19-0.14,0.2-0.12c0.03,0.04,0.03,0.08,0.05,0.12c0.01,0.02,0.83,0.04,1.11,0.24c0.21,0.14-0.02,0.35-0.29,0.45
		C16.52,17.96,16.24,18.05,15.96,18.14L15.96,18.14z"/>
	<path class="st353" d="M18.42,18.45c0.07-0.31,0.13-0.66,0.41-0.96c0.02-0.02,0.05-0.05,0.07-0.07c0.01,0,0.01-0.01,0.01-0.01
		c0.01,0,0.02-0.01,0.02-0.01c0.01,0,0.02,0.01,0.02,0.01c0.01,0.01,0.01,0.01,0.01,0.02c0.02,0.41-0.18,0.75-0.35,1.14
		c-0.05,0.12-0.1,0.24-0.11,0.36c-0.01,0.07-0.04,0.38,0.19,0.4c0.19,0.02,0.2-0.15,0.22-0.2c0.01-0.02,0.04-0.04,0.05-0.05
		c0.01-0.01,0.02,0.04,0.02,0.05c-0.01,0.05-0.05,0.11-0.08,0.15c-0.05,0.09-0.17,0.22-0.38,0.25c-0.02,0.01-0.04,0.01-0.06,0
		c-0.06-0.01-0.1-0.05-0.12-0.07C18.19,19.13,18.34,18.79,18.42,18.45L18.42,18.45z"/>
	<path class="st353" d="M22.82,17.68c0.01,0,0.02,0,0.03,0c0.05,0.01,0.07,0.13,0.07,0.15c0.01,0.02,0.01,0.06-0.02,0.08
		c-0.05,0.04-0.1,0.07-0.16,0.11c-0.01,0.01-0.02,0.02-0.05,0.02c-0.04-0.01-0.04-0.05-0.05-0.07c-0.02-0.04-0.05-0.09-0.02-0.14
		C22.66,17.78,22.76,17.72,22.82,17.68L22.82,17.68z"/>
	<path class="st353" d="M30.95,19.21c-0.1,0.08-0.47,0.34-0.69,0.28c-0.04-0.01-0.12-0.05-0.15-0.07c-0.04-0.02-0.07-0.06-0.07-0.09
		c0-0.01,0.01-0.01,0.01-0.02c0.02-0.02,0.08-0.04,0.12-0.05c0.04-0.02,0.04-0.04,0.07-0.06c0.01-0.01,0.02-0.01,0.04-0.01
		c0.09-0.01,0.16,0.08,0.21,0.11c0.05,0.03,0.13,0.02,0.19,0c0.1-0.04,0.18-0.22,0.07-0.25c-0.1-0.03-0.21-0.05-0.31-0.08
		c-0.12-0.04-0.21-0.11-0.24-0.18c-0.1-0.24,0.29-0.5,0.71-0.63c0.04-0.01,0.05-0.01,0.09-0.01c0.41,0.07,0.04,0.45-0.09,0.54
		c-0.01,0.01-0.02,0.02-0.04,0.02c-0.01,0-0.04-0.02-0.04-0.03c0.02-0.08,0.25-0.39-0.01-0.41c-0.29-0.02-0.58,0.41-0.27,0.5
		c0.11,0.04,0.26,0.04,0.36,0.09c0.02,0.01,0.02,0.02,0.04,0.03C31.06,19,31.03,19.11,30.95,19.21L30.95,19.21z"/>
	<path class="st353" d="M26.93,19.43c-0.09,0-0.13-0.05-0.13-0.08c-0.02-0.15,0.07-0.28,0.15-0.43c0.07-0.14,0.09-0.27,0.15-0.4
		c0.02-0.06,0.26-0.29,0.35-0.24c0.01,0.01,0.03,0.04,0.02,0.06c-0.05,0.1-0.52,0.83-0.31,0.9c0.01,0,0.04,0.01,0.05,0.01
		c0.38-0.17,0.58-0.49,0.7-0.71c0.01-0.02,0.01-0.05,0.04-0.08c0.04-0.04,0.12-0.09,0.19-0.12c0,0,0.01,0,0.02,0
		c0.02,0.01,0.05,0.04,0.04,0.05c-0.03,0.08-0.41,0.89-0.02,0.92c0.04,0,0.07-0.01,0.11-0.01c0.02,0,0,0.04-0.01,0.05
		c-0.06,0.04-0.13,0.08-0.19,0.11c-0.04,0.02-0.07,0.05-0.15,0.05c-0.02,0-0.04,0-0.05-0.01c-0.18-0.09-0.17-0.29-0.16-0.4
		c0-0.01-0.01-0.13-0.02-0.11c-0.1,0.07-0.19,0.15-0.29,0.22c-0.08,0.06-0.2,0.16-0.35,0.19L26.93,19.43L26.93,19.43z"/>
	<path class="st353" d="M21.49,18.63c-0.01-0.02-0.02-0.05-0.07-0.05c-0.05,0-0.1,0.07-0.12,0.08c-0.17,0.21-0.3,0.44-0.47,0.65
		c-0.03,0.04-0.15,0.05-0.22,0.07c-0.01,0-0.01,0-0.02,0c-0.01-0.01-0.02-0.02-0.02-0.03c0-0.01,0.01-0.01,0.01-0.02
		c0.15-0.3,0.26-0.61,0.26-0.92c0-0.01-0.01-0.01-0.02-0.02c-0.02-0.01-0.04,0.01-0.05,0.01c-0.03,0.03-0.01,0.11-0.12,0.12
		c-0.04,0-0.02-0.04-0.02-0.05c0.01-0.02,0.02-0.04,0.04-0.07c0.01-0.02,0.02-0.03,0.04-0.05c0.09-0.05,0.17-0.11,0.27-0.16
		c0.01-0.01,0.03,0,0.04,0c0.02,0,0.03,0.01,0.04,0.01c0.02,0.01,0.03,0.02,0.04,0.03c0.15,0.15-0.02,0.34-0.07,0.49
		c0,0.01-0.01,0.04,0.01,0.05c0.03,0.01,0.04-0.01,0.04-0.02c0.04-0.04,0.08-0.07,0.12-0.1c0.04-0.03,0.08-0.07,0.13-0.1
		c0.05-0.04,0.11-0.07,0.17-0.11c0.06-0.03,0.12-0.06,0.19-0.09c0.04-0.02,0.06,0.05,0.06,0.07c-0.01,0.22-0.18,0.64-0.01,0.83
		c0.02,0.02,0.12,0.05,0.12,0.06c-0.01,0.04-0.12,0.17-0.22,0.19c-0.05,0.01-0.09,0-0.12-0.02c-0.04-0.02-0.07-0.09-0.07-0.12
		C21.45,19.17,21.48,18.75,21.49,18.63L21.49,18.63z"/>
	<path class="st353" d="M22.11,20.26c-0.02,0.01-0.05,0.01-0.07-0.01c-0.06-0.04-0.03-0.11-0.01-0.15c0.2-0.37,0.42-0.75,0.51-1.14
		c0.04-0.15,0.04-0.33,0.02-0.49c0,0-0.22,0.32-0.27,0.52c-0.01,0.05,0.01,0.1-0.02,0.14c-0.04,0.05-0.13,0.08-0.2,0.11
		c-0.01,0,0.01,0.01-0.01,0.01c-0.05-0.01,0.03-0.17,0.04-0.2c0.08-0.19,0.16-0.4,0.32-0.57c0.04-0.04,0.27-0.23,0.33-0.25
		c0.04-0.01,0.05,0.04,0.05,0.05c0.03,0.17,0.01,0.33-0.03,0.5c-0.01,0.05-0.12,0.13-0.02,0.15c0.09,0.02,0.08-0.09,0.17-0.11
		c0.04-0.01-0.07,0.12-0.09,0.14c-0.06,0.08-0.11,0.17-0.15,0.25v0c-0.09,0.27-0.19,0.54-0.32,0.8
		C22.3,20.11,22.24,20.18,22.11,20.26L22.11,20.26z"/>
	<path class="st353" d="M26.69,18.38c-0.01-0.02-0.05-0.12-0.12-0.12c-0.05,0-0.13,0.04-0.16,0.05c-0.15,0.07-0.26,0.21-0.33,0.3
		c-0.01,0.01-0.05,0.08-0.08,0.08c-0.02,0-0.02-0.04-0.02-0.04c0.02-0.18,0.13-0.41,0-0.58c-0.01-0.01-0.01-0.02-0.03-0.02
		c-0.01,0-0.02-0.01-0.02,0c-0.16,0.06-0.3,0.2-0.38,0.28c-0.09,0.09-0.06,0.21-0.07,0.3c0,0.01-0.01,0.03,0.01,0.04
		c0.03,0.02,0.07,0,0.09-0.02c0.05-0.02,0.09-0.06,0.09-0.09c0.01-0.04,0.01-0.09,0.01-0.14c0.01-0.04,0.01-0.08,0.01-0.11
		c0-0.01,0.05-0.06,0.07-0.05c0.05,0.04,0.05,0.14,0.06,0.18c0.02,0.07,0.01,0.14,0,0.21c-0.01,0.11-0.01,0.24-0.09,0.35
		c-0.03,0.05-0.14,0.11-0.19,0.16c-0.01,0.01-0.01,0.01-0.01,0.02c-0.01,0.05,0.07,0.09,0.09,0.15c0.01,0.04-0.03,0.1-0.05,0.14
		c-0.04,0.1-0.09,0.21-0.11,0.31c-0.03,0.15-0.07,0.31-0.07,0.47c0,0.02,0.01,0.03,0.01,0.05c0,0,0.01,0.01,0.01,0
		c0.05-0.02,0.18-0.08,0.19-0.1c0.11-0.16,0.15-0.35,0.2-0.52c0.02-0.07-0.01-0.15,0.04-0.22c0.01-0.01,0.02-0.01,0.04-0.01
		c0.19-0.03,0.28-0.06,0.39-0.13C26.66,19.04,26.72,18.67,26.69,18.38z M26.17,19.25c-0.09-0.01-0.2-0.04-0.23-0.07
		c-0.04-0.05-0.02-0.14,0.05-0.3c0.04-0.08,0.2-0.36,0.37-0.4l0.04,0.01C26.64,18.65,26.49,19.13,26.17,19.25z"/>
	<path class="st353" d="M18.03,19.3c-0.07,0.02-0.23,0.05-0.32,0.02c-0.15-0.04-0.18-0.19-0.18-0.25l0.24-0.17
		c0.22-0.15,0.64-0.5,0.32-0.65c-0.04-0.02-0.12-0.01-0.16,0.01c-0.13,0.06-0.22,0.12-0.3,0.2c-0.26,0.26-0.54,0.65-0.34,0.92
		c0.04,0.05,0.15,0.14,0.29,0.14c0.19,0,0.35-0.12,0.45-0.19c0.03-0.02,0.05-0.04,0.08-0.06c0.01,0,0.01,0,0,0
		C18.09,19.28,18.06,19.3,18.03,19.3z M17.75,18.44c0.05-0.02,0.09-0.02,0.14,0.01c0.12,0.1-0.12,0.52-0.34,0.52
		C17.4,18.96,17.63,18.54,17.75,18.44z"/>
	<path class="st353" d="M31.58,19.68c-0.02,0.01-0.1,0.1-0.15,0.09c-0.04-0.01-0.02-0.05-0.01-0.07c0.01-0.01,0.02-0.02,0.02-0.04
		c0.06-0.09,0.12-0.2,0.15-0.29c0,0,0-0.02-0.01-0.02c-0.02-0.01-0.09,0.02-0.12,0c-0.13-0.08,0.16-0.25,0.26-0.3
		c0.01,0,0.01,0,0.01,0C32.08,19.02,31.72,19.53,31.58,19.68L31.58,19.68z"/>
	<path class="st353" d="M37.9,19.36c-0.02,0.02-0.04,0.08-0.07,0.06c-0.03-0.02,0.02-0.06,0.03-0.08c0.04-0.09,0.06-0.18,0.05-0.28
		c-0.01-0.02-0.01-0.1-0.09-0.1c-0.03,0-0.04,0.01-0.05,0.02c-0.15,0.07-0.29,0.13-0.44,0.2c-0.03,0.01-0.07,0.01-0.09,0
		c-0.23-0.13,0.15-0.49,0.24-0.62c0.02-0.02,0.1-0.1,0.16-0.1c0.13,0.01-0.02,0.21-0.05,0.24l-0.01,0c0,0-0.01,0.06,0.02,0.06
		c0.02,0,0.04-0.02,0.05-0.02c0.16-0.11,0.36-0.22,0.33-0.37c-0.01-0.03-0.05-0.06-0.13-0.06c-0.07,0-0.09,0.02-0.12,0.04
		c-0.04,0.02-0.08,0.04-0.13,0.06c-0.04,0.02-0.08,0.05-0.12,0.07c-0.21,0.13-0.92,0.85-0.47,0.89c0.17,0.01,0.43-0.17,0.57-0.21
		c0.01,0,0.02,0,0.03,0.01c0.01,0,0.01,0.01,0.02,0.01c0.09,0.08,0.05,0.23,0,0.31c-0.02,0.03-0.1,0.07-0.15,0.09
		c-0.19,0.11-0.35,0.29-0.47,0.42c-0.02,0.02-0.31,0.45-0.02,0.39c0.59-0.11,0.7-0.67,0.81-0.89c0.01-0.02,0.03-0.03,0.04-0.05
		c0.03-0.03,0.07-0.05,0.07-0.09C37.93,19.36,37.92,19.34,37.9,19.36z M37.57,19.71l-0.01,0.07l-0.02,0.07l-0.04,0.07l-0.04,0.07
		l-0.04,0.06l-0.05,0.06l-0.05,0.05l-0.03,0.02l-0.02,0.02l-0.02,0.01l-0.03-0.01l-0.02-0.02V20.1l0.01-0.08l0.05-0.12l0.04-0.06
		l0.04-0.05l0.05-0.05l0.04-0.04l0.05-0.04l0.06-0.04h0.04l0.03,0.02L37.57,19.71z"/>
	<path class="st354" d="M38.42,22.75l-0.82-0.59c1.73-1.24,4.34-1.85,7.55-1.15C41.99,20.68,38.26,22.38,38.42,22.75L38.42,22.75z"
		/>
	<path class="st353" d="M36.37,19.23c0,0,0.01,0.01,0.01,0.01c0.02,0.03,0.05,0.14,0.12,0.14c0.02,0,0.05,0,0.06-0.01
		c0.03-0.01,0.04-0.03,0.05-0.04c0.02-0.01,0.05-0.02,0.07-0.04c0.01,0,0.01,0,0.01,0c0.02,0.01,0.03,0.03,0.02,0.04
		c-0.07,0.05-0.43,0.28-0.58,0.15c-0.07-0.06-0.09-0.17-0.06-0.24c0.01-0.01,0.02-0.03,0.02-0.04c0.1-0.22,0.23-0.43,0.4-0.65
		c0.01-0.01,0.02-0.08-0.03-0.08c-0.05-0.01-0.16-0.02-0.21,0c-0.05,0.02-0.08,0.05-0.09,0.08c-0.09,0.12-0.13,0.26-0.24,0.38
		c-0.01,0.01-0.04,0.01-0.05,0c-0.01-0.01-0.02-0.02-0.02-0.03c0.04-0.09,0.22-0.29,0.19-0.38c-0.01-0.01-0.01-0.02-0.02-0.03
		c-0.01,0-0.07-0.03-0.09-0.03c-0.11-0.07,0.14-0.26,0.29-0.31c0.01,0,0.03-0.01,0.04,0c0.01,0,0.02,0.01,0.02,0.01
		c0.06,0.06-0.08,0.14,0,0.2c0.03,0.02,0.16-0.01,0.21-0.01c0.05,0,0.19,0.01,0.22,0.03c0.04,0.04,0.01,0.09-0.02,0.13
		C36.55,18.75,36.35,18.99,36.37,19.23L36.37,19.23z"/>
	<path class="st353" d="M20.37,19.34c-0.02-0.01-0.05-0.02-0.07-0.03c-0.01-0.01-0.02-0.02-0.03-0.02c-0.19-0.21-0.05-0.49-0.02-0.7
		c0.01-0.01-0.01-0.02-0.02-0.02c-0.01,0-0.02,0-0.03,0c-0.02,0-0.02-0.02-0.02-0.03c0.02-0.08,0.16-0.35-0.07-0.41
		c-0.1-0.02-0.26,0.11-0.29,0.13c-0.28,0.23-0.63,0.57-0.66,0.85c-0.01,0.07-0.03,0.22,0.08,0.28c0.03,0.01,0.05,0.01,0.09,0.01
		c0.19-0.01,0.49-0.33,0.58-0.4c0.04-0.03,0.04,0.05,0.04,0.06c0,0.09-0.01,0.18,0,0.27c0.01,0.03,0.05,0.2,0.18,0.2
		c0.07,0,0.24-0.1,0.27-0.14C20.4,19.38,20.39,19.35,20.37,19.34z M19.71,19.1c-0.03,0.03-0.15,0.1-0.24,0.08
		c-0.16-0.03,0.04-0.68,0.42-0.86C20.03,18.26,20,18.81,19.71,19.1z"/>
	<path class="st353" d="M35.74,19.4c-0.02-0.01-0.05-0.02-0.07-0.03c-0.01-0.01-0.02-0.02-0.03-0.02c-0.19-0.21-0.05-0.49-0.02-0.7
		c0-0.01-0.01-0.02-0.02-0.02c-0.01,0-0.02,0.01-0.03,0.01c-0.02,0-0.03-0.03-0.02-0.03c0.02-0.08,0.16-0.35-0.07-0.41
		c-0.1-0.03-0.26,0.11-0.29,0.13c-0.28,0.22-0.63,0.57-0.66,0.85c-0.01,0.07-0.03,0.22,0.08,0.28c0.02,0.01,0.04,0.01,0.08,0.01
		c0.19-0.01,0.48-0.33,0.58-0.4c0.04-0.03,0.04,0.05,0.04,0.06c0,0.09-0.01,0.18,0,0.27c0,0.03,0.05,0.2,0.18,0.2
		c0.07,0,0.23-0.1,0.27-0.14C35.77,19.44,35.75,19.41,35.74,19.4z M35.07,19.16c-0.03,0.03-0.15,0.1-0.24,0.08
		c-0.16-0.03,0.04-0.68,0.42-0.86C35.4,18.31,35.36,18.87,35.07,19.16z"/>
	<path class="st353" d="M39.41,19.49c-0.01-0.01-0.05-0.02-0.07-0.03c-0.01-0.01-0.02-0.02-0.02-0.02c-0.19-0.21-0.05-0.49-0.02-0.7
		c0-0.01-0.01-0.02-0.03-0.02c-0.01,0-0.02,0-0.02,0c-0.02,0-0.03-0.02-0.03-0.03c0.02-0.08,0.16-0.35-0.06-0.41
		c-0.1-0.02-0.26,0.11-0.29,0.13c-0.29,0.23-0.63,0.57-0.67,0.85c-0.01,0.06-0.02,0.22,0.09,0.28c0.02,0.01,0.04,0.01,0.08,0.01
		c0.19-0.01,0.49-0.33,0.58-0.4c0.04-0.03,0.05,0.05,0.05,0.06c-0.01,0.09-0.01,0.18,0,0.27c0,0.03,0.05,0.2,0.17,0.2
		c0.07,0,0.24-0.1,0.27-0.14C39.44,19.52,39.42,19.5,39.41,19.49z M38.74,19.24c-0.04,0.03-0.16,0.1-0.25,0.08
		c-0.15-0.03,0.04-0.68,0.42-0.86C39.06,18.4,39.04,18.95,38.74,19.24z"/>
	<path class="st353" d="M43.22,19.39c-0.02-0.01-0.05-0.02-0.07-0.03c-0.01-0.01-0.02-0.01-0.03-0.02c-0.19-0.21-0.05-0.48-0.02-0.7
		c0-0.01-0.01-0.02-0.02-0.02c-0.01,0-0.02,0.01-0.03,0.01c-0.02,0-0.03-0.03-0.02-0.03c0.02-0.08,0.16-0.35-0.07-0.41
		c-0.1-0.02-0.26,0.11-0.29,0.13c-0.28,0.23-0.63,0.57-0.66,0.85c-0.01,0.07-0.03,0.22,0.08,0.28c0.02,0.01,0.04,0.02,0.09,0.01
		c0.19-0.01,0.48-0.33,0.58-0.4c0.04-0.03,0.04,0.05,0.04,0.06c0,0.09-0.01,0.18,0,0.27c0,0.03,0.05,0.2,0.18,0.2
		c0.07,0,0.23-0.1,0.27-0.14C43.25,19.43,43.23,19.4,43.22,19.39z M42.55,19.15c-0.03,0.03-0.15,0.1-0.24,0.08
		c-0.16-0.03,0.04-0.68,0.42-0.86C42.88,18.3,42.85,18.86,42.55,19.15z"/>
	<path class="st354" d="M45.67,11.82c0.04,0,0.18,0.75-1.13,0.76c-0.51,0.01-0.83-0.13-0.95-0.34c-0.29-0.53,0.22-1.29,0.42-1.82
		c0,0-0.01,0-0.02,0c-0.32-0.01-0.47,0.02-0.77,0.08c0,0-0.01,0-0.01-0.01c-0.08-0.07-0.02-0.15,0.01-0.23
		c0.01-0.05,0.03-0.1,0.04-0.15c0.01-0.06,0.13-0.13,0.24-0.16c0.16-0.04,0.37-0.03,0.55-0.03c0.01,0,0.02,0.01,0.03,0.01
		c0.04,0,0.07-0.03,0.08-0.05c0.12-0.24,0.19-0.49,0.22-0.74c0.01-0.06,0.01-0.14,0-0.2c0-0.03-0.06-0.07-0.02-0.09
		c0.17-0.1,0.81-0.09,1.03-0.06c0.02,0,0.03,0.01,0.04,0.02c0.14,0.09,0.12,0.22,0.08,0.32c-0.1,0.24-0.19,0.48-0.28,0.71
		c-0.01,0.02-0.01,0.08,0.05,0.09c0.02,0,0.04-0.01,0.06-0.01c0.26,0.01,0.48,0.01,0.74-0.02c0.08-0.01,0.16-0.04,0.25-0.03
		c0.04,0.01-0.05,0.33-0.24,0.41c-0.18,0.08-0.46,0.14-0.71,0.14c-0.11,0-0.17-0.01-0.26-0.03c-0.05-0.01-0.1,0.02-0.1,0.04
		c-0.22,0.43-0.59,1.2-0.39,1.44c0.06,0.07,0.17,0.14,0.36,0.14C45.21,12.01,45.54,11.8,45.67,11.82L45.67,11.82z"/>
	<path class="st355" d="M24.46,8.92c0,0.12-0.01,0.24,0,0.36c0,0.01,0.37-0.06,0.49-0.03c0.49,0.09,0.39,0.69-0.34,0.6
		c-0.05-0.01-0.14-0.05-0.15-0.03c-0.02,0.71,0.01,1.49-0.02,2.14c-0.02,0.18-0.4,0.29-0.76,0.29c-0.46-0.01-0.77-0.17-0.77-0.38
		c0-0.67,0.04-1.33,0.01-1.98c0-0.02-0.04-0.04-0.09-0.04c-0.02,0.01-0.05,0.01-0.08,0.01c-0.71,0.06-0.87-0.64-0.05-0.61
		c0.05,0,0.09,0.01,0.14,0.01c0.02,0,0.05,0,0.06-0.01c0.01-0.01,0.02-0.03,0.02-0.04c0.02-0.21-0.11-0.56,0.2-0.72
		c0.47-0.25,1.12-0.21,1.76-0.17c0.2,0.01,0.33,0.06,0.36,0.15c0.03,0.08,0.06,0.33-0.17,0.37C24.87,8.89,24.66,8.91,24.46,8.92
		L24.46,8.92z"/>
	<path class="st355" d="M20.22,11.82V8.81C20.26,8.48,20.3,8.27,21,8.22c0.64,0.04,0.74,0.25,0.77,0.51l-0.04,3.07
		c0,0.24-0.16,0.49-0.73,0.49C20.4,12.28,20.28,12.11,20.22,11.82L20.22,11.82z"/>
	<path class="st354" d="M42.5,10.56c-0.01,0-0.02,0-0.02-0.01c-0.05-0.04-0.14-0.13-0.26-0.14c-0.16-0.01-0.3,0.09-0.37,0.14
		c-0.43,0.38-0.73,0.76-1.02,1.17c-0.09,0.12-0.28,0.44-0.2,0.58c0.01,0.02,0.02,0.05,0.02,0.07c0.01,0.12-0.49,0.12-0.65,0.11
		c-0.41-0.05-0.47-0.22-0.4-0.39c0.29-0.7,0.64-1.4,0.79-2.11c0.02-0.1,0.07-0.22,0.04-0.32c-0.01-0.04-0.03-0.14,0.07-0.16
		c0.32-0.07,0.94-0.14,1.05,0.09c0.08,0.18-0.13,0.58-0.23,0.78c-0.02,0.04-0.04,0.07-0.05,0.11c0,0-0.01,0.01,0,0.01
		c0.04-0.04,0.07-0.09,0.11-0.13c0.21-0.22,0.84-0.96,1.44-0.92c0.17,0.01,0.28,0.07,0.3,0.15C43.19,9.85,42.87,10.35,42.5,10.56
		L42.5,10.56z"/>
	<path class="st354" d="M35.24,11.75c0.15-0.58,0.38-1.17,0.6-1.75c0.04-0.1,0.17-0.62-0.25-0.67c-1.01-0.12-1.59,0.73-1.89,1.08
		c-0.01,0.01-0.02,0.01-0.04,0.01c-0.05,0-0.04-0.06-0.03-0.08c0.08-0.19,0.44-0.99-0.19-1.03c-0.9-0.05-1.58,0.92-1.77,0.87
		c-0.19-0.05,0.53-0.68-0.08-0.83c-0.28-0.07-0.55-0.01-0.79,0.07c0,0-0.01,0-0.01,0.01c-0.13,0.83-0.45,1.62-0.8,2.44
		c-0.07,0.15-0.18,0.55,0.39,0.55c0.14,0,0.49-0.07,0.57-0.12c0.02-0.02,0-0.04-0.01-0.06c-0.01-0.15,0.01-0.3,0.09-0.44
		c0.04-0.08,0.09-0.16,0.15-0.23c0.11-0.16,1.19-1.61,1.48-1.58c0.25,0.02-0.59,1.87-0.64,2.02c-0.06,0.14-0.1,0.31,0.25,0.37
		c0.16,0.03,0.5,0.04,0.65,0c0.08-0.02,0.09-0.08,0.08-0.12c-0.01-0.08-0.04-0.16-0.01-0.24c0.31-0.68,0.86-1.36,1.61-1.97
		c0.02-0.01,0.07-0.04,0.1-0.03c0.08,0.02,0.07,0.07,0.05,0.1c-0.19,0.58-0.49,1.17-0.58,1.75c-0.02,0.13-0.05,0.51,0.29,0.56
		c0.23,0.04,0.88-0.04,0.85-0.19C35.3,12.06,35.19,11.93,35.24,11.75L35.24,11.75z"/>
	<path class="st354" d="M39.95,9.49c0.01-0.07-0.26-0.08-0.42-0.09c-0.18-0.01-0.37-0.01-0.51,0.04c-0.06,0.02-0.08,0.07-0.16,0.07
		c-0.04,0-0.45-0.14-0.62-0.15c-0.96-0.07-1.54,0.54-1.82,0.85c-0.53,0.61-0.95,1.39-0.58,2.03c0.08,0.13,0.22,0.24,0.53,0.24
		c0.89-0.01,1.36-0.68,1.64-1.01c0.02-0.02,0.03-0.04,0.05-0.05c0.01,0,0.01,0.01,0.02,0.01c0,0.01,0.01,0.01,0.01,0.02
		c-0.05,0.23-0.09,0.45-0.04,0.67c0.02,0.12,0.11,0.29,0.4,0.34c0.28,0.05,0.77-0.05,0.76-0.21c0-0.01,0-0.01-0.01-0.02
		c-0.01-0.04-0.02-0.07-0.02-0.11c-0.01-0.04-0.01-0.07-0.02-0.11c0-0.04-0.01-0.07-0.01-0.11c0-0.04-0.01-0.08-0.01-0.11
		c0-0.34,0.08-0.68,0.24-1.02C39.59,10.35,39.91,9.93,39.95,9.49z M38.69,10.15c-0.4,0.55-0.85,1.08-1.48,1.59
		c-0.03,0.01-0.07,0.05-0.12,0.04c-0.04-0.01-0.07-0.04-0.08-0.06c-0.22-0.52,0.13-1.4,0.75-1.78c0.08-0.05,0.35-0.14,0.47-0.08
		c0.17,0.09,0.34,0.18,0.49,0.27C38.74,10.13,38.71,10.14,38.69,10.15z"/>
	<path class="st355" d="M19.63,11.83l-1.65-3.22c-0.13-0.25-0.48-0.44-1.05-0.46c-0.64-0.02-1.13,0.22-1.27,0.5l-1.26,2.41
		c-0.19,0.35-0.9,1.21,0.37,1.25c1.19,0.04,1.05-1.05,1.3-1.05c0.51,0,1.02,0,1.53,0c0.02,0,0.04,0,0.04,0.01
		c0.16,0.36,0.16,0.97,1.19,1.03C19.45,12.34,19.74,12.04,19.63,11.83z M17.31,10.54c-0.32,0.01-0.64,0.01-0.95,0
		c-0.04-0.09,0.29-0.7,0.45-1.05c0-0.01,0.02-0.03,0.05-0.02c0.03,0.01,0.04,0.03,0.04,0.04c0.15,0.34,0.31,0.69,0.42,1.04
		C17.32,10.54,17.32,10.54,17.31,10.54z"/>
	<path class="st355" d="M29.51,9.34c-0.01-0.25-0.99-0.26-1.28-0.13C28.2,9.23,28.1,9.3,28.09,9.3c-0.16-0.01-0.35-0.09-0.54-0.11
		c-0.41-0.05-0.86-0.05-1.19,0.08c-1.24,0.48-1.59,2.64,0.26,2.95c0.49,0.08,1.05-0.05,1.45-0.15c0.04-0.01,0.07,0.03,0.09,0.05
		c0.04,0.03,0.09,0.06,0.15,0.08c0.17,0.06,0.44,0.08,0.66,0.07c0.34-0.02,0.58-0.18,0.58-0.32C29.54,11.08,29.57,10.21,29.51,9.34z
		 M27.82,11.49c-0.08,0.04-0.14,0.04-0.25,0.04c-0.49,0.02-0.58-0.23-0.62-0.48c-0.07-0.31-0.05-0.55,0.03-0.87
		c0.03-0.12,0.21-0.36,0.53-0.36c0.41-0.01,0.58,0.25,0.61,0.38C28.18,10.49,28.28,11.27,27.82,11.49z"/>
	<path class="st356" d="M13.91,15.41l31.88,0.01c0.51-0.37,0.53-1.01,0.51-2.36H17.26C15.63,13.06,14.35,13.07,13.91,15.41
		L13.91,15.41z"/>
	<path class="st357" d="M13.9,15.73h31.77c-0.38,0.32-0.67,0.5-1.32,0.5H13.9V15.73L13.9,15.73z"/>
</g>
</svg>
