<?xml version="1.0" encoding="utf-8"?>
<!-- Generator: Adobe Illustrator 24.0.0, SVG Export Plug-In . SVG Version: 6.00 Build 0)  -->
<svg version="1.1" id="Layer_1" xmlns="http://www.w3.org/2000/svg" xmlns:xlink="http://www.w3.org/1999/xlink" x="0px" y="0px"
	 viewBox="0 0 151.9 106.95" style="enable-background:new 0 0 151.9 106.95;" xml:space="preserve">
<style type="text/css">
	.st0{fill:#6C727C;}
	.st1{fill:#FC5E31;}
	.st2{fill:#8CC63F;}
	.st3{fill:#F3F4F5;}
	.st4{fill:#F74A2D;}
	.st5{fill:#153663;}
	.st6{fill:#153765;}
	.st7{fill:#153867;}
	.st8{fill:#153969;}
	.st9{fill:#15396B;}
	.st10{fill:#153A6D;}
	.st11{fill:#153B6F;}
	.st12{fill:#153C71;}
	.st13{fill:#143D73;}
	.st14{fill:#143E75;}
	.st15{fill:#143E77;}
	.st16{fill:#143F79;}
	.st17{fill:#14407B;}
	.st18{fill:#14417D;}
	.st19{fill:#14427F;}
	.st20{fill:#144381;}
	.st21{fill:#144383;}
	.st22{fill:#144485;}
	.st23{fill:#144587;}
	.st24{fill:#144689;}
	.st25{fill:#14478B;}
	.st26{fill:#14488D;}
	.st27{fill:#14488F;}
	.st28{fill:#144991;}
	.st29{fill:#134A93;}
	.st30{fill:#134B95;}
	.st31{fill:#134C97;}
	.st32{fill:#134D99;}
	.st33{fill:#134D9B;}
	.st34{fill:#134E9D;}
	.st35{fill:#134F9F;}
	.st36{fill:#1350A1;}
	.st37{fill-rule:evenodd;clip-rule:evenodd;fill:#F1E7ED;}
	.st38{fill-rule:evenodd;clip-rule:evenodd;fill:#A893D0;}
	.st39{opacity:0.5;fill-rule:evenodd;clip-rule:evenodd;fill:#5D2C84;}
	.st40{fill-rule:evenodd;clip-rule:evenodd;fill:#CABDE2;}
	.st41{fill-rule:evenodd;clip-rule:evenodd;fill:#704E8D;}
	.st42{fill-rule:evenodd;clip-rule:evenodd;fill:#FBF9FB;}
	.st43{opacity:0.83;fill-rule:evenodd;clip-rule:evenodd;fill:url(#SVGID_2_);}
	.st44{opacity:0.83;fill-rule:evenodd;clip-rule:evenodd;fill:url(#SVGID_3_);}
	.st45{fill:#8D6B96;}
	.st46{opacity:0.2;fill-rule:evenodd;clip-rule:evenodd;fill:#864C90;}
	.st47{fill-rule:evenodd;clip-rule:evenodd;fill:#CECBEA;}
	.st48{fill-rule:evenodd;clip-rule:evenodd;fill:#39175A;}
	.st49{fill-rule:evenodd;clip-rule:evenodd;fill:#F83D45;}
	.st50{fill-rule:evenodd;clip-rule:evenodd;fill:#B32742;}
	.st51{fill-rule:evenodd;clip-rule:evenodd;fill:#A28BCC;}
	.st52{opacity:0.5;fill-rule:evenodd;clip-rule:evenodd;fill:#864C90;}
	.st53{fill-rule:evenodd;clip-rule:evenodd;fill:url(#SVGID_4_);}
	.st54{fill-rule:evenodd;clip-rule:evenodd;fill:url(#SVGID_6_);}
	.st55{fill:#B32742;}
	.st56{fill-rule:evenodd;clip-rule:evenodd;fill:url(#SVGID_8_);}
	.st57{fill-rule:evenodd;clip-rule:evenodd;fill:url(#SVGID_9_);}
	.st58{fill-rule:evenodd;clip-rule:evenodd;fill:#7A5AC4;}
	.st59{fill-rule:evenodd;clip-rule:evenodd;fill:#7A5AA7;}
	.st60{fill-rule:evenodd;clip-rule:evenodd;fill:#5A2967;}
	.st61{fill-rule:evenodd;clip-rule:evenodd;fill:#C4D1ED;}
	.st62{opacity:0.5;fill-rule:evenodd;clip-rule:evenodd;fill:#6D4C90;}
	.st63{fill:#7A5AA7;}
	.st64{fill:#39175A;}
	.st65{fill-rule:evenodd;clip-rule:evenodd;fill:url(#SVGID_10_);}
	.st66{fill:#FFFFFF;}
	.st67{fill-rule:evenodd;clip-rule:evenodd;fill:url(#SVGID_11_);}
	.st68{fill-rule:evenodd;clip-rule:evenodd;fill:url(#SVGID_12_);}
	.st69{fill-rule:evenodd;clip-rule:evenodd;fill:url(#SVGID_13_);}
	.st70{fill-rule:evenodd;clip-rule:evenodd;fill:url(#SVGID_14_);}
	.st71{fill-rule:evenodd;clip-rule:evenodd;fill:url(#SVGID_15_);}
	.st72{fill-rule:evenodd;clip-rule:evenodd;fill:url(#SVGID_16_);}
	.st73{fill-rule:evenodd;clip-rule:evenodd;fill:url(#SVGID_17_);}
	.st74{fill-rule:evenodd;clip-rule:evenodd;fill:url(#SVGID_18_);}
	.st75{fill-rule:evenodd;clip-rule:evenodd;fill:url(#SVGID_19_);}
	.st76{opacity:0.4;fill-rule:evenodd;clip-rule:evenodd;fill:#864C90;}
	.st77{fill-rule:evenodd;clip-rule:evenodd;fill:url(#SVGID_20_);}
	.st78{fill-rule:evenodd;clip-rule:evenodd;fill:#FFFFFF;}
	.st79{fill-rule:evenodd;clip-rule:evenodd;fill:url(#SVGID_21_);}
	.st80{opacity:0.44;fill-rule:evenodd;clip-rule:evenodd;fill:#60003B;}
	.st81{fill-rule:evenodd;clip-rule:evenodd;fill:url(#SVGID_22_);}
	.st82{fill-rule:evenodd;clip-rule:evenodd;fill:url(#SVGID_23_);}
	.st83{fill-rule:evenodd;clip-rule:evenodd;fill:url(#SVGID_24_);}
	.st84{fill-rule:evenodd;clip-rule:evenodd;fill:url(#SVGID_25_);}
	.st85{fill-rule:evenodd;clip-rule:evenodd;fill:url(#SVGID_26_);}
	.st86{fill-rule:evenodd;clip-rule:evenodd;fill:url(#SVGID_27_);}
	.st87{fill-rule:evenodd;clip-rule:evenodd;fill:url(#SVGID_28_);}
	.st88{fill-rule:evenodd;clip-rule:evenodd;fill:url(#SVGID_29_);}
	.st89{fill-rule:evenodd;clip-rule:evenodd;fill:url(#SVGID_30_);}
	.st90{fill-rule:evenodd;clip-rule:evenodd;fill:url(#SVGID_31_);}
	.st91{fill-rule:evenodd;clip-rule:evenodd;fill:url(#SVGID_32_);}
	.st92{fill-rule:evenodd;clip-rule:evenodd;fill:url(#SVGID_33_);}
	.st93{fill-rule:evenodd;clip-rule:evenodd;fill:url(#SVGID_34_);}
	.st94{fill-rule:evenodd;clip-rule:evenodd;fill:url(#SVGID_35_);}
	.st95{fill-rule:evenodd;clip-rule:evenodd;fill:url(#SVGID_36_);}
	.st96{fill-rule:evenodd;clip-rule:evenodd;fill:url(#SVGID_37_);}
	.st97{fill-rule:evenodd;clip-rule:evenodd;fill:url(#SVGID_38_);}
	.st98{fill-rule:evenodd;clip-rule:evenodd;fill:url(#SVGID_39_);}
	.st99{fill-rule:evenodd;clip-rule:evenodd;fill:url(#SVGID_40_);}
	.st100{fill-rule:evenodd;clip-rule:evenodd;fill:url(#SVGID_41_);}
	.st101{fill-rule:evenodd;clip-rule:evenodd;fill:url(#SVGID_42_);}
	.st102{fill-rule:evenodd;clip-rule:evenodd;fill:url(#SVGID_43_);}
	.st103{fill-rule:evenodd;clip-rule:evenodd;fill:url(#SVGID_44_);}
	.st104{fill:#F2E225;}
	.st105{opacity:0.4;fill:url(#SVGID_45_);}
	.st106{fill:#814BA2;}
	.st107{fill:#925CB4;}
	.st108{fill:#B289C9;}
	.st109{fill:#A274BF;}
	.st110{opacity:0.4;fill:url(#SVGID_46_);}
	.st111{fill:#813034;}
	.st112{fill:#802F34;}
	.st113{fill:#AFD2EF;}
	.st114{fill:#E54C3C;}
	.st115{fill:#57607F;}
	.st116{fill:#BF3A2C;}
	.st117{fill:#BF3A2B;}
	.st118{fill:#8796C8;}
	.st119{fill:#C88D95;}
	.st120{fill:#8696C9;}
	.st121{fill:#56607F;}
	.st122{fill:#E3E4E6;}
	.st123{fill:#D8DADE;}
	.st124{opacity:0.4;fill:url(#SVGID_47_);}
	.st125{fill:#F2582F;}
	.st126{fill:#FF7043;}
	.st127{fill:#8E2611;}
	.st128{fill:#E53935;}
	.st129{fill:#F0534A;}
	.st130{fill:#D5D5D3;}
	.st131{opacity:0.4;fill:url(#SVGID_48_);}
	.st132{fill:#F8749D;}
	.st133{fill:#403063;}
	.st134{fill:#403365;}
	.st135{fill:#403264;}
	.st136{fill:#413265;}
	.st137{fill:#E4E5E6;}
	.st138{fill:#E2E2E4;}
	.st139{fill:#DEDEE2;}
	.st140{fill:#3D2E61;}
	.st141{fill:#FDF7F9;}
	.st142{fill:#FDD6E4;}
	.st143{opacity:0.4;fill:url(#SVGID_49_);}
	.st144{fill:#C20047;}
	.st145{fill:#FE405C;}
	.st146{fill:#B1D3EF;}
	.st147{fill:#E0F1FD;}
	.st148{opacity:0.4;fill:url(#SVGID_50_);}
	.st149{opacity:0.4;fill:url(#SVGID_51_);}
	.st150{opacity:0.4;fill:url(#SVGID_52_);}
	.st151{opacity:0.4;fill:url(#SVGID_53_);}
	.st152{opacity:0.4;fill:url(#SVGID_54_);}
	.st153{opacity:0.4;fill:url(#SVGID_55_);}
	.st154{opacity:0.4;fill:url(#SVGID_56_);}
	.st155{fill:#FF5F85;}
	.st156{fill:#FFE878;}
	.st157{fill:#B2527E;}
	.st158{fill:#004FAB;}
	.st159{fill:#57A3FE;}
	.st160{fill:#FEFEFE;}
	.st161{fill:#37A6CD;}
	.st162{fill:#E19A4B;}
	.st163{fill:#54BBE8;}
	.st164{fill:#FBB55F;}
	.st165{fill:#E29A4C;}
	.st166{fill:#E4E8E9;}
	.st167{fill:#D1D0D0;}
	.st168{fill:#E3E7E8;}
	.st169{fill:#566369;}
	.st170{fill:#E19A4C;}
	.st171{fill:#445155;}
	.st172{fill:#E4E7E7;}
	.st173{fill:#566368;}
	.st174{fill:#6E7A7E;}
	.st175{fill:#435054;}
	.st176{fill:#5E5461;}
	.st177{fill:#6F6571;}
	.st178{fill:#5D5360;}
	.st179{fill:#4B3F4E;}
	.st180{fill:#FCCE64;}
	.st181{fill:#FEDF7E;}
	.st182{fill:#857D86;}
	.st183{fill:#3E8FC8;}
	.st184{fill:#FCB630;}
	.st185{fill:#88B237;}
	.st186{fill:#E7594A;}
	.st187{fill:#4398D0;}
	.st188{fill:#D55245;}
	.st189{fill:#80A734;}
	.st190{fill:#FEA71A;}
	.st191{fill:#FAD390;}
	.st192{fill:#F2D45C;}
	.st193{fill:#FA7B76;}
	.st194{fill:#FE5364;}
	.st195{fill:#F8E3C1;}
	.st196{fill:#2D5871;}
	.st197{fill:#FDD8A7;}
	.st198{fill:#E0EEFA;}
	.st199{fill:#F3C792;}
	.st200{fill:#CBDEEC;}
	.st201{fill:#FE4D4C;}
	.st202{fill:#F23A3A;}
	.st203{fill:#1D4859;}
	.st204{fill:#FEB025;}
	.st205{fill:#FE901D;}
	.st206{fill:#1E495A;}
	.st207{fill:#2F5972;}
	.st208{fill:#F3C892;}
	.st209{opacity:0.4;fill:url(#SVGID_57_);}
	.st210{opacity:0.4;fill:url(#SVGID_58_);}
	.st211{fill:#949AA8;}
	.st212{fill:#B3B3B3;}
	.st213{fill:#575D72;}
	.st214{fill:#A3E0F4;}
	.st215{fill:#C2EAF8;}
	.st216{fill:#28304E;}
	.st217{fill:#EC5176;}
	.st218{fill:#FECC34;}
	.st219{fill:#FE76A3;}
	.st220{fill:#E69115;}
	.st221{fill:#FF0000;}
	.st222{fill:#F4AE00;}
	.st223{opacity:0.12;fill:#1B1E23;}
	.st224{fill:#E7E8FA;}
	.st225{fill:#57A845;}
	.st226{fill:none;stroke:#283847;stroke-width:1.2169;stroke-miterlimit:10;}
	.st227{opacity:0.5;fill:#283847;}
	.st228{fill:#6B98F6;}
	.st229{fill:#79AFFF;}
	.st230{clip-path:url(#XMLID_3_);fill:#79AFFF;}
	.st231{clip-path:url(#XMLID_3_);}
	.st232{fill:none;stroke:#212121;stroke-width:1.5836;stroke-linecap:round;stroke-linejoin:round;stroke-miterlimit:10;}
	.st233{fill:#17566C;}
	.st234{clip-path:url(#XMLID_6_);fill:#79AFFF;}
	.st235{clip-path:url(#XMLID_6_);}
	.st236{font-family:'OpenSans-Bold';}
	.st237{font-size:2.0183px;}
	.st238{font-size:1.1706px;}
	.st239{font-size:1.951px;}
	.st240{clip-path:url(#XMLID_6_);fill:#2072A9;}
	.st241{clip-path:url(#XMLID_6_);fill:#2175B8;}
	.st242{opacity:0.02;clip-path:url(#XMLID_9_);}
	.st243{opacity:0.13;clip-path:url(#XMLID_9_);fill:#FFFFFF;}
	.st244{font-size:4.0994px;}
	.st245{fill:none;stroke:#212121;stroke-width:0.5;stroke-linecap:round;stroke-linejoin:round;stroke-miterlimit:10;}
	.st246{fill:#212121;}
	.st247{opacity:0.02;clip-path:url(#XMLID_19_);}
	.st248{opacity:0.13;clip-path:url(#XMLID_19_);fill:#FFFFFF;}
	.st249{font-size:1.7159px;}
	.st250{clip-path:url(#XMLID_20_);fill:#B0C7D8;}
	.st251{clip-path:url(#XMLID_21_);fill:#3A4149;}
	.st252{fill:#FBFFFF;}
	.st253{fill:#EEEEEE;}
	.st254{fill:#FF7B35;}
	.st255{fill:#509DFF;}
	.st256{font-size:1.9136px;}
	.st257{fill:#B0C7D8;}
	.st258{opacity:0.3;fill:#FFFFFC;}
	.st259{clip-path:url(#XMLID_26_);fill:#FC6C2B;}
	.st260{fill:#B8D0E5;}
	.st261{fill:none;stroke:#000000;stroke-width:2.5763;stroke-miterlimit:10;}
	.st262{opacity:0.12;clip-path:url(#XMLID_27_);}
	.st263{clip-path:url(#XMLID_28_);fill:#217AAB;}
	.st264{opacity:0.2;}
	.st265{opacity:0.12;clip-path:url(#XMLID_29_);fill:#FFFFFF;}
	.st266{font-family:'Montserrat-Bold';}
	.st267{font-size:4.1727px;}
	.st268{opacity:0.03;clip-path:url(#XMLID_42_);}
	.st269{opacity:0.03;clip-path:url(#XMLID_43_);fill:#010102;}
	.st270{opacity:0.04;clip-path:url(#XMLID_44_);}
	.st271{fill:#FDAF00;}
	.st272{fill:#FF7C00;}
	.st273{opacity:0.3;clip-path:url(#XMLID_45_);}
	.st274{opacity:0.3;}
	.st275{fill:none;stroke:#212121;stroke-width:0.9542;stroke-linecap:round;stroke-linejoin:round;stroke-miterlimit:10;}
	.st276{opacity:0.3;clip-path:url(#XMLID_47_);}
	.st277{fill:none;stroke:#212121;stroke-width:1.188;stroke-linecap:round;stroke-linejoin:round;stroke-miterlimit:10;}
	.st278{fill:#FF9D38;}
	.st279{fill:#C8DFFD;}
	.st280{fill:#A8CCFF;}
	.st281{fill:#D5E9FF;}
	.st282{fill:#B8D0FC;}
	.st283{fill:#0B3563;}
	.st284{fill:none;stroke:#BEDBF7;stroke-width:1.0668;stroke-miterlimit:10;}
	.st285{fill:#25468F;}
	.st286{fill:#E4EEF7;}
	.st287{fill:none;stroke:#3A65C9;stroke-width:1.0668;stroke-miterlimit:10;}
	.st288{fill:none;stroke:#3A65C9;stroke-width:1.001;stroke-miterlimit:10;}
	.st289{fill:#FF5521;}
	.st290{fill:#3A65C9;}
	.st291{fill:none;stroke:#FFCC40;stroke-width:2.1337;stroke-linecap:round;stroke-linejoin:round;stroke-miterlimit:10;}
	.st292{fill:#BEDBF7;}
	.st293{fill:none;stroke:#FFFFFF;stroke-width:1.2169;stroke-miterlimit:10;}
	.st294{fill:#10477B;}
	.st295{fill:#D44C10;}
	.st296{fill:#FF912B;}
	.st297{fill:#FC7600;}
	.st298{fill:#FFAE73;}
	.st299{fill:#FC9F38;}
	.st300{fill:#E65F00;}
	.st301{fill:#4681E1;}
	.st302{fill:#032444;}
	.st303{fill:#0D458E;}
	.st304{fill:#1E3865;}
	.st305{fill:#F48F4E;}
	.st306{fill:#254C82;}
	.st307{fill:#F9924F;}
	.st308{opacity:0.5;}
	.st309{fill:#499936;}
	.st310{fill:url(#SVGID_59_);}
	.st311{opacity:0.08;fill:#FFFFFF;}
	.st312{opacity:0.31;fill:#323197;}
	.st313{fill:#F5F5F7;}
	.st314{fill:#A1C2FF;}
	.st315{fill:#FF8D02;}
	.st316{opacity:0.08;}
	.st317{fill:none;stroke:#FFFFFF;stroke-width:2;stroke-linecap:round;stroke-linejoin:round;stroke-miterlimit:10;}
	.st318{opacity:0.44;fill:none;stroke:#FFFFFF;stroke-miterlimit:10;}
	.st319{opacity:0.4;fill:url(#SVGID_60_);}
	.st320{opacity:0.4;fill:url(#SVGID_61_);}
	.st321{fill:#010200;}
	.st322{opacity:0.4;fill:url(#SVGID_62_);}
	.st323{fill:#F74A2D;stroke:#000000;stroke-width:0.35;stroke-miterlimit:10;}
	.st324{clip-path:url(#SVGID_63_);fill:url(#SVGID_64_);}
	.st325{clip-path:url(#SVGID_63_);fill:url(#SVGID_65_);}
	.st326{clip-path:url(#SVGID_63_);fill:url(#SVGID_66_);}
	.st327{clip-path:url(#SVGID_63_);fill:url(#SVGID_67_);}
	.st328{fill:#393D43;}
	.st329{fill:#FDFDFB;}
	.st330{fill:#0086CE;}
	.st331{fill:#69B545;}
	.st332{fill:#D6347C;}
	.st333{fill:#F07F32;}
	.st334{fill:#6F519D;}
	.st335{fill-rule:evenodd;clip-rule:evenodd;fill:#51555B;}
	.st336{fill-rule:evenodd;clip-rule:evenodd;fill:#393D43;}
	.st337{fill:#003A70;}
	.st338{fill:url(#SVGID_68_);}
	.st339{fill:#003399;}
	.st340{fill-rule:evenodd;clip-rule:evenodd;fill:#003399;}
	.st341{fill:#A1A1A1;}
	.st342{fill-rule:evenodd;clip-rule:evenodd;fill:#006677;}
	.st343{fill-rule:evenodd;clip-rule:evenodd;fill:#E45300;}
	.st344{fill-rule:evenodd;clip-rule:evenodd;fill:#2156A6;}
	.st345{fill:#2156A6;}
	.st346{fill:#FB6E3B;}
	.st347{fill:#00C9BD;}
	.st348{fill-rule:evenodd;clip-rule:evenodd;fill:#00ACD8;}
	.st349{fill-rule:evenodd;clip-rule:evenodd;}
	.st350{fill-rule:evenodd;clip-rule:evenodd;fill:#0056A6;}
	.st351{fill-rule:evenodd;clip-rule:evenodd;fill:#F48120;}
	.st352{fill-rule:evenodd;clip-rule:evenodd;fill:#2E3191;}
	.st353{fill:#FBDA00;}
	.st354{fill:#1F1A17;}
	.st355{fill:#007CC2;}
	.st356{fill:#DA251C;}
	.st357{fill-rule:evenodd;clip-rule:evenodd;fill:#F0F0F0;}
	.st358{fill-rule:evenodd;clip-rule:evenodd;fill:#FECF22;}
	.st359{fill-rule:evenodd;clip-rule:evenodd;fill:#006AB4;}
	.st360{fill-rule:evenodd;clip-rule:evenodd;fill:#D61627;}
	.st361{fill-rule:evenodd;clip-rule:evenodd;fill:#E6E6E6;}
	.st362{fill:#007BC2;}
	.st363{fill:#231F20;}
	.st364{fill:#EC1C25;}
	.st365{fill:#243E92;}
	.st366{fill:#E22228;}
	.st367{fill:#FAD701;}
	.st368{fill-rule:evenodd;clip-rule:evenodd;fill:#E61F20;}
	.st369{fill-rule:evenodd;clip-rule:evenodd;fill:#004B97;}
	.st370{fill-rule:evenodd;clip-rule:evenodd;fill:#E50013;}
	.st371{fill-rule:evenodd;clip-rule:evenodd;fill:url(#SVGID_71_);}
	.st372{fill-rule:evenodd;clip-rule:evenodd;fill:url(#SVGID_72_);}
	.st373{fill-rule:evenodd;clip-rule:evenodd;fill:#412A8B;}
</style>
<g>
	<g>
		<g>
			<path class="st223" d="M151.9,104.84v0.07c0,0.11-0.09,0.19-0.19,0.19H1.95c-0.11,0-0.19-0.09-0.19-0.19v-0.07
				c0-0.11,0.08-0.19,0.19-0.19h149.76C151.82,104.65,151.9,104.73,151.9,104.84z"/>
		</g>
	</g>
	<path class="st224" d="M140.46,104.65c-0.02,0.15-0.05,0.3-0.07,0.45H12.9c-0.06-0.15-0.12-0.3-0.17-0.45
		c-1.04-2.79-1.54-5.83-1.37-9c0-0.11,0.01-0.22,0.02-0.33c4.27-39.71,39.28-35.01,64.04-67.03c24.76-32.02,47.39-17.5,47.39-17.5
		c26.47,19.21,8.11,41.41,8.54,52.09C131.74,72.78,143.53,84.88,140.46,104.65z"/>
	<g id="elements">
		<g>
			<g>
				<path class="st225" d="M135.75,82.15c0,0-0.51,1,0.3,4.32c0.81,3.32,0.2,4.67-1.21,6.73c-1.42,2.06-5.62,6.46-5.36,11.82h-8.09
					c0,0,1.46-3.59,1.87-6.98c0.4-3.39,2.49-5.41,5.65-7.03C132.06,89.39,133.07,83.22,135.75,82.15z"/>
				<path class="st226" d="M135.75,82.15c0,0-1.87,1.61-2.13,4.32c-0.25,2.71-0.66,4.79-3.04,7.11c-2.38,2.33-5.21,5.82-5.21,11.44"
					/>
				<path class="st227" d="M130.52,89.64c-0.48,0.58-1,1.06-1.61,1.37c-3.16,1.62-5.24,3.64-5.65,7.03
					c-0.4,3.39-1.87,6.98-1.87,6.98h8.09c-0.13-2.81,0.96-5.36,2.24-7.45C131.21,94.83,130.62,91.83,130.52,89.64z"/>
			</g>
			<g>
				<path class="st225" d="M135.75,57.44c0,0-0.61,1.06,0,3.8c0.61,2.73,0.98,6.15-0.27,7.67c-1.25,1.52-3.15,3.34-3.83,6.53
					c-0.68,3.19,0.91,5.46-0.76,8.2c-1.67,2.73-3.26,3.15-3.57,6.81c-0.3,3.66,2.5,7.15-4.17,14.59h-15.17c0,0,4.77-8.96,6.13-13.66
					s0.23-6.91,2.35-10.13c2.13-3.23,5.09-2.24,6.38-5.24c1.29-3,1.29-5.58,3.11-7.47c1.82-1.9,4.78-2.66,5.95-5.57
					C133.05,60.13,134.77,57.89,135.75,57.44z"/>
				<path class="st226" d="M135.75,57.44c-2.33,2.55-2.43,5.74-2.58,8.07c-0.15,2.33-3.64,3.09-4.86,6.2
					c-1.21,3.11-1.06,6.01-2.5,8.66c-1.44,2.65-3.72,2.95-5.31,6.6c-1.59,3.64,0.83,11.99-4.86,18.06"/>
			</g>
		</g>
		<g>
			<g>
				<path class="st225" d="M27.99,88.54c0,0,0.36,0.72-0.22,3.09c-0.58,2.37-0.14,3.34,0.87,4.8c1.01,1.47,4.01,4.61,3.83,8.45h5.78
					c0,0-1.05-2.57-1.33-4.99c-0.29-2.42-1.78-3.87-4.03-5.02C30.63,93.71,29.9,89.3,27.99,88.54z"/>
				<path class="st226" d="M27.99,88.54c0,0,1.34,1.15,1.52,3.09c0.18,1.94,0.47,3.42,2.17,5.08c1.7,1.66,3.72,4.16,3.72,8.17"/>
				<path class="st227" d="M31.73,93.88c0.34,0.41,0.72,0.76,1.15,0.98c2.25,1.16,3.75,2.6,4.03,5.02c0.29,2.42,1.33,4.99,1.33,4.99
					h-5.78c0.09-2.01-0.69-3.83-1.6-5.32C31.23,97.59,31.65,95.45,31.73,93.88z"/>
			</g>
			<g>
				<path class="st225" d="M27.99,70.88c0,0,0.43,0.76,0,2.71c-0.43,1.95-0.7,4.39,0.19,5.48c0.89,1.08,2.25,2.39,2.73,4.66
					c0.49,2.28-0.65,3.9,0.54,5.86c1.19,1.95,2.33,2.25,2.55,4.87c0.22,2.62-1.79,5.11,2.98,10.42h10.83c0,0-3.41-6.4-4.38-9.76
					c-0.98-3.36-0.16-4.93-1.68-7.24c-1.52-2.3-3.63-1.6-4.55-3.74c-0.92-2.14-0.92-3.98-2.22-5.34c-1.3-1.36-3.42-1.9-4.25-3.98
					C29.92,72.81,28.69,71.21,27.99,70.88z"/>
				<path class="st226" d="M27.99,70.88c1.66,1.82,1.73,4.1,1.84,5.77c0.11,1.66,2.6,2.2,3.47,4.43c0.87,2.22,0.76,4.29,1.79,6.19
					c1.03,1.89,2.66,2.11,3.8,4.71c1.14,2.6-0.6,8.57,3.47,12.9"/>
			</g>
		</g>
		<path class="st228" d="M20.39,38.01H3.68c-0.93,0-1.69,0.76-1.69,1.69v11.83c0,0.93,0.76,1.69,1.69,1.69h11.46l2.82,1.85
			c0.66,0.43,1.55-0.01,1.59-0.81l0.05-1.04h0.79c0.93,0,1.69-0.76,1.69-1.69V39.7C22.08,38.77,21.32,38.01,20.39,38.01z"/>
		<g>
			<g>
				<path class="st229" d="M62.69,7.19l7.93,22.22c0.19,0.54,0.06,1.15-0.35,1.55l-4.04,4.05L62.69,7.19z"/>
				<g>
					<path class="st229" d="M37.94,10.87L37.94,10.87c0.86-1.05,2.04-1.72,3.33-1.88l18.58-2.35c1.02-0.13,2,0.51,2.37,1.55l0,0
						L37.94,10.87z"/>
					<g>
						<defs>
							<path id="XMLID_35_" d="M65.29,35.23l-23.61,2.62c-1.53,0.17-2.89-0.99-2.95-2.53l-1.07-24.31
								c-0.02-0.51,0.35-0.95,0.86-1.02l23.34-2.93c0.51-0.06,0.99,0.28,1.08,0.79l4.68,24.22C67.91,33.6,66.84,35.06,65.29,35.23z"
								/>
						</defs>
						<use xlink:href="#XMLID_35_"  style="overflow:visible;fill:#B5CCFB;"/>
						<clipPath id="XMLID_3_">
							<use xlink:href="#XMLID_35_"  style="overflow:visible;"/>
						</clipPath>
						
							<rect x="28.96" y="18.17" transform="matrix(0.9943 -0.1069 0.1069 0.9943 -1.6926 5.4223)" class="st230" width="41.49" height="0.65"/>
						
							<rect x="30.8" y="16.13" transform="matrix(0.9943 -0.1069 0.1069 0.9943 -1.4641 5.6071)" class="st230" width="41.49" height="0.65"/>
						<g class="st231">
							<defs>
								<path id="XMLID_34_" d="M64.18,7.13c1.6-0.44-3.63-2-4.82-1.85l-0.08,0.01c-0.55,0.07-0.92,0.59-0.8,1.13l0.29,1.29
									C61.92,21.99,52,35.85,37.46,37.46h0c-0.47,0.05-0.83,0.45-0.83,0.92l0,0c-0.01,1.39,1.2,2.47,2.58,2.32l26.84-2.98
									c1.37-0.15,2.31-1.46,2.01-2.81L64.18,7.13z"/>
							</defs>
							<use xlink:href="#XMLID_34_"  style="overflow:visible;opacity:0.4;fill:#79AFFF;"/>
							<clipPath id="XMLID_5_">
								<use xlink:href="#XMLID_34_"  style="overflow:visible;opacity:0.4;"/>
							</clipPath>
						</g>
					</g>
					<path class="st232" d="M45.18,13.8c-0.99-6.41-1.96-12.21,4.09-12.95c5.77-0.7,7,4.59,7.62,11.59"/>
					<g>
						<path class="st233" d="M46.1,14.54c0.05,0.46-0.28,0.87-0.74,0.92c-0.46,0.05-0.87-0.28-0.92-0.74
							c-0.05-0.46,0.28-0.87,0.74-0.92C45.64,13.75,46.05,14.08,46.1,14.54z"/>
					</g>
					<g>
						<path class="st233" d="M57.81,13.18c0.05,0.46-0.28,0.87-0.74,0.92c-0.46,0.05-0.87-0.28-0.92-0.74
							c-0.05-0.46,0.28-0.87,0.74-0.92C57.34,12.39,57.76,12.72,57.81,13.18z"/>
					</g>
				</g>
			</g>
			<g>
				<defs>
					<path id="XMLID_25_" d="M85.98,14.98l22.1-11.06c2.3-1.15,5.13-0.21,6.28,2.09l5.92,11.82c1.15,2.3,0.21,5.13-2.09,6.28
						l-22.1,11.06c-2.3,1.15-5.13,0.21-6.28-2.09l-5.92-11.82C82.74,18.96,83.68,16.13,85.98,14.98z"/>
				</defs>
				<use xlink:href="#XMLID_25_"  style="overflow:visible;fill:#6B98F6;"/>
				<clipPath id="XMLID_6_">
					<use xlink:href="#XMLID_25_"  style="overflow:visible;"/>
				</clipPath>
				<polygon class="st234" points="81.2,24.58 119.44,6.63 114.5,0.65 78.6,16 				"/>
				<g class="st235">
					<text transform="matrix(0.8893 -0.4574 0.4574 0.8893 92.6675 24.747)" class="st66 st236 st237">XXXX XXXX XXXX XXX</text>
				</g>
				<g class="st235">
					<text transform="matrix(0.8644 -0.5029 0.5029 0.8644 112.6258 20.4879)" class="st66 st236 st238">VALID</text>
				</g>
				<g class="st235">
					<text transform="matrix(0.8644 -0.5029 0.5029 0.8644 111.4154 23.341)" class="st66 st236 st239">XX-XX</text>
				</g>
				<circle class="st240" cx="104.66" cy="9.93" r="1.61"/>
				<circle class="st241" cx="106.61" cy="8.86" r="1.61"/>
			</g>
			<g>
				<g>
					<defs>
						<path id="XMLID_16_" d="M69.88,10.16c-0.26,2.36-2.32,4.04-4.6,3.74c-2.28-0.29-3.92-2.44-3.66-4.8
							c0.26-2.36,2.32-4.04,4.6-3.74c1.14,0.15,2.12,0.76,2.78,1.63C69.67,7.85,70.01,8.98,69.88,10.16z"/>
					</defs>
					<use xlink:href="#XMLID_16_"  style="overflow:visible;fill:#FDAF00;"/>
					<clipPath id="XMLID_7_">
						<use xlink:href="#XMLID_16_"  style="overflow:visible;"/>
					</clipPath>
				</g>
				<g>
					<defs>
						<path id="XMLID_15_" d="M69.08,10.15c-0.26,1.9-1.96,3.21-3.8,2.92c-1.84-0.29-3.12-2.06-2.86-3.97
							c0.26-1.9,1.96-3.21,3.8-2.92c0.92,0.14,1.7,0.66,2.22,1.38C68.96,8.28,69.21,9.2,69.08,10.15z"/>
					</defs>
					<use xlink:href="#XMLID_15_"  style="overflow:visible;fill:#FFCA4B;"/>
					<clipPath id="XMLID_9_">
						<use xlink:href="#XMLID_15_"  style="overflow:visible;"/>
					</clipPath>
					<path class="st242" d="M69.27,10.24c0.14-0.99-0.11-1.94-0.61-2.71c0.22,0.59,0.3,1.25,0.21,1.92
						c-0.29,2.11-2.17,3.55-4.21,3.24c-1.08-0.17-1.98-0.8-2.55-1.68c0.47,1.27,1.57,2.25,2.96,2.47
						C67.1,13.79,68.98,12.34,69.27,10.24z"/>
					<path class="st243" d="M62.08,10.8c0.28,0.96,0.88,1.73,1.65,2.21c-0.44-0.45-0.78-1.01-0.96-1.66
						c-0.59-2.05,0.53-4.18,2.5-4.78c1.05-0.31,2.12-0.13,2.99,0.42c-0.94-0.96-2.33-1.38-3.67-0.97
						C62.61,6.62,61.49,8.75,62.08,10.8z"/>
				</g>
				<g>
					<text transform="matrix(0.9401 0.2342 -0.225 0.9744 64.5113 10.6946)" class="st66 st236 st244">$</text>
				</g>
			</g>
			<g>
				<path class="st245" d="M94.95,11.23c0.42-0.33,1.53-0.08,2.22,0.85c0.7,0.93,0.95,1.97,0.28,2.47"/>
				<g>
					<defs>
						<path id="XMLID_4_" d="M96.51,31.33h-22c-0.36,0-0.65-0.29-0.65-0.65V11.88c0-0.36,0.29-0.65,0.65-0.65h22
							c0.36,0,0.65,0.29,0.65,0.65v18.81C97.16,31.04,96.86,31.33,96.51,31.33z"/>
					</defs>
					<use xlink:href="#XMLID_4_"  style="overflow:visible;fill:#FF7B35;"/>
					<clipPath id="XMLID_14_">
						<use xlink:href="#XMLID_4_"  style="overflow:visible;"/>
					</clipPath>
				</g>
				<rect x="85.21" y="16.32" class="st4" width="0.59" height="17.07"/>
				<rect x="82.25" y="11.23" class="st4" width="6.51" height="9.02"/>
				<path class="st4" d="M100.49,15c-0.04-0.12-0.11-0.23-0.21-0.3l-1.95-1.47c-0.15-0.11-0.34-0.15-0.52-0.09l-1.51,0.44
					c-0.19,0.05-0.33,0.2-0.39,0.38l-0.76,2.34c-0.04,0.11-0.04,0.23-0.01,0.34l1.42,4.89c0.09,0.31,0.42,0.49,0.73,0.4l4.27-1.24
					c0.31-0.09,0.49-0.42,0.4-0.73L100.49,15z M97.56,14.91c-0.26,0.08-0.53-0.07-0.6-0.33c-0.08-0.26,0.07-0.53,0.33-0.6
					c0.26-0.08,0.53,0.07,0.6,0.33C97.97,14.56,97.82,14.83,97.56,14.91z"/>
				<g>
					<path class="st246" d="M97.61,14.75c-0.25,0.19-0.62,0.29-0.93,0.22c-0.32-0.06-0.58-0.21-0.8-0.38
						c-0.45-0.34-0.78-0.79-1.08-1.21c-0.15-0.21-0.31-0.44-0.43-0.69c-0.12-0.25-0.23-0.56-0.16-0.91
						c0.09-0.35,0.29-0.58,0.58-0.77c0.14-0.07,0.27-0.15,0.47-0.14c0.15,0.06,0.28,0.05,0.41,0.08c0.09,0.01,0.15,0.1,0.14,0.19
						c-0.01,0.08-0.09,0.14-0.17,0.14c-0.12,0-0.25-0.01-0.36,0.06c-0.05,0.02-0.17,0.05-0.26,0.1c-0.14,0.09-0.31,0.28-0.33,0.44
						c-0.07,0.34,0.23,0.8,0.52,1.2c0.3,0.42,0.6,0.8,0.98,1.09c0.37,0.29,0.8,0.42,1.11,0.18c0.11-0.08,0.27-0.06,0.35,0.04
						C97.74,14.51,97.72,14.66,97.61,14.75L97.61,14.75L97.61,14.75z"/>
				</g>
			</g>
			<g>
				<g>
					<defs>
						<path id="XMLID_22_" d="M75.72,17.68c0.72,2.26-0.49,4.63-2.69,5.29c-2.2,0.66-4.57-0.65-5.29-2.91
							c-0.72-2.26,0.49-4.63,2.69-5.29c1.1-0.33,2.25-0.17,3.2,0.36C74.59,15.65,75.36,16.55,75.72,17.68z"/>
					</defs>
					<use xlink:href="#XMLID_22_"  style="overflow:visible;fill:#FDAF00;"/>
					<clipPath id="XMLID_18_">
						<use xlink:href="#XMLID_22_"  style="overflow:visible;"/>
					</clipPath>
				</g>
				<g>
					<defs>
						<path id="XMLID_17_" d="M74.99,17.99c0.53,1.85-0.49,3.73-2.29,4.21c-1.8,0.48-3.69-0.62-4.22-2.47
							c-0.53-1.85,0.49-3.73,2.29-4.22c0.9-0.24,1.82-0.09,2.59,0.36C74.12,16.33,74.72,17.07,74.99,17.99z"/>
					</defs>
					<use xlink:href="#XMLID_17_"  style="overflow:visible;fill:#FFCA4B;"/>
					<clipPath id="XMLID_19_">
						<use xlink:href="#XMLID_17_"  style="overflow:visible;"/>
					</clipPath>
					<path class="st247" d="M75.2,17.99c-0.28-0.96-0.89-1.73-1.66-2.23c0.44,0.45,0.78,1.02,0.97,1.67
						c0.59,2.04-0.55,4.13-2.54,4.66c-1.06,0.28-2.14,0.07-3.01-0.5c0.94,0.97,2.35,1.43,3.7,1.06
						C74.65,22.12,75.79,20.03,75.2,17.99z"/>
					<path class="st248" d="M68.85,21.42c0.64,0.77,1.51,1.22,2.4,1.35c-0.58-0.23-1.12-0.61-1.55-1.13
						c-1.37-1.63-1.21-4.04,0.35-5.38c0.83-0.71,1.89-0.97,2.9-0.82c-1.24-0.5-2.69-0.32-3.75,0.6
						C67.64,17.38,67.48,19.79,68.85,21.42z"/>
				</g>
				<g>
					<text transform="matrix(0.9286 -0.2767 0.3021 0.9533 70.8368 20.5259)" class="st66 st236 st244">$</text>
				</g>
			</g>
			<g>
				<text transform="matrix(0.9283 -0.2766 0.3019 0.9533 96.1488 17.6521)" class="st66 st236 st249">SALE</text>
			</g>
			<g>
				<g>
					<defs>
						<path id="XMLID_10_" d="M66.16,86.92c0,0,0.73,9.21-2.55,14.34c-0.9,1.4,0.09,3.24,1.76,3.24l24.58-1.17
							c1.74,0,3.12-0.35,2.08-1.74c-2.23-2.98-3.17-9.95-2.64-15.04L66.16,86.92z"/>
					</defs>
					<use xlink:href="#XMLID_10_"  style="overflow:visible;fill:#B8D0E5;"/>
					<clipPath id="XMLID_20_">
						<use xlink:href="#XMLID_10_"  style="overflow:visible;"/>
					</clipPath>
					<rect x="65.13" y="88.58" class="st250" width="29.86" height="4.72"/>
				</g>
				<g>
					<defs>
						<path id="XMLID_8_" d="M118.94,91.61H36.72c-2.58,0-4.68-2.11-4.68-4.68V30.95c0-2.58,2.11-4.68,4.68-4.68h82.22
							c2.58,0,4.68,2.11,4.68,4.68v55.97C123.62,89.5,121.51,91.61,118.94,91.61z"/>
					</defs>
					<use xlink:href="#XMLID_8_"  style="overflow:visible;fill:#B8D0E5;"/>
					<clipPath id="XMLID_21_">
						<use xlink:href="#XMLID_8_"  style="overflow:visible;"/>
					</clipPath>
					<rect x="26.18" y="9.78" class="st251" width="102.62" height="70.47"/>
				</g>
				<rect x="37.11" y="30.56" class="st252" width="81.94" height="45.65"/>
				<g>
					<g>
						<g>
							<path class="st253" d="M50.72,48.11h-9.18c-0.45,0-0.81-0.36-0.81-0.81v-9.18c0-0.45,0.36-0.81,0.81-0.81h9.18
								c0.45,0,0.81,0.36,0.81,0.81v9.18C51.53,47.74,51.16,48.11,50.72,48.11z"/>
							<path class="st253" d="M50.19,49.52h-8.08c-0.12,0-0.23-0.1-0.23-0.23l0,0c0-0.12,0.1-0.23,0.23-0.23h8.08
								c0.13,0,0.23,0.1,0.23,0.23l0,0C50.42,49.42,50.32,49.52,50.19,49.52z"/>
						</g>
						<path class="st254" d="M50.08,52.29h-7.93c-0.57,0-1.04-0.47-1.04-1.04l0,0c0-0.57,0.47-1.04,1.04-1.04h7.93
							c0.57,0,1.04,0.47,1.04,1.04l0,0C51.12,51.82,50.65,52.29,50.08,52.29z"/>
					</g>
					<g>
						<circle class="st255" cx="40.85" cy="38.04" r="1.56"/>
						<text transform="matrix(1 0 0 1 40.3613 38.646)" class="st252 st236 st256">$</text>
					</g>
				</g>
				<g>
					<g>
						<g>
							<path class="st253" d="M50.72,67.68h-9.18c-0.45,0-0.81-0.36-0.81-0.81v-9.18c0-0.45,0.36-0.81,0.81-0.81h9.18
								c0.45,0,0.81,0.36,0.81,0.81v9.18C51.53,67.32,51.16,67.68,50.72,67.68z"/>
							<path class="st253" d="M50.19,69.09h-8.08c-0.12,0-0.23-0.1-0.23-0.23l0,0c0-0.12,0.1-0.23,0.23-0.23h8.08
								c0.13,0,0.23,0.1,0.23,0.23l0,0C50.42,68.99,50.32,69.09,50.19,69.09z"/>
						</g>
						<path class="st254" d="M50.08,71.86h-7.93c-0.57,0-1.04-0.47-1.04-1.04l0,0c0-0.57,0.47-1.04,1.04-1.04h7.93
							c0.57,0,1.04,0.47,1.04,1.04l0,0C51.12,71.39,50.65,71.86,50.08,71.86z"/>
					</g>
					<g>
						<circle class="st254" cx="40.85" cy="57.62" r="1.56"/>
						<text transform="matrix(1 0 0 1 40.3613 58.2208)" class="st252 st236 st256">$</text>
					</g>
				</g>
				<g>
					<g>
						<g>
							<path class="st253" d="M66.88,48.11H57.7c-0.45,0-0.81-0.36-0.81-0.81v-9.18c0-0.45,0.36-0.81,0.81-0.81h9.18
								c0.45,0,0.81,0.36,0.81,0.81v9.18C67.69,47.74,67.33,48.11,66.88,48.11z"/>
							<path class="st253" d="M66.35,49.52h-8.08c-0.12,0-0.23-0.1-0.23-0.23l0,0c0-0.12,0.1-0.23,0.23-0.23h8.08
								c0.13,0,0.23,0.1,0.23,0.23l0,0C66.58,49.42,66.48,49.52,66.35,49.52z"/>
						</g>
						<path class="st254" d="M66.24,52.29h-7.93c-0.57,0-1.04-0.47-1.04-1.04l0,0c0-0.57,0.47-1.04,1.04-1.04h7.93
							c0.57,0,1.04,0.47,1.04,1.04l0,0C67.28,51.82,66.82,52.29,66.24,52.29z"/>
					</g>
					<g>
						<circle class="st255" cx="57.01" cy="38.04" r="1.56"/>
						<text transform="matrix(1 0 0 1 56.5225 38.646)" class="st252 st236 st256">$</text>
					</g>
				</g>
				<g>
					<g>
						<g>
							<path class="st253" d="M66.88,67.68H57.7c-0.45,0-0.81-0.36-0.81-0.81v-9.18c0-0.45,0.36-0.81,0.81-0.81h9.18
								c0.45,0,0.81,0.36,0.81,0.81v9.18C67.69,67.32,67.33,67.68,66.88,67.68z"/>
							<path class="st253" d="M66.35,69.09h-8.08c-0.12,0-0.23-0.1-0.23-0.23l0,0c0-0.12,0.1-0.23,0.23-0.23h8.08
								c0.13,0,0.23,0.1,0.23,0.23l0,0C66.58,68.99,66.48,69.09,66.35,69.09z"/>
						</g>
						<path class="st254" d="M66.24,71.86h-7.93c-0.57,0-1.04-0.47-1.04-1.04l0,0c0-0.57,0.47-1.04,1.04-1.04h7.93
							c0.57,0,1.04,0.47,1.04,1.04l0,0C67.28,71.39,66.82,71.86,66.24,71.86z"/>
					</g>
					<g>
						<circle class="st254" cx="57.01" cy="57.62" r="1.56"/>
						<text transform="matrix(1 0 0 1 56.5225 58.2208)" class="st252 st236 st256">$</text>
					</g>
				</g>
				<g>
					<g>
						<g>
							<path class="st253" d="M83.23,48.11h-9.18c-0.45,0-0.81-0.36-0.81-0.81v-9.18c0-0.45,0.36-0.81,0.81-0.81h9.18
								c0.45,0,0.81,0.36,0.81,0.81v9.18C84.05,47.74,83.68,48.11,83.23,48.11z"/>
							<path class="st253" d="M82.71,49.52h-8.08c-0.12,0-0.23-0.1-0.23-0.23l0,0c0-0.12,0.1-0.23,0.23-0.23h8.08
								c0.13,0,0.23,0.1,0.23,0.23l0,0C82.94,49.42,82.83,49.52,82.71,49.52z"/>
						</g>
						<path class="st254" d="M82.6,52.29h-7.93c-0.57,0-1.04-0.47-1.04-1.04l0,0c0-0.57,0.47-1.04,1.04-1.04h7.93
							c0.57,0,1.04,0.47,1.04,1.04l0,0C83.64,51.82,83.17,52.29,82.6,52.29z"/>
					</g>
					<g>
						<circle class="st255" cx="73.36" cy="38.04" r="1.56"/>
						<text transform="matrix(1 0 0 1 72.8789 38.646)" class="st252 st236 st256">$</text>
					</g>
				</g>
				<g>
					<g>
						<g>
							<path class="st253" d="M83.23,67.68h-9.18c-0.45,0-0.81-0.36-0.81-0.81v-9.18c0-0.45,0.36-0.81,0.81-0.81h9.18
								c0.45,0,0.81,0.36,0.81,0.81v9.18C84.05,67.32,83.68,67.68,83.23,67.68z"/>
							<path class="st253" d="M82.71,69.09h-8.08c-0.12,0-0.23-0.1-0.23-0.23l0,0c0-0.12,0.1-0.23,0.23-0.23h8.08
								c0.13,0,0.23,0.1,0.23,0.23l0,0C82.94,68.99,82.83,69.09,82.71,69.09z"/>
						</g>
						<path class="st254" d="M82.6,71.86h-7.93c-0.57,0-1.04-0.47-1.04-1.04l0,0c0-0.57,0.47-1.04,1.04-1.04h7.93
							c0.57,0,1.04,0.47,1.04,1.04l0,0C83.64,71.39,83.17,71.86,82.6,71.86z"/>
					</g>
					<g>
						<circle class="st254" cx="73.36" cy="57.62" r="1.56"/>
						<text transform="matrix(1 0 0 1 72.8789 58.2208)" class="st252 st236 st256">$</text>
					</g>
				</g>
				<g>
					<g>
						<g>
							<path class="st253" d="M99.39,48.11h-9.18c-0.45,0-0.81-0.36-0.81-0.81v-9.18c0-0.45,0.36-0.81,0.81-0.81h9.18
								c0.45,0,0.81,0.36,0.81,0.81v9.18C100.21,47.74,99.84,48.11,99.39,48.11z"/>
							<path class="st253" d="M98.87,49.52h-8.08c-0.12,0-0.23-0.1-0.23-0.23l0,0c0-0.12,0.1-0.23,0.23-0.23h8.08
								c0.13,0,0.23,0.1,0.23,0.23l0,0C99.1,49.42,98.99,49.52,98.87,49.52z"/>
						</g>
						<path class="st254" d="M98.76,52.29h-7.93c-0.57,0-1.04-0.47-1.04-1.04l0,0c0-0.57,0.47-1.04,1.04-1.04h7.93
							c0.57,0,1.04,0.47,1.04,1.04l0,0C99.8,51.82,99.33,52.29,98.76,52.29z"/>
					</g>
					<g>
						<circle class="st255" cx="89.53" cy="38.04" r="1.56"/>
						<text transform="matrix(1 0 0 1 89.04 38.646)" class="st252 st236 st256">$</text>
					</g>
				</g>
				<g>
					<g>
						<g>
							<path class="st253" d="M99.39,67.68h-9.18c-0.45,0-0.81-0.36-0.81-0.81v-9.18c0-0.45,0.36-0.81,0.81-0.81h9.18
								c0.45,0,0.81,0.36,0.81,0.81v9.18C100.21,67.32,99.84,67.68,99.39,67.68z"/>
							<path class="st253" d="M98.87,69.09h-8.08c-0.12,0-0.23-0.1-0.23-0.23l0,0c0-0.12,0.1-0.23,0.23-0.23h8.08
								c0.13,0,0.23,0.1,0.23,0.23l0,0C99.1,68.99,98.99,69.09,98.87,69.09z"/>
						</g>
						<path class="st254" d="M98.76,71.86h-7.93c-0.57,0-1.04-0.47-1.04-1.04l0,0c0-0.57,0.47-1.04,1.04-1.04h7.93
							c0.57,0,1.04,0.47,1.04,1.04l0,0C99.8,71.39,99.33,71.86,98.76,71.86z"/>
					</g>
					<g>
						<circle class="st254" cx="89.53" cy="57.62" r="1.56"/>
						<text transform="matrix(1 0 0 1 89.04 58.2208)" class="st252 st236 st256">$</text>
					</g>
				</g>
				<g>
					<g>
						<g>
							<path class="st253" d="M114.48,48.11h-9.18c-0.45,0-0.81-0.36-0.81-0.81v-9.18c0-0.45,0.36-0.81,0.81-0.81h9.18
								c0.45,0,0.81,0.36,0.81,0.81v9.18C115.3,47.74,114.93,48.11,114.48,48.11z"/>
							<path class="st253" d="M113.96,49.52h-8.08c-0.12,0-0.23-0.1-0.23-0.23l0,0c0-0.12,0.1-0.23,0.23-0.23h8.08
								c0.13,0,0.23,0.1,0.23,0.23l0,0C114.18,49.42,114.08,49.52,113.96,49.52z"/>
						</g>
						<path class="st254" d="M113.85,52.29h-7.93c-0.57,0-1.04-0.47-1.04-1.04l0,0c0-0.57,0.47-1.04,1.04-1.04h7.93
							c0.57,0,1.04,0.47,1.04,1.04l0,0C114.89,51.82,114.42,52.29,113.85,52.29z"/>
					</g>
					<g>
						<circle class="st255" cx="104.61" cy="38.04" r="1.56"/>
						<text transform="matrix(1 0 0 1 104.1279 38.646)" class="st252 st236 st256">$</text>
					</g>
				</g>
				<g>
					<g>
						<g>
							<path class="st253" d="M114.48,67.68h-9.18c-0.45,0-0.81-0.36-0.81-0.81v-9.18c0-0.45,0.36-0.81,0.81-0.81h9.18
								c0.45,0,0.81,0.36,0.81,0.81v9.18C115.3,67.32,114.93,67.68,114.48,67.68z"/>
							<path class="st253" d="M113.96,69.09h-8.08c-0.12,0-0.23-0.1-0.23-0.23l0,0c0-0.12,0.1-0.23,0.23-0.23h8.08
								c0.13,0,0.23,0.1,0.23,0.23l0,0C114.18,68.99,114.08,69.09,113.96,69.09z"/>
						</g>
						<path class="st254" d="M113.85,71.86h-7.93c-0.57,0-1.04-0.47-1.04-1.04l0,0c0-0.57,0.47-1.04,1.04-1.04h7.93
							c0.57,0,1.04,0.47,1.04,1.04l0,0C114.89,71.39,114.42,71.86,113.85,71.86z"/>
					</g>
					<g>
						<circle class="st254" cx="104.61" cy="57.62" r="1.56"/>
						<text transform="matrix(1 0 0 1 104.1279 58.2208)" class="st252 st236 st256">$</text>
					</g>
				</g>
				<path class="st257" d="M91.48,104.51H64.17c-0.97,0-1.76-0.79-1.76-1.76l0,0c0-0.97,0.79-1.76,1.76-1.76h27.31
					c0.97,0,1.76,0.79,1.76,1.76l0,0C93.24,103.72,92.45,104.51,91.48,104.51z"/>
				<circle class="st258" cx="77.83" cy="85.97" r="2.93"/>
				<g>
					<defs>
						<polygon id="XMLID_11_" points="37.11,30.56 24.18,43.07 127.68,43.2 119.05,30.56 						"/>
					</defs>
					<use xlink:href="#XMLID_11_"  style="overflow:visible;fill:#F2361D;"/>
					<clipPath id="XMLID_26_">
						<use xlink:href="#XMLID_11_"  style="overflow:visible;"/>
					</clipPath>
					<polygon class="st259" points="32.01,43.22 42.27,30.29 48.33,30.5 39.98,43.22 					"/>
					<polygon class="st259" points="47.89,43.22 53.9,29.87 59.89,30.29 55.85,43.22 					"/>
					<polygon class="st259" points="64.04,43.22 67.13,30.01 72.98,30.15 72.01,43.22 					"/>
					<polygon class="st259" points="87.95,43.08 84.86,29.87 79.01,30.01 79.98,43.08 					"/>
					<polygon class="st259" points="119.63,43.08 110.72,30.01 104.73,29.87 111.66,43.08 					"/>
					<polygon class="st259" points="103.75,43.08 97.74,29.73 91.75,30.15 95.79,43.08 					"/>
				</g>
				<g>
					<path class="st4" d="M32.19,43.07c0,2.21-1.79,4-4,4c-2.21,0-4-1.79-4-4H32.19z"/>
					<path class="st254" d="M40.15,43.07c0,2.21-1.79,4-4,4c-2.21,0-4-1.79-4-4H40.15z"/>
					<path class="st4" d="M48.12,43.07c0,2.21-1.79,4-4,4c-2.21,0-4-1.79-4-4H48.12z"/>
					<path class="st254" d="M56.09,43.07c0,2.21-1.79,4-4,4s-4-1.79-4-4H56.09z"/>
					<path class="st4" d="M64.05,43.07c0,2.21-1.79,4-4,4c-2.21,0-4-1.79-4-4H64.05z"/>
					<path class="st254" d="M72.02,43.07c0,2.21-1.79,4-4,4c-2.21,0-4-1.79-4-4H72.02z"/>
					<path class="st4" d="M79.99,43.07c0,2.21-1.79,4-4,4c-2.21,0-4-1.79-4-4H79.99z"/>
					<path class="st254" d="M87.95,43.07c0,2.21-1.79,4-4,4c-2.21,0-4-1.79-4-4H87.95z"/>
					<path class="st4" d="M95.92,43.07c0,2.21-1.79,4-4,4s-4-1.79-4-4H95.92z"/>
					<path class="st254" d="M103.88,43.07c0,2.21-1.79,4-4,4c-2.21,0-4-1.79-4-4H103.88z"/>
				</g>
				<g>
					<path class="st4" d="M111.75,43.2c0,2.21-1.79,4-4,4c-2.21,0-4-1.79-4-4H111.75z"/>
					<path class="st254" d="M119.72,43.2c0,2.21-1.79,4-4,4c-2.21,0-4-1.79-4-4H119.72z"/>
					<path class="st4" d="M127.68,43.2c0,2.21-1.79,4-4,4s-4-1.79-4-4H127.68z"/>
				</g>
			</g>
		</g>
		<g>
			<circle cx="30.34" cy="101.49" r="2.63"/>
			<path class="st260" d="M32.09,101.49c0,0.97-0.78,1.75-1.75,1.75c-0.97,0-1.75-0.78-1.75-1.75c0-0.97,0.78-1.75,1.75-1.75
				C31.31,99.74,32.09,100.52,32.09,101.49z"/>
			<circle cx="49.17" cy="101.87" r="2.63"/>
			<g>
				<polygon class="st261" points="23.67,69.7 59.86,69.37 55.84,89.81 28.13,90.17 				"/>
				<g>
					<g>
						<defs>
							<path id="XMLID_24_" d="M52.82,99.19c0,0.28-0.23,0.5-0.51,0.5l-27.1-0.17l-0.04-0.46c-0.29-3.34,2.07-4.66,3.1-5.07
								c-0.64-3.1-4.55-21.88-5.77-27.37C22,64.36,20.49,62.99,18,62.58c-1.94-0.32-3.76,0.07-3.77,0.07l-0.22-0.98
								c0.08-0.02,2-0.44,4.13-0.09c2.91,0.47,4.76,2.14,5.35,4.83c1.33,5.97,5.82,27.6,5.87,27.82l0.1,0.48l-0.48,0.11
								c-0.11,0.03-2.53,0.65-2.79,3.23c-0.03,0.25,0.18,0.48,0.43,0.48l25.71,0.16C52.6,98.69,52.82,98.91,52.82,99.19L52.82,99.19
								z"/>
						</defs>
						<use xlink:href="#XMLID_24_"  style="overflow:visible;"/>
						<clipPath id="XMLID_27_">
							<use xlink:href="#XMLID_24_"  style="overflow:visible;"/>
						</clipPath>
						<g class="st262">
							<path class="st66" d="M28.57,93.81c-0.64-3.1-4.55-21.88-5.77-27.37c-0.51-2.27-2.02-3.64-4.51-4.05
								c-1.94-0.32-3.76,0.07-3.77,0.07l-0.15-0.67c-0.27,0.04-0.44,0.08-0.46,0.08l0.22,0.98c0.02,0,1.84-0.4,3.77-0.07
								c2.49,0.41,4,1.78,4.51,4.05c1.2,5.38,4.98,23.56,5.73,27.18C28.3,93.92,28.45,93.86,28.57,93.81z"/>
							<path class="st66" d="M27.3,95.87c0.73-0.63,1.52-0.84,1.58-0.86l0.48-0.11l-0.06-0.28l-0.03,0.01
								C29.2,94.64,28.1,94.93,27.3,95.87z"/>
							<path class="st66" d="M25.51,99.33l-0.04-0.46c-0.15-1.71,0.4-2.89,1.11-3.69c-0.88,0.79-1.68,2.06-1.5,4.08l0.04,0.46
								l27.6,0.17l0-0.39L25.51,99.33z"/>
						</g>
					</g>
				</g>
				<line class="st261" x1="29.76" y1="69.69" x2="32.84" y2="90.19"/>
				<line class="st261" x1="35.48" y1="69.69" x2="37.95" y2="90.04"/>
				<line class="st261" x1="53.76" y1="69.2" x2="50.35" y2="90.06"/>
				<line class="st261" x1="47.44" y1="69.69" x2="45.49" y2="90.11"/>
				<line class="st261" x1="24.67" y1="74.98" x2="58.98" y2="74.98"/>
				<line class="st261" x1="26.06" y1="81.01" x2="57.35" y2="81.14"/>
				<line class="st261" x1="41.72" y1="69.56" x2="41.72" y2="90.24"/>
				<g>
					<defs>
						<path id="XMLID_23_" d="M16.98,62.96h-4.1c-0.54,0-0.98-0.44-0.98-0.98l0,0c0-0.54,0.44-0.98,0.98-0.98h4.1
							c0.54,0,0.98,0.44,0.98,0.98l0,0C17.95,62.52,17.51,62.96,16.98,62.96z"/>
					</defs>
					<use xlink:href="#XMLID_23_"  style="overflow:visible;fill:#2380BD;"/>
					<clipPath id="XMLID_28_">
						<use xlink:href="#XMLID_23_"  style="overflow:visible;"/>
					</clipPath>
					<path class="st263" d="M17.57,62.23h-4.59c-0.6,0-1.09-0.51-1.09-1.14c0-0.05,0.01-0.11,0.02-0.16
						c-0.27,0.21-0.45,0.54-0.45,0.91c0,0.62,0.49,1.14,1.09,1.14h4.59c0.55,0,1-0.43,1.08-0.98
						C18.03,62.15,17.81,62.23,17.57,62.23z"/>
				</g>
				<path class="st264" d="M31.16,101.49c0,0.45-0.37,0.82-0.82,0.82c-0.45,0-0.82-0.37-0.82-0.82s0.37-0.82,0.82-0.82
					C30.79,100.67,31.16,101.04,31.16,101.49z"/>
				<path class="st260" d="M50.92,101.87c0,0.97-0.78,1.75-1.75,1.75c-0.97,0-1.75-0.78-1.75-1.75c0-0.97,0.78-1.75,1.75-1.75
					C50.13,100.12,50.92,100.91,50.92,101.87z"/>
			</g>
			<path class="st264" d="M49.98,101.87c0,0.45-0.37,0.82-0.82,0.82s-0.82-0.37-0.82-0.82c0-0.45,0.37-0.82,0.82-0.82
				C49.62,101.06,49.98,101.42,49.98,101.87z"/>
		</g>
		<g>
			<g>
				<defs>
					<path id="XMLID_33_" d="M2.32,36.77L2.32,36.77c0.12-1.05,1.53-1.29,1.99-0.34l0,0l0,0c0.71-0.77,2-0.14,1.82,0.89l0,0l0,0
						c1.03-0.21,1.7,1.06,0.94,1.79l0,0v0c0.96,0.44,0.75,1.85-0.29,2l0,0l0,0c0.52,0.92-0.48,1.94-1.41,1.45l0,0l0,0
						c-0.12,1.05-1.53,1.29-1.99,0.34l0,0l0,0c-0.71,0.77-2,0.14-1.82-0.89l0,0l0,0c-1.03,0.21-1.7-1.06-0.94-1.79l0,0l0,0
						c-0.96-0.44-0.75-1.85,0.29-2l0,0l0,0C0.39,37.3,1.39,36.28,2.32,36.77L2.32,36.77z"/>
				</defs>
				<use xlink:href="#XMLID_33_"  style="overflow:visible;fill:#F74A2D;"/>
				<clipPath id="XMLID_29_">
					<use xlink:href="#XMLID_33_"  style="overflow:visible;"/>
				</clipPath>
				<path class="st265" d="M7.48,39.26L7.48,39.26c0.8-0.78,0.09-2.11-1-1.89c0.18-1.02-0.98-1.66-1.75-1.1
					c1-0.07,1.6,1.17,0.84,1.91l0,0c1.01,0.46,0.8,1.96-0.31,2.12c0.55,0.97-0.51,2.05-1.49,1.53c-0.13,1.1-1.62,1.36-2.11,0.36h0
					c-0.05,0.06-0.11,0.11-0.17,0.15c0.05,0,0.1-0.01,0.15-0.02c-0.19,1.1,1.17,1.76,1.92,0.94h0c0.49,1,1.98,0.74,2.11-0.36
					c0.98,0.52,2.04-0.56,1.49-1.53C8.27,41.22,8.49,39.73,7.48,39.26z"/>
			</g>
			<g>
				<text transform="matrix(0.9524 -0.1779 0.2006 0.9797 2.2981 41.5745)" class="st66 st266 st267">%</text>
			</g>
		</g>
		<g>
			<g>
				<g>
					<defs>
						<path id="XMLID_36_" d="M7.68,51.57c-0.13,0-0.26-0.04-0.37-0.14c-0.25-0.21-0.28-0.58-0.08-0.82l3.22-3.87
							c0.21-0.25,0.58-0.28,0.82-0.08c0.25,0.21,0.28,0.58,0.08,0.82l-3.22,3.87C8.01,51.5,7.85,51.57,7.68,51.57z"/>
					</defs>
					<use xlink:href="#XMLID_36_"  style="overflow:visible;fill:#FFFFFF;"/>
					<clipPath id="XMLID_42_">
						<use xlink:href="#XMLID_36_"  style="overflow:visible;"/>
					</clipPath>
					<path id="XMLID_37_" class="st268" d="M12.65,48.47c-2.04,0-3.71-1.66-3.71-3.71s1.66-3.71,3.71-3.71s3.71,1.66,3.71,3.71
						S14.69,48.47,12.65,48.47z M12.65,42.23c-1.4,0-2.54,1.14-2.54,2.54s1.14,2.54,2.54,2.54s2.54-1.14,2.54-2.54
						S14.05,42.23,12.65,42.23z"/>
				</g>
			</g>
			<g>
				<defs>
					<path id="XMLID_13_" d="M10.16,49.7l-1.49,1.7c-0.38,0.44-1.05,0.48-1.49,0.1l0,0c-0.44-0.38-0.48-1.05-0.1-1.49l1.49-1.7
						L10.16,49.7z"/>
				</defs>
				<use xlink:href="#XMLID_13_"  style="overflow:visible;fill:#FFFFFF;"/>
				<clipPath id="XMLID_43_">
					<use xlink:href="#XMLID_13_"  style="overflow:visible;"/>
				</clipPath>
				<path class="st269" d="M10.03,49.25L8.5,50.99c-0.45,0.51-1.23,0.56-1.74,0.12c-0.09-0.08-0.15-0.16-0.21-0.25
					c0.02,0.32,0.16,0.63,0.42,0.86c0.51,0.45,1.29,0.4,1.74-0.12l1.74-1.99L10.03,49.25z"/>
			</g>
			<g>
				<g>
					<defs>
						<path id="XMLID_12_" d="M12.82,48.25c-2.04,0-3.71-1.66-3.71-3.71s1.66-3.71,3.71-3.71c2.04,0,3.71,1.66,3.71,3.71
							S14.86,48.25,12.82,48.25z M12.82,42.01c-1.4,0-2.54,1.14-2.54,2.54s1.14,2.54,2.54,2.54s2.54-1.14,2.54-2.54
							S14.22,42.01,12.82,42.01z"/>
					</defs>
					<use xlink:href="#XMLID_12_"  style="overflow:visible;fill:#FFFFFF;"/>
					<clipPath id="XMLID_44_">
						<use xlink:href="#XMLID_12_"  style="overflow:visible;"/>
					</clipPath>
					<g class="st270">
						<path d="M9.76,44.42c0,1.13,0.79,2.09,1.87,2.42c-0.83-0.43-1.39-1.27-1.39-2.22c0-1.4,1.2-2.54,2.68-2.54
							c0.28,0,0.55,0.04,0.81,0.12c-0.38-0.2-0.82-0.31-1.29-0.31C10.96,41.88,9.76,43.02,9.76,44.42z"/>
						<path d="M14.22,41.12c1.27,0.61,2.14,1.86,2.14,3.3c0,2.04-1.76,3.71-3.91,3.71c-0.46,0-0.89-0.08-1.3-0.21
							c0.53,0.26,1.14,0.41,1.78,0.41c2.16,0,3.91-1.66,3.91-3.71C16.84,43,15.74,41.63,14.22,41.12z"/>
					</g>
				</g>
			</g>
		</g>
		<g>
			<path class="st271" d="M107.59,88.14l3.11,13.87c0.08,0.34-0.05,0.69-0.32,0.9l-2.71,2.12L107.59,88.14z"/>
			<g>
				<path class="st272" d="M105.94,90.52l-11.87,0.06c-0.76,0-1.39-0.61-1.39-1.38v0c0-0.76,0.61-1.39,1.38-1.39l11.87-0.06
					c0.76,0,1.39,0.61,1.39,1.38l0,0C107.32,89.89,106.7,90.51,105.94,90.52z"/>
				<g>
					<defs>
						<path id="XMLID_39_" d="M107.09,105.1l-14.31-0.17c-0.93-0.01-1.65-0.81-1.58-1.73l1.15-14.61c0.02-0.31,0.28-0.55,0.59-0.55
							L107.1,88c0.31,0,0.57,0.24,0.59,0.55l1.02,14.83C108.77,104.32,108.02,105.11,107.09,105.1z"/>
					</defs>
					<use xlink:href="#XMLID_39_"  style="overflow:visible;fill:#FF7B35;"/>
					<clipPath id="XMLID_45_">
						<use xlink:href="#XMLID_39_"  style="overflow:visible;"/>
					</clipPath>
					<g class="st273">
						<defs>
							<path id="XMLID_38_" class="st274" d="M108.49,88.22c0.99-0.15-2.02-1.46-2.74-1.46l-0.05,0c-0.33,0-0.59,0.29-0.56,0.62
								l0.08,0.8c0.84,8.77-6.12,16.33-14.93,16.23h0c-0.29,0-0.53,0.21-0.56,0.49l0,0c-0.11,0.83,0.53,1.57,1.37,1.58l16.27,0.19
								c0.83,0.01,1.49-0.7,1.41-1.53L108.49,88.22z"/>
						</defs>
						<use xlink:href="#XMLID_38_"  style="overflow:visible;opacity:0.4;fill:#FFFFFF;"/>
						<clipPath id="XMLID_46_">
							<use xlink:href="#XMLID_38_"  style="overflow:visible;opacity:0.4;"/>
						</clipPath>
					</g>
				</g>
				<path class="st275" d="M96.64,90.81c-0.12-3.91-0.27-7.45,3.4-7.44c3.5,0,3.85,3.26,3.7,7.49"/>
				<g>
					<path class="st272" d="M97.13,91.32c0,0.28-0.23,0.5-0.51,0.5c-0.28,0-0.5-0.23-0.5-0.51c0-0.28,0.23-0.5,0.51-0.5
						C96.91,90.81,97.14,91.04,97.13,91.32z"/>
				</g>
				<g>
					<path class="st272" d="M104.23,91.36c0,0.28-0.23,0.5-0.51,0.5c-0.28,0-0.5-0.23-0.5-0.51c0-0.28,0.23-0.5,0.51-0.5
						C104.01,90.86,104.24,91.09,104.23,91.36z"/>
				</g>
			</g>
		</g>
		<g>
			<path class="st4" d="M119,83.9l4.06,17.23c0.1,0.42-0.05,0.86-0.39,1.13l-3.35,2.68L119,83.9z"/>
			<g>
				<path class="st271" d="M116.97,86.89l-14.78,0.24c-0.95,0.02-1.74-0.74-1.75-1.7v0c-0.02-0.95,0.74-1.74,1.7-1.75l14.78-0.24
					c0.95-0.02,1.74,0.74,1.75,1.7l0,0C118.68,86.09,117.92,86.87,116.97,86.89z"/>
				<g>
					<defs>
						<path id="XMLID_32_" d="M118.6,105.03l-17.82-0.02c-1.16,0-2.07-0.98-1.99-2.13l1.24-18.21c0.02-0.38,0.34-0.68,0.72-0.69
							l17.64-0.23c0.39-0.01,0.71,0.29,0.74,0.68l1.46,18.45C120.68,104.03,119.77,105.03,118.6,105.03z"/>
					</defs>
					<use xlink:href="#XMLID_32_"  style="overflow:visible;fill:#F74A2D;"/>
					<clipPath id="XMLID_47_">
						<use xlink:href="#XMLID_32_"  style="overflow:visible;"/>
					</clipPath>
					<g class="st276">
						<defs>
							<path id="XMLID_31_" class="st274" d="M120.11,83.99c1.23-0.2-2.54-1.79-3.44-1.78l-0.06,0c-0.41,0-0.73,0.36-0.69,0.77
								l0.11,0.99c1.16,10.91-7.4,20.41-18.37,20.4l0,0c-0.36,0-0.65,0.27-0.7,0.62l0,0c-0.12,1.03,0.69,1.94,1.73,1.95l20.26,0.02
								c1.04,0,1.84-0.9,1.73-1.93L120.11,83.99z"/>
						</defs>
						<use xlink:href="#XMLID_31_"  style="overflow:visible;opacity:0.4;fill:#FFFFFF;"/>
						<clipPath id="XMLID_48_">
							<use xlink:href="#XMLID_31_"  style="overflow:visible;opacity:0.4;"/>
						</clipPath>
					</g>
				</g>
				<path class="st277" d="M105.39,87.37c-0.2-4.86-0.44-9.27,4.13-9.31c4.36-0.04,4.83,4.01,4.71,9.27"/>
				<g>
					<path class="st271" d="M106.02,88c0,0.35-0.28,0.63-0.63,0.63c-0.35,0-0.63-0.28-0.63-0.63c0-0.35,0.28-0.63,0.63-0.63
						C105.74,87.37,106.02,87.65,106.02,88z"/>
				</g>
				<g>
					<path class="st271" d="M114.86,87.96c0,0.35-0.28,0.63-0.63,0.63c-0.35,0-0.63-0.28-0.63-0.63c0-0.35,0.28-0.63,0.63-0.63
						C114.58,87.34,114.86,87.62,114.86,87.96z"/>
				</g>
			</g>
		</g>
	</g>
</g>
</svg>
