<?xml version="1.0" encoding="utf-8"?>
<!-- Generator: Adobe Illustrator 24.0.0, SVG Export Plug-In . SVG Version: 6.00 Build 0)  -->
<svg version="1.1" id="Layer_1" xmlns="http://www.w3.org/2000/svg" xmlns:xlink="http://www.w3.org/1999/xlink" x="0px" y="0px"
	 viewBox="0 0 52.89 52.89" style="enable-background:new 0 0 52.89 52.89;" xml:space="preserve">
<style type="text/css">
	.st0{fill:#6C727C;}
	.st1{fill:#FC5E31;}
	.st2{fill:#8CC63F;}
	.st3{fill:#F3F4F5;}
	.st4{fill:#F74A2D;}
	.st5{fill:#153663;}
	.st6{fill:#153765;}
	.st7{fill:#153867;}
	.st8{fill:#153969;}
	.st9{fill:#15396B;}
	.st10{fill:#153A6D;}
	.st11{fill:#153B6F;}
	.st12{fill:#153C71;}
	.st13{fill:#143D73;}
	.st14{fill:#143E75;}
	.st15{fill:#143E77;}
	.st16{fill:#143F79;}
	.st17{fill:#14407B;}
	.st18{fill:#14417D;}
	.st19{fill:#14427F;}
	.st20{fill:#144381;}
	.st21{fill:#144383;}
	.st22{fill:#144485;}
	.st23{fill:#144587;}
	.st24{fill:#144689;}
	.st25{fill:#14478B;}
	.st26{fill:#14488D;}
	.st27{fill:#14488F;}
	.st28{fill:#144991;}
	.st29{fill:#134A93;}
	.st30{fill:#134B95;}
	.st31{fill:#134C97;}
	.st32{fill:#134D99;}
	.st33{fill:#134D9B;}
	.st34{fill:#134E9D;}
	.st35{fill:#134F9F;}
	.st36{fill:#1350A1;}
	.st37{fill-rule:evenodd;clip-rule:evenodd;fill:#F1E7ED;}
	.st38{fill-rule:evenodd;clip-rule:evenodd;fill:#A893D0;}
	.st39{opacity:0.5;fill-rule:evenodd;clip-rule:evenodd;fill:#5D2C84;}
	.st40{fill-rule:evenodd;clip-rule:evenodd;fill:#CABDE2;}
	.st41{fill-rule:evenodd;clip-rule:evenodd;fill:#704E8D;}
	.st42{fill-rule:evenodd;clip-rule:evenodd;fill:#FBF9FB;}
	.st43{opacity:0.83;fill-rule:evenodd;clip-rule:evenodd;fill:url(#SVGID_2_);}
	.st44{opacity:0.83;fill-rule:evenodd;clip-rule:evenodd;fill:url(#SVGID_3_);}
	.st45{fill:#8D6B96;}
	.st46{opacity:0.2;fill-rule:evenodd;clip-rule:evenodd;fill:#864C90;}
	.st47{fill-rule:evenodd;clip-rule:evenodd;fill:#CECBEA;}
	.st48{fill-rule:evenodd;clip-rule:evenodd;fill:#39175A;}
	.st49{fill-rule:evenodd;clip-rule:evenodd;fill:#F83D45;}
	.st50{fill-rule:evenodd;clip-rule:evenodd;fill:#B32742;}
	.st51{fill-rule:evenodd;clip-rule:evenodd;fill:#A28BCC;}
	.st52{opacity:0.5;fill-rule:evenodd;clip-rule:evenodd;fill:#864C90;}
	.st53{fill-rule:evenodd;clip-rule:evenodd;fill:url(#SVGID_4_);}
	.st54{fill-rule:evenodd;clip-rule:evenodd;fill:url(#SVGID_6_);}
	.st55{fill:#B32742;}
	.st56{fill-rule:evenodd;clip-rule:evenodd;fill:url(#SVGID_8_);}
	.st57{fill-rule:evenodd;clip-rule:evenodd;fill:url(#SVGID_9_);}
	.st58{fill-rule:evenodd;clip-rule:evenodd;fill:#7A5AC4;}
	.st59{fill-rule:evenodd;clip-rule:evenodd;fill:#7A5AA7;}
	.st60{fill-rule:evenodd;clip-rule:evenodd;fill:#5A2967;}
	.st61{fill-rule:evenodd;clip-rule:evenodd;fill:#C4D1ED;}
	.st62{opacity:0.5;fill-rule:evenodd;clip-rule:evenodd;fill:#6D4C90;}
	.st63{fill:#7A5AA7;}
	.st64{fill:#39175A;}
	.st65{fill-rule:evenodd;clip-rule:evenodd;fill:url(#SVGID_10_);}
	.st66{fill:#FFFFFF;}
	.st67{fill-rule:evenodd;clip-rule:evenodd;fill:url(#SVGID_11_);}
	.st68{fill-rule:evenodd;clip-rule:evenodd;fill:url(#SVGID_12_);}
	.st69{fill-rule:evenodd;clip-rule:evenodd;fill:url(#SVGID_13_);}
	.st70{fill-rule:evenodd;clip-rule:evenodd;fill:url(#SVGID_14_);}
	.st71{fill-rule:evenodd;clip-rule:evenodd;fill:url(#SVGID_15_);}
	.st72{fill-rule:evenodd;clip-rule:evenodd;fill:url(#SVGID_16_);}
	.st73{fill-rule:evenodd;clip-rule:evenodd;fill:url(#SVGID_17_);}
	.st74{fill-rule:evenodd;clip-rule:evenodd;fill:url(#SVGID_18_);}
	.st75{fill-rule:evenodd;clip-rule:evenodd;fill:url(#SVGID_19_);}
	.st76{opacity:0.4;fill-rule:evenodd;clip-rule:evenodd;fill:#864C90;}
	.st77{fill-rule:evenodd;clip-rule:evenodd;fill:url(#SVGID_20_);}
	.st78{fill-rule:evenodd;clip-rule:evenodd;fill:#FFFFFF;}
	.st79{fill-rule:evenodd;clip-rule:evenodd;fill:url(#SVGID_21_);}
	.st80{opacity:0.44;fill-rule:evenodd;clip-rule:evenodd;fill:#60003B;}
	.st81{fill-rule:evenodd;clip-rule:evenodd;fill:url(#SVGID_22_);}
	.st82{fill-rule:evenodd;clip-rule:evenodd;fill:url(#SVGID_23_);}
	.st83{fill-rule:evenodd;clip-rule:evenodd;fill:url(#SVGID_24_);}
	.st84{fill-rule:evenodd;clip-rule:evenodd;fill:url(#SVGID_25_);}
	.st85{fill-rule:evenodd;clip-rule:evenodd;fill:url(#SVGID_26_);}
	.st86{fill-rule:evenodd;clip-rule:evenodd;fill:url(#SVGID_27_);}
	.st87{fill-rule:evenodd;clip-rule:evenodd;fill:url(#SVGID_28_);}
	.st88{fill-rule:evenodd;clip-rule:evenodd;fill:url(#SVGID_29_);}
	.st89{fill-rule:evenodd;clip-rule:evenodd;fill:url(#SVGID_30_);}
	.st90{fill-rule:evenodd;clip-rule:evenodd;fill:url(#SVGID_31_);}
	.st91{fill-rule:evenodd;clip-rule:evenodd;fill:url(#SVGID_32_);}
	.st92{fill-rule:evenodd;clip-rule:evenodd;fill:url(#SVGID_33_);}
	.st93{fill-rule:evenodd;clip-rule:evenodd;fill:url(#SVGID_34_);}
	.st94{fill-rule:evenodd;clip-rule:evenodd;fill:url(#SVGID_35_);}
	.st95{fill-rule:evenodd;clip-rule:evenodd;fill:url(#SVGID_36_);}
	.st96{fill-rule:evenodd;clip-rule:evenodd;fill:url(#SVGID_37_);}
	.st97{fill-rule:evenodd;clip-rule:evenodd;fill:url(#SVGID_38_);}
	.st98{fill-rule:evenodd;clip-rule:evenodd;fill:url(#SVGID_39_);}
	.st99{fill-rule:evenodd;clip-rule:evenodd;fill:url(#SVGID_40_);}
	.st100{fill-rule:evenodd;clip-rule:evenodd;fill:url(#SVGID_41_);}
	.st101{fill-rule:evenodd;clip-rule:evenodd;fill:url(#SVGID_42_);}
	.st102{fill-rule:evenodd;clip-rule:evenodd;fill:url(#SVGID_43_);}
	.st103{fill-rule:evenodd;clip-rule:evenodd;fill:url(#SVGID_44_);}
	.st104{fill:#F2E225;}
	.st105{opacity:0.4;fill:url(#SVGID_45_);}
	.st106{fill:#814BA2;}
	.st107{fill:#925CB4;}
	.st108{fill:#B289C9;}
	.st109{fill:#A274BF;}
	.st110{opacity:0.4;fill:url(#SVGID_46_);}
	.st111{fill:#813034;}
	.st112{fill:#802F34;}
	.st113{fill:#AFD2EF;}
	.st114{fill:#E54C3C;}
	.st115{fill:#57607F;}
	.st116{fill:#BF3A2C;}
	.st117{fill:#BF3A2B;}
	.st118{fill:#8796C8;}
	.st119{fill:#C88D95;}
	.st120{fill:#8696C9;}
	.st121{fill:#56607F;}
	.st122{fill:#E3E4E6;}
	.st123{fill:#D8DADE;}
	.st124{opacity:0.4;fill:url(#SVGID_47_);}
	.st125{fill:#F2582F;}
	.st126{fill:#FF7043;}
	.st127{fill:#8E2611;}
	.st128{fill:#E53935;}
	.st129{fill:#F0534A;}
	.st130{fill:#D5D5D3;}
	.st131{opacity:0.4;fill:url(#SVGID_48_);}
	.st132{fill:#F8749D;}
	.st133{fill:#403063;}
	.st134{fill:#403365;}
	.st135{fill:#403264;}
	.st136{fill:#413265;}
	.st137{fill:#E4E5E6;}
	.st138{fill:#E2E2E4;}
	.st139{fill:#DEDEE2;}
	.st140{fill:#3D2E61;}
	.st141{fill:#FDF7F9;}
	.st142{fill:#FDD6E4;}
	.st143{opacity:0.4;fill:url(#SVGID_49_);}
	.st144{fill:#C20047;}
	.st145{fill:#FE405C;}
	.st146{fill:#B1D3EF;}
	.st147{fill:#E0F1FD;}
	.st148{opacity:0.4;fill:url(#SVGID_50_);}
	.st149{opacity:0.4;fill:url(#SVGID_51_);}
	.st150{opacity:0.4;fill:url(#SVGID_52_);}
	.st151{opacity:0.4;fill:url(#SVGID_53_);}
	.st152{opacity:0.4;fill:url(#SVGID_54_);}
	.st153{opacity:0.4;fill:url(#SVGID_55_);}
	.st154{opacity:0.4;fill:url(#SVGID_56_);}
	.st155{fill:#FF5F85;}
	.st156{fill:#FFE878;}
	.st157{fill:#B2527E;}
	.st158{fill:#004FAB;}
	.st159{fill:#57A3FE;}
	.st160{fill:#FEFEFE;}
	.st161{fill:#37A6CD;}
	.st162{fill:#E19A4B;}
	.st163{fill:#54BBE8;}
	.st164{fill:#FBB55F;}
	.st165{fill:#E29A4C;}
	.st166{fill:#E4E8E9;}
	.st167{fill:#D1D0D0;}
	.st168{fill:#E3E7E8;}
	.st169{fill:#566369;}
	.st170{fill:#E19A4C;}
	.st171{fill:#445155;}
	.st172{fill:#E4E7E7;}
	.st173{fill:#566368;}
	.st174{fill:#6E7A7E;}
	.st175{fill:#435054;}
	.st176{fill:#5E5461;}
	.st177{fill:#6F6571;}
	.st178{fill:#5D5360;}
	.st179{fill:#4B3F4E;}
	.st180{fill:#FCCE64;}
	.st181{fill:#FEDF7E;}
	.st182{fill:#857D86;}
	.st183{fill:#3E8FC8;}
	.st184{fill:#FCB630;}
	.st185{fill:#88B237;}
	.st186{fill:#E7594A;}
	.st187{fill:#4398D0;}
	.st188{fill:#D55245;}
	.st189{fill:#80A734;}
	.st190{fill:#FEA71A;}
	.st191{fill:#FAD390;}
	.st192{fill:#F2D45C;}
	.st193{fill:#FA7B76;}
	.st194{fill:#FE5364;}
	.st195{fill:#F8E3C1;}
	.st196{fill:#2D5871;}
	.st197{fill:#FDD8A7;}
	.st198{fill:#E0EEFA;}
	.st199{fill:#F3C792;}
	.st200{fill:#CBDEEC;}
	.st201{fill:#FE4D4C;}
	.st202{fill:#F23A3A;}
	.st203{fill:#1D4859;}
	.st204{fill:#FEB025;}
	.st205{fill:#FE901D;}
	.st206{fill:#1E495A;}
	.st207{fill:#2F5972;}
	.st208{fill:#F3C892;}
	.st209{opacity:0.4;fill:url(#SVGID_57_);}
	.st210{opacity:0.4;fill:url(#SVGID_58_);}
	.st211{fill:#949AA8;}
	.st212{fill:#B3B3B3;}
	.st213{fill:#575D72;}
	.st214{fill:#A3E0F4;}
	.st215{fill:#C2EAF8;}
	.st216{fill:#28304E;}
	.st217{fill:#EC5176;}
	.st218{fill:#FECC34;}
	.st219{fill:#FE76A3;}
	.st220{fill:#E69115;}
	.st221{fill:#FF0000;}
	.st222{fill:#F4AE00;}
	.st223{opacity:0.12;fill:#1B1E23;}
	.st224{fill:#E7E8FA;}
	.st225{fill:#57A845;}
	.st226{fill:none;stroke:#283847;stroke-width:1.2169;stroke-miterlimit:10;}
	.st227{opacity:0.5;fill:#283847;}
	.st228{fill:#6B98F6;}
	.st229{fill:#79AFFF;}
	.st230{clip-path:url(#XMLID_3_);fill:#79AFFF;}
	.st231{clip-path:url(#XMLID_3_);}
	.st232{fill:none;stroke:#212121;stroke-width:1.5836;stroke-linecap:round;stroke-linejoin:round;stroke-miterlimit:10;}
	.st233{fill:#17566C;}
	.st234{clip-path:url(#XMLID_6_);fill:#79AFFF;}
	.st235{clip-path:url(#XMLID_6_);fill:#2072A9;}
	.st236{clip-path:url(#XMLID_6_);fill:#2175B8;}
	.st237{opacity:0.02;clip-path:url(#XMLID_9_);}
	.st238{opacity:0.13;clip-path:url(#XMLID_9_);fill:#FFFFFF;}
	.st239{fill:none;stroke:#212121;stroke-width:0.5;stroke-linecap:round;stroke-linejoin:round;stroke-miterlimit:10;}
	.st240{fill:#212121;}
	.st241{opacity:0.02;clip-path:url(#XMLID_19_);}
	.st242{opacity:0.13;clip-path:url(#XMLID_19_);fill:#FFFFFF;}
	.st243{clip-path:url(#XMLID_20_);fill:#B0C7D8;}
	.st244{clip-path:url(#XMLID_21_);fill:#3A4149;}
	.st245{fill:#FBFFFF;}
	.st246{fill:#EEEEEE;}
	.st247{fill:#FF7B35;}
	.st248{fill:#509DFF;}
	.st249{fill:#B0C7D8;}
	.st250{opacity:0.3;fill:#FFFFFC;}
	.st251{clip-path:url(#XMLID_26_);fill:#FC6C2B;}
	.st252{fill:#B8D0E5;}
	.st253{fill:none;stroke:#000000;stroke-width:2.5763;stroke-miterlimit:10;}
	.st254{opacity:0.12;clip-path:url(#XMLID_27_);}
	.st255{clip-path:url(#XMLID_28_);fill:#217AAB;}
	.st256{opacity:0.2;}
	.st257{opacity:0.12;clip-path:url(#XMLID_29_);fill:#FFFFFF;}
	.st258{opacity:0.03;clip-path:url(#XMLID_42_);}
	.st259{opacity:0.03;clip-path:url(#XMLID_43_);fill:#010102;}
	.st260{opacity:0.04;clip-path:url(#XMLID_44_);}
	.st261{fill:#FDAF00;}
	.st262{fill:#FF7C00;}
	.st263{opacity:0.3;clip-path:url(#XMLID_45_);}
	.st264{opacity:0.3;}
	.st265{fill:none;stroke:#212121;stroke-width:0.9542;stroke-linecap:round;stroke-linejoin:round;stroke-miterlimit:10;}
	.st266{opacity:0.3;clip-path:url(#XMLID_47_);}
	.st267{fill:none;stroke:#212121;stroke-width:1.188;stroke-linecap:round;stroke-linejoin:round;stroke-miterlimit:10;}
	.st268{fill:#FF9D38;}
	.st269{fill:#C8DFFD;}
	.st270{fill:#A8CCFF;}
	.st271{fill:#D5E9FF;}
	.st272{fill:#B8D0FC;}
	.st273{fill:#0B3563;}
	.st274{fill:none;stroke:#BEDBF7;stroke-width:1.0668;stroke-miterlimit:10;}
	.st275{fill:#25468F;}
	.st276{fill:#E4EEF7;}
	.st277{fill:none;stroke:#3A65C9;stroke-width:1.0668;stroke-miterlimit:10;}
	.st278{fill:none;stroke:#3A65C9;stroke-width:1.001;stroke-miterlimit:10;}
	.st279{fill:#FF5521;}
	.st280{fill:#3A65C9;}
	.st281{fill:none;stroke:#FFCC40;stroke-width:2.1337;stroke-linecap:round;stroke-linejoin:round;stroke-miterlimit:10;}
	.st282{fill:#BEDBF7;}
	.st283{fill:none;stroke:#FFFFFF;stroke-width:1.2169;stroke-miterlimit:10;}
	.st284{fill:#10477B;}
	.st285{fill:#D44C10;}
	.st286{fill:#FF912B;}
	.st287{fill:#FC7600;}
	.st288{fill:#FFAE73;}
	.st289{fill:#FC9F38;}
	.st290{fill:#E65F00;}
	.st291{fill:#4681E1;}
	.st292{fill:#032444;}
	.st293{fill:#0D458E;}
	.st294{fill:#1E3865;}
	.st295{fill:#F48F4E;}
	.st296{fill:#254C82;}
	.st297{fill:#F9924F;}
	.st298{opacity:0.5;}
	.st299{fill:#499936;}
	.st300{fill:url(#SVGID_59_);}
	.st301{opacity:0.08;fill:#FFFFFF;}
	.st302{opacity:0.31;fill:#323197;}
	.st303{fill:#F5F5F7;}
	.st304{fill:#A1C2FF;}
	.st305{fill:#FF8D02;}
	.st306{opacity:0.08;}
	.st307{fill:none;stroke:#FFFFFF;stroke-width:2;stroke-linecap:round;stroke-linejoin:round;stroke-miterlimit:10;}
	.st308{opacity:0.44;fill:none;stroke:#FFFFFF;stroke-miterlimit:10;}
	.st309{opacity:0.4;fill:url(#SVGID_60_);}
	.st310{opacity:0.4;fill:url(#SVGID_61_);}
	.st311{fill:#010200;}
	.st312{opacity:0.4;fill:url(#SVGID_62_);}
	.st313{fill:#F74A2D;stroke:#000000;stroke-width:0.35;stroke-miterlimit:10;}
	.st314{clip-path:url(#SVGID_63_);fill:url(#SVGID_64_);}
	.st315{clip-path:url(#SVGID_63_);fill:url(#SVGID_65_);}
	.st316{clip-path:url(#SVGID_63_);fill:url(#SVGID_66_);}
	.st317{clip-path:url(#SVGID_63_);fill:url(#SVGID_67_);}
	.st318{fill:#393D43;}
	.st319{fill:#FDFDFB;}
	.st320{fill:#0086CE;}
	.st321{fill:#69B545;}
	.st322{fill:#D6347C;}
	.st323{fill:#F07F32;}
	.st324{fill:#6F519D;}
	.st325{fill-rule:evenodd;clip-rule:evenodd;fill:#51555B;}
	.st326{fill-rule:evenodd;clip-rule:evenodd;fill:#393D43;}
	.st327{fill:#003A70;}
	.st328{fill:url(#SVGID_68_);}
	.st329{fill:#003399;}
	.st330{fill-rule:evenodd;clip-rule:evenodd;fill:#003399;}
	.st331{fill:#A1A1A1;}
	.st332{fill-rule:evenodd;clip-rule:evenodd;fill:#006677;}
	.st333{fill-rule:evenodd;clip-rule:evenodd;fill:#E45300;}
	.st334{fill-rule:evenodd;clip-rule:evenodd;fill:#2156A6;}
	.st335{fill:#2156A6;}
	.st336{fill:#FB6E3B;}
	.st337{fill:#00C9BD;}
	.st338{fill-rule:evenodd;clip-rule:evenodd;fill:#00ACD8;}
	.st339{fill-rule:evenodd;clip-rule:evenodd;}
	.st340{fill-rule:evenodd;clip-rule:evenodd;fill:#0056A6;}
	.st341{fill-rule:evenodd;clip-rule:evenodd;fill:#F48120;}
	.st342{fill-rule:evenodd;clip-rule:evenodd;fill:#2E3191;}
	.st343{fill:#FBDA00;}
	.st344{fill:#1F1A17;}
	.st345{fill:#007CC2;}
	.st346{fill:#DA251C;}
	.st347{fill-rule:evenodd;clip-rule:evenodd;fill:#F0F0F0;}
	.st348{fill-rule:evenodd;clip-rule:evenodd;fill:#FECF22;}
	.st349{fill-rule:evenodd;clip-rule:evenodd;fill:#006AB4;}
	.st350{fill-rule:evenodd;clip-rule:evenodd;fill:#D61627;}
	.st351{fill-rule:evenodd;clip-rule:evenodd;fill:#E6E6E6;}
	.st352{fill:#007BC2;}
	.st353{fill:#231F20;}
	.st354{fill:#EC1C25;}
	.st355{fill:#243E92;}
	.st356{fill:#E22228;}
	.st357{fill:#FAD701;}
	.st358{fill-rule:evenodd;clip-rule:evenodd;fill:#E61F20;}
	.st359{fill-rule:evenodd;clip-rule:evenodd;fill:#004B97;}
	.st360{fill-rule:evenodd;clip-rule:evenodd;fill:#E50013;}
	.st361{fill-rule:evenodd;clip-rule:evenodd;fill:url(#SVGID_71_);}
	.st362{fill-rule:evenodd;clip-rule:evenodd;fill:url(#SVGID_72_);}
	.st363{fill-rule:evenodd;clip-rule:evenodd;fill:#412A8B;}
</style>
<linearGradient id="SVGID_2_" gradientUnits="userSpaceOnUse" x1="-2903.686" y1="-947.0323" x2="-2850.8" y2="-947.0323" gradientTransform="matrix(0 1 -1 0 -920.5894 2903.686)">
	<stop  offset="0" style="stop-color:#F9F9F9;stop-opacity:0"/>
	<stop  offset="1" style="stop-color:#EAEAEA"/>
</linearGradient>
<circle style="opacity:0.4;fill:url(#SVGID_2_);" cx="26.44" cy="26.44" r="26.44"/>
<g>
	<path class="st183" d="M38.09,31.36c0.06,0.14,0.13,0.29,0.19,0.43c0.03,0.11,0.06,0.21,0.1,0.32c0.49,1.32,1,2.64,1.47,3.97
		c0.27,0.76,0.19,1.51-0.12,2.27c-0.1-0.09-0.17-0.16-0.24-0.23c-0.68-0.68-1.36-1.35-2.03-2.03c-0.33-0.33-0.72-0.54-1.2-0.47
		c-0.53,0.08-0.9,0.38-1.07,0.88c-0.17,0.51-0.06,0.97,0.32,1.35c0.5,0.51,0.99,1.03,1.52,1.51c0.3,0.27,0.41,0.56,0.35,0.94
		c-0.87,0.3-1.74,0.61-2.59,0.98c-0.72,0.21-1.41,0.51-2.11,0.77c-1.1,0.41-2.2,0.83-3.3,1.24c-0.09,0.03-0.2,0.04-0.26,0.13
		c-0.06,0-0.12,0-0.18,0c0.04-0.12-0.04-0.22-0.07-0.32c-0.32-0.87-0.65-1.73-0.97-2.6c-0.09-0.24-0.16-0.24-0.35-0.09
		c-1.28,1.04-3.31,0.55-3.98-0.95c-0.02-0.05-0.02-0.1-0.03-0.15c0.75-0.09,1.48-0.26,2.21-0.43c1.89-0.44,3.72-1.05,5.46-1.9
		c1.42-0.69,2.76-1.51,3.98-2.53c0.86-0.71,1.61-1.51,2.31-2.38C37.68,31.85,37.79,31.52,38.09,31.36z"/>
	<path class="st184" d="M12.89,33.81c0-0.19-0.01-0.39-0.01-0.58c0-2.68,0-5.37,0-8.05c0-0.12,0.01-0.24,0.01-0.37
		c0.01,0,0.03-0.01,0.04-0.01c1.23,0,2.45,0,3.68,0.01c0.19,0,0.22-0.06,0.17-0.23c-0.12-0.37-0.17-0.74-0.12-1.14
		c0.25-2.02,2.5-3.02,4.16-1.84c0.92,0.65,1.32,1.85,0.99,2.92c-0.03,0.1-0.2,0.28,0.1,0.28c1.26-0.01,2.51-0.01,3.77-0.01
		c0,0,0.01,0.03,0.01,0.03c-0.01,0.12-0.01,0.24-0.01,0.37c0,1.28,0,2.55,0,3.83c0,0.23-0.04,0.28-0.27,0.2
		c-0.69-0.24-1.37-0.18-2.01,0.16c-0.99,0.52-1.44,1.37-1.45,2.47c-0.89,0.32-1.75,0.7-2.66,0.97
		C17.19,33.45,15.07,33.81,12.89,33.81z"/>
	<path class="st185" d="M12.9,21.86c-0.01-0.99-0.01-1.98-0.01-2.97c0-1.16,0-2.33,0-3.49c0-1.96,1.39-3.35,3.35-3.35
		c3.04,0,6.08,0,9.12,0c0.1,0,0.2,0.01,0.3,0.02c0.01,1.3,0.01,2.6,0.02,3.9c-0.14-0.19-0.01-0.42-0.08-0.62
		c-0.06-0.02-0.1,0.02-0.13,0.05c-0.21,0.17-0.42,0.35-0.63,0.52c-1.39,1.17-2.91,2.14-4.51,2.99c-1.89,1.01-3.87,1.82-5.9,2.5
		C13.92,21.6,13.42,21.8,12.9,21.86z"/>
	<path class="st186" d="M25.68,15.98c-0.01-1.3-0.01-2.6-0.02-3.9c0.09-0.01,0.18-0.02,0.27-0.02c3.08,0,6.17,0,9.25,0
		c1.52,0,2.78,0.99,3.14,2.46c0.09,0.36,0.11,0.72,0.08,1.09c-0.06,0.05-0.13,0.1-0.18,0.16c-0.48,0.64-1.02,1.23-1.6,1.79
		c-0.79,0.76-1.64,1.43-2.54,2.04c-1.26,0.85-2.61,1.55-3.99,2.18c-1.44,0.66-2.92,1.18-4.43,1.66c0-0.77,0-1.55-0.01-2.32
		c0-0.22,0.07-0.23,0.25-0.17c0.46,0.17,0.94,0.17,1.41,0.06c1.08-0.25,1.97-1.21,2.05-2.41c0.08-1.17-0.63-2.27-1.72-2.67
		C26.98,15.71,26.33,15.75,25.68,15.98z"/>
	<path class="st187" d="M38.09,31.36c-0.31,0.16-0.41,0.49-0.61,0.74c-0.7,0.86-1.45,1.67-2.31,2.38c-1.22,1.01-2.56,1.83-3.98,2.53
		c-1.75,0.85-3.58,1.46-5.46,1.9c-0.73,0.17-1.46,0.34-2.21,0.43c-0.26-0.56-0.26-1.13-0.14-1.72c0.37-1.12,1.13-1.77,2.29-1.96
		c0.4,0.01,0.4,0.01,0.26-0.36c-0.08-0.2-0.16-0.41-0.25-0.61c-0.04-0.16-0.09-0.33-0.18-0.47c-0.31-0.84-0.61-1.69-0.93-2.52
		c-0.07-0.19-0.03-0.26,0.15-0.33c0.44-0.15,0.88-0.33,1.32-0.49c0.7-0.26,1.41-0.53,2.12-0.8c0.27,1.66,0.97,2.54,2.2,2.75
		c1.18,0.21,2.29-0.35,2.86-1.43c0.51-0.95,0.33-2.17-0.43-2.97c-0.01-0.15,0.13-0.13,0.21-0.17c0.28-0.13,0.59-0.18,0.84-0.38
		c0.15,0.02,0.28-0.05,0.41-0.09c0.65-0.24,1.3-0.48,1.94-0.74c0.19-0.07,0.27-0.07,0.35,0.15C37.04,28.58,37.57,29.97,38.09,31.36z
		"/>
	<path class="st188" d="M33.83,27.87c-0.25,0.2-0.56,0.25-0.84,0.38c-0.08,0.04-0.22,0.02-0.21,0.17c-1,0.32-1.88,0.07-2.61-0.64
		c-0.72-0.7-0.96-1.58-0.71-2.57c0.1-0.39,0.11-0.38-0.3-0.38c-1.16,0-2.33,0-3.49,0c0,0-0.01-0.03-0.01-0.03
		c0-0.45,0.01-0.89,0.01-1.34c1.5-0.48,2.99-1,4.43-1.66c1.38-0.64,2.73-1.33,3.99-2.18c0.9-0.61,1.75-1.29,2.54-2.04
		c0.58-0.56,1.12-1.15,1.6-1.79c0.05-0.06,0.12-0.11,0.18-0.16c0,1.3,0.01,2.61,0.01,3.91c0,1.66-0.01,3.32,0.01,4.98
		c0,0.26-0.07,0.32-0.32,0.32c-1.12-0.01-2.24-0.01-3.36,0c-0.09,0-0.29-0.08-0.21,0.16C34.9,26.09,34.62,27.04,33.83,27.87z"/>
	<path class="st189" d="M25.68,23.46c0,0.45-0.01,0.89-0.01,1.34c-1.26,0-2.51,0.01-3.77,0.01c-0.3,0-0.13-0.18-0.1-0.28
		c0.33-1.07-0.07-2.27-0.99-2.92c-1.66-1.18-3.91-0.17-4.16,1.84c-0.05,0.4,0,0.77,0.12,1.14c0.06,0.17,0.03,0.23-0.17,0.23
		c-1.23-0.01-2.45-0.01-3.68-0.01c-0.02-0.02-0.03-0.04-0.05-0.06c-0.01-0.96-0.04-1.92,0.01-2.88c0.53-0.07,1.02-0.27,1.52-0.43
		c2.03-0.68,4-1.49,5.9-2.5c1.6-0.85,3.12-1.82,4.51-2.99c0.21-0.18,0.42-0.35,0.63-0.52c0.04-0.03,0.07-0.07,0.13-0.05
		c0.08,0.2-0.06,0.43,0.08,0.62c0.65-0.23,1.31-0.27,1.97-0.03c1.09,0.4,1.79,1.5,1.72,2.67c-0.08,1.19-0.96,2.16-2.05,2.41
		c-0.47,0.11-0.94,0.11-1.41-0.06c-0.17-0.06-0.25-0.06-0.25,0.17C25.68,21.91,25.67,22.68,25.68,23.46z"/>
	<path class="st190" d="M25.5,34.21c0.09,0.15,0.14,0.31,0.18,0.47c0,0.32-0.01,0.65-0.01,0.97c-1.16,0.19-1.92,0.84-2.29,1.96
		c-2.4,0-4.79,0-7.19-0.01c-1.57,0-2.85-0.99-3.22-2.48c-0.11-0.43-0.13-0.86-0.07-1.3c2.18,0,4.29-0.37,6.37-0.99
		c0.91-0.27,1.77-0.65,2.66-0.97c0.04,0.19,0.07,0.38,0.11,0.57C22.42,33.89,24.02,34.77,25.5,34.21z"/>
	<path class="st185" d="M12.88,24.75c0.02,0.02,0.03,0.04,0.05,0.06c-0.01,0-0.03,0.01-0.04,0.01
		C12.89,24.79,12.89,24.77,12.88,24.75z"/>
	<path class="st183" d="M32.18,42.24l5.21-1.93c0,0,2.38-1.09,2.57-2.69s-2.27-2.91-2.27-2.91h-1.92L34.39,36l-0.69,1.77
		L32.18,42.24z"/>
</g>
</svg>
