<?xml version="1.0" encoding="utf-8"?>
<!-- Generator: Adobe Illustrator 24.0.0, SVG Export Plug-In . SVG Version: 6.00 Build 0)  -->
<svg version="1.1" id="Layer_1" xmlns="http://www.w3.org/2000/svg" xmlns:xlink="http://www.w3.org/1999/xlink" x="0px" y="0px"
	 viewBox="0 0 60.24 30.89" style="enable-background:new 0 0 60.24 30.89;" xml:space="preserve">
<style type="text/css">
	.st0{fill:#6C727C;}
	.st1{fill:#FC5E31;}
	.st2{fill:#8CC63F;}
	.st3{fill:#F3F4F5;}
	.st4{fill:#F74A2D;}
	.st5{fill:#153663;}
	.st6{fill:#153765;}
	.st7{fill:#153867;}
	.st8{fill:#153969;}
	.st9{fill:#15396B;}
	.st10{fill:#153A6D;}
	.st11{fill:#153B6F;}
	.st12{fill:#153C71;}
	.st13{fill:#143D73;}
	.st14{fill:#143E75;}
	.st15{fill:#143E77;}
	.st16{fill:#143F79;}
	.st17{fill:#14407B;}
	.st18{fill:#14417D;}
	.st19{fill:#14427F;}
	.st20{fill:#144381;}
	.st21{fill:#144383;}
	.st22{fill:#144485;}
	.st23{fill:#144587;}
	.st24{fill:#144689;}
	.st25{fill:#14478B;}
	.st26{fill:#14488D;}
	.st27{fill:#14488F;}
	.st28{fill:#144991;}
	.st29{fill:#134A93;}
	.st30{fill:#134B95;}
	.st31{fill:#134C97;}
	.st32{fill:#134D99;}
	.st33{fill:#134D9B;}
	.st34{fill:#134E9D;}
	.st35{fill:#134F9F;}
	.st36{fill:#1350A1;}
	.st37{fill-rule:evenodd;clip-rule:evenodd;fill:#F1E7ED;}
	.st38{fill-rule:evenodd;clip-rule:evenodd;fill:#A893D0;}
	.st39{opacity:0.5;fill-rule:evenodd;clip-rule:evenodd;fill:#5D2C84;}
	.st40{fill-rule:evenodd;clip-rule:evenodd;fill:#CABDE2;}
	.st41{fill-rule:evenodd;clip-rule:evenodd;fill:#704E8D;}
	.st42{fill-rule:evenodd;clip-rule:evenodd;fill:#FBF9FB;}
	.st43{opacity:0.83;fill-rule:evenodd;clip-rule:evenodd;fill:url(#SVGID_2_);}
	.st44{opacity:0.83;fill-rule:evenodd;clip-rule:evenodd;fill:url(#SVGID_3_);}
	.st45{fill:#8D6B96;}
	.st46{opacity:0.2;fill-rule:evenodd;clip-rule:evenodd;fill:#864C90;}
	.st47{fill-rule:evenodd;clip-rule:evenodd;fill:#CECBEA;}
	.st48{fill-rule:evenodd;clip-rule:evenodd;fill:#39175A;}
	.st49{fill-rule:evenodd;clip-rule:evenodd;fill:#F83D45;}
	.st50{fill-rule:evenodd;clip-rule:evenodd;fill:#B32742;}
	.st51{fill-rule:evenodd;clip-rule:evenodd;fill:#A28BCC;}
	.st52{opacity:0.5;fill-rule:evenodd;clip-rule:evenodd;fill:#864C90;}
	.st53{fill-rule:evenodd;clip-rule:evenodd;fill:url(#SVGID_4_);}
	.st54{fill-rule:evenodd;clip-rule:evenodd;fill:url(#SVGID_6_);}
	.st55{fill:#B32742;}
	.st56{fill-rule:evenodd;clip-rule:evenodd;fill:url(#SVGID_8_);}
	.st57{fill-rule:evenodd;clip-rule:evenodd;fill:url(#SVGID_9_);}
	.st58{fill-rule:evenodd;clip-rule:evenodd;fill:#7A5AC4;}
	.st59{fill-rule:evenodd;clip-rule:evenodd;fill:#7A5AA7;}
	.st60{fill-rule:evenodd;clip-rule:evenodd;fill:#5A2967;}
	.st61{fill-rule:evenodd;clip-rule:evenodd;fill:#C4D1ED;}
	.st62{opacity:0.5;fill-rule:evenodd;clip-rule:evenodd;fill:#6D4C90;}
	.st63{fill:#7A5AA7;}
	.st64{fill:#39175A;}
	.st65{fill-rule:evenodd;clip-rule:evenodd;fill:url(#SVGID_10_);}
	.st66{fill:#FFFFFF;}
	.st67{fill-rule:evenodd;clip-rule:evenodd;fill:url(#SVGID_11_);}
	.st68{fill-rule:evenodd;clip-rule:evenodd;fill:url(#SVGID_12_);}
	.st69{fill-rule:evenodd;clip-rule:evenodd;fill:url(#SVGID_13_);}
	.st70{fill-rule:evenodd;clip-rule:evenodd;fill:url(#SVGID_14_);}
	.st71{fill-rule:evenodd;clip-rule:evenodd;fill:url(#SVGID_15_);}
	.st72{fill-rule:evenodd;clip-rule:evenodd;fill:url(#SVGID_16_);}
	.st73{fill-rule:evenodd;clip-rule:evenodd;fill:url(#SVGID_17_);}
	.st74{fill-rule:evenodd;clip-rule:evenodd;fill:url(#SVGID_18_);}
	.st75{fill-rule:evenodd;clip-rule:evenodd;fill:url(#SVGID_19_);}
	.st76{opacity:0.4;fill-rule:evenodd;clip-rule:evenodd;fill:#864C90;}
	.st77{fill-rule:evenodd;clip-rule:evenodd;fill:url(#SVGID_20_);}
	.st78{fill-rule:evenodd;clip-rule:evenodd;fill:#FFFFFF;}
	.st79{fill-rule:evenodd;clip-rule:evenodd;fill:url(#SVGID_21_);}
	.st80{opacity:0.44;fill-rule:evenodd;clip-rule:evenodd;fill:#60003B;}
	.st81{fill-rule:evenodd;clip-rule:evenodd;fill:url(#SVGID_22_);}
	.st82{fill-rule:evenodd;clip-rule:evenodd;fill:url(#SVGID_23_);}
	.st83{fill-rule:evenodd;clip-rule:evenodd;fill:url(#SVGID_24_);}
	.st84{fill-rule:evenodd;clip-rule:evenodd;fill:url(#SVGID_25_);}
	.st85{fill-rule:evenodd;clip-rule:evenodd;fill:url(#SVGID_26_);}
	.st86{fill-rule:evenodd;clip-rule:evenodd;fill:url(#SVGID_27_);}
	.st87{fill-rule:evenodd;clip-rule:evenodd;fill:url(#SVGID_28_);}
	.st88{fill-rule:evenodd;clip-rule:evenodd;fill:url(#SVGID_29_);}
	.st89{fill-rule:evenodd;clip-rule:evenodd;fill:url(#SVGID_30_);}
	.st90{fill-rule:evenodd;clip-rule:evenodd;fill:url(#SVGID_31_);}
	.st91{fill-rule:evenodd;clip-rule:evenodd;fill:url(#SVGID_32_);}
	.st92{fill-rule:evenodd;clip-rule:evenodd;fill:url(#SVGID_33_);}
	.st93{fill-rule:evenodd;clip-rule:evenodd;fill:url(#SVGID_34_);}
	.st94{fill-rule:evenodd;clip-rule:evenodd;fill:url(#SVGID_35_);}
	.st95{fill-rule:evenodd;clip-rule:evenodd;fill:url(#SVGID_36_);}
	.st96{fill-rule:evenodd;clip-rule:evenodd;fill:url(#SVGID_37_);}
	.st97{fill-rule:evenodd;clip-rule:evenodd;fill:url(#SVGID_38_);}
	.st98{fill-rule:evenodd;clip-rule:evenodd;fill:url(#SVGID_39_);}
	.st99{fill-rule:evenodd;clip-rule:evenodd;fill:url(#SVGID_40_);}
	.st100{fill-rule:evenodd;clip-rule:evenodd;fill:url(#SVGID_41_);}
	.st101{fill-rule:evenodd;clip-rule:evenodd;fill:url(#SVGID_42_);}
	.st102{fill-rule:evenodd;clip-rule:evenodd;fill:url(#SVGID_43_);}
	.st103{fill-rule:evenodd;clip-rule:evenodd;fill:url(#SVGID_44_);}
	.st104{fill:#F2E225;}
	.st105{opacity:0.4;fill:url(#SVGID_45_);}
	.st106{fill:#814BA2;}
	.st107{fill:#925CB4;}
	.st108{fill:#B289C9;}
	.st109{fill:#A274BF;}
	.st110{opacity:0.4;fill:url(#SVGID_46_);}
	.st111{fill:#813034;}
	.st112{fill:#802F34;}
	.st113{fill:#AFD2EF;}
	.st114{fill:#E54C3C;}
	.st115{fill:#57607F;}
	.st116{fill:#BF3A2C;}
	.st117{fill:#BF3A2B;}
	.st118{fill:#8796C8;}
	.st119{fill:#C88D95;}
	.st120{fill:#8696C9;}
	.st121{fill:#56607F;}
	.st122{fill:#E3E4E6;}
	.st123{fill:#D8DADE;}
	.st124{opacity:0.4;fill:url(#SVGID_47_);}
	.st125{fill:#F2582F;}
	.st126{fill:#FF7043;}
	.st127{fill:#8E2611;}
	.st128{fill:#E53935;}
	.st129{fill:#F0534A;}
	.st130{fill:#D5D5D3;}
	.st131{opacity:0.4;fill:url(#SVGID_48_);}
	.st132{fill:#F8749D;}
	.st133{fill:#403063;}
	.st134{fill:#403365;}
	.st135{fill:#403264;}
	.st136{fill:#413265;}
	.st137{fill:#E4E5E6;}
	.st138{fill:#E2E2E4;}
	.st139{fill:#DEDEE2;}
	.st140{fill:#3D2E61;}
	.st141{fill:#FDF7F9;}
	.st142{fill:#FDD6E4;}
	.st143{opacity:0.4;fill:url(#SVGID_49_);}
	.st144{fill:#C20047;}
	.st145{fill:#FE405C;}
	.st146{fill:#B1D3EF;}
	.st147{fill:#E0F1FD;}
	.st148{opacity:0.4;fill:url(#SVGID_50_);}
	.st149{opacity:0.4;fill:url(#SVGID_51_);}
	.st150{opacity:0.4;fill:url(#SVGID_52_);}
	.st151{opacity:0.4;fill:url(#SVGID_53_);}
	.st152{opacity:0.4;fill:url(#SVGID_54_);}
	.st153{opacity:0.4;fill:url(#SVGID_55_);}
	.st154{opacity:0.4;fill:url(#SVGID_56_);}
	.st155{fill:#FF5F85;}
	.st156{fill:#FFE878;}
	.st157{fill:#B2527E;}
	.st158{fill:#004FAB;}
	.st159{fill:#57A3FE;}
	.st160{fill:#FEFEFE;}
	.st161{fill:#37A6CD;}
	.st162{fill:#E19A4B;}
	.st163{fill:#54BBE8;}
	.st164{fill:#FBB55F;}
	.st165{fill:#E29A4C;}
	.st166{fill:#E4E8E9;}
	.st167{fill:#D1D0D0;}
	.st168{fill:#E3E7E8;}
	.st169{fill:#566369;}
	.st170{fill:#E19A4C;}
	.st171{fill:#445155;}
	.st172{fill:#E4E7E7;}
	.st173{fill:#566368;}
	.st174{fill:#6E7A7E;}
	.st175{fill:#435054;}
	.st176{fill:#5E5461;}
	.st177{fill:#6F6571;}
	.st178{fill:#5D5360;}
	.st179{fill:#4B3F4E;}
	.st180{fill:#FCCE64;}
	.st181{fill:#FEDF7E;}
	.st182{fill:#857D86;}
	.st183{fill:#3E8FC8;}
	.st184{fill:#FCB630;}
	.st185{fill:#88B237;}
	.st186{fill:#E7594A;}
	.st187{fill:#4398D0;}
	.st188{fill:#D55245;}
	.st189{fill:#80A734;}
	.st190{fill:#FEA71A;}
	.st191{fill:#FAD390;}
	.st192{fill:#F2D45C;}
	.st193{fill:#FA7B76;}
	.st194{fill:#FE5364;}
	.st195{fill:#F8E3C1;}
	.st196{fill:#2D5871;}
	.st197{fill:#FDD8A7;}
	.st198{fill:#E0EEFA;}
	.st199{fill:#F3C792;}
	.st200{fill:#CBDEEC;}
	.st201{fill:#FE4D4C;}
	.st202{fill:#F23A3A;}
	.st203{fill:#1D4859;}
	.st204{fill:#FEB025;}
	.st205{fill:#FE901D;}
	.st206{fill:#1E495A;}
	.st207{fill:#2F5972;}
	.st208{fill:#F3C892;}
	.st209{opacity:0.4;fill:url(#SVGID_57_);}
	.st210{opacity:0.4;fill:url(#SVGID_58_);}
	.st211{fill:#949AA8;}
	.st212{fill:#B3B3B3;}
	.st213{fill:#575D72;}
	.st214{fill:#A3E0F4;}
	.st215{fill:#C2EAF8;}
	.st216{fill:#28304E;}
	.st217{fill:#EC5176;}
	.st218{fill:#FECC34;}
	.st219{fill:#FE76A3;}
	.st220{fill:#E69115;}
	.st221{fill:#FF0000;}
	.st222{fill:#F4AE00;}
	.st223{opacity:0.12;fill:#1B1E23;}
	.st224{fill:#E7E8FA;}
	.st225{fill:#57A845;}
	.st226{fill:none;stroke:#283847;stroke-width:1.2169;stroke-miterlimit:10;}
	.st227{opacity:0.5;fill:#283847;}
	.st228{fill:#6B98F6;}
	.st229{fill:#79AFFF;}
	.st230{clip-path:url(#XMLID_3_);fill:#79AFFF;}
	.st231{clip-path:url(#XMLID_3_);}
	.st232{fill:none;stroke:#212121;stroke-width:1.5836;stroke-linecap:round;stroke-linejoin:round;stroke-miterlimit:10;}
	.st233{fill:#17566C;}
	.st234{clip-path:url(#XMLID_6_);fill:#79AFFF;}
	.st235{clip-path:url(#XMLID_6_);fill:#2072A9;}
	.st236{clip-path:url(#XMLID_6_);fill:#2175B8;}
	.st237{opacity:0.02;clip-path:url(#XMLID_9_);}
	.st238{opacity:0.13;clip-path:url(#XMLID_9_);fill:#FFFFFF;}
	.st239{fill:none;stroke:#212121;stroke-width:0.5;stroke-linecap:round;stroke-linejoin:round;stroke-miterlimit:10;}
	.st240{fill:#212121;}
	.st241{opacity:0.02;clip-path:url(#XMLID_19_);}
	.st242{opacity:0.13;clip-path:url(#XMLID_19_);fill:#FFFFFF;}
	.st243{clip-path:url(#XMLID_20_);fill:#B0C7D8;}
	.st244{clip-path:url(#XMLID_21_);fill:#3A4149;}
	.st245{fill:#FBFFFF;}
	.st246{fill:#EEEEEE;}
	.st247{fill:#FF7B35;}
	.st248{fill:#509DFF;}
	.st249{fill:#B0C7D8;}
	.st250{opacity:0.3;fill:#FFFFFC;}
	.st251{clip-path:url(#XMLID_26_);fill:#FC6C2B;}
	.st252{fill:#B8D0E5;}
	.st253{fill:none;stroke:#000000;stroke-width:2.5763;stroke-miterlimit:10;}
	.st254{opacity:0.12;clip-path:url(#XMLID_27_);}
	.st255{clip-path:url(#XMLID_28_);fill:#217AAB;}
	.st256{opacity:0.2;}
	.st257{opacity:0.12;clip-path:url(#XMLID_29_);fill:#FFFFFF;}
	.st258{opacity:0.03;clip-path:url(#XMLID_42_);}
	.st259{opacity:0.03;clip-path:url(#XMLID_43_);fill:#010102;}
	.st260{opacity:0.04;clip-path:url(#XMLID_44_);}
	.st261{fill:#FDAF00;}
	.st262{fill:#FF7C00;}
	.st263{opacity:0.3;clip-path:url(#XMLID_45_);}
	.st264{opacity:0.3;}
	.st265{fill:none;stroke:#212121;stroke-width:0.9542;stroke-linecap:round;stroke-linejoin:round;stroke-miterlimit:10;}
	.st266{opacity:0.3;clip-path:url(#XMLID_47_);}
	.st267{fill:none;stroke:#212121;stroke-width:1.188;stroke-linecap:round;stroke-linejoin:round;stroke-miterlimit:10;}
	.st268{fill:#FF9D38;}
	.st269{fill:#C8DFFD;}
	.st270{fill:#A8CCFF;}
	.st271{fill:#D5E9FF;}
	.st272{fill:#B8D0FC;}
	.st273{fill:#0B3563;}
	.st274{fill:none;stroke:#BEDBF7;stroke-width:1.0668;stroke-miterlimit:10;}
	.st275{fill:#25468F;}
	.st276{fill:#E4EEF7;}
	.st277{fill:none;stroke:#3A65C9;stroke-width:1.0668;stroke-miterlimit:10;}
	.st278{fill:none;stroke:#3A65C9;stroke-width:1.001;stroke-miterlimit:10;}
	.st279{fill:#FF5521;}
	.st280{fill:#3A65C9;}
	.st281{fill:none;stroke:#FFCC40;stroke-width:2.1337;stroke-linecap:round;stroke-linejoin:round;stroke-miterlimit:10;}
	.st282{fill:#BEDBF7;}
	.st283{fill:none;stroke:#FFFFFF;stroke-width:1.2169;stroke-miterlimit:10;}
	.st284{fill:#10477B;}
	.st285{fill:#D44C10;}
	.st286{fill:#FF912B;}
	.st287{fill:#FC7600;}
	.st288{fill:#FFAE73;}
	.st289{fill:#FC9F38;}
	.st290{fill:#E65F00;}
	.st291{fill:#4681E1;}
	.st292{fill:#032444;}
	.st293{fill:#0D458E;}
	.st294{fill:#1E3865;}
	.st295{fill:#F48F4E;}
	.st296{fill:#254C82;}
	.st297{fill:#F9924F;}
	.st298{opacity:0.5;}
	.st299{fill:#499936;}
	.st300{fill:url(#SVGID_59_);}
	.st301{opacity:0.08;fill:#FFFFFF;}
	.st302{opacity:0.31;fill:#323197;}
	.st303{fill:#F5F5F7;}
	.st304{fill:#A1C2FF;}
	.st305{fill:#FF8D02;}
	.st306{opacity:0.08;}
	.st307{fill:none;stroke:#FFFFFF;stroke-width:2;stroke-linecap:round;stroke-linejoin:round;stroke-miterlimit:10;}
	.st308{opacity:0.44;fill:none;stroke:#FFFFFF;stroke-miterlimit:10;}
	.st309{opacity:0.4;fill:url(#SVGID_60_);}
	.st310{opacity:0.4;fill:url(#SVGID_61_);}
	.st311{fill:#010200;}
	.st312{opacity:0.4;fill:url(#SVGID_62_);}
	.st313{fill:#F74A2D;stroke:#000000;stroke-width:0.35;stroke-miterlimit:10;}
	.st314{clip-path:url(#SVGID_63_);fill:url(#SVGID_64_);}
	.st315{clip-path:url(#SVGID_63_);fill:url(#SVGID_65_);}
	.st316{clip-path:url(#SVGID_63_);fill:url(#SVGID_66_);}
	.st317{clip-path:url(#SVGID_63_);fill:url(#SVGID_67_);}
	.st318{fill:#393D43;}
	.st319{fill:#FDFDFB;}
	.st320{fill:#0086CE;}
	.st321{fill:#69B545;}
	.st322{fill:#D6347C;}
	.st323{fill:#F07F32;}
	.st324{fill:#6F519D;}
	.st325{fill-rule:evenodd;clip-rule:evenodd;fill:#51555B;}
	.st326{fill-rule:evenodd;clip-rule:evenodd;fill:#393D43;}
	.st327{fill:#003A70;}
	.st328{fill:url(#SVGID_68_);}
	.st329{fill:#003399;}
	.st330{fill-rule:evenodd;clip-rule:evenodd;fill:#003399;}
	.st331{fill:#A1A1A1;}
	.st332{fill-rule:evenodd;clip-rule:evenodd;fill:#006677;}
	.st333{fill-rule:evenodd;clip-rule:evenodd;fill:#E45300;}
	.st334{fill-rule:evenodd;clip-rule:evenodd;fill:#2156A6;}
	.st335{fill:#2156A6;}
	.st336{fill:#FB6E3B;}
	.st337{fill:#00C9BD;}
	.st338{fill-rule:evenodd;clip-rule:evenodd;fill:#00ACD8;}
	.st339{fill-rule:evenodd;clip-rule:evenodd;}
	.st340{fill-rule:evenodd;clip-rule:evenodd;fill:#0056A6;}
	.st341{fill-rule:evenodd;clip-rule:evenodd;fill:#F48120;}
	.st342{fill-rule:evenodd;clip-rule:evenodd;fill:#2E3191;}
	.st343{fill:#FBDA00;}
	.st344{fill:#1F1A17;}
	.st345{fill:#007CC2;}
	.st346{fill:#DA251C;}
	.st347{fill-rule:evenodd;clip-rule:evenodd;fill:#F0F0F0;}
	.st348{fill-rule:evenodd;clip-rule:evenodd;fill:#FECF22;}
	.st349{fill-rule:evenodd;clip-rule:evenodd;fill:#006AB4;}
	.st350{fill-rule:evenodd;clip-rule:evenodd;fill:#D61627;}
	.st351{fill-rule:evenodd;clip-rule:evenodd;fill:#E6E6E6;}
	.st352{fill:#007BC2;}
	.st353{fill:#231F20;}
	.st354{fill:#EC1C25;}
	.st355{fill:#243E92;}
	.st356{fill:#E22228;}
	.st357{fill:#FAD701;}
	.st358{fill-rule:evenodd;clip-rule:evenodd;fill:#E61F20;}
	.st359{fill-rule:evenodd;clip-rule:evenodd;fill:#004B97;}
	.st360{fill-rule:evenodd;clip-rule:evenodd;fill:#E50013;}
	.st361{fill-rule:evenodd;clip-rule:evenodd;fill:url(#SVGID_71_);}
	.st362{fill-rule:evenodd;clip-rule:evenodd;fill:url(#SVGID_72_);}
	.st363{fill-rule:evenodd;clip-rule:evenodd;fill:#412A8B;}
</style>
<path class="st66" d="M54.71,30.89H5.53C2.48,30.89,0,28.42,0,25.36V5.53C0,2.48,2.48,0,5.53,0h49.18c3.05,0,5.53,2.48,5.53,5.53
	v19.83C60.24,28.42,57.77,30.89,54.71,30.89z"/>
<g>
	<path class="st334" d="M10.88,13.21c0.07,0.13,0.66,0.73,0.76,0.84l0.8,0.81c0.28,0.36,0.47,0.51,0.46,1.15
		c-0.01,0.45-0.37,0.83-0.62,0.99c-0.24,0.16-0.32,0.16-0.65,0.16c-0.27,0-0.54,0-0.81,0c-0.25,0-0.44-0.12-0.56-0.25
		c-0.18-0.2-0.19-0.27-0.19-0.62c0-0.17-0.02-6.24,0-6.43c0.03-0.22,0.2-0.39,0.33-0.47c0.21-0.13,0.35-0.16,0.64-0.16
		c0.58,0,0.96-0.07,1.39,0.22c0.36,0.24,0.56,0.59,0.56,1.05c0,0.51-0.28,0.83-0.51,1.1C12.14,12.01,10.97,12.95,10.88,13.21
		L10.88,13.21z M13.74,9.22c0.18-0.01,0.86-0.02,1.01,0.01c0.49,0.1,1.03,0.5,1.03,1.05c0,0.43-0.05,0.53-0.25,0.8
		c-0.26,0.34-0.94,1-1.29,1.3c-0.15,0.12-0.78,0.72-0.77,0.82l2.4,2.46c0.27,0.28,1.38,1.34,1.44,1.49l-3.5,0
		c0.03-0.07,0.11-0.17,0.15-0.24c0.18-0.28,0.28-0.54,0.28-0.9c0.01-0.76-0.31-1.12-0.77-1.6l-1.15-1.22
		c0.21-0.25,0.07-0.12,0.36-0.41c0.25-0.26,0.61-0.53,0.81-0.75c0.12-0.13,0.25-0.27,0.36-0.43c0.23-0.36,0.37-0.7,0.32-1.25
		C14.11,9.56,13.79,9.45,13.74,9.22L13.74,9.22z M16.38,9.22c1.02-0.02,1.67-0.1,1.65,1.33l-0.03,1.38c-0.01,1.44,0.01,2.92,0,4.37
		l-3.08-3.13c0.03-0.09,0.3-0.36,0.36-0.42l0.42-0.38c0.08-0.08,0.13-0.11,0.21-0.19c0.23-0.24,0.3-0.25,0.59-0.62
		c0.32-0.41,0.37-0.61,0.37-1.24C16.89,9.63,16.47,9.46,16.38,9.22L16.38,9.22z M10.73,8.25c-0.65,0.04-1.23,0.42-1.47,1
		C9.1,9.63,9.07,9.81,9.07,10.29v3.72c0,0.82-0.02,1.67,0,2.48c0.02,0.72,0.53,1.23,1,1.48c0.35,0.18,0.61,0.18,1.05,0.18h6.2
		c0.72,0,1.23-0.53,1.47-1c0.18-0.36,0.18-0.61,0.18-1.06l0-6.2c0-0.38-0.15-0.69-0.32-0.92c-0.17-0.22-0.38-0.41-0.69-0.56
		c-0.36-0.18-0.61-0.17-1.05-0.17h-4.95C11.56,8.25,11.12,8.23,10.73,8.25L10.73,8.25z"/>
	<path class="st334" d="M29.87,15.68l1.21,0l-0.01-3.31c0.06,0.05,0.82,1.59,0.85,1.65l0.85,1.66l1.63,0l0.01-4.95
		c-0.13-0.01-1.1-0.02-1.19,0.01l-0.03,3.25c-0.04-0.04-0.89-1.78-1.01-2.03l-0.61-1.23l-1.7,0L29.87,15.68L29.87,15.68z"/>
	<path class="st334" d="M42.34,14.74l0-1.18c0.21-0.03,0.72,0.01,0.92,0.06c0.26,0.07,0.47,0.2,0.46,0.53
		c-0.01,0.31-0.19,0.46-0.45,0.53C43.07,14.74,42.55,14.76,42.34,14.74L42.34,14.74z M42.35,12.68l0-1.02
		c0.23-0.01,0.64-0.01,0.84,0.03c0.24,0.06,0.42,0.19,0.41,0.48C43.58,12.7,42.7,12.73,42.35,12.68L42.35,12.68z M41.02,15.68
		c0.18,0.02,1.56,0,1.86,0c1.01,0,2.31-0.24,2.15-1.56c-0.05-0.38-0.24-0.68-0.55-0.85c-0.15-0.08-0.23-0.06-0.37-0.1
		c-0.01-0.1,0.04-0.04,0.27-0.17c0.75-0.46,0.67-1.61-0.04-2.03c-0.47-0.28-0.94-0.23-1.55-0.23c-0.23,0-1.67-0.02-1.77,0.01
		L41.02,15.68L41.02,15.68z"/>
	<path class="st334" d="M21.77,13.6c0.15-0.03,0.75-0.01,0.9,0.03c0.27,0.06,0.45,0.2,0.45,0.5c0,0.29-0.04,0.41-0.35,0.52
		c-0.26,0.09-0.7,0.12-1,0.09v-1.01L21.77,13.6L21.77,13.6z M21.77,11.67c0.16-0.03,0.67,0,0.83,0.03c0.27,0.06,0.39,0.16,0.39,0.47
		c0,0.29-0.18,0.38-0.42,0.45c-0.16,0.05-0.63,0.09-0.8,0.05L21.77,11.67L21.77,11.67z M20.45,15.68c1.11-0.04,3.43,0.27,3.9-0.79
		c0.11-0.24,0.12-0.56,0.1-0.85c-0.04-0.45-0.44-0.82-0.88-0.87c-0.09-0.01-0.06,0.01-0.08-0.04c0.03-0.04-0.01-0.02,0.07-0.04
		c0.03-0.01,0.05-0.01,0.08-0.02c0.06-0.02,0.1-0.04,0.15-0.07c0.24-0.15,0.52-0.46,0.52-0.79c0.01-0.53,0.01-0.92-0.54-1.23
		c-0.48-0.28-0.92-0.24-1.54-0.24c-0.59,0-1.2,0.01-1.79,0L20.45,15.68L20.45,15.68z"/>
	<path class="st334" d="M46.65,11.67c0.52-0.01,1.46-0.05,1.27,0.72c-0.11,0.42-0.8,0.4-1.27,0.39l0-1L46.65,11.67L46.65,11.67z
		 M45.33,15.68l1.32,0l0-1.95c0.25-0.05,0.57,0.01,0.73,0.13c0.29,0.24,0.41,0.77,0.55,1.16c0.04,0.11,0.07,0.21,0.1,0.32
		c0.03,0.09,0.07,0.28,0.1,0.34l1.34,0c0.01-0.17-0.56-1.66-0.69-1.99c-0.15-0.39-0.32-0.32-0.42-0.49c0.41-0.05,0.84-0.5,0.88-0.92
		c0.06-0.67-0.08-1.06-0.52-1.3c-0.47-0.26-0.97-0.25-1.57-0.25c-0.6,0-1.23-0.02-1.83,0L45.33,15.68L45.33,15.68z"/>
	<path class="st334" d="M34.85,15.67l1.32,0.01l0-2.23c0.17,0.08,1.33,2,1.54,2.2c0.06,0.06,0.19,0.04,0.31,0.04
		c0.22,0,1.23,0.01,1.36,0c-0.01-0.14-0.77-1.11-0.88-1.26c-0.31-0.42-0.64-0.8-0.95-1.23c-0.12-0.17-0.11-0.16,0.02-0.33l1.2-1.52
		c0.09-0.11,0.43-0.52,0.47-0.62l-1.56,0.01c-0.07,0.01-0.37,0.45-0.43,0.52c-0.18,0.24-0.36,0.48-0.54,0.72
		c-0.07,0.09-0.5,0.69-0.55,0.71l0-1.96l-1.32,0L34.85,15.67L34.85,15.67z"/>
	<path class="st334" d="M26.99,11.76c0.05,0.04,0.39,1.27,0.43,1.42c0.04,0.13,0.12,0.37,0.14,0.49l-1.22,0l0.31-0.96
		c0.06-0.16,0.1-0.31,0.16-0.48c0.03-0.08,0.05-0.17,0.08-0.24C26.92,11.92,26.94,11.8,26.99,11.76L26.99,11.76z M24.31,15.68
		c0.32,0.01,0.82,0,1.16,0c0.16,0,0.16-0.04,0.22-0.17c0.15-0.29,0.23-0.57,0.33-0.89c0.19-0.02,1.39-0.01,1.67-0.01
		c0.13,0,0.16-0.01,0.22,0.09c0.07,0.13,0.17,0.53,0.23,0.7c0.11,0.32,0.15,0.27,0.34,0.27l1.21,0l-1.88-4.94l-1.6,0
		c-0.23,0.38-0.34,0.8-0.5,1.22c-0.31,0.76-0.63,1.71-0.94,2.49C24.67,14.67,24.32,15.47,24.31,15.68L24.31,15.68z"/>
	<polygon class="st334" points="51.18,15.68 51.18,10.73 49.86,10.73 49.86,15.68 51.18,15.68 	"/>
	<path class="st335" d="M10.15,22.01h0.28v-1.87h0.01l0.63,1.87h0.26l0.63-1.84h0.01v1.84h0.28v-2.2h-0.39l-0.53,1.53
		c-0.07,0.21-0.08,0.23-0.12,0.35H11.2c-0.02-0.06-0.03-0.11-0.1-0.33l-0.52-1.56h-0.44V22.01L10.15,22.01z M13.78,21.5
		c-0.03,0.09-0.12,0.33-0.42,0.33c-0.24,0-0.46-0.16-0.49-0.54h1.19c0.02-0.86-0.59-0.9-0.72-0.9c-0.49,0-0.75,0.36-0.75,0.84
		c0,0.49,0.27,0.82,0.76,0.82c0.39,0,0.62-0.21,0.7-0.52L13.78,21.5L13.78,21.5z M12.88,21.06c0.02-0.21,0.15-0.46,0.45-0.46
		c0.19,0,0.35,0.12,0.4,0.26c0.03,0.08,0.04,0.14,0.04,0.2H12.88L12.88,21.06z M14.39,22.01h0.27v-2.2h-0.27V22.01L14.39,22.01z
		 M15.29,20.91c0.03-0.13,0.08-0.31,0.41-0.31c0.4,0,0.39,0.23,0.39,0.4c-0.15,0.06-0.45,0.09-0.49,0.09
		c-0.18,0.02-0.63,0.07-0.63,0.5c0,0.26,0.19,0.46,0.54,0.46c0.17,0,0.36-0.04,0.59-0.23c0.01,0.04,0.01,0.11,0.06,0.2h0.28
		c-0.09-0.15-0.09-0.26-0.09-0.67v-0.36c0-0.28,0-0.6-0.62-0.6c-0.61,0-0.69,0.35-0.72,0.49L15.29,20.91L15.29,20.91z M16.09,21.31
		c0,0.13-0.01,0.26-0.12,0.37c-0.13,0.13-0.31,0.15-0.38,0.15c-0.24,0-0.32-0.14-0.32-0.25c0-0.21,0.21-0.25,0.38-0.27
		c0.14-0.02,0.34-0.06,0.45-0.1V21.31L16.09,21.31z M16.67,22.62c0.04,0.02,0.1,0.03,0.18,0.03c0.31,0,0.41-0.26,0.52-0.58
		c0.01-0.02,0.01-0.03,0.02-0.04l0.61-1.62h-0.27l-0.34,0.92c-0.05,0.12-0.08,0.24-0.11,0.37h-0.01c-0.02-0.07-0.05-0.19-0.11-0.37
		l-0.33-0.92h-0.29l0.61,1.59c0,0.01-0.02,0.04-0.02,0.06c-0.07,0.21-0.11,0.32-0.31,0.32c-0.06,0-0.11-0.01-0.15-0.02L16.67,22.62
		L16.67,22.62z M18.38,20.91c0.03-0.13,0.08-0.31,0.41-0.31c0.4,0,0.39,0.23,0.39,0.4c-0.15,0.06-0.45,0.09-0.49,0.09
		c-0.18,0.02-0.63,0.07-0.63,0.5c0,0.26,0.19,0.46,0.54,0.46c0.17,0,0.36-0.04,0.59-0.23c0.01,0.04,0.01,0.11,0.06,0.2h0.28
		c-0.09-0.15-0.09-0.26-0.09-0.67v-0.36c0-0.28,0-0.6-0.62-0.6c-0.61,0-0.69,0.35-0.72,0.49L18.38,20.91L18.38,20.91z M19.18,21.31
		c0,0.13-0.01,0.26-0.12,0.37c-0.13,0.13-0.31,0.15-0.38,0.15c-0.24,0-0.32-0.14-0.32-0.25c0-0.21,0.21-0.25,0.38-0.27
		c0.14-0.02,0.34-0.06,0.45-0.1V21.31L19.18,21.31z M19.87,22.01h0.27v-0.87c0-0.1,0-0.21,0.06-0.33c0.06-0.12,0.22-0.2,0.37-0.2
		c0.33,0,0.33,0.29,0.33,0.43v0.97h0.27v-0.98c0-0.17,0-0.28-0.07-0.41c-0.09-0.17-0.31-0.23-0.48-0.23c-0.11,0-0.34,0.02-0.5,0.26
		h-0.01v-0.22h-0.24V22.01L19.87,22.01z M21.57,22.01h0.27v-1.59h-0.27V22.01L21.57,22.01z M21.57,20.12h0.27v-0.31h-0.27V20.12
		L21.57,20.12z M23.15,22.01h0.79c0.26,0,0.53-0.05,0.71-0.22c0.19-0.18,0.32-0.48,0.32-0.89c0-0.44-0.14-0.68-0.27-0.82
		c-0.23-0.27-0.54-0.27-0.79-0.27h-0.76V22.01L23.15,22.01z M23.44,20.07h0.46c0.19,0,0.37,0,0.53,0.14
		c0.2,0.18,0.24,0.45,0.24,0.68c0,0.86-0.5,0.86-0.76,0.86h-0.47V20.07L23.44,20.07z M26.42,21.5c-0.03,0.09-0.12,0.33-0.42,0.33
		c-0.24,0-0.46-0.16-0.49-0.54h1.19c0.02-0.86-0.59-0.9-0.72-0.9c-0.49,0-0.75,0.36-0.75,0.84c0,0.49,0.27,0.82,0.76,0.82
		c0.39,0,0.62-0.21,0.7-0.52L26.42,21.5L26.42,21.5z M25.53,21.06c0.02-0.21,0.15-0.46,0.45-0.46c0.19,0,0.35,0.12,0.4,0.26
		c0.03,0.08,0.04,0.14,0.04,0.2H25.53L25.53,21.06z M27.04,22.01h0.27v-0.87c0-0.1,0-0.21,0.06-0.33c0.06-0.12,0.22-0.2,0.37-0.2
		c0.33,0,0.33,0.29,0.33,0.43v0.97h0.27v-0.98c0-0.17,0-0.28-0.07-0.41c-0.09-0.17-0.31-0.23-0.48-0.23c-0.11,0-0.34,0.02-0.5,0.26
		h-0.01v-0.22h-0.24V22.01L27.04,22.01z M28.7,22.14c-0.01,0.45,0.43,0.51,0.63,0.51c0.23,0,0.49-0.07,0.62-0.29
		c0.09-0.15,0.1-0.44,0.1-0.57v-1.38H29.8v0.19h-0.01c-0.17-0.22-0.37-0.23-0.46-0.23c-0.5,0-0.69,0.43-0.69,0.82
		c0,0.43,0.24,0.81,0.69,0.81c0.13,0,0.29-0.03,0.44-0.21c0,0.32,0,0.63-0.45,0.63c-0.32,0-0.35-0.17-0.37-0.25L28.7,22.14
		L28.7,22.14z M28.92,21.19c0-0.38,0.19-0.58,0.43-0.58c0.19,0,0.44,0.13,0.44,0.59c0,0.15-0.02,0.3-0.1,0.42
		c-0.07,0.1-0.19,0.18-0.34,0.18c-0.14,0-0.26-0.07-0.34-0.18C28.92,21.47,28.92,21.23,28.92,21.19L28.92,21.19z M30.67,20.91
		c0.03-0.13,0.08-0.31,0.41-0.31c0.4,0,0.39,0.23,0.39,0.4c-0.15,0.06-0.45,0.09-0.49,0.09c-0.17,0.02-0.63,0.07-0.63,0.5
		c0,0.26,0.19,0.46,0.54,0.46c0.17,0,0.36-0.04,0.59-0.23c0.01,0.04,0.01,0.11,0.06,0.2h0.28c-0.09-0.15-0.09-0.26-0.09-0.67v-0.36
		c0-0.28,0-0.6-0.62-0.6c-0.61,0-0.69,0.35-0.72,0.49L30.67,20.91L30.67,20.91z M31.47,21.31c0,0.13-0.01,0.26-0.12,0.37
		c-0.13,0.13-0.31,0.15-0.38,0.15c-0.24,0-0.32-0.14-0.32-0.25c0-0.21,0.21-0.25,0.38-0.27c0.14-0.02,0.34-0.06,0.45-0.1V21.31
		L31.47,21.31z M32.16,22.01h0.27v-0.87c0-0.1,0-0.21,0.06-0.33c0.06-0.12,0.21-0.2,0.37-0.2c0.33,0,0.33,0.29,0.33,0.43v0.97h0.27
		v-0.98c0-0.17,0-0.28-0.07-0.41c-0.09-0.17-0.31-0.23-0.48-0.23c-0.11,0-0.34,0.02-0.5,0.26H32.4v-0.22h-0.24V22.01L32.16,22.01z
		 M34.65,21.3c0,0.06,0.01,0.15,0.06,0.27c0.11,0.27,0.35,0.47,0.88,0.47c0.5,0,0.81-0.29,0.81-0.66c0-0.48-0.46-0.59-0.86-0.68
		c-0.4-0.09-0.53-0.16-0.53-0.35c0-0.27,0.32-0.33,0.51-0.33c0.45,0,0.52,0.26,0.53,0.42l0.28-0.02c-0.02-0.43-0.35-0.66-0.83-0.66
		c-0.49,0-0.77,0.27-0.77,0.61c0,0.44,0.43,0.54,0.72,0.61c0.45,0.11,0.67,0.16,0.67,0.42c0,0.25-0.24,0.37-0.55,0.37
		c-0.16,0-0.47-0.05-0.59-0.28c-0.04-0.08-0.06-0.18-0.06-0.22L34.65,21.3L34.65,21.3z M37.87,21.5c-0.03,0.09-0.12,0.33-0.42,0.33
		c-0.24,0-0.46-0.16-0.49-0.54h1.19c0.02-0.86-0.59-0.9-0.72-0.9c-0.49,0-0.75,0.36-0.75,0.84c0,0.49,0.27,0.82,0.76,0.82
		c0.39,0,0.62-0.21,0.7-0.52L37.87,21.5L37.87,21.5z M36.98,21.06c0.02-0.21,0.15-0.46,0.45-0.46c0.19,0,0.35,0.12,0.4,0.26
		c0.03,0.08,0.04,0.14,0.04,0.2H36.98L36.98,21.06z M39.06,21.77c-0.03,0.01-0.07,0.01-0.12,0.01c-0.15,0-0.15-0.09-0.15-0.22v-0.93
		h0.27v-0.21h-0.27v-0.56l-0.27,0.16v0.4h-0.2v0.21h0.2v0.92c0,0.26,0,0.49,0.37,0.49c0.09,0,0.16-0.02,0.2-0.02L39.06,21.77
		L39.06,21.77z M40.38,22.01h0.24v-1.59h-0.27v0.85c0,0.11-0.01,0.22-0.06,0.33c-0.06,0.13-0.22,0.21-0.37,0.21
		c-0.14,0-0.27-0.07-0.3-0.2c-0.02-0.08-0.02-0.15-0.02-0.32v-0.88h-0.27v0.99c0,0.14,0,0.28,0.07,0.41
		c0.09,0.16,0.3,0.23,0.47,0.23c0.08,0,0.33-0.01,0.5-0.27h0.01V22.01L40.38,22.01z M41.04,22.01h0.27v-2.2h-0.27V22.01L41.04,22.01
		z M42.77,22.01h0.24v-1.59h-0.27v0.85c0,0.11-0.01,0.22-0.06,0.33c-0.06,0.13-0.22,0.21-0.37,0.21c-0.14,0-0.27-0.07-0.3-0.2
		c-0.02-0.08-0.02-0.15-0.02-0.32v-0.88h-0.27v0.99c0,0.14,0,0.28,0.07,0.41c0.09,0.16,0.3,0.23,0.47,0.23
		c0.08,0,0.33-0.01,0.5-0.27h0.01V22.01L42.77,22.01z M43.32,21.53c0.03,0.16,0.1,0.51,0.68,0.51c0.41,0,0.64-0.24,0.64-0.5
		c0-0.33-0.22-0.39-0.64-0.5c-0.26-0.07-0.37-0.1-0.37-0.23c0-0.18,0.24-0.21,0.34-0.21c0.11,0,0.32,0.02,0.35,0.26l0.26-0.04
		c-0.02-0.12-0.07-0.45-0.63-0.45c-0.38,0-0.59,0.21-0.59,0.46c0,0.33,0.31,0.41,0.56,0.47l0.18,0.04c0.16,0.04,0.27,0.09,0.27,0.21
		c0,0.11-0.09,0.25-0.37,0.25c-0.25,0-0.38-0.12-0.41-0.33L43.32,21.53L43.32,21.53z M45.86,22.01h0.29v-1.04h1.14v1.04h0.29v-2.2
		h-0.29v0.9h-1.14v-0.9h-0.29V22.01L45.86,22.01z M48.26,20.91c0.03-0.13,0.08-0.31,0.41-0.31c0.4,0,0.39,0.23,0.39,0.4
		c-0.15,0.06-0.45,0.09-0.49,0.09c-0.18,0.02-0.63,0.07-0.63,0.5c0,0.26,0.19,0.46,0.54,0.46c0.17,0,0.36-0.04,0.59-0.23
		c0.01,0.04,0.01,0.11,0.06,0.2h0.28c-0.09-0.15-0.09-0.26-0.09-0.67v-0.36c0-0.28,0-0.6-0.62-0.6c-0.61,0-0.69,0.35-0.72,0.49
		L48.26,20.91L48.26,20.91z M49.06,21.31c0,0.13-0.01,0.26-0.12,0.37c-0.13,0.13-0.31,0.15-0.38,0.15c-0.24,0-0.32-0.14-0.32-0.25
		c0-0.21,0.21-0.25,0.38-0.27c0.14-0.02,0.34-0.06,0.45-0.1V21.31L49.06,21.31z M50.33,21.77c-0.03,0.01-0.07,0.01-0.12,0.01
		c-0.15,0-0.15-0.09-0.15-0.22v-0.93h0.27v-0.21h-0.27v-0.56l-0.27,0.16v0.4h-0.2v0.21h0.2v0.92c0,0.26,0,0.49,0.37,0.49
		c0.09,0,0.16-0.02,0.2-0.02L50.33,21.77L50.33,21.77z M50.6,22.01h0.27v-1.59H50.6V22.01L50.6,22.01z M50.6,20.12h0.27v-0.31H50.6
		V20.12L50.6,20.12z"/>
</g>
</svg>
