<?xml version="1.0" encoding="utf-8"?>
<!-- Generator: Adobe Illustrator 24.0.0, SVG Export Plug-In . SVG Version: 6.00 Build 0)  -->
<svg version="1.1" id="Layer_1" xmlns="http://www.w3.org/2000/svg" xmlns:xlink="http://www.w3.org/1999/xlink" x="0px" y="0px"
	 viewBox="0 0 52.89 52.89" style="enable-background:new 0 0 52.89 52.89;" xml:space="preserve">
<style type="text/css">
	.st0{fill:#6C727C;}
	.st1{fill:#FC5E31;}
	.st2{fill:#8CC63F;}
	.st3{fill:#F3F4F5;}
	.st4{fill:#F74A2D;}
	.st5{fill:#153663;}
	.st6{fill:#153765;}
	.st7{fill:#153867;}
	.st8{fill:#153969;}
	.st9{fill:#15396B;}
	.st10{fill:#153A6D;}
	.st11{fill:#153B6F;}
	.st12{fill:#153C71;}
	.st13{fill:#143D73;}
	.st14{fill:#143E75;}
	.st15{fill:#143E77;}
	.st16{fill:#143F79;}
	.st17{fill:#14407B;}
	.st18{fill:#14417D;}
	.st19{fill:#14427F;}
	.st20{fill:#144381;}
	.st21{fill:#144383;}
	.st22{fill:#144485;}
	.st23{fill:#144587;}
	.st24{fill:#144689;}
	.st25{fill:#14478B;}
	.st26{fill:#14488D;}
	.st27{fill:#14488F;}
	.st28{fill:#144991;}
	.st29{fill:#134A93;}
	.st30{fill:#134B95;}
	.st31{fill:#134C97;}
	.st32{fill:#134D99;}
	.st33{fill:#134D9B;}
	.st34{fill:#134E9D;}
	.st35{fill:#134F9F;}
	.st36{fill:#1350A1;}
	.st37{fill-rule:evenodd;clip-rule:evenodd;fill:#F1E7ED;}
	.st38{fill-rule:evenodd;clip-rule:evenodd;fill:#A893D0;}
	.st39{opacity:0.5;fill-rule:evenodd;clip-rule:evenodd;fill:#5D2C84;}
	.st40{fill-rule:evenodd;clip-rule:evenodd;fill:#CABDE2;}
	.st41{fill-rule:evenodd;clip-rule:evenodd;fill:#704E8D;}
	.st42{fill-rule:evenodd;clip-rule:evenodd;fill:#FBF9FB;}
	.st43{opacity:0.83;fill-rule:evenodd;clip-rule:evenodd;fill:url(#SVGID_2_);}
	.st44{opacity:0.83;fill-rule:evenodd;clip-rule:evenodd;fill:url(#SVGID_3_);}
	.st45{fill:#8D6B96;}
	.st46{opacity:0.2;fill-rule:evenodd;clip-rule:evenodd;fill:#864C90;}
	.st47{fill-rule:evenodd;clip-rule:evenodd;fill:#CECBEA;}
	.st48{fill-rule:evenodd;clip-rule:evenodd;fill:#39175A;}
	.st49{fill-rule:evenodd;clip-rule:evenodd;fill:#F83D45;}
	.st50{fill-rule:evenodd;clip-rule:evenodd;fill:#B32742;}
	.st51{fill-rule:evenodd;clip-rule:evenodd;fill:#A28BCC;}
	.st52{opacity:0.5;fill-rule:evenodd;clip-rule:evenodd;fill:#864C90;}
	.st53{fill-rule:evenodd;clip-rule:evenodd;fill:url(#SVGID_4_);}
	.st54{fill-rule:evenodd;clip-rule:evenodd;fill:url(#SVGID_6_);}
	.st55{fill:#B32742;}
	.st56{fill-rule:evenodd;clip-rule:evenodd;fill:url(#SVGID_8_);}
	.st57{fill-rule:evenodd;clip-rule:evenodd;fill:url(#SVGID_9_);}
	.st58{fill-rule:evenodd;clip-rule:evenodd;fill:#7A5AC4;}
	.st59{fill-rule:evenodd;clip-rule:evenodd;fill:#7A5AA7;}
	.st60{fill-rule:evenodd;clip-rule:evenodd;fill:#5A2967;}
	.st61{fill-rule:evenodd;clip-rule:evenodd;fill:#C4D1ED;}
	.st62{opacity:0.5;fill-rule:evenodd;clip-rule:evenodd;fill:#6D4C90;}
	.st63{fill:#7A5AA7;}
	.st64{fill:#39175A;}
	.st65{fill-rule:evenodd;clip-rule:evenodd;fill:url(#SVGID_10_);}
	.st66{fill:#FFFFFF;}
	.st67{fill-rule:evenodd;clip-rule:evenodd;fill:url(#SVGID_11_);}
	.st68{fill-rule:evenodd;clip-rule:evenodd;fill:url(#SVGID_12_);}
	.st69{fill-rule:evenodd;clip-rule:evenodd;fill:url(#SVGID_13_);}
	.st70{fill-rule:evenodd;clip-rule:evenodd;fill:url(#SVGID_14_);}
	.st71{fill-rule:evenodd;clip-rule:evenodd;fill:url(#SVGID_15_);}
	.st72{fill-rule:evenodd;clip-rule:evenodd;fill:url(#SVGID_16_);}
	.st73{fill-rule:evenodd;clip-rule:evenodd;fill:url(#SVGID_17_);}
	.st74{fill-rule:evenodd;clip-rule:evenodd;fill:url(#SVGID_18_);}
	.st75{fill-rule:evenodd;clip-rule:evenodd;fill:url(#SVGID_19_);}
	.st76{opacity:0.4;fill-rule:evenodd;clip-rule:evenodd;fill:#864C90;}
	.st77{fill-rule:evenodd;clip-rule:evenodd;fill:url(#SVGID_20_);}
	.st78{fill-rule:evenodd;clip-rule:evenodd;fill:#FFFFFF;}
	.st79{fill-rule:evenodd;clip-rule:evenodd;fill:url(#SVGID_21_);}
	.st80{opacity:0.44;fill-rule:evenodd;clip-rule:evenodd;fill:#60003B;}
	.st81{fill-rule:evenodd;clip-rule:evenodd;fill:url(#SVGID_22_);}
	.st82{fill-rule:evenodd;clip-rule:evenodd;fill:url(#SVGID_23_);}
	.st83{fill-rule:evenodd;clip-rule:evenodd;fill:url(#SVGID_24_);}
	.st84{fill-rule:evenodd;clip-rule:evenodd;fill:url(#SVGID_25_);}
	.st85{fill-rule:evenodd;clip-rule:evenodd;fill:url(#SVGID_26_);}
	.st86{fill-rule:evenodd;clip-rule:evenodd;fill:url(#SVGID_27_);}
	.st87{fill-rule:evenodd;clip-rule:evenodd;fill:url(#SVGID_28_);}
	.st88{fill-rule:evenodd;clip-rule:evenodd;fill:url(#SVGID_29_);}
	.st89{fill-rule:evenodd;clip-rule:evenodd;fill:url(#SVGID_30_);}
	.st90{fill-rule:evenodd;clip-rule:evenodd;fill:url(#SVGID_31_);}
	.st91{fill-rule:evenodd;clip-rule:evenodd;fill:url(#SVGID_32_);}
	.st92{fill-rule:evenodd;clip-rule:evenodd;fill:url(#SVGID_33_);}
	.st93{fill-rule:evenodd;clip-rule:evenodd;fill:url(#SVGID_34_);}
	.st94{fill-rule:evenodd;clip-rule:evenodd;fill:url(#SVGID_35_);}
	.st95{fill-rule:evenodd;clip-rule:evenodd;fill:url(#SVGID_36_);}
	.st96{fill-rule:evenodd;clip-rule:evenodd;fill:url(#SVGID_37_);}
	.st97{fill-rule:evenodd;clip-rule:evenodd;fill:url(#SVGID_38_);}
	.st98{fill-rule:evenodd;clip-rule:evenodd;fill:url(#SVGID_39_);}
	.st99{fill-rule:evenodd;clip-rule:evenodd;fill:url(#SVGID_40_);}
	.st100{fill-rule:evenodd;clip-rule:evenodd;fill:url(#SVGID_41_);}
	.st101{fill-rule:evenodd;clip-rule:evenodd;fill:url(#SVGID_42_);}
	.st102{fill-rule:evenodd;clip-rule:evenodd;fill:url(#SVGID_43_);}
	.st103{fill-rule:evenodd;clip-rule:evenodd;fill:url(#SVGID_44_);}
	.st104{fill:#F2E225;}
	.st105{opacity:0.4;fill:url(#SVGID_45_);}
	.st106{fill:#814BA2;}
	.st107{fill:#925CB4;}
	.st108{fill:#B289C9;}
	.st109{fill:#A274BF;}
	.st110{opacity:0.4;fill:url(#SVGID_46_);}
	.st111{fill:#813034;}
	.st112{fill:#802F34;}
	.st113{fill:#AFD2EF;}
	.st114{fill:#E54C3C;}
	.st115{fill:#57607F;}
	.st116{fill:#BF3A2C;}
	.st117{fill:#BF3A2B;}
	.st118{fill:#8796C8;}
	.st119{fill:#C88D95;}
	.st120{fill:#8696C9;}
	.st121{fill:#56607F;}
	.st122{fill:#E3E4E6;}
	.st123{fill:#D8DADE;}
	.st124{opacity:0.4;fill:url(#SVGID_47_);}
	.st125{fill:#F2582F;}
	.st126{fill:#FF7043;}
	.st127{fill:#8E2611;}
	.st128{fill:#E53935;}
	.st129{fill:#F0534A;}
	.st130{fill:#D5D5D3;}
	.st131{opacity:0.4;fill:url(#SVGID_48_);}
	.st132{fill:#F8749D;}
	.st133{fill:#403063;}
	.st134{fill:#403365;}
	.st135{fill:#403264;}
	.st136{fill:#413265;}
	.st137{fill:#E4E5E6;}
	.st138{fill:#E2E2E4;}
	.st139{fill:#DEDEE2;}
	.st140{fill:#3D2E61;}
	.st141{fill:#FDF7F9;}
	.st142{fill:#FDD6E4;}
	.st143{opacity:0.4;fill:url(#SVGID_49_);}
	.st144{fill:#C20047;}
	.st145{fill:#FE405C;}
	.st146{fill:#B1D3EF;}
	.st147{fill:#E0F1FD;}
	.st148{opacity:0.4;fill:url(#SVGID_50_);}
	.st149{opacity:0.4;fill:url(#SVGID_51_);}
	.st150{opacity:0.4;fill:url(#SVGID_52_);}
	.st151{opacity:0.4;fill:url(#SVGID_53_);}
	.st152{opacity:0.4;fill:url(#SVGID_54_);}
	.st153{opacity:0.4;fill:url(#SVGID_55_);}
	.st154{opacity:0.4;fill:url(#SVGID_56_);}
	.st155{fill:#FF5F85;}
	.st156{fill:#FFE878;}
	.st157{fill:#B2527E;}
	.st158{fill:#004FAB;}
	.st159{fill:#57A3FE;}
	.st160{fill:#FEFEFE;}
	.st161{fill:#37A6CD;}
	.st162{fill:#E19A4B;}
	.st163{fill:#54BBE8;}
	.st164{fill:#FBB55F;}
	.st165{fill:#E29A4C;}
	.st166{fill:#E4E8E9;}
	.st167{fill:#D1D0D0;}
	.st168{fill:#E3E7E8;}
	.st169{fill:#566369;}
	.st170{fill:#E19A4C;}
	.st171{fill:#445155;}
	.st172{fill:#E4E7E7;}
	.st173{fill:#566368;}
	.st174{fill:#6E7A7E;}
	.st175{fill:#435054;}
	.st176{fill:#5E5461;}
	.st177{fill:#6F6571;}
	.st178{fill:#5D5360;}
	.st179{fill:#4B3F4E;}
	.st180{fill:#FCCE64;}
	.st181{fill:#FEDF7E;}
	.st182{fill:#857D86;}
	.st183{fill:#3E8FC8;}
	.st184{fill:#FCB630;}
	.st185{fill:#88B237;}
	.st186{fill:#E7594A;}
	.st187{fill:#4398D0;}
	.st188{fill:#D55245;}
	.st189{fill:#80A734;}
	.st190{fill:#FEA71A;}
	.st191{fill:#FAD390;}
	.st192{fill:#F2D45C;}
	.st193{fill:#FA7B76;}
	.st194{fill:#FE5364;}
	.st195{fill:#F8E3C1;}
	.st196{fill:#2D5871;}
	.st197{fill:#FDD8A7;}
	.st198{fill:#E0EEFA;}
	.st199{fill:#F3C792;}
	.st200{fill:#CBDEEC;}
	.st201{fill:#FE4D4C;}
	.st202{fill:#F23A3A;}
	.st203{fill:#1D4859;}
	.st204{fill:#FEB025;}
	.st205{fill:#FE901D;}
	.st206{fill:#1E495A;}
	.st207{fill:#2F5972;}
	.st208{fill:#F3C892;}
	.st209{opacity:0.4;fill:url(#SVGID_57_);}
	.st210{opacity:0.4;fill:url(#SVGID_58_);}
	.st211{fill:#949AA8;}
	.st212{fill:#B3B3B3;}
	.st213{fill:#575D72;}
	.st214{fill:#A3E0F4;}
	.st215{fill:#C2EAF8;}
	.st216{fill:#28304E;}
	.st217{fill:#EC5176;}
	.st218{fill:#FECC34;}
	.st219{fill:#FE76A3;}
	.st220{fill:#E69115;}
	.st221{fill:#FF0000;}
	.st222{fill:#F4AE00;}
	.st223{opacity:0.12;fill:#1B1E23;}
	.st224{fill:#E7E8FA;}
	.st225{fill:#57A845;}
	.st226{fill:none;stroke:#283847;stroke-width:1.2169;stroke-miterlimit:10;}
	.st227{opacity:0.5;fill:#283847;}
	.st228{fill:#6B98F6;}
	.st229{fill:#79AFFF;}
	.st230{clip-path:url(#XMLID_3_);fill:#79AFFF;}
	.st231{clip-path:url(#XMLID_3_);}
	.st232{fill:none;stroke:#212121;stroke-width:1.5836;stroke-linecap:round;stroke-linejoin:round;stroke-miterlimit:10;}
	.st233{fill:#17566C;}
	.st234{clip-path:url(#XMLID_6_);fill:#79AFFF;}
	.st235{clip-path:url(#XMLID_6_);fill:#2072A9;}
	.st236{clip-path:url(#XMLID_6_);fill:#2175B8;}
	.st237{opacity:0.02;clip-path:url(#XMLID_9_);}
	.st238{opacity:0.13;clip-path:url(#XMLID_9_);fill:#FFFFFF;}
	.st239{fill:none;stroke:#212121;stroke-width:0.5;stroke-linecap:round;stroke-linejoin:round;stroke-miterlimit:10;}
	.st240{fill:#212121;}
	.st241{opacity:0.02;clip-path:url(#XMLID_19_);}
	.st242{opacity:0.13;clip-path:url(#XMLID_19_);fill:#FFFFFF;}
	.st243{clip-path:url(#XMLID_20_);fill:#B0C7D8;}
	.st244{clip-path:url(#XMLID_21_);fill:#3A4149;}
	.st245{fill:#FBFFFF;}
	.st246{fill:#EEEEEE;}
	.st247{fill:#FF7B35;}
	.st248{fill:#509DFF;}
	.st249{fill:#B0C7D8;}
	.st250{opacity:0.3;fill:#FFFFFC;}
	.st251{clip-path:url(#XMLID_26_);fill:#FC6C2B;}
	.st252{fill:#B8D0E5;}
	.st253{fill:none;stroke:#000000;stroke-width:2.5763;stroke-miterlimit:10;}
	.st254{opacity:0.12;clip-path:url(#XMLID_27_);}
	.st255{clip-path:url(#XMLID_28_);fill:#217AAB;}
	.st256{opacity:0.2;}
	.st257{opacity:0.12;clip-path:url(#XMLID_29_);fill:#FFFFFF;}
	.st258{opacity:0.03;clip-path:url(#XMLID_42_);}
	.st259{opacity:0.03;clip-path:url(#XMLID_43_);fill:#010102;}
	.st260{opacity:0.04;clip-path:url(#XMLID_44_);}
	.st261{fill:#FDAF00;}
	.st262{fill:#FF7C00;}
	.st263{opacity:0.3;clip-path:url(#XMLID_45_);}
	.st264{opacity:0.3;}
	.st265{fill:none;stroke:#212121;stroke-width:0.9542;stroke-linecap:round;stroke-linejoin:round;stroke-miterlimit:10;}
	.st266{opacity:0.3;clip-path:url(#XMLID_47_);}
	.st267{fill:none;stroke:#212121;stroke-width:1.188;stroke-linecap:round;stroke-linejoin:round;stroke-miterlimit:10;}
	.st268{fill:#FF9D38;}
	.st269{fill:#C8DFFD;}
	.st270{fill:#A8CCFF;}
	.st271{fill:#D5E9FF;}
	.st272{fill:#B8D0FC;}
	.st273{fill:#0B3563;}
	.st274{fill:none;stroke:#BEDBF7;stroke-width:1.0668;stroke-miterlimit:10;}
	.st275{fill:#25468F;}
	.st276{fill:#E4EEF7;}
	.st277{fill:none;stroke:#3A65C9;stroke-width:1.0668;stroke-miterlimit:10;}
	.st278{fill:none;stroke:#3A65C9;stroke-width:1.001;stroke-miterlimit:10;}
	.st279{fill:#FF5521;}
	.st280{fill:#3A65C9;}
	.st281{fill:none;stroke:#FFCC40;stroke-width:2.1337;stroke-linecap:round;stroke-linejoin:round;stroke-miterlimit:10;}
	.st282{fill:#BEDBF7;}
	.st283{fill:none;stroke:#FFFFFF;stroke-width:1.2169;stroke-miterlimit:10;}
	.st284{fill:#10477B;}
	.st285{fill:#D44C10;}
	.st286{fill:#FF912B;}
	.st287{fill:#FC7600;}
	.st288{fill:#FFAE73;}
	.st289{fill:#FC9F38;}
	.st290{fill:#E65F00;}
	.st291{fill:#4681E1;}
	.st292{fill:#032444;}
	.st293{fill:#0D458E;}
	.st294{fill:#1E3865;}
	.st295{fill:#F48F4E;}
	.st296{fill:#254C82;}
	.st297{fill:#F9924F;}
	.st298{opacity:0.5;}
	.st299{fill:#499936;}
	.st300{fill:url(#SVGID_59_);}
	.st301{opacity:0.08;fill:#FFFFFF;}
	.st302{opacity:0.31;fill:#323197;}
	.st303{fill:#F5F5F7;}
	.st304{fill:#A1C2FF;}
	.st305{fill:#FF8D02;}
	.st306{opacity:0.08;}
	.st307{fill:none;stroke:#FFFFFF;stroke-width:2;stroke-linecap:round;stroke-linejoin:round;stroke-miterlimit:10;}
	.st308{opacity:0.44;fill:none;stroke:#FFFFFF;stroke-miterlimit:10;}
	.st309{opacity:0.4;fill:url(#SVGID_60_);}
	.st310{opacity:0.4;fill:url(#SVGID_61_);}
	.st311{fill:#010200;}
	.st312{opacity:0.4;fill:url(#SVGID_62_);}
	.st313{fill:#F74A2D;stroke:#000000;stroke-width:0.35;stroke-miterlimit:10;}
	.st314{clip-path:url(#SVGID_63_);fill:url(#SVGID_64_);}
	.st315{clip-path:url(#SVGID_63_);fill:url(#SVGID_65_);}
	.st316{clip-path:url(#SVGID_63_);fill:url(#SVGID_66_);}
	.st317{clip-path:url(#SVGID_63_);fill:url(#SVGID_67_);}
	.st318{fill:#393D43;}
	.st319{fill:#FDFDFB;}
	.st320{fill:#0086CE;}
	.st321{fill:#69B545;}
	.st322{fill:#D6347C;}
	.st323{fill:#F07F32;}
	.st324{fill:#6F519D;}
	.st325{fill-rule:evenodd;clip-rule:evenodd;fill:#51555B;}
	.st326{fill-rule:evenodd;clip-rule:evenodd;fill:#393D43;}
	.st327{fill:#003A70;}
	.st328{fill:url(#SVGID_68_);}
	.st329{fill:#003399;}
	.st330{fill-rule:evenodd;clip-rule:evenodd;fill:#003399;}
	.st331{fill:#A1A1A1;}
	.st332{fill-rule:evenodd;clip-rule:evenodd;fill:#006677;}
	.st333{fill-rule:evenodd;clip-rule:evenodd;fill:#E45300;}
	.st334{fill-rule:evenodd;clip-rule:evenodd;fill:#2156A6;}
	.st335{fill:#2156A6;}
	.st336{fill:#FB6E3B;}
	.st337{fill:#00C9BD;}
	.st338{fill-rule:evenodd;clip-rule:evenodd;fill:#00ACD8;}
	.st339{fill-rule:evenodd;clip-rule:evenodd;}
	.st340{fill-rule:evenodd;clip-rule:evenodd;fill:#0056A6;}
	.st341{fill-rule:evenodd;clip-rule:evenodd;fill:#F48120;}
	.st342{fill-rule:evenodd;clip-rule:evenodd;fill:#2E3191;}
	.st343{fill:#FBDA00;}
	.st344{fill:#1F1A17;}
	.st345{fill:#007CC2;}
	.st346{fill:#DA251C;}
	.st347{fill-rule:evenodd;clip-rule:evenodd;fill:#F0F0F0;}
	.st348{fill-rule:evenodd;clip-rule:evenodd;fill:#FECF22;}
	.st349{fill-rule:evenodd;clip-rule:evenodd;fill:#006AB4;}
	.st350{fill-rule:evenodd;clip-rule:evenodd;fill:#D61627;}
	.st351{fill-rule:evenodd;clip-rule:evenodd;fill:#E6E6E6;}
	.st352{fill:#007BC2;}
	.st353{fill:#231F20;}
	.st354{fill:#EC1C25;}
	.st355{fill:#243E92;}
	.st356{fill:#E22228;}
	.st357{fill:#FAD701;}
	.st358{fill-rule:evenodd;clip-rule:evenodd;fill:#E61F20;}
	.st359{fill-rule:evenodd;clip-rule:evenodd;fill:#004B97;}
	.st360{fill-rule:evenodd;clip-rule:evenodd;fill:#E50013;}
	.st361{fill-rule:evenodd;clip-rule:evenodd;fill:url(#SVGID_71_);}
	.st362{fill-rule:evenodd;clip-rule:evenodd;fill:url(#SVGID_72_);}
	.st363{fill-rule:evenodd;clip-rule:evenodd;fill:#412A8B;}
</style>
<linearGradient id="SVGID_2_" gradientUnits="userSpaceOnUse" x1="-3390.4028" y1="-1424.969" x2="-3337.5166" y2="-1424.969" gradientTransform="matrix(0 1 -1 0 -1398.526 3390.4028)">
	<stop  offset="0" style="stop-color:#F9F9F9"/>
	<stop  offset="1" style="stop-color:#EAEAEA"/>
</linearGradient>
<circle style="opacity:0.4;fill:url(#SVGID_2_);" cx="26.44" cy="26.44" r="26.44"/>
<g>
	<path class="st106" d="M20.6,38.04c0,0.22,0,0.44,0.01,0.65c0.04,0.57-0.18,0.97-0.72,1.18c-0.16,0-0.31,0-0.47,0
		c-0.55-0.26-0.73-0.7-0.68-1.28c0.02-0.18,0-0.37,0.01-0.55c0.03-0.01,0.06-0.01,0.1-0.02C19.42,38.03,20.01,38.04,20.6,38.04z"/>
	<path class="st106" d="M32.95,39.88c-0.56-0.26-0.73-0.73-0.67-1.31c0.02-0.17,0-0.35,0.01-0.52c0.03-0.01,0.06-0.01,0.09-0.02
		c0.57,0,1.15,0,1.72,0c0.01,0.01,0.03,0.01,0.05,0.02c0,0.22-0.01,0.44,0.01,0.65c0.04,0.57-0.18,0.97-0.73,1.18
		C33.26,39.88,33.1,39.88,32.95,39.88z"/>
	<path class="st107" d="M17.7,21.99c0-1.94-0.02-3.88,0.02-5.82c0.04-1.8,1.49-3.15,3.29-3.15c3.19,0,6.38,0,9.57,0
		c0.07,0,0.14,0.01,0.21,0.01c0.04,0.01,0.08,0.04,0.12,0.04c1.54,0.21,2.75,1.71,2.72,3.19c-0.03,1.95-0.02,3.91,0,5.87
		c0,0.36-0.11,0.64-0.34,0.9c-0.09,0.1-0.18,0.19-0.28,0.28c-0.42,0.43-0.72,0.94-0.93,1.5c-0.29,0.75-0.32,1.53-0.29,2.31
		c-3.57-0.05-7.14-0.05-10.7,0c0-0.37,0.04-0.74-0.01-1.1c-0.19-1.52-0.91-2.72-2.21-3.54C18.51,22.25,18.15,22,17.7,21.99z
		 M29.33,20.75c0-0.26-0.22-0.49-0.48-0.49c-0.24,0-0.52,0.27-0.51,0.5c0.01,0.28,0.22,0.5,0.5,0.49
		C29.12,21.25,29.33,21.04,29.33,20.75z M22.85,18.32c-0.28,0-0.49,0.21-0.5,0.49c0,0.25,0.23,0.5,0.47,0.5
		c0.25,0.01,0.53-0.27,0.52-0.52C23.34,18.55,23.09,18.32,22.85,18.32z M30.04,18.32c-0.26,0-0.49,0.21-0.5,0.46
		c-0.01,0.25,0.26,0.53,0.51,0.53c0.24,0,0.48-0.26,0.48-0.52C30.53,18.53,30.31,18.32,30.04,18.32z M23.56,16.39
		c0,0.28,0.2,0.5,0.49,0.51c0.22,0.01,0.49-0.26,0.5-0.49c0.01-0.22-0.26-0.5-0.48-0.51C23.78,15.9,23.56,16.11,23.56,16.39z
		 M24.5,20.75c0-0.27-0.21-0.49-0.47-0.49c-0.25,0-0.48,0.23-0.48,0.49c0,0.29,0.2,0.5,0.49,0.5C24.35,21.26,24.5,21.09,24.5,20.75z
		 M29.33,16.39c0-0.28-0.23-0.49-0.51-0.49c-0.22,0.01-0.48,0.27-0.47,0.48c0,0.26,0.26,0.52,0.5,0.51
		C29.13,16.89,29.33,16.67,29.33,16.39z M25.97,16.39c0,0.27,0.2,0.5,0.45,0.51c0.27,0.01,0.49-0.22,0.49-0.5
		c0-0.27-0.21-0.49-0.47-0.5C26.19,15.9,25.97,16.12,25.97,16.39z M25.71,18.79c0-0.26-0.22-0.48-0.48-0.48
		c-0.26,0-0.47,0.22-0.47,0.5c0,0.26,0.22,0.49,0.47,0.5C25.5,19.31,25.71,19.08,25.71,18.79z M28.12,18.81
		c0-0.27-0.21-0.49-0.47-0.49c-0.26,0-0.48,0.22-0.48,0.48c0,0.29,0.21,0.52,0.48,0.51C27.91,19.3,28.12,19.07,28.12,18.81z
		 M26.91,20.77c0-0.28-0.23-0.52-0.48-0.51c-0.27,0.01-0.47,0.24-0.46,0.53c0,0.25,0.22,0.46,0.47,0.46
		C26.7,21.26,26.92,21.03,26.91,20.77z"/>
	<path class="st108" d="M18.57,38.02c-0.59,0.02-1.17,0.05-1.72-0.23c-0.79-0.4-1.21-1.05-1.22-1.93c-0.02-1.79,0-3.58,0-5.37
		c0.14,0,0.28-0.01,0.42,0.01c0.58,0.08,1.13-0.05,1.67-0.27c0.25-0.1,0.34-0.34,0.25-0.55c-0.08-0.19-0.32-0.27-0.56-0.19
		c-0.11,0.04-0.21,0.08-0.32,0.11c-0.48,0.14-0.97,0.13-1.47,0.05c-0.79-0.23-1.44-0.65-1.92-1.32c-1.34-1.86-0.29-4.6,1.96-5.07
		c0.13-0.03,0.25-0.09,0.39-0.06c0.02,0.15,0.17,0.11,0.25,0.14c1.35,0.44,2.27,1.68,2.27,3.09C18.57,30.29,18.57,34.16,18.57,38.02
		z M17.26,26.45c0-0.47-0.42-0.9-0.88-0.89c-0.45,0.01-0.85,0.42-0.86,0.86c0,0.49,0.42,0.93,0.88,0.92
		C16.86,27.32,17.26,26.91,17.26,26.45z"/>
	<path class="st108" d="M34.14,38.04c-0.02,0-0.03-0.01-0.05-0.02c-0.12-0.08-0.26-0.03-0.38-0.04c-0.44-0.01-0.4,0.05-0.4-0.39
		c0-2.29,0-4.59,0-6.88c0-0.1,0.07-0.24-0.1-0.28c0-0.02,0-0.04,0-0.05c-0.02-0.67,0.05-1.33-0.05-2c0.08-0.08,0.04-0.18,0.04-0.27
		c0-0.59-0.02-1.17,0.01-1.76c0.04-0.81,0.31-1.53,0.87-2.13c0.32-0.34,0.71-0.59,1.11-0.82c0.53-0.16,1.06-0.27,1.61-0.22
		c0.26,0.03,0.51,0.07,0.76,0.17c0,0.08,0.05,0.13,0.1,0.18c0.31,0.3,0.55,0.65,0.72,1.04c0.69,1.51,0.06,3.32-1.34,4.12
		c-0.36,0.21-0.74,0.39-0.85,0.86c-0.03,0.15-0.18,0.1-0.27,0.07c-0.19-0.05-0.36-0.13-0.55-0.18c-0.22-0.06-0.38,0.05-0.48,0.23
		c-0.09,0.18,0,0.42,0.19,0.51c0.24,0.11,0.48,0.21,0.74,0.24c0.22,0.02,0.32,0.11,0.31,0.36c-0.01,1.7,0,3.39-0.01,5.09
		c-0.01,0.8-0.38,1.41-1.06,1.83c-0.2,0.12-0.46,0.11-0.61,0.31C34.36,38.03,34.25,38.04,34.14,38.04z M35.62,26.44
		c0,0.48,0.39,0.89,0.86,0.9c0.44,0.01,0.87-0.41,0.87-0.87c0-0.48-0.38-0.91-0.85-0.91C35.98,25.57,35.6,26,35.62,26.44z"/>
	<path class="st106" d="M35.19,23.41c-0.4,0.23-0.79,0.48-1.11,0.82c-0.56,0.6-0.84,1.32-0.87,2.13c-0.03,0.58,0,1.17-0.01,1.76
		c0,0.09,0.03,0.19-0.04,0.27c-0.15-0.68-0.65-1.15-1.37-1.27c-0.03-0.79,0.01-1.57,0.29-2.31c0.22-0.56,0.51-1.07,0.93-1.5
		c0.09-0.09,0.19-0.18,0.28-0.28c0.23-0.25,0.34-0.54,0.34-0.9c-0.01-1.96-0.03-3.91,0-5.87c0.03-1.49-1.18-2.98-2.72-3.19
		c-0.04-0.01-0.08-0.03-0.12-0.04c0.62,0,1.24-0.08,1.85,0.07c1.51,0.36,2.54,1.67,2.54,3.24C35.2,18.69,35.19,21.05,35.19,23.41z"
		/>
	<path class="st109" d="M34.47,38.03c0.15-0.2,0.41-0.19,0.61-0.31c0.69-0.43,1.06-1.03,1.06-1.83c0.01-1.7,0-3.39,0.01-5.09
		c0-0.25-0.09-0.34-0.31-0.36c-0.26-0.02-0.51-0.13-0.74-0.24c-0.19-0.09-0.29-0.33-0.19-0.51c0.09-0.18,0.26-0.29,0.48-0.23
		c0.18,0.05,0.36,0.13,0.55,0.18c0.09,0.02,0.23,0.07,0.27-0.07c0.11-0.47,0.49-0.65,0.85-0.86c1.41-0.8,2.03-2.61,1.34-4.12
		c-0.18-0.39-0.41-0.75-0.72-1.04c-0.05-0.05-0.1-0.1-0.1-0.18c2.13,0.67,2.92,3.48,1.45,5.19c-0.41,0.47-0.9,0.83-1.5,1.01
		c-0.2,0.06-0.27,0.15-0.27,0.36c0.01,1.98,0.01,3.95,0,5.93c0,1.19-0.91,2.13-2.1,2.19C34.93,38.04,34.7,38.03,34.47,38.03z"/>
	<path class="st109" d="M18.57,38.02c0-3.86,0-7.73,0-11.59c0-1.41-0.92-2.66-2.27-3.09c-0.08-0.03-0.23,0.01-0.25-0.14
		c0.47-0.1,0.91,0,1.36,0.13c0.09,0.03,0.18,0.05,0.27,0.08c0.48,0.25,0.93,0.54,1.27,0.98c0.43,0.57,0.72,1.19,0.72,1.92
		c0,0.59,0,1.17,0,1.76c0,0.09-0.03,0.19,0.05,0.27c-0.1,0.68-0.03,1.36-0.04,2.04c0,0.84,0,1.68,0,2.52c0,0.86,0,1.71,0,2.57
		c0,0.76-0.01,1.51,0,2.27c0,0.2-0.06,0.26-0.25,0.25c-0.2,0-0.4-0.05-0.59,0.04c-0.03,0.01-0.06,0.01-0.1,0.02
		C18.69,38.04,18.63,38.03,18.57,38.02z"/>
	<path class="st106" d="M19.72,28.34c-0.08-0.08-0.05-0.18-0.05-0.27c0-0.59,0-1.17,0-1.76c0-0.73-0.29-1.35-0.72-1.92
		c-0.34-0.44-0.78-0.73-1.27-0.98c0-0.47,0.01-0.95,0.01-1.42c0.45,0.01,0.81,0.26,1.17,0.49c1.3,0.82,2.03,2.02,2.21,3.54
		c0.04,0.36,0.01,0.73,0.01,1.1C20.38,27.24,19.92,27.64,19.72,28.34z"/>
	<path class="st109" d="M15.63,29.65c0.49,0.08,0.98,0.09,1.47-0.05c0.11-0.03,0.21-0.08,0.32-0.11c0.24-0.08,0.47,0,0.56,0.19
		c0.09,0.21,0,0.45-0.25,0.55c-0.53,0.21-1.08,0.35-1.67,0.27c-0.14-0.02-0.28-0.01-0.42-0.01C15.64,30.21,15.64,29.93,15.63,29.65z
		"/>
	<path class="st108" d="M18.84,38.03c0.19-0.09,0.39-0.04,0.59-0.04c0.19,0,0.26-0.06,0.25-0.25c-0.01-0.76,0-1.51,0-2.27
		c4.07,0,8.15,0,12.22,0c0,0.85,0,1.7,0,2.55c-0.11,0-0.23,0.01-0.34,0.01c-3.54,0-7.08,0-10.62,0c-0.11,0-0.23,0.01-0.34,0.01
		C20.01,38.04,19.42,38.03,18.84,38.03z"/>
	<path class="st109" d="M31.9,38.02c0-0.85,0-1.7,0-2.55l0,0c0.44,0,0.87,0,1.31,0c0,0.76,0,1.52,0.01,2.27
		c0,0.2-0.06,0.26-0.25,0.25c-0.2,0-0.4-0.05-0.59,0.04c-0.03,0.01-0.06,0.01-0.09,0.02C32.15,38.04,32.03,38.03,31.9,38.02z"/>
	<path class="st108" d="M32.37,38.03c0.19-0.09,0.39-0.04,0.59-0.04c0.2,0,0.25-0.06,0.25-0.25c-0.01-0.76-0.01-1.52-0.01-2.27
		c0-0.86,0-1.71,0-2.57c0-0.82,0-1.65,0-2.47c0.17,0.04,0.1,0.18,0.1,0.28c0,2.29,0,4.59,0,6.88c0,0.44-0.05,0.38,0.4,0.39
		c0.13,0,0.26-0.04,0.38,0.04C33.52,38.03,32.94,38.03,32.37,38.03z"/>
	<path class="st109" d="M19.72,28.34c0.2-0.69,0.66-1.09,1.37-1.22c3.57-0.05,7.14-0.05,10.7,0c0.72,0.12,1.22,0.59,1.37,1.27
		c0.09,0.66,0.03,1.33,0.05,2c-0.44,0-0.87,0-1.31,0.01c-0.11,0-0.23,0-0.34,0c-3.96,0-7.92,0-11.88,0
		C19.69,29.7,19.63,29.01,19.72,28.34z"/>
	<path class="st106" d="M29.33,20.75c0,0.29-0.2,0.5-0.49,0.5c-0.28,0-0.5-0.21-0.5-0.49c-0.01-0.23,0.27-0.5,0.51-0.5
		C29.1,20.26,29.33,20.49,29.33,20.75z"/>
	<path class="st106" d="M22.85,18.32c0.25,0,0.5,0.24,0.5,0.47c0,0.25-0.28,0.53-0.52,0.52c-0.24-0.01-0.47-0.26-0.47-0.5
		C22.35,18.52,22.56,18.32,22.85,18.32z"/>
	<path class="st106" d="M30.04,18.32c0.27,0,0.49,0.21,0.49,0.47c0,0.26-0.24,0.52-0.48,0.52c-0.25,0-0.52-0.28-0.51-0.53
		C29.55,18.52,29.78,18.31,30.04,18.32z"/>
	<path class="st106" d="M23.56,16.39c0-0.28,0.23-0.49,0.51-0.49c0.23,0.01,0.49,0.28,0.48,0.51c-0.01,0.23-0.28,0.49-0.5,0.49
		C23.76,16.89,23.55,16.68,23.56,16.39z"/>
	<path class="st106" d="M24.5,20.75c0,0.33-0.16,0.51-0.46,0.5c-0.29,0-0.49-0.21-0.49-0.5c0-0.26,0.23-0.49,0.48-0.49
		C24.29,20.26,24.5,20.48,24.5,20.75z"/>
	<path class="st106" d="M29.33,16.39c0,0.28-0.2,0.5-0.48,0.51c-0.24,0.01-0.49-0.26-0.5-0.51c0-0.21,0.26-0.47,0.47-0.48
		C29.1,15.9,29.32,16.11,29.33,16.39z"/>
	<path class="st106" d="M25.97,16.39c0-0.27,0.22-0.49,0.48-0.48c0.26,0,0.47,0.23,0.47,0.5c0,0.28-0.22,0.51-0.49,0.5
		C26.17,16.89,25.96,16.66,25.97,16.39z"/>
	<path class="st106" d="M25.71,18.79c0,0.29-0.21,0.52-0.47,0.52c-0.25,0-0.47-0.23-0.47-0.5c0-0.27,0.21-0.49,0.47-0.5
		C25.49,18.31,25.71,18.53,25.71,18.79z"/>
	<path class="st106" d="M28.12,18.81c0,0.26-0.21,0.49-0.47,0.5c-0.26,0.01-0.48-0.22-0.48-0.51c0-0.26,0.22-0.48,0.48-0.48
		C27.91,18.32,28.12,18.54,28.12,18.81z"/>
	<path class="st106" d="M26.91,20.77c0,0.26-0.22,0.48-0.48,0.48c-0.25,0-0.47-0.21-0.47-0.46c-0.01-0.29,0.2-0.52,0.46-0.53
		C26.69,20.25,26.91,20.49,26.91,20.77z"/>
	<path class="st106" d="M17.26,26.45c0,0.46-0.4,0.87-0.85,0.89c-0.46,0.01-0.88-0.43-0.88-0.92c0-0.44,0.41-0.85,0.86-0.86
		C16.84,25.55,17.26,25.98,17.26,26.45z"/>
	<path class="st109" d="M31.9,30.39c0.44,0,0.87,0,1.31-0.01c0,0.02,0,0.04,0,0.05c0,0.82,0,1.65,0,2.47c-0.44,0-0.87,0-1.31,0l0,0
		C31.9,32.06,31.9,31.22,31.9,30.39z"/>
	<path class="st106" d="M35.62,26.44c-0.02-0.44,0.36-0.87,0.88-0.87c0.47,0,0.86,0.43,0.85,0.91c0,0.45-0.43,0.87-0.87,0.87
		C36.01,27.33,35.62,26.92,35.62,26.44z"/>
	<path class="st107" d="M31.9,35.47c-4.07,0-8.15,0-12.22,0c0-0.86,0-1.71,0-2.57c4.07,0,8.15,0,12.22,0c0,0,0,0,0,0
		C31.9,33.76,31.9,34.61,31.9,35.47L31.9,35.47z"/>
	<path class="st108" d="M31.9,32.9c-4.07,0-8.15,0-12.22,0c0-0.84,0-1.68,0-2.52c3.96,0,7.92,0,11.88,0c0.11,0,0.23,0,0.34,0
		C31.9,31.22,31.9,32.06,31.9,32.9z"/>
	<path class="st106" d="M31.9,35.47c0-0.85,0-1.71,0-2.56c0.44,0,0.87,0,1.31,0c0,0.86,0,1.71,0,2.57
		C32.77,35.47,32.33,35.47,31.9,35.47z"/>
</g>
</svg>
