<?xml version="1.0" encoding="utf-8"?>
<!-- Generator: Adobe Illustrator 24.0.0, SVG Export Plug-In . SVG Version: 6.00 Build 0)  -->
<svg version="1.1" id="Layer_1" xmlns="http://www.w3.org/2000/svg" xmlns:xlink="http://www.w3.org/1999/xlink" x="0px" y="0px"
	 viewBox="0 0 52.89 52.89" style="enable-background:new 0 0 52.89 52.89;" xml:space="preserve">
<style type="text/css">
	.st0{fill:#6C727C;}
	.st1{fill:#FC5E31;}
	.st2{fill:#8CC63F;}
	.st3{fill:#F3F4F5;}
	.st4{fill:#F74A2D;}
	.st5{fill:#153663;}
	.st6{fill:#153765;}
	.st7{fill:#153867;}
	.st8{fill:#153969;}
	.st9{fill:#15396B;}
	.st10{fill:#153A6D;}
	.st11{fill:#153B6F;}
	.st12{fill:#153C71;}
	.st13{fill:#143D73;}
	.st14{fill:#143E75;}
	.st15{fill:#143E77;}
	.st16{fill:#143F79;}
	.st17{fill:#14407B;}
	.st18{fill:#14417D;}
	.st19{fill:#14427F;}
	.st20{fill:#144381;}
	.st21{fill:#144383;}
	.st22{fill:#144485;}
	.st23{fill:#144587;}
	.st24{fill:#144689;}
	.st25{fill:#14478B;}
	.st26{fill:#14488D;}
	.st27{fill:#14488F;}
	.st28{fill:#144991;}
	.st29{fill:#134A93;}
	.st30{fill:#134B95;}
	.st31{fill:#134C97;}
	.st32{fill:#134D99;}
	.st33{fill:#134D9B;}
	.st34{fill:#134E9D;}
	.st35{fill:#134F9F;}
	.st36{fill:#1350A1;}
	.st37{fill-rule:evenodd;clip-rule:evenodd;fill:#F1E7ED;}
	.st38{fill-rule:evenodd;clip-rule:evenodd;fill:#A893D0;}
	.st39{opacity:0.5;fill-rule:evenodd;clip-rule:evenodd;fill:#5D2C84;}
	.st40{fill-rule:evenodd;clip-rule:evenodd;fill:#CABDE2;}
	.st41{fill-rule:evenodd;clip-rule:evenodd;fill:#704E8D;}
	.st42{fill-rule:evenodd;clip-rule:evenodd;fill:#FBF9FB;}
	.st43{opacity:0.83;fill-rule:evenodd;clip-rule:evenodd;fill:url(#SVGID_2_);}
	.st44{opacity:0.83;fill-rule:evenodd;clip-rule:evenodd;fill:url(#SVGID_3_);}
	.st45{fill:#8D6B96;}
	.st46{opacity:0.2;fill-rule:evenodd;clip-rule:evenodd;fill:#864C90;}
	.st47{fill-rule:evenodd;clip-rule:evenodd;fill:#CECBEA;}
	.st48{fill-rule:evenodd;clip-rule:evenodd;fill:#39175A;}
	.st49{fill-rule:evenodd;clip-rule:evenodd;fill:#F83D45;}
	.st50{fill-rule:evenodd;clip-rule:evenodd;fill:#B32742;}
	.st51{fill-rule:evenodd;clip-rule:evenodd;fill:#A28BCC;}
	.st52{opacity:0.5;fill-rule:evenodd;clip-rule:evenodd;fill:#864C90;}
	.st53{fill-rule:evenodd;clip-rule:evenodd;fill:url(#SVGID_4_);}
	.st54{fill-rule:evenodd;clip-rule:evenodd;fill:url(#SVGID_6_);}
	.st55{fill:#B32742;}
	.st56{fill-rule:evenodd;clip-rule:evenodd;fill:url(#SVGID_8_);}
	.st57{fill-rule:evenodd;clip-rule:evenodd;fill:url(#SVGID_9_);}
	.st58{fill-rule:evenodd;clip-rule:evenodd;fill:#7A5AC4;}
	.st59{fill-rule:evenodd;clip-rule:evenodd;fill:#7A5AA7;}
	.st60{fill-rule:evenodd;clip-rule:evenodd;fill:#5A2967;}
	.st61{fill-rule:evenodd;clip-rule:evenodd;fill:#C4D1ED;}
	.st62{opacity:0.5;fill-rule:evenodd;clip-rule:evenodd;fill:#6D4C90;}
	.st63{fill:#7A5AA7;}
	.st64{fill:#39175A;}
	.st65{fill-rule:evenodd;clip-rule:evenodd;fill:url(#SVGID_10_);}
	.st66{fill:#FFFFFF;}
	.st67{fill-rule:evenodd;clip-rule:evenodd;fill:url(#SVGID_11_);}
	.st68{fill-rule:evenodd;clip-rule:evenodd;fill:url(#SVGID_12_);}
	.st69{fill-rule:evenodd;clip-rule:evenodd;fill:url(#SVGID_13_);}
	.st70{fill-rule:evenodd;clip-rule:evenodd;fill:url(#SVGID_14_);}
	.st71{fill-rule:evenodd;clip-rule:evenodd;fill:url(#SVGID_15_);}
	.st72{fill-rule:evenodd;clip-rule:evenodd;fill:url(#SVGID_16_);}
	.st73{fill-rule:evenodd;clip-rule:evenodd;fill:url(#SVGID_17_);}
	.st74{fill-rule:evenodd;clip-rule:evenodd;fill:url(#SVGID_18_);}
	.st75{fill-rule:evenodd;clip-rule:evenodd;fill:url(#SVGID_19_);}
	.st76{opacity:0.4;fill-rule:evenodd;clip-rule:evenodd;fill:#864C90;}
	.st77{fill-rule:evenodd;clip-rule:evenodd;fill:url(#SVGID_20_);}
	.st78{fill-rule:evenodd;clip-rule:evenodd;fill:#FFFFFF;}
	.st79{fill-rule:evenodd;clip-rule:evenodd;fill:url(#SVGID_21_);}
	.st80{opacity:0.44;fill-rule:evenodd;clip-rule:evenodd;fill:#60003B;}
	.st81{fill-rule:evenodd;clip-rule:evenodd;fill:url(#SVGID_22_);}
	.st82{fill-rule:evenodd;clip-rule:evenodd;fill:url(#SVGID_23_);}
	.st83{fill-rule:evenodd;clip-rule:evenodd;fill:url(#SVGID_24_);}
	.st84{fill-rule:evenodd;clip-rule:evenodd;fill:url(#SVGID_25_);}
	.st85{fill-rule:evenodd;clip-rule:evenodd;fill:url(#SVGID_26_);}
	.st86{fill-rule:evenodd;clip-rule:evenodd;fill:url(#SVGID_27_);}
	.st87{fill-rule:evenodd;clip-rule:evenodd;fill:url(#SVGID_28_);}
	.st88{fill-rule:evenodd;clip-rule:evenodd;fill:url(#SVGID_29_);}
	.st89{fill-rule:evenodd;clip-rule:evenodd;fill:url(#SVGID_30_);}
	.st90{fill-rule:evenodd;clip-rule:evenodd;fill:url(#SVGID_31_);}
	.st91{fill-rule:evenodd;clip-rule:evenodd;fill:url(#SVGID_32_);}
	.st92{fill-rule:evenodd;clip-rule:evenodd;fill:url(#SVGID_33_);}
	.st93{fill-rule:evenodd;clip-rule:evenodd;fill:url(#SVGID_34_);}
	.st94{fill-rule:evenodd;clip-rule:evenodd;fill:url(#SVGID_35_);}
	.st95{fill-rule:evenodd;clip-rule:evenodd;fill:url(#SVGID_36_);}
	.st96{fill-rule:evenodd;clip-rule:evenodd;fill:url(#SVGID_37_);}
	.st97{fill-rule:evenodd;clip-rule:evenodd;fill:url(#SVGID_38_);}
	.st98{fill-rule:evenodd;clip-rule:evenodd;fill:url(#SVGID_39_);}
	.st99{fill-rule:evenodd;clip-rule:evenodd;fill:url(#SVGID_40_);}
	.st100{fill-rule:evenodd;clip-rule:evenodd;fill:url(#SVGID_41_);}
	.st101{fill-rule:evenodd;clip-rule:evenodd;fill:url(#SVGID_42_);}
	.st102{fill-rule:evenodd;clip-rule:evenodd;fill:url(#SVGID_43_);}
	.st103{fill-rule:evenodd;clip-rule:evenodd;fill:url(#SVGID_44_);}
	.st104{fill:#F2E225;}
	.st105{opacity:0.4;fill:url(#SVGID_45_);}
	.st106{fill:#814BA2;}
	.st107{fill:#925CB4;}
	.st108{fill:#B289C9;}
	.st109{fill:#A274BF;}
	.st110{opacity:0.4;fill:url(#SVGID_46_);}
	.st111{fill:#813034;}
	.st112{fill:#802F34;}
	.st113{fill:#AFD2EF;}
	.st114{fill:#E54C3C;}
	.st115{fill:#57607F;}
	.st116{fill:#BF3A2C;}
	.st117{fill:#BF3A2B;}
	.st118{fill:#8796C8;}
	.st119{fill:#C88D95;}
	.st120{fill:#8696C9;}
	.st121{fill:#56607F;}
	.st122{fill:#E3E4E6;}
	.st123{fill:#D8DADE;}
	.st124{opacity:0.4;fill:url(#SVGID_47_);}
	.st125{fill:#F2582F;}
	.st126{fill:#FF7043;}
	.st127{fill:#8E2611;}
	.st128{fill:#E53935;}
	.st129{fill:#F0534A;}
	.st130{fill:#D5D5D3;}
	.st131{opacity:0.4;fill:url(#SVGID_48_);}
	.st132{fill:#F8749D;}
	.st133{fill:#403063;}
	.st134{fill:#403365;}
	.st135{fill:#403264;}
	.st136{fill:#413265;}
	.st137{fill:#E4E5E6;}
	.st138{fill:#E2E2E4;}
	.st139{fill:#DEDEE2;}
	.st140{fill:#3D2E61;}
	.st141{fill:#FDF7F9;}
	.st142{fill:#FDD6E4;}
	.st143{opacity:0.4;fill:url(#SVGID_49_);}
	.st144{fill:#C20047;}
	.st145{fill:#FE405C;}
	.st146{fill:#B1D3EF;}
	.st147{fill:#E0F1FD;}
	.st148{opacity:0.4;fill:url(#SVGID_50_);}
	.st149{opacity:0.4;fill:url(#SVGID_51_);}
	.st150{opacity:0.4;fill:url(#SVGID_52_);}
	.st151{opacity:0.4;fill:url(#SVGID_53_);}
	.st152{opacity:0.4;fill:url(#SVGID_54_);}
	.st153{opacity:0.4;fill:url(#SVGID_55_);}
	.st154{opacity:0.4;fill:url(#SVGID_56_);}
	.st155{fill:#FF5F85;}
	.st156{fill:#FFE878;}
	.st157{fill:#B2527E;}
	.st158{fill:#004FAB;}
	.st159{fill:#57A3FE;}
	.st160{fill:#FEFEFE;}
	.st161{fill:#37A6CD;}
	.st162{fill:#E19A4B;}
	.st163{fill:#54BBE8;}
	.st164{fill:#FBB55F;}
	.st165{fill:#E29A4C;}
	.st166{fill:#E4E8E9;}
	.st167{fill:#D1D0D0;}
	.st168{fill:#E3E7E8;}
	.st169{fill:#566369;}
	.st170{fill:#E19A4C;}
	.st171{fill:#445155;}
	.st172{fill:#E4E7E7;}
	.st173{fill:#566368;}
	.st174{fill:#6E7A7E;}
	.st175{fill:#435054;}
	.st176{fill:#5E5461;}
	.st177{fill:#6F6571;}
	.st178{fill:#5D5360;}
	.st179{fill:#4B3F4E;}
	.st180{fill:#FCCE64;}
	.st181{fill:#FEDF7E;}
	.st182{fill:#857D86;}
	.st183{fill:#3E8FC8;}
	.st184{fill:#FCB630;}
	.st185{fill:#88B237;}
	.st186{fill:#E7594A;}
	.st187{fill:#4398D0;}
	.st188{fill:#D55245;}
	.st189{fill:#80A734;}
	.st190{fill:#FEA71A;}
	.st191{fill:#FAD390;}
	.st192{fill:#F2D45C;}
	.st193{fill:#FA7B76;}
	.st194{fill:#FE5364;}
	.st195{fill:#F8E3C1;}
	.st196{fill:#2D5871;}
	.st197{fill:#FDD8A7;}
	.st198{fill:#E0EEFA;}
	.st199{fill:#F3C792;}
	.st200{fill:#CBDEEC;}
	.st201{fill:#FE4D4C;}
	.st202{fill:#F23A3A;}
	.st203{fill:#1D4859;}
	.st204{fill:#FEB025;}
	.st205{fill:#FE901D;}
	.st206{fill:#1E495A;}
	.st207{fill:#2F5972;}
	.st208{fill:#F3C892;}
	.st209{opacity:0.4;fill:url(#SVGID_57_);}
	.st210{opacity:0.4;fill:url(#SVGID_58_);}
	.st211{fill:#949AA8;}
	.st212{fill:#B3B3B3;}
	.st213{fill:#575D72;}
	.st214{fill:#A3E0F4;}
	.st215{fill:#C2EAF8;}
	.st216{fill:#28304E;}
	.st217{fill:#EC5176;}
	.st218{fill:#FECC34;}
	.st219{fill:#FE76A3;}
	.st220{fill:#E69115;}
	.st221{fill:#FF0000;}
	.st222{fill:#F4AE00;}
	.st223{opacity:0.12;fill:#1B1E23;}
	.st224{fill:#E7E8FA;}
	.st225{fill:#57A845;}
	.st226{fill:none;stroke:#283847;stroke-width:1.2169;stroke-miterlimit:10;}
	.st227{opacity:0.5;fill:#283847;}
	.st228{fill:#6B98F6;}
	.st229{fill:#79AFFF;}
	.st230{clip-path:url(#XMLID_3_);fill:#79AFFF;}
	.st231{clip-path:url(#XMLID_3_);}
	.st232{fill:none;stroke:#212121;stroke-width:1.5836;stroke-linecap:round;stroke-linejoin:round;stroke-miterlimit:10;}
	.st233{fill:#17566C;}
	.st234{clip-path:url(#XMLID_6_);fill:#79AFFF;}
	.st235{clip-path:url(#XMLID_6_);fill:#2072A9;}
	.st236{clip-path:url(#XMLID_6_);fill:#2175B8;}
	.st237{opacity:0.02;clip-path:url(#XMLID_9_);}
	.st238{opacity:0.13;clip-path:url(#XMLID_9_);fill:#FFFFFF;}
	.st239{fill:none;stroke:#212121;stroke-width:0.5;stroke-linecap:round;stroke-linejoin:round;stroke-miterlimit:10;}
	.st240{fill:#212121;}
	.st241{opacity:0.02;clip-path:url(#XMLID_19_);}
	.st242{opacity:0.13;clip-path:url(#XMLID_19_);fill:#FFFFFF;}
	.st243{clip-path:url(#XMLID_20_);fill:#B0C7D8;}
	.st244{clip-path:url(#XMLID_21_);fill:#3A4149;}
	.st245{fill:#FBFFFF;}
	.st246{fill:#EEEEEE;}
	.st247{fill:#FF7B35;}
	.st248{fill:#509DFF;}
	.st249{fill:#B0C7D8;}
	.st250{opacity:0.3;fill:#FFFFFC;}
	.st251{clip-path:url(#XMLID_26_);fill:#FC6C2B;}
	.st252{fill:#B8D0E5;}
	.st253{fill:none;stroke:#000000;stroke-width:2.5763;stroke-miterlimit:10;}
	.st254{opacity:0.12;clip-path:url(#XMLID_27_);}
	.st255{clip-path:url(#XMLID_28_);fill:#217AAB;}
	.st256{opacity:0.2;}
	.st257{opacity:0.12;clip-path:url(#XMLID_29_);fill:#FFFFFF;}
	.st258{opacity:0.03;clip-path:url(#XMLID_42_);}
	.st259{opacity:0.03;clip-path:url(#XMLID_43_);fill:#010102;}
	.st260{opacity:0.04;clip-path:url(#XMLID_44_);}
	.st261{fill:#FDAF00;}
	.st262{fill:#FF7C00;}
	.st263{opacity:0.3;clip-path:url(#XMLID_45_);}
	.st264{opacity:0.3;}
	.st265{fill:none;stroke:#212121;stroke-width:0.9542;stroke-linecap:round;stroke-linejoin:round;stroke-miterlimit:10;}
	.st266{opacity:0.3;clip-path:url(#XMLID_47_);}
	.st267{fill:none;stroke:#212121;stroke-width:1.188;stroke-linecap:round;stroke-linejoin:round;stroke-miterlimit:10;}
	.st268{fill:#FF9D38;}
	.st269{fill:#C8DFFD;}
	.st270{fill:#A8CCFF;}
	.st271{fill:#D5E9FF;}
	.st272{fill:#B8D0FC;}
	.st273{fill:#0B3563;}
	.st274{fill:none;stroke:#BEDBF7;stroke-width:1.0668;stroke-miterlimit:10;}
	.st275{fill:#25468F;}
	.st276{fill:#E4EEF7;}
	.st277{fill:none;stroke:#3A65C9;stroke-width:1.0668;stroke-miterlimit:10;}
	.st278{fill:none;stroke:#3A65C9;stroke-width:1.001;stroke-miterlimit:10;}
	.st279{fill:#FF5521;}
	.st280{fill:#3A65C9;}
	.st281{fill:none;stroke:#FFCC40;stroke-width:2.1337;stroke-linecap:round;stroke-linejoin:round;stroke-miterlimit:10;}
	.st282{fill:#BEDBF7;}
	.st283{fill:none;stroke:#FFFFFF;stroke-width:1.2169;stroke-miterlimit:10;}
	.st284{fill:#10477B;}
	.st285{fill:#D44C10;}
	.st286{fill:#FF912B;}
	.st287{fill:#FC7600;}
	.st288{fill:#FFAE73;}
	.st289{fill:#FC9F38;}
	.st290{fill:#E65F00;}
	.st291{fill:#4681E1;}
	.st292{fill:#032444;}
	.st293{fill:#0D458E;}
	.st294{fill:#1E3865;}
	.st295{fill:#F48F4E;}
	.st296{fill:#254C82;}
	.st297{fill:#F9924F;}
	.st298{opacity:0.5;}
	.st299{fill:#499936;}
	.st300{fill:url(#SVGID_59_);}
	.st301{opacity:0.08;fill:#FFFFFF;}
	.st302{opacity:0.31;fill:#323197;}
	.st303{fill:#F5F5F7;}
	.st304{fill:#A1C2FF;}
	.st305{fill:#FF8D02;}
	.st306{opacity:0.08;}
	.st307{fill:none;stroke:#FFFFFF;stroke-width:2;stroke-linecap:round;stroke-linejoin:round;stroke-miterlimit:10;}
	.st308{opacity:0.44;fill:none;stroke:#FFFFFF;stroke-miterlimit:10;}
	.st309{opacity:0.4;fill:url(#SVGID_60_);}
	.st310{opacity:0.4;fill:url(#SVGID_61_);}
	.st311{fill:#010200;}
	.st312{opacity:0.4;fill:url(#SVGID_62_);}
	.st313{fill:#F74A2D;stroke:#000000;stroke-width:0.35;stroke-miterlimit:10;}
	.st314{clip-path:url(#SVGID_63_);fill:url(#SVGID_64_);}
	.st315{clip-path:url(#SVGID_63_);fill:url(#SVGID_65_);}
	.st316{clip-path:url(#SVGID_63_);fill:url(#SVGID_66_);}
	.st317{clip-path:url(#SVGID_63_);fill:url(#SVGID_67_);}
	.st318{fill:#393D43;}
	.st319{fill:#FDFDFB;}
	.st320{fill:#0086CE;}
	.st321{fill:#69B545;}
	.st322{fill:#D6347C;}
	.st323{fill:#F07F32;}
	.st324{fill:#6F519D;}
	.st325{fill-rule:evenodd;clip-rule:evenodd;fill:#51555B;}
	.st326{fill-rule:evenodd;clip-rule:evenodd;fill:#393D43;}
	.st327{fill:#003A70;}
	.st328{fill:url(#SVGID_68_);}
	.st329{fill:#003399;}
	.st330{fill-rule:evenodd;clip-rule:evenodd;fill:#003399;}
	.st331{fill:#A1A1A1;}
	.st332{fill-rule:evenodd;clip-rule:evenodd;fill:#006677;}
	.st333{fill-rule:evenodd;clip-rule:evenodd;fill:#E45300;}
	.st334{fill-rule:evenodd;clip-rule:evenodd;fill:#2156A6;}
	.st335{fill:#2156A6;}
	.st336{fill:#FB6E3B;}
	.st337{fill:#00C9BD;}
	.st338{fill-rule:evenodd;clip-rule:evenodd;fill:#00ACD8;}
	.st339{fill-rule:evenodd;clip-rule:evenodd;}
	.st340{fill-rule:evenodd;clip-rule:evenodd;fill:#0056A6;}
	.st341{fill-rule:evenodd;clip-rule:evenodd;fill:#F48120;}
	.st342{fill-rule:evenodd;clip-rule:evenodd;fill:#2E3191;}
	.st343{fill:#FBDA00;}
	.st344{fill:#1F1A17;}
	.st345{fill:#007CC2;}
	.st346{fill:#DA251C;}
	.st347{fill-rule:evenodd;clip-rule:evenodd;fill:#F0F0F0;}
	.st348{fill-rule:evenodd;clip-rule:evenodd;fill:#FECF22;}
	.st349{fill-rule:evenodd;clip-rule:evenodd;fill:#006AB4;}
	.st350{fill-rule:evenodd;clip-rule:evenodd;fill:#D61627;}
	.st351{fill-rule:evenodd;clip-rule:evenodd;fill:#E6E6E6;}
	.st352{fill:#007BC2;}
	.st353{fill:#231F20;}
	.st354{fill:#EC1C25;}
	.st355{fill:#243E92;}
	.st356{fill:#E22228;}
	.st357{fill:#FAD701;}
	.st358{fill-rule:evenodd;clip-rule:evenodd;fill:#E61F20;}
	.st359{fill-rule:evenodd;clip-rule:evenodd;fill:#004B97;}
	.st360{fill-rule:evenodd;clip-rule:evenodd;fill:#E50013;}
	.st361{fill-rule:evenodd;clip-rule:evenodd;fill:url(#SVGID_71_);}
	.st362{fill-rule:evenodd;clip-rule:evenodd;fill:url(#SVGID_72_);}
	.st363{fill-rule:evenodd;clip-rule:evenodd;fill:#412A8B;}
</style>
<linearGradient id="SVGID_2_" gradientUnits="userSpaceOnUse" x1="-3486.7935" y1="-1521.3597" x2="-3433.9075" y2="-1521.3597" gradientTransform="matrix(0 1 -1 0 -1494.9167 3486.7935)">
	<stop  offset="0" style="stop-color:#F9F9F9"/>
	<stop  offset="1" style="stop-color:#EAEAEA"/>
</linearGradient>
<circle style="opacity:0.4;fill:url(#SVGID_2_);" cx="26.44" cy="26.44" r="26.44"/>
<g>
	<path class="st111" d="M38.87,35.79c-0.11,0.71-0.41,1.35-0.8,1.94c-0.61,0.91-1.37,1.65-2.43,2.02c-0.14,0.05-0.31,0.03-0.43,0.13
		c-0.28,0-0.56,0-0.84,0c-0.31-0.15-0.65-0.2-0.95-0.38c0.01-0.06,0.06-0.08,0.1-0.12c0.4-0.33,0.8-0.65,1.15-1.03
		c0.74-0.82,1.21-1.78,1.39-2.88c0.07-0.01,0.14-0.01,0.2,0.02c0.51,0.29,1.07,0.32,1.65,0.29C38.23,35.77,38.55,35.79,38.87,35.79z
		"/>
	<path class="st112" d="M14.27,22.92c-0.02-1.1,0.22-2.16,0.55-3.2c0.18-0.57,0.4-1.11,0.67-1.64c0.22-0.42,0.27-0.85,0.18-1.31
		c-0.14-0.7,0.21-1.39,0.89-1.65c1.26-0.49,2.54-0.96,3.83-1.36c1.22-0.38,2.47-0.6,3.74-0.7c0.63-0.05,1.26-0.05,1.88-0.03
		c0.79,0.58,1.58,1.16,2.37,1.74c0.63,0.46,1.26,0.93,1.89,1.39c-0.47,0.25-0.53,0.47-0.23,0.91c0.16,0.25,0.32,0.5,0.49,0.74
		c0.27,0.4,0.62,0.7,1.08,0.87c0.14,0.05,0.28,0.1,0.39,0.21c-0.03,0.01-0.06,0.03-0.1,0.04c-1.8,0.39-3.61,0.77-5.41,1.15
		c-0.35,0.07-0.71,0.2-1.07,0.03c-0.84-0.39-1.69-0.75-2.49-1.22c-1.6-0.93-2.98-2.12-4.16-3.54c-0.16-0.19-0.27-0.43-0.51-0.6
		c0,0.06,0,0.09,0.01,0.11c0.39,1.18,0.88,2.31,1.58,3.35c0.6,0.89,1.28,1.7,2.09,2.4c0.38,0.32,0.76,0.64,1.13,0.96
		c-0.11,0-0.22-0.01-0.34-0.04c-0.45-0.11-0.91-0.2-1.37-0.11c-1.53,0.3-2.34,1.95-1.65,3.29c0.27,0.53,0.7,0.94,1.09,1.37
		c0.71,0.78,1.51,1.48,2.37,2.1c0.51,0.37,1.01,0.74,1.59,1c0.53,0.36,1.12,0.61,1.7,0.89c0.44,0.21,0.92,0.33,1.34,0.59
		c0.08,0.08,0.15,0.17,0.24,0.24c0.91,0.83,1.83,1.64,2.74,2.48c0.39,0.36,0.34,0.68-0.14,0.92c-0.56,0.28-1.13,0.55-1.69,0.85
		c-0.28,0.15-0.52,0.12-0.77-0.06c-1.07-0.76-2.15-1.52-3.24-2.27c-1.63-1.12-3.2-2.31-4.68-3.61c-1.06-0.93-2.08-1.92-3.06-2.94
		c-0.63-0.66-1.23-1.35-1.84-2.04C14.99,23.79,14.67,23.32,14.27,22.92z"/>
	<path class="st113" d="M38.98,22.76c0.3,0.16,0.43,0.42,0.43,0.75c0,1.62,0,3.23,0,4.85c0,1.36-0.01,2.72,0.01,4.09
		c0,0.42-0.13,0.74-0.48,0.98c-1.42-0.05-2.85,0.14-4.26-0.2c-0.34-0.12-0.69-0.2-1-0.38c-0.05-0.05-0.09-0.11-0.15-0.15
		c-0.52-0.39-1.05-0.79-1.58-1.18c-0.99-0.74-1.98-1.5-2.98-2.22c-0.53-0.38-0.94-0.85-1.18-1.45c-0.24-0.61-0.26-1.23-0.07-1.88
		c0.29-0.99,0.91-1.64,1.84-1.97c0.75-0.27,1.54-0.43,2.31-0.64c0.67-0.18,1.34-0.36,2.01-0.54c0.05-0.02,0.1-0.04,0.16-0.06
		c0.18-0.01,0.37-0.02,0.55-0.02c1.41,0,2.83,0,4.24-0.01c0.01,0,0.02,0,0.03-0.01l0,0C38.89,22.77,38.94,22.76,38.98,22.76z"/>
	<path class="st114" d="M33.68,32.84c0.31,0.19,0.66,0.27,1,0.38c0,0.42,0,0.84,0,1.26c0,0.22,0.09,0.37,0.28,0.47
		c0.11,0.06,0.24,0.1,0.36,0.16c0.24,0.13,0.54,0.14,0.74,0.36c-0.18,1.1-0.65,2.05-1.39,2.88c-0.35,0.38-0.75,0.7-1.15,1.03
		c-0.04,0.03-0.08,0.06-0.1,0.12c-1.59-0.67-3.18-1.35-4.78-2.02c-0.02-0.12-0.14-0.15-0.22-0.2c-2.41-1.61-4.83-3.22-7.24-4.83
		c-0.86-0.57-1.71-1.15-2.69-1.51c-0.64-0.24-1.3-0.41-1.93-0.68c-0.92-0.39-1.74-0.93-2.52-1.54c0.16-0.27,0.31-0.54,0.48-0.81
		c0.24-0.4,0.3-0.82,0.18-1.28c-0.29-1.07-0.46-2.16-0.45-3.28c0-0.15,0.02-0.3,0.02-0.44c0.4,0.4,0.72,0.87,1.09,1.3
		c0.6,0.69,1.2,1.38,1.84,2.04c0.98,1.02,1.99,2.01,3.06,2.94c1.48,1.3,3.05,2.49,4.68,3.61c1.09,0.75,2.16,1.5,3.24,2.27
		c0.26,0.18,0.49,0.22,0.77,0.06c0.56-0.29,1.12-0.56,1.69-0.85c0.47-0.24,0.52-0.56,0.14-0.92c-0.91-0.83-1.82-1.65-2.74-2.48
		c-0.08-0.08-0.16-0.16-0.24-0.24c0.04,0,0.09,0,0.13,0.01c1.48,0.57,2.96,1.15,4.45,1.71C32.81,32.54,33.22,32.75,33.68,32.84z"/>
	<path class="st114" d="M38.85,22.73c-1.41,0-2.83,0-4.24,0.01c-0.18,0-0.37,0.01-0.55,0.02c-0.05-0.04-0.11-0.04-0.17-0.01
		c-1.13,0-2.25-0.01-3.38-0.01c-0.97,0-1.93-0.1-2.89-0.26c-0.94-0.16-1.87-0.34-2.8-0.52c-0.14-0.03-0.29-0.05-0.43-0.09
		c-0.44-0.11-0.89-0.12-1.31-0.3c-0.38-0.32-0.76-0.64-1.13-0.96c-0.82-0.7-1.49-1.51-2.09-2.4c-0.7-1.04-1.19-2.17-1.58-3.35
		c-0.01-0.02,0-0.05-0.01-0.11c0.24,0.17,0.35,0.4,0.51,0.6c1.18,1.43,2.56,2.62,4.16,3.54c0.8,0.46,1.65,0.83,2.49,1.22
		c0.36,0.17,0.72,0.04,1.07-0.03c1.8-0.38,3.61-0.77,5.41-1.15c0.03-0.01,0.07-0.02,0.1-0.04c0.25,0.03,0.45,0.17,0.67,0.26
		c0.8,0.35,1.61,0.7,2.41,1.05c0.01,0.28,0.22,0.47,0.34,0.69c0.11,0.21,0.3,0.3,0.54,0.3c0.7,0,1.41,0,2.11,0
		c0.09,0.33,0.2,0.66,0.27,1c0.06,0.28,0.15,0.48,0.47,0.48C38.84,22.69,38.84,22.71,38.85,22.73z"/>
	<path class="st115" d="M14.04,28.72c0.78,0.61,1.6,1.16,2.52,1.54c0.63,0.27,1.29,0.44,1.93,0.68c0.98,0.36,1.83,0.93,2.69,1.51
		c2.41,1.61,4.83,3.22,7.24,4.83c0.08,0.05,0.2,0.08,0.22,0.2c-1.52-0.64-3.04-1.27-4.55-1.91c-3.18-1.34-6.35-2.7-9.54-4.02
		c-1.03-0.43-1.39-1.52-0.77-2.42C13.87,29,13.95,28.86,14.04,28.72z"/>
	<path class="st114" d="M30.28,16.15c-0.63-0.46-1.26-0.93-1.89-1.39c-0.79-0.58-1.58-1.16-2.37-1.74c3.4,0.15,6.5,1.19,9.29,3.15
		c0.79,0.55,1.41,1.27,1.85,2.13c-0.68,0.11-1.37,0.06-2.05,0.03c-0.02,0-0.03-0.01-0.05-0.02c-0.7-0.33-1.4-0.66-2.11-0.97
		C32.06,16.94,31.2,16.47,30.28,16.15z"/>
	<path class="st116" d="M30.28,16.15c0.92,0.32,1.78,0.79,2.67,1.18c0.71,0.31,1.41,0.65,2.11,0.97c0.02,0.01,0.03,0.02,0.05,0.02
		c0.68,0.03,1.37,0.08,2.05-0.03c0.27,0.46,0.42,0.97,0.54,1.48c-0.69-0.01-1.37-0.02-2.06-0.02c-0.34,0-0.45,0.09-0.55,0.43
		c-0.8-0.35-1.6-0.7-2.41-1.05c-0.22-0.1-0.43-0.23-0.67-0.26c-0.11-0.11-0.25-0.16-0.39-0.21c-0.46-0.17-0.81-0.47-1.08-0.87
		c-0.17-0.24-0.33-0.49-0.49-0.74C29.75,16.62,29.81,16.4,30.28,16.15z"/>
	<path class="st117" d="M36.05,35.47c-0.2-0.22-0.5-0.23-0.74-0.36c-0.11-0.06-0.24-0.1-0.36-0.16c-0.18-0.1-0.28-0.25-0.28-0.47
		c0.01-0.42,0-0.84,0-1.26c1.41,0.34,2.84,0.15,4.26,0.2c0,0.7,0,1.39-0.01,2.09c0,0.09-0.04,0.19-0.05,0.28
		c-0.32,0-0.65-0.01-0.97,0c-0.57,0.03-1.13,0-1.65-0.29C36.19,35.46,36.12,35.47,36.05,35.47z"/>
	<path class="st118" d="M35.09,20.19c0.1-0.34,0.21-0.43,0.55-0.43c0.69,0,1.37,0.01,2.06,0.02c0.13,0.47,0.25,0.94,0.38,1.41
		c-0.7,0-1.41,0-2.11,0c-0.24,0-0.43-0.09-0.54-0.3C35.31,20.66,35.1,20.48,35.09,20.19z"/>
	<path class="st119" d="M38.98,22.76c-0.04-0.01-0.09,0.01-0.1-0.05C38.92,22.71,38.96,22.72,38.98,22.76z"/>
	<path class="st119" d="M38.85,22.73c-0.01-0.02-0.01-0.04-0.02-0.06c0.03,0,0.05,0.01,0.05,0.04
		C38.87,22.73,38.86,22.73,38.85,22.73z"/>
	<path class="st120" d="M24.81,21.95c0.93,0.17,1.87,0.36,2.8,0.52c0.96,0.16,1.92,0.26,2.89,0.26c1.13,0,2.25,0.01,3.38,0.01
		c0,0.02,0.01,0.05,0.01,0.07c-0.67,0.18-1.34,0.35-2.01,0.54c-0.77,0.21-1.56,0.37-2.31,0.64c-0.93,0.33-1.56,0.98-1.84,1.97
		c-0.19,0.65-0.17,1.27,0.07,1.88c0.24,0.6,0.65,1.07,1.18,1.45c1,0.73,1.99,1.48,2.98,2.22c0.53,0.39,1.05,0.79,1.58,1.18
		c0.05,0.04,0.1,0.1,0.15,0.15c-0.46-0.09-0.88-0.3-1.31-0.47c-1.49-0.56-2.97-1.14-4.45-1.71c-0.04-0.01-0.09-0.01-0.13-0.01
		c-0.42-0.25-0.9-0.37-1.34-0.59c-0.58-0.28-1.17-0.53-1.7-0.89c0-0.71,0-1.41,0.01-2.12c0-0.15-0.03-0.29-0.07-0.44
		c-0.13-0.46-0.45-0.78-0.77-1.1c-0.39-0.38-0.37-0.65,0.06-0.99c0.5-0.4,0.76-0.92,0.78-1.56C24.78,22.63,24.73,22.29,24.81,21.95z
		 M26.19,26.86c-0.27-0.04-0.47,0.24-0.48,0.44c0,0.22,0.21,0.48,0.46,0.46c0.24-0.02,0.47-0.2,0.47-0.42
		C26.66,27.08,26.45,26.86,26.19,26.86z"/>
	<path class="st121" d="M24.81,21.95c-0.09,0.34-0.04,0.68-0.05,1.02c-0.02,0.64-0.29,1.16-0.78,1.56
		c-0.43,0.34-0.45,0.61-0.06,0.99c0.33,0.32,0.64,0.64,0.77,1.1c0.04,0.14,0.07,0.29,0.07,0.44c0,0.71-0.01,1.41-0.01,2.12
		c-0.58-0.26-1.08-0.63-1.59-1c-0.85-0.62-1.65-1.32-2.37-2.1c-0.39-0.43-0.81-0.84-1.09-1.37c-0.69-1.33,0.12-2.98,1.65-3.29
		c0.46-0.09,0.92,0,1.37,0.11c0.11,0.03,0.22,0.03,0.34,0.04c0.42,0.18,0.88,0.19,1.31,0.3C24.53,21.9,24.67,21.92,24.81,21.95z
		 M21.02,24.01c0,0.53,0.43,0.96,0.94,0.95c0.51-0.01,0.92-0.43,0.92-0.95c0-0.53-0.4-0.93-0.92-0.94
		C21.43,23.07,21.02,23.47,21.02,24.01z M23.38,27.07c0.12-0.03,0.22-0.1,0.21-0.24c-0.01-0.13-0.09-0.22-0.22-0.22
		c-0.14,0-0.24,0.07-0.24,0.22C23.14,26.98,23.23,27.05,23.38,27.07z"/>
	<path class="st119" d="M33.9,22.81c0-0.02-0.01-0.05-0.01-0.07c0.06-0.03,0.12-0.03,0.17,0.01C34,22.77,33.95,22.79,33.9,22.81z"/>
	<path class="st122" d="M26.19,26.86c0.26,0,0.47,0.22,0.46,0.49c-0.01,0.22-0.23,0.4-0.47,0.42c-0.25,0.02-0.47-0.24-0.46-0.46
		C25.72,27.09,25.92,26.82,26.19,26.86z"/>
	<path class="st122" d="M21.02,24.01c0-0.54,0.41-0.94,0.95-0.93c0.52,0.01,0.92,0.41,0.92,0.94c0,0.52-0.41,0.94-0.92,0.95
		C21.45,24.97,21.02,24.53,21.02,24.01z"/>
	<path class="st123" d="M23.38,27.07c-0.15-0.02-0.25-0.09-0.25-0.24c0-0.15,0.1-0.22,0.24-0.22c0.13,0,0.21,0.09,0.22,0.22
		C23.6,26.98,23.5,27.05,23.38,27.07z"/>
</g>
</svg>
