<?xml version="1.0" encoding="utf-8"?>
<!-- Generator: Adobe Illustrator 24.0.0, SVG Export Plug-In . SVG Version: 6.00 Build 0)  -->
<svg version="1.1" id="Layer_1" xmlns="http://www.w3.org/2000/svg" xmlns:xlink="http://www.w3.org/1999/xlink" x="0px" y="0px"
	 viewBox="0 0 52.89 52.89" style="enable-background:new 0 0 52.89 52.89;" xml:space="preserve">
<style type="text/css">
	.st0{fill:#6C727C;}
	.st1{fill:#FC5E31;}
	.st2{fill:#8CC63F;}
	.st3{fill:#F3F4F5;}
	.st4{fill:#F74A2D;}
	.st5{fill:#153663;}
	.st6{fill:#153765;}
	.st7{fill:#153867;}
	.st8{fill:#153969;}
	.st9{fill:#15396B;}
	.st10{fill:#153A6D;}
	.st11{fill:#153B6F;}
	.st12{fill:#153C71;}
	.st13{fill:#143D73;}
	.st14{fill:#143E75;}
	.st15{fill:#143E77;}
	.st16{fill:#143F79;}
	.st17{fill:#14407B;}
	.st18{fill:#14417D;}
	.st19{fill:#14427F;}
	.st20{fill:#144381;}
	.st21{fill:#144383;}
	.st22{fill:#144485;}
	.st23{fill:#144587;}
	.st24{fill:#144689;}
	.st25{fill:#14478B;}
	.st26{fill:#14488D;}
	.st27{fill:#14488F;}
	.st28{fill:#144991;}
	.st29{fill:#134A93;}
	.st30{fill:#134B95;}
	.st31{fill:#134C97;}
	.st32{fill:#134D99;}
	.st33{fill:#134D9B;}
	.st34{fill:#134E9D;}
	.st35{fill:#134F9F;}
	.st36{fill:#1350A1;}
	.st37{fill-rule:evenodd;clip-rule:evenodd;fill:#F1E7ED;}
	.st38{fill-rule:evenodd;clip-rule:evenodd;fill:#A893D0;}
	.st39{opacity:0.5;fill-rule:evenodd;clip-rule:evenodd;fill:#5D2C84;}
	.st40{fill-rule:evenodd;clip-rule:evenodd;fill:#CABDE2;}
	.st41{fill-rule:evenodd;clip-rule:evenodd;fill:#704E8D;}
	.st42{fill-rule:evenodd;clip-rule:evenodd;fill:#FBF9FB;}
	.st43{opacity:0.83;fill-rule:evenodd;clip-rule:evenodd;fill:url(#SVGID_2_);}
	.st44{opacity:0.83;fill-rule:evenodd;clip-rule:evenodd;fill:url(#SVGID_3_);}
	.st45{fill:#8D6B96;}
	.st46{opacity:0.2;fill-rule:evenodd;clip-rule:evenodd;fill:#864C90;}
	.st47{fill-rule:evenodd;clip-rule:evenodd;fill:#CECBEA;}
	.st48{fill-rule:evenodd;clip-rule:evenodd;fill:#39175A;}
	.st49{fill-rule:evenodd;clip-rule:evenodd;fill:#F83D45;}
	.st50{fill-rule:evenodd;clip-rule:evenodd;fill:#B32742;}
	.st51{fill-rule:evenodd;clip-rule:evenodd;fill:#A28BCC;}
	.st52{opacity:0.5;fill-rule:evenodd;clip-rule:evenodd;fill:#864C90;}
	.st53{fill-rule:evenodd;clip-rule:evenodd;fill:url(#SVGID_4_);}
	.st54{fill-rule:evenodd;clip-rule:evenodd;fill:url(#SVGID_6_);}
	.st55{fill:#B32742;}
	.st56{fill-rule:evenodd;clip-rule:evenodd;fill:url(#SVGID_8_);}
	.st57{fill-rule:evenodd;clip-rule:evenodd;fill:url(#SVGID_9_);}
	.st58{fill-rule:evenodd;clip-rule:evenodd;fill:#7A5AC4;}
	.st59{fill-rule:evenodd;clip-rule:evenodd;fill:#7A5AA7;}
	.st60{fill-rule:evenodd;clip-rule:evenodd;fill:#5A2967;}
	.st61{fill-rule:evenodd;clip-rule:evenodd;fill:#C4D1ED;}
	.st62{opacity:0.5;fill-rule:evenodd;clip-rule:evenodd;fill:#6D4C90;}
	.st63{fill:#7A5AA7;}
	.st64{fill:#39175A;}
	.st65{fill-rule:evenodd;clip-rule:evenodd;fill:url(#SVGID_10_);}
	.st66{fill:#FFFFFF;}
	.st67{fill-rule:evenodd;clip-rule:evenodd;fill:url(#SVGID_11_);}
	.st68{fill-rule:evenodd;clip-rule:evenodd;fill:url(#SVGID_12_);}
	.st69{fill-rule:evenodd;clip-rule:evenodd;fill:url(#SVGID_13_);}
	.st70{fill-rule:evenodd;clip-rule:evenodd;fill:url(#SVGID_14_);}
	.st71{fill-rule:evenodd;clip-rule:evenodd;fill:url(#SVGID_15_);}
	.st72{fill-rule:evenodd;clip-rule:evenodd;fill:url(#SVGID_16_);}
	.st73{fill-rule:evenodd;clip-rule:evenodd;fill:url(#SVGID_17_);}
	.st74{fill-rule:evenodd;clip-rule:evenodd;fill:url(#SVGID_18_);}
	.st75{fill-rule:evenodd;clip-rule:evenodd;fill:url(#SVGID_19_);}
	.st76{opacity:0.4;fill-rule:evenodd;clip-rule:evenodd;fill:#864C90;}
	.st77{fill-rule:evenodd;clip-rule:evenodd;fill:url(#SVGID_20_);}
	.st78{fill-rule:evenodd;clip-rule:evenodd;fill:#FFFFFF;}
	.st79{fill-rule:evenodd;clip-rule:evenodd;fill:url(#SVGID_21_);}
	.st80{opacity:0.44;fill-rule:evenodd;clip-rule:evenodd;fill:#60003B;}
	.st81{fill-rule:evenodd;clip-rule:evenodd;fill:url(#SVGID_22_);}
	.st82{fill-rule:evenodd;clip-rule:evenodd;fill:url(#SVGID_23_);}
	.st83{fill-rule:evenodd;clip-rule:evenodd;fill:url(#SVGID_24_);}
	.st84{fill-rule:evenodd;clip-rule:evenodd;fill:url(#SVGID_25_);}
	.st85{fill-rule:evenodd;clip-rule:evenodd;fill:url(#SVGID_26_);}
	.st86{fill-rule:evenodd;clip-rule:evenodd;fill:url(#SVGID_27_);}
	.st87{fill-rule:evenodd;clip-rule:evenodd;fill:url(#SVGID_28_);}
	.st88{fill-rule:evenodd;clip-rule:evenodd;fill:url(#SVGID_29_);}
	.st89{fill-rule:evenodd;clip-rule:evenodd;fill:url(#SVGID_30_);}
	.st90{fill-rule:evenodd;clip-rule:evenodd;fill:url(#SVGID_31_);}
	.st91{fill-rule:evenodd;clip-rule:evenodd;fill:url(#SVGID_32_);}
	.st92{fill-rule:evenodd;clip-rule:evenodd;fill:url(#SVGID_33_);}
	.st93{fill-rule:evenodd;clip-rule:evenodd;fill:url(#SVGID_34_);}
	.st94{fill-rule:evenodd;clip-rule:evenodd;fill:url(#SVGID_35_);}
	.st95{fill-rule:evenodd;clip-rule:evenodd;fill:url(#SVGID_36_);}
	.st96{fill-rule:evenodd;clip-rule:evenodd;fill:url(#SVGID_37_);}
	.st97{fill-rule:evenodd;clip-rule:evenodd;fill:url(#SVGID_38_);}
	.st98{fill-rule:evenodd;clip-rule:evenodd;fill:url(#SVGID_39_);}
	.st99{fill-rule:evenodd;clip-rule:evenodd;fill:url(#SVGID_40_);}
	.st100{fill-rule:evenodd;clip-rule:evenodd;fill:url(#SVGID_41_);}
	.st101{fill-rule:evenodd;clip-rule:evenodd;fill:url(#SVGID_42_);}
	.st102{fill-rule:evenodd;clip-rule:evenodd;fill:url(#SVGID_43_);}
	.st103{fill-rule:evenodd;clip-rule:evenodd;fill:url(#SVGID_44_);}
	.st104{fill:#F2E225;}
	.st105{opacity:0.4;fill:url(#SVGID_45_);}
	.st106{fill:#814BA2;}
	.st107{fill:#925CB4;}
	.st108{fill:#B289C9;}
	.st109{fill:#A274BF;}
	.st110{opacity:0.4;fill:url(#SVGID_46_);}
	.st111{fill:#813034;}
	.st112{fill:#802F34;}
	.st113{fill:#AFD2EF;}
	.st114{fill:#E54C3C;}
	.st115{fill:#57607F;}
	.st116{fill:#BF3A2C;}
	.st117{fill:#BF3A2B;}
	.st118{fill:#8796C8;}
	.st119{fill:#C88D95;}
	.st120{fill:#8696C9;}
	.st121{fill:#56607F;}
	.st122{fill:#E3E4E6;}
	.st123{fill:#D8DADE;}
	.st124{opacity:0.4;fill:url(#SVGID_47_);}
	.st125{fill:#F2582F;}
	.st126{fill:#FF7043;}
	.st127{fill:#8E2611;}
	.st128{fill:#E53935;}
	.st129{fill:#F0534A;}
	.st130{fill:#D5D5D3;}
	.st131{opacity:0.4;fill:url(#SVGID_48_);}
	.st132{fill:#F8749D;}
	.st133{fill:#403063;}
	.st134{fill:#403365;}
	.st135{fill:#403264;}
	.st136{fill:#413265;}
	.st137{fill:#E4E5E6;}
	.st138{fill:#E2E2E4;}
	.st139{fill:#DEDEE2;}
	.st140{fill:#3D2E61;}
	.st141{fill:#FDF7F9;}
	.st142{fill:#FDD6E4;}
	.st143{opacity:0.4;fill:url(#SVGID_49_);}
	.st144{fill:#C20047;}
	.st145{fill:#FE405C;}
	.st146{fill:#B1D3EF;}
	.st147{fill:#E0F1FD;}
	.st148{opacity:0.4;fill:url(#SVGID_50_);}
	.st149{opacity:0.4;fill:url(#SVGID_51_);}
	.st150{opacity:0.4;fill:url(#SVGID_52_);}
	.st151{opacity:0.4;fill:url(#SVGID_53_);}
	.st152{opacity:0.4;fill:url(#SVGID_54_);}
	.st153{opacity:0.4;fill:url(#SVGID_55_);}
	.st154{opacity:0.4;fill:url(#SVGID_56_);}
	.st155{fill:#FF5F85;}
	.st156{fill:#FFE878;}
	.st157{fill:#B2527E;}
	.st158{fill:#004FAB;}
	.st159{fill:#57A3FE;}
	.st160{fill:#FEFEFE;}
	.st161{fill:#37A6CD;}
	.st162{fill:#E19A4B;}
	.st163{fill:#54BBE8;}
	.st164{fill:#FBB55F;}
	.st165{fill:#E29A4C;}
	.st166{fill:#E4E8E9;}
	.st167{fill:#D1D0D0;}
	.st168{fill:#E3E7E8;}
	.st169{fill:#566369;}
	.st170{fill:#E19A4C;}
	.st171{fill:#445155;}
	.st172{fill:#E4E7E7;}
	.st173{fill:#566368;}
	.st174{fill:#6E7A7E;}
	.st175{fill:#435054;}
	.st176{fill:#5E5461;}
	.st177{fill:#6F6571;}
	.st178{fill:#5D5360;}
	.st179{fill:#4B3F4E;}
	.st180{fill:#FCCE64;}
	.st181{fill:#FEDF7E;}
	.st182{fill:#857D86;}
	.st183{fill:#3E8FC8;}
	.st184{fill:#FCB630;}
	.st185{fill:#88B237;}
	.st186{fill:#E7594A;}
	.st187{fill:#4398D0;}
	.st188{fill:#D55245;}
	.st189{fill:#80A734;}
	.st190{fill:#FEA71A;}
	.st191{fill:#FAD390;}
	.st192{fill:#F2D45C;}
	.st193{fill:#FA7B76;}
	.st194{fill:#FE5364;}
	.st195{fill:#F8E3C1;}
	.st196{fill:#2D5871;}
	.st197{fill:#FDD8A7;}
	.st198{fill:#E0EEFA;}
	.st199{fill:#F3C792;}
	.st200{fill:#CBDEEC;}
	.st201{fill:#FE4D4C;}
	.st202{fill:#F23A3A;}
	.st203{fill:#1D4859;}
	.st204{fill:#FEB025;}
	.st205{fill:#FE901D;}
	.st206{fill:#1E495A;}
	.st207{fill:#2F5972;}
	.st208{fill:#F3C892;}
	.st209{opacity:0.4;fill:url(#SVGID_57_);}
	.st210{opacity:0.4;fill:url(#SVGID_58_);}
	.st211{fill:#949AA8;}
	.st212{fill:#B3B3B3;}
	.st213{fill:#575D72;}
	.st214{fill:#A3E0F4;}
	.st215{fill:#C2EAF8;}
	.st216{fill:#28304E;}
	.st217{fill:#EC5176;}
	.st218{fill:#FECC34;}
	.st219{fill:#FE76A3;}
	.st220{fill:#E69115;}
	.st221{fill:#FF0000;}
	.st222{fill:#F4AE00;}
	.st223{opacity:0.12;fill:#1B1E23;}
	.st224{fill:#E7E8FA;}
	.st225{fill:#57A845;}
	.st226{fill:none;stroke:#283847;stroke-width:1.2169;stroke-miterlimit:10;}
	.st227{opacity:0.5;fill:#283847;}
	.st228{fill:#6B98F6;}
	.st229{fill:#79AFFF;}
	.st230{clip-path:url(#XMLID_3_);fill:#79AFFF;}
	.st231{clip-path:url(#XMLID_3_);}
	.st232{fill:none;stroke:#212121;stroke-width:1.5836;stroke-linecap:round;stroke-linejoin:round;stroke-miterlimit:10;}
	.st233{fill:#17566C;}
	.st234{clip-path:url(#XMLID_6_);fill:#79AFFF;}
	.st235{clip-path:url(#XMLID_6_);fill:#2072A9;}
	.st236{clip-path:url(#XMLID_6_);fill:#2175B8;}
	.st237{opacity:0.02;clip-path:url(#XMLID_9_);}
	.st238{opacity:0.13;clip-path:url(#XMLID_9_);fill:#FFFFFF;}
	.st239{fill:none;stroke:#212121;stroke-width:0.5;stroke-linecap:round;stroke-linejoin:round;stroke-miterlimit:10;}
	.st240{fill:#212121;}
	.st241{opacity:0.02;clip-path:url(#XMLID_19_);}
	.st242{opacity:0.13;clip-path:url(#XMLID_19_);fill:#FFFFFF;}
	.st243{clip-path:url(#XMLID_20_);fill:#B0C7D8;}
	.st244{clip-path:url(#XMLID_21_);fill:#3A4149;}
	.st245{fill:#FBFFFF;}
	.st246{fill:#EEEEEE;}
	.st247{fill:#FF7B35;}
	.st248{fill:#509DFF;}
	.st249{fill:#B0C7D8;}
	.st250{opacity:0.3;fill:#FFFFFC;}
	.st251{clip-path:url(#XMLID_26_);fill:#FC6C2B;}
	.st252{fill:#B8D0E5;}
	.st253{fill:none;stroke:#000000;stroke-width:2.5763;stroke-miterlimit:10;}
	.st254{opacity:0.12;clip-path:url(#XMLID_27_);}
	.st255{clip-path:url(#XMLID_28_);fill:#217AAB;}
	.st256{opacity:0.2;}
	.st257{opacity:0.12;clip-path:url(#XMLID_29_);fill:#FFFFFF;}
	.st258{opacity:0.03;clip-path:url(#XMLID_42_);}
	.st259{opacity:0.03;clip-path:url(#XMLID_43_);fill:#010102;}
	.st260{opacity:0.04;clip-path:url(#XMLID_44_);}
	.st261{fill:#FDAF00;}
	.st262{fill:#FF7C00;}
	.st263{opacity:0.3;clip-path:url(#XMLID_45_);}
	.st264{opacity:0.3;}
	.st265{fill:none;stroke:#212121;stroke-width:0.9542;stroke-linecap:round;stroke-linejoin:round;stroke-miterlimit:10;}
	.st266{opacity:0.3;clip-path:url(#XMLID_47_);}
	.st267{fill:none;stroke:#212121;stroke-width:1.188;stroke-linecap:round;stroke-linejoin:round;stroke-miterlimit:10;}
	.st268{fill:#FF9D38;}
	.st269{fill:#C8DFFD;}
	.st270{fill:#A8CCFF;}
	.st271{fill:#D5E9FF;}
	.st272{fill:#B8D0FC;}
	.st273{fill:#0B3563;}
	.st274{fill:none;stroke:#BEDBF7;stroke-width:1.0668;stroke-miterlimit:10;}
	.st275{fill:#25468F;}
	.st276{fill:#E4EEF7;}
	.st277{fill:none;stroke:#3A65C9;stroke-width:1.0668;stroke-miterlimit:10;}
	.st278{fill:none;stroke:#3A65C9;stroke-width:1.001;stroke-miterlimit:10;}
	.st279{fill:#FF5521;}
	.st280{fill:#3A65C9;}
	.st281{fill:none;stroke:#FFCC40;stroke-width:2.1337;stroke-linecap:round;stroke-linejoin:round;stroke-miterlimit:10;}
	.st282{fill:#BEDBF7;}
	.st283{fill:none;stroke:#FFFFFF;stroke-width:1.2169;stroke-miterlimit:10;}
	.st284{fill:#10477B;}
	.st285{fill:#D44C10;}
	.st286{fill:#FF912B;}
	.st287{fill:#FC7600;}
	.st288{fill:#FFAE73;}
	.st289{fill:#FC9F38;}
	.st290{fill:#E65F00;}
	.st291{fill:#4681E1;}
	.st292{fill:#032444;}
	.st293{fill:#0D458E;}
	.st294{fill:#1E3865;}
	.st295{fill:#F48F4E;}
	.st296{fill:#254C82;}
	.st297{fill:#F9924F;}
	.st298{opacity:0.5;}
	.st299{fill:#499936;}
	.st300{fill:url(#SVGID_59_);}
	.st301{opacity:0.08;fill:#FFFFFF;}
	.st302{opacity:0.31;fill:#323197;}
	.st303{fill:#F5F5F7;}
	.st304{fill:#A1C2FF;}
	.st305{fill:#FF8D02;}
	.st306{opacity:0.08;}
	.st307{fill:none;stroke:#FFFFFF;stroke-width:2;stroke-linecap:round;stroke-linejoin:round;stroke-miterlimit:10;}
	.st308{opacity:0.44;fill:none;stroke:#FFFFFF;stroke-miterlimit:10;}
	.st309{opacity:0.4;fill:url(#SVGID_60_);}
	.st310{opacity:0.4;fill:url(#SVGID_61_);}
	.st311{fill:#010200;}
	.st312{opacity:0.4;fill:url(#SVGID_62_);}
	.st313{fill:#F74A2D;stroke:#000000;stroke-width:0.35;stroke-miterlimit:10;}
	.st314{clip-path:url(#SVGID_63_);fill:url(#SVGID_64_);}
	.st315{clip-path:url(#SVGID_63_);fill:url(#SVGID_65_);}
	.st316{clip-path:url(#SVGID_63_);fill:url(#SVGID_66_);}
	.st317{clip-path:url(#SVGID_63_);fill:url(#SVGID_67_);}
	.st318{fill:#393D43;}
	.st319{fill:#FDFDFB;}
	.st320{fill:#0086CE;}
	.st321{fill:#69B545;}
	.st322{fill:#D6347C;}
	.st323{fill:#F07F32;}
	.st324{fill:#6F519D;}
	.st325{fill-rule:evenodd;clip-rule:evenodd;fill:#51555B;}
	.st326{fill-rule:evenodd;clip-rule:evenodd;fill:#393D43;}
	.st327{fill:#003A70;}
	.st328{fill:url(#SVGID_68_);}
	.st329{fill:#003399;}
	.st330{fill-rule:evenodd;clip-rule:evenodd;fill:#003399;}
	.st331{fill:#A1A1A1;}
	.st332{fill-rule:evenodd;clip-rule:evenodd;fill:#006677;}
	.st333{fill-rule:evenodd;clip-rule:evenodd;fill:#E45300;}
	.st334{fill-rule:evenodd;clip-rule:evenodd;fill:#2156A6;}
	.st335{fill:#2156A6;}
	.st336{fill:#FB6E3B;}
	.st337{fill:#00C9BD;}
	.st338{fill-rule:evenodd;clip-rule:evenodd;fill:#00ACD8;}
	.st339{fill-rule:evenodd;clip-rule:evenodd;}
	.st340{fill-rule:evenodd;clip-rule:evenodd;fill:#0056A6;}
	.st341{fill-rule:evenodd;clip-rule:evenodd;fill:#F48120;}
	.st342{fill-rule:evenodd;clip-rule:evenodd;fill:#2E3191;}
	.st343{fill:#FBDA00;}
	.st344{fill:#1F1A17;}
	.st345{fill:#007CC2;}
	.st346{fill:#DA251C;}
	.st347{fill-rule:evenodd;clip-rule:evenodd;fill:#F0F0F0;}
	.st348{fill-rule:evenodd;clip-rule:evenodd;fill:#FECF22;}
	.st349{fill-rule:evenodd;clip-rule:evenodd;fill:#006AB4;}
	.st350{fill-rule:evenodd;clip-rule:evenodd;fill:#D61627;}
	.st351{fill-rule:evenodd;clip-rule:evenodd;fill:#E6E6E6;}
	.st352{fill:#007BC2;}
	.st353{fill:#231F20;}
	.st354{fill:#EC1C25;}
	.st355{fill:#243E92;}
	.st356{fill:#E22228;}
	.st357{fill:#FAD701;}
	.st358{fill-rule:evenodd;clip-rule:evenodd;fill:#E61F20;}
	.st359{fill-rule:evenodd;clip-rule:evenodd;fill:#004B97;}
	.st360{fill-rule:evenodd;clip-rule:evenodd;fill:#E50013;}
	.st361{fill-rule:evenodd;clip-rule:evenodd;fill:url(#SVGID_71_);}
	.st362{fill-rule:evenodd;clip-rule:evenodd;fill:url(#SVGID_72_);}
	.st363{fill-rule:evenodd;clip-rule:evenodd;fill:#412A8B;}
</style>
<linearGradient id="SVGID_2_" gradientUnits="userSpaceOnUse" x1="-2807.2954" y1="-850.6417" x2="-2754.4094" y2="-850.6417" gradientTransform="matrix(0 1 -1 0 -824.1987 2807.2954)">
	<stop  offset="0" style="stop-color:#F9F9F9;stop-opacity:0"/>
	<stop  offset="1" style="stop-color:#EAEAEA"/>
</linearGradient>
<circle style="opacity:0.4;fill:url(#SVGID_2_);" cx="26.44" cy="26.44" r="26.44"/>
<g>
	<path class="st191" d="M21.76,26.05c-0.01-0.09-0.08-0.14-0.14-0.2c-0.57-0.58-1.15-1.15-1.72-1.73c-0.11-0.12-0.24-0.18-0.41-0.18
		c-1.19,0.05-2.24-0.37-3.23-0.98c-0.65-0.39-1.26-0.83-1.68-1.49c-0.34-0.53-0.55-1.1-0.6-1.73c0-0.04-0.01-0.08-0.05-0.11
		c0-0.2,0-0.39,0-0.59c0.09-0.13,0.06-0.3,0.09-0.44c0.47-2.26,1.79-3.75,3.98-4.48c0.25-0.08,0.53-0.08,0.77-0.21
		c0.36,0,0.72,0,1.07,0c0.12,0.09,0.27,0.08,0.41,0.11c0.95,0.24,1.68,0.78,2.25,1.56c0.58,0.8,1.05,1.66,1.29,2.63
		c0.1,0.41,0.15,0.83,0.14,1.25c0,0.14,0.01,0.28,0.12,0.38c0.65,0.64,1.29,1.28,1.94,1.92c-0.44,0.45-0.87,0.89-1.32,1.34
		C23.71,24.11,22.74,25.08,21.76,26.05z M18.73,21.85c0.04,0,0.08,0,0.12,0c0.34,0,0.55-0.18,0.56-0.48
		c0.01-0.26-0.24-0.49-0.55-0.5c-1.36-0.06-2.37-1.09-2.43-2.46c-0.01-0.27-0.24-0.51-0.48-0.52c-0.26,0-0.48,0.25-0.49,0.53
		c-0.01,0.44,0.09,0.85,0.25,1.25C16.16,20.91,17.48,21.85,18.73,21.85z"/>
	<path class="st192" d="M31.92,24.33c0.87-0.05,1.72,0.04,2.55,0.31c1.53,0.5,2.74,1.42,3.54,2.82c1.27,2.24,1.2,4.55,0.11,6.82
		c-1.02,2.11-2.68,3.54-4.91,4.29c-0.83,0.28-1.69,0.4-2.57,0.37c-3.09-0.1-5.61-2.18-6.2-5.19c-0.12-0.59-0.14-1.19-0.14-1.79
		c0.01-0.01,0.01-0.03,0.02-0.04c0.98-0.98,1.96-1.96,2.94-2.94c0.05-0.05,0.09-0.1,0.16-0.09c-0.05,0.16-0.16,0.28-0.25,0.42
		c-0.74,1.21-1.05,2.51-0.83,3.92c0.16,1,0.61,1.87,1.36,2.55c1.18,1.07,2.58,1.37,4.11,1.1c3.08-0.54,5.49-3.56,5.08-6.67
		c-0.17-1.25-0.73-2.29-1.76-3.03c-1.5-1.07-3.12-1.11-4.8-0.51c-0.52,0.18-0.97,0.49-1.44,0.75c-0.01-0.12,0.09-0.17,0.15-0.23
		c0.67-0.67,1.34-1.34,2.01-2.01C31.34,24.89,31.63,24.62,31.92,24.33z"/>
	<path class="st193" d="M31.92,24.33c-0.29,0.28-0.58,0.56-0.87,0.85c-0.67,0.67-1.34,1.34-2.01,2.01
		c-0.07,0.07-0.17,0.11-0.15,0.23c0,0,0,0,0,0c-0.03,0-0.05,0.02-0.05,0.05l0,0c-0.05-0.01-0.08,0-0.1,0.05l0,0
		c-0.02,0.02-0.03,0.03-0.05,0.05l0,0c-0.02,0.02-0.04,0.04-0.05,0.06c-0.38,0.33-0.73,0.68-1.05,1.06
		c-0.02,0.02-0.04,0.04-0.07,0.05l0,0c-0.02,0.02-0.03,0.03-0.05,0.05l0,0c-0.05,0.02-0.06,0.05-0.05,0.1l0,0
		c-0.08-0.01-0.12,0.04-0.16,0.09c-0.98,0.98-1.96,1.96-2.94,2.94c-0.01,0.01-0.02,0.03-0.02,0.04c-0.3,0.28-0.58,0.59-0.91,0.85
		c-1.16,0.94-2.85,0.35-3.17-1.12c-0.15-0.71,0.06-1.33,0.57-1.85c0.22-0.23,0.45-0.45,0.67-0.68c0.03-0.04,0.13-0.06,0.06-0.15
		c0.23-0.2,0.47-0.39,0.69-0.61c2.07-2.06,4.13-4.13,6.2-6.2c0.19-0.19,0.34-0.44,0.57-0.6c0.02-0.02,0.04-0.04,0.06-0.05l0,0
		c0.37-0.29,0.65-0.66,1.01-0.95c0.65-0.51,1.6-0.56,2.3-0.1c0.7,0.46,1.04,1.33,0.83,2.13c-0.1,0.39-0.31,0.71-0.58,1
		C32.37,23.87,32.14,24.1,31.92,24.33z"/>
	<path class="st194" d="M28.98,21.61c-0.23,0.16-0.37,0.4-0.57,0.6c-2.07,2.07-4.13,4.13-6.2,6.2c-0.22,0.22-0.46,0.41-0.69,0.61
		c-0.49,0.19-0.96,0.07-1.23-0.33c-0.28-0.41-0.23-0.9,0.14-1.29c0.44-0.45,0.89-0.9,1.34-1.35c0.97-0.97,1.95-1.94,2.92-2.91
		c0.44-0.44,0.88-0.89,1.32-1.34c0.47-0.46,0.93-0.93,1.4-1.38c0.58-0.55,1.49-0.29,1.67,0.47c0.05,0.23-0.02,0.45-0.04,0.67
		c0,0,0,0,0,0C28.99,21.55,28.98,21.58,28.98,21.61z"/>
	<path class="st195" d="M18.73,21.85c-1.26-0.01-2.57-0.94-3.03-2.17c-0.15-0.4-0.26-0.82-0.25-1.25c0.01-0.29,0.24-0.54,0.49-0.53
		c0.25,0,0.47,0.24,0.48,0.52c0.05,1.37,1.07,2.4,2.43,2.46c0.31,0.01,0.56,0.24,0.55,0.5c-0.01,0.29-0.22,0.48-0.56,0.48
		C18.81,21.85,18.77,21.85,18.73,21.85z"/>
	<path class="st192" d="M28.84,27.47c-0.02,0.05-0.05,0.06-0.1,0.05C28.76,27.47,28.79,27.46,28.84,27.47z"/>
	<path class="st192" d="M27.47,28.79c0.01,0.05-0.01,0.08-0.05,0.1C27.41,28.84,27.42,28.8,27.47,28.79z"/>
	<path class="st160" d="M28.98,21.61c0.01-0.03,0.01-0.06,0.06-0.05C29.01,21.57,28.99,21.59,28.98,21.61z"/>
	<path class="st192" d="M28.89,27.42c0,0.03-0.02,0.05-0.05,0.05C28.84,27.44,28.86,27.42,28.89,27.42z"/>
	<path class="st192" d="M28.74,27.52c0,0.04-0.02,0.05-0.05,0.05C28.71,27.55,28.72,27.54,28.74,27.52z"/>
	<path class="st192" d="M28.69,27.57c-0.02,0.02-0.04,0.04-0.05,0.06C28.66,27.61,28.67,27.59,28.69,27.57z"/>
	<path class="st192" d="M27.58,28.69c-0.02,0.02-0.04,0.04-0.07,0.05C27.54,28.72,27.56,28.71,27.58,28.69z"/>
	<path class="st192" d="M27.52,28.74c0,0.03-0.01,0.05-0.05,0.05C27.49,28.77,27.5,28.76,27.52,28.74z"/>
</g>
</svg>
