<?xml version="1.0" encoding="utf-8"?>
<!-- Generator: Adobe Illustrator 24.0.0, SVG Export Plug-In . SVG Version: 6.00 Build 0)  -->
<svg version="1.1" id="Layer_1" xmlns="http://www.w3.org/2000/svg" xmlns:xlink="http://www.w3.org/1999/xlink" x="0px" y="0px"
	 viewBox="0 0 141.46 46.27" style="enable-background:new 0 0 141.46 46.27;" xml:space="preserve">
<style type="text/css">
	.st0{fill:#6C727C;}
	.st1{fill:#FC5E31;}
	.st2{fill:#8CC63F;}
	.st3{fill:#F3F4F5;}
	.st4{fill:#F74A2D;}
	.st5{fill:#153663;}
	.st6{fill:#153765;}
	.st7{fill:#153867;}
	.st8{fill:#153969;}
	.st9{fill:#15396B;}
	.st10{fill:#153A6D;}
	.st11{fill:#153B6F;}
	.st12{fill:#153C71;}
	.st13{fill:#143D73;}
	.st14{fill:#143E75;}
	.st15{fill:#143E77;}
	.st16{fill:#143F79;}
	.st17{fill:#14407B;}
	.st18{fill:#14417D;}
	.st19{fill:#14427F;}
	.st20{fill:#144381;}
	.st21{fill:#144383;}
	.st22{fill:#144485;}
	.st23{fill:#144587;}
	.st24{fill:#144689;}
	.st25{fill:#14478B;}
	.st26{fill:#14488D;}
	.st27{fill:#14488F;}
	.st28{fill:#144991;}
	.st29{fill:#134A93;}
	.st30{fill:#134B95;}
	.st31{fill:#134C97;}
	.st32{fill:#134D99;}
	.st33{fill:#134D9B;}
	.st34{fill:#134E9D;}
	.st35{fill:#134F9F;}
	.st36{fill:#1350A1;}
	.st37{fill-rule:evenodd;clip-rule:evenodd;fill:#F1E7ED;}
	.st38{fill-rule:evenodd;clip-rule:evenodd;fill:#A893D0;}
	.st39{opacity:0.5;fill-rule:evenodd;clip-rule:evenodd;fill:#5D2C84;}
	.st40{fill-rule:evenodd;clip-rule:evenodd;fill:#CABDE2;}
	.st41{fill-rule:evenodd;clip-rule:evenodd;fill:#704E8D;}
	.st42{fill-rule:evenodd;clip-rule:evenodd;fill:#FBF9FB;}
	.st43{opacity:0.83;fill-rule:evenodd;clip-rule:evenodd;fill:url(#SVGID_2_);}
	.st44{opacity:0.83;fill-rule:evenodd;clip-rule:evenodd;fill:url(#SVGID_3_);}
	.st45{fill:#8D6B96;}
	.st46{opacity:0.2;fill-rule:evenodd;clip-rule:evenodd;fill:#864C90;}
	.st47{fill-rule:evenodd;clip-rule:evenodd;fill:#CECBEA;}
	.st48{fill-rule:evenodd;clip-rule:evenodd;fill:#39175A;}
	.st49{fill-rule:evenodd;clip-rule:evenodd;fill:#F83D45;}
	.st50{fill-rule:evenodd;clip-rule:evenodd;fill:#B32742;}
	.st51{fill-rule:evenodd;clip-rule:evenodd;fill:#A28BCC;}
	.st52{opacity:0.5;fill-rule:evenodd;clip-rule:evenodd;fill:#864C90;}
	.st53{fill-rule:evenodd;clip-rule:evenodd;fill:url(#SVGID_4_);}
	.st54{fill-rule:evenodd;clip-rule:evenodd;fill:url(#SVGID_6_);}
	.st55{fill:#B32742;}
	.st56{fill-rule:evenodd;clip-rule:evenodd;fill:url(#SVGID_8_);}
	.st57{fill-rule:evenodd;clip-rule:evenodd;fill:url(#SVGID_9_);}
	.st58{fill-rule:evenodd;clip-rule:evenodd;fill:#7A5AC4;}
	.st59{fill-rule:evenodd;clip-rule:evenodd;fill:#7A5AA7;}
	.st60{fill-rule:evenodd;clip-rule:evenodd;fill:#5A2967;}
	.st61{fill-rule:evenodd;clip-rule:evenodd;fill:#C4D1ED;}
	.st62{opacity:0.5;fill-rule:evenodd;clip-rule:evenodd;fill:#6D4C90;}
	.st63{fill:#7A5AA7;}
	.st64{fill:#39175A;}
	.st65{fill-rule:evenodd;clip-rule:evenodd;fill:url(#SVGID_10_);}
	.st66{fill:#FFFFFF;}
	.st67{fill-rule:evenodd;clip-rule:evenodd;fill:url(#SVGID_11_);}
	.st68{fill-rule:evenodd;clip-rule:evenodd;fill:url(#SVGID_12_);}
	.st69{fill-rule:evenodd;clip-rule:evenodd;fill:url(#SVGID_13_);}
	.st70{fill-rule:evenodd;clip-rule:evenodd;fill:url(#SVGID_14_);}
	.st71{fill-rule:evenodd;clip-rule:evenodd;fill:url(#SVGID_15_);}
	.st72{fill-rule:evenodd;clip-rule:evenodd;fill:url(#SVGID_16_);}
	.st73{fill-rule:evenodd;clip-rule:evenodd;fill:url(#SVGID_17_);}
	.st74{fill-rule:evenodd;clip-rule:evenodd;fill:url(#SVGID_18_);}
	.st75{fill-rule:evenodd;clip-rule:evenodd;fill:url(#SVGID_19_);}
	.st76{opacity:0.4;fill-rule:evenodd;clip-rule:evenodd;fill:#864C90;}
	.st77{fill-rule:evenodd;clip-rule:evenodd;fill:url(#SVGID_20_);}
	.st78{fill-rule:evenodd;clip-rule:evenodd;fill:#FFFFFF;}
	.st79{fill-rule:evenodd;clip-rule:evenodd;fill:url(#SVGID_21_);}
	.st80{opacity:0.44;fill-rule:evenodd;clip-rule:evenodd;fill:#60003B;}
	.st81{fill-rule:evenodd;clip-rule:evenodd;fill:url(#SVGID_22_);}
	.st82{fill-rule:evenodd;clip-rule:evenodd;fill:url(#SVGID_23_);}
	.st83{fill-rule:evenodd;clip-rule:evenodd;fill:url(#SVGID_24_);}
	.st84{fill-rule:evenodd;clip-rule:evenodd;fill:url(#SVGID_25_);}
	.st85{fill-rule:evenodd;clip-rule:evenodd;fill:url(#SVGID_26_);}
	.st86{fill-rule:evenodd;clip-rule:evenodd;fill:url(#SVGID_27_);}
	.st87{fill-rule:evenodd;clip-rule:evenodd;fill:url(#SVGID_28_);}
	.st88{fill-rule:evenodd;clip-rule:evenodd;fill:url(#SVGID_29_);}
	.st89{fill-rule:evenodd;clip-rule:evenodd;fill:url(#SVGID_30_);}
	.st90{fill-rule:evenodd;clip-rule:evenodd;fill:url(#SVGID_31_);}
	.st91{fill-rule:evenodd;clip-rule:evenodd;fill:url(#SVGID_32_);}
	.st92{fill-rule:evenodd;clip-rule:evenodd;fill:url(#SVGID_33_);}
	.st93{fill-rule:evenodd;clip-rule:evenodd;fill:url(#SVGID_34_);}
	.st94{fill-rule:evenodd;clip-rule:evenodd;fill:url(#SVGID_35_);}
	.st95{fill-rule:evenodd;clip-rule:evenodd;fill:url(#SVGID_36_);}
	.st96{fill-rule:evenodd;clip-rule:evenodd;fill:url(#SVGID_37_);}
	.st97{fill-rule:evenodd;clip-rule:evenodd;fill:url(#SVGID_38_);}
	.st98{fill-rule:evenodd;clip-rule:evenodd;fill:url(#SVGID_39_);}
	.st99{fill-rule:evenodd;clip-rule:evenodd;fill:url(#SVGID_40_);}
	.st100{fill-rule:evenodd;clip-rule:evenodd;fill:url(#SVGID_41_);}
	.st101{fill-rule:evenodd;clip-rule:evenodd;fill:url(#SVGID_42_);}
	.st102{fill-rule:evenodd;clip-rule:evenodd;fill:url(#SVGID_43_);}
	.st103{fill-rule:evenodd;clip-rule:evenodd;fill:url(#SVGID_44_);}
	.st104{fill:#F2E225;}
	.st105{opacity:0.4;fill:url(#SVGID_45_);}
	.st106{fill:#814BA2;}
	.st107{fill:#925CB4;}
	.st108{fill:#B289C9;}
	.st109{fill:#A274BF;}
	.st110{opacity:0.4;fill:url(#SVGID_46_);}
	.st111{fill:#813034;}
	.st112{fill:#802F34;}
	.st113{fill:#AFD2EF;}
	.st114{fill:#E54C3C;}
	.st115{fill:#57607F;}
	.st116{fill:#BF3A2C;}
	.st117{fill:#BF3A2B;}
	.st118{fill:#8796C8;}
	.st119{fill:#C88D95;}
	.st120{fill:#8696C9;}
	.st121{fill:#56607F;}
	.st122{fill:#E3E4E6;}
	.st123{fill:#D8DADE;}
	.st124{opacity:0.4;fill:url(#SVGID_47_);}
	.st125{fill:#F2582F;}
	.st126{fill:#FF7043;}
	.st127{fill:#8E2611;}
	.st128{fill:#E53935;}
	.st129{fill:#F0534A;}
	.st130{fill:#D5D5D3;}
	.st131{opacity:0.4;fill:url(#SVGID_48_);}
	.st132{fill:#F8749D;}
	.st133{fill:#403063;}
	.st134{fill:#403365;}
	.st135{fill:#403264;}
	.st136{fill:#413265;}
	.st137{fill:#E4E5E6;}
	.st138{fill:#E2E2E4;}
	.st139{fill:#DEDEE2;}
	.st140{fill:#3D2E61;}
	.st141{fill:#FDF7F9;}
	.st142{fill:#FDD6E4;}
	.st143{opacity:0.4;fill:url(#SVGID_49_);}
	.st144{fill:#C20047;}
	.st145{fill:#FE405C;}
	.st146{fill:#B1D3EF;}
	.st147{fill:#E0F1FD;}
	.st148{opacity:0.4;fill:url(#SVGID_50_);}
	.st149{opacity:0.4;fill:url(#SVGID_51_);}
	.st150{opacity:0.4;fill:url(#SVGID_52_);}
	.st151{opacity:0.4;fill:url(#SVGID_53_);}
	.st152{opacity:0.4;fill:url(#SVGID_54_);}
	.st153{opacity:0.4;fill:url(#SVGID_55_);}
	.st154{opacity:0.4;fill:url(#SVGID_56_);}
	.st155{fill:#FF5F85;}
	.st156{fill:#FFE878;}
	.st157{fill:#B2527E;}
	.st158{fill:#004FAB;}
	.st159{fill:#57A3FE;}
	.st160{fill:#FEFEFE;}
	.st161{fill:#37A6CD;}
	.st162{fill:#E19A4B;}
	.st163{fill:#54BBE8;}
	.st164{fill:#FBB55F;}
	.st165{fill:#E29A4C;}
	.st166{fill:#E4E8E9;}
	.st167{fill:#D1D0D0;}
	.st168{fill:#E3E7E8;}
	.st169{fill:#566369;}
	.st170{fill:#E19A4C;}
	.st171{fill:#445155;}
	.st172{fill:#E4E7E7;}
	.st173{fill:#566368;}
	.st174{fill:#6E7A7E;}
	.st175{fill:#435054;}
	.st176{fill:#5E5461;}
	.st177{fill:#6F6571;}
	.st178{fill:#5D5360;}
	.st179{fill:#4B3F4E;}
	.st180{fill:#FCCE64;}
	.st181{fill:#FEDF7E;}
	.st182{fill:#857D86;}
	.st183{fill:#3E8FC8;}
	.st184{fill:#FCB630;}
	.st185{fill:#88B237;}
	.st186{fill:#E7594A;}
	.st187{fill:#4398D0;}
	.st188{fill:#D55245;}
	.st189{fill:#80A734;}
	.st190{fill:#FEA71A;}
	.st191{fill:#FAD390;}
	.st192{fill:#F2D45C;}
	.st193{fill:#FA7B76;}
	.st194{fill:#FE5364;}
	.st195{fill:#F8E3C1;}
	.st196{fill:#2D5871;}
	.st197{fill:#FDD8A7;}
	.st198{fill:#E0EEFA;}
	.st199{fill:#F3C792;}
	.st200{fill:#CBDEEC;}
	.st201{fill:#FE4D4C;}
	.st202{fill:#F23A3A;}
	.st203{fill:#1D4859;}
	.st204{fill:#FEB025;}
	.st205{fill:#FE901D;}
	.st206{fill:#1E495A;}
	.st207{fill:#2F5972;}
	.st208{fill:#F3C892;}
	.st209{opacity:0.4;fill:url(#SVGID_57_);}
	.st210{opacity:0.4;fill:url(#SVGID_58_);}
	.st211{fill:#949AA8;}
	.st212{fill:#B3B3B3;}
	.st213{fill:#575D72;}
	.st214{fill:#A3E0F4;}
	.st215{fill:#C2EAF8;}
	.st216{fill:#28304E;}
	.st217{fill:#EC5176;}
	.st218{fill:#FECC34;}
	.st219{fill:#FE76A3;}
	.st220{fill:#E69115;}
	.st221{fill:#FF0000;}
	.st222{fill:#F4AE00;}
	.st223{opacity:0.12;fill:#1B1E23;}
	.st224{fill:#E7E8FA;}
	.st225{fill:#57A845;}
	.st226{fill:none;stroke:#283847;stroke-width:1.2169;stroke-miterlimit:10;}
	.st227{opacity:0.5;fill:#283847;}
	.st228{fill:#6B98F6;}
	.st229{fill:#79AFFF;}
	.st230{clip-path:url(#XMLID_3_);fill:#79AFFF;}
	.st231{clip-path:url(#XMLID_3_);}
	.st232{fill:none;stroke:#212121;stroke-width:1.5836;stroke-linecap:round;stroke-linejoin:round;stroke-miterlimit:10;}
	.st233{fill:#17566C;}
	.st234{clip-path:url(#XMLID_6_);fill:#79AFFF;}
	.st235{clip-path:url(#XMLID_6_);fill:#2072A9;}
	.st236{clip-path:url(#XMLID_6_);fill:#2175B8;}
	.st237{opacity:0.02;clip-path:url(#XMLID_9_);}
	.st238{opacity:0.13;clip-path:url(#XMLID_9_);fill:#FFFFFF;}
	.st239{fill:none;stroke:#212121;stroke-width:0.5;stroke-linecap:round;stroke-linejoin:round;stroke-miterlimit:10;}
	.st240{fill:#212121;}
	.st241{opacity:0.02;clip-path:url(#XMLID_19_);}
	.st242{opacity:0.13;clip-path:url(#XMLID_19_);fill:#FFFFFF;}
	.st243{clip-path:url(#XMLID_20_);fill:#B0C7D8;}
	.st244{clip-path:url(#XMLID_21_);fill:#3A4149;}
	.st245{fill:#FBFFFF;}
	.st246{fill:#EEEEEE;}
	.st247{fill:#FF7B35;}
	.st248{fill:#509DFF;}
	.st249{fill:#B0C7D8;}
	.st250{opacity:0.3;fill:#FFFFFC;}
	.st251{clip-path:url(#XMLID_26_);fill:#FC6C2B;}
	.st252{fill:#B8D0E5;}
	.st253{fill:none;stroke:#000000;stroke-width:2.5763;stroke-miterlimit:10;}
	.st254{opacity:0.12;clip-path:url(#XMLID_27_);}
	.st255{clip-path:url(#XMLID_28_);fill:#217AAB;}
	.st256{opacity:0.2;}
	.st257{opacity:0.12;clip-path:url(#XMLID_29_);fill:#FFFFFF;}
	.st258{opacity:0.03;clip-path:url(#XMLID_42_);}
	.st259{opacity:0.03;clip-path:url(#XMLID_43_);fill:#010102;}
	.st260{opacity:0.04;clip-path:url(#XMLID_44_);}
	.st261{fill:#FDAF00;}
	.st262{fill:#FF7C00;}
	.st263{opacity:0.3;clip-path:url(#XMLID_45_);}
	.st264{opacity:0.3;}
	.st265{fill:none;stroke:#212121;stroke-width:0.9542;stroke-linecap:round;stroke-linejoin:round;stroke-miterlimit:10;}
	.st266{opacity:0.3;clip-path:url(#XMLID_47_);}
	.st267{fill:none;stroke:#212121;stroke-width:1.188;stroke-linecap:round;stroke-linejoin:round;stroke-miterlimit:10;}
	.st268{fill:#FF9D38;}
	.st269{fill:#C8DFFD;}
	.st270{fill:#A8CCFF;}
	.st271{fill:#D5E9FF;}
	.st272{fill:#B8D0FC;}
	.st273{fill:#0B3563;}
	.st274{fill:none;stroke:#BEDBF7;stroke-width:1.0668;stroke-miterlimit:10;}
	.st275{fill:#25468F;}
	.st276{fill:#E4EEF7;}
	.st277{fill:none;stroke:#3A65C9;stroke-width:1.0668;stroke-miterlimit:10;}
	.st278{fill:none;stroke:#3A65C9;stroke-width:1.001;stroke-miterlimit:10;}
	.st279{fill:#FF5521;}
	.st280{fill:#3A65C9;}
	.st281{fill:none;stroke:#FFCC40;stroke-width:2.1337;stroke-linecap:round;stroke-linejoin:round;stroke-miterlimit:10;}
	.st282{fill:#BEDBF7;}
	.st283{fill:none;stroke:#FFFFFF;stroke-width:1.2169;stroke-miterlimit:10;}
	.st284{fill:#10477B;}
	.st285{fill:#D44C10;}
	.st286{fill:#FF912B;}
	.st287{fill:#FC7600;}
	.st288{fill:#FFAE73;}
	.st289{fill:#FC9F38;}
	.st290{fill:#E65F00;}
	.st291{fill:#4681E1;}
	.st292{fill:#032444;}
	.st293{fill:#0D458E;}
	.st294{fill:#1E3865;}
	.st295{fill:#F48F4E;}
	.st296{fill:#254C82;}
	.st297{fill:#F9924F;}
	.st298{opacity:0.5;}
	.st299{fill:#499936;}
	.st300{fill:url(#SVGID_59_);}
	.st301{opacity:0.08;fill:#FFFFFF;}
	.st302{opacity:0.31;fill:#323197;}
	.st303{fill:#F5F5F7;}
	.st304{fill:#A1C2FF;}
	.st305{fill:#FF8D02;}
	.st306{opacity:0.08;}
	.st307{fill:none;stroke:#FFFFFF;stroke-width:2;stroke-linecap:round;stroke-linejoin:round;stroke-miterlimit:10;}
	.st308{opacity:0.44;fill:none;stroke:#FFFFFF;stroke-miterlimit:10;}
	.st309{opacity:0.4;fill:url(#SVGID_60_);}
	.st310{opacity:0.4;fill:url(#SVGID_61_);}
	.st311{fill:#010200;}
	.st312{opacity:0.4;fill:url(#SVGID_62_);}
	.st313{fill:#F74A2D;stroke:#000000;stroke-width:0.35;stroke-miterlimit:10;}
	.st314{clip-path:url(#SVGID_63_);fill:url(#SVGID_64_);}
	.st315{clip-path:url(#SVGID_63_);fill:url(#SVGID_65_);}
	.st316{clip-path:url(#SVGID_63_);fill:url(#SVGID_66_);}
	.st317{clip-path:url(#SVGID_63_);fill:url(#SVGID_67_);}
	.st318{fill:#393D43;}
	.st319{fill:#FDFDFB;}
	.st320{fill:#0086CE;}
	.st321{fill:#69B545;}
	.st322{fill:#D6347C;}
	.st323{fill:#F07F32;}
	.st324{fill:#6F519D;}
	.st325{fill-rule:evenodd;clip-rule:evenodd;fill:#51555B;}
	.st326{fill-rule:evenodd;clip-rule:evenodd;fill:#393D43;}
	.st327{fill:#003A70;}
	.st328{fill:url(#SVGID_68_);}
	.st329{fill:#003399;}
	.st330{fill-rule:evenodd;clip-rule:evenodd;fill:#003399;}
	.st331{fill:#A1A1A1;}
	.st332{fill-rule:evenodd;clip-rule:evenodd;fill:#006677;}
	.st333{fill-rule:evenodd;clip-rule:evenodd;fill:#E45300;}
	.st334{fill-rule:evenodd;clip-rule:evenodd;fill:#2156A6;}
	.st335{fill:#2156A6;}
	.st336{fill:#FB6E3B;}
	.st337{fill:#00C9BD;}
	.st338{fill-rule:evenodd;clip-rule:evenodd;fill:#00ACD8;}
	.st339{fill-rule:evenodd;clip-rule:evenodd;}
	.st340{fill-rule:evenodd;clip-rule:evenodd;fill:#0056A6;}
	.st341{fill-rule:evenodd;clip-rule:evenodd;fill:#F48120;}
	.st342{fill-rule:evenodd;clip-rule:evenodd;fill:#2E3191;}
	.st343{fill:#FBDA00;}
	.st344{fill:#1F1A17;}
	.st345{fill:#007CC2;}
	.st346{fill:#DA251C;}
	.st347{fill-rule:evenodd;clip-rule:evenodd;fill:#F0F0F0;}
	.st348{fill-rule:evenodd;clip-rule:evenodd;fill:#FECF22;}
	.st349{fill-rule:evenodd;clip-rule:evenodd;fill:#006AB4;}
	.st350{fill-rule:evenodd;clip-rule:evenodd;fill:#D61627;}
	.st351{fill-rule:evenodd;clip-rule:evenodd;fill:#E6E6E6;}
	.st352{fill:#007BC2;}
	.st353{fill:#231F20;}
	.st354{fill:#EC1C25;}
	.st355{fill:#243E92;}
	.st356{fill:#E22228;}
	.st357{fill:#FAD701;}
	.st358{fill-rule:evenodd;clip-rule:evenodd;fill:#E61F20;}
	.st359{fill-rule:evenodd;clip-rule:evenodd;fill:#004B97;}
	.st360{fill-rule:evenodd;clip-rule:evenodd;fill:#E50013;}
	.st361{fill-rule:evenodd;clip-rule:evenodd;fill:url(#SVGID_71_);}
	.st362{fill-rule:evenodd;clip-rule:evenodd;fill:url(#SVGID_72_);}
	.st363{fill-rule:evenodd;clip-rule:evenodd;fill:#412A8B;}
</style>
<g>
	<path class="st66" d="M141.46,40.02c0,3.45-2.8,6.25-6.25,6.25H6.25C2.8,46.27,0,43.47,0,40.02V6.25C0,2.8,2.8,0,6.25,0h128.95
		c3.45,0,6.25,2.8,6.25,6.25V40.02z"/>
	<g id="PLAY_1_">
		<defs>
			<path id="SVGID_7_" d="M30.66,20.37l-6.38-3.68c0,0-11.62-6.71-12.3-7.1c-0.68-0.39-1.36-0.16-1.36,0.67c0,1.37,0,14.33,0,14.33
				s0,14,0,14.62c0,0.62,0.49,0.88,1.08,0.54c0.59-0.34,12.59-7.27,12.59-7.27l6.38-3.68c0,0,5.41-3.12,6.13-3.54
				c0.72-0.42,0.65-0.99,0.04-1.31C36.22,23.61,30.66,20.37,30.66,20.37z"/>
		</defs>
		<clipPath id="SVGID_2_">
			<use xlink:href="#SVGID_7_"  style="overflow:visible;"/>
		</clipPath>
		<linearGradient id="SVGID_3_" gradientUnits="userSpaceOnUse" x1="18.5111" y1="8.9085" x2="18.5111" y2="40.2443">
			<stop  offset="0" style="stop-color:#257DB0"/>
			<stop  offset="0.208" style="stop-color:#3C90B3"/>
			<stop  offset="0.7416" style="stop-color:#73BDB9"/>
			<stop  offset="1" style="stop-color:#89CEBC"/>
		</linearGradient>
		<polygon style="clip-path:url(#SVGID_2_);fill:url(#SVGID_3_);" points="10.61,8.91 10.61,24.58 10.61,40.24 26.41,24.58 		"/>
		<linearGradient id="SVGID_4_" gradientUnits="userSpaceOnUse" x1="10.6104" y1="16.6856" x2="30.6559" y2="16.6856">
			<stop  offset="0" style="stop-color:#51BFAC"/>
			<stop  offset="1" style="stop-color:#DEE899"/>
		</linearGradient>
		<polygon style="clip-path:url(#SVGID_2_);fill:url(#SVGID_4_);" points="30.66,20.37 24.28,16.69 10.61,8.79 10.61,8.91 
			26.41,24.58 		"/>
		<linearGradient id="SVGID_6_" gradientUnits="userSpaceOnUse" x1="20.633" y1="24.5767" x2="20.633" y2="40.3583">
			<stop  offset="0" style="stop-color:#EB403D"/>
			<stop  offset="0.1937" style="stop-color:#D64252"/>
			<stop  offset="0.7369" style="stop-color:#9F4887"/>
			<stop  offset="1" style="stop-color:#894A9C"/>
		</linearGradient>
		<polygon style="clip-path:url(#SVGID_2_);fill:url(#SVGID_6_);" points="10.61,40.24 10.61,40.36 24.28,32.47 30.66,28.78 
			26.41,24.58 		"/>
		<linearGradient id="SVGID_8_" gradientUnits="userSpaceOnUse" x1="32.1784" y1="20.3682" x2="32.1784" y2="28.7846">
			<stop  offset="0" style="stop-color:#F48779"/>
			<stop  offset="0.6121" style="stop-color:#FAB076"/>
			<stop  offset="1" style="stop-color:#FDC674"/>
		</linearGradient>
		<polygon style="clip-path:url(#SVGID_2_);fill:url(#SVGID_8_);" points="30.66,20.37 26.41,24.58 30.66,28.78 37.95,24.58 		"/>
	</g>
	<g>
		<g>
			<path class="st318" d="M110.09,30.7c-0.59,0-1.14-0.11-1.63-0.33c-0.49-0.22-0.9-0.56-1.24-1.01h-0.1
				c0.07,0.53,0.1,1.04,0.1,1.51v3.75h-1.38v-13.2h1.12l0.19,1.25h0.07c0.36-0.5,0.77-0.86,1.24-1.08c0.47-0.22,1.01-0.33,1.62-0.33
				c1.21,0,2.14,0.41,2.8,1.24c0.66,0.83,0.99,1.98,0.99,3.48c0,1.5-0.33,2.66-1,3.49C112.2,30.29,111.28,30.7,110.09,30.7z
				 M109.89,22.43c-0.93,0-1.6,0.26-2.02,0.77c-0.42,0.52-0.63,1.34-0.64,2.46v0.31c0,1.28,0.21,2.2,0.64,2.75
				c0.43,0.55,1.11,0.83,2.05,0.83c0.79,0,1.4-0.32,1.85-0.96c0.45-0.64,0.67-1.52,0.67-2.64c0-1.14-0.22-2.01-0.67-2.61
				C111.33,22.73,110.7,22.43,109.89,22.43z"/>
			<path class="st318" d="M117.07,30.54h-1.38V17.6h1.38V30.54z"/>
			<path class="st318" d="M125,30.54l-0.27-1.3h-0.07c-0.45,0.57-0.91,0.96-1.36,1.16c-0.45,0.2-1.02,0.3-1.69,0.3
				c-0.9,0-1.61-0.23-2.12-0.7c-0.51-0.47-0.77-1.13-0.77-1.99c0-1.84,1.47-2.8,4.42-2.89l1.55-0.05v-0.57
				c0-0.72-0.15-1.24-0.46-1.58c-0.31-0.34-0.8-0.51-1.48-0.51c-0.76,0-1.62,0.23-2.58,0.7l-0.42-1.06
				c0.45-0.24,0.94-0.44,1.48-0.57c0.53-0.14,1.07-0.21,1.61-0.21c1.09,0,1.89,0.24,2.42,0.72c0.52,0.48,0.79,1.26,0.79,2.32v6.22
				H125z M121.89,29.56c0.86,0,1.53-0.24,2.02-0.71c0.49-0.47,0.74-1.13,0.74-1.98v-0.82l-1.38,0.06c-1.1,0.04-1.89,0.21-2.37,0.51
				c-0.48,0.3-0.73,0.77-0.73,1.41c0,0.5,0.15,0.88,0.45,1.14C120.92,29.43,121.34,29.56,121.89,29.56z"/>
			<path class="st318" d="M126.83,21.42h1.48l2,5.2c0.44,1.19,0.71,2.04,0.82,2.57h0.07c0.07-0.28,0.22-0.77,0.45-1.45
				c0.23-0.68,0.98-2.79,2.26-6.31h1.48l-3.92,10.38c-0.39,1.03-0.84,1.75-1.36,2.18c-0.52,0.43-1.15,0.64-1.91,0.64
				c-0.42,0-0.84-0.05-1.25-0.14v-1.11c0.3,0.07,0.65,0.1,1.02,0.1c0.95,0,1.62-0.53,2.03-1.6l0.51-1.3L126.83,21.42z"/>
		</g>
	</g>
	<g>
		<g>
			<path class="st318" d="M84.52,22.27c0.44,0.36,1.35,1.12,1.35,2.57c0,1.41-0.8,2.08-1.6,2.71c-0.25,0.25-0.53,0.52-0.53,0.94
				c0,0.42,0.29,0.65,0.5,0.82l0.69,0.53c0.84,0.71,1.6,1.35,1.6,2.67c0,1.79-1.73,3.6-5.01,3.6c-2.76,0-4.1-1.31-4.1-2.73
				c0-0.69,0.34-1.66,1.47-2.33c1.18-0.72,2.78-0.82,3.64-0.88c-0.27-0.34-0.57-0.7-0.57-1.29c0-0.32,0.1-0.51,0.19-0.74
				c-0.21,0.02-0.42,0.04-0.61,0.04c-2.02,0-3.16-1.51-3.16-2.99c0-0.88,0.4-1.85,1.22-2.55c1.09-0.9,2.38-1.05,3.41-1.05h3.93
				l-1.22,0.69H84.52z M83.17,30.73c-0.15-0.02-0.25-0.02-0.44-0.02c-0.17,0-1.2,0.04-2,0.31c-0.42,0.15-1.64,0.61-1.64,1.96
				c0,1.35,1.32,2.33,3.36,2.33c1.83,0,2.8-0.88,2.8-2.06C85.25,32.28,84.62,31.76,83.17,30.73z M83.72,27.11
				c0.44-0.44,0.48-1.05,0.48-1.39c0-1.37-0.82-3.51-2.4-3.51c-0.5,0-1.03,0.25-1.33,0.63c-0.32,0.4-0.42,0.91-0.42,1.41
				c0,1.28,0.74,3.39,2.38,3.39C82.9,27.64,83.41,27.42,83.72,27.11z"/>
			<path class="st318" d="M72.52,30.43c-3.03,0-4.64-2.36-4.64-4.49c0-2.49,2.04-4.62,4.93-4.62c2.8,0,4.55,2.19,4.55,4.49
				C77.36,28.05,75.62,30.43,72.52,30.43z M74.9,28.89c0.46-0.61,0.57-1.37,0.57-2.11c0-1.68-0.8-4.87-3.16-4.87
				c-0.63,0-1.26,0.25-1.71,0.65c-0.74,0.67-0.88,1.5-0.88,2.32c0,1.88,0.93,4.98,3.24,4.98C73.7,29.86,74.46,29.49,74.9,28.89z"/>
			<path class="st318" d="M62.21,30.43c-3.03,0-4.64-2.36-4.64-4.49c0-2.49,2.04-4.62,4.93-4.62c2.8,0,4.55,2.19,4.55,4.49
				C67.04,28.05,65.31,30.43,62.21,30.43z M64.59,28.89c0.46-0.61,0.57-1.37,0.57-2.11c0-1.68-0.8-4.87-3.16-4.87
				c-0.63,0-1.26,0.25-1.71,0.65c-0.74,0.67-0.88,1.5-0.88,2.32c0,1.88,0.93,4.98,3.24,4.98C63.39,29.86,64.15,29.49,64.59,28.89z"
				/>
			<path class="st318" d="M56.11,30.13l-2.74,0.63c-1.11,0.17-2.1,0.32-3.16,0.32c-5.28,0-7.29-3.88-7.29-6.93
				c0-3.71,2.85-7.15,7.73-7.15c1.03,0,2.03,0.15,2.93,0.4c1.43,0.4,2.1,0.9,2.53,1.19l-1.59,1.51l-0.67,0.15l0.48-0.77
				c-0.65-0.63-1.84-1.8-4.09-1.8c-3.02,0-5.3,2.3-5.3,5.64c0,3.6,2.6,6.98,6.77,6.98c1.23,0,1.86-0.25,2.43-0.48v-3.08l-2.89,0.15
				l1.53-0.82h4.06l-0.5,0.48c-0.13,0.12-0.15,0.15-0.19,0.31c-0.02,0.17-0.04,0.73-0.04,0.92V30.13z"/>
			<path class="st318" d="M90.57,29.58c-0.63-0.06-0.76-0.17-0.76-0.92v-0.21V17.83c0-0.04,0.01-0.08,0.01-0.12
				c0.08-0.67,0.27-0.78,0.86-1.13h-2.74l-1.44,0.69h1.46v0.01l0-0.01v11.18v0.63c0,0.38-0.08,0.44-0.52,1.01h3.39l0.71-0.42
				C91.22,29.64,90.89,29.62,90.57,29.58z"/>
			<path class="st318" d="M98.35,29.75c-0.21,0.11-0.42,0.25-0.63,0.34c-0.63,0.28-1.27,0.36-1.84,0.36c-0.61,0-1.56-0.04-2.53-0.74
				c-1.35-0.95-1.94-2.58-1.94-4.01c0-2.94,2.39-4.39,4.35-4.39c0.68,0,1.39,0.17,1.96,0.53c0.95,0.63,1.2,1.44,1.33,1.88
				l-4.46,1.81l-1.46,0.11c0.47,2.41,2.11,3.82,3.91,3.82c0.97,0,1.67-0.34,2.32-0.66L98.35,29.75z M96.57,24.09
				c0.36-0.13,0.55-0.25,0.55-0.51c0-0.76-0.85-1.63-1.88-1.63c-0.76,0-2.18,0.59-2.18,2.64c0,0.32,0.04,0.66,0.06,1.01L96.57,24.09
				z"/>
			<g>
				<path class="st318" d="M100.19,21.45v1.25h-0.15v-1.25h-0.41v-0.13h0.98v0.13H100.19z"/>
				<path class="st318" d="M101.9,22.7v-1.27h-0.01l-0.39,1.27h-0.12L101,21.44h0v1.27h-0.14v-1.38h0.24l0.35,1.12h0l0.35-1.12h0.24
					v1.38H101.9z"/>
			</g>
		</g>
	</g>
	<g>
		<g>
			<path class="st318" d="M46.73,13.28h-0.95c0-0.13-0.09-0.5-0.27-1.11h-1.37c-0.19,0.6-0.28,0.97-0.28,1.11h-0.89
				c0-0.08,0.23-0.71,0.69-1.9c0.46-1.19,0.69-1.85,0.69-1.97h1.12c0,0.11,0.21,0.76,0.63,1.94C46.52,12.53,46.73,13.17,46.73,13.28
				z M45.35,11.6c-0.34-1.02-0.51-1.57-0.51-1.66H44.8c0,0.08-0.18,0.63-0.53,1.66H45.35z"/>
			<path class="st318" d="M50.56,13.28h-0.73c0-0.08-0.27-0.51-0.82-1.29c-0.57-0.82-0.9-1.38-0.97-1.68h-0.05
				c0.05,0.43,0.07,0.83,0.07,1.18c0,0.49,0.01,1.09,0.04,1.79h-0.73c0.03-0.61,0.04-1.29,0.04-2.02c0-0.72-0.01-1.34-0.04-1.84
				h0.88c0,0.11,0.24,0.52,0.73,1.26c0.52,0.78,0.82,1.31,0.9,1.58h0.04c-0.05-0.44-0.07-0.84-0.07-1.19c0-0.54-0.01-1.09-0.04-1.65
				h0.74c-0.03,0.49-0.04,1.11-0.04,1.84C50.52,12,50.53,12.68,50.56,13.28z"/>
			<path class="st318" d="M54.86,11.21c0,0.56-0.18,1.05-0.54,1.47c-0.36,0.42-0.87,0.63-1.52,0.63c-0.29,0-0.7-0.01-1.21-0.04
				c0.03-0.6,0.04-1.27,0.04-2.02c0-0.72-0.01-1.34-0.04-1.84h0.52c0.09,0,0.21,0,0.38-0.01c0.17-0.01,0.28-0.01,0.33-0.01
				c0.71,0,1.23,0.18,1.56,0.53C54.7,10.28,54.86,10.71,54.86,11.21z M54.05,11.34c0-0.38-0.11-0.7-0.33-0.96
				c-0.22-0.26-0.56-0.39-1.02-0.39c-0.09,0-0.2,0.01-0.35,0.03c0.02,0.4,0.03,0.81,0.03,1.24c0,0.47,0.01,0.94,0.03,1.41
				c0.13,0.03,0.26,0.04,0.39,0.04c0.43,0,0.74-0.13,0.95-0.4C53.95,12.04,54.05,11.72,54.05,11.34z"/>
			<path class="st318" d="M58.83,13.28h-0.88c-0.23-0.7-0.41-1.13-0.53-1.3c-0.12-0.16-0.32-0.25-0.59-0.25c-0.11,0-0.22,0-0.33,0
				c0,0.51,0.01,1.02,0.03,1.54H55.7c0.03-0.6,0.04-1.27,0.04-2.02c0-0.72-0.01-1.34-0.04-1.84h0.51c0.06,0,0.18,0,0.37-0.01
				c0.19-0.01,0.36-0.01,0.52-0.01c0.91,0,1.36,0.31,1.36,0.93c0,0.49-0.26,0.84-0.78,1.03v0.04c0.2,0.06,0.38,0.21,0.53,0.47
				C58.38,12.13,58.58,12.6,58.83,13.28z M57.72,10.55c0-0.39-0.25-0.59-0.76-0.59c-0.19,0-0.35,0.01-0.49,0.04
				c0.02,0.31,0.03,0.71,0.03,1.2c0.11,0,0.2,0.01,0.28,0.01C57.41,11.2,57.72,10.98,57.72,10.55z"/>
			<path class="st318" d="M63.09,11.27c0,0.61-0.19,1.11-0.56,1.51c-0.37,0.4-0.83,0.6-1.38,0.6c-0.52,0-0.96-0.18-1.31-0.55
				c-0.35-0.37-0.53-0.83-0.53-1.4c0-0.61,0.19-1.11,0.56-1.51c0.37-0.4,0.83-0.6,1.38-0.6c0.52,0,0.96,0.18,1.31,0.55
				C62.92,10.24,63.09,10.71,63.09,11.27z M62.27,11.36c0-0.41-0.11-0.75-0.32-1.01c-0.21-0.26-0.47-0.39-0.78-0.39
				c-0.29,0-0.53,0.13-0.74,0.39c-0.2,0.26-0.3,0.59-0.3,0.98c0,0.41,0.11,0.75,0.32,1.01c0.21,0.26,0.47,0.39,0.78,0.39
				c0.29,0,0.53-0.13,0.74-0.39C62.17,12.08,62.27,11.75,62.27,11.36z"/>
			<path class="st318" d="M64.77,13.28h-0.84c0.03-0.61,0.04-1.29,0.04-2.02c0-0.72-0.01-1.34-0.04-1.84h0.84
				c-0.03,0.5-0.04,1.11-0.04,1.84C64.73,12,64.75,12.68,64.77,13.28z"/>
			<path class="st318" d="M69.08,11.21c0,0.56-0.18,1.05-0.54,1.47c-0.36,0.42-0.87,0.63-1.52,0.63c-0.29,0-0.7-0.01-1.21-0.04
				c0.03-0.6,0.04-1.27,0.04-2.02c0-0.72-0.01-1.34-0.04-1.84h0.52c0.09,0,0.21,0,0.38-0.01c0.17-0.01,0.28-0.01,0.33-0.01
				c0.71,0,1.23,0.18,1.56,0.53C68.92,10.28,69.08,10.71,69.08,11.21z M68.27,11.34c0-0.38-0.11-0.7-0.33-0.96
				c-0.22-0.26-0.56-0.39-1.02-0.39c-0.09,0-0.2,0.01-0.35,0.03c0.02,0.4,0.03,0.81,0.03,1.24c0,0.47,0.01,0.94,0.03,1.41
				c0.13,0.03,0.26,0.04,0.39,0.04c0.43,0,0.74-0.13,0.95-0.4C68.17,12.04,68.27,11.72,68.27,11.34z"/>
			<path class="st318" d="M74.79,13.28h-0.95c0-0.13-0.09-0.5-0.27-1.11H72.2c-0.19,0.6-0.28,0.97-0.28,1.11h-0.89
				c0-0.08,0.23-0.71,0.69-1.9c0.46-1.19,0.69-1.85,0.69-1.97h1.12c0,0.11,0.21,0.76,0.63,1.94C74.58,12.53,74.79,13.17,74.79,13.28
				z M73.42,11.6c-0.34-1.02-0.51-1.57-0.51-1.66h-0.05c0,0.08-0.18,0.63-0.53,1.66H73.42z"/>
			<path class="st318" d="M78.26,10.42c0,0.47-0.18,0.82-0.53,1.05c-0.35,0.23-0.78,0.34-1.29,0.34c-0.09,0-0.16,0-0.2-0.01
				c0,0.37,0.01,0.86,0.03,1.47h-0.83c0.03-0.57,0.04-1.25,0.04-2.02c0-0.71-0.01-1.33-0.04-1.84h0.52c0.07,0,0.21,0,0.42-0.01
				c0.21-0.01,0.39-0.01,0.54-0.01c0.38,0,0.69,0.09,0.95,0.26C78.13,9.82,78.26,10.08,78.26,10.42z M77.49,10.59
				c0-0.42-0.28-0.64-0.84-0.64c-0.14,0-0.29,0.01-0.45,0.04c0.02,0.37,0.03,0.8,0.03,1.27c0.05,0,0.11,0.01,0.17,0.01
				C77.13,11.27,77.49,11.05,77.49,10.59z"/>
			<path class="st318" d="M81.82,10.42c0,0.47-0.18,0.82-0.53,1.05c-0.35,0.23-0.78,0.34-1.29,0.34c-0.09,0-0.16,0-0.2-0.01
				c0,0.37,0.01,0.86,0.03,1.47H79c0.03-0.57,0.04-1.25,0.04-2.02c0-0.71-0.01-1.33-0.04-1.84h0.52c0.07,0,0.21,0,0.42-0.01
				c0.21-0.01,0.39-0.01,0.54-0.01c0.38,0,0.69,0.09,0.95,0.26C81.69,9.82,81.82,10.08,81.82,10.42z M81.05,10.59
				c0-0.42-0.28-0.64-0.84-0.64c-0.14,0-0.29,0.01-0.45,0.04c0.02,0.37,0.03,0.8,0.03,1.27c0.05,0,0.11,0.01,0.17,0.01
				C80.69,11.27,81.05,11.05,81.05,10.59z"/>
			<path class="st318" d="M87.65,11.27c0,0.61-0.19,1.11-0.56,1.51c-0.37,0.4-0.83,0.6-1.38,0.6c-0.52,0-0.96-0.18-1.31-0.55
				c-0.35-0.37-0.53-0.83-0.53-1.4c0-0.61,0.19-1.11,0.56-1.51c0.37-0.4,0.83-0.6,1.38-0.6c0.52,0,0.96,0.18,1.31,0.55
				C87.47,10.24,87.65,10.71,87.65,11.27z M86.83,11.36c0-0.41-0.11-0.75-0.32-1.01c-0.21-0.26-0.47-0.39-0.78-0.39
				c-0.29,0-0.53,0.13-0.74,0.39c-0.2,0.26-0.3,0.59-0.3,0.98c0,0.41,0.11,0.75,0.32,1.01c0.21,0.26,0.47,0.39,0.78,0.39
				c0.29,0,0.53-0.13,0.74-0.39C86.73,12.08,86.83,11.75,86.83,11.36z"/>
			<path class="st318" d="M91.67,13.28h-0.73c0-0.08-0.27-0.51-0.82-1.29c-0.57-0.82-0.9-1.38-0.97-1.68H89.1
				c0.05,0.43,0.07,0.83,0.07,1.18c0,0.49,0.01,1.09,0.04,1.79h-0.73c0.03-0.61,0.04-1.29,0.04-2.02c0-0.72-0.01-1.34-0.04-1.84
				h0.88c0,0.11,0.24,0.52,0.73,1.26c0.52,0.78,0.82,1.31,0.9,1.58h0.04c-0.05-0.44-0.07-0.84-0.07-1.19c0-0.54-0.01-1.09-0.04-1.65
				h0.74c-0.03,0.49-0.04,1.11-0.04,1.84C91.63,12,91.65,12.68,91.67,13.28z"/>
		</g>
	</g>
</g>
</svg>
