<?xml version="1.0" encoding="utf-8"?>
<!-- Generator: Adobe Illustrator 24.0.0, SVG Export Plug-In . SVG Version: 6.00 Build 0)  -->
<svg version="1.1" id="Layer_1" xmlns="http://www.w3.org/2000/svg" xmlns:xlink="http://www.w3.org/1999/xlink" x="0px" y="0px"
	 viewBox="0 0 163.34 110.27" style="enable-background:new 0 0 163.34 110.27;" xml:space="preserve">
<style type="text/css">
	.st0{fill:#6C727C;}
	.st1{fill:#FC5E31;}
	.st2{fill:#8CC63F;}
	.st3{fill:#F3F4F5;}
	.st4{fill:#F74A2D;}
	.st5{fill:#153663;}
	.st6{fill:#153765;}
	.st7{fill:#153867;}
	.st8{fill:#153969;}
	.st9{fill:#15396B;}
	.st10{fill:#153A6D;}
	.st11{fill:#153B6F;}
	.st12{fill:#153C71;}
	.st13{fill:#143D73;}
	.st14{fill:#143E75;}
	.st15{fill:#143E77;}
	.st16{fill:#143F79;}
	.st17{fill:#14407B;}
	.st18{fill:#14417D;}
	.st19{fill:#14427F;}
	.st20{fill:#144381;}
	.st21{fill:#144383;}
	.st22{fill:#144485;}
	.st23{fill:#144587;}
	.st24{fill:#144689;}
	.st25{fill:#14478B;}
	.st26{fill:#14488D;}
	.st27{fill:#14488F;}
	.st28{fill:#144991;}
	.st29{fill:#134A93;}
	.st30{fill:#134B95;}
	.st31{fill:#134C97;}
	.st32{fill:#134D99;}
	.st33{fill:#134D9B;}
	.st34{fill:#134E9D;}
	.st35{fill:#134F9F;}
	.st36{fill:#1350A1;}
	.st37{fill-rule:evenodd;clip-rule:evenodd;fill:#F1E7ED;}
	.st38{fill-rule:evenodd;clip-rule:evenodd;fill:#A893D0;}
	.st39{opacity:0.5;fill-rule:evenodd;clip-rule:evenodd;fill:#5D2C84;}
	.st40{fill-rule:evenodd;clip-rule:evenodd;fill:#CABDE2;}
	.st41{fill-rule:evenodd;clip-rule:evenodd;fill:#704E8D;}
	.st42{fill-rule:evenodd;clip-rule:evenodd;fill:#FBF9FB;}
	.st43{opacity:0.83;fill-rule:evenodd;clip-rule:evenodd;fill:url(#SVGID_2_);}
	.st44{opacity:0.83;fill-rule:evenodd;clip-rule:evenodd;fill:url(#SVGID_3_);}
	.st45{fill:#8D6B96;}
	.st46{opacity:0.2;fill-rule:evenodd;clip-rule:evenodd;fill:#864C90;}
	.st47{fill-rule:evenodd;clip-rule:evenodd;fill:#CECBEA;}
	.st48{fill-rule:evenodd;clip-rule:evenodd;fill:#39175A;}
	.st49{fill-rule:evenodd;clip-rule:evenodd;fill:#F83D45;}
	.st50{fill-rule:evenodd;clip-rule:evenodd;fill:#B32742;}
	.st51{fill-rule:evenodd;clip-rule:evenodd;fill:#A28BCC;}
	.st52{opacity:0.5;fill-rule:evenodd;clip-rule:evenodd;fill:#864C90;}
	.st53{fill-rule:evenodd;clip-rule:evenodd;fill:url(#SVGID_4_);}
	.st54{fill-rule:evenodd;clip-rule:evenodd;fill:url(#SVGID_6_);}
	.st55{fill:#B32742;}
	.st56{fill-rule:evenodd;clip-rule:evenodd;fill:url(#SVGID_8_);}
	.st57{fill-rule:evenodd;clip-rule:evenodd;fill:url(#SVGID_9_);}
	.st58{fill-rule:evenodd;clip-rule:evenodd;fill:#7A5AC4;}
	.st59{fill-rule:evenodd;clip-rule:evenodd;fill:#7A5AA7;}
	.st60{fill-rule:evenodd;clip-rule:evenodd;fill:#5A2967;}
	.st61{fill-rule:evenodd;clip-rule:evenodd;fill:#C4D1ED;}
	.st62{opacity:0.5;fill-rule:evenodd;clip-rule:evenodd;fill:#6D4C90;}
	.st63{fill:#7A5AA7;}
	.st64{fill:#39175A;}
	.st65{fill-rule:evenodd;clip-rule:evenodd;fill:url(#SVGID_10_);}
	.st66{fill:#FFFFFF;}
	.st67{fill-rule:evenodd;clip-rule:evenodd;fill:url(#SVGID_11_);}
	.st68{fill-rule:evenodd;clip-rule:evenodd;fill:url(#SVGID_12_);}
	.st69{fill-rule:evenodd;clip-rule:evenodd;fill:url(#SVGID_13_);}
	.st70{fill-rule:evenodd;clip-rule:evenodd;fill:url(#SVGID_14_);}
	.st71{fill-rule:evenodd;clip-rule:evenodd;fill:url(#SVGID_15_);}
	.st72{fill-rule:evenodd;clip-rule:evenodd;fill:url(#SVGID_16_);}
	.st73{fill-rule:evenodd;clip-rule:evenodd;fill:url(#SVGID_17_);}
	.st74{fill-rule:evenodd;clip-rule:evenodd;fill:url(#SVGID_18_);}
	.st75{fill-rule:evenodd;clip-rule:evenodd;fill:url(#SVGID_19_);}
	.st76{opacity:0.4;fill-rule:evenodd;clip-rule:evenodd;fill:#864C90;}
	.st77{fill-rule:evenodd;clip-rule:evenodd;fill:url(#SVGID_20_);}
	.st78{fill-rule:evenodd;clip-rule:evenodd;fill:#FFFFFF;}
	.st79{fill-rule:evenodd;clip-rule:evenodd;fill:url(#SVGID_21_);}
	.st80{opacity:0.44;fill-rule:evenodd;clip-rule:evenodd;fill:#60003B;}
	.st81{fill-rule:evenodd;clip-rule:evenodd;fill:url(#SVGID_22_);}
	.st82{fill-rule:evenodd;clip-rule:evenodd;fill:url(#SVGID_23_);}
	.st83{fill-rule:evenodd;clip-rule:evenodd;fill:url(#SVGID_24_);}
	.st84{fill-rule:evenodd;clip-rule:evenodd;fill:url(#SVGID_25_);}
	.st85{fill-rule:evenodd;clip-rule:evenodd;fill:url(#SVGID_26_);}
	.st86{fill-rule:evenodd;clip-rule:evenodd;fill:url(#SVGID_27_);}
	.st87{fill-rule:evenodd;clip-rule:evenodd;fill:url(#SVGID_28_);}
	.st88{fill-rule:evenodd;clip-rule:evenodd;fill:url(#SVGID_29_);}
	.st89{fill-rule:evenodd;clip-rule:evenodd;fill:url(#SVGID_30_);}
	.st90{fill-rule:evenodd;clip-rule:evenodd;fill:url(#SVGID_31_);}
	.st91{fill-rule:evenodd;clip-rule:evenodd;fill:url(#SVGID_32_);}
	.st92{fill-rule:evenodd;clip-rule:evenodd;fill:url(#SVGID_33_);}
	.st93{fill-rule:evenodd;clip-rule:evenodd;fill:url(#SVGID_34_);}
	.st94{fill-rule:evenodd;clip-rule:evenodd;fill:url(#SVGID_35_);}
	.st95{fill-rule:evenodd;clip-rule:evenodd;fill:url(#SVGID_36_);}
	.st96{fill-rule:evenodd;clip-rule:evenodd;fill:url(#SVGID_37_);}
	.st97{fill-rule:evenodd;clip-rule:evenodd;fill:url(#SVGID_38_);}
	.st98{fill-rule:evenodd;clip-rule:evenodd;fill:url(#SVGID_39_);}
	.st99{fill-rule:evenodd;clip-rule:evenodd;fill:url(#SVGID_40_);}
	.st100{fill-rule:evenodd;clip-rule:evenodd;fill:url(#SVGID_41_);}
	.st101{fill-rule:evenodd;clip-rule:evenodd;fill:url(#SVGID_42_);}
	.st102{fill-rule:evenodd;clip-rule:evenodd;fill:url(#SVGID_43_);}
	.st103{fill-rule:evenodd;clip-rule:evenodd;fill:url(#SVGID_44_);}
	.st104{fill:#F2E225;}
	.st105{opacity:0.4;fill:url(#SVGID_45_);}
	.st106{fill:#814BA2;}
	.st107{fill:#925CB4;}
	.st108{fill:#B289C9;}
	.st109{fill:#A274BF;}
	.st110{opacity:0.4;fill:url(#SVGID_46_);}
	.st111{fill:#813034;}
	.st112{fill:#802F34;}
	.st113{fill:#AFD2EF;}
	.st114{fill:#E54C3C;}
	.st115{fill:#57607F;}
	.st116{fill:#BF3A2C;}
	.st117{fill:#BF3A2B;}
	.st118{fill:#8796C8;}
	.st119{fill:#C88D95;}
	.st120{fill:#8696C9;}
	.st121{fill:#56607F;}
	.st122{fill:#E3E4E6;}
	.st123{fill:#D8DADE;}
	.st124{opacity:0.4;fill:url(#SVGID_47_);}
	.st125{fill:#F2582F;}
	.st126{fill:#FF7043;}
	.st127{fill:#8E2611;}
	.st128{fill:#E53935;}
	.st129{fill:#F0534A;}
	.st130{fill:#D5D5D3;}
	.st131{opacity:0.4;fill:url(#SVGID_48_);}
	.st132{fill:#F8749D;}
	.st133{fill:#403063;}
	.st134{fill:#403365;}
	.st135{fill:#403264;}
	.st136{fill:#413265;}
	.st137{fill:#E4E5E6;}
	.st138{fill:#E2E2E4;}
	.st139{fill:#DEDEE2;}
	.st140{fill:#3D2E61;}
	.st141{fill:#FDF7F9;}
	.st142{fill:#FDD6E4;}
	.st143{opacity:0.4;fill:url(#SVGID_49_);}
	.st144{fill:#C20047;}
	.st145{fill:#FE405C;}
	.st146{fill:#B1D3EF;}
	.st147{fill:#E0F1FD;}
	.st148{opacity:0.4;fill:url(#SVGID_50_);}
	.st149{opacity:0.4;fill:url(#SVGID_51_);}
	.st150{opacity:0.4;fill:url(#SVGID_52_);}
	.st151{opacity:0.4;fill:url(#SVGID_53_);}
	.st152{opacity:0.4;fill:url(#SVGID_54_);}
	.st153{opacity:0.4;fill:url(#SVGID_55_);}
	.st154{opacity:0.4;fill:url(#SVGID_56_);}
	.st155{fill:#FF5F85;}
	.st156{fill:#FFE878;}
	.st157{fill:#B2527E;}
	.st158{fill:#004FAB;}
	.st159{fill:#57A3FE;}
	.st160{fill:#FEFEFE;}
	.st161{fill:#37A6CD;}
	.st162{fill:#E19A4B;}
	.st163{fill:#54BBE8;}
	.st164{fill:#FBB55F;}
	.st165{fill:#E29A4C;}
	.st166{fill:#E4E8E9;}
	.st167{fill:#D1D0D0;}
	.st168{fill:#E3E7E8;}
	.st169{fill:#566369;}
	.st170{fill:#E19A4C;}
	.st171{fill:#445155;}
	.st172{fill:#E4E7E7;}
	.st173{fill:#566368;}
	.st174{fill:#6E7A7E;}
	.st175{fill:#435054;}
	.st176{fill:#5E5461;}
	.st177{fill:#6F6571;}
	.st178{fill:#5D5360;}
	.st179{fill:#4B3F4E;}
	.st180{fill:#FCCE64;}
	.st181{fill:#FEDF7E;}
	.st182{fill:#857D86;}
	.st183{fill:#3E8FC8;}
	.st184{fill:#FCB630;}
	.st185{fill:#88B237;}
	.st186{fill:#E7594A;}
	.st187{fill:#4398D0;}
	.st188{fill:#D55245;}
	.st189{fill:#80A734;}
	.st190{fill:#FEA71A;}
	.st191{fill:#FAD390;}
	.st192{fill:#F2D45C;}
	.st193{fill:#FA7B76;}
	.st194{fill:#FE5364;}
	.st195{fill:#F8E3C1;}
	.st196{fill:#2D5871;}
	.st197{fill:#FDD8A7;}
	.st198{fill:#E0EEFA;}
	.st199{fill:#F3C792;}
	.st200{fill:#CBDEEC;}
	.st201{fill:#FE4D4C;}
	.st202{fill:#F23A3A;}
	.st203{fill:#1D4859;}
	.st204{fill:#FEB025;}
	.st205{fill:#FE901D;}
	.st206{fill:#1E495A;}
	.st207{fill:#2F5972;}
	.st208{fill:#F3C892;}
	.st209{opacity:0.4;fill:url(#SVGID_57_);}
	.st210{opacity:0.4;fill:url(#SVGID_58_);}
	.st211{fill:#949AA8;}
	.st212{fill:#B3B3B3;}
	.st213{fill:#575D72;}
	.st214{fill:#A3E0F4;}
	.st215{fill:#C2EAF8;}
	.st216{fill:#28304E;}
	.st217{fill:#EC5176;}
	.st218{fill:#FECC34;}
	.st219{fill:#FE76A3;}
	.st220{fill:#E69115;}
	.st221{fill:#FF0000;}
	.st222{fill:#F4AE00;}
	.st223{opacity:0.12;fill:#1B1E23;}
	.st224{fill:#E7E8FA;}
	.st225{fill:#57A845;}
	.st226{fill:none;stroke:#283847;stroke-width:1.2169;stroke-miterlimit:10;}
	.st227{opacity:0.5;fill:#283847;}
	.st228{fill:#6B98F6;}
	.st229{fill:#79AFFF;}
	.st230{clip-path:url(#XMLID_3_);fill:#79AFFF;}
	.st231{clip-path:url(#XMLID_3_);}
	.st232{fill:none;stroke:#212121;stroke-width:1.5836;stroke-linecap:round;stroke-linejoin:round;stroke-miterlimit:10;}
	.st233{fill:#17566C;}
	.st234{clip-path:url(#XMLID_6_);fill:#79AFFF;}
	.st235{clip-path:url(#XMLID_6_);fill:#2072A9;}
	.st236{clip-path:url(#XMLID_6_);fill:#2175B8;}
	.st237{opacity:0.02;clip-path:url(#XMLID_9_);}
	.st238{opacity:0.13;clip-path:url(#XMLID_9_);fill:#FFFFFF;}
	.st239{fill:none;stroke:#212121;stroke-width:0.5;stroke-linecap:round;stroke-linejoin:round;stroke-miterlimit:10;}
	.st240{fill:#212121;}
	.st241{opacity:0.02;clip-path:url(#XMLID_19_);}
	.st242{opacity:0.13;clip-path:url(#XMLID_19_);fill:#FFFFFF;}
	.st243{clip-path:url(#XMLID_20_);fill:#B0C7D8;}
	.st244{clip-path:url(#XMLID_21_);fill:#3A4149;}
	.st245{fill:#FBFFFF;}
	.st246{fill:#EEEEEE;}
	.st247{fill:#FF7B35;}
	.st248{fill:#509DFF;}
	.st249{fill:#B0C7D8;}
	.st250{opacity:0.3;fill:#FFFFFC;}
	.st251{clip-path:url(#XMLID_26_);fill:#FC6C2B;}
	.st252{fill:#B8D0E5;}
	.st253{fill:none;stroke:#000000;stroke-width:2.5763;stroke-miterlimit:10;}
	.st254{opacity:0.12;clip-path:url(#XMLID_27_);}
	.st255{clip-path:url(#XMLID_28_);fill:#217AAB;}
	.st256{opacity:0.2;}
	.st257{opacity:0.12;clip-path:url(#XMLID_29_);fill:#FFFFFF;}
	.st258{opacity:0.03;clip-path:url(#XMLID_42_);}
	.st259{opacity:0.03;clip-path:url(#XMLID_43_);fill:#010102;}
	.st260{opacity:0.04;clip-path:url(#XMLID_44_);}
	.st261{fill:#FDAF00;}
	.st262{fill:#FF7C00;}
	.st263{opacity:0.3;clip-path:url(#XMLID_45_);}
	.st264{opacity:0.3;}
	.st265{fill:none;stroke:#212121;stroke-width:0.9542;stroke-linecap:round;stroke-linejoin:round;stroke-miterlimit:10;}
	.st266{opacity:0.3;clip-path:url(#XMLID_47_);}
	.st267{fill:none;stroke:#212121;stroke-width:1.188;stroke-linecap:round;stroke-linejoin:round;stroke-miterlimit:10;}
	.st268{fill:#FF9D38;}
	.st269{fill:#C8DFFD;}
	.st270{fill:#A8CCFF;}
	.st271{fill:#D5E9FF;}
	.st272{fill:#B8D0FC;}
	.st273{fill:#0B3563;}
	.st274{fill:none;stroke:#BEDBF7;stroke-width:1.0668;stroke-miterlimit:10;}
	.st275{fill:#25468F;}
	.st276{fill:#E4EEF7;}
	.st277{fill:#3A65C9;}
	.st278{font-family:'Montserrat-Bold';}
	.st279{font-size:3.2385px;}
	.st280{fill:none;stroke:#3A65C9;stroke-width:1.0668;stroke-miterlimit:10;}
	.st281{fill:none;stroke:#3A65C9;stroke-width:1.001;stroke-miterlimit:10;}
	.st282{fill:#FF5521;}
	.st283{fill:none;stroke:#FFCC40;stroke-width:2.1337;stroke-linecap:round;stroke-linejoin:round;stroke-miterlimit:10;}
	.st284{fill:#BEDBF7;}
	.st285{fill:none;stroke:#FFFFFF;stroke-width:1.2169;stroke-miterlimit:10;}
	.st286{font-size:6.1297px;}
	.st287{fill:#10477B;}
	.st288{fill:#D44C10;}
	.st289{fill:#FF912B;}
	.st290{fill:#FC7600;}
	.st291{fill:#FFAE73;}
	.st292{fill:#FC9F38;}
	.st293{fill:#E65F00;}
	.st294{fill:#4681E1;}
	.st295{fill:#032444;}
	.st296{fill:#0D458E;}
	.st297{fill:#1E3865;}
	.st298{fill:#F48F4E;}
	.st299{fill:#254C82;}
	.st300{fill:#F9924F;}
	.st301{opacity:0.5;}
	.st302{fill:#499936;}
	.st303{fill:url(#SVGID_59_);}
	.st304{opacity:0.08;fill:#FFFFFF;}
	.st305{opacity:0.31;fill:#323197;}
	.st306{fill:#F5F5F7;}
	.st307{fill:#A1C2FF;}
	.st308{fill:#FF8D02;}
	.st309{opacity:0.08;}
	.st310{fill:none;stroke:#FFFFFF;stroke-width:2;stroke-linecap:round;stroke-linejoin:round;stroke-miterlimit:10;}
	.st311{opacity:0.44;fill:none;stroke:#FFFFFF;stroke-miterlimit:10;}
	.st312{opacity:0.4;fill:url(#SVGID_60_);}
	.st313{opacity:0.4;fill:url(#SVGID_61_);}
	.st314{fill:#010200;}
	.st315{opacity:0.4;fill:url(#SVGID_62_);}
	.st316{fill:#F74A2D;stroke:#000000;stroke-width:0.35;stroke-miterlimit:10;}
	.st317{clip-path:url(#SVGID_63_);fill:url(#SVGID_64_);}
	.st318{clip-path:url(#SVGID_63_);fill:url(#SVGID_65_);}
	.st319{clip-path:url(#SVGID_63_);fill:url(#SVGID_66_);}
	.st320{clip-path:url(#SVGID_63_);fill:url(#SVGID_67_);}
	.st321{fill:#393D43;}
	.st322{fill:#FDFDFB;}
	.st323{fill:#0086CE;}
	.st324{fill:#69B545;}
	.st325{fill:#D6347C;}
	.st326{fill:#F07F32;}
	.st327{fill:#6F519D;}
	.st328{fill-rule:evenodd;clip-rule:evenodd;fill:#51555B;}
	.st329{fill-rule:evenodd;clip-rule:evenodd;fill:#393D43;}
	.st330{fill:#003A70;}
	.st331{fill:url(#SVGID_68_);}
	.st332{fill:#003399;}
	.st333{fill-rule:evenodd;clip-rule:evenodd;fill:#003399;}
	.st334{fill:#A1A1A1;}
	.st335{fill-rule:evenodd;clip-rule:evenodd;fill:#006677;}
	.st336{fill-rule:evenodd;clip-rule:evenodd;fill:#E45300;}
	.st337{fill-rule:evenodd;clip-rule:evenodd;fill:#2156A6;}
	.st338{fill:#2156A6;}
	.st339{fill:#FB6E3B;}
	.st340{fill:#00C9BD;}
	.st341{fill-rule:evenodd;clip-rule:evenodd;fill:#00ACD8;}
	.st342{fill-rule:evenodd;clip-rule:evenodd;}
	.st343{fill-rule:evenodd;clip-rule:evenodd;fill:#0056A6;}
	.st344{fill-rule:evenodd;clip-rule:evenodd;fill:#F48120;}
	.st345{fill-rule:evenodd;clip-rule:evenodd;fill:#2E3191;}
	.st346{fill:#FBDA00;}
	.st347{fill:#1F1A17;}
	.st348{fill:#007CC2;}
	.st349{fill:#DA251C;}
	.st350{fill-rule:evenodd;clip-rule:evenodd;fill:#F0F0F0;}
	.st351{fill-rule:evenodd;clip-rule:evenodd;fill:#FECF22;}
	.st352{fill-rule:evenodd;clip-rule:evenodd;fill:#006AB4;}
	.st353{fill-rule:evenodd;clip-rule:evenodd;fill:#D61627;}
	.st354{fill-rule:evenodd;clip-rule:evenodd;fill:#E6E6E6;}
	.st355{fill:#007BC2;}
	.st356{fill:#231F20;}
	.st357{fill:#EC1C25;}
	.st358{fill:#243E92;}
	.st359{fill:#E22228;}
	.st360{fill:#FAD701;}
	.st361{fill-rule:evenodd;clip-rule:evenodd;fill:#E61F20;}
	.st362{fill-rule:evenodd;clip-rule:evenodd;fill:#004B97;}
	.st363{fill-rule:evenodd;clip-rule:evenodd;fill:#E50013;}
	.st364{fill-rule:evenodd;clip-rule:evenodd;fill:url(#SVGID_71_);}
	.st365{fill-rule:evenodd;clip-rule:evenodd;fill:url(#SVGID_72_);}
	.st366{fill-rule:evenodd;clip-rule:evenodd;fill:#412A8B;}
</style>
<g>
	<path class="st224" d="M145.98,109.47c-0.02,0.15-0.05,0.3-0.07,0.45H18.42c-0.06-0.15-0.12-0.3-0.17-0.45
		c-1.04-2.79-1.54-5.83-1.37-9c0-0.11,0.01-0.22,0.02-0.33c4.27-39.71,39.28-35.01,64.04-67.03c24.76-32.02,47.39-17.5,47.39-17.5
		c26.47,19.21,8.11,41.41,8.54,52.09C137.27,77.6,149.05,89.7,145.98,109.47z"/>
	<g>
		<g>
			<path class="st223" d="M163.15,110.24H0.19c-0.1,0-0.19-0.08-0.19-0.19v-0.07c0-0.1,0.08-0.19,0.19-0.19h162.96
				c0.1,0,0.19,0.08,0.19,0.19v0.07C163.34,110.15,163.26,110.24,163.15,110.24z"/>
		</g>
		<g>
			
				<ellipse transform="matrix(0.1658 -0.9862 0.9862 0.1658 61.229 113.5188)" class="st268" cx="97.71" cy="20.57" rx="20.57" ry="20.57"/>
			<g>
				<g>
					<rect x="101.94" y="31.31" class="st269" width="46.72" height="78.54"/>
				</g>
				<g>
					<g>
						<g>
							<g>
								<g>
									<rect x="134.9" y="38.43" class="st270" width="8.95" height="12.96"/>
								</g>
								<g>
									<path class="st271" d="M139.02,38.43c0,0,0.1,4.32-4.12,7.67v-7.67H139.02z"/>
								</g>
								<g>
									<path class="st271" d="M139.9,38.43c0,0-0.09,4.32,3.94,7.67v-7.67H139.9z"/>
								</g>
							</g>
							<g>
								<rect x="139.37" y="38.43" class="st66" width="0.22" height="12.96"/>
							</g>
							<g>
								<rect x="134.9" y="42.27" class="st66" width="8.95" height="0.18"/>
							</g>
							<g>
								<rect x="134.9" y="46.96" class="st66" width="8.95" height="0.18"/>
							</g>
							<g>
								<path class="st66" d="M144.05,51.59h-9.35V38.23h9.35V51.59z M135.1,51.19h8.54V38.63h-8.54V51.19z"/>
							</g>
						</g>
					</g>
					<g>
						<g>
							<g>
								<g>
									<rect x="120.82" y="38.43" class="st270" width="8.95" height="12.96"/>
								</g>
								<g>
									<path class="st271" d="M124.94,38.43c0,0,0.1,4.32-4.12,7.67v-7.67H124.94z"/>
								</g>
								<g>
									<path class="st271" d="M125.83,38.43c0,0-0.09,4.32,3.94,7.67v-7.67H125.83z"/>
								</g>
							</g>
							<g>
								<rect x="125.3" y="38.43" class="st66" width="0.22" height="12.96"/>
							</g>
							<g>
								<rect x="120.82" y="42.27" class="st66" width="8.95" height="0.18"/>
							</g>
							<g>
								<rect x="120.82" y="46.96" class="st66" width="8.95" height="0.18"/>
							</g>
							<g>
								<path class="st66" d="M129.97,51.59h-9.35V38.23h9.35V51.59z M121.03,51.19h8.54V38.63h-8.54V51.19z"/>
							</g>
						</g>
					</g>
					<g>
						<g>
							<g>
								<g>
									<rect x="106.75" y="38.43" class="st270" width="8.95" height="12.96"/>
								</g>
								<g>
									<path class="st271" d="M110.87,38.43c0,0,0.1,4.32-4.12,7.67v-7.67H110.87z"/>
								</g>
								<g>
									<path class="st271" d="M111.75,38.43c0,0-0.09,4.32,3.94,7.67v-7.67H111.75z"/>
								</g>
							</g>
							<g>
								<rect x="111.22" y="38.43" class="st66" width="0.22" height="12.96"/>
							</g>
							<g>
								<rect x="106.75" y="42.27" class="st66" width="8.95" height="0.18"/>
							</g>
							<g>
								<rect x="106.75" y="46.96" class="st66" width="8.95" height="0.18"/>
							</g>
							<g>
								<path class="st66" d="M115.9,51.59h-9.35V38.23h9.35V51.59z M106.95,51.19h8.54V38.63h-8.54V51.19z"/>
							</g>
						</g>
					</g>
				</g>
				<g>
					<g>
						<g>
							<g>
								<g>
									<rect x="134.9" y="57.89" class="st270" width="8.95" height="12.96"/>
								</g>
								<g>
									<path class="st271" d="M139.02,57.89c0,0,0.1,4.32-4.12,7.67v-7.67H139.02z"/>
								</g>
								<g>
									<path class="st271" d="M139.9,57.89c0,0-0.09,4.32,3.94,7.67v-7.67H139.9z"/>
								</g>
							</g>
							<g>
								<rect x="139.37" y="57.89" class="st66" width="0.22" height="12.96"/>
							</g>
							<g>
								<rect x="134.9" y="61.73" class="st66" width="8.95" height="0.18"/>
							</g>
							<g>
								<rect x="134.9" y="66.42" class="st66" width="8.95" height="0.18"/>
							</g>
							<g>
								<path class="st66" d="M144.05,71.05h-9.35V57.69h9.35V71.05z M135.1,70.65h8.54V58.09h-8.54V70.65z"/>
							</g>
						</g>
					</g>
					<g>
						<g>
							<g>
								<g>
									<rect x="120.82" y="57.89" class="st270" width="8.95" height="12.96"/>
								</g>
								<g>
									<path class="st271" d="M124.94,57.89c0,0,0.1,4.32-4.12,7.67v-7.67H124.94z"/>
								</g>
								<g>
									<path class="st271" d="M125.83,57.89c0,0-0.09,4.32,3.94,7.67v-7.67H125.83z"/>
								</g>
							</g>
							<g>
								<rect x="125.3" y="57.89" class="st66" width="0.22" height="12.96"/>
							</g>
							<g>
								<rect x="120.82" y="61.73" class="st66" width="8.95" height="0.18"/>
							</g>
							<g>
								<rect x="120.82" y="66.42" class="st66" width="8.95" height="0.18"/>
							</g>
							<g>
								<path class="st66" d="M129.97,71.05h-9.35V57.69h9.35V71.05z M121.03,70.65h8.54V58.09h-8.54V70.65z"/>
							</g>
						</g>
					</g>
					<g>
						<g>
							<g>
								<g>
									<rect x="106.75" y="57.89" class="st270" width="8.95" height="12.96"/>
								</g>
								<g>
									<path class="st271" d="M110.87,57.89c0,0,0.1,4.32-4.12,7.67v-7.67H110.87z"/>
								</g>
								<g>
									<path class="st271" d="M111.75,57.89c0,0-0.09,4.32,3.94,7.67v-7.67H111.75z"/>
								</g>
							</g>
							<g>
								<rect x="111.22" y="57.89" class="st66" width="0.22" height="12.96"/>
							</g>
							<g>
								<rect x="106.75" y="61.73" class="st66" width="8.95" height="0.18"/>
							</g>
							<g>
								<rect x="106.75" y="66.42" class="st66" width="8.95" height="0.18"/>
							</g>
							<g>
								<path class="st66" d="M115.9,71.05h-9.35V57.69h9.35V71.05z M106.95,70.65h8.54V58.09h-8.54V70.65z"/>
							</g>
						</g>
					</g>
				</g>
				<g>
					<g>
						<g>
							<g>
								<g>
									<rect x="120.82" y="77.35" class="st270" width="8.95" height="12.96"/>
								</g>
								<g>
									<path class="st271" d="M124.94,77.35c0,0,0.1,4.32-4.12,7.67v-7.67H124.94z"/>
								</g>
								<g>
									<path class="st271" d="M125.83,77.35c0,0-0.09,4.32,3.94,7.67v-7.67H125.83z"/>
								</g>
							</g>
							<g>
								<rect x="125.3" y="77.35" class="st66" width="0.22" height="12.96"/>
							</g>
							<g>
								<rect x="120.82" y="81.19" class="st66" width="8.95" height="0.18"/>
							</g>
							<g>
								<rect x="120.82" y="85.89" class="st66" width="8.95" height="0.18"/>
							</g>
							<g>
								<path class="st66" d="M129.97,90.51h-9.35V77.15h9.35V90.51z M121.03,90.11h8.54V77.55h-8.54V90.11z"/>
							</g>
						</g>
					</g>
					<g>
						<g>
							<g>
								<g>
									<rect x="106.75" y="77.35" class="st270" width="8.95" height="12.96"/>
								</g>
								<g>
									<path class="st271" d="M110.87,77.35c0,0,0.1,4.32-4.12,7.67v-7.67H110.87z"/>
								</g>
								<g>
									<path class="st271" d="M111.75,77.35c0,0-0.09,4.32,3.94,7.67v-7.67H111.75z"/>
								</g>
							</g>
							<g>
								<rect x="111.22" y="77.35" class="st66" width="0.22" height="12.96"/>
							</g>
							<g>
								<rect x="106.75" y="81.19" class="st66" width="8.95" height="0.18"/>
							</g>
							<g>
								<rect x="106.75" y="85.89" class="st66" width="8.95" height="0.18"/>
							</g>
							<g>
								<path class="st66" d="M115.9,90.51h-9.35V77.15h9.35V90.51z M106.95,90.11h8.54V77.55h-8.54V90.11z"/>
							</g>
						</g>
					</g>
				</g>
				<g>
					<rect x="101.41" y="99.11" class="st270" width="48" height="10.74"/>
				</g>
				<g>
					<g>
						<polygon class="st4" points="150.41,34.06 100.42,34.06 103.09,22.21 147.74,22.21 						"/>
					</g>
					<g>
						<g>
							<rect x="109.51" y="25.73" class="st272" width="4.58" height="4.58"/>
						</g>
						<g>
							<g>
								<g>
									<path class="st273" d="M109.29,25.52v5.01h5.01v-5.01H109.29z M113.88,30.1h-4.16v-4.16h4.16V30.1z"/>
								</g>
							</g>
							<g>
								
									<rect x="109.51" y="27.82" transform="matrix(-1.836970e-16 1 -1 -1.836970e-16 139.8219 -83.7759)" class="st273" width="4.58" height="0.42"/>
							</g>
						</g>
						<g>
							<rect x="108.38" y="24.66" class="st273" width="6.64" height="0.96"/>
						</g>
					</g>
					<g>
						<g>
							<rect x="123.15" y="25.73" class="st272" width="4.58" height="4.58"/>
						</g>
						<g>
							<g>
								<g>
									<path class="st273" d="M122.94,25.52v5.01h5.01v-5.01H122.94z M127.52,30.1h-4.16v-4.16h4.16V30.1z"/>
								</g>
							</g>
							<g>
								
									<rect x="123.15" y="27.82" transform="matrix(-1.836970e-16 1 -1 -1.836970e-16 153.4662 -97.4202)" class="st273" width="4.58" height="0.42"/>
							</g>
						</g>
						<g>
							<rect x="121.98" y="24.66" class="st273" width="6.64" height="0.96"/>
						</g>
					</g>
					<g>
						<g>
							<rect x="136.74" y="25.73" class="st272" width="4.58" height="4.58"/>
						</g>
						<g>
							<g>
								<g>
									<path class="st273" d="M136.53,25.52v5.01h5.01v-5.01H136.53z M141.12,30.1h-4.16v-4.16h4.16V30.1z"/>
								</g>
							</g>
							<g>
								
									<rect x="136.74" y="27.82" transform="matrix(-1.836970e-16 1 -1 -1.836970e-16 167.0601 -111.0142)" class="st273" width="4.58" height="0.42"/>
							</g>
						</g>
						<g>
							<rect x="135.57" y="24.66" class="st273" width="6.64" height="0.96"/>
						</g>
					</g>
				</g>
			</g>
			<path class="st274" d="M158.81,86.33h-28.82c-1.55,0-2.8-1.25-2.8-2.8V44.81c0-1.55,1.25-2.8,2.8-2.8h28.82
				c1.55,0,2.8,1.25,2.8,2.8v38.72C161.61,85.07,160.36,86.33,158.81,86.33z"/>
			<path class="st274" d="M78.99,51.5H22.49c-1.56,0-2.82-1.26-2.82-2.82V21.64c0-1.56,1.26-2.82,2.82-2.82h56.51
				c1.56,0,2.82,1.26,2.82,2.82v27.04C81.81,50.24,80.55,51.5,78.99,51.5z"/>
			<g>
				<g>
					<path class="st225" d="M159.74,86.98c0,0-0.51,1,0.3,4.32c0.81,3.32,0.2,4.67-1.21,6.73c-1.42,2.06-5.62,6.46-5.36,11.82h-8.09
						c0,0,1.46-3.59,1.87-6.98c0.4-3.39,2.49-5.41,5.65-7.03C156.05,94.21,157.06,88.04,159.74,86.98z"/>
					<path class="st226" d="M159.74,86.98c0,0-1.87,1.61-2.13,4.32c-0.25,2.71-0.66,4.79-3.04,7.11c-2.38,2.33-5.21,5.82-5.21,11.44
						"/>
					<path class="st227" d="M154.5,94.46c-0.48,0.58-1,1.06-1.61,1.37c-3.16,1.62-5.24,3.64-5.65,7.03
						c-0.4,3.39-1.87,6.98-1.87,6.98h8.09c-0.13-2.81,0.96-5.36,2.24-7.45C155.2,99.65,154.61,96.65,154.5,94.46z"/>
				</g>
				<g>
					<path class="st225" d="M159.74,62.26c0,0-0.61,1.06,0,3.8c0.61,2.73,0.98,6.15-0.27,7.67c-1.25,1.52-3.15,3.34-3.83,6.53
						c-0.68,3.19,0.91,5.46-0.76,8.2c-1.67,2.73-3.26,3.15-3.57,6.81c-0.3,3.66,2.5,7.15-4.17,14.59h-15.17
						c0,0,4.77-8.96,6.13-13.66c1.37-4.71,0.23-6.91,2.35-10.13c2.13-3.23,5.09-2.24,6.38-5.24c1.29-3,1.29-5.58,3.11-7.47
						c1.82-1.9,4.78-2.66,5.95-5.57C157.04,64.95,158.76,62.71,159.74,62.26z"/>
					<path class="st226" d="M159.74,62.26c-2.33,2.55-2.43,5.74-2.58,8.07c-0.15,2.33-3.64,3.09-4.86,6.2
						c-1.21,3.11-1.06,6.01-2.5,8.66c-1.44,2.65-3.72,2.95-5.31,6.6s0.83,11.99-4.86,18.06"/>
				</g>
			</g>
			<g>
				<path class="st247" d="M109.94,33.99c-4.42,0-8,3.58-8,8c0,0.88,0.15,1.73,0.41,2.53l-4,4.45l5.5-1.79
					c1.47,1.72,3.65,2.81,6.09,2.81c4.42,0,8-3.58,8-8C117.94,37.57,114.36,33.99,109.94,33.99z"/>
				<g>
					<path class="st275" d="M109.16,45.55c-0.16,0-0.32-0.06-0.44-0.18l-3.88-3.88c-0.24-0.24-0.24-0.63,0-0.87
						c0.24-0.24,0.63-0.24,0.87,0l3.44,3.44l5.01-5.01c0.24-0.24,0.63-0.24,0.87,0c0.24,0.24,0.24,0.63,0,0.87l-5.45,5.45
						C109.47,45.49,109.31,45.55,109.16,45.55z"/>
				</g>
			</g>
			<g>
				<path class="st66" d="M94.06,86.66H26.64c-1.5,0-2.72-1.22-2.72-2.72V30.05c0-1.5,1.22-2.72,2.72-2.72h67.42
					c1.5,0,2.72,1.22,2.72,2.72v53.89C96.79,85.44,95.57,86.66,94.06,86.66z"/>
				<g>
					<path class="st276" d="M75.69,34.87v51.79h18.38c1.5,0,2.72-1.22,2.72-2.72V34.87H75.69z"/>
					<text transform="matrix(1 0 0 1 79.2179 43.7199)" class="st277 st278 st279">AUGUST</text>
					<g>
						<path class="st280" d="M79.48,51.5c0,0.48-0.39,0.87-0.87,0.87c-0.48,0-0.87-0.39-0.87-0.87c0-0.48,0.39-0.87,0.87-0.87
							C79.09,50.63,79.48,51.02,79.48,51.5z"/>
						<line class="st280" x1="80.75" y1="51.5" x2="93.81" y2="51.5"/>
					</g>
					<g>
						<circle class="st280" cx="78.61" cy="58.54" r="0.87"/>
						<line class="st280" x1="80.75" y1="58.54" x2="93.81" y2="58.54"/>
					</g>
					<g>
						<circle class="st280" cx="78.61" cy="65.58" r="0.87"/>
						<line class="st280" x1="80.75" y1="65.58" x2="93.81" y2="65.58"/>
					</g>
				</g>
				<g>
					
						<ellipse transform="matrix(0.1561 -0.9877 0.9877 0.1561 -16.5517 76.4648)" class="st281" cx="36.47" cy="47.92" rx="2.26" ry="2.26"/>
					<circle class="st281" cx="43.27" cy="47.92" r="2.26"/>
					
						<ellipse transform="matrix(0.2289 -0.9735 0.9735 0.2289 -8.0369 85.6916)" class="st281" cx="50.07" cy="47.92" rx="2.26" ry="2.26"/>
					
						<ellipse transform="matrix(0.1597 -0.9872 0.9872 0.1597 0.4807 96.4021)" class="st281" cx="56.87" cy="47.92" rx="2.26" ry="2.26"/>
					
						<ellipse transform="matrix(0.1597 -0.9872 0.9872 0.1597 6.1933 103.1134)" class="st281" cx="63.67" cy="47.92" rx="2.26" ry="2.26"/>
					
						<ellipse transform="matrix(0.1629 -0.9866 0.9866 0.1629 11.7059 109.6348)" class="st281" cx="70.47" cy="47.92" rx="2.26" ry="2.26"/>
				</g>
				<circle class="st281" cx="29.67" cy="55.81" r="2.26"/>
				<circle class="st281" cx="36.47" cy="55.81" r="2.26"/>
				<circle class="st281" cx="43.27" cy="55.81" r="2.26"/>
				<circle class="st282" cx="50.07" cy="55.81" r="2.26"/>
				<circle class="st281" cx="56.87" cy="55.81" r="2.26"/>
				<circle class="st281" cx="63.67" cy="55.81" r="2.26"/>
				<circle class="st281" cx="70.47" cy="55.81" r="2.26"/>
				<g>
					<circle class="st281" cx="29.67" cy="63.7" r="2.26"/>
					<circle class="st281" cx="36.47" cy="63.7" r="2.26"/>
					<circle class="st281" cx="43.27" cy="63.7" r="2.26"/>
					<circle class="st281" cx="50.07" cy="63.7" r="2.26"/>
					<circle class="st281" cx="56.87" cy="63.7" r="2.26"/>
					<circle class="st281" cx="63.67" cy="63.7" r="2.26"/>
					<circle class="st281" cx="70.47" cy="63.7" r="2.26"/>
				</g>
				<g>
					
						<ellipse transform="matrix(0.9239 -0.3827 0.3827 0.9239 -25.1361 16.8048)" class="st281" cx="29.67" cy="71.59" rx="2.26" ry="2.26"/>
					
						<ellipse transform="matrix(0.9315 -0.3637 0.3637 0.9315 -23.5405 18.1701)" class="st281" cx="36.47" cy="71.59" rx="2.26" ry="2.26"/>
					
						<ellipse transform="matrix(0.2306 -0.973 0.973 0.2306 -36.3652 97.1801)" class="st281" cx="43.27" cy="71.59" rx="2.26" ry="2.26"/>
					<circle class="st281" cx="50.07" cy="71.59" r="2.26"/>
					
						<ellipse transform="matrix(0.9247 -0.3806 0.3806 0.9247 -22.9661 27.0321)" class="st281" cx="56.87" cy="71.59" rx="2.26" ry="2.26"/>
					
						<ellipse transform="matrix(0.9247 -0.3806 0.3806 0.9247 -22.4544 29.6197)" class="st281" cx="63.67" cy="71.59" rx="2.26" ry="2.26"/>
					
						<ellipse transform="matrix(0.9184 -0.3957 0.3957 0.9184 -22.5736 33.722)" class="st281" cx="70.47" cy="71.59" rx="2.26" ry="2.26"/>
				</g>
				<g>
					<circle class="st281" cx="29.67" cy="79.48" r="2.26"/>
					<circle class="st281" cx="36.47" cy="79.48" r="2.26"/>
					<circle class="st281" cx="43.27" cy="79.48" r="2.26"/>
				</g>
				<path class="st282" d="M28.73,41.75l0.18-0.39c0.19,0.14,0.48,0.24,0.75,0.24c0.31,0,0.44-0.1,0.44-0.24
					c0-0.42-1.32-0.13-1.32-0.97c0-0.39,0.31-0.71,0.95-0.71c0.28,0,0.58,0.07,0.79,0.2l-0.16,0.4c-0.21-0.12-0.43-0.18-0.63-0.18
					c-0.31,0-0.43,0.12-0.43,0.26c0,0.42,1.32,0.13,1.32,0.96c0,0.38-0.31,0.7-0.96,0.7C29.3,42.01,28.93,41.91,28.73,41.75z"/>
				<path class="st277" d="M37.26,41.97l0-1.36l-0.67,1.12h-0.24l-0.66-1.09v1.33H35.2v-2.27h0.43l0.85,1.41l0.84-1.41h0.43
					l0.01,2.27H37.26z"/>
				<path class="st277" d="M43.01,40.14h-0.73v-0.43h1.97v0.43h-0.73v1.84h-0.52V40.14z"/>
				<path class="st277" d="M51.88,39.71l-0.74,2.27h-0.56l-0.5-1.53l-0.51,1.53H49l-0.74-2.27h0.54l0.51,1.59l0.53-1.59h0.49
					l0.52,1.61l0.53-1.61H51.88z"/>
				<path class="st277" d="M56.61,40.14h-0.73v-0.43h1.97v0.43h-0.73v1.84h-0.52V40.14z"/>
				<path class="st277" d="M63.33,40.13v0.6h1.05v0.42h-1.05v0.83h-0.52v-2.27h1.71v0.42H63.33z"/>
				<path class="st277" d="M69.52,41.75l0.18-0.39c0.19,0.14,0.48,0.24,0.75,0.24c0.31,0,0.44-0.1,0.44-0.24
					c0-0.42-1.32-0.13-1.32-0.97c0-0.39,0.31-0.71,0.95-0.71c0.28,0,0.58,0.07,0.79,0.2l-0.16,0.4c-0.21-0.12-0.43-0.18-0.63-0.18
					c-0.31,0-0.43,0.12-0.43,0.26c0,0.42,1.32,0.13,1.32,0.96c0,0.38-0.31,0.7-0.96,0.7C70.09,42.01,69.72,41.91,69.52,41.75z"/>
				<path class="st4" d="M96.79,37.11H23.92v-7.06c0-1.5,1.22-2.72,2.72-2.72h67.42c1.5,0,2.72,1.22,2.72,2.72V37.11z"/>
				<g>
					<g>
						<path class="st268" d="M39.46,32.48c-2.84,0-5.15-2.31-5.15-5.15s2.31-5.15,5.15-5.15s5.15,2.31,5.15,5.15h-0.94
							c0-2.32-1.89-4.21-4.21-4.21c-2.32,0-4.21,1.89-4.21,4.21s1.89,4.21,4.21,4.21V32.48z"/>
					</g>
					<g>
						<path class="st268" d="M46.42,32.48c-2.84,0-5.15-2.31-5.15-5.15s2.31-5.15,5.15-5.15s5.15,2.31,5.15,5.15h-0.94
							c0-2.32-1.89-4.21-4.21-4.21c-2.32,0-4.21,1.89-4.21,4.21s1.89,4.21,4.21,4.21V32.48z"/>
					</g>
					<g>
						<path class="st268" d="M53.39,32.48c-2.84,0-5.15-2.31-5.15-5.15s2.31-5.15,5.15-5.15s5.15,2.31,5.15,5.15H57.6
							c0-2.32-1.89-4.21-4.21-4.21s-4.21,1.89-4.21,4.21s1.89,4.21,4.21,4.21V32.48z"/>
					</g>
					<g>
						<path class="st268" d="M60.35,32.48c-2.84,0-5.15-2.31-5.15-5.15s2.31-5.15,5.15-5.15s5.15,2.31,5.15,5.15h-0.94
							c0-2.32-1.89-4.21-4.21-4.21c-2.32,0-4.21,1.89-4.21,4.21s1.89,4.21,4.21,4.21V32.48z"/>
					</g>
					<g>
						<path class="st268" d="M67.32,32.48c-2.84,0-5.15-2.31-5.15-5.15s2.31-5.15,5.15-5.15s5.15,2.31,5.15,5.15h-0.94
							c0-2.32-1.89-4.21-4.21-4.21c-2.32,0-4.21,1.89-4.21,4.21s1.89,4.21,4.21,4.21V32.48z"/>
					</g>
					<g>
						<path class="st268" d="M74.29,32.48c-2.84,0-5.15-2.31-5.15-5.15s2.31-5.15,5.15-5.15s5.15,2.31,5.15,5.15H78.5
							c0-2.32-1.89-4.21-4.21-4.21s-4.21,1.89-4.21,4.21s1.89,4.21,4.21,4.21V32.48z"/>
					</g>
					<g>
						<path class="st268" d="M81.25,32.48c-2.84,0-5.15-2.31-5.15-5.15s2.31-5.15,5.15-5.15s5.15,2.31,5.15,5.15h-0.94
							c0-2.32-1.89-4.21-4.21-4.21s-4.21,1.89-4.21,4.21s1.89,4.21,4.21,4.21V32.48z"/>
					</g>
				</g>
			</g>
			<g>
				<circle class="st277" cx="96.79" cy="16.19" r="8.42"/>
				<circle class="st66" cx="96.79" cy="16.19" r="6.43"/>
				<polyline class="st283" points="93.22,13.28 96.79,16.19 96.79,21.94 				"/>
			</g>
			<g>
				<path class="st284" d="M65.11,80.36l-2.36-4.27l-2.36,4.27c-0.47,0.86-1.38,1.39-2.36,1.39H42.28c-1.49,0-2.7,1.21-2.7,2.7
					v19.32c0,1.49,1.21,2.7,2.7,2.7h40.93c1.49,0,2.7-1.21,2.7-2.7V84.45c0-1.49-1.21-2.7-2.7-2.7H67.47
					C66.49,81.76,65.58,81.22,65.11,80.36z"/>
				<line class="st285" x1="53.27" y1="84.32" x2="53.27" y2="104.22"/>
				<path class="st282" d="M46,88.37c-1.56,0.17-2.83,1.43-3,2.99c-0.11,1,0.2,1.92,0.79,2.61c0.89,1.04,1.55,2.26,2.09,3.52
					l0.35,0.82c0.06,0.15,0.28,0.15,0.34,0l0.46-1.09c0.51-1.22,1.24-2.32,2.06-3.36c0.46-0.58,0.73-1.31,0.73-2.11
					C49.81,89.75,48.06,88.14,46,88.37z M46.39,93.09c-0.73,0-1.33-0.59-1.33-1.33c0-0.73,0.59-1.33,1.33-1.33
					c0.73,0,1.33,0.59,1.33,1.33C47.72,92.5,47.12,93.09,46.39,93.09z"/>
				<text transform="matrix(1 0 0 1 57.046 90.7414)" class="st277 st278 st286">10:30</text>
				<path class="st66" d="M79.64,93.8H57.42c-0.32,0-0.58-0.26-0.58-0.58l0,0c0-0.32,0.26-0.58,0.58-0.58h22.21
					c0.32,0,0.58,0.26,0.58,0.58l0,0C80.22,93.54,79.96,93.8,79.64,93.8z"/>
				<path class="st66" d="M79.64,96.94H57.42c-0.32,0-0.58-0.26-0.58-0.58l0,0c0-0.32,0.26-0.58,0.58-0.58h22.21
					c0.32,0,0.58,0.26,0.58,0.58l0,0C80.22,96.68,79.96,96.94,79.64,96.94z"/>
				<path class="st66" d="M65.09,103.72h-7.67c-0.32,0-0.58-0.26-0.58-0.58l0,0c0-0.32,0.26-0.58,0.58-0.58h7.67
					c0.32,0,0.58,0.26,0.58,0.58l0,0C65.67,103.46,65.41,103.72,65.09,103.72z"/>
			</g>
			<line class="st274" x1="23.92" y1="38.5" x2="23.92" y2="54.02"/>
			<g>
				<g>
					<g>
						<rect x="21.28" y="106.41" class="st273" width="1.41" height="1.93"/>
					</g>
					<g>
						<rect x="29.28" y="106.41" class="st273" width="1.41" height="1.93"/>
					</g>
					<g>
						<path class="st287" d="M20.98,108.63c0-0.56,0.45-1.01,1.01-1.01c0.56,0,1.01,0.45,1.01,1.01c0,0.56-0.45,1.01-1.01,1.01
							C21.43,109.64,20.98,109.19,20.98,108.63z"/>
					</g>
					<g>
						<path class="st273" d="M21.38,108.63c0-0.34,0.27-0.61,0.61-0.61c0.34,0,0.61,0.27,0.61,0.61c0,0.34-0.27,0.61-0.61,0.61
							C21.65,109.24,21.38,108.97,21.38,108.63z"/>
					</g>
					<g>
						<path class="st287" d="M28.98,108.63c0-0.56,0.45-1.01,1.01-1.01s1.01,0.45,1.01,1.01c0,0.56-0.45,1.01-1.01,1.01
							S28.98,109.19,28.98,108.63z"/>
					</g>
					<g>
						<path class="st273" d="M29.38,108.63c0-0.34,0.27-0.61,0.61-0.61c0.34,0,0.61,0.27,0.61,0.61c0,0.34-0.27,0.61-0.61,0.61
							C29.65,109.24,29.38,108.97,29.38,108.63z"/>
					</g>
					<g>
						<path class="st288" d="M33.39,107.49H18.74c-1.4,0-2.54-1.14-2.54-2.54v-0.33h19.54v0.52
							C35.74,106.44,34.69,107.49,33.39,107.49z"/>
					</g>
					<g>
						<path class="st289" d="M36.41,80.48v23.32c0,0.28-0.03,0.56-0.09,0.82h-2.73c-0.42,0-0.82,0.12-1.15,0.34
							c-0.21,0.13-0.39,0.3-0.54,0.49c-0.29,0.36-0.45,0.82-0.45,1.32v0.73H20.72v-0.73c0-0.75-0.38-1.41-0.96-1.79
							c-0.16-0.11-0.35-0.2-0.54-0.26c-0.2-0.06-0.42-0.1-0.64-0.1h-2.96c-0.06-0.26-0.09-0.54-0.09-0.82V80.48
							c0-2.04,1.65-3.69,3.69-3.69h13.5C34.76,76.79,36.41,78.44,36.41,80.48z"/>
					</g>
					<g>
						<path class="st273" d="M29.9,76.77c-2.53-1-4.63-0.95-5.95-0.73c-1.43,0.24-2.28,0.71-2.29,0.72l-0.17-0.3
							c0.04-0.02,0.9-0.51,2.39-0.76c1.37-0.23,3.55-0.28,6.16,0.75L29.9,76.77z"/>
					</g>
					<g>
						<path class="st290" d="M19.76,76.79v28.18c-0.16-0.11-0.35-0.2-0.54-0.26V76.79H19.76z"/>
					</g>
					<g>
						<rect x="23.53" y="76.79" class="st290" width="0.54" height="30.7"/>
					</g>
					<g>
						<rect x="27.54" y="76.79" class="st290" width="0.54" height="30.7"/>
					</g>
					<g>
						<path class="st290" d="M32.43,76.79v28.17c-0.21,0.13-0.39,0.3-0.54,0.49V76.79H32.43z"/>
					</g>
				</g>
				<g>
					<g>
						<path class="st291" d="M3.87,64.71c0-0.04,0.59-1.26,0.4-1.35c-0.19-0.09-0.52-0.08-0.56,0.13
							C3.67,63.71,3.87,64.71,3.87,64.71z"/>
					</g>
					<g>
						<path class="st291" d="M4.09,65.44c0-0.12-0.14-1.94-0.45-2.31c-0.31-0.36-0.94-0.88-1.13-0.86c-0.2,0.02-0.97,1.04-0.74,1.83
							c0.23,0.79,1.21,1.85,1.21,1.85L4.09,65.44z"/>
					</g>
					<g>
						<g>
							<path class="st292" d="M5.26,63.23l-1.79,0.54c-0.06,0.02-0.12-0.02-0.14-0.08l-1.02-3.41c-0.02-0.06,0.02-0.12,0.08-0.14
								l1.79-0.54c0.06-0.02,0.12,0.02,0.14,0.08l1.02,3.41C5.36,63.15,5.32,63.21,5.26,63.23z"/>
						</g>
						<g>
							<path class="st293" d="M4.8,63.37l-1.62,0.49c-0.11,0.03-0.22-0.03-0.25-0.13l-0.97-3.25c-0.03-0.11,0.03-0.22,0.13-0.25
								l1.62-0.49c0.11-0.03,0.22,0.03,0.25,0.13l0.97,3.25C4.96,63.23,4.9,63.34,4.8,63.37z"/>
						</g>
					</g>
					<g>
						<path class="st291" d="M2.33,62.41c0,0,0.75-1.15,0.93-1.08c0.26,0.09-0.68,1.55-0.68,1.55s0.69-1.09,0.8-1.01
							c0.25,0.19-0.15,0.87-0.54,1.39c0,0,0.7-0.64,0.72-0.52c0.08,0.4-0.77,1.38-0.77,1.38l-0.47-1.08V62.41z"/>
					</g>
					<g>
						<path class="st291" d="M1.77,63.47c0.04-0.14,0.22-2.88,0.3-2.62c0.08,0.26,0.26,1.7,0.26,1.7L1.77,63.47z"/>
					</g>
					<g>
						<path class="st228" d="M13.66,62.72c0,0-0.08,2.98-0.94,5.38c-0.68,1.9-1.84,3.44-3.84,2.87c-0.2-0.06-0.4-0.12-0.59-0.19
							c0,0,0,0,0,0c-4.06-1.41-5.38-4.65-5.38-4.65c0.3-0.5,1.18-0.68,1.18-0.68c0.82,0.04,4.41,1.57,4.64,1.62
							c0.83,0.17,1.5-4.4,2.04-5.98c0.54-1.58,2.75-2.29,2.75-2.29L13.66,62.72z"/>
					</g>
					<g>
						<path class="st294" d="M12.81,65.95l-0.08,2.15c-0.68,1.9-1.84,3.44-3.84,2.87c-0.2-0.06-0.4-0.12-0.59-0.19
							c0.06,0.01,1.29,0.17,1.8-0.34c0.53-0.53,0.47-2.27,1.44-3.44C12.5,65.84,12.81,65.95,12.81,65.95z"/>
					</g>
					<g>
						<path class="st295" d="M12.92,105.19c0,0,1,0.91,0.8,1.56c-0.2,0.65-1.1,1.08-1.22,1.87c-0.12,0.79-0.61,1.22-1.05,1.22
							c-0.44,0-2.09,0-2.09,0s-0.32-0.56,0.46-0.73c0.78-0.17,1.07-1.1,1.03-1.96c-0.05-0.86,0.07-2.02,0.07-2.02l1.66-0.38
							L12.92,105.19z"/>
					</g>
					<g>
						<path class="st295" d="M1.9,109.68h6.16c0.24,0,0.44-0.19,0.45-0.43c0.01-0.36-0.02-0.89-0.22-1.33
							c-0.33-0.73-0.54-0.86,0.85-2.98c-0.42,0.43-1.54,0.23-2.49,0.11c-0.12,0.19-1.88,2.91-2.27,3.19
							C3.95,108.55,2.04,108.44,1.9,109.68z"/>
					</g>
					<g>
						<path class="st273" d="M11.5,75.52c0,0-4.47,8.43-5.68,13.07c-0.94,3.6,4.81,17.54,4.81,17.54s0.47-0.03,1.24-0.33
							c0.75-0.3,1.04-1.09,1.04-1.09s-0.34-9.97-1.5-14.79c-0.26-1.08,1.27-4.57,3.84-6.49c2.58-1.91,3.65-8.06,2.12-8.48
							C15.83,74.54,11.5,75.52,11.5,75.52z"/>
					</g>
					<g>
						<path class="st296" d="M15.33,73.13c0,0-4.7,17.21-6.12,21.08c-1.42,3.87-3.68,12.07-3.68,12.07s1.43,0.67,3.26,0.35
							c0,0,6.87-10.06,7.17-14.5c0.14-2.05,7.04-10.2,6.28-15.51L15.33,73.13z"/>
					</g>
					<g>
						<path class="st228" d="M22.21,78.5c0,0-1,0.5-2.77,0.65h0c-2.02,0.17-5.05-0.13-8.74-2.18c0,0-1.03-0.85,0.24-4.45
							c0.96-2.73,1.42-8.49,2.59-13.73c0,0,3.79-1.19,6.83-0.16c2.32,0.79,2.09,4.35,2.52,8.06c0.04,0.35,0.09,0.69,0.14,1.04
							C23.65,71.79,22.21,78.5,22.21,78.5z"/>
					</g>
					<g>
						<path class="st297" d="M12.19,51.02c0,0,2.59-4.21,4.59-2.04c0,0,1.31,0.33,2.06,2.37c0.77,2.08-0.43,3.92-1.22,3.62
							c-0.51-0.19-0.75,0.69-0.75,0.69L12.19,51.02z"/>
					</g>
					<g>
						<path class="st297" d="M16.38,48.64c0,0,0.18-1.74,2.72-1.57c0,0-1.2,0.02-1.46,0.52c0,0,0.88-0.56,1.51-0.29
							c0.64,0.27,0.91,1.47,0.87,1.85c-0.03,0.38-0.53,1.57-0.95,1.63c-0.43,0.06-0.99-0.24-0.99-0.24L16.38,48.64z"/>
					</g>
					<g>
						<path class="st291" d="M17.67,58.51c-0.24-0.64-0.6-1.31-0.88-3.34l-0.15,0.05l-2.57,0.91c0,0,0.18,0.82,0.3,1.61
							c0.05,0.32,0.08,0.89,0.1,1.39c0.02,0.51,0.52,0.56,1.04,0.54C16.85,59.6,17.6,59.1,17.67,58.51z"/>
					</g>
					<g>
						<path class="st298" d="M14.06,56.13c0,0,0.18,0.82,0.3,1.61c1.47-0.26,2.06-1.72,2.28-2.51L14.06,56.13z"/>
					</g>
					<g>
						<path class="st297" d="M16.86,54.9c0,0,0.6-1.34,0.63-2.41c0.03-0.77-0.76-3.49-3.49-2.69c0,0-0.8,0.2-1.49,0.82
							c-0.55,0.5-1.29,1.5,0.03,3.79l0.37,0.78L16.86,54.9z"/>
					</g>
					<g>
						<path class="st291" d="M13.67,56.95c0,0,3.51-0.45,3.2-2.63c-0.31-2.18-0.07-3.71-2.32-3.52c-2.26,0.19-2.57,1.09-2.64,1.84
							C11.83,53.39,12.75,57.01,13.67,56.95z"/>
					</g>
					<g>
						<path class="st297" d="M12.95,50.97c0,0,1.33,2.42,2.86,2.59c1.53,0.17,2.11-0.32,2.11-0.32s-1.26-0.73-1.72-2.27
							C16.19,50.98,13.49,49.65,12.95,50.97z"/>
					</g>
					<g>
						<path class="st297" d="M13.21,51.15c0,0-0.63,0.67-0.73,1.26c-0.09,0.58-0.01,1.74-0.35,1.75c0,0-0.97-1.64-0.3-2.74
							C12.55,50.24,13.21,51.15,13.21,51.15z"/>
					</g>
					<g>
						<path class="st297" d="M13.09,51.25c0,0,1.07,2.58,3.05,3.17c0,0-2.09-1.38-2.51-3.13C13.22,49.55,13.09,51.25,13.09,51.25z"
							/>
					</g>
					<g>
						<path class="st294" d="M22.21,78.5c0,0-1,0.5-2.77,0.65h0c0,0-1.45-1.82,0.17-3.86c1.62-2.04-0.13-5.8,1.12-7.85
							c0.87-1.42,1.71-1.09,2.15-0.76c0.04,0.35,0.09,0.69,0.14,1.04C23.65,71.79,22.21,78.5,22.21,78.5z"/>
					</g>
					<g>
						<path class="st291" d="M28.58,75.47c0,0,0.22,0.5,0.52,0.53c0.49,0.05,1.43,0.47,1.57,0.55c0.4,0.24,0.37,1.29-0.03,1.39
							c-0.4,0.1-0.6-0.79-1.84-1.03c-0.42-0.08-1.04,0.21-1.29-0.8L28.58,75.47z"/>
					</g>
					<g>
						<path class="st228" d="M20.36,58.62c3.62,1.33,3.75,7.74,5.36,10.56c1.66,2.91,3.28,6.74,3.28,6.74s-0.03,0.11-0.65,0.29
							c-0.44,0.13-0.89,0.07-0.89,0.07s-3.42-3.09-4.34-4.31C22.19,70.75,20,65.1,20,65.1S18.92,58.09,20.36,58.62z"/>
					</g>
					<g>
						<path class="st291" d="M27.61,76.38c0,0,0.09,0.43,0.62,0.78c0.53,0.35,0.96,0.7,1.01,0.48c0.05-0.22-0.3-0.45-0.38-0.85
							C28.78,76.4,27.61,76.38,27.61,76.38z"/>
					</g>
				</g>
			</g>
			<g>
				<g id="man_3_">
					<g>
						<path class="st291" d="M75.68,57.52c0.28,0.76,0.77,1.64,1.29,1.86c0.58,0.25,0.83,0.6,0.83,0.6l0.47-0.27l0.56-0.33
							c0,0-0.01-0.06-0.04-0.16c-0.03-0.1-0.07-0.24-0.13-0.4c0,0-0.17-0.22-0.07-0.5c0.11-0.28,0.08-0.71-0.1-0.97
							c-0.18-0.26-0.35-0.91-0.46-0.89c-0.26,0.05,0.13,0.93,0.02,1.1c-0.1,0.15-0.23,0.1-0.25,0.09c0,0,0,0,0,0
							c-0.74-0.32-1.63-2.07-2.03-1.83C75.62,55.9,75.56,57.2,75.68,57.52z"/>
					</g>
					<g>
						<g>
							<path class="st275" d="M78.23,58.58l-0.92,0.65c-0.07,0.05-0.16,0.03-0.2-0.04l-2.36-3.36c-0.05-0.07-0.03-0.16,0.04-0.2
								l0.92-0.65c0.07-0.05,0.16-0.03,0.2,0.04l2.36,3.36C78.31,58.45,78.29,58.54,78.23,58.58z"/>
						</g>
						<g>
							<path class="st297" d="M77.38,59.18l-0.54,0.38c-0.05,0.03-0.12,0.02-0.15-0.03l-2.4-3.42c-0.03-0.05-0.02-0.12,0.03-0.15
								l0.54-0.38c0.05-0.03,0.12-0.02,0.15,0.03l2.4,3.42C77.44,59.07,77.43,59.14,77.38,59.18z"/>
						</g>
					</g>
					<g>
						<path class="st297" d="M91.47,53.75c0,0-4.7,8.19-6.4,9.7l-6.25-4.66c0,0-0.91,0.28-1.3,1.19c0,0,4.8,7.74,7.53,8.06
							c3.72,0.44,8.98-9.26,8.98-9.26L91.47,53.75z"/>
					</g>
					<g>
						<g>
							<path class="st299" d="M100.24,109.61h2.71c0.34-0.19,0.65-0.61,0.74-1.24c0.13-0.87,1.11-1.35,1.32-2.07
								c0.21-0.71-0.87-1.72-0.87-1.72l-0.18-0.23l-0.19-0.24l-1.8,0.42c0,0-0.04,0.43-0.07,0.98c-0.02,0.39-0.03,0.85-0.01,1.25
								c0.05,0.95-0.27,1.98-1.11,2.17C100.16,109.05,100.19,109.42,100.24,109.61z"/>
						</g>
						<g>
							<path class="st299" d="M86.35,109.47h6.21c0.3-0.36,0.19-1.71,0.14-2.15c-0.01-0.09-0.02-0.14-0.02-0.14s-2.12-1.7-2.41-0.4
								c-0.01,0.04-0.02,0.08-0.03,0.12c-0.37,1.21-2.01,1.77-2.96,1.92C86.66,108.92,86.43,109.25,86.35,109.47z"/>
						</g>
						<g>
							<g>
								<path class="st1" d="M87.53,74.83c0,0,0.32,4.01,0.7,8.84c0.51,6.56,1.13,14.61,1.19,16.13c0.11,2.65,0.53,6.89,0.53,6.89
									s1.01,1.01,3.02,0.58c0,0,1.79-6.05,2.31-12.45c0.01-0.1,0.02-0.21,0.02-0.32c0.48-6.52,1.22-20.23,1.22-20.23L87.53,74.83z
									"/>
							</g>
						</g>
						<g>
							<path class="st4" d="M87.53,74.83c0,0,0.32,4.01,0.7,8.84l7.05,11.15c0.01-0.1,0.02-0.21,0.02-0.32
								c0.48-6.52,1.22-20.23,1.22-20.23L87.53,74.83z"/>
						</g>
						<g>
							<g>
								<path class="st1" d="M89.1,74.17c0,0,4.87,14.84,8.22,21.87c3.35,7.03,4.41,9,4.41,9s2.19-0.75,2.42-1.34
									c0,0-1.16-12.34-3.48-15.69c-1.31-1.89-2.19-8.34-2.16-10.25c0.03-1.91-0.19-5.7-0.19-5.7L89.1,74.17z"/>
							</g>
						</g>
					</g>
					<g>
						<path class="st291" d="M90.44,54.11c2.27,0.72,6.19-1.21,6.19-1.21s-2.09-1.57-1.98-4.83l-1.75,1.41l-1.19,0.96
							c0,0,0,0.57,0.14,1.56c0,0,0,0.01,0,0.01c0.07,0.5-0.13,0.99-0.53,1.29C90.75,53.72,90.44,54.11,90.44,54.11z"/>
					</g>
					<g>
						<path class="st300" d="M91.71,50.44c0,0,0,0.57,0.14,1.56c1.32-0.23,2.82-2.36,2.82-2.36c-0.67-0.19-1.26-0.23-1.76-0.16
							L91.71,50.44z"/>
					</g>
					<g>
						<path class="st291" d="M91.02,50.38c0,0,3.74,0.62,4.1-1.72c0.35-2.34,1.07-3.83-1.3-4.33c-2.38-0.5-2.97,0.33-3.28,1.08
							C90.22,46.17,90.05,50.16,91.02,50.38z"/>
					</g>
					<g>
						<path class="st275" d="M87.28,75.16c0.07,0.06,0.15,0.09,0.24,0.09c0.85-0.01,3.33,0.46,5.43,0.25
							c1.77-0.17,3.34-0.69,5.02-1.45c0.22-0.1,0.74-0.37,0.73-0.62c-0.01-0.27-0.03-0.67-0.07-1.17c-0.12-1.74-0.33-4.72-0.12-8.17
							c0.04-0.64,0.06-1.28,0.06-1.91c0.02-4.67-0.91-8.78-2.77-10.17c-0.16-0.11-1.13,0.36-2.03,0.81
							c-0.83,0.41-1.47,0.45-2.25,0.29l-0.97,0.7c-0.95,0.89-2,2.09-2.45,3.92c-0.39,1.55-0.61,4.36-0.74,7.26
							c-0.06,1.32-0.1,2.64-0.11,3.9v0.05c-0.01,0.12-0.01,0.26-0.01,0.39C87.18,72.55,87.22,75.12,87.28,75.16z"/>
					</g>
					<g>
						<path class="st297" d="M98.63,72.26c-0.12-1.74-0.33-4.72-0.12-8.17c0.04-0.64,0.06-1.28,0.06-1.91
							c-0.78-1.88-1.41-3.24-1.41-3.24H95.2C95.2,58.94,93.77,68.72,98.63,72.26z"/>
					</g>
					<g>
						<path class="st275" d="M95.11,48.44c0,0-0.38-0.06-0.32-0.59c0.06-0.53,0.06-1.22-0.37-1.09c-0.43,0.13-0.45,0.47-0.63,0.27
							c-0.18-0.2-0.18-1.05-1.46-1.11c-1.28-0.06-1.8,0.39-2.4,0.12c-0.6-0.26-0.63-1.16-0.63-1.16s0.17,0.32,0.43,0.42
							c0,0-0.99-1.36,0.16-2.29c1.15-0.93,2.32-0.32,2.99-0.28c1.47,0.09,2.41,0.18,2.89,1.14C96.25,44.84,96.05,47.52,95.11,48.44z
							"/>
					</g>
					<g>
						<g>
							<path class="st296" d="M123.63,107.84c-0.12,0.73,0.43,1.57,1.22,1.88c0.79,0.31,1.52-0.03,1.64-0.76
								c0.12-0.73-0.43-1.57-1.22-1.88C124.48,106.77,123.74,107.11,123.63,107.84z"/>
						</g>
						<g>
							<path class="st296" d="M113.62,107.86c-0.12,0.73,0.43,1.57,1.22,1.88c0.79,0.31,1.52-0.03,1.64-0.76
								c0.12-0.73-0.43-1.57-1.22-1.88C114.47,106.79,113.73,107.13,113.62,107.86z"/>
						</g>
						<g>
							<path class="st228" d="M126.46,107.65l-1.8,0.74c-0.18,0.07-0.38,0.11-0.6,0.11l-11.29-0.09l-1.77-2.09L126.46,107.65z"/>
						</g>
						<g>
							<g>
								<path class="st296" d="M114.91,83.47l-4.32-6.32l-0.01-0.01c-0.03-0.06-0.72-1.41-4.37-1.78l-0.02,0l-3.01-0.41
									c-0.39-0.07-1.51-0.2-2.01,0.06c-0.22,0.11-0.31,0.3-0.26,0.57c0.1,0.53,2.97,4.63,4.87,7.25l-0.57,0.14
									c-0.49-0.68-4.78-6.62-4.93-7.37c-0.07-0.4,0.08-0.7,0.46-0.89c0.82-0.42,2.39-0.16,2.56-0.13l2.97,0.4
									c3.94,0.4,4.8,1.89,4.89,2.06l4.3,6.3L114.91,83.47z"/>
							</g>
						</g>
						<g>
							<path class="st228" d="M107.5,82.22l-5.75,1.26c0,0-1.58,0.74-0.41,3.93c1.03,2.8,6.42,18.52,6.42,18.52s1.12,3.27,7.69,2.31
								L107.5,82.22z"/>
						</g>
						<g>
							<path class="st229" d="M105.25,86.55l6.15,17.61c0.25,0.71,0.66,1.37,1.18,1.91c0.96,1.02,2.28,1.67,3.58,1.68l5.64,0.02
								l0.14,0l3.53,0.02c0.36,0,0.69-0.05,0.99-0.13c0.07-0.02,0.14-0.04,0.21-0.07c1.11-0.42,1.79-1.44,1.82-2.7
								c0.01-0.53-0.1-1.11-0.34-1.7l-6.88-16.84c-0.73-1.8-2.51-3.17-4.32-3.34l-1.02-0.1l-0.24-0.02l0,0l-0.2-0.02l-3.41-0.32
								l-0.42-0.04l-3.29-0.31c-0.52-0.05-0.99,0-1.41,0.14c-0.03,0.01-0.05,0.02-0.08,0.03l-0.17,0.07
								C105.27,83.04,104.59,84.68,105.25,86.55z"/>
						</g>
						<g class="st301">
							<path class="st228" d="M112.58,106.07c0.96,1.02,2.28,1.67,3.58,1.68l5.64,0.02l0.14,0l3.53,0.02c0.36,0,0.69-0.05,0.99-0.13
								c0.07-0.02,0.14-0.04,0.21-0.07c1.11-0.42,2.13-1.94,1.74-3.55c0,0-11.96-0.13-14.35,0.26
								C112.83,104.51,112.68,105.43,112.58,106.07z"/>
						</g>
						<g>
							<g>
								<g>
									<path class="st228" d="M115.48,82.87c0.03,0.02,3.06,1.64,3.77,3.08c0.73,1.47,7.5,18.66,7.57,18.84
										c0.01,0.01,0.5,1.68-0.53,2.92l0.17-0.04c0.07-0.02,0.14-0.04,0.21-0.07c0.93-1.29,0.38-2.77,0.36-2.83
										c-0.28-0.71-6.85-17.37-7.58-18.86c-0.65-1.3-2.82-2.59-3.52-2.98l-0.24-0.02l0,0L115.48,82.87z"/>
								</g>
							</g>
							<g>
								<g>
									<path class="st228" d="M111.65,82.51c0.44,0.26,2.16,1.38,3,3.44c0.98,2.42,6.9,20.02,6.96,20.19l0,0.01l0.01,0.01
										c0,0.01,0.45,0.96,0.04,1.6l0.14,0l0.14,0c0.38-0.69-0.06-1.54-0.13-1.66c-0.18-0.54-5.99-17.79-6.96-20.2
										c-0.72-1.78-2.07-2.88-2.78-3.37L111.65,82.51z"/>
								</g>
							</g>
							<g>
								<g>
									<path class="st228" d="M106.7,82.44c0.01,0.01,0.64,0.32,1.24,0.86c0.61,0.54,1.33,1.38,1.81,2.56
										c0.98,2.42,6.59,19.96,6.65,20.13l0,0.01l0.01,0.01c0.01,0.01,0.33,1.08-0.08,1.73l0.36,0c0.29-0.59-0.01-1.66-0.08-1.78
										c-0.18-0.56-5.68-17.74-6.65-20.14c-0.92-2.26-2.64-3.29-3-3.49c-0.03,0.01-0.05,0.02-0.08,0.03L106.7,82.44z"/>
								</g>
							</g>
						</g>
					</g>
					<g>
						<path class="st291" d="M102.6,71.52c0,0,0.25,1.79,0.27,2.03c0.12,1.58-0.11,1.73,0.76,2.01c0.24,0.08,0.89,0.08,1.26-0.38
							c0,0-0.6-0.04-0.5-0.91c0.12-1,0.06-0.72-0.55-1.53l-0.14-1.5L102.6,71.52z"/>
					</g>
					<g>
						<path class="st275" d="M103.42,73.04c-0.7,0.14-1.47,0.08-1.47,0.08s-2.09-6.45-2.36-7.04c-0.27-0.59-6.21-7.57-6.21-7.57
							l2.47-6.19c0,0,6.42,10.73,7.07,12.23c1.08,2.49,1.45,8.07,1.45,8.07S103.97,72.93,103.42,73.04z"/>
					</g>
					<g>
						<path class="st291" d="M102.87,73.55c0,0-0.15,0.39-0.16,0.58c-0.02,0.59-0.18,0.87-0.08,0.92c0.22,0.11,0.44-0.36,0.52-0.76
							C103.24,73.89,102.87,73.55,102.87,73.55z"/>
					</g>
				</g>
			</g>
		</g>
	</g>
</g>
</svg>
