<?xml version="1.0" encoding="utf-8"?>
<!-- Generator: Adobe Illustrator 24.0.0, SVG Export Plug-In . SVG Version: 6.00 Build 0)  -->
<svg version="1.1" id="Layer_1" xmlns="http://www.w3.org/2000/svg" xmlns:xlink="http://www.w3.org/1999/xlink" x="0px" y="0px"
	 viewBox="0 0 60.24 30.89" style="enable-background:new 0 0 60.24 30.89;" xml:space="preserve">
<style type="text/css">
	.st0{fill:#6C727C;}
	.st1{fill:#FC5E31;}
	.st2{fill:#8CC63F;}
	.st3{fill:#F3F4F5;}
	.st4{fill:#F74A2D;}
	.st5{fill:#153663;}
	.st6{fill:#153765;}
	.st7{fill:#153867;}
	.st8{fill:#153969;}
	.st9{fill:#15396B;}
	.st10{fill:#153A6D;}
	.st11{fill:#153B6F;}
	.st12{fill:#153C71;}
	.st13{fill:#143D73;}
	.st14{fill:#143E75;}
	.st15{fill:#143E77;}
	.st16{fill:#143F79;}
	.st17{fill:#14407B;}
	.st18{fill:#14417D;}
	.st19{fill:#14427F;}
	.st20{fill:#144381;}
	.st21{fill:#144383;}
	.st22{fill:#144485;}
	.st23{fill:#144587;}
	.st24{fill:#144689;}
	.st25{fill:#14478B;}
	.st26{fill:#14488D;}
	.st27{fill:#14488F;}
	.st28{fill:#144991;}
	.st29{fill:#134A93;}
	.st30{fill:#134B95;}
	.st31{fill:#134C97;}
	.st32{fill:#134D99;}
	.st33{fill:#134D9B;}
	.st34{fill:#134E9D;}
	.st35{fill:#134F9F;}
	.st36{fill:#1350A1;}
	.st37{fill-rule:evenodd;clip-rule:evenodd;fill:#F1E7ED;}
	.st38{fill-rule:evenodd;clip-rule:evenodd;fill:#A893D0;}
	.st39{opacity:0.5;fill-rule:evenodd;clip-rule:evenodd;fill:#5D2C84;}
	.st40{fill-rule:evenodd;clip-rule:evenodd;fill:#CABDE2;}
	.st41{fill-rule:evenodd;clip-rule:evenodd;fill:#704E8D;}
	.st42{fill-rule:evenodd;clip-rule:evenodd;fill:#FBF9FB;}
	.st43{opacity:0.83;fill-rule:evenodd;clip-rule:evenodd;fill:url(#SVGID_2_);}
	.st44{opacity:0.83;fill-rule:evenodd;clip-rule:evenodd;fill:url(#SVGID_3_);}
	.st45{fill:#8D6B96;}
	.st46{opacity:0.2;fill-rule:evenodd;clip-rule:evenodd;fill:#864C90;}
	.st47{fill-rule:evenodd;clip-rule:evenodd;fill:#CECBEA;}
	.st48{fill-rule:evenodd;clip-rule:evenodd;fill:#39175A;}
	.st49{fill-rule:evenodd;clip-rule:evenodd;fill:#F83D45;}
	.st50{fill-rule:evenodd;clip-rule:evenodd;fill:#B32742;}
	.st51{fill-rule:evenodd;clip-rule:evenodd;fill:#A28BCC;}
	.st52{opacity:0.5;fill-rule:evenodd;clip-rule:evenodd;fill:#864C90;}
	.st53{fill-rule:evenodd;clip-rule:evenodd;fill:url(#SVGID_4_);}
	.st54{fill-rule:evenodd;clip-rule:evenodd;fill:url(#SVGID_6_);}
	.st55{fill:#B32742;}
	.st56{fill-rule:evenodd;clip-rule:evenodd;fill:url(#SVGID_8_);}
	.st57{fill-rule:evenodd;clip-rule:evenodd;fill:url(#SVGID_9_);}
	.st58{fill-rule:evenodd;clip-rule:evenodd;fill:#7A5AC4;}
	.st59{fill-rule:evenodd;clip-rule:evenodd;fill:#7A5AA7;}
	.st60{fill-rule:evenodd;clip-rule:evenodd;fill:#5A2967;}
	.st61{fill-rule:evenodd;clip-rule:evenodd;fill:#C4D1ED;}
	.st62{opacity:0.5;fill-rule:evenodd;clip-rule:evenodd;fill:#6D4C90;}
	.st63{fill:#7A5AA7;}
	.st64{fill:#39175A;}
	.st65{fill-rule:evenodd;clip-rule:evenodd;fill:url(#SVGID_10_);}
	.st66{fill:#FFFFFF;}
	.st67{fill-rule:evenodd;clip-rule:evenodd;fill:url(#SVGID_11_);}
	.st68{fill-rule:evenodd;clip-rule:evenodd;fill:url(#SVGID_12_);}
	.st69{fill-rule:evenodd;clip-rule:evenodd;fill:url(#SVGID_13_);}
	.st70{fill-rule:evenodd;clip-rule:evenodd;fill:url(#SVGID_14_);}
	.st71{fill-rule:evenodd;clip-rule:evenodd;fill:url(#SVGID_15_);}
	.st72{fill-rule:evenodd;clip-rule:evenodd;fill:url(#SVGID_16_);}
	.st73{fill-rule:evenodd;clip-rule:evenodd;fill:url(#SVGID_17_);}
	.st74{fill-rule:evenodd;clip-rule:evenodd;fill:url(#SVGID_18_);}
	.st75{fill-rule:evenodd;clip-rule:evenodd;fill:url(#SVGID_19_);}
	.st76{opacity:0.4;fill-rule:evenodd;clip-rule:evenodd;fill:#864C90;}
	.st77{fill-rule:evenodd;clip-rule:evenodd;fill:url(#SVGID_20_);}
	.st78{fill-rule:evenodd;clip-rule:evenodd;fill:#FFFFFF;}
	.st79{fill-rule:evenodd;clip-rule:evenodd;fill:url(#SVGID_21_);}
	.st80{opacity:0.44;fill-rule:evenodd;clip-rule:evenodd;fill:#60003B;}
	.st81{fill-rule:evenodd;clip-rule:evenodd;fill:url(#SVGID_22_);}
	.st82{fill-rule:evenodd;clip-rule:evenodd;fill:url(#SVGID_23_);}
	.st83{fill-rule:evenodd;clip-rule:evenodd;fill:url(#SVGID_24_);}
	.st84{fill-rule:evenodd;clip-rule:evenodd;fill:url(#SVGID_25_);}
	.st85{fill-rule:evenodd;clip-rule:evenodd;fill:url(#SVGID_26_);}
	.st86{fill-rule:evenodd;clip-rule:evenodd;fill:url(#SVGID_27_);}
	.st87{fill-rule:evenodd;clip-rule:evenodd;fill:url(#SVGID_28_);}
	.st88{fill-rule:evenodd;clip-rule:evenodd;fill:url(#SVGID_29_);}
	.st89{fill-rule:evenodd;clip-rule:evenodd;fill:url(#SVGID_30_);}
	.st90{fill-rule:evenodd;clip-rule:evenodd;fill:url(#SVGID_31_);}
	.st91{fill-rule:evenodd;clip-rule:evenodd;fill:url(#SVGID_32_);}
	.st92{fill-rule:evenodd;clip-rule:evenodd;fill:url(#SVGID_33_);}
	.st93{fill-rule:evenodd;clip-rule:evenodd;fill:url(#SVGID_34_);}
	.st94{fill-rule:evenodd;clip-rule:evenodd;fill:url(#SVGID_35_);}
	.st95{fill-rule:evenodd;clip-rule:evenodd;fill:url(#SVGID_36_);}
	.st96{fill-rule:evenodd;clip-rule:evenodd;fill:url(#SVGID_37_);}
	.st97{fill-rule:evenodd;clip-rule:evenodd;fill:url(#SVGID_38_);}
	.st98{fill-rule:evenodd;clip-rule:evenodd;fill:url(#SVGID_39_);}
	.st99{fill-rule:evenodd;clip-rule:evenodd;fill:url(#SVGID_40_);}
	.st100{fill-rule:evenodd;clip-rule:evenodd;fill:url(#SVGID_41_);}
	.st101{fill-rule:evenodd;clip-rule:evenodd;fill:url(#SVGID_42_);}
	.st102{fill-rule:evenodd;clip-rule:evenodd;fill:url(#SVGID_43_);}
	.st103{fill-rule:evenodd;clip-rule:evenodd;fill:url(#SVGID_44_);}
	.st104{fill:#F2E225;}
	.st105{opacity:0.4;fill:url(#SVGID_45_);}
	.st106{fill:#814BA2;}
	.st107{fill:#925CB4;}
	.st108{fill:#B289C9;}
	.st109{fill:#A274BF;}
	.st110{opacity:0.4;fill:url(#SVGID_46_);}
	.st111{fill:#813034;}
	.st112{fill:#802F34;}
	.st113{fill:#AFD2EF;}
	.st114{fill:#E54C3C;}
	.st115{fill:#57607F;}
	.st116{fill:#BF3A2C;}
	.st117{fill:#BF3A2B;}
	.st118{fill:#8796C8;}
	.st119{fill:#C88D95;}
	.st120{fill:#8696C9;}
	.st121{fill:#56607F;}
	.st122{fill:#E3E4E6;}
	.st123{fill:#D8DADE;}
	.st124{opacity:0.4;fill:url(#SVGID_47_);}
	.st125{fill:#F2582F;}
	.st126{fill:#FF7043;}
	.st127{fill:#8E2611;}
	.st128{fill:#E53935;}
	.st129{fill:#F0534A;}
	.st130{fill:#D5D5D3;}
	.st131{opacity:0.4;fill:url(#SVGID_48_);}
	.st132{fill:#F8749D;}
	.st133{fill:#403063;}
	.st134{fill:#403365;}
	.st135{fill:#403264;}
	.st136{fill:#413265;}
	.st137{fill:#E4E5E6;}
	.st138{fill:#E2E2E4;}
	.st139{fill:#DEDEE2;}
	.st140{fill:#3D2E61;}
	.st141{fill:#FDF7F9;}
	.st142{fill:#FDD6E4;}
	.st143{opacity:0.4;fill:url(#SVGID_49_);}
	.st144{fill:#C20047;}
	.st145{fill:#FE405C;}
	.st146{fill:#B1D3EF;}
	.st147{fill:#E0F1FD;}
	.st148{opacity:0.4;fill:url(#SVGID_50_);}
	.st149{opacity:0.4;fill:url(#SVGID_51_);}
	.st150{opacity:0.4;fill:url(#SVGID_52_);}
	.st151{opacity:0.4;fill:url(#SVGID_53_);}
	.st152{opacity:0.4;fill:url(#SVGID_54_);}
	.st153{opacity:0.4;fill:url(#SVGID_55_);}
	.st154{opacity:0.4;fill:url(#SVGID_56_);}
	.st155{fill:#FF5F85;}
	.st156{fill:#FFE878;}
	.st157{fill:#B2527E;}
	.st158{fill:#004FAB;}
	.st159{fill:#57A3FE;}
	.st160{fill:#FEFEFE;}
	.st161{fill:#37A6CD;}
	.st162{fill:#E19A4B;}
	.st163{fill:#54BBE8;}
	.st164{fill:#FBB55F;}
	.st165{fill:#E29A4C;}
	.st166{fill:#E4E8E9;}
	.st167{fill:#D1D0D0;}
	.st168{fill:#E3E7E8;}
	.st169{fill:#566369;}
	.st170{fill:#E19A4C;}
	.st171{fill:#445155;}
	.st172{fill:#E4E7E7;}
	.st173{fill:#566368;}
	.st174{fill:#6E7A7E;}
	.st175{fill:#435054;}
	.st176{fill:#5E5461;}
	.st177{fill:#6F6571;}
	.st178{fill:#5D5360;}
	.st179{fill:#4B3F4E;}
	.st180{fill:#FCCE64;}
	.st181{fill:#FEDF7E;}
	.st182{fill:#857D86;}
	.st183{fill:#3E8FC8;}
	.st184{fill:#FCB630;}
	.st185{fill:#88B237;}
	.st186{fill:#E7594A;}
	.st187{fill:#4398D0;}
	.st188{fill:#D55245;}
	.st189{fill:#80A734;}
	.st190{fill:#FEA71A;}
	.st191{fill:#FAD390;}
	.st192{fill:#F2D45C;}
	.st193{fill:#FA7B76;}
	.st194{fill:#FE5364;}
	.st195{fill:#F8E3C1;}
	.st196{fill:#2D5871;}
	.st197{fill:#FDD8A7;}
	.st198{fill:#E0EEFA;}
	.st199{fill:#F3C792;}
	.st200{fill:#CBDEEC;}
	.st201{fill:#FE4D4C;}
	.st202{fill:#F23A3A;}
	.st203{fill:#1D4859;}
	.st204{fill:#FEB025;}
	.st205{fill:#FE901D;}
	.st206{fill:#1E495A;}
	.st207{fill:#2F5972;}
	.st208{fill:#F3C892;}
	.st209{opacity:0.4;fill:url(#SVGID_57_);}
	.st210{opacity:0.4;fill:url(#SVGID_58_);}
	.st211{fill:#949AA8;}
	.st212{fill:#B3B3B3;}
	.st213{fill:#575D72;}
	.st214{fill:#A3E0F4;}
	.st215{fill:#C2EAF8;}
	.st216{fill:#28304E;}
	.st217{fill:#EC5176;}
	.st218{fill:#FECC34;}
	.st219{fill:#FE76A3;}
	.st220{fill:#E69115;}
	.st221{fill:#FF0000;}
	.st222{fill:#F4AE00;}
	.st223{opacity:0.12;fill:#1B1E23;}
	.st224{fill:#E7E8FA;}
	.st225{fill:#57A845;}
	.st226{fill:none;stroke:#283847;stroke-width:1.2169;stroke-miterlimit:10;}
	.st227{opacity:0.5;fill:#283847;}
	.st228{fill:#6B98F6;}
	.st229{fill:#79AFFF;}
	.st230{clip-path:url(#XMLID_3_);fill:#79AFFF;}
	.st231{clip-path:url(#XMLID_3_);}
	.st232{fill:none;stroke:#212121;stroke-width:1.5836;stroke-linecap:round;stroke-linejoin:round;stroke-miterlimit:10;}
	.st233{fill:#17566C;}
	.st234{clip-path:url(#XMLID_6_);fill:#79AFFF;}
	.st235{clip-path:url(#XMLID_6_);fill:#2072A9;}
	.st236{clip-path:url(#XMLID_6_);fill:#2175B8;}
	.st237{opacity:0.02;clip-path:url(#XMLID_9_);}
	.st238{opacity:0.13;clip-path:url(#XMLID_9_);fill:#FFFFFF;}
	.st239{fill:none;stroke:#212121;stroke-width:0.5;stroke-linecap:round;stroke-linejoin:round;stroke-miterlimit:10;}
	.st240{fill:#212121;}
	.st241{opacity:0.02;clip-path:url(#XMLID_19_);}
	.st242{opacity:0.13;clip-path:url(#XMLID_19_);fill:#FFFFFF;}
	.st243{clip-path:url(#XMLID_20_);fill:#B0C7D8;}
	.st244{clip-path:url(#XMLID_21_);fill:#3A4149;}
	.st245{fill:#FBFFFF;}
	.st246{fill:#EEEEEE;}
	.st247{fill:#FF7B35;}
	.st248{fill:#509DFF;}
	.st249{fill:#B0C7D8;}
	.st250{opacity:0.3;fill:#FFFFFC;}
	.st251{clip-path:url(#XMLID_26_);fill:#FC6C2B;}
	.st252{fill:#B8D0E5;}
	.st253{fill:none;stroke:#000000;stroke-width:2.5763;stroke-miterlimit:10;}
	.st254{opacity:0.12;clip-path:url(#XMLID_27_);}
	.st255{clip-path:url(#XMLID_28_);fill:#217AAB;}
	.st256{opacity:0.2;}
	.st257{opacity:0.12;clip-path:url(#XMLID_29_);fill:#FFFFFF;}
	.st258{opacity:0.03;clip-path:url(#XMLID_42_);}
	.st259{opacity:0.03;clip-path:url(#XMLID_43_);fill:#010102;}
	.st260{opacity:0.04;clip-path:url(#XMLID_44_);}
	.st261{fill:#FDAF00;}
	.st262{fill:#FF7C00;}
	.st263{opacity:0.3;clip-path:url(#XMLID_45_);}
	.st264{opacity:0.3;}
	.st265{fill:none;stroke:#212121;stroke-width:0.9542;stroke-linecap:round;stroke-linejoin:round;stroke-miterlimit:10;}
	.st266{opacity:0.3;clip-path:url(#XMLID_47_);}
	.st267{fill:none;stroke:#212121;stroke-width:1.188;stroke-linecap:round;stroke-linejoin:round;stroke-miterlimit:10;}
	.st268{fill:#FF9D38;}
	.st269{fill:#C8DFFD;}
	.st270{fill:#A8CCFF;}
	.st271{fill:#D5E9FF;}
	.st272{fill:#B8D0FC;}
	.st273{fill:#0B3563;}
	.st274{fill:none;stroke:#BEDBF7;stroke-width:1.0668;stroke-miterlimit:10;}
	.st275{fill:#25468F;}
	.st276{fill:#E4EEF7;}
	.st277{fill:none;stroke:#3A65C9;stroke-width:1.0668;stroke-miterlimit:10;}
	.st278{fill:none;stroke:#3A65C9;stroke-width:1.001;stroke-miterlimit:10;}
	.st279{fill:#FF5521;}
	.st280{fill:#3A65C9;}
	.st281{fill:none;stroke:#FFCC40;stroke-width:2.1337;stroke-linecap:round;stroke-linejoin:round;stroke-miterlimit:10;}
	.st282{fill:#BEDBF7;}
	.st283{fill:none;stroke:#FFFFFF;stroke-width:1.2169;stroke-miterlimit:10;}
	.st284{fill:#10477B;}
	.st285{fill:#D44C10;}
	.st286{fill:#FF912B;}
	.st287{fill:#FC7600;}
	.st288{fill:#FFAE73;}
	.st289{fill:#FC9F38;}
	.st290{fill:#E65F00;}
	.st291{fill:#4681E1;}
	.st292{fill:#032444;}
	.st293{fill:#0D458E;}
	.st294{fill:#1E3865;}
	.st295{fill:#F48F4E;}
	.st296{fill:#254C82;}
	.st297{fill:#F9924F;}
	.st298{opacity:0.5;}
	.st299{fill:#499936;}
	.st300{fill:url(#SVGID_59_);}
	.st301{opacity:0.08;fill:#FFFFFF;}
	.st302{opacity:0.31;fill:#323197;}
	.st303{fill:#F5F5F7;}
	.st304{fill:#A1C2FF;}
	.st305{fill:#FF8D02;}
	.st306{opacity:0.08;}
	.st307{fill:none;stroke:#FFFFFF;stroke-width:2;stroke-linecap:round;stroke-linejoin:round;stroke-miterlimit:10;}
	.st308{opacity:0.44;fill:none;stroke:#FFFFFF;stroke-miterlimit:10;}
	.st309{opacity:0.4;fill:url(#SVGID_60_);}
	.st310{opacity:0.4;fill:url(#SVGID_61_);}
	.st311{fill:#010200;}
	.st312{opacity:0.4;fill:url(#SVGID_62_);}
	.st313{fill:#F74A2D;stroke:#000000;stroke-width:0.35;stroke-miterlimit:10;}
	.st314{clip-path:url(#SVGID_63_);fill:url(#SVGID_64_);}
	.st315{clip-path:url(#SVGID_63_);fill:url(#SVGID_65_);}
	.st316{clip-path:url(#SVGID_63_);fill:url(#SVGID_66_);}
	.st317{clip-path:url(#SVGID_63_);fill:url(#SVGID_67_);}
	.st318{fill:#393D43;}
	.st319{fill:#FDFDFB;}
	.st320{fill:#0086CE;}
	.st321{fill:#69B545;}
	.st322{fill:#D6347C;}
	.st323{fill:#F07F32;}
	.st324{fill:#6F519D;}
	.st325{fill-rule:evenodd;clip-rule:evenodd;fill:#51555B;}
	.st326{fill-rule:evenodd;clip-rule:evenodd;fill:#393D43;}
	.st327{fill:#003A70;}
	.st328{fill:url(#SVGID_68_);}
	.st329{fill:#003399;}
	.st330{fill-rule:evenodd;clip-rule:evenodd;fill:#003399;}
	.st331{fill:#A1A1A1;}
	.st332{fill-rule:evenodd;clip-rule:evenodd;fill:#006677;}
	.st333{fill-rule:evenodd;clip-rule:evenodd;fill:#E45300;}
	.st334{fill-rule:evenodd;clip-rule:evenodd;fill:#2156A6;}
	.st335{fill:#2156A6;}
	.st336{fill:#FB6E3B;}
	.st337{fill:#00C9BD;}
	.st338{fill-rule:evenodd;clip-rule:evenodd;fill:#00ACD8;}
	.st339{fill-rule:evenodd;clip-rule:evenodd;}
	.st340{fill-rule:evenodd;clip-rule:evenodd;fill:#0056A6;}
	.st341{fill-rule:evenodd;clip-rule:evenodd;fill:#F48120;}
	.st342{fill-rule:evenodd;clip-rule:evenodd;fill:#2E3191;}
	.st343{fill:#FBDA00;}
	.st344{fill:#1F1A17;}
	.st345{fill:#007CC2;}
	.st346{fill:#DA251C;}
	.st347{fill-rule:evenodd;clip-rule:evenodd;fill:#F0F0F0;}
	.st348{fill-rule:evenodd;clip-rule:evenodd;fill:#FECF22;}
	.st349{fill-rule:evenodd;clip-rule:evenodd;fill:#006AB4;}
	.st350{fill-rule:evenodd;clip-rule:evenodd;fill:#D61627;}
	.st351{fill-rule:evenodd;clip-rule:evenodd;fill:#E6E6E6;}
	.st352{fill:#007BC2;}
	.st353{fill:#231F20;}
	.st354{fill:#EC1C25;}
	.st355{fill:#243E92;}
	.st356{fill:#E22228;}
	.st357{fill:#FAD701;}
	.st358{fill-rule:evenodd;clip-rule:evenodd;fill:#E61F20;}
	.st359{fill-rule:evenodd;clip-rule:evenodd;fill:#004B97;}
	.st360{fill-rule:evenodd;clip-rule:evenodd;fill:#E50013;}
	.st361{fill-rule:evenodd;clip-rule:evenodd;fill:url(#SVGID_71_);}
	.st362{fill-rule:evenodd;clip-rule:evenodd;fill:url(#SVGID_72_);}
	.st363{fill-rule:evenodd;clip-rule:evenodd;fill:#412A8B;}
</style>
<path class="st66" d="M54.71,30.89H5.53C2.48,30.89,0,28.42,0,25.36V5.53C0,2.48,2.48,0,5.53,0h49.18c3.05,0,5.53,2.48,5.53,5.53
	v19.83C60.24,28.42,57.77,30.89,54.71,30.89z"/>
<g>
	<g>
		<path class="st327" d="M5.42,18.15c0-0.72-0.01-1.32-0.05-1.85h1.35l0.06,0.92h0.04c0.31-0.49,0.87-1.06,1.92-1.06
			c0.82,0,1.46,0.46,1.72,1.15h0.03c0.22-0.34,0.47-0.6,0.77-0.78c0.34-0.24,0.74-0.37,1.25-0.37c1.04,0,2.08,0.7,2.08,2.7v3.67
			h-1.53v-3.44c0-1.03-0.36-1.65-1.11-1.65c-0.54,0-0.93,0.38-1.1,0.83c-0.04,0.15-0.08,0.34-0.08,0.52v3.73H9.24v-3.6
			c0-0.87-0.34-1.48-1.07-1.48c-0.59,0-0.98,0.46-1.12,0.89c-0.06,0.15-0.09,0.33-0.09,0.51v3.68H5.42V18.15z"/>
		<path class="st327" d="M20.57,21.02c0,0.56,0.03,1.11,0.09,1.49h-1.42l-0.1-0.69H19.1c-0.38,0.49-1.04,0.83-1.84,0.83
			c-1.25,0-1.96-0.91-1.96-1.85c0-1.57,1.39-2.36,3.69-2.35v-0.1c0-0.41-0.17-1.09-1.27-1.09c-0.61,0-1.25,0.19-1.67,0.46
			l-0.31-1.02c0.46-0.28,1.26-0.55,2.25-0.55c1.99,0,2.57,1.27,2.57,2.62V21.02z M19.04,19.48c-1.11-0.03-2.17,0.22-2.17,1.16
			c0,0.61,0.4,0.89,0.89,0.89c0.62,0,1.09-0.41,1.23-0.86c0.04-0.12,0.05-0.24,0.05-0.34V19.48z"/>
		<path class="st327" d="M21.65,18.15c0-0.72-0.01-1.32-0.05-1.85h1.38l0.08,0.93h0.04c0.27-0.49,0.95-1.07,1.98-1.07
			c1.09,0,2.21,0.7,2.21,2.67v3.69h-1.57V19c0-0.89-0.33-1.57-1.19-1.57c-0.63,0-1.06,0.45-1.23,0.92
			c-0.05,0.14-0.06,0.33-0.06,0.51v3.65h-1.58V18.15z"/>
		<path class="st327" d="M34.1,13.79v6.97c0,0.64,0.03,1.33,0.05,1.75h-1.4l-0.06-0.98h-0.03c-0.37,0.69-1.12,1.12-2.03,1.12
			c-1.48,0-2.66-1.26-2.66-3.18c-0.01-2.08,1.29-3.32,2.78-3.32c0.86,0,1.47,0.36,1.75,0.82h0.03v-3.18H34.1z M32.53,18.89
			c0-0.13-0.01-0.28-0.04-0.41c-0.14-0.61-0.64-1.11-1.35-1.11c-1.01,0-1.57,0.89-1.57,2.06c0,1.14,0.56,1.97,1.56,1.97
			c0.64,0,1.2-0.43,1.35-1.11c0.04-0.14,0.05-0.29,0.05-0.46V18.89z"/>
		<path class="st327" d="M35.21,22.52v-6.22h1.59v6.22H35.21z"/>
		<path class="st327" d="M37.91,18.3c0-0.84-0.01-1.44-0.05-2.01h1.37l0.05,1.19h0.05c0.31-0.88,1.03-1.19,1.7-1.19
			c0.15,0,0.24-0.03,0.37,0v1.38c-0.13-0.03-0.27-0.05-0.46-0.05c-0.75,0-1.27,0.49-1.41,1.19c-0.02,0.14-0.05,0.31-0.05,0.49v3.22
			h-1.57V18.3z"/>
		<path class="st327" d="M42.12,22.52v-6.22h1.58v6.22H42.12z"/>
		
			<linearGradient id="SVGID_2_" gradientUnits="userSpaceOnUse" x1="62.4945" y1="-40.69" x2="94.6162" y2="-56.3551" gradientTransform="matrix(0.9998 0.0211 -0.0211 0.9998 -36.2957 57.0311)">
			<stop  offset="0" style="stop-color:#FCB813"/>
			<stop  offset="0.2247" style="stop-color:#FFCA05"/>
			<stop  offset="0.3933" style="stop-color:#F9A51A"/>
			<stop  offset="0.5281" style="stop-color:#FFCA05"/>
			<stop  offset="0.6461" style="stop-color:#F9A51A"/>
			<stop  offset="0.6535" style="stop-color:#FAAA17"/>
			<stop  offset="0.6872" style="stop-color:#FDBC0D"/>
			<stop  offset="0.723" style="stop-color:#FEC707"/>
			<stop  offset="0.764" style="stop-color:#FFCA05"/>
			<stop  offset="0.7974" style="stop-color:#FFCA05"/>
			<stop  offset="1" style="stop-color:#FFCA05"/>
		</linearGradient>
		<path style="fill:url(#SVGID_2_);" d="M53.57,9.71c-0.78-0.89-1.62-0.49-2.28-0.16C51.01,9.69,49,10.83,49,10.83
			c-1.1,0.45-1.96-0.04-2.3-0.46c-0.03-0.04-0.06-0.09-0.09-0.13l-0.08-0.14c-0.12-0.2-0.26-0.43-0.44-0.66
			C46,9.33,45.89,9.2,45.77,9.09c-0.75-0.76-1.96-1.29-3.97-0.33c-0.95,0.55-4.06,2.33-4.06,2.33c-1.17,0.48-2.06-0.1-2.35-0.53
			c-0.01-0.02-0.03-0.04-0.03-0.05l-0.04-0.07l-0.2-0.32c-0.08-0.13-0.18-0.27-0.29-0.41c-0.1-0.12-0.2-0.24-0.32-0.36
			c-0.75-0.76-1.95-1.29-3.94-0.34c-1.21,0.69-4.02,2.3-4.02,2.3c0,0,0,0,0,0c-1.16,0.66-2.06,1.17-2.06,1.17l1.06,1.31
			c0.45,0.43,1.29,1.13,2.59,0.54c0,0,3.59-2.08,3.61-2.09c3.07-1.69,4.59-0.08,5.26,1c0.02,0.03,0.04,0.07,0.06,0.1l0,0
			c0.01,0.01,0.01,0.03,0.02,0.04l0.08,0.12c0.33,0.49,0.84,0.81,1.45,0.8c0.34-0.01,0.57-0.12,0.9-0.3l3.48-2.02c0,0,0,0,0.01,0
			c3.11-1.71,4.65,0.01,5.31,1.08c0.05,0.09,0.11,0.18,0.17,0.26c0.33,0.44,0.78,0.73,1.35,0.72c0.38-0.01,0.8-0.23,0.86-0.28
			l4.17-2.4C54.87,11.36,54.44,10.72,53.57,9.71z"/>
	</g>
</g>
</svg>
