<?xml version="1.0" encoding="utf-8"?>
<!-- Generator: Adobe Illustrator 24.0.0, SVG Export Plug-In . SVG Version: 6.00 Build 0)  -->
<svg version="1.1" id="Layer_1" xmlns="http://www.w3.org/2000/svg" xmlns:xlink="http://www.w3.org/1999/xlink" x="0px" y="0px"
	 viewBox="0 0 52.89 52.89" style="enable-background:new 0 0 52.89 52.89;" xml:space="preserve">
<style type="text/css">
	.st0{fill:#6C727C;}
	.st1{fill:#FC5E31;}
	.st2{fill:#8CC63F;}
	.st3{fill:#F3F4F5;}
	.st4{fill:#F74A2D;}
	.st5{fill:#153663;}
	.st6{fill:#153765;}
	.st7{fill:#153867;}
	.st8{fill:#153969;}
	.st9{fill:#15396B;}
	.st10{fill:#153A6D;}
	.st11{fill:#153B6F;}
	.st12{fill:#153C71;}
	.st13{fill:#143D73;}
	.st14{fill:#143E75;}
	.st15{fill:#143E77;}
	.st16{fill:#143F79;}
	.st17{fill:#14407B;}
	.st18{fill:#14417D;}
	.st19{fill:#14427F;}
	.st20{fill:#144381;}
	.st21{fill:#144383;}
	.st22{fill:#144485;}
	.st23{fill:#144587;}
	.st24{fill:#144689;}
	.st25{fill:#14478B;}
	.st26{fill:#14488D;}
	.st27{fill:#14488F;}
	.st28{fill:#144991;}
	.st29{fill:#134A93;}
	.st30{fill:#134B95;}
	.st31{fill:#134C97;}
	.st32{fill:#134D99;}
	.st33{fill:#134D9B;}
	.st34{fill:#134E9D;}
	.st35{fill:#134F9F;}
	.st36{fill:#1350A1;}
	.st37{fill-rule:evenodd;clip-rule:evenodd;fill:#F1E7ED;}
	.st38{fill-rule:evenodd;clip-rule:evenodd;fill:#A893D0;}
	.st39{opacity:0.5;fill-rule:evenodd;clip-rule:evenodd;fill:#5D2C84;}
	.st40{fill-rule:evenodd;clip-rule:evenodd;fill:#CABDE2;}
	.st41{fill-rule:evenodd;clip-rule:evenodd;fill:#704E8D;}
	.st42{fill-rule:evenodd;clip-rule:evenodd;fill:#FBF9FB;}
	.st43{opacity:0.83;fill-rule:evenodd;clip-rule:evenodd;fill:url(#SVGID_2_);}
	.st44{opacity:0.83;fill-rule:evenodd;clip-rule:evenodd;fill:url(#SVGID_3_);}
	.st45{fill:#8D6B96;}
	.st46{opacity:0.2;fill-rule:evenodd;clip-rule:evenodd;fill:#864C90;}
	.st47{fill-rule:evenodd;clip-rule:evenodd;fill:#CECBEA;}
	.st48{fill-rule:evenodd;clip-rule:evenodd;fill:#39175A;}
	.st49{fill-rule:evenodd;clip-rule:evenodd;fill:#F83D45;}
	.st50{fill-rule:evenodd;clip-rule:evenodd;fill:#B32742;}
	.st51{fill-rule:evenodd;clip-rule:evenodd;fill:#A28BCC;}
	.st52{opacity:0.5;fill-rule:evenodd;clip-rule:evenodd;fill:#864C90;}
	.st53{fill-rule:evenodd;clip-rule:evenodd;fill:url(#SVGID_4_);}
	.st54{fill-rule:evenodd;clip-rule:evenodd;fill:url(#SVGID_6_);}
	.st55{fill:#B32742;}
	.st56{fill-rule:evenodd;clip-rule:evenodd;fill:url(#SVGID_8_);}
	.st57{fill-rule:evenodd;clip-rule:evenodd;fill:url(#SVGID_9_);}
	.st58{fill-rule:evenodd;clip-rule:evenodd;fill:#7A5AC4;}
	.st59{fill-rule:evenodd;clip-rule:evenodd;fill:#7A5AA7;}
	.st60{fill-rule:evenodd;clip-rule:evenodd;fill:#5A2967;}
	.st61{fill-rule:evenodd;clip-rule:evenodd;fill:#C4D1ED;}
	.st62{opacity:0.5;fill-rule:evenodd;clip-rule:evenodd;fill:#6D4C90;}
	.st63{fill:#7A5AA7;}
	.st64{fill:#39175A;}
	.st65{fill-rule:evenodd;clip-rule:evenodd;fill:url(#SVGID_10_);}
	.st66{fill:#FFFFFF;}
	.st67{fill-rule:evenodd;clip-rule:evenodd;fill:url(#SVGID_11_);}
	.st68{fill-rule:evenodd;clip-rule:evenodd;fill:url(#SVGID_12_);}
	.st69{fill-rule:evenodd;clip-rule:evenodd;fill:url(#SVGID_13_);}
	.st70{fill-rule:evenodd;clip-rule:evenodd;fill:url(#SVGID_14_);}
	.st71{fill-rule:evenodd;clip-rule:evenodd;fill:url(#SVGID_15_);}
	.st72{fill-rule:evenodd;clip-rule:evenodd;fill:url(#SVGID_16_);}
	.st73{fill-rule:evenodd;clip-rule:evenodd;fill:url(#SVGID_17_);}
	.st74{fill-rule:evenodd;clip-rule:evenodd;fill:url(#SVGID_18_);}
	.st75{fill-rule:evenodd;clip-rule:evenodd;fill:url(#SVGID_19_);}
	.st76{opacity:0.4;fill-rule:evenodd;clip-rule:evenodd;fill:#864C90;}
	.st77{fill-rule:evenodd;clip-rule:evenodd;fill:url(#SVGID_20_);}
	.st78{fill-rule:evenodd;clip-rule:evenodd;fill:#FFFFFF;}
	.st79{fill-rule:evenodd;clip-rule:evenodd;fill:url(#SVGID_21_);}
	.st80{opacity:0.44;fill-rule:evenodd;clip-rule:evenodd;fill:#60003B;}
	.st81{fill-rule:evenodd;clip-rule:evenodd;fill:url(#SVGID_22_);}
	.st82{fill-rule:evenodd;clip-rule:evenodd;fill:url(#SVGID_23_);}
	.st83{fill-rule:evenodd;clip-rule:evenodd;fill:url(#SVGID_24_);}
	.st84{fill-rule:evenodd;clip-rule:evenodd;fill:url(#SVGID_25_);}
	.st85{fill-rule:evenodd;clip-rule:evenodd;fill:url(#SVGID_26_);}
	.st86{fill-rule:evenodd;clip-rule:evenodd;fill:url(#SVGID_27_);}
	.st87{fill-rule:evenodd;clip-rule:evenodd;fill:url(#SVGID_28_);}
	.st88{fill-rule:evenodd;clip-rule:evenodd;fill:url(#SVGID_29_);}
	.st89{fill-rule:evenodd;clip-rule:evenodd;fill:url(#SVGID_30_);}
	.st90{fill-rule:evenodd;clip-rule:evenodd;fill:url(#SVGID_31_);}
	.st91{fill-rule:evenodd;clip-rule:evenodd;fill:url(#SVGID_32_);}
	.st92{fill-rule:evenodd;clip-rule:evenodd;fill:url(#SVGID_33_);}
	.st93{fill-rule:evenodd;clip-rule:evenodd;fill:url(#SVGID_34_);}
	.st94{fill-rule:evenodd;clip-rule:evenodd;fill:url(#SVGID_35_);}
	.st95{fill-rule:evenodd;clip-rule:evenodd;fill:url(#SVGID_36_);}
	.st96{fill-rule:evenodd;clip-rule:evenodd;fill:url(#SVGID_37_);}
	.st97{fill-rule:evenodd;clip-rule:evenodd;fill:url(#SVGID_38_);}
	.st98{fill-rule:evenodd;clip-rule:evenodd;fill:url(#SVGID_39_);}
	.st99{fill-rule:evenodd;clip-rule:evenodd;fill:url(#SVGID_40_);}
	.st100{fill-rule:evenodd;clip-rule:evenodd;fill:url(#SVGID_41_);}
	.st101{fill-rule:evenodd;clip-rule:evenodd;fill:url(#SVGID_42_);}
	.st102{fill-rule:evenodd;clip-rule:evenodd;fill:url(#SVGID_43_);}
	.st103{fill-rule:evenodd;clip-rule:evenodd;fill:url(#SVGID_44_);}
	.st104{fill:#F2E225;}
	.st105{opacity:0.4;fill:url(#SVGID_45_);}
	.st106{fill:#814BA2;}
	.st107{fill:#925CB4;}
	.st108{fill:#B289C9;}
	.st109{fill:#A274BF;}
	.st110{opacity:0.4;fill:url(#SVGID_46_);}
	.st111{fill:#813034;}
	.st112{fill:#802F34;}
	.st113{fill:#AFD2EF;}
	.st114{fill:#E54C3C;}
	.st115{fill:#57607F;}
	.st116{fill:#BF3A2C;}
	.st117{fill:#BF3A2B;}
	.st118{fill:#8796C8;}
	.st119{fill:#C88D95;}
	.st120{fill:#8696C9;}
	.st121{fill:#56607F;}
	.st122{fill:#E3E4E6;}
	.st123{fill:#D8DADE;}
	.st124{opacity:0.4;fill:url(#SVGID_47_);}
	.st125{fill:#F2582F;}
	.st126{fill:#FF7043;}
	.st127{fill:#8E2611;}
	.st128{fill:#E53935;}
	.st129{fill:#F0534A;}
	.st130{fill:#D5D5D3;}
	.st131{opacity:0.4;fill:url(#SVGID_48_);}
	.st132{fill:#F8749D;}
	.st133{fill:#403063;}
	.st134{fill:#403365;}
	.st135{fill:#403264;}
	.st136{fill:#413265;}
	.st137{fill:#E4E5E6;}
	.st138{fill:#E2E2E4;}
	.st139{fill:#DEDEE2;}
	.st140{fill:#3D2E61;}
	.st141{fill:#FDF7F9;}
	.st142{fill:#FDD6E4;}
	.st143{opacity:0.4;fill:url(#SVGID_49_);}
	.st144{fill:#C20047;}
	.st145{fill:#FE405C;}
	.st146{fill:#B1D3EF;}
	.st147{fill:#E0F1FD;}
	.st148{opacity:0.4;fill:url(#SVGID_50_);}
	.st149{opacity:0.4;fill:url(#SVGID_51_);}
	.st150{opacity:0.4;fill:url(#SVGID_52_);}
	.st151{opacity:0.4;fill:url(#SVGID_53_);}
	.st152{opacity:0.4;fill:url(#SVGID_54_);}
	.st153{opacity:0.4;fill:url(#SVGID_55_);}
	.st154{opacity:0.4;fill:url(#SVGID_56_);}
	.st155{fill:#FF5F85;}
	.st156{fill:#FFE878;}
	.st157{fill:#B2527E;}
	.st158{fill:#004FAB;}
	.st159{fill:#57A3FE;}
	.st160{fill:#FEFEFE;}
	.st161{fill:#37A6CD;}
	.st162{fill:#E19A4B;}
	.st163{fill:#54BBE8;}
	.st164{fill:#FBB55F;}
	.st165{fill:#E29A4C;}
	.st166{fill:#E4E8E9;}
	.st167{fill:#D1D0D0;}
	.st168{fill:#E3E7E8;}
	.st169{fill:#566369;}
	.st170{fill:#E19A4C;}
	.st171{fill:#445155;}
	.st172{fill:#E4E7E7;}
	.st173{fill:#566368;}
	.st174{fill:#6E7A7E;}
	.st175{fill:#435054;}
	.st176{fill:#5E5461;}
	.st177{fill:#6F6571;}
	.st178{fill:#5D5360;}
	.st179{fill:#4B3F4E;}
	.st180{fill:#FCCE64;}
	.st181{fill:#FEDF7E;}
	.st182{fill:#857D86;}
	.st183{fill:#3E8FC8;}
	.st184{fill:#FCB630;}
	.st185{fill:#88B237;}
	.st186{fill:#E7594A;}
	.st187{fill:#4398D0;}
	.st188{fill:#D55245;}
	.st189{fill:#80A734;}
	.st190{fill:#FEA71A;}
	.st191{fill:#FAD390;}
	.st192{fill:#F2D45C;}
	.st193{fill:#FA7B76;}
	.st194{fill:#FE5364;}
	.st195{fill:#F8E3C1;}
	.st196{fill:#2D5871;}
	.st197{fill:#FDD8A7;}
	.st198{fill:#E0EEFA;}
	.st199{fill:#F3C792;}
	.st200{fill:#CBDEEC;}
	.st201{fill:#FE4D4C;}
	.st202{fill:#F23A3A;}
	.st203{fill:#1D4859;}
	.st204{fill:#FEB025;}
	.st205{fill:#FE901D;}
	.st206{fill:#1E495A;}
	.st207{fill:#2F5972;}
	.st208{fill:#F3C892;}
	.st209{opacity:0.4;fill:url(#SVGID_57_);}
	.st210{opacity:0.4;fill:url(#SVGID_58_);}
	.st211{fill:#949AA8;}
	.st212{fill:#B3B3B3;}
	.st213{fill:#575D72;}
	.st214{fill:#A3E0F4;}
	.st215{fill:#C2EAF8;}
	.st216{fill:#28304E;}
	.st217{fill:#EC5176;}
	.st218{fill:#FECC34;}
	.st219{fill:#FE76A3;}
	.st220{fill:#E69115;}
	.st221{fill:#FF0000;}
	.st222{fill:#F4AE00;}
	.st223{opacity:0.12;fill:#1B1E23;}
	.st224{fill:#E7E8FA;}
	.st225{fill:#57A845;}
	.st226{fill:none;stroke:#283847;stroke-width:1.2169;stroke-miterlimit:10;}
	.st227{opacity:0.5;fill:#283847;}
	.st228{fill:#6B98F6;}
	.st229{fill:#79AFFF;}
	.st230{clip-path:url(#XMLID_3_);fill:#79AFFF;}
	.st231{clip-path:url(#XMLID_3_);}
	.st232{fill:none;stroke:#212121;stroke-width:1.5836;stroke-linecap:round;stroke-linejoin:round;stroke-miterlimit:10;}
	.st233{fill:#17566C;}
	.st234{clip-path:url(#XMLID_6_);fill:#79AFFF;}
	.st235{clip-path:url(#XMLID_6_);fill:#2072A9;}
	.st236{clip-path:url(#XMLID_6_);fill:#2175B8;}
	.st237{opacity:0.02;clip-path:url(#XMLID_9_);}
	.st238{opacity:0.13;clip-path:url(#XMLID_9_);fill:#FFFFFF;}
	.st239{fill:none;stroke:#212121;stroke-width:0.5;stroke-linecap:round;stroke-linejoin:round;stroke-miterlimit:10;}
	.st240{fill:#212121;}
	.st241{opacity:0.02;clip-path:url(#XMLID_19_);}
	.st242{opacity:0.13;clip-path:url(#XMLID_19_);fill:#FFFFFF;}
	.st243{clip-path:url(#XMLID_20_);fill:#B0C7D8;}
	.st244{clip-path:url(#XMLID_21_);fill:#3A4149;}
	.st245{fill:#FBFFFF;}
	.st246{fill:#EEEEEE;}
	.st247{fill:#FF7B35;}
	.st248{fill:#509DFF;}
	.st249{fill:#B0C7D8;}
	.st250{opacity:0.3;fill:#FFFFFC;}
	.st251{clip-path:url(#XMLID_26_);fill:#FC6C2B;}
	.st252{fill:#B8D0E5;}
	.st253{fill:none;stroke:#000000;stroke-width:2.5763;stroke-miterlimit:10;}
	.st254{opacity:0.12;clip-path:url(#XMLID_27_);}
	.st255{clip-path:url(#XMLID_28_);fill:#217AAB;}
	.st256{opacity:0.2;}
	.st257{opacity:0.12;clip-path:url(#XMLID_29_);fill:#FFFFFF;}
	.st258{opacity:0.03;clip-path:url(#XMLID_42_);}
	.st259{opacity:0.03;clip-path:url(#XMLID_43_);fill:#010102;}
	.st260{opacity:0.04;clip-path:url(#XMLID_44_);}
	.st261{fill:#FDAF00;}
	.st262{fill:#FF7C00;}
	.st263{opacity:0.3;clip-path:url(#XMLID_45_);}
	.st264{opacity:0.3;}
	.st265{fill:none;stroke:#212121;stroke-width:0.9542;stroke-linecap:round;stroke-linejoin:round;stroke-miterlimit:10;}
	.st266{opacity:0.3;clip-path:url(#XMLID_47_);}
	.st267{fill:none;stroke:#212121;stroke-width:1.188;stroke-linecap:round;stroke-linejoin:round;stroke-miterlimit:10;}
	.st268{fill:#FF9D38;}
	.st269{fill:#C8DFFD;}
	.st270{fill:#A8CCFF;}
	.st271{fill:#D5E9FF;}
	.st272{fill:#B8D0FC;}
	.st273{fill:#0B3563;}
	.st274{fill:none;stroke:#BEDBF7;stroke-width:1.0668;stroke-miterlimit:10;}
	.st275{fill:#25468F;}
	.st276{fill:#E4EEF7;}
	.st277{fill:none;stroke:#3A65C9;stroke-width:1.0668;stroke-miterlimit:10;}
	.st278{fill:none;stroke:#3A65C9;stroke-width:1.001;stroke-miterlimit:10;}
	.st279{fill:#FF5521;}
	.st280{fill:#3A65C9;}
	.st281{fill:none;stroke:#FFCC40;stroke-width:2.1337;stroke-linecap:round;stroke-linejoin:round;stroke-miterlimit:10;}
	.st282{fill:#BEDBF7;}
	.st283{fill:none;stroke:#FFFFFF;stroke-width:1.2169;stroke-miterlimit:10;}
	.st284{fill:#10477B;}
	.st285{fill:#D44C10;}
	.st286{fill:#FF912B;}
	.st287{fill:#FC7600;}
	.st288{fill:#FFAE73;}
	.st289{fill:#FC9F38;}
	.st290{fill:#E65F00;}
	.st291{fill:#4681E1;}
	.st292{fill:#032444;}
	.st293{fill:#0D458E;}
	.st294{fill:#1E3865;}
	.st295{fill:#F48F4E;}
	.st296{fill:#254C82;}
	.st297{fill:#F9924F;}
	.st298{opacity:0.5;}
	.st299{fill:#499936;}
	.st300{fill:url(#SVGID_59_);}
	.st301{opacity:0.08;fill:#FFFFFF;}
	.st302{opacity:0.31;fill:#323197;}
	.st303{fill:#F5F5F7;}
	.st304{fill:#A1C2FF;}
	.st305{fill:#FF8D02;}
	.st306{opacity:0.08;}
	.st307{fill:none;stroke:#FFFFFF;stroke-width:2;stroke-linecap:round;stroke-linejoin:round;stroke-miterlimit:10;}
	.st308{opacity:0.44;fill:none;stroke:#FFFFFF;stroke-miterlimit:10;}
	.st309{opacity:0.4;fill:url(#SVGID_60_);}
	.st310{opacity:0.4;fill:url(#SVGID_61_);}
	.st311{fill:#010200;}
	.st312{opacity:0.4;fill:url(#SVGID_62_);}
	.st313{fill:#F74A2D;stroke:#000000;stroke-width:0.35;stroke-miterlimit:10;}
	.st314{clip-path:url(#SVGID_63_);fill:url(#SVGID_64_);}
	.st315{clip-path:url(#SVGID_63_);fill:url(#SVGID_65_);}
	.st316{clip-path:url(#SVGID_63_);fill:url(#SVGID_66_);}
	.st317{clip-path:url(#SVGID_63_);fill:url(#SVGID_67_);}
	.st318{fill:#393D43;}
	.st319{fill:#FDFDFB;}
	.st320{fill:#0086CE;}
	.st321{fill:#69B545;}
	.st322{fill:#D6347C;}
	.st323{fill:#F07F32;}
	.st324{fill:#6F519D;}
	.st325{fill-rule:evenodd;clip-rule:evenodd;fill:#51555B;}
	.st326{fill-rule:evenodd;clip-rule:evenodd;fill:#393D43;}
	.st327{fill:#003A70;}
	.st328{fill:url(#SVGID_68_);}
	.st329{fill:#003399;}
	.st330{fill-rule:evenodd;clip-rule:evenodd;fill:#003399;}
	.st331{fill:#A1A1A1;}
	.st332{fill-rule:evenodd;clip-rule:evenodd;fill:#006677;}
	.st333{fill-rule:evenodd;clip-rule:evenodd;fill:#E45300;}
	.st334{fill-rule:evenodd;clip-rule:evenodd;fill:#2156A6;}
	.st335{fill:#2156A6;}
	.st336{fill:#FB6E3B;}
	.st337{fill:#00C9BD;}
	.st338{fill-rule:evenodd;clip-rule:evenodd;fill:#00ACD8;}
	.st339{fill-rule:evenodd;clip-rule:evenodd;}
	.st340{fill-rule:evenodd;clip-rule:evenodd;fill:#0056A6;}
	.st341{fill-rule:evenodd;clip-rule:evenodd;fill:#F48120;}
	.st342{fill-rule:evenodd;clip-rule:evenodd;fill:#2E3191;}
	.st343{fill:#FBDA00;}
	.st344{fill:#1F1A17;}
	.st345{fill:#007CC2;}
	.st346{fill:#DA251C;}
	.st347{fill-rule:evenodd;clip-rule:evenodd;fill:#F0F0F0;}
	.st348{fill-rule:evenodd;clip-rule:evenodd;fill:#FECF22;}
	.st349{fill-rule:evenodd;clip-rule:evenodd;fill:#006AB4;}
	.st350{fill-rule:evenodd;clip-rule:evenodd;fill:#D61627;}
	.st351{fill-rule:evenodd;clip-rule:evenodd;fill:#E6E6E6;}
	.st352{fill:#007BC2;}
	.st353{fill:#231F20;}
	.st354{fill:#EC1C25;}
	.st355{fill:#243E92;}
	.st356{fill:#E22228;}
	.st357{fill:#FAD701;}
	.st358{fill-rule:evenodd;clip-rule:evenodd;fill:#E61F20;}
	.st359{fill-rule:evenodd;clip-rule:evenodd;fill:#004B97;}
	.st360{fill-rule:evenodd;clip-rule:evenodd;fill:#E50013;}
	.st361{fill-rule:evenodd;clip-rule:evenodd;fill:url(#SVGID_71_);}
	.st362{fill-rule:evenodd;clip-rule:evenodd;fill:url(#SVGID_72_);}
	.st363{fill-rule:evenodd;clip-rule:evenodd;fill:#412A8B;}
</style>
<linearGradient id="SVGID_2_" gradientUnits="userSpaceOnUse" x1="-3000.0767" y1="-1043.423" x2="-2947.1907" y2="-1043.423" gradientTransform="matrix(0 1 -1 0 -1016.9799 3000.0767)">
	<stop  offset="0" style="stop-color:#F9F9F9;stop-opacity:0"/>
	<stop  offset="1" style="stop-color:#EAEAEA"/>
</linearGradient>
<circle style="opacity:0.4;fill:url(#SVGID_2_);" cx="26.44" cy="26.44" r="26.44"/>
<g>
	<path class="st161" d="M15.57,37.89c-0.46,0-0.91,0.04-1.37-0.03c-0.78-0.11-1.27-0.56-1.53-1.29c-0.02-0.05-0.01-0.11-0.07-0.13
		c0-4.02,0-8.04,0-12.06c0.49,0.01,0.97,0.02,1.46,0.02c0,3.91,0,7.82,0,11.74c0,0.42,0.17,0.78,0.44,1.1
		C14.79,37.58,15.18,37.73,15.57,37.89z"/>
	<path class="st162" d="M14.06,24.41c-0.49-0.01-0.97-0.02-1.46-0.02c0-1.17,0-2.34,0-3.51c0.14-0.35,0.28-0.7,0.56-0.96
		c0.38-0.34,0.83-0.53,1.35-0.51c0.1,0,0.2-0.01,0.3-0.01c0.27,0.01,0.54,0.01,0.81,0.02c-0.02,0.01-0.04,0.04-0.07,0.04
		c-0.93,0.18-1.5,0.86-1.5,1.79c0,1.04,0,2.09,0,3.13L14.06,24.41z"/>
	<path class="st163" d="M15.57,37.89c-0.39-0.15-0.78-0.31-1.07-0.65c-0.27-0.32-0.44-0.68-0.44-1.1c0-3.91,0-7.82,0-11.74
		c0,0,0-0.03,0-0.03c0.11,0,0.21,0.01,0.32,0.01c1.86,0,3.72,0,5.57,0.01c-0.01,0.03-0.02,0.07-0.04,0.1
		c-0.84,1.39-1.2,2.89-1.1,4.51c0.07,1.14,0.38,2.21,0.94,3.2c0.83,1.48,2.02,2.58,3.58,3.27c1.75,0.77,3.55,0.88,5.37,0.31
		c2.14-0.67,3.72-2.04,4.67-4.09c0.88-1.9,0.94-3.85,0.26-5.82c-0.18-0.52-0.46-0.99-0.7-1.48c2.45,0,4.9,0,7.35,0
		c0,0.63,0.01,1.26,0.01,1.89c0,3.22,0,6.45,0,9.67c0,0.91-0.52,1.62-1.37,1.85c-0.23,0.06-0.48,0.08-0.72,0.08
		c-7.34,0-14.68,0-22.03,0C15.97,37.89,15.77,37.89,15.57,37.89z M17.87,33.25c-0.84,0-1.54,0.68-1.54,1.52
		c0,0.83,0.68,1.55,1.52,1.54c0.89-0.01,1.52-0.63,1.54-1.55C19.41,33.94,18.7,33.25,17.87,33.25z"/>
	<path class="st164" d="M19.96,24.41c-1.86,0-3.72,0-5.57-0.01c-0.11,0-0.21-0.01-0.32-0.01c0-1.04,0-2.09,0-3.13
		c0-0.93,0.57-1.61,1.5-1.79c0.02,0,0.04-0.03,0.07-0.04c0.22-0.01,0.44-0.01,0.65-0.02c0.59,0,1.19,0,1.78,0
		c0.11,0.04,0.22-0.06,0.33-0.03c0.39,0.09,0.79,0.05,1.18,0.03c0.67-0.03,1.21-0.34,1.53-0.94c0.36-0.68,0.52-1.43,0.79-2.15
		c0.23-0.61,0.61-1.04,1.25-1.23c0.06-0.02,0.1-0.03,0.11-0.1c0.43,0,0.86,0,1.3,0c2.72,0,5.44,0,8.16,0c0.63,0,1.19,0.16,1.62,0.65
		c0.19,0.22,0.3,0.47,0.39,0.73c0.2,0.56,0.39,1.12,0.59,1.68c0.32,0.9,0.95,1.35,1.89,1.35c0.42,0,0.85-0.01,1.27,0
		c1,0.02,1.79,0.78,1.81,1.77c0.02,1.07,0,2.14,0,3.21c-2.45,0-4.9,0-7.35,0c-0.04-0.05-0.08-0.1-0.12-0.15
		c-0.42-0.63-0.93-1.2-1.52-1.67c-1.73-1.38-3.7-1.94-5.9-1.66c-1.58,0.21-2.95,0.87-4.13,1.94C20.77,23.33,20.36,23.86,19.96,24.41
		z M30.83,19.41c0.57,0,1.13,0,1.7,0c0.64,0,1.2-0.56,1.21-1.2c0-0.31,0-0.61,0-0.92c-0.01-0.62-0.55-1.17-1.17-1.17
		c-1.14,0-2.29,0-3.43,0c-0.46,0-0.79,0.23-1,0.62c-0.27,0.48-0.2,1.01-0.16,1.53c0.07,0.81,0.74,1.21,1.42,1.16
		C29.87,19.39,30.35,19.41,30.83,19.41z"/>
	<path class="st165" d="M23.25,14.99c-0.01,0.06-0.05,0.08-0.11,0.1c-0.63,0.19-1.02,0.62-1.25,1.23c-0.27,0.71-0.43,1.47-0.79,2.15
		c-0.32,0.6-0.86,0.91-1.53,0.94c-0.39,0.02-0.79,0.06-1.18-0.03c0.73-0.16,1.2-0.6,1.45-1.31c0.2-0.58,0.4-1.15,0.6-1.73
		c0.31-0.88,0.96-1.35,1.9-1.35C22.64,14.99,22.94,14.99,23.25,14.99z"/>
	<path class="st166" d="M18.06,19.4c-0.59,0-1.19,0-1.78,0c0-1.15,0-2.3-0.01-3.44c0.34,0,0.68,0,1.02,0c0.52,0,0.76,0.23,0.76,0.75
		C18.06,17.6,18.06,18.5,18.06,19.4z"/>
	<path class="st167" d="M16.28,15.96c0,1.15,0,2.3,0.01,3.44c-0.22,0.01-0.44,0.01-0.65,0.02c-0.27-0.01-0.54-0.01-0.81-0.02
		c0-0.87,0-1.75,0.01-2.62c0-0.6,0.23-0.82,0.83-0.82C15.86,15.95,16.07,15.96,16.28,15.96z"/>
	<path class="st168" d="M19.96,24.41c0.4-0.54,0.81-1.07,1.31-1.53c1.18-1.07,2.55-1.74,4.13-1.94c2.2-0.29,4.17,0.27,5.9,1.66
		c0.59,0.47,1.09,1.04,1.52,1.67c0.03,0.05,0.08,0.1,0.12,0.15c0.24,0.49,0.52,0.96,0.7,1.48c0.68,1.98,0.62,3.92-0.26,5.82
		c-0.95,2.05-2.52,3.42-4.67,4.09c-1.81,0.57-3.62,0.46-5.37-0.31c-1.56-0.69-2.75-1.79-3.58-3.27c-0.56-0.99-0.87-2.06-0.94-3.2
		c-0.1-1.62,0.26-3.12,1.1-4.51C19.94,24.48,19.94,24.44,19.96,24.41z M26.45,34.33c3.21,0,5.82-2.62,5.83-5.82
		c0.01-3.2-2.64-5.85-5.84-5.85c-3.2,0.01-5.82,2.63-5.83,5.83C20.6,31.7,23.23,34.34,26.45,34.33z"/>
	<path class="st169" d="M17.87,33.25c0.82,0,1.54,0.68,1.52,1.51c-0.02,0.92-0.65,1.53-1.54,1.55c-0.84,0.01-1.53-0.7-1.52-1.54
		C16.34,33.93,17.03,33.25,17.87,33.25z"/>
	<path class="st170" d="M30.83,19.41c-0.48,0-0.96-0.03-1.43,0.01c-0.68,0.05-1.35-0.35-1.42-1.16c-0.04-0.52-0.11-1.05,0.16-1.53
		c0.21-0.39,0.54-0.61,1-0.62c1.14,0,2.29,0,3.43,0c0.62,0,1.17,0.55,1.17,1.17c0,0.31,0,0.61,0,0.92c-0.01,0.64-0.57,1.2-1.21,1.2
		C31.96,19.42,31.39,19.41,30.83,19.41z M30.86,18.55c0.54,0,1.08,0,1.62,0c0.28,0,0.39-0.12,0.4-0.4c0.01-0.24,0-0.49,0-0.73
		c0-0.34-0.12-0.47-0.47-0.48c-0.29-0.01-0.58,0-0.86,0c-0.75,0-1.49,0-2.24,0c-0.35,0-0.48,0.14-0.49,0.47c0,0.23,0,0.47,0,0.7
		c0.01,0.31,0.13,0.44,0.45,0.44C29.8,18.56,30.33,18.55,30.86,18.55z"/>
	<path class="st171" d="M26.45,34.33c-3.21,0-5.85-2.63-5.84-5.84c0.01-3.2,2.63-5.82,5.83-5.83c3.2-0.01,5.85,2.64,5.84,5.85
		C32.27,31.72,29.65,34.33,26.45,34.33z M26.71,33.47c2.5-0.12,4.57-2.13,4.7-4.7c0.15-2.99-2.31-5.37-5.24-5.24
		c-0.19,0.02-0.39,0.04-0.58,0.07c-1.15,0.21-2.11,0.75-2.89,1.63c-0.76,0.86-1.14,1.87-1.23,3c0,0.31,0,0.62,0.04,0.94
		c0.18,1.38,0.85,2.48,1.95,3.32C24.41,33.21,25.51,33.53,26.71,33.47z"/>
	<path class="st172" d="M30.86,18.55c-0.53,0-1.06,0-1.59,0c-0.32,0-0.44-0.13-0.45-0.44c0-0.23,0-0.47,0-0.7
		c0.01-0.33,0.14-0.47,0.49-0.47c0.75-0.01,1.49,0,2.24,0c0.29,0,0.58-0.01,0.86,0c0.34,0.01,0.46,0.14,0.47,0.48
		c0,0.24,0.01,0.49,0,0.73c-0.01,0.27-0.12,0.39-0.4,0.4C31.94,18.56,31.4,18.55,30.86,18.55z"/>
	<path class="st173" d="M21.47,28.23c0.09-1.13,0.47-2.14,1.23-3c0.78-0.88,1.74-1.42,2.89-1.63c0.19-0.04,0.39-0.05,0.58-0.07
		c0,0.5,0.1,0.97,0.23,1.45c0.14,0.51,0.41,0.95,0.63,1.42c-0.08,0-0.16,0.01-0.24-0.01c-1.1-0.23-2.23,0.56-2.47,1.67
		c-0.08,0.37-0.02,0.73,0.01,1.09C23.47,28.57,22.51,28.26,21.47,28.23z"/>
	<path class="st173" d="M31.41,28.76c-0.14,2.57-2.21,4.59-4.7,4.7c0-0.49-0.1-0.97-0.23-1.45c-0.14-0.5-0.42-0.94-0.63-1.42
		c0.23,0.05,0.46,0.05,0.69,0.05c0.82,0,1.64-0.6,1.92-1.36c0.17-0.46,0.17-0.92,0.09-1.4c0.05,0.02,0.1,0.04,0.14,0.06
		C29.54,28.45,30.43,28.77,31.41,28.76z"/>
	<path class="st174" d="M25.84,30.61c0.21,0.47,0.49,0.91,0.63,1.42c0.14,0.47,0.23,0.95,0.23,1.45c-1.2,0.06-2.3-0.25-3.25-0.98
		c-1.1-0.84-1.76-1.94-1.95-3.32c-0.04-0.31-0.04-0.63-0.04-0.94c1.04,0.03,1.99,0.34,2.87,0.91
		C24.64,29.84,25.11,30.36,25.84,30.61z"/>
	<path class="st174" d="M31.41,28.76c-0.99,0.01-1.88-0.32-2.72-0.8c-0.05-0.03-0.1-0.04-0.14-0.06c-0.27-0.74-0.79-1.23-1.51-1.51
		c-0.22-0.47-0.49-0.91-0.63-1.42c-0.13-0.47-0.24-0.95-0.23-1.45C29.1,23.39,31.56,25.77,31.41,28.76z"/>
	<path class="st175" d="M27.04,26.39c0.73,0.28,1.24,0.78,1.51,1.51c0.08,0.47,0.08,0.93-0.09,1.4c-0.28,0.76-1.1,1.36-1.92,1.36
		c-0.23,0-0.46,0-0.69-0.05c-0.74-0.25-1.21-0.77-1.51-1.47c-0.03-0.36-0.09-0.72-0.01-1.09c0.24-1.11,1.37-1.9,2.47-1.67
		C26.87,26.4,26.96,26.38,27.04,26.39z"/>
</g>
</svg>
