<?xml version="1.0" encoding="utf-8"?>
<!-- Generator: Adobe Illustrator 24.0.0, SVG Export Plug-In . SVG Version: 6.00 Build 0)  -->
<svg version="1.1" id="Layer_1" xmlns="http://www.w3.org/2000/svg" xmlns:xlink="http://www.w3.org/1999/xlink" x="0px" y="0px"
	 viewBox="0 0 52.89 52.89" style="enable-background:new 0 0 52.89 52.89;" xml:space="preserve">
<style type="text/css">
	.st0{fill:#6C727C;}
	.st1{fill:#FC5E31;}
	.st2{fill:#8CC63F;}
	.st3{fill:#F3F4F5;}
	.st4{fill:#F74A2D;}
	.st5{fill:#153663;}
	.st6{fill:#153765;}
	.st7{fill:#153867;}
	.st8{fill:#153969;}
	.st9{fill:#15396B;}
	.st10{fill:#153A6D;}
	.st11{fill:#153B6F;}
	.st12{fill:#153C71;}
	.st13{fill:#143D73;}
	.st14{fill:#143E75;}
	.st15{fill:#143E77;}
	.st16{fill:#143F79;}
	.st17{fill:#14407B;}
	.st18{fill:#14417D;}
	.st19{fill:#14427F;}
	.st20{fill:#144381;}
	.st21{fill:#144383;}
	.st22{fill:#144485;}
	.st23{fill:#144587;}
	.st24{fill:#144689;}
	.st25{fill:#14478B;}
	.st26{fill:#14488D;}
	.st27{fill:#14488F;}
	.st28{fill:#144991;}
	.st29{fill:#134A93;}
	.st30{fill:#134B95;}
	.st31{fill:#134C97;}
	.st32{fill:#134D99;}
	.st33{fill:#134D9B;}
	.st34{fill:#134E9D;}
	.st35{fill:#134F9F;}
	.st36{fill:#1350A1;}
	.st37{fill-rule:evenodd;clip-rule:evenodd;fill:#F1E7ED;}
	.st38{fill-rule:evenodd;clip-rule:evenodd;fill:#A893D0;}
	.st39{opacity:0.5;fill-rule:evenodd;clip-rule:evenodd;fill:#5D2C84;}
	.st40{fill-rule:evenodd;clip-rule:evenodd;fill:#CABDE2;}
	.st41{fill-rule:evenodd;clip-rule:evenodd;fill:#704E8D;}
	.st42{fill-rule:evenodd;clip-rule:evenodd;fill:#FBF9FB;}
	.st43{opacity:0.83;fill-rule:evenodd;clip-rule:evenodd;fill:url(#SVGID_2_);}
	.st44{opacity:0.83;fill-rule:evenodd;clip-rule:evenodd;fill:url(#SVGID_3_);}
	.st45{fill:#8D6B96;}
	.st46{opacity:0.2;fill-rule:evenodd;clip-rule:evenodd;fill:#864C90;}
	.st47{fill-rule:evenodd;clip-rule:evenodd;fill:#CECBEA;}
	.st48{fill-rule:evenodd;clip-rule:evenodd;fill:#39175A;}
	.st49{fill-rule:evenodd;clip-rule:evenodd;fill:#F83D45;}
	.st50{fill-rule:evenodd;clip-rule:evenodd;fill:#B32742;}
	.st51{fill-rule:evenodd;clip-rule:evenodd;fill:#A28BCC;}
	.st52{opacity:0.5;fill-rule:evenodd;clip-rule:evenodd;fill:#864C90;}
	.st53{fill-rule:evenodd;clip-rule:evenodd;fill:url(#SVGID_4_);}
	.st54{fill-rule:evenodd;clip-rule:evenodd;fill:url(#SVGID_6_);}
	.st55{fill:#B32742;}
	.st56{fill-rule:evenodd;clip-rule:evenodd;fill:url(#SVGID_8_);}
	.st57{fill-rule:evenodd;clip-rule:evenodd;fill:url(#SVGID_9_);}
	.st58{fill-rule:evenodd;clip-rule:evenodd;fill:#7A5AC4;}
	.st59{fill-rule:evenodd;clip-rule:evenodd;fill:#7A5AA7;}
	.st60{fill-rule:evenodd;clip-rule:evenodd;fill:#5A2967;}
	.st61{fill-rule:evenodd;clip-rule:evenodd;fill:#C4D1ED;}
	.st62{opacity:0.5;fill-rule:evenodd;clip-rule:evenodd;fill:#6D4C90;}
	.st63{fill:#7A5AA7;}
	.st64{fill:#39175A;}
	.st65{fill-rule:evenodd;clip-rule:evenodd;fill:url(#SVGID_10_);}
	.st66{fill:#FFFFFF;}
	.st67{fill-rule:evenodd;clip-rule:evenodd;fill:url(#SVGID_11_);}
	.st68{fill-rule:evenodd;clip-rule:evenodd;fill:url(#SVGID_12_);}
	.st69{fill-rule:evenodd;clip-rule:evenodd;fill:url(#SVGID_13_);}
	.st70{fill-rule:evenodd;clip-rule:evenodd;fill:url(#SVGID_14_);}
	.st71{fill-rule:evenodd;clip-rule:evenodd;fill:url(#SVGID_15_);}
	.st72{fill-rule:evenodd;clip-rule:evenodd;fill:url(#SVGID_16_);}
	.st73{fill-rule:evenodd;clip-rule:evenodd;fill:url(#SVGID_17_);}
	.st74{fill-rule:evenodd;clip-rule:evenodd;fill:url(#SVGID_18_);}
	.st75{fill-rule:evenodd;clip-rule:evenodd;fill:url(#SVGID_19_);}
	.st76{opacity:0.4;fill-rule:evenodd;clip-rule:evenodd;fill:#864C90;}
	.st77{fill-rule:evenodd;clip-rule:evenodd;fill:url(#SVGID_20_);}
	.st78{fill-rule:evenodd;clip-rule:evenodd;fill:#FFFFFF;}
	.st79{fill-rule:evenodd;clip-rule:evenodd;fill:url(#SVGID_21_);}
	.st80{opacity:0.44;fill-rule:evenodd;clip-rule:evenodd;fill:#60003B;}
	.st81{fill-rule:evenodd;clip-rule:evenodd;fill:url(#SVGID_22_);}
	.st82{fill-rule:evenodd;clip-rule:evenodd;fill:url(#SVGID_23_);}
	.st83{fill-rule:evenodd;clip-rule:evenodd;fill:url(#SVGID_24_);}
	.st84{fill-rule:evenodd;clip-rule:evenodd;fill:url(#SVGID_25_);}
	.st85{fill-rule:evenodd;clip-rule:evenodd;fill:url(#SVGID_26_);}
	.st86{fill-rule:evenodd;clip-rule:evenodd;fill:url(#SVGID_27_);}
	.st87{fill-rule:evenodd;clip-rule:evenodd;fill:url(#SVGID_28_);}
	.st88{fill-rule:evenodd;clip-rule:evenodd;fill:url(#SVGID_29_);}
	.st89{fill-rule:evenodd;clip-rule:evenodd;fill:url(#SVGID_30_);}
	.st90{fill-rule:evenodd;clip-rule:evenodd;fill:url(#SVGID_31_);}
	.st91{fill-rule:evenodd;clip-rule:evenodd;fill:url(#SVGID_32_);}
	.st92{fill-rule:evenodd;clip-rule:evenodd;fill:url(#SVGID_33_);}
	.st93{fill-rule:evenodd;clip-rule:evenodd;fill:url(#SVGID_34_);}
	.st94{fill-rule:evenodd;clip-rule:evenodd;fill:url(#SVGID_35_);}
	.st95{fill-rule:evenodd;clip-rule:evenodd;fill:url(#SVGID_36_);}
	.st96{fill-rule:evenodd;clip-rule:evenodd;fill:url(#SVGID_37_);}
	.st97{fill-rule:evenodd;clip-rule:evenodd;fill:url(#SVGID_38_);}
	.st98{fill-rule:evenodd;clip-rule:evenodd;fill:url(#SVGID_39_);}
	.st99{fill-rule:evenodd;clip-rule:evenodd;fill:url(#SVGID_40_);}
	.st100{fill-rule:evenodd;clip-rule:evenodd;fill:url(#SVGID_41_);}
	.st101{fill-rule:evenodd;clip-rule:evenodd;fill:url(#SVGID_42_);}
	.st102{fill-rule:evenodd;clip-rule:evenodd;fill:url(#SVGID_43_);}
	.st103{fill-rule:evenodd;clip-rule:evenodd;fill:url(#SVGID_44_);}
	.st104{fill:#F2E225;}
	.st105{opacity:0.4;fill:url(#SVGID_45_);}
	.st106{fill:#814BA2;}
	.st107{fill:#925CB4;}
	.st108{fill:#B289C9;}
	.st109{fill:#A274BF;}
	.st110{opacity:0.4;fill:url(#SVGID_46_);}
	.st111{fill:#813034;}
	.st112{fill:#802F34;}
	.st113{fill:#AFD2EF;}
	.st114{fill:#E54C3C;}
	.st115{fill:#57607F;}
	.st116{fill:#BF3A2C;}
	.st117{fill:#BF3A2B;}
	.st118{fill:#8796C8;}
	.st119{fill:#C88D95;}
	.st120{fill:#8696C9;}
	.st121{fill:#56607F;}
	.st122{fill:#E3E4E6;}
	.st123{fill:#D8DADE;}
	.st124{opacity:0.4;fill:url(#SVGID_47_);}
	.st125{fill:#F2582F;}
	.st126{fill:#FF7043;}
	.st127{fill:#8E2611;}
	.st128{fill:#E53935;}
	.st129{fill:#F0534A;}
	.st130{fill:#D5D5D3;}
	.st131{opacity:0.4;fill:url(#SVGID_48_);}
	.st132{fill:#F8749D;}
	.st133{fill:#403063;}
	.st134{fill:#403365;}
	.st135{fill:#403264;}
	.st136{fill:#413265;}
	.st137{fill:#E4E5E6;}
	.st138{fill:#E2E2E4;}
	.st139{fill:#DEDEE2;}
	.st140{fill:#3D2E61;}
	.st141{fill:#FDF7F9;}
	.st142{fill:#FDD6E4;}
	.st143{opacity:0.4;fill:url(#SVGID_49_);}
	.st144{fill:#C20047;}
	.st145{fill:#FE405C;}
	.st146{fill:#B1D3EF;}
	.st147{fill:#E0F1FD;}
	.st148{opacity:0.4;fill:url(#SVGID_50_);}
	.st149{opacity:0.4;fill:url(#SVGID_51_);}
	.st150{opacity:0.4;fill:url(#SVGID_52_);}
	.st151{opacity:0.4;fill:url(#SVGID_53_);}
	.st152{opacity:0.4;fill:url(#SVGID_54_);}
	.st153{opacity:0.4;fill:url(#SVGID_55_);}
	.st154{opacity:0.4;fill:url(#SVGID_56_);}
	.st155{fill:#FF5F85;}
	.st156{fill:#FFE878;}
	.st157{fill:#B2527E;}
	.st158{fill:#004FAB;}
	.st159{fill:#57A3FE;}
	.st160{fill:#FEFEFE;}
	.st161{fill:#37A6CD;}
	.st162{fill:#E19A4B;}
	.st163{fill:#54BBE8;}
	.st164{fill:#FBB55F;}
	.st165{fill:#E29A4C;}
	.st166{fill:#E4E8E9;}
	.st167{fill:#D1D0D0;}
	.st168{fill:#E3E7E8;}
	.st169{fill:#566369;}
	.st170{fill:#E19A4C;}
	.st171{fill:#445155;}
	.st172{fill:#E4E7E7;}
	.st173{fill:#566368;}
	.st174{fill:#6E7A7E;}
	.st175{fill:#435054;}
	.st176{fill:#5E5461;}
	.st177{fill:#6F6571;}
	.st178{fill:#5D5360;}
	.st179{fill:#4B3F4E;}
	.st180{fill:#FCCE64;}
	.st181{fill:#FEDF7E;}
	.st182{fill:#857D86;}
	.st183{fill:#3E8FC8;}
	.st184{fill:#FCB630;}
	.st185{fill:#88B237;}
	.st186{fill:#E7594A;}
	.st187{fill:#4398D0;}
	.st188{fill:#D55245;}
	.st189{fill:#80A734;}
	.st190{fill:#FEA71A;}
	.st191{fill:#FAD390;}
	.st192{fill:#F2D45C;}
	.st193{fill:#FA7B76;}
	.st194{fill:#FE5364;}
	.st195{fill:#F8E3C1;}
	.st196{fill:#2D5871;}
	.st197{fill:#FDD8A7;}
	.st198{fill:#E0EEFA;}
	.st199{fill:#F3C792;}
	.st200{fill:#CBDEEC;}
	.st201{fill:#FE4D4C;}
	.st202{fill:#F23A3A;}
	.st203{fill:#1D4859;}
	.st204{fill:#FEB025;}
	.st205{fill:#FE901D;}
	.st206{fill:#1E495A;}
	.st207{fill:#2F5972;}
	.st208{fill:#F3C892;}
	.st209{opacity:0.4;fill:url(#SVGID_57_);}
	.st210{opacity:0.4;fill:url(#SVGID_58_);}
	.st211{fill:#949AA8;}
	.st212{fill:#B3B3B3;}
	.st213{fill:#575D72;}
	.st214{fill:#A3E0F4;}
	.st215{fill:#C2EAF8;}
	.st216{fill:#28304E;}
	.st217{fill:#EC5176;}
	.st218{fill:#FECC34;}
	.st219{fill:#FE76A3;}
	.st220{fill:#E69115;}
	.st221{fill:#FF0000;}
	.st222{fill:#F4AE00;}
	.st223{opacity:0.12;fill:#1B1E23;}
	.st224{fill:#E7E8FA;}
	.st225{fill:#57A845;}
	.st226{fill:none;stroke:#283847;stroke-width:1.2169;stroke-miterlimit:10;}
	.st227{opacity:0.5;fill:#283847;}
	.st228{fill:#6B98F6;}
	.st229{fill:#79AFFF;}
	.st230{clip-path:url(#XMLID_3_);fill:#79AFFF;}
	.st231{clip-path:url(#XMLID_3_);}
	.st232{fill:none;stroke:#212121;stroke-width:1.5836;stroke-linecap:round;stroke-linejoin:round;stroke-miterlimit:10;}
	.st233{fill:#17566C;}
	.st234{clip-path:url(#XMLID_6_);fill:#79AFFF;}
	.st235{clip-path:url(#XMLID_6_);fill:#2072A9;}
	.st236{clip-path:url(#XMLID_6_);fill:#2175B8;}
	.st237{opacity:0.02;clip-path:url(#XMLID_9_);}
	.st238{opacity:0.13;clip-path:url(#XMLID_9_);fill:#FFFFFF;}
	.st239{fill:none;stroke:#212121;stroke-width:0.5;stroke-linecap:round;stroke-linejoin:round;stroke-miterlimit:10;}
	.st240{fill:#212121;}
	.st241{opacity:0.02;clip-path:url(#XMLID_19_);}
	.st242{opacity:0.13;clip-path:url(#XMLID_19_);fill:#FFFFFF;}
	.st243{clip-path:url(#XMLID_20_);fill:#B0C7D8;}
	.st244{clip-path:url(#XMLID_21_);fill:#3A4149;}
	.st245{fill:#FBFFFF;}
	.st246{fill:#EEEEEE;}
	.st247{fill:#FF7B35;}
	.st248{fill:#509DFF;}
	.st249{fill:#B0C7D8;}
	.st250{opacity:0.3;fill:#FFFFFC;}
	.st251{clip-path:url(#XMLID_26_);fill:#FC6C2B;}
	.st252{fill:#B8D0E5;}
	.st253{fill:none;stroke:#000000;stroke-width:2.5763;stroke-miterlimit:10;}
	.st254{opacity:0.12;clip-path:url(#XMLID_27_);}
	.st255{clip-path:url(#XMLID_28_);fill:#217AAB;}
	.st256{opacity:0.2;}
	.st257{opacity:0.12;clip-path:url(#XMLID_29_);fill:#FFFFFF;}
	.st258{opacity:0.03;clip-path:url(#XMLID_42_);}
	.st259{opacity:0.03;clip-path:url(#XMLID_43_);fill:#010102;}
	.st260{opacity:0.04;clip-path:url(#XMLID_44_);}
	.st261{fill:#FDAF00;}
	.st262{fill:#FF7C00;}
	.st263{opacity:0.3;clip-path:url(#XMLID_45_);}
	.st264{opacity:0.3;}
	.st265{fill:none;stroke:#212121;stroke-width:0.9542;stroke-linecap:round;stroke-linejoin:round;stroke-miterlimit:10;}
	.st266{opacity:0.3;clip-path:url(#XMLID_47_);}
	.st267{fill:none;stroke:#212121;stroke-width:1.188;stroke-linecap:round;stroke-linejoin:round;stroke-miterlimit:10;}
	.st268{fill:#FF9D38;}
	.st269{fill:#C8DFFD;}
	.st270{fill:#A8CCFF;}
	.st271{fill:#D5E9FF;}
	.st272{fill:#B8D0FC;}
	.st273{fill:#0B3563;}
	.st274{fill:none;stroke:#BEDBF7;stroke-width:1.0668;stroke-miterlimit:10;}
	.st275{fill:#25468F;}
	.st276{fill:#E4EEF7;}
	.st277{fill:none;stroke:#3A65C9;stroke-width:1.0668;stroke-miterlimit:10;}
	.st278{fill:none;stroke:#3A65C9;stroke-width:1.001;stroke-miterlimit:10;}
	.st279{fill:#FF5521;}
	.st280{fill:#3A65C9;}
	.st281{fill:none;stroke:#FFCC40;stroke-width:2.1337;stroke-linecap:round;stroke-linejoin:round;stroke-miterlimit:10;}
	.st282{fill:#BEDBF7;}
	.st283{fill:none;stroke:#FFFFFF;stroke-width:1.2169;stroke-miterlimit:10;}
	.st284{fill:#10477B;}
	.st285{fill:#D44C10;}
	.st286{fill:#FF912B;}
	.st287{fill:#FC7600;}
	.st288{fill:#FFAE73;}
	.st289{fill:#FC9F38;}
	.st290{fill:#E65F00;}
	.st291{fill:#4681E1;}
	.st292{fill:#032444;}
	.st293{fill:#0D458E;}
	.st294{fill:#1E3865;}
	.st295{fill:#F48F4E;}
	.st296{fill:#254C82;}
	.st297{fill:#F9924F;}
	.st298{opacity:0.5;}
	.st299{fill:#499936;}
	.st300{fill:url(#SVGID_59_);}
	.st301{opacity:0.08;fill:#FFFFFF;}
	.st302{opacity:0.31;fill:#323197;}
	.st303{fill:#F5F5F7;}
	.st304{fill:#A1C2FF;}
	.st305{fill:#FF8D02;}
	.st306{opacity:0.08;}
	.st307{fill:none;stroke:#FFFFFF;stroke-width:2;stroke-linecap:round;stroke-linejoin:round;stroke-miterlimit:10;}
	.st308{opacity:0.44;fill:none;stroke:#FFFFFF;stroke-miterlimit:10;}
	.st309{opacity:0.4;fill:url(#SVGID_60_);}
	.st310{opacity:0.4;fill:url(#SVGID_61_);}
	.st311{fill:#010200;}
	.st312{opacity:0.4;fill:url(#SVGID_62_);}
	.st313{fill:#F74A2D;stroke:#000000;stroke-width:0.35;stroke-miterlimit:10;}
	.st314{clip-path:url(#SVGID_63_);fill:url(#SVGID_64_);}
	.st315{clip-path:url(#SVGID_63_);fill:url(#SVGID_65_);}
	.st316{clip-path:url(#SVGID_63_);fill:url(#SVGID_66_);}
	.st317{clip-path:url(#SVGID_63_);fill:url(#SVGID_67_);}
	.st318{fill:#393D43;}
	.st319{fill:#FDFDFB;}
	.st320{fill:#0086CE;}
	.st321{fill:#69B545;}
	.st322{fill:#D6347C;}
	.st323{fill:#F07F32;}
	.st324{fill:#6F519D;}
	.st325{fill-rule:evenodd;clip-rule:evenodd;fill:#51555B;}
	.st326{fill-rule:evenodd;clip-rule:evenodd;fill:#393D43;}
	.st327{fill:#003A70;}
	.st328{fill:url(#SVGID_68_);}
	.st329{fill:#003399;}
	.st330{fill-rule:evenodd;clip-rule:evenodd;fill:#003399;}
	.st331{fill:#A1A1A1;}
	.st332{fill-rule:evenodd;clip-rule:evenodd;fill:#006677;}
	.st333{fill-rule:evenodd;clip-rule:evenodd;fill:#E45300;}
	.st334{fill-rule:evenodd;clip-rule:evenodd;fill:#2156A6;}
	.st335{fill:#2156A6;}
	.st336{fill:#FB6E3B;}
	.st337{fill:#00C9BD;}
	.st338{fill-rule:evenodd;clip-rule:evenodd;fill:#00ACD8;}
	.st339{fill-rule:evenodd;clip-rule:evenodd;}
	.st340{fill-rule:evenodd;clip-rule:evenodd;fill:#0056A6;}
	.st341{fill-rule:evenodd;clip-rule:evenodd;fill:#F48120;}
	.st342{fill-rule:evenodd;clip-rule:evenodd;fill:#2E3191;}
	.st343{fill:#FBDA00;}
	.st344{fill:#1F1A17;}
	.st345{fill:#007CC2;}
	.st346{fill:#DA251C;}
	.st347{fill-rule:evenodd;clip-rule:evenodd;fill:#F0F0F0;}
	.st348{fill-rule:evenodd;clip-rule:evenodd;fill:#FECF22;}
	.st349{fill-rule:evenodd;clip-rule:evenodd;fill:#006AB4;}
	.st350{fill-rule:evenodd;clip-rule:evenodd;fill:#D61627;}
	.st351{fill-rule:evenodd;clip-rule:evenodd;fill:#E6E6E6;}
	.st352{fill:#007BC2;}
	.st353{fill:#231F20;}
	.st354{fill:#EC1C25;}
	.st355{fill:#243E92;}
	.st356{fill:#E22228;}
	.st357{fill:#FAD701;}
	.st358{fill-rule:evenodd;clip-rule:evenodd;fill:#E61F20;}
	.st359{fill-rule:evenodd;clip-rule:evenodd;fill:#004B97;}
	.st360{fill-rule:evenodd;clip-rule:evenodd;fill:#E50013;}
	.st361{fill-rule:evenodd;clip-rule:evenodd;fill:url(#SVGID_71_);}
	.st362{fill-rule:evenodd;clip-rule:evenodd;fill:url(#SVGID_72_);}
	.st363{fill-rule:evenodd;clip-rule:evenodd;fill:#412A8B;}
</style>
<linearGradient id="SVGID_2_" gradientUnits="userSpaceOnUse" x1="-3679.5747" y1="-1714.1411" x2="-3626.6887" y2="-1714.1411" gradientTransform="matrix(0 1 -1 0 -1687.6981 3679.5747)">
	<stop  offset="0" style="stop-color:#F9F9F9"/>
	<stop  offset="1" style="stop-color:#EAEAEA"/>
</linearGradient>
<circle style="opacity:0.4;fill:url(#SVGID_2_);" cx="26.44" cy="26.44" r="26.44"/>
<g>
	<path class="st132" d="M20.3,13.16c0.24,0,0.48,0,0.72,0c0.05,0.22,0.21,0.26,0.41,0.26c0.66-0.01,1.32,0,1.98,0
		c0.72,0,0.94,0.22,0.94,0.93c0,3.08,0,6.16,0,9.24c0,0.1,0.04,0.21-0.04,0.3c-0.24,0.19-0.52,0.24-0.83,0.24
		c-3.11-0.01-6.22-0.01-9.33,0c-0.35,0-0.69-0.02-0.99-0.2l0.01,0c-0.01-0.02-0.03-0.04-0.04-0.06c0-0.03-0.01-0.06-0.01-0.09
		c0-3.19,0-6.39,0-9.58c0-0.51,0.27-0.77,0.78-0.77c1.04,0,2.07,0,3.11,0c0.2,0,0.35-0.03,0.4-0.26c0.22,0,0.45,0,0.67,0
		c0.05,0.19,0.18,0.26,0.37,0.25c0.51-0.01,1.02-0.01,1.53,0C20.16,13.42,20.28,13.35,20.3,13.16z"/>
	<path class="st133" d="M29.27,38.97c-0.54-0.17-0.93-0.47-1.04-1.06c-0.04-0.24,0.01-0.46,0.08-0.68c0.24-0.75,0.48-1.49,0.72-2.24
		c0.06-0.18,0.09-0.36,0.03-0.55c-0.01-0.15-0.09-0.26-0.2-0.34c-0.48-0.37-0.96-0.74-1.48-1.06c-0.22-0.16-0.43-0.33-0.65-0.49
		c-0.47-0.37-0.65-0.88-0.48-1.42c0.16-0.52,0.6-0.85,1.18-0.86c0.8-0.02,1.59-0.01,2.39-0.01c0.59,0,0.78-0.14,0.96-0.7
		c0.25-0.75,0.48-1.51,0.74-2.26c0.29-0.84,1.26-1.13,1.95-0.62c0.27,0.2,0.39,0.49,0.51,0.78c0.24,0.77,0.48,1.54,0.74,2.3
		c0.13,0.38,0.4,0.52,0.84,0.5c0.74,0.01,1.48,0.01,2.22,0.02c0.84,0,1.2,0.26,1.46,1.04c0.06,0.58-0.18,1.01-0.65,1.33
		c-0.6,0.42-1.19,0.86-1.78,1.29c-0.48,0.35-0.56,0.58-0.37,1.16c0.23,0.72,0.47,1.43,0.7,2.15c0.2,0.62,0.05,1.14-0.41,1.49
		c-0.48,0.36-1.03,0.34-1.57-0.05c-0.63-0.45-1.25-0.91-1.88-1.36c-0.43-0.31-0.69-0.31-1.11,0c-0.59,0.43-1.19,0.85-1.78,1.3
		C30.06,38.85,29.7,39,29.27,38.97z M28.74,30.77C28.74,30.77,28.74,30.77,28.74,30.77c-0.43,0-0.86,0-1.29,0
		c-0.24,0-0.43,0.09-0.57,0.28c-0.28,0.36-0.21,0.8,0.19,1.1c0.63,0.47,1.27,0.93,1.91,1.39c0.61,0.44,0.77,0.93,0.54,1.64
		c-0.23,0.73-0.47,1.45-0.71,2.18c-0.14,0.43-0.06,0.75,0.24,0.96c0.31,0.22,0.61,0.2,0.98-0.08c0.62-0.45,1.24-0.9,1.86-1.35
		c0.6-0.44,1.09-0.44,1.7-0.01c0.61,0.44,1.22,0.89,1.83,1.33c0.4,0.29,0.69,0.32,1.01,0.1c0.3-0.21,0.38-0.53,0.23-0.98
		c-0.24-0.75-0.49-1.49-0.72-2.24c-0.19-0.62-0.03-1.11,0.48-1.49c0.66-0.49,1.32-0.96,1.98-1.45c0.34-0.25,0.43-0.53,0.31-0.88
		c-0.11-0.33-0.37-0.5-0.78-0.5c-0.77,0-1.53,0-2.3,0c-0.79,0-1.2-0.3-1.45-1.05c-0.23-0.72-0.46-1.43-0.7-2.15
		c-0.15-0.45-0.36-0.63-0.75-0.63c-0.38,0-0.61,0.19-0.75,0.63c-0.24,0.73-0.47,1.46-0.71,2.18c-0.23,0.71-0.66,1.01-1.4,1.02
		C29.49,30.77,29.12,30.77,28.74,30.77z"/>
	<path class="st122" d="M24.85,13.92c0.65,0.16,1.02,0.62,1.02,1.28c0,3.18,0,6.35,0,9.53c0,1.06-0.54,1.44-1.41,1.45
		c-3.15,0.02-6.29,0.02-9.44,0c-0.48,0-0.96-0.11-1.24-0.59c-0.08-0.14-0.13-0.28-0.12-0.44c3.27,0,6.54,0,9.8,0
		c0.93,0,1.39-0.46,1.39-1.36C24.85,20.5,24.85,17.21,24.85,13.92z"/>
	<path class="st134" d="M24.85,13.92c0,3.29,0,6.58,0,9.87c0,0.9-0.46,1.36-1.39,1.36c-3.27,0-6.54,0-9.8,0
		c-0.73-0.17-1.06-0.58-1.06-1.34c0-3.19,0-6.37,0-9.56c0-0.87,0.47-1.34,1.34-1.34c1.02,0,2.03,0,3.05,0c0.2,0,0.36,0.02,0.4,0.25
		c-0.05,0.22-0.2,0.26-0.4,0.26c-1.04,0-2.07,0-3.11,0c-0.51,0-0.78,0.26-0.78,0.77c0,3.19,0,6.39,0,9.58
		c0,0.03,0.01,0.06,0.01,0.09c0,0.03-0.03,0.07,0.04,0.06c0,0-0.01,0-0.01,0c-0.01,0.04-0.04,0.08-0.03,0.11
		c0.06,0.41,0.32,0.6,0.85,0.6c3.17,0,6.34,0,9.52,0c0.09,0,0.19,0,0.28-0.01c0.37-0.05,0.58-0.34,0.54-0.73
		c0.09-0.09,0.04-0.2,0.04-0.3c0-3.08,0-6.16,0-9.24c0-0.72-0.22-0.93-0.94-0.93c-0.66,0-1.32,0-1.98,0c-0.2,0-0.35-0.04-0.41-0.26
		c0.06-0.21,0.21-0.26,0.41-0.25c0.67,0.01,1.34,0,2.01,0C24.26,12.91,24.61,13.16,24.85,13.92z"/>
	<path class="st135" d="M15.25,37.75c-1.19-0.89-2.04-2.03-2.43-3.48c-1.11-4.11,2.29-8.1,6.52-7.65c1.91,0.2,3.38,1.14,4.5,2.67
		c0.87,1.4,1.19,2.9,0.92,4.53c-0.54,3.16-3.76,5.46-6.92,4.93C16.89,38.6,16.04,38.25,15.25,37.75z M24.34,32.73
		c0.03-3.08-2.47-5.61-5.57-5.65c-3.09-0.04-5.63,2.47-5.66,5.58c-0.03,3.07,2.46,5.6,5.57,5.64
		C21.77,38.35,24.31,35.84,24.34,32.73z"/>
	<path class="st136" d="M27.69,25.15c-0.96-0.23-1.31-1.01-0.84-1.87c1.59-2.89,3.19-5.77,4.78-8.66c0.24-0.44,0.57-0.71,1.09-0.72
		c0.52,0,0.86,0.26,1.1,0.71c0.07,0.13,0.15,0.25,0.23,0.37c0.03,0.08,0.06,0.15,0.1,0.23c0.87,1.59,1.75,3.17,2.62,4.76
		c0.62,1.13,1.25,2.25,1.87,3.38c0.38,0.71,0.08,1.51-0.65,1.74c-0.19,0.06-0.39,0.05-0.59,0.05
		C34.17,25.14,30.93,25.15,27.69,25.15z M32.72,24.63c1.59,0,3.19,0,4.78,0c0.71,0,1-0.49,0.66-1.11c-1.59-2.88-3.18-5.75-4.76-8.63
		c-0.15-0.27-0.33-0.48-0.67-0.48c-0.35,0-0.52,0.22-0.67,0.49c-1.58,2.86-3.14,5.73-4.74,8.57c-0.35,0.62-0.02,1.19,0.69,1.17
		C29.58,24.61,31.15,24.64,32.72,24.63z"/>
	<path class="st137" d="M29.27,38.97c0.43,0.03,0.79-0.12,1.13-0.38c0.58-0.44,1.18-0.87,1.78-1.3c0.42-0.31,0.68-0.31,1.11,0
		c0.63,0.45,1.25,0.91,1.88,1.36c0.54,0.39,1.09,0.41,1.57,0.05c0.46-0.34,0.61-0.86,0.41-1.49c-0.23-0.72-0.46-1.43-0.7-2.15
		c-0.19-0.57-0.11-0.81,0.37-1.16c0.59-0.43,1.18-0.87,1.78-1.29c0.47-0.33,0.71-0.76,0.65-1.33c0.59,0.11,0.91,0.51,1.01,1.06
		c0.09,0.53-0.17,0.93-0.58,1.24c-0.62,0.46-1.25,0.9-1.88,1.36c-0.42,0.3-0.51,0.59-0.35,1.09c0.25,0.77,0.5,1.53,0.75,2.3
		c0.17,0.51-0.01,1.02-0.47,1.39c-0.41,0.32-0.96,0.34-1.4,0.03c-0.72-0.5-1.43-1.02-2.14-1.52c-0.32-0.23-0.56-0.22-0.89,0.01
		c-0.73,0.51-1.44,1.04-2.17,1.54C30.42,40.26,29.42,39.8,29.27,38.97z"/>
	<path class="st138" d="M27.69,25.15c3.24,0,6.48,0,9.71-0.01c0.2,0,0.4,0.01,0.59-0.05c0.72-0.23,1.03-1.03,0.65-1.74
		c-0.61-1.13-1.24-2.25-1.87-3.38c-0.88-1.59-1.75-3.17-2.62-4.76c-0.04-0.07-0.07-0.15-0.1-0.23c0.37,0.02,0.58,0.26,0.75,0.55
		c0.59,1.06,1.17,2.13,1.76,3.19c0.84,1.51,1.68,3.02,2.51,4.53c0.23,0.41,0.46,0.82,0.66,1.25c0.34,0.73-0.12,1.51-0.92,1.63
		c-0.31,0.05-0.62,0.05-0.94,0.05c-2.9,0-5.81,0.01-8.71,0c-0.52,0-1.03-0.08-1.33-0.59C27.73,25.45,27.69,25.31,27.69,25.15z"/>
	<path class="st137" d="M15.25,37.75c0.8,0.5,1.65,0.85,2.58,1c3.16,0.53,6.38-1.77,6.92-4.93c0.28-1.64-0.05-3.14-0.92-4.53
		c0.31,0.03,0.45,0.3,0.61,0.49c0.72,0.88,1.2,1.89,1.35,3.02c0.24,1.74-0.17,3.32-1.26,4.7c-0.99,1.26-2.3,2.03-3.88,2.26
		c-1.77,0.25-3.4-0.17-4.79-1.34C15.63,38.23,15.33,38.09,15.25,37.75z"/>
	<path class="st139" d="M35.57,30.24c-0.44,0.03-0.71-0.12-0.84-0.5c-0.26-0.76-0.49-1.53-0.74-2.3c0.49,0.13,0.81,0.43,0.96,0.92
		C35.16,29,35.37,29.62,35.57,30.24z"/>
	<path class="st140" d="M20.3,13.16c-0.03,0.19-0.15,0.26-0.33,0.25c-0.51,0-1.02-0.01-1.53,0c-0.19,0-0.32-0.06-0.37-0.25
		c0.04-0.18,0.16-0.25,0.34-0.25c0.52,0,1.04,0,1.57,0C20.16,12.91,20.27,12.98,20.3,13.16z"/>
	<path class="st139" d="M27.39,33.04c0.52,0.32,0.99,0.69,1.48,1.06c0.11,0.08,0.19,0.2,0.2,0.34c-0.27-0.03-0.42-0.25-0.62-0.39
		c-0.32-0.21-0.65-0.41-0.91-0.69C27.45,33.27,27.36,33.18,27.39,33.04z"/>
	<path class="st141" d="M24.31,23.89c0.04,0.39-0.17,0.68-0.54,0.73c-0.09,0.01-0.19,0.01-0.28,0.01c-3.17,0-6.34,0-9.52,0
		c-0.52,0-0.79-0.19-0.85-0.6c-0.01-0.04,0.02-0.08,0.03-0.11c0.31,0.18,0.64,0.2,0.99,0.2c3.11-0.01,6.22-0.01,9.33,0
		C23.78,24.13,24.06,24.08,24.31,23.89z"/>
	<path class="st141" d="M13.16,23.93c-0.07,0.01-0.04-0.03-0.04-0.06C13.13,23.89,13.15,23.91,13.16,23.93z"/>
	<path class="st132" d="M28.74,30.77c0.38,0,0.76,0,1.13,0c0.75,0,1.17-0.31,1.4-1.02c0.24-0.73,0.47-1.45,0.71-2.18
		c0.14-0.44,0.37-0.63,0.75-0.63c0.39,0,0.6,0.18,0.75,0.63c0.23,0.72,0.46,1.43,0.7,2.15c0.25,0.75,0.66,1.04,1.45,1.05
		c0.77,0,1.53,0,2.3,0c0.42,0,0.68,0.17,0.78,0.5c0.11,0.35,0.02,0.62-0.31,0.88c-0.66,0.49-1.32,0.96-1.98,1.45
		c-0.52,0.38-0.68,0.87-0.48,1.49c0.24,0.75,0.48,1.49,0.72,2.24c0.15,0.46,0.07,0.77-0.23,0.98c-0.31,0.22-0.61,0.19-1.01-0.1
		c-0.61-0.44-1.22-0.89-1.83-1.33c-0.61-0.44-1.1-0.43-1.7,0.01c-0.62,0.45-1.24,0.9-1.86,1.35c-0.38,0.27-0.68,0.29-0.98,0.08
		c-0.29-0.21-0.37-0.52-0.24-0.96c0.23-0.73,0.47-1.45,0.71-2.18c0.23-0.72,0.07-1.2-0.54-1.64c-0.64-0.46-1.28-0.92-1.91-1.39
		c-0.4-0.3-0.47-0.74-0.19-1.1c0.14-0.19,0.33-0.28,0.57-0.28C27.88,30.77,28.31,30.77,28.74,30.77
		C28.74,30.77,28.74,30.77,28.74,30.77z"/>
	<path class="st142" d="M24.34,32.73c-0.03,3.12-2.57,5.62-5.66,5.58c-3.11-0.04-5.6-2.57-5.57-5.64c0.03-3.12,2.57-5.62,5.66-5.58
		C21.87,27.12,24.37,29.65,24.34,32.73z"/>
	<path class="st142" d="M32.72,24.63c-1.57,0-3.15-0.03-4.72,0.01c-0.71,0.02-1.04-0.56-0.69-1.17c1.6-2.85,3.17-5.71,4.74-8.57
		c0.15-0.27,0.32-0.49,0.67-0.49c0.34,0,0.52,0.21,0.67,0.48c1.59,2.88,3.18,5.75,4.76,8.63c0.34,0.62,0.05,1.11-0.66,1.11
		C35.91,24.64,34.32,24.63,32.72,24.63z"/>
</g>
</svg>
