<?xml version="1.0" encoding="utf-8"?>
<!-- Generator: Adobe Illustrator 24.0.0, SVG Export Plug-In . SVG Version: 6.00 Build 0)  -->
<svg version="1.1" id="Layer_1" xmlns="http://www.w3.org/2000/svg" xmlns:xlink="http://www.w3.org/1999/xlink" x="0px" y="0px"
	 viewBox="0 0 60.24 30.89" style="enable-background:new 0 0 60.24 30.89;" xml:space="preserve">
<style type="text/css">
	.st0{fill:#6C727C;}
	.st1{fill:#FC5E31;}
	.st2{fill:#8CC63F;}
	.st3{fill:#F3F4F5;}
	.st4{fill:#F74A2D;}
	.st5{fill:#153663;}
	.st6{fill:#153765;}
	.st7{fill:#153867;}
	.st8{fill:#153969;}
	.st9{fill:#15396B;}
	.st10{fill:#153A6D;}
	.st11{fill:#153B6F;}
	.st12{fill:#153C71;}
	.st13{fill:#143D73;}
	.st14{fill:#143E75;}
	.st15{fill:#143E77;}
	.st16{fill:#143F79;}
	.st17{fill:#14407B;}
	.st18{fill:#14417D;}
	.st19{fill:#14427F;}
	.st20{fill:#144381;}
	.st21{fill:#144383;}
	.st22{fill:#144485;}
	.st23{fill:#144587;}
	.st24{fill:#144689;}
	.st25{fill:#14478B;}
	.st26{fill:#14488D;}
	.st27{fill:#14488F;}
	.st28{fill:#144991;}
	.st29{fill:#134A93;}
	.st30{fill:#134B95;}
	.st31{fill:#134C97;}
	.st32{fill:#134D99;}
	.st33{fill:#134D9B;}
	.st34{fill:#134E9D;}
	.st35{fill:#134F9F;}
	.st36{fill:#1350A1;}
	.st37{fill-rule:evenodd;clip-rule:evenodd;fill:#F1E7ED;}
	.st38{fill-rule:evenodd;clip-rule:evenodd;fill:#A893D0;}
	.st39{opacity:0.5;fill-rule:evenodd;clip-rule:evenodd;fill:#5D2C84;}
	.st40{fill-rule:evenodd;clip-rule:evenodd;fill:#CABDE2;}
	.st41{fill-rule:evenodd;clip-rule:evenodd;fill:#704E8D;}
	.st42{fill-rule:evenodd;clip-rule:evenodd;fill:#FBF9FB;}
	.st43{opacity:0.83;fill-rule:evenodd;clip-rule:evenodd;fill:url(#SVGID_2_);}
	.st44{opacity:0.83;fill-rule:evenodd;clip-rule:evenodd;fill:url(#SVGID_3_);}
	.st45{fill:#8D6B96;}
	.st46{opacity:0.2;fill-rule:evenodd;clip-rule:evenodd;fill:#864C90;}
	.st47{fill-rule:evenodd;clip-rule:evenodd;fill:#CECBEA;}
	.st48{fill-rule:evenodd;clip-rule:evenodd;fill:#39175A;}
	.st49{fill-rule:evenodd;clip-rule:evenodd;fill:#F83D45;}
	.st50{fill-rule:evenodd;clip-rule:evenodd;fill:#B32742;}
	.st51{fill-rule:evenodd;clip-rule:evenodd;fill:#A28BCC;}
	.st52{opacity:0.5;fill-rule:evenodd;clip-rule:evenodd;fill:#864C90;}
	.st53{fill-rule:evenodd;clip-rule:evenodd;fill:url(#SVGID_4_);}
	.st54{fill-rule:evenodd;clip-rule:evenodd;fill:url(#SVGID_6_);}
	.st55{fill:#B32742;}
	.st56{fill-rule:evenodd;clip-rule:evenodd;fill:url(#SVGID_8_);}
	.st57{fill-rule:evenodd;clip-rule:evenodd;fill:url(#SVGID_9_);}
	.st58{fill-rule:evenodd;clip-rule:evenodd;fill:#7A5AC4;}
	.st59{fill-rule:evenodd;clip-rule:evenodd;fill:#7A5AA7;}
	.st60{fill-rule:evenodd;clip-rule:evenodd;fill:#5A2967;}
	.st61{fill-rule:evenodd;clip-rule:evenodd;fill:#C4D1ED;}
	.st62{opacity:0.5;fill-rule:evenodd;clip-rule:evenodd;fill:#6D4C90;}
	.st63{fill:#7A5AA7;}
	.st64{fill:#39175A;}
	.st65{fill-rule:evenodd;clip-rule:evenodd;fill:url(#SVGID_10_);}
	.st66{fill:#FFFFFF;}
	.st67{fill-rule:evenodd;clip-rule:evenodd;fill:url(#SVGID_11_);}
	.st68{fill-rule:evenodd;clip-rule:evenodd;fill:url(#SVGID_12_);}
	.st69{fill-rule:evenodd;clip-rule:evenodd;fill:url(#SVGID_13_);}
	.st70{fill-rule:evenodd;clip-rule:evenodd;fill:url(#SVGID_14_);}
	.st71{fill-rule:evenodd;clip-rule:evenodd;fill:url(#SVGID_15_);}
	.st72{fill-rule:evenodd;clip-rule:evenodd;fill:url(#SVGID_16_);}
	.st73{fill-rule:evenodd;clip-rule:evenodd;fill:url(#SVGID_17_);}
	.st74{fill-rule:evenodd;clip-rule:evenodd;fill:url(#SVGID_18_);}
	.st75{fill-rule:evenodd;clip-rule:evenodd;fill:url(#SVGID_19_);}
	.st76{opacity:0.4;fill-rule:evenodd;clip-rule:evenodd;fill:#864C90;}
	.st77{fill-rule:evenodd;clip-rule:evenodd;fill:url(#SVGID_20_);}
	.st78{fill-rule:evenodd;clip-rule:evenodd;fill:#FFFFFF;}
	.st79{fill-rule:evenodd;clip-rule:evenodd;fill:url(#SVGID_21_);}
	.st80{opacity:0.44;fill-rule:evenodd;clip-rule:evenodd;fill:#60003B;}
	.st81{fill-rule:evenodd;clip-rule:evenodd;fill:url(#SVGID_22_);}
	.st82{fill-rule:evenodd;clip-rule:evenodd;fill:url(#SVGID_23_);}
	.st83{fill-rule:evenodd;clip-rule:evenodd;fill:url(#SVGID_24_);}
	.st84{fill-rule:evenodd;clip-rule:evenodd;fill:url(#SVGID_25_);}
	.st85{fill-rule:evenodd;clip-rule:evenodd;fill:url(#SVGID_26_);}
	.st86{fill-rule:evenodd;clip-rule:evenodd;fill:url(#SVGID_27_);}
	.st87{fill-rule:evenodd;clip-rule:evenodd;fill:url(#SVGID_28_);}
	.st88{fill-rule:evenodd;clip-rule:evenodd;fill:url(#SVGID_29_);}
	.st89{fill-rule:evenodd;clip-rule:evenodd;fill:url(#SVGID_30_);}
	.st90{fill-rule:evenodd;clip-rule:evenodd;fill:url(#SVGID_31_);}
	.st91{fill-rule:evenodd;clip-rule:evenodd;fill:url(#SVGID_32_);}
	.st92{fill-rule:evenodd;clip-rule:evenodd;fill:url(#SVGID_33_);}
	.st93{fill-rule:evenodd;clip-rule:evenodd;fill:url(#SVGID_34_);}
	.st94{fill-rule:evenodd;clip-rule:evenodd;fill:url(#SVGID_35_);}
	.st95{fill-rule:evenodd;clip-rule:evenodd;fill:url(#SVGID_36_);}
	.st96{fill-rule:evenodd;clip-rule:evenodd;fill:url(#SVGID_37_);}
	.st97{fill-rule:evenodd;clip-rule:evenodd;fill:url(#SVGID_38_);}
	.st98{fill-rule:evenodd;clip-rule:evenodd;fill:url(#SVGID_39_);}
	.st99{fill-rule:evenodd;clip-rule:evenodd;fill:url(#SVGID_40_);}
	.st100{fill-rule:evenodd;clip-rule:evenodd;fill:url(#SVGID_41_);}
	.st101{fill-rule:evenodd;clip-rule:evenodd;fill:url(#SVGID_42_);}
	.st102{fill-rule:evenodd;clip-rule:evenodd;fill:url(#SVGID_43_);}
	.st103{fill-rule:evenodd;clip-rule:evenodd;fill:url(#SVGID_44_);}
	.st104{fill:#F2E225;}
	.st105{opacity:0.4;fill:url(#SVGID_45_);}
	.st106{fill:#814BA2;}
	.st107{fill:#925CB4;}
	.st108{fill:#B289C9;}
	.st109{fill:#A274BF;}
	.st110{opacity:0.4;fill:url(#SVGID_46_);}
	.st111{fill:#813034;}
	.st112{fill:#802F34;}
	.st113{fill:#AFD2EF;}
	.st114{fill:#E54C3C;}
	.st115{fill:#57607F;}
	.st116{fill:#BF3A2C;}
	.st117{fill:#BF3A2B;}
	.st118{fill:#8796C8;}
	.st119{fill:#C88D95;}
	.st120{fill:#8696C9;}
	.st121{fill:#56607F;}
	.st122{fill:#E3E4E6;}
	.st123{fill:#D8DADE;}
	.st124{opacity:0.4;fill:url(#SVGID_47_);}
	.st125{fill:#F2582F;}
	.st126{fill:#FF7043;}
	.st127{fill:#8E2611;}
	.st128{fill:#E53935;}
	.st129{fill:#F0534A;}
	.st130{fill:#D5D5D3;}
	.st131{opacity:0.4;fill:url(#SVGID_48_);}
	.st132{fill:#F8749D;}
	.st133{fill:#403063;}
	.st134{fill:#403365;}
	.st135{fill:#403264;}
	.st136{fill:#413265;}
	.st137{fill:#E4E5E6;}
	.st138{fill:#E2E2E4;}
	.st139{fill:#DEDEE2;}
	.st140{fill:#3D2E61;}
	.st141{fill:#FDF7F9;}
	.st142{fill:#FDD6E4;}
	.st143{opacity:0.4;fill:url(#SVGID_49_);}
	.st144{fill:#C20047;}
	.st145{fill:#FE405C;}
	.st146{fill:#B1D3EF;}
	.st147{fill:#E0F1FD;}
	.st148{opacity:0.4;fill:url(#SVGID_50_);}
	.st149{opacity:0.4;fill:url(#SVGID_51_);}
	.st150{opacity:0.4;fill:url(#SVGID_52_);}
	.st151{opacity:0.4;fill:url(#SVGID_53_);}
	.st152{opacity:0.4;fill:url(#SVGID_54_);}
	.st153{opacity:0.4;fill:url(#SVGID_55_);}
	.st154{opacity:0.4;fill:url(#SVGID_56_);}
	.st155{fill:#FF5F85;}
	.st156{fill:#FFE878;}
	.st157{fill:#B2527E;}
	.st158{fill:#004FAB;}
	.st159{fill:#57A3FE;}
	.st160{fill:#FEFEFE;}
	.st161{fill:#37A6CD;}
	.st162{fill:#E19A4B;}
	.st163{fill:#54BBE8;}
	.st164{fill:#FBB55F;}
	.st165{fill:#E29A4C;}
	.st166{fill:#E4E8E9;}
	.st167{fill:#D1D0D0;}
	.st168{fill:#E3E7E8;}
	.st169{fill:#566369;}
	.st170{fill:#E19A4C;}
	.st171{fill:#445155;}
	.st172{fill:#E4E7E7;}
	.st173{fill:#566368;}
	.st174{fill:#6E7A7E;}
	.st175{fill:#435054;}
	.st176{fill:#5E5461;}
	.st177{fill:#6F6571;}
	.st178{fill:#5D5360;}
	.st179{fill:#4B3F4E;}
	.st180{fill:#FCCE64;}
	.st181{fill:#FEDF7E;}
	.st182{fill:#857D86;}
	.st183{fill:#3E8FC8;}
	.st184{fill:#FCB630;}
	.st185{fill:#88B237;}
	.st186{fill:#E7594A;}
	.st187{fill:#4398D0;}
	.st188{fill:#D55245;}
	.st189{fill:#80A734;}
	.st190{fill:#FEA71A;}
	.st191{fill:#FAD390;}
	.st192{fill:#F2D45C;}
	.st193{fill:#FA7B76;}
	.st194{fill:#FE5364;}
	.st195{fill:#F8E3C1;}
	.st196{fill:#2D5871;}
	.st197{fill:#FDD8A7;}
	.st198{fill:#E0EEFA;}
	.st199{fill:#F3C792;}
	.st200{fill:#CBDEEC;}
	.st201{fill:#FE4D4C;}
	.st202{fill:#F23A3A;}
	.st203{fill:#1D4859;}
	.st204{fill:#FEB025;}
	.st205{fill:#FE901D;}
	.st206{fill:#1E495A;}
	.st207{fill:#2F5972;}
	.st208{fill:#F3C892;}
	.st209{opacity:0.4;fill:url(#SVGID_57_);}
	.st210{opacity:0.4;fill:url(#SVGID_58_);}
	.st211{fill:#949AA8;}
	.st212{fill:#B3B3B3;}
	.st213{fill:#575D72;}
	.st214{fill:#A3E0F4;}
	.st215{fill:#C2EAF8;}
	.st216{fill:#28304E;}
	.st217{fill:#EC5176;}
	.st218{fill:#FECC34;}
	.st219{fill:#FE76A3;}
	.st220{fill:#E69115;}
	.st221{fill:#FF0000;}
	.st222{fill:#F4AE00;}
	.st223{opacity:0.12;fill:#1B1E23;}
	.st224{fill:#E7E8FA;}
	.st225{fill:#57A845;}
	.st226{fill:none;stroke:#283847;stroke-width:1.2169;stroke-miterlimit:10;}
	.st227{opacity:0.5;fill:#283847;}
	.st228{fill:#6B98F6;}
	.st229{fill:#79AFFF;}
	.st230{clip-path:url(#XMLID_3_);fill:#79AFFF;}
	.st231{clip-path:url(#XMLID_3_);}
	.st232{fill:none;stroke:#212121;stroke-width:1.5836;stroke-linecap:round;stroke-linejoin:round;stroke-miterlimit:10;}
	.st233{fill:#17566C;}
	.st234{clip-path:url(#XMLID_6_);fill:#79AFFF;}
	.st235{clip-path:url(#XMLID_6_);fill:#2072A9;}
	.st236{clip-path:url(#XMLID_6_);fill:#2175B8;}
	.st237{opacity:0.02;clip-path:url(#XMLID_9_);}
	.st238{opacity:0.13;clip-path:url(#XMLID_9_);fill:#FFFFFF;}
	.st239{fill:none;stroke:#212121;stroke-width:0.5;stroke-linecap:round;stroke-linejoin:round;stroke-miterlimit:10;}
	.st240{fill:#212121;}
	.st241{opacity:0.02;clip-path:url(#XMLID_19_);}
	.st242{opacity:0.13;clip-path:url(#XMLID_19_);fill:#FFFFFF;}
	.st243{clip-path:url(#XMLID_20_);fill:#B0C7D8;}
	.st244{clip-path:url(#XMLID_21_);fill:#3A4149;}
	.st245{fill:#FBFFFF;}
	.st246{fill:#EEEEEE;}
	.st247{fill:#FF7B35;}
	.st248{fill:#509DFF;}
	.st249{fill:#B0C7D8;}
	.st250{opacity:0.3;fill:#FFFFFC;}
	.st251{clip-path:url(#XMLID_26_);fill:#FC6C2B;}
	.st252{fill:#B8D0E5;}
	.st253{fill:none;stroke:#000000;stroke-width:2.5763;stroke-miterlimit:10;}
	.st254{opacity:0.12;clip-path:url(#XMLID_27_);}
	.st255{clip-path:url(#XMLID_28_);fill:#217AAB;}
	.st256{opacity:0.2;}
	.st257{opacity:0.12;clip-path:url(#XMLID_29_);fill:#FFFFFF;}
	.st258{opacity:0.03;clip-path:url(#XMLID_42_);}
	.st259{opacity:0.03;clip-path:url(#XMLID_43_);fill:#010102;}
	.st260{opacity:0.04;clip-path:url(#XMLID_44_);}
	.st261{fill:#FDAF00;}
	.st262{fill:#FF7C00;}
	.st263{opacity:0.3;clip-path:url(#XMLID_45_);}
	.st264{opacity:0.3;}
	.st265{fill:none;stroke:#212121;stroke-width:0.9542;stroke-linecap:round;stroke-linejoin:round;stroke-miterlimit:10;}
	.st266{opacity:0.3;clip-path:url(#XMLID_47_);}
	.st267{fill:none;stroke:#212121;stroke-width:1.188;stroke-linecap:round;stroke-linejoin:round;stroke-miterlimit:10;}
	.st268{fill:#FF9D38;}
	.st269{fill:#C8DFFD;}
	.st270{fill:#A8CCFF;}
	.st271{fill:#D5E9FF;}
	.st272{fill:#B8D0FC;}
	.st273{fill:#0B3563;}
	.st274{fill:none;stroke:#BEDBF7;stroke-width:1.0668;stroke-miterlimit:10;}
	.st275{fill:#25468F;}
	.st276{fill:#E4EEF7;}
	.st277{fill:none;stroke:#3A65C9;stroke-width:1.0668;stroke-miterlimit:10;}
	.st278{fill:none;stroke:#3A65C9;stroke-width:1.001;stroke-miterlimit:10;}
	.st279{fill:#FF5521;}
	.st280{fill:#3A65C9;}
	.st281{fill:none;stroke:#FFCC40;stroke-width:2.1337;stroke-linecap:round;stroke-linejoin:round;stroke-miterlimit:10;}
	.st282{fill:#BEDBF7;}
	.st283{fill:none;stroke:#FFFFFF;stroke-width:1.2169;stroke-miterlimit:10;}
	.st284{fill:#10477B;}
	.st285{fill:#D44C10;}
	.st286{fill:#FF912B;}
	.st287{fill:#FC7600;}
	.st288{fill:#FFAE73;}
	.st289{fill:#FC9F38;}
	.st290{fill:#E65F00;}
	.st291{fill:#4681E1;}
	.st292{fill:#032444;}
	.st293{fill:#0D458E;}
	.st294{fill:#1E3865;}
	.st295{fill:#F48F4E;}
	.st296{fill:#254C82;}
	.st297{fill:#F9924F;}
	.st298{opacity:0.5;}
	.st299{fill:#499936;}
	.st300{fill:url(#SVGID_59_);}
	.st301{opacity:0.08;fill:#FFFFFF;}
	.st302{opacity:0.31;fill:#323197;}
	.st303{fill:#F5F5F7;}
	.st304{fill:#A1C2FF;}
	.st305{fill:#FF8D02;}
	.st306{opacity:0.08;}
	.st307{fill:none;stroke:#FFFFFF;stroke-width:2;stroke-linecap:round;stroke-linejoin:round;stroke-miterlimit:10;}
	.st308{opacity:0.44;fill:none;stroke:#FFFFFF;stroke-miterlimit:10;}
	.st309{opacity:0.4;fill:url(#SVGID_60_);}
	.st310{opacity:0.4;fill:url(#SVGID_61_);}
	.st311{fill:#010200;}
	.st312{opacity:0.4;fill:url(#SVGID_62_);}
	.st313{fill:#F74A2D;stroke:#000000;stroke-width:0.35;stroke-miterlimit:10;}
	.st314{clip-path:url(#SVGID_63_);fill:url(#SVGID_64_);}
	.st315{clip-path:url(#SVGID_63_);fill:url(#SVGID_65_);}
	.st316{clip-path:url(#SVGID_63_);fill:url(#SVGID_66_);}
	.st317{clip-path:url(#SVGID_63_);fill:url(#SVGID_67_);}
	.st318{fill:#393D43;}
	.st319{fill:#FDFDFB;}
	.st320{fill:#0086CE;}
	.st321{fill:#69B545;}
	.st322{fill:#D6347C;}
	.st323{fill:#F07F32;}
	.st324{fill:#6F519D;}
	.st325{fill-rule:evenodd;clip-rule:evenodd;fill:#51555B;}
	.st326{fill-rule:evenodd;clip-rule:evenodd;fill:#393D43;}
	.st327{fill:#003A70;}
	.st328{fill:url(#SVGID_68_);}
	.st329{fill:#003399;}
	.st330{fill-rule:evenodd;clip-rule:evenodd;fill:#003399;}
	.st331{fill:#A1A1A1;}
	.st332{fill-rule:evenodd;clip-rule:evenodd;fill:#006677;}
	.st333{fill-rule:evenodd;clip-rule:evenodd;fill:#E45300;}
	.st334{fill-rule:evenodd;clip-rule:evenodd;fill:#2156A6;}
	.st335{fill:#2156A6;}
	.st336{fill:#FB6E3B;}
	.st337{fill:#00C9BD;}
	.st338{fill-rule:evenodd;clip-rule:evenodd;fill:#00ACD8;}
	.st339{fill-rule:evenodd;clip-rule:evenodd;}
	.st340{fill-rule:evenodd;clip-rule:evenodd;fill:#0056A6;}
	.st341{fill-rule:evenodd;clip-rule:evenodd;fill:#F48120;}
	.st342{fill-rule:evenodd;clip-rule:evenodd;fill:#2E3191;}
	.st343{fill:#FBDA00;}
	.st344{fill:#1F1A17;}
	.st345{fill:#007CC2;}
	.st346{fill:#DA251C;}
	.st347{fill-rule:evenodd;clip-rule:evenodd;fill:#F0F0F0;}
	.st348{fill-rule:evenodd;clip-rule:evenodd;fill:#FECF22;}
	.st349{fill-rule:evenodd;clip-rule:evenodd;fill:#006AB4;}
	.st350{fill-rule:evenodd;clip-rule:evenodd;fill:#D61627;}
	.st351{fill-rule:evenodd;clip-rule:evenodd;fill:#E6E6E6;}
	.st352{fill:#007BC2;}
	.st353{fill:#231F20;}
	.st354{fill:#EC1C25;}
	.st355{fill:#243E92;}
	.st356{fill:#E22228;}
	.st357{fill:#FAD701;}
	.st358{fill-rule:evenodd;clip-rule:evenodd;fill:#E61F20;}
	.st359{fill-rule:evenodd;clip-rule:evenodd;fill:#004B97;}
	.st360{fill-rule:evenodd;clip-rule:evenodd;fill:#E50013;}
	.st361{fill-rule:evenodd;clip-rule:evenodd;fill:url(#SVGID_71_);}
	.st362{fill-rule:evenodd;clip-rule:evenodd;fill:url(#SVGID_72_);}
	.st363{fill-rule:evenodd;clip-rule:evenodd;fill:#412A8B;}
</style>
<path class="st66" d="M54.71,30.89H5.53C2.48,30.89,0,28.42,0,25.36V5.53C0,2.48,2.48,0,5.53,0h49.18c3.05,0,5.53,2.48,5.53,5.53
	v19.83C60.24,28.42,57.77,30.89,54.71,30.89z"/>
<g>
	<path class="st329" d="M15.39,8.24c2.02,0.01,4.11,0.49,6.26,1.44l0.1,0.04l0.04,0.1v0.01l0,0c0.17,0.53,0.33,1.06,0.45,1.59
		c0.12,0.53,0.22,1.06,0.3,1.59c0.1,0.7,0.16,1.39,0.17,2.08v0.81c-0.04,1.76-0.35,3.51-0.92,5.27l-0.04,0.1l-0.1,0.04
		c-2.03,0.9-4.07,1.34-6.1,1.34c-0.05,0-0.1,0-0.16,0v-0.49c0.06,0,0.11,0,0.16,0c1.93,0,3.87-0.41,5.8-1.25
		c0.84-2.61,1.07-5.22,0.7-7.83c-0.07-0.51-0.17-1.03-0.3-1.54c-0.11-0.48-0.25-0.96-0.4-1.44c-2.05-0.9-4.04-1.35-5.96-1.36V8.24z
		 M9.43,9.69c1.9-0.97,3.87-1.45,5.91-1.45c0.01,0,0.03,0,0.04,0v0.49c-0.01,0-0.03,0-0.04,0c-1.94,0-3.8,0.45-5.61,1.36
		C9,11.83,8.59,13.6,8.57,15.4c-0.03,1.79,0.34,3.63,1.16,5.5c1.89,0.82,3.77,1.24,5.66,1.26v0.49c-1.98-0.02-3.96-0.46-5.94-1.34
		l-0.13-0.12c-0.84-1.89-1.23-3.74-1.24-5.56V15.5c0-0.04,0-0.07,0-0.1c0.02-1.89,0.46-3.76,1.24-5.58L9.43,9.69z"/>
	<path class="st330" d="M15.52,19.47c-0.1-1.39-0.04-2.83-0.45-4.15c-0.38-1.23-1.84-1.94-1.87-3.29c-0.03-1.06,0.78-2.28,2.28-2.28
		c1.41-0.01,2.29,1.02,2.39,2.17c0.12,1.33-1.49,2.22-1.91,3.48C15.53,16.69,15.65,18.12,15.52,19.47z"/>
	<path class="st330" d="M16.07,19.14c-0.06-1.2-0.06-2.36,0.28-3.38c0.37-1.16,1.14-2.14,2.31-2.46c0.8-0.22,1.99,0.73,1.8,1.69
		c-0.16,0.78-0.94,1.69-2.18,1.79c-0.58,0.05-0.83,0.51-1.19,0.78c1.62-0.16,2.68-0.8,3.41-1.46c0.11,0.57,0.18,1.52-0.26,1.84
		c-0.87,0.62-1.68,0.12-2.7,0.41C16.97,18.51,16.61,18.88,16.07,19.14z"/>
	<path class="st330" d="M14.96,19.14c0.07-1.2,0.06-2.36-0.27-3.38c-0.37-1.16-1.14-2.14-2.31-2.46c-0.8-0.22-1.99,0.73-1.8,1.69
		c0.16,0.78,0.94,1.69,2.18,1.79c0.57,0.05,0.83,0.51,1.19,0.78c-1.63-0.16-2.68-0.8-3.41-1.46c-0.11,0.57-0.18,1.52,0.26,1.84
		c0.87,0.62,1.68,0.12,2.7,0.41C14.08,18.51,14.43,18.88,14.96,19.14z"/>
	<path class="st330" d="M18.83,20.93v-0.2l0.15-0.04l-0.15-0.22v-0.36l0.65,0.91l-0.23,0.06l-0.16-0.22L18.83,20.93z M18.83,20.12
		v0.36l-0.1-0.15l-0.04,0.44l0.15-0.04v0.2l-0.17,0.04l-0.03,0.27l-0.23,0.06l0.15-1.18l0.23-0.06L18.83,20.12L18.83,20.12z
		 M16.67,21.56v-0.19h0.05c0.08-0.01,0.13-0.01,0.15-0.02c0.03-0.01,0.06-0.03,0.07-0.05c0.02-0.03,0.03-0.06,0.03-0.09
		c-0.01-0.04-0.01-0.07-0.04-0.09c-0.01-0.02-0.04-0.04-0.07-0.04c-0.03-0.01-0.09-0.01-0.2,0v-0.19c0.06,0,0.09-0.01,0.11-0.01
		c0.04-0.01,0.07-0.03,0.09-0.05c0.02-0.02,0.03-0.05,0.02-0.09c0-0.04-0.01-0.07-0.04-0.08c-0.01-0.02-0.04-0.04-0.09-0.04
		c-0.01,0-0.04,0-0.09,0.01v-0.19c0.08-0.01,0.14-0.01,0.17,0c0.04,0,0.09,0.01,0.12,0.04c0.04,0.01,0.07,0.04,0.09,0.08
		c0.02,0.04,0.04,0.08,0.04,0.13s-0.01,0.1-0.03,0.15c-0.02,0.04-0.06,0.08-0.11,0.11c0.07,0.01,0.13,0.04,0.17,0.09
		c0.04,0.04,0.07,0.09,0.07,0.16c0,0.05-0.01,0.1-0.02,0.15c-0.02,0.05-0.05,0.09-0.09,0.12c-0.04,0.03-0.09,0.05-0.15,0.07
		c-0.04,0.01-0.13,0.01-0.27,0.03H16.67L16.67,21.56z M18.04,20.95l0.22,0.03c-0.01,0.12-0.05,0.22-0.12,0.3
		c-0.07,0.07-0.16,0.12-0.28,0.14c-0.15,0.02-0.28-0.01-0.38-0.09c-0.12-0.09-0.18-0.21-0.22-0.38c-0.03-0.18-0.01-0.33,0.07-0.45
		c0.07-0.12,0.19-0.19,0.34-0.22c0.14-0.02,0.25,0,0.35,0.07c0.06,0.04,0.11,0.09,0.15,0.18l-0.21,0.09
		c-0.02-0.05-0.06-0.09-0.1-0.12c-0.05-0.03-0.1-0.04-0.16-0.03c-0.08,0.01-0.14,0.06-0.18,0.12c-0.04,0.07-0.05,0.17-0.03,0.3
		c0.03,0.14,0.07,0.23,0.13,0.28s0.13,0.07,0.21,0.06c0.06-0.01,0.1-0.04,0.14-0.09C18.01,21.1,18.03,21.03,18.04,20.95z
		 M16.67,20.44v0.19c-0.03,0-0.06,0.01-0.09,0.01l-0.13,0.01l0.02,0.25l0.15-0.01c0.01,0,0.04,0,0.05-0.01v0.19c0,0,0,0-0.01,0
		l-0.17,0.01l0.02,0.3l0.16-0.01v0.19l-0.36,0.04l-0.1-1.11l0.44-0.04C16.65,20.44,16.66,20.44,16.67,20.44L16.67,20.44z
		 M15.27,21.18v-0.19c0.05,0,0.08-0.01,0.1-0.01c0.03-0.01,0.05-0.03,0.07-0.05c0.01-0.03,0.02-0.06,0.02-0.09
		c0.01-0.04-0.01-0.07-0.03-0.1c-0.02-0.03-0.05-0.04-0.09-0.05c-0.02,0-0.04-0.01-0.08-0.01v-0.19c0.11,0,0.17,0.01,0.21,0.02
		c0.07,0.01,0.12,0.05,0.16,0.11s0.07,0.13,0.06,0.22c0,0.07-0.01,0.12-0.04,0.17c-0.03,0.04-0.06,0.08-0.09,0.11
		c-0.04,0.02-0.08,0.04-0.12,0.05C15.4,21.18,15.34,21.18,15.27,21.18z M15.27,20.49v0.19c-0.02,0-0.05,0-0.09,0l-0.11-0.01v0.32
		h0.12c0.03,0,0.06,0,0.08,0v0.19c-0.01,0-0.04,0-0.06,0h-0.15l-0.01,0.42l-0.22-0.01l0.02-1.11l0.36,0.01
		C15.23,20.49,15.25,20.49,15.27,20.49L15.27,20.49z M13.17,21.07v-0.34c0.07,0.01,0.11,0.01,0.13,0.01
		c0.03-0.01,0.05-0.01,0.07-0.04c0.01-0.02,0.03-0.04,0.04-0.08c0.01-0.04,0-0.07-0.01-0.09c-0.01-0.03-0.04-0.04-0.08-0.06
		c-0.01-0.01-0.07-0.01-0.15-0.03v-0.19l0.09,0.01c0.12,0.02,0.2,0.04,0.25,0.07c0.05,0.03,0.09,0.07,0.11,0.13
		c0.02,0.05,0.03,0.12,0.01,0.18c-0.01,0.08-0.05,0.15-0.11,0.19c-0.05,0.04-0.13,0.07-0.23,0.07c0.04,0.04,0.08,0.07,0.1,0.11
		c0.03,0.04,0.06,0.11,0.09,0.2l0.09,0.24l-0.26-0.05l-0.12-0.27C13.2,21.12,13.19,21.09,13.17,21.07L13.17,21.07z M13.81,20.38
		l0.22,0.02L13.98,21c-0.01,0.09-0.01,0.16-0.01,0.18c0.01,0.05,0.03,0.09,0.06,0.12c0.04,0.04,0.08,0.05,0.15,0.06
		c0.07,0.01,0.12-0.01,0.15-0.03c0.04-0.02,0.06-0.05,0.07-0.09c0.01-0.04,0.01-0.1,0.02-0.19l0.05-0.62l0.22,0.02l-0.05,0.58
		c-0.01,0.14-0.02,0.23-0.04,0.28c-0.01,0.05-0.04,0.1-0.07,0.13c-0.04,0.04-0.09,0.07-0.15,0.08c-0.05,0.02-0.12,0.02-0.21,0.01
		c-0.11-0.01-0.19-0.03-0.24-0.06c-0.05-0.03-0.09-0.07-0.12-0.1c-0.03-0.04-0.04-0.09-0.05-0.13c-0.01-0.07-0.01-0.16,0-0.28
		L13.81,20.38z M12.05,20.7l0.04-0.18l0.47,0.12l-0.12,0.43c-0.06,0.04-0.13,0.06-0.23,0.07c-0.09,0.01-0.18,0-0.27-0.02
		c-0.12-0.03-0.21-0.08-0.28-0.15c-0.07-0.07-0.12-0.16-0.14-0.25c-0.01-0.1-0.01-0.2,0.01-0.3c0.03-0.11,0.08-0.2,0.15-0.28
		c0.07-0.07,0.15-0.12,0.25-0.14c0.08-0.02,0.17-0.01,0.28,0.01c0.13,0.04,0.23,0.09,0.29,0.17c0.06,0.07,0.09,0.17,0.08,0.27
		l-0.22-0.01c0-0.06-0.01-0.11-0.05-0.15c-0.04-0.04-0.08-0.07-0.15-0.09c-0.09-0.02-0.17-0.01-0.25,0.03
		c-0.07,0.04-0.12,0.13-0.16,0.25c-0.04,0.13-0.03,0.23,0.01,0.31c0.04,0.08,0.11,0.13,0.2,0.15c0.05,0.01,0.09,0.01,0.15,0.01
		c0.05-0.01,0.09-0.02,0.14-0.04l0.04-0.14L12.05,20.7L12.05,20.7z M13.17,20.26l-0.38-0.07l-0.19,1.1l0.22,0.04l0.08-0.46
		l0.05,0.01c0.05,0.01,0.09,0.02,0.11,0.03c0.02,0.01,0.04,0.04,0.06,0.06c0.01,0.02,0.03,0.06,0.05,0.11v-0.34
		c-0.02,0-0.04-0.01-0.07-0.01l-0.16-0.03l0.04-0.28l0.17,0.03c0.01,0,0.01,0,0.01,0V20.26z"/>
	<path class="st330" d="M47.74,18.9v-2.05h0.9v-3.6l-0.9,1.8v-4.49h3.53l0.9,10.34h-3.53V18.9H47.74z M47.74,10.57v4.49l-0.9,1.8
		h0.9v2.05h-1.7l-0.7,1.9h-2.19v-2.36l2.44-5.27h-0.5l1.39-2.6H47.74L47.74,10.57z M43.15,14.01l1.1-2.6l-1.1-0.61V14.01z
		 M34.44,13.02c0.05-0.3,0.05-0.59,0-0.86V13.02L34.44,13.02z M43.15,10.81v3.21l-0.15,0.35c-2.16-1.54-5.35-0.14-5.53,1.49
		c-0.18,1.7,1.12,3.08,4.43,2.05l-1.14,3.05c-4.37,0.49-6.07-1.25-6.32-3.27v-1.15c0.07-0.53,0.2-1.04,0.39-1.52
		c2.15-5.35,5.65-4.15,6.98-4.25l0.2-0.59L43.15,10.81L43.15,10.81z M43.15,18.43l-1.1,2.36h1.1V18.43z M30.51,20.73
		c2.34-0.46,4.64-3.28,2.34-5.52c0.9-0.48,1.46-1.34,1.6-2.2v-0.86c-0.16-0.89-0.85-1.62-2.15-1.64l-1.78-0.04v1.99h0.74
		c0.79,0,0.69,2.05-0.3,2.05h-0.44v1.57c1.07,0.2,0.69,1.68,0,2.14V20.73L30.51,20.73z M34.44,16.53v1.15
		C34.4,17.3,34.4,16.92,34.44,16.53z M27.42,10.41l-1.44,2.8l0.65-0.05l-1.74,7.64h4.98c0.22,0,0.43-0.02,0.65-0.07v-2.52
		c-0.12,0.09-0.26,0.14-0.4,0.14h-1.79l0.59-2.3h1.34c0.09,0,0.18,0.01,0.25,0.02v-1.57h-1.25l0.5-2.05h0.75v-1.99L27.42,10.41z"/>
</g>
</svg>
