<?xml version="1.0" encoding="utf-8"?>
<!-- Generator: Adobe Illustrator 24.0.0, SVG Export Plug-In . SVG Version: 6.00 Build 0)  -->
<svg version="1.1" id="Layer_1" xmlns="http://www.w3.org/2000/svg" xmlns:xlink="http://www.w3.org/1999/xlink" x="0px" y="0px"
	 viewBox="0 0 60.24 30.89" style="enable-background:new 0 0 60.24 30.89;" xml:space="preserve">
<style type="text/css">
	.st0{fill:#6C727C;}
	.st1{fill:#FC5E31;}
	.st2{fill:#8CC63F;}
	.st3{fill:#F3F4F5;}
	.st4{fill:#F74A2D;}
	.st5{fill:#153663;}
	.st6{fill:#153765;}
	.st7{fill:#153867;}
	.st8{fill:#153969;}
	.st9{fill:#15396B;}
	.st10{fill:#153A6D;}
	.st11{fill:#153B6F;}
	.st12{fill:#153C71;}
	.st13{fill:#143D73;}
	.st14{fill:#143E75;}
	.st15{fill:#143E77;}
	.st16{fill:#143F79;}
	.st17{fill:#14407B;}
	.st18{fill:#14417D;}
	.st19{fill:#14427F;}
	.st20{fill:#144381;}
	.st21{fill:#144383;}
	.st22{fill:#144485;}
	.st23{fill:#144587;}
	.st24{fill:#144689;}
	.st25{fill:#14478B;}
	.st26{fill:#14488D;}
	.st27{fill:#14488F;}
	.st28{fill:#144991;}
	.st29{fill:#134A93;}
	.st30{fill:#134B95;}
	.st31{fill:#134C97;}
	.st32{fill:#134D99;}
	.st33{fill:#134D9B;}
	.st34{fill:#134E9D;}
	.st35{fill:#134F9F;}
	.st36{fill:#1350A1;}
	.st37{fill-rule:evenodd;clip-rule:evenodd;fill:#F1E7ED;}
	.st38{fill-rule:evenodd;clip-rule:evenodd;fill:#A893D0;}
	.st39{opacity:0.5;fill-rule:evenodd;clip-rule:evenodd;fill:#5D2C84;}
	.st40{fill-rule:evenodd;clip-rule:evenodd;fill:#CABDE2;}
	.st41{fill-rule:evenodd;clip-rule:evenodd;fill:#704E8D;}
	.st42{fill-rule:evenodd;clip-rule:evenodd;fill:#FBF9FB;}
	.st43{opacity:0.83;fill-rule:evenodd;clip-rule:evenodd;fill:url(#SVGID_2_);}
	.st44{opacity:0.83;fill-rule:evenodd;clip-rule:evenodd;fill:url(#SVGID_3_);}
	.st45{fill:#8D6B96;}
	.st46{opacity:0.2;fill-rule:evenodd;clip-rule:evenodd;fill:#864C90;}
	.st47{fill-rule:evenodd;clip-rule:evenodd;fill:#CECBEA;}
	.st48{fill-rule:evenodd;clip-rule:evenodd;fill:#39175A;}
	.st49{fill-rule:evenodd;clip-rule:evenodd;fill:#F83D45;}
	.st50{fill-rule:evenodd;clip-rule:evenodd;fill:#B32742;}
	.st51{fill-rule:evenodd;clip-rule:evenodd;fill:#A28BCC;}
	.st52{opacity:0.5;fill-rule:evenodd;clip-rule:evenodd;fill:#864C90;}
	.st53{fill-rule:evenodd;clip-rule:evenodd;fill:url(#SVGID_4_);}
	.st54{fill-rule:evenodd;clip-rule:evenodd;fill:url(#SVGID_6_);}
	.st55{fill:#B32742;}
	.st56{fill-rule:evenodd;clip-rule:evenodd;fill:url(#SVGID_8_);}
	.st57{fill-rule:evenodd;clip-rule:evenodd;fill:url(#SVGID_9_);}
	.st58{fill-rule:evenodd;clip-rule:evenodd;fill:#7A5AC4;}
	.st59{fill-rule:evenodd;clip-rule:evenodd;fill:#7A5AA7;}
	.st60{fill-rule:evenodd;clip-rule:evenodd;fill:#5A2967;}
	.st61{fill-rule:evenodd;clip-rule:evenodd;fill:#C4D1ED;}
	.st62{opacity:0.5;fill-rule:evenodd;clip-rule:evenodd;fill:#6D4C90;}
	.st63{fill:#7A5AA7;}
	.st64{fill:#39175A;}
	.st65{fill-rule:evenodd;clip-rule:evenodd;fill:url(#SVGID_10_);}
	.st66{fill:#FFFFFF;}
	.st67{fill-rule:evenodd;clip-rule:evenodd;fill:url(#SVGID_11_);}
	.st68{fill-rule:evenodd;clip-rule:evenodd;fill:url(#SVGID_12_);}
	.st69{fill-rule:evenodd;clip-rule:evenodd;fill:url(#SVGID_13_);}
	.st70{fill-rule:evenodd;clip-rule:evenodd;fill:url(#SVGID_14_);}
	.st71{fill-rule:evenodd;clip-rule:evenodd;fill:url(#SVGID_15_);}
	.st72{fill-rule:evenodd;clip-rule:evenodd;fill:url(#SVGID_16_);}
	.st73{fill-rule:evenodd;clip-rule:evenodd;fill:url(#SVGID_17_);}
	.st74{fill-rule:evenodd;clip-rule:evenodd;fill:url(#SVGID_18_);}
	.st75{fill-rule:evenodd;clip-rule:evenodd;fill:url(#SVGID_19_);}
	.st76{opacity:0.4;fill-rule:evenodd;clip-rule:evenodd;fill:#864C90;}
	.st77{fill-rule:evenodd;clip-rule:evenodd;fill:url(#SVGID_20_);}
	.st78{fill-rule:evenodd;clip-rule:evenodd;fill:#FFFFFF;}
	.st79{fill-rule:evenodd;clip-rule:evenodd;fill:url(#SVGID_21_);}
	.st80{opacity:0.44;fill-rule:evenodd;clip-rule:evenodd;fill:#60003B;}
	.st81{fill-rule:evenodd;clip-rule:evenodd;fill:url(#SVGID_22_);}
	.st82{fill-rule:evenodd;clip-rule:evenodd;fill:url(#SVGID_23_);}
	.st83{fill-rule:evenodd;clip-rule:evenodd;fill:url(#SVGID_24_);}
	.st84{fill-rule:evenodd;clip-rule:evenodd;fill:url(#SVGID_25_);}
	.st85{fill-rule:evenodd;clip-rule:evenodd;fill:url(#SVGID_26_);}
	.st86{fill-rule:evenodd;clip-rule:evenodd;fill:url(#SVGID_27_);}
	.st87{fill-rule:evenodd;clip-rule:evenodd;fill:url(#SVGID_28_);}
	.st88{fill-rule:evenodd;clip-rule:evenodd;fill:url(#SVGID_29_);}
	.st89{fill-rule:evenodd;clip-rule:evenodd;fill:url(#SVGID_30_);}
	.st90{fill-rule:evenodd;clip-rule:evenodd;fill:url(#SVGID_31_);}
	.st91{fill-rule:evenodd;clip-rule:evenodd;fill:url(#SVGID_32_);}
	.st92{fill-rule:evenodd;clip-rule:evenodd;fill:url(#SVGID_33_);}
	.st93{fill-rule:evenodd;clip-rule:evenodd;fill:url(#SVGID_34_);}
	.st94{fill-rule:evenodd;clip-rule:evenodd;fill:url(#SVGID_35_);}
	.st95{fill-rule:evenodd;clip-rule:evenodd;fill:url(#SVGID_36_);}
	.st96{fill-rule:evenodd;clip-rule:evenodd;fill:url(#SVGID_37_);}
	.st97{fill-rule:evenodd;clip-rule:evenodd;fill:url(#SVGID_38_);}
	.st98{fill-rule:evenodd;clip-rule:evenodd;fill:url(#SVGID_39_);}
	.st99{fill-rule:evenodd;clip-rule:evenodd;fill:url(#SVGID_40_);}
	.st100{fill-rule:evenodd;clip-rule:evenodd;fill:url(#SVGID_41_);}
	.st101{fill-rule:evenodd;clip-rule:evenodd;fill:url(#SVGID_42_);}
	.st102{fill-rule:evenodd;clip-rule:evenodd;fill:url(#SVGID_43_);}
	.st103{fill-rule:evenodd;clip-rule:evenodd;fill:url(#SVGID_44_);}
	.st104{fill:#F2E225;}
	.st105{opacity:0.4;fill:url(#SVGID_45_);}
	.st106{fill:#814BA2;}
	.st107{fill:#925CB4;}
	.st108{fill:#B289C9;}
	.st109{fill:#A274BF;}
	.st110{opacity:0.4;fill:url(#SVGID_46_);}
	.st111{fill:#813034;}
	.st112{fill:#802F34;}
	.st113{fill:#AFD2EF;}
	.st114{fill:#E54C3C;}
	.st115{fill:#57607F;}
	.st116{fill:#BF3A2C;}
	.st117{fill:#BF3A2B;}
	.st118{fill:#8796C8;}
	.st119{fill:#C88D95;}
	.st120{fill:#8696C9;}
	.st121{fill:#56607F;}
	.st122{fill:#E3E4E6;}
	.st123{fill:#D8DADE;}
	.st124{opacity:0.4;fill:url(#SVGID_47_);}
	.st125{fill:#F2582F;}
	.st126{fill:#FF7043;}
	.st127{fill:#8E2611;}
	.st128{fill:#E53935;}
	.st129{fill:#F0534A;}
	.st130{fill:#D5D5D3;}
	.st131{opacity:0.4;fill:url(#SVGID_48_);}
	.st132{fill:#F8749D;}
	.st133{fill:#403063;}
	.st134{fill:#403365;}
	.st135{fill:#403264;}
	.st136{fill:#413265;}
	.st137{fill:#E4E5E6;}
	.st138{fill:#E2E2E4;}
	.st139{fill:#DEDEE2;}
	.st140{fill:#3D2E61;}
	.st141{fill:#FDF7F9;}
	.st142{fill:#FDD6E4;}
	.st143{opacity:0.4;fill:url(#SVGID_49_);}
	.st144{fill:#C20047;}
	.st145{fill:#FE405C;}
	.st146{fill:#B1D3EF;}
	.st147{fill:#E0F1FD;}
	.st148{opacity:0.4;fill:url(#SVGID_50_);}
	.st149{opacity:0.4;fill:url(#SVGID_51_);}
	.st150{opacity:0.4;fill:url(#SVGID_52_);}
	.st151{opacity:0.4;fill:url(#SVGID_53_);}
	.st152{opacity:0.4;fill:url(#SVGID_54_);}
	.st153{opacity:0.4;fill:url(#SVGID_55_);}
	.st154{opacity:0.4;fill:url(#SVGID_56_);}
	.st155{fill:#FF5F85;}
	.st156{fill:#FFE878;}
	.st157{fill:#B2527E;}
	.st158{fill:#004FAB;}
	.st159{fill:#57A3FE;}
	.st160{fill:#FEFEFE;}
	.st161{fill:#37A6CD;}
	.st162{fill:#E19A4B;}
	.st163{fill:#54BBE8;}
	.st164{fill:#FBB55F;}
	.st165{fill:#E29A4C;}
	.st166{fill:#E4E8E9;}
	.st167{fill:#D1D0D0;}
	.st168{fill:#E3E7E8;}
	.st169{fill:#566369;}
	.st170{fill:#E19A4C;}
	.st171{fill:#445155;}
	.st172{fill:#E4E7E7;}
	.st173{fill:#566368;}
	.st174{fill:#6E7A7E;}
	.st175{fill:#435054;}
	.st176{fill:#5E5461;}
	.st177{fill:#6F6571;}
	.st178{fill:#5D5360;}
	.st179{fill:#4B3F4E;}
	.st180{fill:#FCCE64;}
	.st181{fill:#FEDF7E;}
	.st182{fill:#857D86;}
	.st183{fill:#3E8FC8;}
	.st184{fill:#FCB630;}
	.st185{fill:#88B237;}
	.st186{fill:#E7594A;}
	.st187{fill:#4398D0;}
	.st188{fill:#D55245;}
	.st189{fill:#80A734;}
	.st190{fill:#FEA71A;}
	.st191{fill:#FAD390;}
	.st192{fill:#F2D45C;}
	.st193{fill:#FA7B76;}
	.st194{fill:#FE5364;}
	.st195{fill:#F8E3C1;}
	.st196{fill:#2D5871;}
	.st197{fill:#FDD8A7;}
	.st198{fill:#E0EEFA;}
	.st199{fill:#F3C792;}
	.st200{fill:#CBDEEC;}
	.st201{fill:#FE4D4C;}
	.st202{fill:#F23A3A;}
	.st203{fill:#1D4859;}
	.st204{fill:#FEB025;}
	.st205{fill:#FE901D;}
	.st206{fill:#1E495A;}
	.st207{fill:#2F5972;}
	.st208{fill:#F3C892;}
	.st209{opacity:0.4;fill:url(#SVGID_57_);}
	.st210{opacity:0.4;fill:url(#SVGID_58_);}
	.st211{fill:#949AA8;}
	.st212{fill:#B3B3B3;}
	.st213{fill:#575D72;}
	.st214{fill:#A3E0F4;}
	.st215{fill:#C2EAF8;}
	.st216{fill:#28304E;}
	.st217{fill:#EC5176;}
	.st218{fill:#FECC34;}
	.st219{fill:#FE76A3;}
	.st220{fill:#E69115;}
	.st221{fill:#FF0000;}
	.st222{fill:#F4AE00;}
	.st223{opacity:0.12;fill:#1B1E23;}
	.st224{fill:#E7E8FA;}
	.st225{fill:#57A845;}
	.st226{fill:none;stroke:#283847;stroke-width:1.2169;stroke-miterlimit:10;}
	.st227{opacity:0.5;fill:#283847;}
	.st228{fill:#6B98F6;}
	.st229{fill:#79AFFF;}
	.st230{clip-path:url(#XMLID_3_);fill:#79AFFF;}
	.st231{clip-path:url(#XMLID_3_);}
	.st232{fill:none;stroke:#212121;stroke-width:1.5836;stroke-linecap:round;stroke-linejoin:round;stroke-miterlimit:10;}
	.st233{fill:#17566C;}
	.st234{clip-path:url(#XMLID_6_);fill:#79AFFF;}
	.st235{clip-path:url(#XMLID_6_);fill:#2072A9;}
	.st236{clip-path:url(#XMLID_6_);fill:#2175B8;}
	.st237{opacity:0.02;clip-path:url(#XMLID_9_);}
	.st238{opacity:0.13;clip-path:url(#XMLID_9_);fill:#FFFFFF;}
	.st239{fill:none;stroke:#212121;stroke-width:0.5;stroke-linecap:round;stroke-linejoin:round;stroke-miterlimit:10;}
	.st240{fill:#212121;}
	.st241{opacity:0.02;clip-path:url(#XMLID_19_);}
	.st242{opacity:0.13;clip-path:url(#XMLID_19_);fill:#FFFFFF;}
	.st243{clip-path:url(#XMLID_20_);fill:#B0C7D8;}
	.st244{clip-path:url(#XMLID_21_);fill:#3A4149;}
	.st245{fill:#FBFFFF;}
	.st246{fill:#EEEEEE;}
	.st247{fill:#FF7B35;}
	.st248{fill:#509DFF;}
	.st249{fill:#B0C7D8;}
	.st250{opacity:0.3;fill:#FFFFFC;}
	.st251{clip-path:url(#XMLID_26_);fill:#FC6C2B;}
	.st252{fill:#B8D0E5;}
	.st253{fill:none;stroke:#000000;stroke-width:2.5763;stroke-miterlimit:10;}
	.st254{opacity:0.12;clip-path:url(#XMLID_27_);}
	.st255{clip-path:url(#XMLID_28_);fill:#217AAB;}
	.st256{opacity:0.2;}
	.st257{opacity:0.12;clip-path:url(#XMLID_29_);fill:#FFFFFF;}
	.st258{opacity:0.03;clip-path:url(#XMLID_42_);}
	.st259{opacity:0.03;clip-path:url(#XMLID_43_);fill:#010102;}
	.st260{opacity:0.04;clip-path:url(#XMLID_44_);}
	.st261{fill:#FDAF00;}
	.st262{fill:#FF7C00;}
	.st263{opacity:0.3;clip-path:url(#XMLID_45_);}
	.st264{opacity:0.3;}
	.st265{fill:none;stroke:#212121;stroke-width:0.9542;stroke-linecap:round;stroke-linejoin:round;stroke-miterlimit:10;}
	.st266{opacity:0.3;clip-path:url(#XMLID_47_);}
	.st267{fill:none;stroke:#212121;stroke-width:1.188;stroke-linecap:round;stroke-linejoin:round;stroke-miterlimit:10;}
	.st268{fill:#FF9D38;}
	.st269{fill:#C8DFFD;}
	.st270{fill:#A8CCFF;}
	.st271{fill:#D5E9FF;}
	.st272{fill:#B8D0FC;}
	.st273{fill:#0B3563;}
	.st274{fill:none;stroke:#BEDBF7;stroke-width:1.0668;stroke-miterlimit:10;}
	.st275{fill:#25468F;}
	.st276{fill:#E4EEF7;}
	.st277{fill:none;stroke:#3A65C9;stroke-width:1.0668;stroke-miterlimit:10;}
	.st278{fill:none;stroke:#3A65C9;stroke-width:1.001;stroke-miterlimit:10;}
	.st279{fill:#FF5521;}
	.st280{fill:#3A65C9;}
	.st281{fill:none;stroke:#FFCC40;stroke-width:2.1337;stroke-linecap:round;stroke-linejoin:round;stroke-miterlimit:10;}
	.st282{fill:#BEDBF7;}
	.st283{fill:none;stroke:#FFFFFF;stroke-width:1.2169;stroke-miterlimit:10;}
	.st284{fill:#10477B;}
	.st285{fill:#D44C10;}
	.st286{fill:#FF912B;}
	.st287{fill:#FC7600;}
	.st288{fill:#FFAE73;}
	.st289{fill:#FC9F38;}
	.st290{fill:#E65F00;}
	.st291{fill:#4681E1;}
	.st292{fill:#032444;}
	.st293{fill:#0D458E;}
	.st294{fill:#1E3865;}
	.st295{fill:#F48F4E;}
	.st296{fill:#254C82;}
	.st297{fill:#F9924F;}
	.st298{opacity:0.5;}
	.st299{fill:#499936;}
	.st300{fill:url(#SVGID_59_);}
	.st301{opacity:0.08;fill:#FFFFFF;}
	.st302{opacity:0.31;fill:#323197;}
	.st303{fill:#F5F5F7;}
	.st304{fill:#A1C2FF;}
	.st305{fill:#FF8D02;}
	.st306{opacity:0.08;}
	.st307{fill:none;stroke:#FFFFFF;stroke-width:2;stroke-linecap:round;stroke-linejoin:round;stroke-miterlimit:10;}
	.st308{opacity:0.44;fill:none;stroke:#FFFFFF;stroke-miterlimit:10;}
	.st309{opacity:0.4;fill:url(#SVGID_60_);}
	.st310{opacity:0.4;fill:url(#SVGID_61_);}
	.st311{fill:#010200;}
	.st312{opacity:0.4;fill:url(#SVGID_62_);}
	.st313{fill:#F74A2D;stroke:#000000;stroke-width:0.35;stroke-miterlimit:10;}
	.st314{clip-path:url(#SVGID_63_);fill:url(#SVGID_64_);}
	.st315{clip-path:url(#SVGID_63_);fill:url(#SVGID_65_);}
	.st316{clip-path:url(#SVGID_63_);fill:url(#SVGID_66_);}
	.st317{clip-path:url(#SVGID_63_);fill:url(#SVGID_67_);}
	.st318{fill:#393D43;}
	.st319{fill:#FDFDFB;}
	.st320{fill:#0086CE;}
	.st321{fill:#69B545;}
	.st322{fill:#D6347C;}
	.st323{fill:#F07F32;}
	.st324{fill:#6F519D;}
	.st325{fill-rule:evenodd;clip-rule:evenodd;fill:#51555B;}
	.st326{fill-rule:evenodd;clip-rule:evenodd;fill:#393D43;}
	.st327{fill:#003A70;}
	.st328{fill:url(#SVGID_68_);}
	.st329{fill:#003399;}
	.st330{fill-rule:evenodd;clip-rule:evenodd;fill:#003399;}
	.st331{fill:#A1A1A1;}
	.st332{fill-rule:evenodd;clip-rule:evenodd;fill:#006677;}
	.st333{fill-rule:evenodd;clip-rule:evenodd;fill:#E45300;}
	.st334{fill-rule:evenodd;clip-rule:evenodd;fill:#2156A6;}
	.st335{fill:#2156A6;}
	.st336{fill:#FB6E3B;}
	.st337{fill:#00C9BD;}
	.st338{fill-rule:evenodd;clip-rule:evenodd;fill:#00ACD8;}
	.st339{fill-rule:evenodd;clip-rule:evenodd;}
	.st340{fill-rule:evenodd;clip-rule:evenodd;fill:#0056A6;}
	.st341{fill-rule:evenodd;clip-rule:evenodd;fill:#F48120;}
	.st342{fill-rule:evenodd;clip-rule:evenodd;fill:#2E3191;}
	.st343{fill:#FBDA00;}
	.st344{fill:#1F1A17;}
	.st345{fill:#007CC2;}
	.st346{fill:#DA251C;}
	.st347{fill-rule:evenodd;clip-rule:evenodd;fill:#F0F0F0;}
	.st348{fill-rule:evenodd;clip-rule:evenodd;fill:#FECF22;}
	.st349{fill-rule:evenodd;clip-rule:evenodd;fill:#006AB4;}
	.st350{fill-rule:evenodd;clip-rule:evenodd;fill:#D61627;}
	.st351{fill-rule:evenodd;clip-rule:evenodd;fill:#E6E6E6;}
	.st352{fill:#007BC2;}
	.st353{fill:#231F20;}
	.st354{fill:#EC1C25;}
	.st355{fill:#243E92;}
	.st356{fill:#E22228;}
	.st357{fill:#FAD701;}
	.st358{fill-rule:evenodd;clip-rule:evenodd;fill:#E61F20;}
	.st359{fill-rule:evenodd;clip-rule:evenodd;fill:#004B97;}
	.st360{fill-rule:evenodd;clip-rule:evenodd;fill:#E50013;}
	.st361{fill-rule:evenodd;clip-rule:evenodd;fill:url(#SVGID_71_);}
	.st362{fill-rule:evenodd;clip-rule:evenodd;fill:url(#SVGID_72_);}
	.st363{fill-rule:evenodd;clip-rule:evenodd;fill:#412A8B;}
</style>
<path class="st66" d="M54.71,30.89H5.53C2.48,30.89,0,28.42,0,25.36V5.53C0,2.48,2.48,0,5.53,0h49.18c3.05,0,5.53,2.48,5.53,5.53
	v19.83C60.24,28.42,57.77,30.89,54.71,30.89z"/>
<g>
	<path class="st343" d="M29.93,6.91c0.6,0,1.01,0.01,1.42,0.04c0.52,0.03,1.04,0.09,1.56,0.17c1.29,0.2,2.55,0.53,3.77,1.02
		c0.94,0.38,1.82,0.85,2.65,1.44c0.7,0.5,1.33,1.06,1.88,1.73c0.52,0.63,0.93,1.32,1.22,2.08c0.16,0.44,0.27,0.89,0.33,1.35
		c0.05,0.41,0.06,0.82,0.02,1.24c-0.09,1.03-0.45,1.96-0.99,2.83c-0.42,0.66-0.93,1.24-1.51,1.77c-0.74,0.66-1.56,1.21-2.44,1.66
		c-0.94,0.48-1.92,0.85-2.93,1.13c-0.61,0.17-1.22,0.3-1.84,0.4c-0.33,0.05-0.67,0.1-1,0.13c-0.74,0.08-1.47,0.11-2.22,0.1
		c-0.41-0.01-0.82-0.03-1.23-0.06c-0.36-0.03-0.72-0.07-1.08-0.12c-0.61-0.09-1.21-0.2-1.8-0.35c-0.91-0.23-1.8-0.53-2.65-0.91
		c-0.88-0.4-1.71-0.87-2.47-1.46c-0.68-0.52-1.29-1.11-1.8-1.8c-0.47-0.63-0.84-1.31-1.07-2.05c-0.14-0.43-0.22-0.87-0.26-1.32
		c-0.08-1.02,0.1-1.98,0.51-2.91c0.33-0.76,0.8-1.43,1.35-2.04c0.65-0.71,1.41-1.31,2.23-1.82c0.99-0.61,2.05-1.08,3.16-1.43
		c0.71-0.22,1.43-0.4,2.16-0.53c0.45-0.08,0.9-0.14,1.35-0.19C28.86,6.94,29.49,6.91,29.93,6.91z M40.12,19.43
		c0.01-0.01,0.02-0.01,0.02-0.02c0.46-0.51,0.84-1.06,1.13-1.68c0.41-0.88,0.58-1.8,0.49-2.77c-0.04-0.42-0.13-0.84-0.27-1.24
		c-0.19-0.55-0.47-1.07-0.81-1.54c-0.17-0.24-0.36-0.48-0.56-0.69c-0.01-0.01-0.01-0.02-0.02-0.02c-0.14-0.15-0.28-0.29-0.42-0.43
		c-0.39-0.37-0.82-0.7-1.27-1c-0.84-0.56-1.74-1-2.69-1.34c-0.62-0.22-1.25-0.41-1.89-0.55c-0.51-0.11-1.02-0.2-1.54-0.26
		c-0.27-0.03-0.54-0.06-0.82-0.08c-0.25-0.02-0.51-0.04-0.76-0.04c-0.43-0.01-0.86-0.01-1.28,0.01c-0.22,0.01-0.45,0.02-0.67,0.04
		c-0.27,0.02-0.54,0.05-0.82,0.08c-0.38,0.05-0.76,0.11-1.14,0.18c-0.63,0.12-1.24,0.28-1.85,0.48c-0.88,0.29-1.72,0.65-2.52,1.11
		c-0.77,0.45-1.48,0.97-2.11,1.61c-0.07,0.07-0.14,0.14-0.2,0.22c-0.02,0.02-0.04,0.04-0.05,0.05c-0.27,0.3-0.51,0.62-0.73,0.96
		c-0.43,0.68-0.72,1.41-0.83,2.21c-0.06,0.44-0.07,0.87-0.02,1.31c0.06,0.55,0.2,1.07,0.42,1.58c0.24,0.55,0.56,1.05,0.94,1.52
		c0.09,0.11,0.18,0.22,0.28,0.32c0.01,0.01,0.01,0.02,0.02,0.03c0.23,0.25,0.47,0.48,0.72,0.7c0.63,0.54,1.33,1,2.07,1.38
		c0.75,0.39,1.53,0.7,2.34,0.94c1.06,0.32,2.14,0.52,3.25,0.62c0.49,0.05,0.98,0.07,1.48,0.07c0.44,0,0.89-0.01,1.33-0.04
		c0.33-0.02,0.65-0.05,0.98-0.09c0.38-0.05,0.76-0.11,1.14-0.18c0.53-0.1,1.05-0.23,1.57-0.39c0.92-0.28,1.8-0.65,2.64-1.11
		c0.77-0.43,1.48-0.94,2.12-1.56C39.9,19.68,40.02,19.56,40.12,19.43z"/>
	<path class="st344" d="M20.13,19.43c-0.1-0.1-0.19-0.21-0.28-0.32c-0.38-0.47-0.7-0.97-0.94-1.52c-0.22-0.5-0.36-1.03-0.42-1.58
		c-0.05-0.44-0.04-0.88,0.02-1.31c0.12-0.8,0.41-1.53,0.83-2.21c0.21-0.34,0.46-0.66,0.73-0.96c0.02-0.02,0.03-0.04,0.05-0.05
		c0.03,0,0.07,0,0.1,0c6.57,0,13.13,0,19.7,0c0.06,0,0.13,0,0.19,0c0.2,0.22,0.39,0.45,0.56,0.69c0.34,0.48,0.61,0.99,0.81,1.54
		c0.14,0.4,0.23,0.81,0.27,1.24c0.09,0.97-0.08,1.89-0.49,2.77c-0.29,0.62-0.68,1.18-1.13,1.68c-0.01,0.01-0.02,0.01-0.02,0.02
		c-0.04,0-0.08,0-0.13,0c-6.59,0-13.19,0-19.78,0C20.19,19.43,20.16,19.43,20.13,19.43z M19.74,17.8c0.02,0.01,0.03,0.01,0.05,0.01
		c0.57,0,1.13,0,1.7,0c0.05,0,0.05,0,0.07-0.05c0.11-0.31,0.22-0.62,0.34-0.94c0.02-0.06,0.01-0.06,0.08-0.06c0.57,0,1.13,0,1.7,0
		c0.06,0,0.06-0.01,0.08,0.06c0.11,0.31,0.22,0.62,0.34,0.94c0.02,0.06,0.01,0.06,0.08,0.06c0.56,0,1.13,0,1.69,0
		c0.02,0,0.04,0.01,0.05-0.01c0-0.02-0.01-0.04-0.02-0.06c-0.65-1.52-1.29-3.05-1.94-4.57c-0.03-0.07-0.01-0.06-0.09-0.06
		c-0.7,0-1.39,0-2.09,0c-0.05,0-0.07,0.01-0.09,0.06c-0.64,1.52-1.29,3.04-1.93,4.56C19.75,17.75,19.74,17.77,19.74,17.8z
		 M37.77,17.84c0.22,0,0.44-0.01,0.66-0.03c0.37-0.05,0.71-0.15,1.04-0.33c0.37-0.21,0.65-0.5,0.84-0.89
		c0.12-0.25,0.19-0.51,0.21-0.79c0.02-0.3,0.02-0.6-0.03-0.89c-0.09-0.53-0.35-0.97-0.78-1.3c-0.28-0.21-0.6-0.35-0.94-0.43
		c-0.22-0.05-0.45-0.08-0.68-0.09c-0.35-0.01-0.71-0.02-1.06,0.04c-0.34,0.05-0.66,0.15-0.96,0.32c-0.46,0.26-0.78,0.64-0.95,1.15
		c-0.07,0.21-0.1,0.42-0.11,0.64c-0.01,0.3-0.01,0.6,0.06,0.89c0.11,0.49,0.36,0.88,0.76,1.19c0.35,0.27,0.75,0.41,1.18,0.48
		C37.25,17.83,37.51,17.83,37.77,17.84z M26.29,15.46c0,0.76,0,1.52,0,2.27c0,0.08-0.01,0.07,0.07,0.07c1.41,0,2.82,0,4.23,0
		c0.02,0,0.03,0,0.05,0c0.02,0,0.03-0.01,0.03-0.03c0-0.01,0-0.03,0-0.04c0-0.34,0-0.67,0-1.01c0-0.08,0.01-0.08-0.08-0.08
		c-0.73,0-1.46,0-2.19,0c-0.09,0-0.08,0.01-0.08-0.08c0-1.13,0-2.25,0-3.38c0-0.02,0-0.03,0-0.05c0-0.02-0.01-0.03-0.02-0.03
		c-0.01,0-0.03,0-0.04,0c-0.64,0-1.27,0-1.91,0c-0.08,0-0.07-0.01-0.07,0.07C26.29,13.94,26.29,14.7,26.29,15.46z M32.33,13.11
		c-0.79,0-1.58,0-2.38,0c-0.01,0-0.03,0-0.04,0c-0.03,0-0.04,0.01-0.04,0.04c0,0.36,0,0.72,0,1.08c0,0.03,0.01,0.05,0.04,0.04
		c0.01,0,0.03,0,0.04,0c0.5,0,0.99,0,1.49,0c0.07,0,0.06-0.01,0.06,0.06c0,0.01,0,0.02,0,0.03c0,1.12,0,2.24,0,3.35
		c0,0.09,0,0.09,0.09,0.09c0.49,0,0.97,0,1.46,0c0.03,0,0.08,0.01,0.1-0.01c0.02-0.02,0.01-0.07,0.01-0.1c0-1.12,0-2.24,0-3.35
		c0-0.08-0.01-0.07,0.07-0.07c0.01,0,0.02,0,0.03,0c0.49,0,0.97,0,1.46,0c0.02,0,0.03,0,0.05,0c0.02,0,0.03-0.01,0.03-0.03
		c0-0.01,0-0.02,0-0.03c0-0.35,0-0.69,0-1.04c0-0.06,0.01-0.06-0.06-0.06c-0.01,0-0.03,0-0.04,0
		C33.91,13.11,33.12,13.11,32.33,13.11z"/>
	<path class="st345" d="M20.13,19.43c0.03,0,0.05,0,0.08,0c6.59,0,13.19,0,19.78,0c0.04,0,0.08,0,0.13,0
		c-0.11,0.13-0.23,0.25-0.35,0.36c-0.64,0.62-1.35,1.12-2.12,1.56c-0.84,0.47-1.72,0.83-2.64,1.11c-0.52,0.16-1.04,0.29-1.57,0.39
		c-0.38,0.07-0.76,0.13-1.14,0.18c-0.33,0.04-0.65,0.07-0.98,0.09c-0.44,0.03-0.88,0.04-1.33,0.04c-0.49,0-0.99-0.03-1.48-0.07
		c-1.1-0.1-2.19-0.3-3.25-0.62c-0.81-0.24-1.59-0.55-2.34-0.94c-0.74-0.38-1.44-0.84-2.07-1.38c-0.25-0.22-0.49-0.45-0.72-0.7
		C20.15,19.46,20.14,19.44,20.13,19.43z"/>
	<path class="st346" d="M40.12,11.48c-0.06,0-0.13,0-0.19,0c-6.57,0-13.13,0-19.7,0c-0.03,0-0.07,0-0.1,0
		c0.06-0.08,0.13-0.15,0.2-0.22c0.63-0.64,1.34-1.16,2.11-1.61c0.8-0.46,1.64-0.83,2.52-1.11c0.61-0.2,1.22-0.36,1.85-0.48
		c0.38-0.07,0.76-0.13,1.14-0.18c0.27-0.03,0.54-0.06,0.82-0.08c0.22-0.02,0.45-0.03,0.67-0.04c0.43-0.02,0.86-0.02,1.28-0.01
		c0.25,0.01,0.51,0.02,0.76,0.04c0.27,0.02,0.54,0.05,0.82,0.08c0.52,0.06,1.03,0.15,1.54,0.26c0.64,0.14,1.27,0.32,1.89,0.55
		c0.95,0.34,1.85,0.78,2.69,1.34c0.45,0.3,0.87,0.63,1.27,1c0.15,0.14,0.29,0.28,0.42,0.43C40.11,11.47,40.12,11.48,40.12,11.48z"/>
	<path class="st160" d="M19.74,17.8c0-0.03,0.01-0.05,0.02-0.07c0.65-1.52,1.29-3.04,1.93-4.56c0.02-0.04,0.04-0.06,0.09-0.06
		c0.7,0,1.39,0,2.09,0c0.08,0,0.06-0.01,0.09,0.06c0.65,1.52,1.29,3.05,1.94,4.57c0.01,0.02,0.02,0.04,0.02,0.06
		c-0.02,0.01-0.04,0.01-0.05,0.01c-0.56,0-1.13,0-1.69,0c-0.07,0-0.06,0-0.08-0.06c-0.11-0.31-0.22-0.62-0.34-0.94
		c-0.02-0.06-0.02-0.06-0.08-0.06c-0.57,0-1.13,0-1.7,0c-0.07,0-0.06,0-0.08,0.06c-0.11,0.31-0.22,0.62-0.34,0.94
		c-0.02,0.05-0.02,0.05-0.07,0.05c-0.57,0-1.13,0-1.7,0C19.77,17.8,19.75,17.81,19.74,17.8z M23.34,15.66
		c-0.17-0.48-0.34-0.95-0.51-1.43c-0.17,0.48-0.34,0.95-0.51,1.43C22.66,15.66,22.99,15.66,23.34,15.66z"/>
	<path class="st160" d="M37.77,17.84c-0.26,0-0.51-0.01-0.76-0.05c-0.43-0.07-0.83-0.21-1.18-0.48c-0.4-0.3-0.65-0.7-0.76-1.19
		c-0.07-0.29-0.07-0.59-0.06-0.89c0.01-0.22,0.04-0.43,0.11-0.64c0.17-0.51,0.49-0.89,0.95-1.15c0.3-0.17,0.62-0.27,0.96-0.32
		c0.35-0.05,0.7-0.05,1.06-0.04c0.23,0.01,0.46,0.03,0.68,0.09c0.34,0.08,0.66,0.22,0.94,0.43c0.43,0.33,0.69,0.77,0.78,1.3
		c0.05,0.3,0.05,0.59,0.03,0.89c-0.02,0.28-0.09,0.54-0.21,0.79c-0.19,0.38-0.47,0.68-0.84,0.89c-0.32,0.18-0.67,0.29-1.04,0.33
		C38.21,17.83,37.98,17.83,37.77,17.84z M36.49,15.43c0.01,0.37,0.11,0.66,0.32,0.92c0.4,0.48,1.08,0.6,1.6,0.26
		c0.36-0.23,0.56-0.57,0.61-1c0.05-0.41-0.07-0.78-0.35-1.09c-0.42-0.46-1.1-0.54-1.61-0.18C36.68,14.62,36.5,15,36.49,15.43z"/>
	<path class="st160" d="M26.29,15.46c0-0.76,0-1.52,0-2.27c0-0.08-0.01-0.07,0.07-0.07c0.64,0,1.27,0,1.91,0c0.01,0,0.03,0,0.04,0
		c0.02,0,0.03,0.01,0.02,0.03c0,0.02,0,0.03,0,0.05c0,1.13,0,2.25,0,3.38c0,0.08-0.01,0.08,0.08,0.08c0.73,0,1.46,0,2.19,0
		c0.09,0,0.08-0.01,0.08,0.08c0,0.34,0,0.67,0,1.01c0,0.01,0,0.03,0,0.04c0,0.02-0.01,0.03-0.03,0.03c-0.02,0-0.03,0-0.05,0
		c-1.41,0-2.82,0-4.23,0c-0.09,0-0.07,0.01-0.07-0.07C26.29,16.97,26.29,16.22,26.29,15.46z"/>
	<path class="st160" d="M32.33,13.11c0.79,0,1.58,0,2.36,0c0.01,0,0.03,0,0.04,0c0.07,0,0.06,0,0.06,0.06c0,0.35,0,0.69,0,1.04
		c0,0.01,0,0.02,0,0.03c0,0.02-0.01,0.03-0.03,0.03c-0.02,0-0.03,0-0.05,0c-0.49,0-0.97,0-1.46,0c-0.01,0-0.02,0-0.03,0
		c-0.08,0-0.07-0.01-0.07,0.07c0,1.12,0,2.24,0,3.35c0,0.03,0.02,0.08-0.01,0.1c-0.02,0.02-0.06,0.01-0.1,0.01
		c-0.49,0-0.97,0-1.46,0c-0.09,0-0.09,0-0.09-0.09c0-1.12,0-2.24,0-3.35c0-0.01,0-0.02,0-0.03c0-0.07,0.01-0.06-0.06-0.06
		c-0.5,0-0.99,0-1.49,0c-0.01,0-0.03,0-0.04,0c-0.03,0-0.04-0.01-0.04-0.04c0-0.36,0-0.72,0-1.08c0-0.03,0.01-0.05,0.04-0.04
		c0.01,0,0.03,0,0.04,0C30.75,13.11,31.54,13.11,32.33,13.11z"/>
	<path class="st344" d="M23.34,15.66c-0.35,0-0.68,0-1.03,0c0.17-0.48,0.34-0.95,0.51-1.43C23,14.72,23.17,15.19,23.34,15.66z"/>
	<path class="st344" d="M36.49,15.43c0.01-0.43,0.19-0.81,0.57-1.08c0.51-0.36,1.18-0.28,1.61,0.18c0.28,0.31,0.4,0.68,0.35,1.09
		c-0.05,0.42-0.25,0.76-0.61,1c-0.52,0.33-1.2,0.22-1.6-0.26C36.6,16.09,36.5,15.79,36.49,15.43z"/>
</g>
</svg>
