<?xml version="1.0" encoding="utf-8"?>
<!-- Generator: Adobe Illustrator 24.0.0, SVG Export Plug-In . SVG Version: 6.00 Build 0)  -->
<svg version="1.1" id="Layer_1" xmlns="http://www.w3.org/2000/svg" xmlns:xlink="http://www.w3.org/1999/xlink" x="0px" y="0px"
	 viewBox="0 0 123.72 101.37" style="enable-background:new 0 0 123.72 101.37;" xml:space="preserve">
<style type="text/css">
	.st0{fill:#6C727C;}
	.st1{fill:#FC5E31;}
	.st2{fill:#8CC63F;}
	.st3{fill:#F3F4F5;}
	.st4{fill:#F74A2D;}
	.st5{fill:#153663;}
	.st6{fill:#153765;}
	.st7{fill:#153867;}
	.st8{fill:#153969;}
	.st9{fill:#15396B;}
	.st10{fill:#153A6D;}
	.st11{fill:#153B6F;}
	.st12{fill:#153C71;}
	.st13{fill:#143D73;}
	.st14{fill:#143E75;}
	.st15{fill:#143E77;}
	.st16{fill:#143F79;}
	.st17{fill:#14407B;}
	.st18{fill:#14417D;}
	.st19{fill:#14427F;}
	.st20{fill:#144381;}
	.st21{fill:#144383;}
	.st22{fill:#144485;}
	.st23{fill:#144587;}
	.st24{fill:#144689;}
	.st25{fill:#14478B;}
	.st26{fill:#14488D;}
	.st27{fill:#14488F;}
	.st28{fill:#144991;}
	.st29{fill:#134A93;}
	.st30{fill:#134B95;}
	.st31{fill:#134C97;}
	.st32{fill:#134D99;}
	.st33{fill:#134D9B;}
	.st34{fill:#134E9D;}
	.st35{fill:#134F9F;}
	.st36{fill:#1350A1;}
	.st37{fill-rule:evenodd;clip-rule:evenodd;fill:#F1E7ED;}
	.st38{fill-rule:evenodd;clip-rule:evenodd;fill:#A893D0;}
	.st39{opacity:0.5;fill-rule:evenodd;clip-rule:evenodd;fill:#5D2C84;}
	.st40{fill-rule:evenodd;clip-rule:evenodd;fill:#CABDE2;}
	.st41{fill-rule:evenodd;clip-rule:evenodd;fill:#704E8D;}
	.st42{fill-rule:evenodd;clip-rule:evenodd;fill:#FBF9FB;}
	.st43{opacity:0.83;fill-rule:evenodd;clip-rule:evenodd;fill:url(#SVGID_2_);}
	.st44{opacity:0.83;fill-rule:evenodd;clip-rule:evenodd;fill:url(#SVGID_3_);}
	.st45{fill:#8D6B96;}
	.st46{opacity:0.2;fill-rule:evenodd;clip-rule:evenodd;fill:#864C90;}
	.st47{fill-rule:evenodd;clip-rule:evenodd;fill:#CECBEA;}
	.st48{fill-rule:evenodd;clip-rule:evenodd;fill:#39175A;}
	.st49{fill-rule:evenodd;clip-rule:evenodd;fill:#F83D45;}
	.st50{fill-rule:evenodd;clip-rule:evenodd;fill:#B32742;}
	.st51{fill-rule:evenodd;clip-rule:evenodd;fill:#A28BCC;}
	.st52{opacity:0.5;fill-rule:evenodd;clip-rule:evenodd;fill:#864C90;}
	.st53{fill-rule:evenodd;clip-rule:evenodd;fill:url(#SVGID_4_);}
	.st54{fill-rule:evenodd;clip-rule:evenodd;fill:url(#SVGID_6_);}
	.st55{fill:#B32742;}
	.st56{fill-rule:evenodd;clip-rule:evenodd;fill:url(#SVGID_8_);}
	.st57{fill-rule:evenodd;clip-rule:evenodd;fill:url(#SVGID_9_);}
	.st58{fill-rule:evenodd;clip-rule:evenodd;fill:#7A5AC4;}
	.st59{fill-rule:evenodd;clip-rule:evenodd;fill:#7A5AA7;}
	.st60{fill-rule:evenodd;clip-rule:evenodd;fill:#5A2967;}
	.st61{fill-rule:evenodd;clip-rule:evenodd;fill:#C4D1ED;}
	.st62{opacity:0.5;fill-rule:evenodd;clip-rule:evenodd;fill:#6D4C90;}
	.st63{fill:#7A5AA7;}
	.st64{fill:#39175A;}
	.st65{fill-rule:evenodd;clip-rule:evenodd;fill:url(#SVGID_10_);}
	.st66{fill:#FFFFFF;}
	.st67{fill-rule:evenodd;clip-rule:evenodd;fill:url(#SVGID_11_);}
	.st68{fill-rule:evenodd;clip-rule:evenodd;fill:url(#SVGID_12_);}
	.st69{fill-rule:evenodd;clip-rule:evenodd;fill:url(#SVGID_13_);}
	.st70{fill-rule:evenodd;clip-rule:evenodd;fill:url(#SVGID_14_);}
	.st71{fill-rule:evenodd;clip-rule:evenodd;fill:url(#SVGID_15_);}
	.st72{fill-rule:evenodd;clip-rule:evenodd;fill:url(#SVGID_16_);}
	.st73{fill-rule:evenodd;clip-rule:evenodd;fill:url(#SVGID_17_);}
	.st74{fill-rule:evenodd;clip-rule:evenodd;fill:url(#SVGID_18_);}
	.st75{fill-rule:evenodd;clip-rule:evenodd;fill:url(#SVGID_19_);}
	.st76{opacity:0.4;fill-rule:evenodd;clip-rule:evenodd;fill:#864C90;}
	.st77{fill-rule:evenodd;clip-rule:evenodd;fill:url(#SVGID_20_);}
	.st78{fill-rule:evenodd;clip-rule:evenodd;fill:#FFFFFF;}
	.st79{fill-rule:evenodd;clip-rule:evenodd;fill:url(#SVGID_21_);}
	.st80{opacity:0.44;fill-rule:evenodd;clip-rule:evenodd;fill:#60003B;}
	.st81{fill-rule:evenodd;clip-rule:evenodd;fill:url(#SVGID_22_);}
	.st82{fill-rule:evenodd;clip-rule:evenodd;fill:url(#SVGID_23_);}
	.st83{fill-rule:evenodd;clip-rule:evenodd;fill:url(#SVGID_24_);}
	.st84{fill-rule:evenodd;clip-rule:evenodd;fill:url(#SVGID_25_);}
	.st85{fill-rule:evenodd;clip-rule:evenodd;fill:url(#SVGID_26_);}
	.st86{fill-rule:evenodd;clip-rule:evenodd;fill:url(#SVGID_27_);}
	.st87{fill-rule:evenodd;clip-rule:evenodd;fill:url(#SVGID_28_);}
	.st88{fill-rule:evenodd;clip-rule:evenodd;fill:url(#SVGID_29_);}
	.st89{fill-rule:evenodd;clip-rule:evenodd;fill:url(#SVGID_30_);}
	.st90{fill-rule:evenodd;clip-rule:evenodd;fill:url(#SVGID_31_);}
	.st91{fill-rule:evenodd;clip-rule:evenodd;fill:url(#SVGID_32_);}
	.st92{fill-rule:evenodd;clip-rule:evenodd;fill:url(#SVGID_33_);}
	.st93{fill-rule:evenodd;clip-rule:evenodd;fill:url(#SVGID_34_);}
	.st94{fill-rule:evenodd;clip-rule:evenodd;fill:url(#SVGID_35_);}
	.st95{fill-rule:evenodd;clip-rule:evenodd;fill:url(#SVGID_36_);}
	.st96{fill-rule:evenodd;clip-rule:evenodd;fill:url(#SVGID_37_);}
	.st97{fill-rule:evenodd;clip-rule:evenodd;fill:url(#SVGID_38_);}
	.st98{fill-rule:evenodd;clip-rule:evenodd;fill:url(#SVGID_39_);}
	.st99{fill-rule:evenodd;clip-rule:evenodd;fill:url(#SVGID_40_);}
	.st100{fill-rule:evenodd;clip-rule:evenodd;fill:url(#SVGID_41_);}
	.st101{fill-rule:evenodd;clip-rule:evenodd;fill:url(#SVGID_42_);}
	.st102{fill-rule:evenodd;clip-rule:evenodd;fill:url(#SVGID_43_);}
	.st103{fill-rule:evenodd;clip-rule:evenodd;fill:url(#SVGID_44_);}
	.st104{fill:#F2E225;}
	.st105{opacity:0.4;fill:url(#SVGID_45_);}
	.st106{fill:#814BA2;}
	.st107{fill:#925CB4;}
	.st108{fill:#B289C9;}
	.st109{fill:#A274BF;}
	.st110{opacity:0.4;fill:url(#SVGID_46_);}
	.st111{fill:#813034;}
	.st112{fill:#802F34;}
	.st113{fill:#AFD2EF;}
	.st114{fill:#E54C3C;}
	.st115{fill:#57607F;}
	.st116{fill:#BF3A2C;}
	.st117{fill:#BF3A2B;}
	.st118{fill:#8796C8;}
	.st119{fill:#C88D95;}
	.st120{fill:#8696C9;}
	.st121{fill:#56607F;}
	.st122{fill:#E3E4E6;}
	.st123{fill:#D8DADE;}
	.st124{opacity:0.4;fill:url(#SVGID_47_);}
	.st125{fill:#F2582F;}
	.st126{fill:#FF7043;}
	.st127{fill:#8E2611;}
	.st128{fill:#E53935;}
	.st129{fill:#F0534A;}
	.st130{fill:#D5D5D3;}
	.st131{opacity:0.4;fill:url(#SVGID_48_);}
	.st132{fill:#F8749D;}
	.st133{fill:#403063;}
	.st134{fill:#403365;}
	.st135{fill:#403264;}
	.st136{fill:#413265;}
	.st137{fill:#E4E5E6;}
	.st138{fill:#E2E2E4;}
	.st139{fill:#DEDEE2;}
	.st140{fill:#3D2E61;}
	.st141{fill:#FDF7F9;}
	.st142{fill:#FDD6E4;}
	.st143{opacity:0.4;fill:url(#SVGID_49_);}
	.st144{fill:#C20047;}
	.st145{fill:#FE405C;}
	.st146{fill:#B1D3EF;}
	.st147{fill:#E0F1FD;}
	.st148{opacity:0.4;fill:url(#SVGID_50_);}
	.st149{opacity:0.4;fill:url(#SVGID_51_);}
	.st150{opacity:0.4;fill:url(#SVGID_52_);}
	.st151{opacity:0.4;fill:url(#SVGID_53_);}
	.st152{opacity:0.4;fill:url(#SVGID_54_);}
	.st153{opacity:0.4;fill:url(#SVGID_55_);}
	.st154{opacity:0.4;fill:url(#SVGID_56_);}
	.st155{fill:#FF5F85;}
	.st156{fill:#FFE878;}
	.st157{fill:#B2527E;}
	.st158{fill:#004FAB;}
	.st159{fill:#57A3FE;}
	.st160{fill:#FEFEFE;}
	.st161{fill:#37A6CD;}
	.st162{fill:#E19A4B;}
	.st163{fill:#54BBE8;}
	.st164{fill:#FBB55F;}
	.st165{fill:#E29A4C;}
	.st166{fill:#E4E8E9;}
	.st167{fill:#D1D0D0;}
	.st168{fill:#E3E7E8;}
	.st169{fill:#566369;}
	.st170{fill:#E19A4C;}
	.st171{fill:#445155;}
	.st172{fill:#E4E7E7;}
	.st173{fill:#566368;}
	.st174{fill:#6E7A7E;}
	.st175{fill:#435054;}
	.st176{fill:#5E5461;}
	.st177{fill:#6F6571;}
	.st178{fill:#5D5360;}
	.st179{fill:#4B3F4E;}
	.st180{fill:#FCCE64;}
	.st181{fill:#FEDF7E;}
	.st182{fill:#857D86;}
	.st183{fill:#3E8FC8;}
	.st184{fill:#FCB630;}
	.st185{fill:#88B237;}
	.st186{fill:#E7594A;}
	.st187{fill:#4398D0;}
	.st188{fill:#D55245;}
	.st189{fill:#80A734;}
	.st190{fill:#FEA71A;}
	.st191{fill:#FAD390;}
	.st192{fill:#F2D45C;}
	.st193{fill:#FA7B76;}
	.st194{fill:#FE5364;}
	.st195{fill:#F8E3C1;}
	.st196{fill:#2D5871;}
	.st197{fill:#FDD8A7;}
	.st198{fill:#E0EEFA;}
	.st199{fill:#F3C792;}
	.st200{fill:#CBDEEC;}
	.st201{fill:#FE4D4C;}
	.st202{fill:#F23A3A;}
	.st203{fill:#1D4859;}
	.st204{fill:#FEB025;}
	.st205{fill:#FE901D;}
	.st206{fill:#1E495A;}
	.st207{fill:#2F5972;}
	.st208{fill:#F3C892;}
	.st209{opacity:0.4;fill:url(#SVGID_57_);}
	.st210{opacity:0.4;fill:url(#SVGID_58_);}
	.st211{fill:#949AA8;}
	.st212{fill:#B3B3B3;}
	.st213{fill:#575D72;}
	.st214{fill:#A3E0F4;}
	.st215{fill:#C2EAF8;}
	.st216{fill:#28304E;}
	.st217{fill:#EC5176;}
	.st218{fill:#FECC34;}
	.st219{fill:#FE76A3;}
	.st220{fill:#E69115;}
	.st221{fill:#FF0000;}
	.st222{fill:#F4AE00;}
	.st223{opacity:0.12;fill:#1B1E23;}
	.st224{fill:#E7E8FA;}
	.st225{fill:#57A845;}
	.st226{fill:none;stroke:#283847;stroke-width:1.2169;stroke-miterlimit:10;}
	.st227{opacity:0.5;fill:#283847;}
	.st228{fill:#6B98F6;}
	.st229{fill:#79AFFF;}
	.st230{clip-path:url(#XMLID_3_);fill:#79AFFF;}
	.st231{clip-path:url(#XMLID_3_);}
	.st232{fill:none;stroke:#212121;stroke-width:1.5836;stroke-linecap:round;stroke-linejoin:round;stroke-miterlimit:10;}
	.st233{fill:#17566C;}
	.st234{clip-path:url(#XMLID_6_);fill:#79AFFF;}
	.st235{clip-path:url(#XMLID_6_);fill:#2072A9;}
	.st236{clip-path:url(#XMLID_6_);fill:#2175B8;}
	.st237{opacity:0.02;clip-path:url(#XMLID_9_);}
	.st238{opacity:0.13;clip-path:url(#XMLID_9_);fill:#FFFFFF;}
	.st239{fill:none;stroke:#212121;stroke-width:0.5;stroke-linecap:round;stroke-linejoin:round;stroke-miterlimit:10;}
	.st240{fill:#212121;}
	.st241{opacity:0.02;clip-path:url(#XMLID_19_);}
	.st242{opacity:0.13;clip-path:url(#XMLID_19_);fill:#FFFFFF;}
	.st243{clip-path:url(#XMLID_20_);fill:#B0C7D8;}
	.st244{clip-path:url(#XMLID_21_);fill:#3A4149;}
	.st245{fill:#FBFFFF;}
	.st246{fill:#EEEEEE;}
	.st247{fill:#FF7B35;}
	.st248{fill:#509DFF;}
	.st249{fill:#B0C7D8;}
	.st250{opacity:0.3;fill:#FFFFFC;}
	.st251{clip-path:url(#XMLID_26_);fill:#FC6C2B;}
	.st252{fill:#B8D0E5;}
	.st253{fill:none;stroke:#000000;stroke-width:2.5763;stroke-miterlimit:10;}
	.st254{opacity:0.12;clip-path:url(#XMLID_27_);}
	.st255{clip-path:url(#XMLID_28_);fill:#217AAB;}
	.st256{opacity:0.2;}
	.st257{opacity:0.12;clip-path:url(#XMLID_29_);fill:#FFFFFF;}
	.st258{opacity:0.03;clip-path:url(#XMLID_42_);}
	.st259{opacity:0.03;clip-path:url(#XMLID_43_);fill:#010102;}
	.st260{opacity:0.04;clip-path:url(#XMLID_44_);}
	.st261{fill:#FDAF00;}
	.st262{fill:#FF7C00;}
	.st263{opacity:0.3;clip-path:url(#XMLID_45_);}
	.st264{opacity:0.3;}
	.st265{fill:none;stroke:#212121;stroke-width:0.9542;stroke-linecap:round;stroke-linejoin:round;stroke-miterlimit:10;}
	.st266{opacity:0.3;clip-path:url(#XMLID_47_);}
	.st267{fill:none;stroke:#212121;stroke-width:1.188;stroke-linecap:round;stroke-linejoin:round;stroke-miterlimit:10;}
	.st268{fill:#FF9D38;}
	.st269{fill:#C8DFFD;}
	.st270{fill:#A8CCFF;}
	.st271{fill:#D5E9FF;}
	.st272{fill:#B8D0FC;}
	.st273{fill:#0B3563;}
	.st274{fill:none;stroke:#BEDBF7;stroke-width:1.0668;stroke-miterlimit:10;}
	.st275{fill:#25468F;}
	.st276{fill:#E4EEF7;}
	.st277{fill:none;stroke:#3A65C9;stroke-width:1.0668;stroke-miterlimit:10;}
	.st278{fill:none;stroke:#3A65C9;stroke-width:1.001;stroke-miterlimit:10;}
	.st279{fill:#FF5521;}
	.st280{fill:#3A65C9;}
	.st281{fill:none;stroke:#FFCC40;stroke-width:2.1337;stroke-linecap:round;stroke-linejoin:round;stroke-miterlimit:10;}
	.st282{fill:#BEDBF7;}
	.st283{fill:none;stroke:#FFFFFF;stroke-width:1.2169;stroke-miterlimit:10;}
	.st284{fill:#10477B;}
	.st285{fill:#D44C10;}
	.st286{fill:#FF912B;}
	.st287{fill:#FC7600;}
	.st288{fill:#FFAE73;}
	.st289{fill:#FC9F38;}
	.st290{fill:#E65F00;}
	.st291{fill:#4681E1;}
	.st292{fill:#032444;}
	.st293{fill:#0D458E;}
	.st294{fill:#1E3865;}
	.st295{fill:#F48F4E;}
	.st296{fill:#254C82;}
	.st297{fill:#F9924F;}
	.st298{opacity:0.5;}
	.st299{fill:#499936;}
	.st300{fill:url(#SVGID_59_);}
	.st301{opacity:0.08;fill:#FFFFFF;}
	.st302{opacity:0.31;fill:#323197;}
	.st303{fill:#F5F5F7;}
	.st304{fill:#A1C2FF;}
	.st305{font-family:'Montserrat-SemiBold';}
	.st306{font-size:2.6532px;}
	.st307{fill:#93A5C9;}
	.st308{fill:#FF8D02;}
	.st309{opacity:0.08;}
	.st310{fill:none;stroke:#FFFFFF;stroke-width:2;stroke-linecap:round;stroke-linejoin:round;stroke-miterlimit:10;}
	.st311{font-family:'Montserrat-Medium';}
	.st312{font-size:3.1472px;}
	.st313{opacity:0.44;fill:none;stroke:#FFFFFF;stroke-miterlimit:10;}
	.st314{opacity:0.4;fill:url(#SVGID_60_);}
	.st315{opacity:0.4;fill:url(#SVGID_61_);}
	.st316{fill:#010200;}
	.st317{opacity:0.4;fill:url(#SVGID_62_);}
	.st318{fill:#F74A2D;stroke:#000000;stroke-width:0.35;stroke-miterlimit:10;}
	.st319{clip-path:url(#SVGID_63_);fill:url(#SVGID_64_);}
	.st320{clip-path:url(#SVGID_63_);fill:url(#SVGID_65_);}
	.st321{clip-path:url(#SVGID_63_);fill:url(#SVGID_66_);}
	.st322{clip-path:url(#SVGID_63_);fill:url(#SVGID_67_);}
	.st323{fill:#393D43;}
	.st324{fill:#FDFDFB;}
	.st325{fill:#0086CE;}
	.st326{fill:#69B545;}
	.st327{fill:#D6347C;}
	.st328{fill:#F07F32;}
	.st329{fill:#6F519D;}
	.st330{fill-rule:evenodd;clip-rule:evenodd;fill:#51555B;}
	.st331{fill-rule:evenodd;clip-rule:evenodd;fill:#393D43;}
	.st332{fill:#003A70;}
	.st333{fill:url(#SVGID_68_);}
	.st334{fill:#003399;}
	.st335{fill-rule:evenodd;clip-rule:evenodd;fill:#003399;}
	.st336{fill:#A1A1A1;}
	.st337{fill-rule:evenodd;clip-rule:evenodd;fill:#006677;}
	.st338{fill-rule:evenodd;clip-rule:evenodd;fill:#E45300;}
	.st339{fill-rule:evenodd;clip-rule:evenodd;fill:#2156A6;}
	.st340{fill:#2156A6;}
	.st341{fill:#FB6E3B;}
	.st342{fill:#00C9BD;}
	.st343{fill-rule:evenodd;clip-rule:evenodd;fill:#00ACD8;}
	.st344{fill-rule:evenodd;clip-rule:evenodd;}
	.st345{fill-rule:evenodd;clip-rule:evenodd;fill:#0056A6;}
	.st346{fill-rule:evenodd;clip-rule:evenodd;fill:#F48120;}
	.st347{fill-rule:evenodd;clip-rule:evenodd;fill:#2E3191;}
	.st348{fill:#FBDA00;}
	.st349{fill:#1F1A17;}
	.st350{fill:#007CC2;}
	.st351{fill:#DA251C;}
	.st352{fill-rule:evenodd;clip-rule:evenodd;fill:#F0F0F0;}
	.st353{fill-rule:evenodd;clip-rule:evenodd;fill:#FECF22;}
	.st354{fill-rule:evenodd;clip-rule:evenodd;fill:#006AB4;}
	.st355{fill-rule:evenodd;clip-rule:evenodd;fill:#D61627;}
	.st356{fill-rule:evenodd;clip-rule:evenodd;fill:#E6E6E6;}
	.st357{fill:#007BC2;}
	.st358{fill:#231F20;}
	.st359{fill:#EC1C25;}
	.st360{fill:#243E92;}
	.st361{fill:#E22228;}
	.st362{fill:#FAD701;}
	.st363{fill-rule:evenodd;clip-rule:evenodd;fill:#E61F20;}
	.st364{fill-rule:evenodd;clip-rule:evenodd;fill:#004B97;}
	.st365{fill-rule:evenodd;clip-rule:evenodd;fill:#E50013;}
	.st366{fill-rule:evenodd;clip-rule:evenodd;fill:url(#SVGID_71_);}
	.st367{fill-rule:evenodd;clip-rule:evenodd;fill:url(#SVGID_72_);}
	.st368{fill-rule:evenodd;clip-rule:evenodd;fill:#412A8B;}
</style>
<g>
	<g>
		<path class="st224" d="M123.54,80.84c-0.01-0.1-0.01-0.19-0.02-0.29c-3.72-34.57-34.2-30.48-55.76-58.37
			C46.2-5.7,26.49,6.94,26.49,6.94C3.44,23.67,19.43,43,19.06,52.29c-0.37,9.29-12.27,20.82-7.06,40.52
			c0.01,0.03,0.02,0.07,0.03,0.1c1.28,4.82,5.58,8.21,10.53,8.43h44.09v0.01h37.39C115.21,101.37,124.13,92,123.54,80.84z"/>
		<path class="st299" d="M50.59,88.13c-1.07-0.59-1.21,2.9-3.85,4.81s-4.89,0.56-5.32-0.17c-0.42-0.72,6.28-2.95,5.83-7.66
			c-0.45-4.71-5.53-9.86-6.33-9.76c-0.79,0.1-0.09,7.94-1.21,9.32c-1.13,1.39-2.03,1.31-2.62-0.53c-0.59-1.84,2.6-8.2,1.15-10.26
			c-1.45-2.06-4.95-3.89-6.07-3.73c-1.12,0.17,1.89,4.47,2.39,8.43c0.5,3.96-0.36,6.64-1.72,5.98c-1.35-0.66-0.69-9.67-2.27-12.38
			c-1.59-2.71-6.5-3.23-7.22-2.81c-0.72,0.43,5.53,10.47,5.11,12.66c-0.42,2.19-1.91,0.88-2.18-1.64c-0.26-2.52-2.7-8.98-4.53-9.6
			c-1.82-0.63-5.86,0.15-5.75,0.95c0.1,0.79,3.31,2.55,4.98,4.36c1.67,1.81,2.62,4.05,0.39,4.38c-2.23,0.34-3.81-6.5-4.92-7.56
			c-0.51-0.49-1.75-0.51-3.02-0.35c-1.49,0.19-3,0.65-3.41,0.96c-0.76,0.57-3.12,9.59-2.16,11.22c2.12,1.63,8.04,2.25,10.32,1.87
			c0.32-0.05,0.57-0.12,0.72-0.21c1.27-0.74,3.88-0.21,2.18,1.64c-0.36,0.29-0.92,0.46-1.61,0.54c-3.43,0.4-10.03-1.41-10.42-1.39
			c-0.46,0.03-0.63,1.83,0.58,3.67c1.2,1.84,8.17,1.52,10.37,0.72c0.41-0.15,0.95-0.3,1.51-0.42c2.43-0.51,5.51-0.46,3.03,2.37
			c-0.12,0.13-0.23,0.25-0.37,0.36c-3.36,2.95-11.89,0.77-12.63,1.91c-0.77,1.18,1.75,3.83,2.72,4.84c0.34,0.36,0.9,0.58,1.58,0.67
			h1.42c0.92-0.1,1.92-0.37,2.85-0.83c1.67-0.8,4.91-3.83,6.79-4.34c0.69-0.19,1.19-0.04,1.37,0.66c0.03,0.11,0.03,0.21,0.03,0.32
			c-0.15,1.42-3.62,2.95-6.74,4.19h7.99c0.86-0.63,1.56-0.93,1.99-0.6c0.03,0.2,0.02,0.4,0,0.6H44.3c-1.21-3.03-3.38-4.98-4.63-5.9
			c7.37,4.72,10.76,1.58,11.82-0.2C52.58,93.4,51.66,88.72,50.59,88.13z M30.75,91.53c1.96,0.35,0.2,2.25,0.2,2.25
			C28.81,93.54,28.8,91.18,30.75,91.53z M37.03,99.47c-1.31,1.39-3.25-0.22-4.56-2.45c-1.31-2.23,2.02-2.31,4-0.85
			C38.45,97.63,37.03,99.47,37.03,99.47z"/>
		<path class="st225" d="M50.59,88.13c-1.07-0.59-1.21,2.9-3.85,4.81s-4.89,0.56-5.32-0.17c-0.42-0.72,6.28-2.95,5.83-7.66
			c-0.45-4.71-5.53-9.86-6.33-9.76c-0.79,0.1-0.09,7.94-1.21,9.32c-1.13,1.39-2.03,1.31-2.62-0.53c-0.59-1.84,2.6-8.2,1.15-10.26
			c-1.45-2.06-4.95-3.89-6.07-3.73c-1.12,0.17,1.89,4.47,2.39,8.43c0.5,3.96-0.36,6.64-1.72,5.98c-1.35-0.66-0.69-9.67-2.27-12.38
			c-1.59-2.71-6.5-3.23-7.22-2.81c-0.72,0.43,5.53,10.47,5.11,12.66c-0.42,2.19-1.91,0.88-2.18-1.64c-0.26-2.52-2.7-8.98-4.53-9.6
			c-1.82-0.63-5.86,0.15-5.75,0.95c0.1,0.79,3.31,2.55,4.98,4.36c1.67,1.81,2.62,4.05,0.39,4.38c-2.23,0.34-3.81-6.5-4.92-7.56
			c-0.51-0.49-1.75-0.51-3.02-0.35c0.52,5.11,2.19,9.88,4.75,14.05c0.32-0.05,0.57-0.12,0.72-0.21c1.27-0.74,3.88-0.21,2.18,1.64
			c-0.36,0.29-0.92,0.46-1.61,0.54c0.64,0.89,1.32,1.76,2.04,2.58c2.43-0.51,5.51-0.46,3.03,2.37c-0.12,0.13-0.23,0.25-0.37,0.36
			c0.87,0.8,1.78,1.55,2.73,2.25c0.46,0.34,0.92,0.66,1.4,0.98c2.72,1.81,5.71,3.23,8.91,4.19h7.09c-1.21-3.03-3.38-4.98-4.63-5.9
			c7.37,4.72,10.76,1.58,11.82-0.2C52.58,93.4,51.66,88.72,50.59,88.13z M30.95,93.78c-2.14-0.24-2.16-2.61-0.2-2.25
			C32.71,91.88,30.95,93.78,30.95,93.78z M37.03,99.47c-1.31,1.39-3.25-0.22-4.56-2.45c-1.31-2.23,2.02-2.31,4-0.85
			C38.45,97.63,37.03,99.47,37.03,99.47z"/>
		<path class="st225" d="M89.17,96.87c-1.51,0.42-5.93-2.12-7.01-2.15c-1.12,0.61-1.24,3.52-1.46,4.45
			c-0.21,0.93,9.61-0.63,8.91,0.52c-0.7,1.15-7.1,0.11-7.68,0.31c-0.3,0.1-0.34,0.69-0.13,1.31h11.33c0.81-0.7,1.38-1.42,1.73-1.92
			c-0.41,0.69-0.73,1.33-0.98,1.92h2.39c0.16-0.36,0.38-0.62,0.55-0.73c0.15-0.09,0.39,0.23,0.75,0.73h10.64
			c0.69-0.69,1.1-1.27,1.07-1.47c-0.09-0.56-5.68,0.11-6.7-0.66c-1.02-0.78-0.98-1.42,0.32-1.88c1.3-0.46,5.92,1.68,7.37,0.6
			c1.44-1.08,2.68-3.63,2.54-4.42c-0.14-0.79-3.16,1.45-5.98,1.89c-2.82,0.44-4.76-0.11-4.32-1.1c0.44-0.99,6.91-0.7,8.81-1.9
			c1.91-1.2,2.17-4.72,1.85-5.23c-0.32-0.51-7.38,4.18-8.95,3.93c-1.57-0.25-0.67-1.35,1.13-1.59c1.8-0.24,6.36-2.13,6.77-3.45
			c0.41-1.32-0.24-4.19-0.8-4.1c-0.56,0.09-1.75,2.43-3.01,3.66c-1.26,1.23-2.84,1.96-3.13,0.37c-0.29-1.59,4.57-2.87,5.3-3.68
			c0.73-0.81-0.16-4.06-0.58-4.59c-0.42-0.53-6.93-2.02-8.08-1.31c-1.28,1.77-1.51,7.05-0.95,7.94c0.56,0.89,0.23,2.77-1.13,1.59
			c-1.29-1.49,0.38-8.29,0.34-8.62c-0.03-0.33-1.32-0.41-2.61,0.49c-1.29,0.9-0.91,5.88-0.29,7.44c0.62,1.56,1.26,5.4-1.3,3.29
			c-2.56-2.11-1.05-8.72-1.91-9.25c-0.86-0.52-2.7,1.34-3.41,2.05c-0.71,0.71-0.59,2.58,0.24,4.19c0.83,1.6,4.68,5.21,2.81,5.76
			c-1.87,0.55-4.38-7.96-5.08-8.23c-0.7-0.27-2.37,0.87-3.06,2.89c-0.66,1.92,6.35,6.46,5.4,7.76c-2.82,0.44-5.02-5.61-6.16-5.87
			c-1.14-0.26-2.17,1.9-2.71,3.29c-0.54,1.4,0.17,2.11,2.15,3.43C86.15,95.85,90.26,95.92,89.17,96.87z M97.47,92.91
			c-0.21,1.41-1.61,0.19-1.61,0.19C95.99,91.57,97.69,91.51,97.47,92.91z M93.58,94.26c1.57-0.98,1.69,1.4,0.69,2.84
			c-1,1.45-2.35,0.47-2.35,0.47C90.91,96.67,92.02,95.24,93.58,94.26z"/>
		<g>
			<g>
				<path class="st4" d="M84.24,0H44.83c-3.69,0-6.69,3-6.69,6.69v87.98c0,3.56,2.79,6.47,6.29,6.68h22.21v0.01h17.6
					c3.69,0,6.69-3,6.69-6.69V6.69C90.93,3,87.93,0,84.24,0z"/>
				<path class="st247" d="M84.24,1.49h-6.41l-1.17,2.06c-0.61,1.08-1.76,1.76-3.01,1.76h-4.9h-8.45h-4.9
					c-1.25,0-2.4-0.67-3.01-1.76l-1.17-2.06h-6.41c-2.87,0-5.2,2.33-5.2,5.2v87.98c0,2.87,2.33,5.2,5.2,5.2h39.41
					c2.87,0,5.2-2.33,5.2-5.2V6.69C89.44,3.82,87.11,1.49,84.24,1.49z"/>
				<path class="st224" d="M70.74,3.35H58.47c-0.27,0-0.5-0.22-0.5-0.5l0,0c0-0.27,0.22-0.5,0.5-0.5h12.27c0.27,0,0.5,0.22,0.5,0.5
					l0,0C71.24,3.12,71.01,3.35,70.74,3.35z"/>
				<g>
					<path class="st66" d="M53.08,61.77H34.25c-0.96,0-1.73-0.78-1.73-1.73v-1.73c0-0.96,0.78-1.73,1.73-1.73h18.84
						c0.96,0,1.73,0.78,1.73,1.73v1.73C54.82,61,54.04,61.77,53.08,61.77z"/>
					<path class="st66" d="M52.87,82.59h-18.4c-1.08,0-1.95-0.87-1.95-1.95v-14.5c0-1.08,0.87-1.95,1.95-1.95h18.4
						c1.08,0,1.95,0.87,1.95,1.95v14.5C54.82,81.72,53.94,82.59,52.87,82.59z"/>
					<path class="st4" d="M46.96,59.82H35.25c-0.28,0-0.51-0.23-0.51-0.51l0,0c0-0.28,0.23-0.51,0.51-0.51h11.71
						c0.28,0,0.51,0.23,0.51,0.51l0,0C47.47,59.59,47.25,59.82,46.96,59.82z"/>
					<path class="st4" d="M46.96,69.12H35.25c-0.28,0-0.51-0.23-0.51-0.51l0,0c0-0.28,0.23-0.51,0.51-0.51h11.71
						c0.28,0,0.51,0.23,0.51,0.51l0,0C47.47,68.89,47.25,69.12,46.96,69.12z"/>
					<path class="st4" d="M46.96,74.23H35.25c-0.28,0-0.51-0.23-0.51-0.51l0,0c0-0.28,0.23-0.51,0.51-0.51h11.71
						c0.28,0,0.51,0.23,0.51,0.51l0,0C47.47,74,47.25,74.23,46.96,74.23z"/>
					<path class="st4" d="M46.96,79.34H35.25c-0.28,0-0.51-0.23-0.51-0.51l0,0c0-0.28,0.23-0.51,0.51-0.51h11.71
						c0.28,0,0.51,0.23,0.51,0.51l0,0C47.47,79.11,47.25,79.34,46.96,79.34z"/>
					<path class="st4" d="M51.84,71.63H35.25c-0.28,0-0.51-0.23-0.51-0.51l0,0c0-0.28,0.23-0.51,0.51-0.51h16.59
						c0.28,0,0.51,0.23,0.51,0.51l0,0C52.35,71.4,52.13,71.63,51.84,71.63z"/>
					<path class="st4" d="M52.35,59.82h-3.07c-0.28,0-0.51-0.23-0.51-0.51l0,0c0-0.28,0.23-0.51,0.51-0.51h3.07
						c0.28,0,0.51,0.23,0.51,0.51l0,0C52.87,59.59,52.64,59.82,52.35,59.82z"/>
					<linearGradient id="SVGID_2_" gradientUnits="userSpaceOnUse" x1="48.6829" y1="77.8507" x2="53.3919" y2="77.8507">
						<stop  offset="0" style="stop-color:#FF8D02"/>
						<stop  offset="1" style="stop-color:#FFC757"/>
					</linearGradient>
					<path style="fill:url(#SVGID_2_);" d="M50.96,79.44l-1.21,0.64c-0.11,0.06-0.25-0.04-0.23-0.16l0.23-1.35
						c0.01-0.05-0.01-0.1-0.04-0.14l-0.98-0.96c-0.09-0.09-0.04-0.25,0.09-0.27l1.36-0.2c0.05-0.01,0.09-0.04,0.12-0.09l0.61-1.23
						c0.06-0.12,0.22-0.12,0.28,0l0.61,1.23c0.02,0.05,0.07,0.08,0.12,0.09l1.36,0.2c0.13,0.02,0.18,0.18,0.09,0.27l-0.98,0.96
						c-0.04,0.04-0.05,0.09-0.04,0.14l0.23,1.35c0.02,0.13-0.11,0.22-0.23,0.16l-1.21-0.64C51.06,79.42,51.01,79.42,50.96,79.44z"/>
				</g>
				<path class="st301" d="M81.89,73.73H63.55c-1.92,0-3.47-1.55-3.47-3.47V15.99c0-1.92,1.55-3.47,3.47-3.47h18.34
					c1.92,0,3.47,1.55,3.47,3.47v54.28C85.36,72.18,83.81,73.73,81.89,73.73z"/>
				<g>
					<path class="st302" d="M90.93,22.43H70.12c-1.3,0-2.35,1.05-2.35,2.35v30.36c0,1.3,1.05,2.35,2.35,2.35h20.81V22.43z"/>
					<path class="st303" d="M97.45,55.21H72.17c-1.3,0-2.35-1.05-2.35-2.35V22.49c0-1.3,1.05-2.35,2.35-2.35h25.28
						c1.3,0,2.35,1.05,2.35,2.35v30.36C99.8,54.15,98.75,55.21,97.45,55.21z"/>
					<path class="st304" d="M84.56,26.46v-6.32H72.17c-1.3,0-2.35,1.05-2.35,2.35v3.97H84.56z"/>
					<text transform="matrix(1 0 0 1 74.7045 24.6277)" class="st66 st305 st306">APR</text>
					<text transform="matrix(1 0 0 1 88.3354 24.6277)" class="st307 st305 st306">MAY</text>
					<g>
						<path class="st304" d="M76.47,34.64h-3.25c-0.38,0-0.7-0.31-0.7-0.7v-3.25c0-0.38,0.31-0.7,0.7-0.7h3.25
							c0.38,0,0.7,0.31,0.7,0.7v3.25C77.17,34.32,76.86,34.64,76.47,34.64z"/>
						<path class="st304" d="M83.07,34.64h-3.25c-0.38,0-0.7-0.31-0.7-0.7v-3.25c0-0.38,0.31-0.7,0.7-0.7h3.25
							c0.38,0,0.7,0.31,0.7,0.7v3.25C83.77,34.32,83.46,34.64,83.07,34.64z"/>
						<path class="st304" d="M89.67,34.64h-3.25c-0.38,0-0.7-0.31-0.7-0.7v-3.25c0-0.38,0.31-0.7,0.7-0.7h3.25
							c0.38,0,0.7,0.31,0.7,0.7v3.25C90.37,34.32,90.05,34.64,89.67,34.64z"/>
						<path class="st304" d="M96.27,34.64h-3.25c-0.38,0-0.7-0.31-0.7-0.7v-3.25c0-0.38,0.31-0.7,0.7-0.7h3.25
							c0.38,0,0.7,0.31,0.7,0.7v3.25C96.97,34.32,96.65,34.64,96.27,34.64z"/>
					</g>
					<g>
						<path class="st304" d="M76.47,41.89h-3.25c-0.38,0-0.7-0.31-0.7-0.7v-3.25c0-0.38,0.31-0.7,0.7-0.7h3.25
							c0.38,0,0.7,0.31,0.7,0.7v3.25C77.17,41.57,76.86,41.89,76.47,41.89z"/>
						<path class="st304" d="M83.07,41.89h-3.25c-0.38,0-0.7-0.31-0.7-0.7v-3.25c0-0.38,0.31-0.7,0.7-0.7h3.25
							c0.38,0,0.7,0.31,0.7,0.7v3.25C83.77,41.57,83.46,41.89,83.07,41.89z"/>
						<path class="st308" d="M89.67,41.89h-3.25c-0.38,0-0.7-0.31-0.7-0.7v-3.25c0-0.38,0.31-0.7,0.7-0.7h3.25
							c0.38,0,0.7,0.31,0.7,0.7v3.25C90.37,41.57,90.05,41.89,89.67,41.89z"/>
						<path class="st304" d="M96.27,41.89h-3.25c-0.38,0-0.7-0.31-0.7-0.7v-3.25c0-0.38,0.31-0.7,0.7-0.7h3.25
							c0.38,0,0.7,0.31,0.7,0.7v3.25C96.97,41.57,96.65,41.89,96.27,41.89z"/>
					</g>
					<g>
						<path class="st304" d="M76.47,49.13h-3.25c-0.38,0-0.7-0.31-0.7-0.7v-3.25c0-0.38,0.31-0.7,0.7-0.7h3.25
							c0.38,0,0.7,0.31,0.7,0.7v3.25C77.17,48.82,76.86,49.13,76.47,49.13z"/>
						<path class="st304" d="M83.07,49.13h-3.25c-0.38,0-0.7-0.31-0.7-0.7v-3.25c0-0.38,0.31-0.7,0.7-0.7h3.25
							c0.38,0,0.7,0.31,0.7,0.7v3.25C83.77,48.82,83.46,49.13,83.07,49.13z"/>
						<path class="st304" d="M89.67,49.13h-3.25c-0.38,0-0.7-0.31-0.7-0.7v-3.25c0-0.38,0.31-0.7,0.7-0.7h3.25
							c0.38,0,0.7,0.31,0.7,0.7v3.25C90.37,48.82,90.05,49.13,89.67,49.13z"/>
						<path class="st304" d="M96.27,49.13h-3.25c-0.38,0-0.7-0.31-0.7-0.7v-3.25c0-0.38,0.31-0.7,0.7-0.7h3.25
							c0.38,0,0.7,0.31,0.7,0.7v3.25C96.97,48.82,96.65,49.13,96.27,49.13z"/>
					</g>
				</g>
				<g class="st309">
					<path class="st66" d="M56.21,16.61H43.57c-0.56,0-1.02-0.46-1.02-1.02v-1.67c0-0.56,0.46-1.02,1.02-1.02h12.64
						c0.56,0,1.02,0.46,1.02,1.02v1.67C57.23,16.15,56.78,16.61,56.21,16.61z"/>
					<path class="st66" d="M56.21,22.18H43.57c-0.56,0-1.02-0.46-1.02-1.02v-1.67c0-0.56,0.46-1.02,1.02-1.02h12.64
						c0.56,0,1.02,0.46,1.02,1.02v1.67C57.23,21.72,56.78,22.18,56.21,22.18z"/>
				</g>
				<path class="st302" d="M43.85,20.82c-2,0-3.93,0.35-5.71,0.99v31.98c1.78,0.64,3.71,0.99,5.71,0.99
					c9.38,0,16.98-7.6,16.98-16.98S53.23,20.82,43.85,20.82z"/>
				<g>
					<circle class="st304" cx="43.85" cy="37.8" r="15.86"/>
					<g>
						<g>
							<path class="st66" d="M58.16,37.8c0,5.39-2.98,10.09-7.39,12.53c-0.41,0.23-0.84,0.43-1.28,0.62
								c-1.73,0.75-3.64,1.16-5.65,1.16c-0.29,0-0.59-0.01-0.88-0.03c-0.23-0.01-0.45-0.03-0.68-0.06
								c-2.29-0.25-4.41-1.04-6.25-2.23c-0.19-0.12-0.37-0.25-0.55-0.37c-3.61-2.6-5.95-6.84-5.95-11.62
								c0-7.91,6.41-14.31,14.31-14.31S58.16,29.89,58.16,37.8z"/>
							<g>
								<g id="man_1_">
									<g>
										<path class="st294" d="M49.5,50.95c-1.73,0.75-3.64,1.16-5.65,1.16c-0.29,0-0.59-0.01-0.88-0.03
											c-0.23-0.01-0.45-0.03-0.68-0.06l0.45-0.88l2.77-5.45l0.39-0.76c0,0,0.15,0.27,0.43,0.74
											C46.94,46.71,48.14,48.75,49.5,50.95z"/>
									</g>
									<g>
										<path class="st288" d="M47.42,45.46c-3.35,1.06-9.15-1.8-9.15-1.8s3.09-2.32,2.93-7.14l2.59,2.09l1.76,1.42
											c0,0-0.01,0.84-0.2,2.3c0,0,0,0.01,0,0.01c-0.1,0.73,0.2,1.46,0.79,1.91C46.96,44.87,47.42,45.46,47.42,45.46z"/>
									</g>
									<g>
										<path class="st297" d="M45.55,40.03c0,0-0.01,0.84-0.2,2.3c-1.95-0.33-4.16-3.49-4.16-3.49c0.99-0.29,1.86-0.34,2.6-0.23
											L45.55,40.03z"/>
									</g>
									<g>
										<path class="st288" d="M46.57,39.95c0,0-5.53,0.92-6.05-2.54c-0.52-3.45-1.58-5.66,1.93-6.4c3.51-0.73,4.4,0.48,4.85,1.59
											C47.75,33.72,48,39.62,46.57,39.95z"/>
									</g>
									<g>
										<path class="st275" d="M50.78,50.33c-0.41,0.23-0.84,0.43-1.28,0.62c-1.73,0.75-3.64,1.16-5.65,1.16
											c-0.29,0-0.59-0.01-0.88-0.03c-0.23-0.01-0.45-0.03-0.68-0.06c-2.29-0.25-4.41-1.04-6.25-2.23
											c0.14-0.75,0.3-1.46,0.49-2.13c0.45-1.61,1.03-2.98,1.75-4h0c0-0.01,0.01-0.01,0.01-0.02v0c0.35-0.49,0.72-0.9,1.14-1.22
											l0,0c0.03-0.03,0.05-0.04,0.08-0.06c0.23-0.17,1.67,0.54,3,1.19c1.22,0.6,2.16,0.66,3.32,0.43h0L47.28,45
											C48.61,46.23,50.05,47.88,50.78,50.33z"/>
									</g>
									<g>
										<path class="st275" d="M40.52,37.08c0,0,0.57-0.09,0.48-0.88c-0.09-0.78-0.09-1.8,0.55-1.61c0.64,0.19,0.67,0.7,0.93,0.4
											c0.26-0.3,0.27-1.55,2.16-1.64c1.89-0.09,2.66,0.57,3.54,0.18c0.88-0.39,0.93-1.72,0.93-1.72s-0.25,0.48-0.63,0.63
											c0,0,1.47-2.01-0.23-3.38c-1.7-1.38-3.43-0.48-4.42-0.42c-2.17,0.13-3.57,0.26-4.27,1.69
											C38.83,31.76,39.12,35.71,40.52,37.08z"/>
									</g>
									<g>
										<path class="st275" d="M43.07,51.96c0,0-0.03,0.04-0.1,0.12c-0.23-0.01-0.45-0.03-0.68-0.06
											c-2.29-0.25-4.41-1.04-6.25-2.23c-0.19-0.12-0.37-0.25-0.55-0.37c0.36-0.6,0.7-1.19,1.04-1.75
											c0.92-1.56,1.72-2.9,2.24-3.77c0.4-0.68,0.64-1.08,0.64-1.08l0.64,1.61l2.68,6.72L43.07,51.96z"/>
									</g>
								</g>
							</g>
						</g>
						<g>
							<circle class="st4" cx="55.87" cy="30.11" r="4.09"/>
							<polyline class="st310" points="54.26,30.17 55.56,31.48 58.02,29.01 							"/>
						</g>
					</g>
				</g>
				<path class="st302" d="M87.3,61.29c-2,0-3.93,0.35-5.71,0.99v31.98c1.78,0.64,3.71,0.99,5.71,0.99c9.38,0,16.98-7.6,16.98-16.98
					S96.67,61.29,87.3,61.29z"/>
				<circle class="st304" cx="87.3" cy="78.26" r="15.86"/>
				<g>
					<g>
						<path class="st66" d="M101.61,78.26c0,3.71-1.41,7.08-3.71,9.62c-0.1,0.11-0.2,0.22-0.31,0.32c-1.03,1.07-2.23,1.99-3.56,2.69
							c-2.01,1.07-4.3,1.68-6.73,1.68c-0.98,0-1.94-0.1-2.87-0.29c-0.45-0.09-0.89-0.2-1.33-0.34c-1.23-0.37-2.39-0.91-3.45-1.59
							c-4-2.53-6.66-7.01-6.66-12.1c0-7.91,6.41-14.31,14.31-14.31S101.61,70.36,101.61,78.26z"/>
						<g>
							<g>
								<g>
									<path class="st228" d="M84.43,92.29c-0.45-0.09-0.89-0.2-1.33-0.34c-1.23-0.37-2.39-0.91-3.45-1.59
										c0.05-0.18,0.1-0.35,0.15-0.5c0.86-2.54,4.42-3.68,4.42-3.68L84.43,92.29z"/>
								</g>
								<g>
									<path class="st228" d="M97.59,88.2c-1.03,1.07-2.23,1.99-3.56,2.69c-2.01,1.07-4.3,1.68-6.73,1.68
										c-0.98,0-1.94-0.1-2.87-0.29c-0.45-0.09-0.89-0.2-1.33-0.34c0.33-1.92,0.69-3.87,1.12-5.76c0,0,0.55-0.17,1.44-0.36
										c1.2-0.27,3.02-0.58,5.01-0.57c1.44,0,2.97,0.17,4.39,0.64c0.04,0,0.08,0.01,0.12,0.03c0.17,0.07,0.35,0.14,0.52,0.23
										c0.06,0.03,0.12,0.06,0.19,0.09C96.64,86.68,97.19,87.35,97.59,88.2z"/>
								</g>
								<g>
									<path class="st294" d="M82.07,73.72c0,0,4.15-6.76,7.37-3.28c0,0,2.1,0.54,3.31,3.81c1.23,3.34-0.68,6.29-1.96,5.81
										c-0.82-0.31-1.2,1.11-1.2,1.11L82.07,73.72z"/>
								</g>
								<g>
									<path class="st294" d="M88.8,69.9c0,0,0.29-2.8,4.37-2.53c0,0-1.93,0.03-2.35,0.84c0,0,1.41-0.91,2.43-0.47
										c1.03,0.44,1.46,2.36,1.4,2.97c-0.06,0.61-0.84,2.52-1.53,2.62c-0.69,0.1-1.59-0.39-1.59-0.39L88.8,69.9z"/>
								</g>
								<g>
									<path class="st288" d="M90.86,85.75c-0.38-1.02-0.96-2.1-1.41-5.37l-0.25,0.09l-4.13,1.45c0,0,0.29,1.32,0.47,2.58
										c0.08,0.51,0.13,1.43,0.16,2.24c0.04,0.82,0.84,0.9,1.66,0.86C89.56,87.5,90.76,86.69,90.86,85.75z"/>
								</g>
								<g>
									<path class="st295" d="M85.07,81.93c0,0,0.29,1.32,0.47,2.58c2.37-0.41,3.31-2.76,3.65-4.04L85.07,81.93z"/>
								</g>
								<g>
									<path class="st294" d="M89.57,79.95c0,0,0.96-2.15,1.02-3.87c0.04-1.23-1.21-5.6-5.6-4.31c0,0-1.28,0.32-2.38,1.32
										c-0.88,0.8-2.08,2.42,0.05,6.08l0.6,1.25L89.57,79.95z"/>
								</g>
								<g>
									<path class="st288" d="M84.45,83.23c0,0,5.64-0.72,5.14-4.22c-0.5-3.5-0.11-5.96-3.73-5.65c-3.62,0.31-4.13,1.75-4.24,2.96
										C81.49,77.53,82.97,83.33,84.45,83.23z"/>
								</g>
								<g>
									<path class="st294" d="M83.28,73.65c0,0,2.13,3.89,4.58,4.16c2.45,0.27,3.38-0.51,3.38-0.51s-2.02-1.18-2.76-3.64
										C88.49,73.65,84.16,71.52,83.28,73.65z"/>
								</g>
								<g>
									<path class="st294" d="M83.71,73.93c0,0-1.02,1.08-1.17,2.02c-0.15,0.93-0.01,2.79-0.56,2.8c0,0-1.56-2.63-0.49-4.39
										C82.64,72.47,83.71,73.93,83.71,73.93z"/>
								</g>
								<g>
									<path class="st294" d="M83.52,74.1c0,0,1.72,4.15,4.9,5.09c0,0-3.36-2.21-4.03-5.02C83.73,71.37,83.52,74.1,83.52,74.1z"/>
								</g>
								<g>
									<path class="st228" d="M97.9,87.88c-0.1,0.11-0.2,0.22-0.31,0.32c-1.03,1.07-2.23,1.99-3.56,2.69
										c-0.14-2.64-0.03-5.21,1.03-5.01c0.04,0,0.08,0.01,0.12,0.03c0.17,0.07,0.35,0.14,0.52,0.23c0.06,0.03,0.12,0.06,0.19,0.09
										C96.66,86.65,97.32,87.2,97.9,87.88z"/>
								</g>
							</g>
						</g>
					</g>
					<g>
						<circle class="st4" cx="99.32" cy="70.58" r="4.09"/>
						<polyline class="st310" points="97.71,70.64 99.01,71.94 101.47,69.48 						"/>
					</g>
				</g>
				<g>
					<path class="st302" d="M59.46,86.87H38.14v6.88h21.32c0.62,0,1.12-0.5,1.12-1.12v-4.65C60.58,87.37,60.08,86.87,59.46,86.87z"
						/>
					<g>
						<path class="st66" d="M58.16,92.45H33.44c-0.62,0-1.12-0.5-1.12-1.12v-4.65c0-0.62,0.5-1.12,1.12-1.12h24.72
							c0.62,0,1.12,0.5,1.12,1.12v4.65C59.28,91.95,58.78,92.45,58.16,92.45z"/>
						<g>
							<g>
								<path class="st4" d="M37.13,91.55c-1.32,0-2.39-1.07-2.39-2.39c0-1.32,1.07-2.39,2.39-2.39c1.32,0,2.39,1.07,2.39,2.39
									C39.51,90.48,38.44,91.55,37.13,91.55z M37.13,87.52c-0.91,0-1.64,0.74-1.64,1.64c0,0.91,0.74,1.64,1.64,1.64
									c0.91,0,1.64-0.74,1.64-1.64C38.77,88.26,38.03,87.52,37.13,87.52z"/>
								<path class="st304" d="M37.62,89.52h-0.6c-0.1,0-0.19-0.08-0.19-0.19v-1.21c0-0.1,0.08-0.19,0.19-0.19
									c0.1,0,0.19,0.08,0.19,0.19v1.02h0.42c0.1,0,0.19,0.08,0.19,0.19C37.81,89.43,37.73,89.52,37.62,89.52z"/>
							</g>
							<text transform="matrix(1 0 0 1 41.2016 90.4202)" class="st4 st311 st312">03:00 PM</text>
						</g>
					</g>
					<path class="st66" d="M61.04,84.73c0,0.41-0.33,0.74-0.74,0.74c-0.41,0-0.74-0.33-0.74-0.74c0-0.41,0.33-0.74,0.74-0.74
						C60.71,83.99,61.04,84.32,61.04,84.73z"/>
				</g>
				<g>
					<path class="st313" d="M80.38,62.15H66.81c-0.56,0-1.02-0.46-1.02-1.02v0c0-0.56,0.46-1.02,1.02-1.02h13.57
						c0.56,0,1.02,0.46,1.02,1.02v0C81.4,61.69,80.94,62.15,80.38,62.15z"/>
					<path class="st313" d="M70.9,65.4h-4.09c-0.56,0-1.02-0.46-1.02-1.02l0,0c0-0.56,0.46-1.02,1.02-1.02h4.09
						c0.56,0,1.02,0.46,1.02,1.02l0,0C71.92,64.94,71.46,65.4,70.9,65.4z"/>
				</g>
				<path class="st304" d="M33.19,23.42c0,0.55-0.44,0.99-0.99,0.99c-0.55,0-0.99-0.44-0.99-0.99c0-0.55,0.44-0.99,0.99-0.99
					C32.75,22.43,33.19,22.87,33.19,23.42z"/>
			</g>
		</g>
		<path class="st228" d="M103.32,50.28h16.71c0.93,0,1.69,0.76,1.69,1.69V63.8c0,0.93-0.76,1.69-1.69,1.69h-11.46l-2.82,1.85
			c-0.66,0.43-1.55-0.01-1.59-0.81l-0.05-1.04h-0.79c-0.93,0-1.69-0.76-1.69-1.69V51.97C101.63,51.04,102.39,50.28,103.32,50.28z"/>
		<path class="st228" d="M25.9,11.09H9.18c-0.93,0-1.69,0.76-1.69,1.69v11.83c0,0.93,0.76,1.69,1.69,1.69h11.46l2.82,1.85
			c0.66,0.43,1.55-0.01,1.59-0.81l0.05-1.04h0.79c0.93,0,1.69-0.76,1.69-1.69V12.78C27.59,11.85,26.83,11.09,25.9,11.09z"/>
		<path class="st66" d="M20.49,14.15H9.39c-0.27,0-0.48-0.22-0.48-0.48l0,0c0-0.27,0.22-0.48,0.48-0.48h11.1
			c0.27,0,0.48,0.22,0.48,0.48l0,0C20.97,13.93,20.75,14.15,20.49,14.15z"/>
		<path class="st66" d="M20.49,18.99H9.39c-0.27,0-0.48-0.22-0.48-0.48l0,0c0-0.27,0.22-0.48,0.48-0.48h11.1
			c0.27,0,0.48,0.22,0.48,0.48l0,0C20.97,18.78,20.75,18.99,20.49,18.99z"/>
		<path class="st66" d="M25.11,16.53H9.39c-0.27,0-0.48-0.22-0.48-0.48l0,0c0-0.27,0.22-0.48,0.48-0.48h15.72
			c0.27,0,0.48,0.22,0.48,0.48l0,0C25.6,16.31,25.38,16.53,25.11,16.53z"/>
		<path class="st66" d="M20.49,20.96H9.39c-0.27,0-0.48-0.22-0.48-0.48l0,0C8.9,20.21,9.12,20,9.39,20h11.1
			c0.27,0,0.48,0.22,0.48,0.48l0,0C20.97,20.75,20.75,20.96,20.49,20.96z"/>
		<path class="st66" d="M25.11,23.34H9.39c-0.27,0-0.48-0.22-0.48-0.48l0,0c0-0.27,0.22-0.48,0.48-0.48h15.72
			c0.27,0,0.48,0.22,0.48,0.48l0,0C25.6,23.13,25.38,23.34,25.11,23.34z"/>
		<path class="st66" d="M114.56,55.52h-11.1c-0.27,0-0.48-0.22-0.48-0.48l0,0c0-0.27,0.22-0.48,0.48-0.48h11.1
			c0.27,0,0.48,0.22,0.48,0.48l0,0C115.05,55.3,114.83,55.52,114.56,55.52z"/>
		<path class="st66" d="M119.19,53.05h-15.72c-0.27,0-0.48-0.22-0.48-0.48l0,0c0-0.27,0.22-0.48,0.48-0.48h15.72
			c0.27,0,0.48,0.22,0.48,0.48l0,0C119.67,52.84,119.45,53.05,119.19,53.05z"/>
		<path class="st66" d="M114.56,57.49h-11.1c-0.27,0-0.48-0.22-0.48-0.48l0,0c0-0.27,0.22-0.48,0.48-0.48h11.1
			c0.27,0,0.48,0.22,0.48,0.48l0,0C115.05,57.27,114.83,57.49,114.56,57.49z"/>
	</g>
	<g>
		<circle class="st280" cx="109.09" cy="13.72" r="8.42"/>
		<circle class="st66" cx="109.09" cy="13.72" r="6.43"/>
		<polyline class="st281" points="105.52,10.81 109.09,13.72 109.09,19.47 		"/>
	</g>
	<g>
		<g>
			<path class="st223" d="M123.72,101.11v0.07c0,0.11-0.09,0.19-0.19,0.19H0.19c-0.11,0-0.19-0.09-0.19-0.19v-0.07
				c0-0.11,0.08-0.19,0.19-0.19h123.35C123.64,100.92,123.72,101,123.72,101.11z"/>
		</g>
	</g>
</g>
</svg>
