<?xml version="1.0" encoding="utf-8"?>
<!-- Generator: Adobe Illustrator 24.0.0, SVG Export Plug-In . SVG Version: 6.00 Build 0)  -->
<svg version="1.1" id="Layer_1" xmlns="http://www.w3.org/2000/svg" xmlns:xlink="http://www.w3.org/1999/xlink" x="0px" y="0px"
	 viewBox="0 0 144.29 47.2" style="enable-background:new 0 0 144.29 47.2;" xml:space="preserve">
<style type="text/css">
	.st0{fill:#6C727C;}
	.st1{fill:#FC5E31;}
	.st2{fill:#8CC63F;}
	.st3{fill:#F3F4F5;}
	.st4{fill:#F74A2D;}
	.st5{fill:#153663;}
	.st6{fill:#153765;}
	.st7{fill:#153867;}
	.st8{fill:#153969;}
	.st9{fill:#15396B;}
	.st10{fill:#153A6D;}
	.st11{fill:#153B6F;}
	.st12{fill:#153C71;}
	.st13{fill:#143D73;}
	.st14{fill:#143E75;}
	.st15{fill:#143E77;}
	.st16{fill:#143F79;}
	.st17{fill:#14407B;}
	.st18{fill:#14417D;}
	.st19{fill:#14427F;}
	.st20{fill:#144381;}
	.st21{fill:#144383;}
	.st22{fill:#144485;}
	.st23{fill:#144587;}
	.st24{fill:#144689;}
	.st25{fill:#14478B;}
	.st26{fill:#14488D;}
	.st27{fill:#14488F;}
	.st28{fill:#144991;}
	.st29{fill:#134A93;}
	.st30{fill:#134B95;}
	.st31{fill:#134C97;}
	.st32{fill:#134D99;}
	.st33{fill:#134D9B;}
	.st34{fill:#134E9D;}
	.st35{fill:#134F9F;}
	.st36{fill:#1350A1;}
	.st37{fill-rule:evenodd;clip-rule:evenodd;fill:#F1E7ED;}
	.st38{fill-rule:evenodd;clip-rule:evenodd;fill:#A893D0;}
	.st39{opacity:0.5;fill-rule:evenodd;clip-rule:evenodd;fill:#5D2C84;}
	.st40{fill-rule:evenodd;clip-rule:evenodd;fill:#CABDE2;}
	.st41{fill-rule:evenodd;clip-rule:evenodd;fill:#704E8D;}
	.st42{fill-rule:evenodd;clip-rule:evenodd;fill:#FBF9FB;}
	.st43{opacity:0.83;fill-rule:evenodd;clip-rule:evenodd;fill:url(#SVGID_2_);}
	.st44{opacity:0.83;fill-rule:evenodd;clip-rule:evenodd;fill:url(#SVGID_3_);}
	.st45{fill:#8D6B96;}
	.st46{opacity:0.2;fill-rule:evenodd;clip-rule:evenodd;fill:#864C90;}
	.st47{fill-rule:evenodd;clip-rule:evenodd;fill:#CECBEA;}
	.st48{fill-rule:evenodd;clip-rule:evenodd;fill:#39175A;}
	.st49{fill-rule:evenodd;clip-rule:evenodd;fill:#F83D45;}
	.st50{fill-rule:evenodd;clip-rule:evenodd;fill:#B32742;}
	.st51{fill-rule:evenodd;clip-rule:evenodd;fill:#A28BCC;}
	.st52{opacity:0.5;fill-rule:evenodd;clip-rule:evenodd;fill:#864C90;}
	.st53{fill-rule:evenodd;clip-rule:evenodd;fill:url(#SVGID_4_);}
	.st54{fill-rule:evenodd;clip-rule:evenodd;fill:url(#SVGID_6_);}
	.st55{fill:#B32742;}
	.st56{fill-rule:evenodd;clip-rule:evenodd;fill:url(#SVGID_8_);}
	.st57{fill-rule:evenodd;clip-rule:evenodd;fill:url(#SVGID_9_);}
	.st58{fill-rule:evenodd;clip-rule:evenodd;fill:#7A5AC4;}
	.st59{fill-rule:evenodd;clip-rule:evenodd;fill:#7A5AA7;}
	.st60{fill-rule:evenodd;clip-rule:evenodd;fill:#5A2967;}
	.st61{fill-rule:evenodd;clip-rule:evenodd;fill:#C4D1ED;}
	.st62{opacity:0.5;fill-rule:evenodd;clip-rule:evenodd;fill:#6D4C90;}
	.st63{fill:#7A5AA7;}
	.st64{fill:#39175A;}
	.st65{fill-rule:evenodd;clip-rule:evenodd;fill:url(#SVGID_10_);}
	.st66{fill:#FFFFFF;}
	.st67{fill-rule:evenodd;clip-rule:evenodd;fill:url(#SVGID_11_);}
	.st68{fill-rule:evenodd;clip-rule:evenodd;fill:url(#SVGID_12_);}
	.st69{fill-rule:evenodd;clip-rule:evenodd;fill:url(#SVGID_13_);}
	.st70{fill-rule:evenodd;clip-rule:evenodd;fill:url(#SVGID_14_);}
	.st71{fill-rule:evenodd;clip-rule:evenodd;fill:url(#SVGID_15_);}
	.st72{fill-rule:evenodd;clip-rule:evenodd;fill:url(#SVGID_16_);}
	.st73{fill-rule:evenodd;clip-rule:evenodd;fill:url(#SVGID_17_);}
	.st74{fill-rule:evenodd;clip-rule:evenodd;fill:url(#SVGID_18_);}
	.st75{fill-rule:evenodd;clip-rule:evenodd;fill:url(#SVGID_19_);}
	.st76{opacity:0.4;fill-rule:evenodd;clip-rule:evenodd;fill:#864C90;}
	.st77{fill-rule:evenodd;clip-rule:evenodd;fill:url(#SVGID_20_);}
	.st78{fill-rule:evenodd;clip-rule:evenodd;fill:#FFFFFF;}
	.st79{fill-rule:evenodd;clip-rule:evenodd;fill:url(#SVGID_21_);}
	.st80{opacity:0.44;fill-rule:evenodd;clip-rule:evenodd;fill:#60003B;}
	.st81{fill-rule:evenodd;clip-rule:evenodd;fill:url(#SVGID_22_);}
	.st82{fill-rule:evenodd;clip-rule:evenodd;fill:url(#SVGID_23_);}
	.st83{fill-rule:evenodd;clip-rule:evenodd;fill:url(#SVGID_24_);}
	.st84{fill-rule:evenodd;clip-rule:evenodd;fill:url(#SVGID_25_);}
	.st85{fill-rule:evenodd;clip-rule:evenodd;fill:url(#SVGID_26_);}
	.st86{fill-rule:evenodd;clip-rule:evenodd;fill:url(#SVGID_27_);}
	.st87{fill-rule:evenodd;clip-rule:evenodd;fill:url(#SVGID_28_);}
	.st88{fill-rule:evenodd;clip-rule:evenodd;fill:url(#SVGID_29_);}
	.st89{fill-rule:evenodd;clip-rule:evenodd;fill:url(#SVGID_30_);}
	.st90{fill-rule:evenodd;clip-rule:evenodd;fill:url(#SVGID_31_);}
	.st91{fill-rule:evenodd;clip-rule:evenodd;fill:url(#SVGID_32_);}
	.st92{fill-rule:evenodd;clip-rule:evenodd;fill:url(#SVGID_33_);}
	.st93{fill-rule:evenodd;clip-rule:evenodd;fill:url(#SVGID_34_);}
	.st94{fill-rule:evenodd;clip-rule:evenodd;fill:url(#SVGID_35_);}
	.st95{fill-rule:evenodd;clip-rule:evenodd;fill:url(#SVGID_36_);}
	.st96{fill-rule:evenodd;clip-rule:evenodd;fill:url(#SVGID_37_);}
	.st97{fill-rule:evenodd;clip-rule:evenodd;fill:url(#SVGID_38_);}
	.st98{fill-rule:evenodd;clip-rule:evenodd;fill:url(#SVGID_39_);}
	.st99{fill-rule:evenodd;clip-rule:evenodd;fill:url(#SVGID_40_);}
	.st100{fill-rule:evenodd;clip-rule:evenodd;fill:url(#SVGID_41_);}
	.st101{fill-rule:evenodd;clip-rule:evenodd;fill:url(#SVGID_42_);}
	.st102{fill-rule:evenodd;clip-rule:evenodd;fill:url(#SVGID_43_);}
	.st103{fill-rule:evenodd;clip-rule:evenodd;fill:url(#SVGID_44_);}
	.st104{fill:#F2E225;}
	.st105{opacity:0.4;fill:url(#SVGID_45_);}
	.st106{fill:#814BA2;}
	.st107{fill:#925CB4;}
	.st108{fill:#B289C9;}
	.st109{fill:#A274BF;}
	.st110{opacity:0.4;fill:url(#SVGID_46_);}
	.st111{fill:#813034;}
	.st112{fill:#802F34;}
	.st113{fill:#AFD2EF;}
	.st114{fill:#E54C3C;}
	.st115{fill:#57607F;}
	.st116{fill:#BF3A2C;}
	.st117{fill:#BF3A2B;}
	.st118{fill:#8796C8;}
	.st119{fill:#C88D95;}
	.st120{fill:#8696C9;}
	.st121{fill:#56607F;}
	.st122{fill:#E3E4E6;}
	.st123{fill:#D8DADE;}
	.st124{opacity:0.4;fill:url(#SVGID_47_);}
	.st125{fill:#F2582F;}
	.st126{fill:#FF7043;}
	.st127{fill:#8E2611;}
	.st128{fill:#E53935;}
	.st129{fill:#F0534A;}
	.st130{fill:#D5D5D3;}
	.st131{opacity:0.4;fill:url(#SVGID_48_);}
	.st132{fill:#F8749D;}
	.st133{fill:#403063;}
	.st134{fill:#403365;}
	.st135{fill:#403264;}
	.st136{fill:#413265;}
	.st137{fill:#E4E5E6;}
	.st138{fill:#E2E2E4;}
	.st139{fill:#DEDEE2;}
	.st140{fill:#3D2E61;}
	.st141{fill:#FDF7F9;}
	.st142{fill:#FDD6E4;}
	.st143{opacity:0.4;fill:url(#SVGID_49_);}
	.st144{fill:#C20047;}
	.st145{fill:#FE405C;}
	.st146{fill:#B1D3EF;}
	.st147{fill:#E0F1FD;}
	.st148{opacity:0.4;fill:url(#SVGID_50_);}
	.st149{opacity:0.4;fill:url(#SVGID_51_);}
	.st150{opacity:0.4;fill:url(#SVGID_52_);}
	.st151{opacity:0.4;fill:url(#SVGID_53_);}
	.st152{opacity:0.4;fill:url(#SVGID_54_);}
	.st153{opacity:0.4;fill:url(#SVGID_55_);}
	.st154{opacity:0.4;fill:url(#SVGID_56_);}
	.st155{fill:#FF5F85;}
	.st156{fill:#FFE878;}
	.st157{fill:#B2527E;}
	.st158{fill:#004FAB;}
	.st159{fill:#57A3FE;}
	.st160{fill:#FEFEFE;}
	.st161{fill:#37A6CD;}
	.st162{fill:#E19A4B;}
	.st163{fill:#54BBE8;}
	.st164{fill:#FBB55F;}
	.st165{fill:#E29A4C;}
	.st166{fill:#E4E8E9;}
	.st167{fill:#D1D0D0;}
	.st168{fill:#E3E7E8;}
	.st169{fill:#566369;}
	.st170{fill:#E19A4C;}
	.st171{fill:#445155;}
	.st172{fill:#E4E7E7;}
	.st173{fill:#566368;}
	.st174{fill:#6E7A7E;}
	.st175{fill:#435054;}
	.st176{fill:#5E5461;}
	.st177{fill:#6F6571;}
	.st178{fill:#5D5360;}
	.st179{fill:#4B3F4E;}
	.st180{fill:#FCCE64;}
	.st181{fill:#FEDF7E;}
	.st182{fill:#857D86;}
	.st183{fill:#3E8FC8;}
	.st184{fill:#FCB630;}
	.st185{fill:#88B237;}
	.st186{fill:#E7594A;}
	.st187{fill:#4398D0;}
	.st188{fill:#D55245;}
	.st189{fill:#80A734;}
	.st190{fill:#FEA71A;}
	.st191{fill:#FAD390;}
	.st192{fill:#F2D45C;}
	.st193{fill:#FA7B76;}
	.st194{fill:#FE5364;}
	.st195{fill:#F8E3C1;}
	.st196{fill:#2D5871;}
	.st197{fill:#FDD8A7;}
	.st198{fill:#E0EEFA;}
	.st199{fill:#F3C792;}
	.st200{fill:#CBDEEC;}
	.st201{fill:#FE4D4C;}
	.st202{fill:#F23A3A;}
	.st203{fill:#1D4859;}
	.st204{fill:#FEB025;}
	.st205{fill:#FE901D;}
	.st206{fill:#1E495A;}
	.st207{fill:#2F5972;}
	.st208{fill:#F3C892;}
	.st209{opacity:0.4;fill:url(#SVGID_57_);}
	.st210{opacity:0.4;fill:url(#SVGID_58_);}
	.st211{fill:#949AA8;}
	.st212{fill:#B3B3B3;}
	.st213{fill:#575D72;}
	.st214{fill:#A3E0F4;}
	.st215{fill:#C2EAF8;}
	.st216{fill:#28304E;}
	.st217{fill:#EC5176;}
	.st218{fill:#FECC34;}
	.st219{fill:#FE76A3;}
	.st220{fill:#E69115;}
	.st221{fill:#FF0000;}
	.st222{fill:#F4AE00;}
	.st223{opacity:0.12;fill:#1B1E23;}
	.st224{fill:#E7E8FA;}
	.st225{fill:#57A845;}
	.st226{fill:none;stroke:#283847;stroke-width:1.2169;stroke-miterlimit:10;}
	.st227{opacity:0.5;fill:#283847;}
	.st228{fill:#6B98F6;}
	.st229{fill:#79AFFF;}
	.st230{clip-path:url(#XMLID_3_);fill:#79AFFF;}
	.st231{clip-path:url(#XMLID_3_);}
	.st232{fill:none;stroke:#212121;stroke-width:1.5836;stroke-linecap:round;stroke-linejoin:round;stroke-miterlimit:10;}
	.st233{fill:#17566C;}
	.st234{clip-path:url(#XMLID_6_);fill:#79AFFF;}
	.st235{clip-path:url(#XMLID_6_);fill:#2072A9;}
	.st236{clip-path:url(#XMLID_6_);fill:#2175B8;}
	.st237{opacity:0.02;clip-path:url(#XMLID_9_);}
	.st238{opacity:0.13;clip-path:url(#XMLID_9_);fill:#FFFFFF;}
	.st239{fill:none;stroke:#212121;stroke-width:0.5;stroke-linecap:round;stroke-linejoin:round;stroke-miterlimit:10;}
	.st240{fill:#212121;}
	.st241{opacity:0.02;clip-path:url(#XMLID_19_);}
	.st242{opacity:0.13;clip-path:url(#XMLID_19_);fill:#FFFFFF;}
	.st243{clip-path:url(#XMLID_20_);fill:#B0C7D8;}
	.st244{clip-path:url(#XMLID_21_);fill:#3A4149;}
	.st245{fill:#FBFFFF;}
	.st246{fill:#EEEEEE;}
	.st247{fill:#FF7B35;}
	.st248{fill:#509DFF;}
	.st249{fill:#B0C7D8;}
	.st250{opacity:0.3;fill:#FFFFFC;}
	.st251{clip-path:url(#XMLID_26_);fill:#FC6C2B;}
	.st252{fill:#B8D0E5;}
	.st253{fill:none;stroke:#000000;stroke-width:2.5763;stroke-miterlimit:10;}
	.st254{opacity:0.12;clip-path:url(#XMLID_27_);}
	.st255{clip-path:url(#XMLID_28_);fill:#217AAB;}
	.st256{opacity:0.2;}
	.st257{opacity:0.12;clip-path:url(#XMLID_29_);fill:#FFFFFF;}
	.st258{opacity:0.03;clip-path:url(#XMLID_42_);}
	.st259{opacity:0.03;clip-path:url(#XMLID_43_);fill:#010102;}
	.st260{opacity:0.04;clip-path:url(#XMLID_44_);}
	.st261{fill:#FDAF00;}
	.st262{fill:#FF7C00;}
	.st263{opacity:0.3;clip-path:url(#XMLID_45_);}
	.st264{opacity:0.3;}
	.st265{fill:none;stroke:#212121;stroke-width:0.9542;stroke-linecap:round;stroke-linejoin:round;stroke-miterlimit:10;}
	.st266{opacity:0.3;clip-path:url(#XMLID_47_);}
	.st267{fill:none;stroke:#212121;stroke-width:1.188;stroke-linecap:round;stroke-linejoin:round;stroke-miterlimit:10;}
	.st268{fill:#FF9D38;}
	.st269{fill:#C8DFFD;}
	.st270{fill:#A8CCFF;}
	.st271{fill:#D5E9FF;}
	.st272{fill:#B8D0FC;}
	.st273{fill:#0B3563;}
	.st274{fill:none;stroke:#BEDBF7;stroke-width:1.0668;stroke-miterlimit:10;}
	.st275{fill:#25468F;}
	.st276{fill:#E4EEF7;}
	.st277{fill:none;stroke:#3A65C9;stroke-width:1.0668;stroke-miterlimit:10;}
	.st278{fill:none;stroke:#3A65C9;stroke-width:1.001;stroke-miterlimit:10;}
	.st279{fill:#FF5521;}
	.st280{fill:#3A65C9;}
	.st281{fill:none;stroke:#FFCC40;stroke-width:2.1337;stroke-linecap:round;stroke-linejoin:round;stroke-miterlimit:10;}
	.st282{fill:#BEDBF7;}
	.st283{fill:none;stroke:#FFFFFF;stroke-width:1.2169;stroke-miterlimit:10;}
	.st284{fill:#10477B;}
	.st285{fill:#D44C10;}
	.st286{fill:#FF912B;}
	.st287{fill:#FC7600;}
	.st288{fill:#FFAE73;}
	.st289{fill:#FC9F38;}
	.st290{fill:#E65F00;}
	.st291{fill:#4681E1;}
	.st292{fill:#032444;}
	.st293{fill:#0D458E;}
	.st294{fill:#1E3865;}
	.st295{fill:#F48F4E;}
	.st296{fill:#254C82;}
	.st297{fill:#F9924F;}
	.st298{opacity:0.5;}
	.st299{fill:#499936;}
	.st300{fill:url(#SVGID_59_);}
	.st301{opacity:0.08;fill:#FFFFFF;}
	.st302{opacity:0.31;fill:#323197;}
	.st303{fill:#F5F5F7;}
	.st304{fill:#A1C2FF;}
	.st305{fill:#FF8D02;}
	.st306{opacity:0.08;}
	.st307{fill:none;stroke:#FFFFFF;stroke-width:2;stroke-linecap:round;stroke-linejoin:round;stroke-miterlimit:10;}
	.st308{opacity:0.44;fill:none;stroke:#FFFFFF;stroke-miterlimit:10;}
	.st309{opacity:0.4;fill:url(#SVGID_60_);}
	.st310{opacity:0.4;fill:url(#SVGID_61_);}
	.st311{fill:#010200;}
	.st312{opacity:0.4;fill:url(#SVGID_62_);}
	.st313{fill:#F74A2D;stroke:#000000;stroke-width:0.35;stroke-miterlimit:10;}
	.st314{clip-path:url(#SVGID_63_);fill:url(#SVGID_64_);}
	.st315{clip-path:url(#SVGID_63_);fill:url(#SVGID_65_);}
	.st316{clip-path:url(#SVGID_63_);fill:url(#SVGID_66_);}
	.st317{clip-path:url(#SVGID_63_);fill:url(#SVGID_67_);}
	.st318{fill:#393D43;}
	.st319{fill:#FDFDFB;}
	.st320{fill:#0086CE;}
	.st321{fill:#69B545;}
	.st322{fill:#D6347C;}
	.st323{fill:#F07F32;}
	.st324{fill:#6F519D;}
	.st325{fill-rule:evenodd;clip-rule:evenodd;fill:#51555B;}
	.st326{fill-rule:evenodd;clip-rule:evenodd;fill:#393D43;}
	.st327{fill:#003A70;}
	.st328{fill:url(#SVGID_68_);}
	.st329{fill:#003399;}
	.st330{fill-rule:evenodd;clip-rule:evenodd;fill:#003399;}
	.st331{fill:#A1A1A1;}
	.st332{fill-rule:evenodd;clip-rule:evenodd;fill:#006677;}
	.st333{fill-rule:evenodd;clip-rule:evenodd;fill:#E45300;}
	.st334{fill-rule:evenodd;clip-rule:evenodd;fill:#2156A6;}
	.st335{fill:#2156A6;}
	.st336{fill:#FB6E3B;}
	.st337{fill:#00C9BD;}
	.st338{fill-rule:evenodd;clip-rule:evenodd;fill:#00ACD8;}
	.st339{fill-rule:evenodd;clip-rule:evenodd;}
	.st340{fill-rule:evenodd;clip-rule:evenodd;fill:#0056A6;}
	.st341{fill-rule:evenodd;clip-rule:evenodd;fill:#F48120;}
	.st342{fill-rule:evenodd;clip-rule:evenodd;fill:#2E3191;}
	.st343{fill:#FBDA00;}
	.st344{fill:#1F1A17;}
	.st345{fill:#007CC2;}
	.st346{fill:#DA251C;}
	.st347{fill-rule:evenodd;clip-rule:evenodd;fill:#F0F0F0;}
	.st348{fill-rule:evenodd;clip-rule:evenodd;fill:#FECF22;}
	.st349{fill-rule:evenodd;clip-rule:evenodd;fill:#006AB4;}
	.st350{fill-rule:evenodd;clip-rule:evenodd;fill:#D61627;}
	.st351{fill-rule:evenodd;clip-rule:evenodd;fill:#E6E6E6;}
	.st352{fill:#007BC2;}
	.st353{fill:#231F20;}
	.st354{fill:#EC1C25;}
	.st355{fill:#243E92;}
	.st356{fill:#E22228;}
	.st357{fill:#FAD701;}
	.st358{fill-rule:evenodd;clip-rule:evenodd;fill:#E61F20;}
	.st359{fill-rule:evenodd;clip-rule:evenodd;fill:#004B97;}
	.st360{fill-rule:evenodd;clip-rule:evenodd;fill:#E50013;}
	.st361{fill-rule:evenodd;clip-rule:evenodd;fill:url(#SVGID_71_);}
	.st362{fill-rule:evenodd;clip-rule:evenodd;fill:url(#SVGID_72_);}
	.st363{fill-rule:evenodd;clip-rule:evenodd;fill:#412A8B;}
</style>
<g>
	<path class="st66" d="M144.29,40.82c0,3.52-2.85,6.38-6.38,6.38H6.38C2.86,47.2,0,44.34,0,40.82V6.38C0,2.86,2.86,0,6.38,0h131.53
		c3.52,0,6.38,2.86,6.38,6.38V40.82z"/>
	<g>
		<g>
			<path class="st318" d="M37.63,31.2c-0.76,1.69-1.13,2.45-2.11,3.94c-1.37,2.09-3.31,4.69-5.7,4.71
				c-2.13,0.02-2.68-1.39-5.57-1.37c-2.89,0.02-3.49,1.39-5.62,1.38c-2.4-0.02-4.23-2.37-5.6-4.46c-3.84-5.84-4.24-12.7-1.87-16.34
				c1.68-2.59,4.33-4.11,6.83-4.11c2.54,0,4.14,1.39,6.24,1.39c2.04,0,3.28-1.4,6.22-1.4c2.22,0,4.57,1.21,6.25,3.3
				C31.19,21.26,32.08,29.1,37.63,31.2z"/>
			<g>
				<path class="st318" d="M28.2,12.62c1.07-1.37,1.88-3.3,1.58-5.28c-1.74,0.12-3.78,1.23-4.97,2.67
					c-1.08,1.31-1.97,3.26-1.62,5.15C25.09,15.22,27.06,14.08,28.2,12.62z"/>
			</g>
		</g>
	</g>
	<g>
		<g>
			<g>
				<path class="st318" d="M49.32,18.97l-5.5,16.18h2.52l1.64-4.97h5.32l1.69,4.97h2.59l-5.52-16.18H49.32z M50.62,21.63
					c0.19,0.72,0.39,1.47,0.64,2.28l1.48,4.29h-4.22l1.46-4.32C50.21,23.19,50.42,22.43,50.62,21.63z"/>
				<path class="st318" d="M64.69,23.17c-1.67,0-3,0.64-3.89,1.87l-0.1-1.61h-2.24l0.01,0.21c0.07,1,0.09,2.11,0.09,3.69v12.47h2.45
					v-5.82c0.76,0.91,1.97,1.44,3.35,1.44c1.43,0,2.75-0.56,3.71-1.58c1.07-1.13,1.64-2.76,1.64-4.71c0-1.72-0.49-3.21-1.42-4.3
					C67.37,23.75,66.1,23.17,64.69,23.17z M64.08,25.19c2.18,0,3.16,2.02,3.16,4.02c0,2.58-1.25,4.19-3.25,4.19
					c-1.37,0-2.55-0.93-2.88-2.27c-0.06-0.21-0.09-0.48-0.09-0.79v-1.97c0-0.18,0.04-0.39,0.08-0.6c0.01-0.07,0.03-0.13,0.04-0.2
					C61.49,26.17,62.7,25.19,64.08,25.19z"/>
				<path class="st318" d="M77.29,23.17c-1.67,0-3,0.64-3.89,1.87l-0.1-1.61h-2.24l0.01,0.21c0.07,1,0.09,2.11,0.09,3.69v12.47h2.45
					v-5.82c0.76,0.91,1.97,1.44,3.35,1.44c1.43,0,2.75-0.56,3.71-1.58c1.07-1.13,1.64-2.76,1.64-4.71c0-1.72-0.49-3.21-1.42-4.3
					C79.98,23.75,78.7,23.17,77.29,23.17z M76.68,25.19c2.18,0,3.16,2.02,3.16,4.02c0,2.58-1.25,4.19-3.25,4.19
					c-1.37,0-2.55-0.93-2.88-2.27c-0.06-0.21-0.09-0.48-0.09-0.79v-1.97c0-0.18,0.04-0.4,0.08-0.61c0.01-0.07,0.02-0.13,0.04-0.2
					C74.1,26.17,75.31,25.19,76.68,25.19z"/>
				<path class="st318" d="M93.09,25.83c-2.28-0.88-3.02-1.58-3.02-2.87c0-1.08,0.86-2.17,2.78-2.17c1.59,0,2.6,0.55,2.87,0.72
					l0.21,0.13l0.69-2.04l-0.14-0.08c-0.41-0.24-1.58-0.8-3.56-0.8c-3.12,0-5.3,1.84-5.3,4.48c0,2.13,1.37,3.61,4.3,4.68
					c2.08,0.78,2.85,1.57,2.85,2.94c0,1.54-1.19,2.5-3.11,2.5c-1.25,0-2.54-0.36-3.53-1l-0.21-0.14l-0.66,2.09l0.12,0.08
					c0.92,0.62,2.66,1.06,4.14,1.06c4.21,0,5.7-2.57,5.7-4.76C97.22,28.38,96.02,26.98,93.09,25.83z"/>
				<path class="st318" d="M101.62,20.64l-2.4,0.75v2.03h-1.76v1.96h1.76v5.99c0,1.45,0.28,2.46,0.85,3.11
					c0.55,0.6,1.39,0.93,2.37,0.93c0.93,0,1.58-0.18,1.89-0.29l0.14-0.05l-0.12-1.96l-0.23,0.07c-0.31,0.1-0.63,0.13-1.14,0.13
					c-0.95,0-1.35-0.6-1.35-2.01v-5.92h2.95v-1.96h-2.95V20.64z"/>
				<path class="st318" d="M110.64,23.17c-3.43,0-5.82,2.56-5.82,6.22c0,3.55,2.31,6.03,5.63,6.03h0.02c2.8,0,5.82-1.95,5.82-6.24
					c0-1.74-0.54-3.24-1.56-4.33C113.71,23.75,112.29,23.17,110.64,23.17z M110.57,25.1c2.2,0,3.2,2.15,3.2,4.14
					c0,2.45-1.37,4.24-3.25,4.24h-0.02c-1.86,0-3.2-1.75-3.2-4.16C107.3,27.21,108.31,25.1,110.57,25.1z"/>
				<path class="st318" d="M123.79,23.28l-0.15-0.04c-0.22-0.05-0.39-0.08-0.61-0.08c-1.28,0-2.43,0.75-3.07,1.97l-0.07-1.71h-2.2
					l0.01,0.21c0.07,0.97,0.09,2.06,0.09,3.53l-0.02,8h2.45v-6.24c0-0.34,0.02-0.66,0.07-0.95c0.28-1.5,1.29-2.47,2.58-2.47
					c0.25,0,0.45,0.02,0.66,0.04l0.26,0.03V23.28z"/>
				<path class="st318" d="M129.3,23.14c-3.26,0-5.54,2.6-5.54,6.33c0,3.59,2.26,5.91,5.77,5.91c1.84,0,3.13-0.4,3.88-0.74
					l0.15-0.07l-0.47-1.82l-0.2,0.08c-0.67,0.27-1.55,0.55-3.07,0.55c-1.06,0-3.52-0.35-3.67-3.55l7.9,0.02l0.03-0.16
					c0.05-0.25,0.07-0.58,0.07-1.02C134.15,26.12,132.88,23.14,129.3,23.14z M129.13,25c0.75,0,1.35,0.23,1.8,0.69
					c0.7,0.72,0.83,1.77,0.84,2.28h-5.58C126.42,26.56,127.3,25,129.13,25z"/>
			</g>
			<g>
				<path class="st318" d="M43.82,7.92c0.68-0.09,1.48-0.16,2.35-0.16c1.58,0,2.7,0.32,3.45,0.94c0.77,0.62,1.21,1.52,1.21,2.76
					c0,1.25-0.44,2.27-1.22,2.98c-0.81,0.72-2.12,1.1-3.77,1.1c-0.8,0-1.44-0.02-2.01-0.09V7.92z M44.93,14.7
					c0.28,0.05,0.68,0.05,1.11,0.05c2.35,0.01,3.62-1.18,3.62-3.25c0.01-1.83-1.12-2.95-3.45-2.95c-0.57,0-1,0.05-1.29,0.1V14.7z"/>
				<path class="st318" d="M54.76,15.6c-1.64,0-2.93-1.09-2.93-2.83c0-1.84,1.35-2.92,3.03-2.92c1.76,0,2.94,1.15,2.94,2.82
					c0,2.05-1.58,2.93-3.03,2.93H54.76z M54.8,14.85c1.06,0,1.86-0.9,1.86-2.15c0-0.93-0.52-2.1-1.83-2.1
					c-1.3,0-1.87,1.09-1.87,2.14c0,1.2,0.76,2.11,1.83,2.11H54.8z"/>
				<path class="st318" d="M59.56,9.97l0.82,2.78c0.16,0.61,0.33,1.19,0.44,1.76h0.04c0.14-0.56,0.34-1.15,0.54-1.75l1-2.8h0.93
					l0.95,2.75c0.23,0.65,0.4,1.24,0.54,1.8h0.04c0.1-0.56,0.27-1.14,0.47-1.78l0.87-2.76h1.1l-1.97,5.5h-1.01l-0.93-2.62
					c-0.21-0.62-0.39-1.17-0.54-1.82h-0.02c-0.15,0.66-0.34,1.24-0.56,1.83l-0.98,2.61h-1.01l-1.84-5.5H59.56z"/>
				<path class="st318" d="M68.41,11.46c0-0.58-0.01-1.03-0.05-1.49h0.98l0.06,0.9h0.03c0.3-0.51,1.01-1.02,2.02-1.02
					c0.85,0,2.16,0.45,2.16,2.34v3.28h-1.11V12.3c0-0.89-0.37-1.64-1.41-1.64c-0.72,0-1.29,0.47-1.49,1.02
					c-0.05,0.13-0.08,0.31-0.08,0.47v3.32h-1.11V11.46z"/>
				<path class="st318" d="M75.42,7.41h1.11v8.07h-1.11V7.41z"/>
				<path class="st318" d="M80.86,15.6c-1.64,0-2.93-1.09-2.93-2.83c0-1.84,1.35-2.92,3.03-2.92c1.75,0,2.94,1.15,2.94,2.82
					c0,2.05-1.58,2.93-3.03,2.93H80.86z M80.9,14.85c1.06,0,1.86-0.9,1.86-2.15c0-0.93-0.52-2.1-1.83-2.1
					c-1.3,0-1.87,1.09-1.87,2.14c0,1.2,0.76,2.11,1.83,2.11H80.9z"/>
				<path class="st318" d="M89.61,14.16c0,0.48,0.03,0.94,0.09,1.32h-1l-0.1-0.69h-0.04c-0.33,0.43-1,0.82-1.87,0.82
					c-1.24,0-1.87-0.78-1.87-1.58c0-1.33,1.31-2.06,3.67-2.05v-0.11c0-0.45-0.14-1.28-1.39-1.27c-0.58,0-1.17,0.15-1.6,0.41
					l-0.25-0.67c0.51-0.28,1.25-0.48,2.02-0.48c1.88,0,2.34,1.15,2.34,2.25V14.16z M88.53,12.67c-1.21-0.02-2.59,0.17-2.59,1.24
					c0,0.66,0.48,0.95,1.04,0.95c0.81,0,1.33-0.45,1.5-0.92c0.04-0.1,0.05-0.22,0.05-0.32V12.67z"/>
				<path class="st318" d="M96.67,7.41v6.65c0,0.49,0.01,1.05,0.05,1.42h-1l-0.05-0.95h-0.03c-0.34,0.61-1.07,1.08-2.07,1.08
					c-1.48,0-2.63-1.12-2.63-2.8c-0.01-1.84,1.26-2.95,2.74-2.95c0.95,0,1.58,0.4,1.84,0.83h0.02V7.41H96.67z M95.56,12.21
					c0-0.14-0.01-0.3-0.05-0.43c-0.16-0.62-0.77-1.15-1.6-1.15c-1.15,0-1.83,0.91-1.83,2.11c0,1.12,0.62,2.04,1.81,2.04
					c0.75,0,1.43-0.45,1.63-1.19c0.04-0.14,0.05-0.27,0.05-0.43V12.21z"/>
				<path class="st318" d="M103.68,15.6c-1.64,0-2.93-1.09-2.93-2.83c0-1.84,1.35-2.92,3.03-2.92c1.76,0,2.94,1.15,2.94,2.82
					c0,2.05-1.58,2.93-3.03,2.93H103.68z M103.71,14.85c1.06,0,1.86-0.9,1.86-2.15c0-0.93-0.52-2.1-1.83-2.1
					c-1.3,0-1.87,1.09-1.87,2.14c0,1.2,0.76,2.11,1.83,2.11H103.71z"/>
				<path class="st318" d="M108.12,11.46c0-0.58-0.01-1.03-0.05-1.49h0.98l0.06,0.9h0.02c0.3-0.51,1.01-1.02,2.02-1.02
					c0.85,0,2.16,0.45,2.16,2.34v3.28h-1.11V12.3c0-0.89-0.37-1.64-1.41-1.64c-0.72,0-1.29,0.47-1.49,1.02
					c-0.05,0.13-0.08,0.31-0.08,0.47v3.32h-1.11V11.46z"/>
				<path class="st318" d="M119.14,8.66v1.32h1.59v0.76h-1.59v2.97c0,0.68,0.21,1.07,0.83,1.07c0.3,0,0.48-0.02,0.64-0.07l0.05,0.76
					c-0.21,0.07-0.56,0.14-0.98,0.14c-0.52,0-0.93-0.16-1.2-0.42c-0.3-0.31-0.43-0.8-0.43-1.44v-3h-0.95V9.97h0.95V8.96L119.14,8.66
					z"/>
				<path class="st318" d="M121.98,7.41h1.11v3.43h0.03c0.18-0.28,0.45-0.55,0.8-0.7c0.33-0.18,0.72-0.28,1.14-0.28
					c0.82,0,2.13,0.45,2.13,2.35v3.27h-1.11v-3.16c0-0.9-0.37-1.64-1.41-1.64c-0.72,0-1.27,0.45-1.49,1
					c-0.06,0.14-0.08,0.28-0.08,0.48v3.32h-1.11V7.41z"/>
				<path class="st318" d="M129.62,12.89c0.03,1.35,0.97,1.91,2.08,1.91c0.8,0,1.29-0.13,1.69-0.27l0.2,0.7
					c-0.39,0.16-1.07,0.35-2.05,0.35c-1.87,0-3-1.13-3-2.77c0-1.67,1.1-2.98,2.88-2.98c2,0,2.51,1.58,2.51,2.59
					c0,0.2-0.01,0.36-0.04,0.48L129.62,12.89z M132.87,12.18c0.01-0.62-0.29-1.62-1.53-1.62c-1.14,0-1.62,0.93-1.7,1.62H132.87z"/>
			</g>
		</g>
	</g>
</g>
</svg>
