<?xml version="1.0" encoding="utf-8"?>
<!-- Generator: Adobe Illustrator 24.0.0, SVG Export Plug-In . SVG Version: 6.00 Build 0)  -->
<svg version="1.1" id="Layer_1" xmlns="http://www.w3.org/2000/svg" xmlns:xlink="http://www.w3.org/1999/xlink" x="0px" y="0px"
	 viewBox="0 0 52.89 52.89" style="enable-background:new 0 0 52.89 52.89;" xml:space="preserve">
<style type="text/css">
	.st0{fill:#6C727C;}
	.st1{fill:#FC5E31;}
	.st2{fill:#8CC63F;}
	.st3{fill:#F3F4F5;}
	.st4{fill:#F74A2D;}
	.st5{fill:#153663;}
	.st6{fill:#153765;}
	.st7{fill:#153867;}
	.st8{fill:#153969;}
	.st9{fill:#15396B;}
	.st10{fill:#153A6D;}
	.st11{fill:#153B6F;}
	.st12{fill:#153C71;}
	.st13{fill:#143D73;}
	.st14{fill:#143E75;}
	.st15{fill:#143E77;}
	.st16{fill:#143F79;}
	.st17{fill:#14407B;}
	.st18{fill:#14417D;}
	.st19{fill:#14427F;}
	.st20{fill:#144381;}
	.st21{fill:#144383;}
	.st22{fill:#144485;}
	.st23{fill:#144587;}
	.st24{fill:#144689;}
	.st25{fill:#14478B;}
	.st26{fill:#14488D;}
	.st27{fill:#14488F;}
	.st28{fill:#144991;}
	.st29{fill:#134A93;}
	.st30{fill:#134B95;}
	.st31{fill:#134C97;}
	.st32{fill:#134D99;}
	.st33{fill:#134D9B;}
	.st34{fill:#134E9D;}
	.st35{fill:#134F9F;}
	.st36{fill:#1350A1;}
	.st37{fill-rule:evenodd;clip-rule:evenodd;fill:#F1E7ED;}
	.st38{fill-rule:evenodd;clip-rule:evenodd;fill:#A893D0;}
	.st39{opacity:0.5;fill-rule:evenodd;clip-rule:evenodd;fill:#5D2C84;}
	.st40{fill-rule:evenodd;clip-rule:evenodd;fill:#CABDE2;}
	.st41{fill-rule:evenodd;clip-rule:evenodd;fill:#704E8D;}
	.st42{fill-rule:evenodd;clip-rule:evenodd;fill:#FBF9FB;}
	.st43{opacity:0.83;fill-rule:evenodd;clip-rule:evenodd;fill:url(#SVGID_2_);}
	.st44{opacity:0.83;fill-rule:evenodd;clip-rule:evenodd;fill:url(#SVGID_3_);}
	.st45{fill:#8D6B96;}
	.st46{opacity:0.2;fill-rule:evenodd;clip-rule:evenodd;fill:#864C90;}
	.st47{fill-rule:evenodd;clip-rule:evenodd;fill:#CECBEA;}
	.st48{fill-rule:evenodd;clip-rule:evenodd;fill:#39175A;}
	.st49{fill-rule:evenodd;clip-rule:evenodd;fill:#F83D45;}
	.st50{fill-rule:evenodd;clip-rule:evenodd;fill:#B32742;}
	.st51{fill-rule:evenodd;clip-rule:evenodd;fill:#A28BCC;}
	.st52{opacity:0.5;fill-rule:evenodd;clip-rule:evenodd;fill:#864C90;}
	.st53{fill-rule:evenodd;clip-rule:evenodd;fill:url(#SVGID_4_);}
	.st54{fill-rule:evenodd;clip-rule:evenodd;fill:url(#SVGID_6_);}
	.st55{fill:#B32742;}
	.st56{fill-rule:evenodd;clip-rule:evenodd;fill:url(#SVGID_8_);}
	.st57{fill-rule:evenodd;clip-rule:evenodd;fill:url(#SVGID_9_);}
	.st58{fill-rule:evenodd;clip-rule:evenodd;fill:#7A5AC4;}
	.st59{fill-rule:evenodd;clip-rule:evenodd;fill:#7A5AA7;}
	.st60{fill-rule:evenodd;clip-rule:evenodd;fill:#5A2967;}
	.st61{fill-rule:evenodd;clip-rule:evenodd;fill:#C4D1ED;}
	.st62{opacity:0.5;fill-rule:evenodd;clip-rule:evenodd;fill:#6D4C90;}
	.st63{fill:#7A5AA7;}
	.st64{fill:#39175A;}
	.st65{fill-rule:evenodd;clip-rule:evenodd;fill:url(#SVGID_10_);}
	.st66{fill:#FFFFFF;}
	.st67{fill-rule:evenodd;clip-rule:evenodd;fill:url(#SVGID_11_);}
	.st68{fill-rule:evenodd;clip-rule:evenodd;fill:url(#SVGID_12_);}
	.st69{fill-rule:evenodd;clip-rule:evenodd;fill:url(#SVGID_13_);}
	.st70{fill-rule:evenodd;clip-rule:evenodd;fill:url(#SVGID_14_);}
	.st71{fill-rule:evenodd;clip-rule:evenodd;fill:url(#SVGID_15_);}
	.st72{fill-rule:evenodd;clip-rule:evenodd;fill:url(#SVGID_16_);}
	.st73{fill-rule:evenodd;clip-rule:evenodd;fill:url(#SVGID_17_);}
	.st74{fill-rule:evenodd;clip-rule:evenodd;fill:url(#SVGID_18_);}
	.st75{fill-rule:evenodd;clip-rule:evenodd;fill:url(#SVGID_19_);}
	.st76{opacity:0.4;fill-rule:evenodd;clip-rule:evenodd;fill:#864C90;}
	.st77{fill-rule:evenodd;clip-rule:evenodd;fill:url(#SVGID_20_);}
	.st78{fill-rule:evenodd;clip-rule:evenodd;fill:#FFFFFF;}
	.st79{fill-rule:evenodd;clip-rule:evenodd;fill:url(#SVGID_21_);}
	.st80{opacity:0.44;fill-rule:evenodd;clip-rule:evenodd;fill:#60003B;}
	.st81{fill-rule:evenodd;clip-rule:evenodd;fill:url(#SVGID_22_);}
	.st82{fill-rule:evenodd;clip-rule:evenodd;fill:url(#SVGID_23_);}
	.st83{fill-rule:evenodd;clip-rule:evenodd;fill:url(#SVGID_24_);}
	.st84{fill-rule:evenodd;clip-rule:evenodd;fill:url(#SVGID_25_);}
	.st85{fill-rule:evenodd;clip-rule:evenodd;fill:url(#SVGID_26_);}
	.st86{fill-rule:evenodd;clip-rule:evenodd;fill:url(#SVGID_27_);}
	.st87{fill-rule:evenodd;clip-rule:evenodd;fill:url(#SVGID_28_);}
	.st88{fill-rule:evenodd;clip-rule:evenodd;fill:url(#SVGID_29_);}
	.st89{fill-rule:evenodd;clip-rule:evenodd;fill:url(#SVGID_30_);}
	.st90{fill-rule:evenodd;clip-rule:evenodd;fill:url(#SVGID_31_);}
	.st91{fill-rule:evenodd;clip-rule:evenodd;fill:url(#SVGID_32_);}
	.st92{fill-rule:evenodd;clip-rule:evenodd;fill:url(#SVGID_33_);}
	.st93{fill-rule:evenodd;clip-rule:evenodd;fill:url(#SVGID_34_);}
	.st94{fill-rule:evenodd;clip-rule:evenodd;fill:url(#SVGID_35_);}
	.st95{fill-rule:evenodd;clip-rule:evenodd;fill:url(#SVGID_36_);}
	.st96{fill-rule:evenodd;clip-rule:evenodd;fill:url(#SVGID_37_);}
	.st97{fill-rule:evenodd;clip-rule:evenodd;fill:url(#SVGID_38_);}
	.st98{fill-rule:evenodd;clip-rule:evenodd;fill:url(#SVGID_39_);}
	.st99{fill-rule:evenodd;clip-rule:evenodd;fill:url(#SVGID_40_);}
	.st100{fill-rule:evenodd;clip-rule:evenodd;fill:url(#SVGID_41_);}
	.st101{fill-rule:evenodd;clip-rule:evenodd;fill:url(#SVGID_42_);}
	.st102{fill-rule:evenodd;clip-rule:evenodd;fill:url(#SVGID_43_);}
	.st103{fill-rule:evenodd;clip-rule:evenodd;fill:url(#SVGID_44_);}
	.st104{fill:#F2E225;}
	.st105{opacity:0.4;fill:url(#SVGID_45_);}
	.st106{fill:#814BA2;}
	.st107{fill:#925CB4;}
	.st108{fill:#B289C9;}
	.st109{fill:#A274BF;}
	.st110{opacity:0.4;fill:url(#SVGID_46_);}
	.st111{fill:#813034;}
	.st112{fill:#802F34;}
	.st113{fill:#AFD2EF;}
	.st114{fill:#E54C3C;}
	.st115{fill:#57607F;}
	.st116{fill:#BF3A2C;}
	.st117{fill:#BF3A2B;}
	.st118{fill:#8796C8;}
	.st119{fill:#C88D95;}
	.st120{fill:#8696C9;}
	.st121{fill:#56607F;}
	.st122{fill:#E3E4E6;}
	.st123{fill:#D8DADE;}
	.st124{opacity:0.4;fill:url(#SVGID_47_);}
	.st125{fill:#F2582F;}
	.st126{fill:#FF7043;}
	.st127{fill:#8E2611;}
	.st128{fill:#E53935;}
	.st129{fill:#F0534A;}
	.st130{fill:#D5D5D3;}
	.st131{opacity:0.4;fill:url(#SVGID_48_);}
	.st132{fill:#F8749D;}
	.st133{fill:#403063;}
	.st134{fill:#403365;}
	.st135{fill:#403264;}
	.st136{fill:#413265;}
	.st137{fill:#E4E5E6;}
	.st138{fill:#E2E2E4;}
	.st139{fill:#DEDEE2;}
	.st140{fill:#3D2E61;}
	.st141{fill:#FDF7F9;}
	.st142{fill:#FDD6E4;}
	.st143{opacity:0.4;fill:url(#SVGID_49_);}
	.st144{fill:#C20047;}
	.st145{fill:#FE405C;}
	.st146{fill:#B1D3EF;}
	.st147{fill:#E0F1FD;}
	.st148{opacity:0.4;fill:url(#SVGID_50_);}
	.st149{opacity:0.4;fill:url(#SVGID_51_);}
	.st150{opacity:0.4;fill:url(#SVGID_52_);}
	.st151{opacity:0.4;fill:url(#SVGID_53_);}
	.st152{opacity:0.4;fill:url(#SVGID_54_);}
	.st153{opacity:0.4;fill:url(#SVGID_55_);}
	.st154{opacity:0.4;fill:url(#SVGID_56_);}
	.st155{fill:#FF5F85;}
	.st156{fill:#FFE878;}
	.st157{fill:#B2527E;}
	.st158{fill:#004FAB;}
	.st159{fill:#57A3FE;}
	.st160{fill:#FEFEFE;}
	.st161{fill:#37A6CD;}
	.st162{fill:#E19A4B;}
	.st163{fill:#54BBE8;}
	.st164{fill:#FBB55F;}
	.st165{fill:#E29A4C;}
	.st166{fill:#E4E8E9;}
	.st167{fill:#D1D0D0;}
	.st168{fill:#E3E7E8;}
	.st169{fill:#566369;}
	.st170{fill:#E19A4C;}
	.st171{fill:#445155;}
	.st172{fill:#E4E7E7;}
	.st173{fill:#566368;}
	.st174{fill:#6E7A7E;}
	.st175{fill:#435054;}
	.st176{fill:#5E5461;}
	.st177{fill:#6F6571;}
	.st178{fill:#5D5360;}
	.st179{fill:#4B3F4E;}
	.st180{fill:#FCCE64;}
	.st181{fill:#FEDF7E;}
	.st182{fill:#857D86;}
	.st183{fill:#3E8FC8;}
	.st184{fill:#FCB630;}
	.st185{fill:#88B237;}
	.st186{fill:#E7594A;}
	.st187{fill:#4398D0;}
	.st188{fill:#D55245;}
	.st189{fill:#80A734;}
	.st190{fill:#FEA71A;}
	.st191{fill:#FAD390;}
	.st192{fill:#F2D45C;}
	.st193{fill:#FA7B76;}
	.st194{fill:#FE5364;}
	.st195{fill:#F8E3C1;}
	.st196{fill:#2D5871;}
	.st197{fill:#FDD8A7;}
	.st198{fill:#E0EEFA;}
	.st199{fill:#F3C792;}
	.st200{fill:#CBDEEC;}
	.st201{fill:#FE4D4C;}
	.st202{fill:#F23A3A;}
	.st203{fill:#1D4859;}
	.st204{fill:#FEB025;}
	.st205{fill:#FE901D;}
	.st206{fill:#1E495A;}
	.st207{fill:#2F5972;}
	.st208{fill:#F3C892;}
	.st209{opacity:0.4;fill:url(#SVGID_57_);}
	.st210{opacity:0.4;fill:url(#SVGID_58_);}
	.st211{fill:#949AA8;}
	.st212{fill:#B3B3B3;}
	.st213{fill:#575D72;}
	.st214{fill:#A3E0F4;}
	.st215{fill:#C2EAF8;}
	.st216{fill:#28304E;}
	.st217{fill:#EC5176;}
	.st218{fill:#FECC34;}
	.st219{fill:#FE76A3;}
	.st220{fill:#E69115;}
	.st221{fill:#FF0000;}
	.st222{fill:#F4AE00;}
	.st223{opacity:0.12;fill:#1B1E23;}
	.st224{fill:#E7E8FA;}
	.st225{fill:#57A845;}
	.st226{fill:none;stroke:#283847;stroke-width:1.2169;stroke-miterlimit:10;}
	.st227{opacity:0.5;fill:#283847;}
	.st228{fill:#6B98F6;}
	.st229{fill:#79AFFF;}
	.st230{clip-path:url(#XMLID_3_);fill:#79AFFF;}
	.st231{clip-path:url(#XMLID_3_);}
	.st232{fill:none;stroke:#212121;stroke-width:1.5836;stroke-linecap:round;stroke-linejoin:round;stroke-miterlimit:10;}
	.st233{fill:#17566C;}
	.st234{clip-path:url(#XMLID_6_);fill:#79AFFF;}
	.st235{clip-path:url(#XMLID_6_);fill:#2072A9;}
	.st236{clip-path:url(#XMLID_6_);fill:#2175B8;}
	.st237{opacity:0.02;clip-path:url(#XMLID_9_);}
	.st238{opacity:0.13;clip-path:url(#XMLID_9_);fill:#FFFFFF;}
	.st239{fill:none;stroke:#212121;stroke-width:0.5;stroke-linecap:round;stroke-linejoin:round;stroke-miterlimit:10;}
	.st240{fill:#212121;}
	.st241{opacity:0.02;clip-path:url(#XMLID_19_);}
	.st242{opacity:0.13;clip-path:url(#XMLID_19_);fill:#FFFFFF;}
	.st243{clip-path:url(#XMLID_20_);fill:#B0C7D8;}
	.st244{clip-path:url(#XMLID_21_);fill:#3A4149;}
	.st245{fill:#FBFFFF;}
	.st246{fill:#EEEEEE;}
	.st247{fill:#FF7B35;}
	.st248{fill:#509DFF;}
	.st249{fill:#B0C7D8;}
	.st250{opacity:0.3;fill:#FFFFFC;}
	.st251{clip-path:url(#XMLID_26_);fill:#FC6C2B;}
	.st252{fill:#B8D0E5;}
	.st253{fill:none;stroke:#000000;stroke-width:2.5763;stroke-miterlimit:10;}
	.st254{opacity:0.12;clip-path:url(#XMLID_27_);}
	.st255{clip-path:url(#XMLID_28_);fill:#217AAB;}
	.st256{opacity:0.2;}
	.st257{opacity:0.12;clip-path:url(#XMLID_29_);fill:#FFFFFF;}
	.st258{opacity:0.03;clip-path:url(#XMLID_42_);}
	.st259{opacity:0.03;clip-path:url(#XMLID_43_);fill:#010102;}
	.st260{opacity:0.04;clip-path:url(#XMLID_44_);}
	.st261{fill:#FDAF00;}
	.st262{fill:#FF7C00;}
	.st263{opacity:0.3;clip-path:url(#XMLID_45_);}
	.st264{opacity:0.3;}
	.st265{fill:none;stroke:#212121;stroke-width:0.9542;stroke-linecap:round;stroke-linejoin:round;stroke-miterlimit:10;}
	.st266{opacity:0.3;clip-path:url(#XMLID_47_);}
	.st267{fill:none;stroke:#212121;stroke-width:1.188;stroke-linecap:round;stroke-linejoin:round;stroke-miterlimit:10;}
	.st268{fill:#FF9D38;}
	.st269{fill:#C8DFFD;}
	.st270{fill:#A8CCFF;}
	.st271{fill:#D5E9FF;}
	.st272{fill:#B8D0FC;}
	.st273{fill:#0B3563;}
	.st274{fill:none;stroke:#BEDBF7;stroke-width:1.0668;stroke-miterlimit:10;}
	.st275{fill:#25468F;}
	.st276{fill:#E4EEF7;}
	.st277{fill:none;stroke:#3A65C9;stroke-width:1.0668;stroke-miterlimit:10;}
	.st278{fill:none;stroke:#3A65C9;stroke-width:1.001;stroke-miterlimit:10;}
	.st279{fill:#FF5521;}
	.st280{fill:#3A65C9;}
	.st281{fill:none;stroke:#FFCC40;stroke-width:2.1337;stroke-linecap:round;stroke-linejoin:round;stroke-miterlimit:10;}
	.st282{fill:#BEDBF7;}
	.st283{fill:none;stroke:#FFFFFF;stroke-width:1.2169;stroke-miterlimit:10;}
	.st284{fill:#10477B;}
	.st285{fill:#D44C10;}
	.st286{fill:#FF912B;}
	.st287{fill:#FC7600;}
	.st288{fill:#FFAE73;}
	.st289{fill:#FC9F38;}
	.st290{fill:#E65F00;}
	.st291{fill:#4681E1;}
	.st292{fill:#032444;}
	.st293{fill:#0D458E;}
	.st294{fill:#1E3865;}
	.st295{fill:#F48F4E;}
	.st296{fill:#254C82;}
	.st297{fill:#F9924F;}
	.st298{opacity:0.5;}
	.st299{fill:#499936;}
	.st300{fill:url(#SVGID_59_);}
	.st301{opacity:0.08;fill:#FFFFFF;}
	.st302{opacity:0.31;fill:#323197;}
	.st303{fill:#F5F5F7;}
	.st304{fill:#A1C2FF;}
	.st305{fill:#FF8D02;}
	.st306{opacity:0.08;}
	.st307{fill:none;stroke:#FFFFFF;stroke-width:2;stroke-linecap:round;stroke-linejoin:round;stroke-miterlimit:10;}
	.st308{opacity:0.44;fill:none;stroke:#FFFFFF;stroke-miterlimit:10;}
	.st309{opacity:0.4;fill:url(#SVGID_60_);}
	.st310{opacity:0.4;fill:url(#SVGID_61_);}
	.st311{fill:#010200;}
	.st312{opacity:0.4;fill:url(#SVGID_62_);}
	.st313{fill:#F74A2D;stroke:#000000;stroke-width:0.35;stroke-miterlimit:10;}
	.st314{clip-path:url(#SVGID_63_);fill:url(#SVGID_64_);}
	.st315{clip-path:url(#SVGID_63_);fill:url(#SVGID_65_);}
	.st316{clip-path:url(#SVGID_63_);fill:url(#SVGID_66_);}
	.st317{clip-path:url(#SVGID_63_);fill:url(#SVGID_67_);}
	.st318{fill:#393D43;}
	.st319{fill:#FDFDFB;}
	.st320{fill:#0086CE;}
	.st321{fill:#69B545;}
	.st322{fill:#D6347C;}
	.st323{fill:#F07F32;}
	.st324{fill:#6F519D;}
	.st325{fill-rule:evenodd;clip-rule:evenodd;fill:#51555B;}
	.st326{fill-rule:evenodd;clip-rule:evenodd;fill:#393D43;}
	.st327{fill:#003A70;}
	.st328{fill:url(#SVGID_68_);}
	.st329{fill:#003399;}
	.st330{fill-rule:evenodd;clip-rule:evenodd;fill:#003399;}
	.st331{fill:#A1A1A1;}
	.st332{fill-rule:evenodd;clip-rule:evenodd;fill:#006677;}
	.st333{fill-rule:evenodd;clip-rule:evenodd;fill:#E45300;}
	.st334{fill-rule:evenodd;clip-rule:evenodd;fill:#2156A6;}
	.st335{fill:#2156A6;}
	.st336{fill:#FB6E3B;}
	.st337{fill:#00C9BD;}
	.st338{fill-rule:evenodd;clip-rule:evenodd;fill:#00ACD8;}
	.st339{fill-rule:evenodd;clip-rule:evenodd;}
	.st340{fill-rule:evenodd;clip-rule:evenodd;fill:#0056A6;}
	.st341{fill-rule:evenodd;clip-rule:evenodd;fill:#F48120;}
	.st342{fill-rule:evenodd;clip-rule:evenodd;fill:#2E3191;}
	.st343{fill:#FBDA00;}
	.st344{fill:#1F1A17;}
	.st345{fill:#007CC2;}
	.st346{fill:#DA251C;}
	.st347{fill-rule:evenodd;clip-rule:evenodd;fill:#F0F0F0;}
	.st348{fill-rule:evenodd;clip-rule:evenodd;fill:#FECF22;}
	.st349{fill-rule:evenodd;clip-rule:evenodd;fill:#006AB4;}
	.st350{fill-rule:evenodd;clip-rule:evenodd;fill:#D61627;}
	.st351{fill-rule:evenodd;clip-rule:evenodd;fill:#E6E6E6;}
	.st352{fill:#007BC2;}
	.st353{fill:#231F20;}
	.st354{fill:#EC1C25;}
	.st355{fill:#243E92;}
	.st356{fill:#E22228;}
	.st357{fill:#FAD701;}
	.st358{fill-rule:evenodd;clip-rule:evenodd;fill:#E61F20;}
	.st359{fill-rule:evenodd;clip-rule:evenodd;fill:#004B97;}
	.st360{fill-rule:evenodd;clip-rule:evenodd;fill:#E50013;}
	.st361{fill-rule:evenodd;clip-rule:evenodd;fill:url(#SVGID_71_);}
	.st362{fill-rule:evenodd;clip-rule:evenodd;fill:url(#SVGID_72_);}
	.st363{fill-rule:evenodd;clip-rule:evenodd;fill:#412A8B;}
</style>
<linearGradient id="SVGID_2_" gradientUnits="userSpaceOnUse" x1="-2422.4827" y1="-465.829" x2="-2369.5967" y2="-465.829" gradientTransform="matrix(0 1 -1 0 -439.386 2422.4827)">
	<stop  offset="0" style="stop-color:#F9F9F9;stop-opacity:0"/>
	<stop  offset="1" style="stop-color:#EAEAEA"/>
</linearGradient>
<circle style="opacity:0.4;fill:url(#SVGID_2_);" cx="26.44" cy="26.44" r="26.44"/>
<g>
	<path class="st196" d="M9.84,40.97c-0.47-0.03-0.79-0.28-1.03-0.67c-0.06-0.09-0.05-0.22-0.17-0.27c0-4.19,0-8.39,0-12.58
		c0.27-0.51,0.61-0.92,1.25-0.97c0.04,0.04,0.07,0.09,0.12,0.11c0.52,0.31,0.77,0.75,0.77,1.37c-0.01,3.87-0.01,7.74,0,11.61
		c0,0.19-0.03,0.37-0.09,0.55C10.55,40.55,10.18,40.75,9.84,40.97z"/>
	<path class="st197" d="M34.88,34.03c1.12-0.68,2.18-1.46,3.28-2.18c0.61-0.4,1.21-0.81,1.82-1.21c0.8-0.53,1.43-0.53,2.14-0.01
		c0.19,0.14,0.33,0.32,0.42,0.54c-0.58,0.37-1.06,0.86-1.59,1.29c-0.78,0.63-1.53,1.3-2.3,1.94c-0.92,0.77-1.85,1.53-2.76,2.32
		c-0.86,0.74-1.89,1.09-2.99,1.23c-0.89,0.11-1.8,0.14-2.7,0.2c-1.28,0.09-2.55,0.17-3.82,0.27c-0.79,0.06-1.59,0.06-2.38,0.15
		c-0.41,0.05-0.81,0.06-1.22,0.09c-0.51,0.03-1.02,0.18-1.55,0.03c-0.31-0.09-0.61-0.18-0.91-0.29c-1.76-0.66-3.51-1.34-5.27-1.99
		c-0.71-0.27-1.41-0.58-2.14-0.78c0-2.35,0-4.7,0-7.05c1.13-0.02,2.26,0.05,3.38,0.2c0.33,0.09,0.65,0.19,0.98,0.28
		c0.99,0.29,1.85,0.83,2.77,1.27c0.87,0.42,1.76,0.76,2.74,0.84c0.1,0.08,0.23,0.08,0.35,0.09c0.81,0.09,1.62,0.18,2.43,0.27
		c0.37,0.05,0.74,0.11,1.11,0.14c0.58,0.04,1.15,0.19,1.73,0.15c0.04,0.02,0.07,0.06,0.11,0.06c1.55,0.18,2.41,1.41,2.44,2.74
		c0.01,0.31,0.11,0.51,0.47,0.47c0.13-0.01,0.26,0.03,0.39,0.05c0.26,0.02,0.53,0.01,0.79,0.06c0.2,0.04,0.42,0.07,0.61-0.05
		C33.77,34.79,34.32,34.41,34.88,34.03z M30.88,35.05c-0.29-0.03-0.58-0.06-0.87-0.1c-0.85-0.1-1.7-0.21-2.55-0.32
		c-0.8-0.1-1.6-0.19-2.39-0.29c-0.82-0.1-1.64-0.21-2.46-0.31c-0.64-0.08-1.29-0.16-1.93-0.24c-0.4-0.05-0.81-0.11-1.21-0.16
		c-0.16-0.02-0.32,0.02-0.4,0.17c-0.06,0.12-0.08,0.29,0.04,0.37c0.3,0.22,0.6,0.49,0.99,0.51c0.95,0.06,1.9,0.09,2.85,0.13
		c1.1,0.05,2.21,0.08,3.31,0.14c0.93,0.05,1.86,0.02,2.79,0.08C29.65,35.09,30.26,35.1,30.88,35.05z"/>
	<path class="st198" d="M22.78,31.19c-0.97-0.08-1.87-0.43-2.74-0.84c-0.92-0.44-1.78-0.99-2.77-1.27
		c-0.33-0.09-0.65-0.19-0.98-0.28c0-1.92,0-3.83,0-5.75c0-0.11,0.04-0.22-0.06-0.31c0.03-0.03,0.05-0.07,0.08-0.1
		c1.53-1.44,3.05-2.88,4.58-4.31c1.11-1.04,2.22-2.07,3.33-3.11c1.09,1.02,2.19,2.03,3.28,3.05c0.94,0.89,1.86,1.8,2.82,2.67
		c0.43,0.38,0.8,0.83,1.27,1.16c0.18,0.12,0.22,0.3,0.22,0.52c-0.01,4.19,0,8.38,0,12.57c-0.13-0.02-0.26-0.06-0.39-0.05
		c-0.36,0.04-0.47-0.16-0.47-0.47c-0.03-1.34-0.88-2.57-2.44-2.74c-0.04,0-0.08-0.04-0.11-0.06c-0.01-1.64-0.01-3.28-0.02-4.92
		c0-0.62,0-1.24-0.01-1.86c-0.01-0.37-0.15-0.53-0.49-0.53c-0.82,0-1.64,0-2.46,0.01c-0.66,0-1.33,0-1.99,0
		c-0.54,0-0.66,0.12-0.66,0.67C22.78,27.2,22.78,29.19,22.78,31.19z"/>
	<path class="st199" d="M12.92,35.63c0.74,0.2,1.43,0.52,2.14,0.78c1.76,0.66,3.51,1.33,5.27,1.99c0.3,0.11,0.6,0.21,0.91,0.29
		c0.52,0.15,1.04,0,1.55-0.03c0.4-0.03,0.81-0.04,1.22-0.09c0.79-0.09,1.58-0.09,2.38-0.15c1.27-0.1,2.55-0.19,3.82-0.27
		c0.9-0.06,1.81-0.09,2.7-0.2c1.09-0.13,2.12-0.49,2.99-1.23c0.91-0.78,1.84-1.54,2.76-2.32c0.77-0.65,1.52-1.31,2.3-1.94
		c0.53-0.43,1.01-0.92,1.59-1.29c0.35,0.61,0.25,1.39-0.3,1.91c-0.75,0.72-1.54,1.41-2.31,2.1c-0.79,0.71-1.58,1.42-2.38,2.13
		c-0.87,0.77-1.69,1.6-2.62,2.3c-0.69,0.52-1.49,0.76-2.33,0.88c-1.16,0.16-2.32,0.34-3.47,0.5c-1.15,0.17-2.29,0.33-3.44,0.49
		c-1.16,0.16-2.32,0.31-3.47,0.49c-0.73,0.12-1.37-0.1-2.03-0.35c-2.38-0.91-4.76-1.8-7.14-2.7c-0.04-0.02-0.08-0.02-0.13-0.04
		C12.92,37.81,12.92,36.72,12.92,35.63z"/>
	<path class="st200" d="M31.81,35.16c0-4.19,0-8.38,0-12.57c0-0.22-0.04-0.39-0.22-0.52c-0.48-0.33-0.84-0.78-1.27-1.16
		c-0.96-0.86-1.88-1.78-2.82-2.67c-1.09-1.02-2.18-2.03-3.28-3.05c0.37-0.35,0.74-0.7,1.1-1.06c0.17-0.18,0.28-0.19,0.47-0.01
		c1.25,1.19,2.52,2.37,3.78,3.55c1.79,1.68,3.57,3.36,5.36,5.04c-0.09,0.09-0.05,0.21-0.05,0.32c0,3.67,0,7.33,0,11
		c-0.55,0.38-1.11,0.76-1.66,1.13c-0.19,0.13-0.41,0.09-0.61,0.05C32.34,35.17,32.08,35.18,31.81,35.16z"/>
	<path class="st201" d="M19.83,15.74c0.53-0.38,0.97-0.87,1.44-1.32c1.07-0.99,2.13-2.01,3.2-3.01c0.78-0.73,1.38-0.74,2.17,0
		c4.09,3.83,8.17,7.66,12.26,11.49c0.11,0.1,0.23,0.2,0.3,0.35c-0.08,0-0.14,0.05-0.2,0.1c-0.6,0.46-1.27,0.42-1.83-0.1
		c-0.61-0.57-1.24-1.13-1.84-1.72c-1.04-1-2.1-1.97-3.14-2.95c-1.07-1-2.12-2-3.2-2.99c-1.09-1-2.17-2.02-3.24-3.04
		c-0.15-0.14-0.23-0.14-0.38,0c-0.58,0.55-1.18,1.07-1.75,1.63c-1.15,1.12-2.33,2.2-3.5,3.3c-0.74,0.7-1.48,1.4-2.22,2.09
		c-0.95,0.88-1.88,1.78-2.82,2.67c-0.39,0.37-0.78,0.75-1.18,1.11c-0.15,0.13-0.31,0.24-0.51,0.3c-0.57,0.18-1.01-0.04-1.42-0.4
		c0.7-0.78,1.51-1.45,2.26-2.18c0.71-0.69,1.47-1.34,2.15-2.06c0.61-0.5,1.17-1.06,1.72-1.61C18.7,16.87,19.3,16.34,19.83,15.74z"/>
	<path class="st202" d="M11.97,23.25c0.41,0.37,0.85,0.59,1.42,0.4c0.2-0.06,0.36-0.17,0.51-0.3c0.4-0.36,0.79-0.74,1.18-1.11
		c0.94-0.89,1.87-1.79,2.82-2.67c0.75-0.69,1.48-1.39,2.22-2.09c1.17-1.1,2.35-2.19,3.5-3.3c0.57-0.55,1.17-1.08,1.75-1.63
		c0.15-0.14,0.23-0.14,0.38,0c1.07,1.02,2.15,2.04,3.24,3.04c1.07,0.99,2.13,1.99,3.2,2.99c1.05,0.98,2.11,1.95,3.14,2.95
		c0.6,0.58,1.23,1.14,1.84,1.72c0.56,0.52,1.23,0.56,1.83,0.1c0.06-0.05,0.12-0.1,0.2-0.1c0.35,0.55,0.27,1.22-0.21,1.65
		c-0.49,0.44-1.19,0.45-1.69,0c-0.66-0.59-1.3-1.21-1.95-1.81c-0.14-0.13-0.28-0.25-0.42-0.38c-1.79-1.68-3.57-3.36-5.36-5.04
		c-1.26-1.18-2.53-2.36-3.78-3.55c-0.19-0.18-0.3-0.17-0.47,0.01c-0.35,0.37-0.73,0.71-1.1,1.06c-1.11,1.04-2.22,2.07-3.33,3.11
		c-1.53,1.43-3.05,2.87-4.58,4.31c-0.03,0.03-0.05,0.07-0.08,0.1c-0.78,0.72-1.55,1.46-2.33,2.17c-0.79,0.72-1.94,0.35-2.17-0.68
		C11.66,23.86,11.74,23.53,11.97,23.25z"/>
	<path class="st203" d="M12.92,35.63c0,1.09,0,2.18,0,3.26c0,0.21-0.01,0.42-0.01,0.63c0,0.85-0.42,1.38-1.25,1.46
		c-0.6,0.06-1.21,0.07-1.81-0.02c0.34-0.22,0.71-0.41,0.85-0.84c0.06-0.18,0.09-0.36,0.09-0.55c0-3.87-0.01-7.74,0-11.61
		c0-0.62-0.25-1.06-0.77-1.37c-0.05-0.03-0.08-0.08-0.12-0.11c0.65-0.03,1.3-0.08,1.95,0.03c0.64,0.11,1.06,0.64,1.07,1.28
		c0,0.26,0.01,0.53,0.01,0.79C12.92,30.93,12.92,33.28,12.92,35.63z"/>
	<path class="st204" d="M18.1,17.4c-0.56,0.55-1.11,1.11-1.72,1.61c-0.01-1.65-0.01-3.3-0.02-4.95c0-0.27,0.12-0.39,0.38-0.39
		c0.41,0,0.82,0,1.23,0c0.12,0.21,0.14,0.43,0.14,0.66C18.09,15.36,18.1,16.38,18.1,17.4z"/>
	<path class="st205" d="M18.1,17.4c0-1.02-0.01-2.04,0-3.05c0-0.24-0.01-0.46-0.14-0.66c0.5,0,0.99-0.01,1.49-0.01
		c0.26,0,0.38,0.14,0.38,0.39c0,0.56,0,1.12,0,1.69C19.3,16.34,18.7,16.87,18.1,17.4z"/>
	<path class="st206" d="M25.42,24.53c0.82,0,1.64-0.01,2.46-0.01c0.34,0,0.48,0.15,0.49,0.53c0.01,0.62,0.01,1.24,0.01,1.86
		c0.01,1.64,0.01,3.28,0.02,4.92c-0.59,0.04-1.16-0.11-1.73-0.15c-0.37-0.03-0.74-0.09-1.11-0.14c0-2.05,0-4.1,0-6.14
		C25.56,25.1,25.56,24.81,25.42,24.53z"/>
	<path class="st207" d="M25.42,24.53c0.14,0.28,0.13,0.57,0.13,0.87c0,2.05,0,4.1,0,6.14c-0.81-0.09-1.62-0.17-2.43-0.27
		c-0.12-0.01-0.25-0.01-0.35-0.09c0-1.99,0-3.99-0.01-5.98c0-0.55,0.12-0.67,0.66-0.67C24.09,24.53,24.76,24.53,25.42,24.53z"/>
	<path class="st208" d="M30.88,35.05c-0.62,0.05-1.24,0.04-1.85,0c-0.93-0.06-1.86-0.03-2.79-0.08c-1.1-0.06-2.21-0.09-3.31-0.14
		c-0.95-0.04-1.9-0.07-2.85-0.13c-0.39-0.02-0.69-0.29-0.99-0.51c-0.11-0.09-0.1-0.25-0.04-0.37c0.08-0.16,0.24-0.19,0.4-0.17
		c0.4,0.05,0.81,0.1,1.21,0.16c0.64,0.08,1.29,0.16,1.93,0.24c0.82,0.1,1.64,0.21,2.46,0.31c0.8,0.1,1.6,0.19,2.39,0.29
		c0.85,0.1,1.7,0.21,2.55,0.32C30.3,34.99,30.59,35.02,30.88,35.05z"/>
</g>
</svg>
