<?xml version="1.0" encoding="utf-8"?>
<!-- Generator: Adobe Illustrator 24.0.0, SVG Export Plug-In . SVG Version: 6.00 Build 0)  -->
<svg version="1.1" id="Layer_1" xmlns="http://www.w3.org/2000/svg" xmlns:xlink="http://www.w3.org/1999/xlink" x="0px" y="0px"
	 viewBox="0 0 60.24 30.89" style="enable-background:new 0 0 60.24 30.89;" xml:space="preserve">
<style type="text/css">
	.st0{fill:#6C727C;}
	.st1{fill:#FC5E31;}
	.st2{fill:#8CC63F;}
	.st3{fill:#F3F4F5;}
	.st4{fill:#F74A2D;}
	.st5{fill:#153663;}
	.st6{fill:#153765;}
	.st7{fill:#153867;}
	.st8{fill:#153969;}
	.st9{fill:#15396B;}
	.st10{fill:#153A6D;}
	.st11{fill:#153B6F;}
	.st12{fill:#153C71;}
	.st13{fill:#143D73;}
	.st14{fill:#143E75;}
	.st15{fill:#143E77;}
	.st16{fill:#143F79;}
	.st17{fill:#14407B;}
	.st18{fill:#14417D;}
	.st19{fill:#14427F;}
	.st20{fill:#144381;}
	.st21{fill:#144383;}
	.st22{fill:#144485;}
	.st23{fill:#144587;}
	.st24{fill:#144689;}
	.st25{fill:#14478B;}
	.st26{fill:#14488D;}
	.st27{fill:#14488F;}
	.st28{fill:#144991;}
	.st29{fill:#134A93;}
	.st30{fill:#134B95;}
	.st31{fill:#134C97;}
	.st32{fill:#134D99;}
	.st33{fill:#134D9B;}
	.st34{fill:#134E9D;}
	.st35{fill:#134F9F;}
	.st36{fill:#1350A1;}
	.st37{fill-rule:evenodd;clip-rule:evenodd;fill:#F1E7ED;}
	.st38{fill-rule:evenodd;clip-rule:evenodd;fill:#A893D0;}
	.st39{opacity:0.5;fill-rule:evenodd;clip-rule:evenodd;fill:#5D2C84;}
	.st40{fill-rule:evenodd;clip-rule:evenodd;fill:#CABDE2;}
	.st41{fill-rule:evenodd;clip-rule:evenodd;fill:#704E8D;}
	.st42{fill-rule:evenodd;clip-rule:evenodd;fill:#FBF9FB;}
	.st43{opacity:0.83;fill-rule:evenodd;clip-rule:evenodd;fill:url(#SVGID_2_);}
	.st44{opacity:0.83;fill-rule:evenodd;clip-rule:evenodd;fill:url(#SVGID_3_);}
	.st45{fill:#8D6B96;}
	.st46{opacity:0.2;fill-rule:evenodd;clip-rule:evenodd;fill:#864C90;}
	.st47{fill-rule:evenodd;clip-rule:evenodd;fill:#CECBEA;}
	.st48{fill-rule:evenodd;clip-rule:evenodd;fill:#39175A;}
	.st49{fill-rule:evenodd;clip-rule:evenodd;fill:#F83D45;}
	.st50{fill-rule:evenodd;clip-rule:evenodd;fill:#B32742;}
	.st51{fill-rule:evenodd;clip-rule:evenodd;fill:#A28BCC;}
	.st52{opacity:0.5;fill-rule:evenodd;clip-rule:evenodd;fill:#864C90;}
	.st53{fill-rule:evenodd;clip-rule:evenodd;fill:url(#SVGID_4_);}
	.st54{fill-rule:evenodd;clip-rule:evenodd;fill:url(#SVGID_6_);}
	.st55{fill:#B32742;}
	.st56{fill-rule:evenodd;clip-rule:evenodd;fill:url(#SVGID_8_);}
	.st57{fill-rule:evenodd;clip-rule:evenodd;fill:url(#SVGID_9_);}
	.st58{fill-rule:evenodd;clip-rule:evenodd;fill:#7A5AC4;}
	.st59{fill-rule:evenodd;clip-rule:evenodd;fill:#7A5AA7;}
	.st60{fill-rule:evenodd;clip-rule:evenodd;fill:#5A2967;}
	.st61{fill-rule:evenodd;clip-rule:evenodd;fill:#C4D1ED;}
	.st62{opacity:0.5;fill-rule:evenodd;clip-rule:evenodd;fill:#6D4C90;}
	.st63{fill:#7A5AA7;}
	.st64{fill:#39175A;}
	.st65{fill-rule:evenodd;clip-rule:evenodd;fill:url(#SVGID_10_);}
	.st66{fill:#FFFFFF;}
	.st67{fill-rule:evenodd;clip-rule:evenodd;fill:url(#SVGID_11_);}
	.st68{fill-rule:evenodd;clip-rule:evenodd;fill:url(#SVGID_12_);}
	.st69{fill-rule:evenodd;clip-rule:evenodd;fill:url(#SVGID_13_);}
	.st70{fill-rule:evenodd;clip-rule:evenodd;fill:url(#SVGID_14_);}
	.st71{fill-rule:evenodd;clip-rule:evenodd;fill:url(#SVGID_15_);}
	.st72{fill-rule:evenodd;clip-rule:evenodd;fill:url(#SVGID_16_);}
	.st73{fill-rule:evenodd;clip-rule:evenodd;fill:url(#SVGID_17_);}
	.st74{fill-rule:evenodd;clip-rule:evenodd;fill:url(#SVGID_18_);}
	.st75{fill-rule:evenodd;clip-rule:evenodd;fill:url(#SVGID_19_);}
	.st76{opacity:0.4;fill-rule:evenodd;clip-rule:evenodd;fill:#864C90;}
	.st77{fill-rule:evenodd;clip-rule:evenodd;fill:url(#SVGID_20_);}
	.st78{fill-rule:evenodd;clip-rule:evenodd;fill:#FFFFFF;}
	.st79{fill-rule:evenodd;clip-rule:evenodd;fill:url(#SVGID_21_);}
	.st80{opacity:0.44;fill-rule:evenodd;clip-rule:evenodd;fill:#60003B;}
	.st81{fill-rule:evenodd;clip-rule:evenodd;fill:url(#SVGID_22_);}
	.st82{fill-rule:evenodd;clip-rule:evenodd;fill:url(#SVGID_23_);}
	.st83{fill-rule:evenodd;clip-rule:evenodd;fill:url(#SVGID_24_);}
	.st84{fill-rule:evenodd;clip-rule:evenodd;fill:url(#SVGID_25_);}
	.st85{fill-rule:evenodd;clip-rule:evenodd;fill:url(#SVGID_26_);}
	.st86{fill-rule:evenodd;clip-rule:evenodd;fill:url(#SVGID_27_);}
	.st87{fill-rule:evenodd;clip-rule:evenodd;fill:url(#SVGID_28_);}
	.st88{fill-rule:evenodd;clip-rule:evenodd;fill:url(#SVGID_29_);}
	.st89{fill-rule:evenodd;clip-rule:evenodd;fill:url(#SVGID_30_);}
	.st90{fill-rule:evenodd;clip-rule:evenodd;fill:url(#SVGID_31_);}
	.st91{fill-rule:evenodd;clip-rule:evenodd;fill:url(#SVGID_32_);}
	.st92{fill-rule:evenodd;clip-rule:evenodd;fill:url(#SVGID_33_);}
	.st93{fill-rule:evenodd;clip-rule:evenodd;fill:url(#SVGID_34_);}
	.st94{fill-rule:evenodd;clip-rule:evenodd;fill:url(#SVGID_35_);}
	.st95{fill-rule:evenodd;clip-rule:evenodd;fill:url(#SVGID_36_);}
	.st96{fill-rule:evenodd;clip-rule:evenodd;fill:url(#SVGID_37_);}
	.st97{fill-rule:evenodd;clip-rule:evenodd;fill:url(#SVGID_38_);}
	.st98{fill-rule:evenodd;clip-rule:evenodd;fill:url(#SVGID_39_);}
	.st99{fill-rule:evenodd;clip-rule:evenodd;fill:url(#SVGID_40_);}
	.st100{fill-rule:evenodd;clip-rule:evenodd;fill:url(#SVGID_41_);}
	.st101{fill-rule:evenodd;clip-rule:evenodd;fill:url(#SVGID_42_);}
	.st102{fill-rule:evenodd;clip-rule:evenodd;fill:url(#SVGID_43_);}
	.st103{fill-rule:evenodd;clip-rule:evenodd;fill:url(#SVGID_44_);}
	.st104{fill:#F2E225;}
	.st105{opacity:0.4;fill:url(#SVGID_45_);}
	.st106{fill:#814BA2;}
	.st107{fill:#925CB4;}
	.st108{fill:#B289C9;}
	.st109{fill:#A274BF;}
	.st110{opacity:0.4;fill:url(#SVGID_46_);}
	.st111{fill:#813034;}
	.st112{fill:#802F34;}
	.st113{fill:#AFD2EF;}
	.st114{fill:#E54C3C;}
	.st115{fill:#57607F;}
	.st116{fill:#BF3A2C;}
	.st117{fill:#BF3A2B;}
	.st118{fill:#8796C8;}
	.st119{fill:#C88D95;}
	.st120{fill:#8696C9;}
	.st121{fill:#56607F;}
	.st122{fill:#E3E4E6;}
	.st123{fill:#D8DADE;}
	.st124{opacity:0.4;fill:url(#SVGID_47_);}
	.st125{fill:#F2582F;}
	.st126{fill:#FF7043;}
	.st127{fill:#8E2611;}
	.st128{fill:#E53935;}
	.st129{fill:#F0534A;}
	.st130{fill:#D5D5D3;}
	.st131{opacity:0.4;fill:url(#SVGID_48_);}
	.st132{fill:#F8749D;}
	.st133{fill:#403063;}
	.st134{fill:#403365;}
	.st135{fill:#403264;}
	.st136{fill:#413265;}
	.st137{fill:#E4E5E6;}
	.st138{fill:#E2E2E4;}
	.st139{fill:#DEDEE2;}
	.st140{fill:#3D2E61;}
	.st141{fill:#FDF7F9;}
	.st142{fill:#FDD6E4;}
	.st143{opacity:0.4;fill:url(#SVGID_49_);}
	.st144{fill:#C20047;}
	.st145{fill:#FE405C;}
	.st146{fill:#B1D3EF;}
	.st147{fill:#E0F1FD;}
	.st148{opacity:0.4;fill:url(#SVGID_50_);}
	.st149{opacity:0.4;fill:url(#SVGID_51_);}
	.st150{opacity:0.4;fill:url(#SVGID_52_);}
	.st151{opacity:0.4;fill:url(#SVGID_53_);}
	.st152{opacity:0.4;fill:url(#SVGID_54_);}
	.st153{opacity:0.4;fill:url(#SVGID_55_);}
	.st154{opacity:0.4;fill:url(#SVGID_56_);}
	.st155{fill:#FF5F85;}
	.st156{fill:#FFE878;}
	.st157{fill:#B2527E;}
	.st158{fill:#004FAB;}
	.st159{fill:#57A3FE;}
	.st160{fill:#FEFEFE;}
	.st161{fill:#37A6CD;}
	.st162{fill:#E19A4B;}
	.st163{fill:#54BBE8;}
	.st164{fill:#FBB55F;}
	.st165{fill:#E29A4C;}
	.st166{fill:#E4E8E9;}
	.st167{fill:#D1D0D0;}
	.st168{fill:#E3E7E8;}
	.st169{fill:#566369;}
	.st170{fill:#E19A4C;}
	.st171{fill:#445155;}
	.st172{fill:#E4E7E7;}
	.st173{fill:#566368;}
	.st174{fill:#6E7A7E;}
	.st175{fill:#435054;}
	.st176{fill:#5E5461;}
	.st177{fill:#6F6571;}
	.st178{fill:#5D5360;}
	.st179{fill:#4B3F4E;}
	.st180{fill:#FCCE64;}
	.st181{fill:#FEDF7E;}
	.st182{fill:#857D86;}
	.st183{fill:#3E8FC8;}
	.st184{fill:#FCB630;}
	.st185{fill:#88B237;}
	.st186{fill:#E7594A;}
	.st187{fill:#4398D0;}
	.st188{fill:#D55245;}
	.st189{fill:#80A734;}
	.st190{fill:#FEA71A;}
	.st191{fill:#FAD390;}
	.st192{fill:#F2D45C;}
	.st193{fill:#FA7B76;}
	.st194{fill:#FE5364;}
	.st195{fill:#F8E3C1;}
	.st196{fill:#2D5871;}
	.st197{fill:#FDD8A7;}
	.st198{fill:#E0EEFA;}
	.st199{fill:#F3C792;}
	.st200{fill:#CBDEEC;}
	.st201{fill:#FE4D4C;}
	.st202{fill:#F23A3A;}
	.st203{fill:#1D4859;}
	.st204{fill:#FEB025;}
	.st205{fill:#FE901D;}
	.st206{fill:#1E495A;}
	.st207{fill:#2F5972;}
	.st208{fill:#F3C892;}
	.st209{opacity:0.4;fill:url(#SVGID_57_);}
	.st210{opacity:0.4;fill:url(#SVGID_58_);}
	.st211{fill:#949AA8;}
	.st212{fill:#B3B3B3;}
	.st213{fill:#575D72;}
	.st214{fill:#A3E0F4;}
	.st215{fill:#C2EAF8;}
	.st216{fill:#28304E;}
	.st217{fill:#EC5176;}
	.st218{fill:#FECC34;}
	.st219{fill:#FE76A3;}
	.st220{fill:#E69115;}
	.st221{fill:#FF0000;}
	.st222{fill:#F4AE00;}
	.st223{opacity:0.12;fill:#1B1E23;}
	.st224{fill:#E7E8FA;}
	.st225{fill:#57A845;}
	.st226{fill:none;stroke:#283847;stroke-width:1.2169;stroke-miterlimit:10;}
	.st227{opacity:0.5;fill:#283847;}
	.st228{fill:#6B98F6;}
	.st229{fill:#79AFFF;}
	.st230{clip-path:url(#XMLID_3_);fill:#79AFFF;}
	.st231{clip-path:url(#XMLID_3_);}
	.st232{fill:none;stroke:#212121;stroke-width:1.5836;stroke-linecap:round;stroke-linejoin:round;stroke-miterlimit:10;}
	.st233{fill:#17566C;}
	.st234{clip-path:url(#XMLID_6_);fill:#79AFFF;}
	.st235{clip-path:url(#XMLID_6_);fill:#2072A9;}
	.st236{clip-path:url(#XMLID_6_);fill:#2175B8;}
	.st237{opacity:0.02;clip-path:url(#XMLID_9_);}
	.st238{opacity:0.13;clip-path:url(#XMLID_9_);fill:#FFFFFF;}
	.st239{fill:none;stroke:#212121;stroke-width:0.5;stroke-linecap:round;stroke-linejoin:round;stroke-miterlimit:10;}
	.st240{fill:#212121;}
	.st241{opacity:0.02;clip-path:url(#XMLID_19_);}
	.st242{opacity:0.13;clip-path:url(#XMLID_19_);fill:#FFFFFF;}
	.st243{clip-path:url(#XMLID_20_);fill:#B0C7D8;}
	.st244{clip-path:url(#XMLID_21_);fill:#3A4149;}
	.st245{fill:#FBFFFF;}
	.st246{fill:#EEEEEE;}
	.st247{fill:#FF7B35;}
	.st248{fill:#509DFF;}
	.st249{fill:#B0C7D8;}
	.st250{opacity:0.3;fill:#FFFFFC;}
	.st251{clip-path:url(#XMLID_26_);fill:#FC6C2B;}
	.st252{fill:#B8D0E5;}
	.st253{fill:none;stroke:#000000;stroke-width:2.5763;stroke-miterlimit:10;}
	.st254{opacity:0.12;clip-path:url(#XMLID_27_);}
	.st255{clip-path:url(#XMLID_28_);fill:#217AAB;}
	.st256{opacity:0.2;}
	.st257{opacity:0.12;clip-path:url(#XMLID_29_);fill:#FFFFFF;}
	.st258{opacity:0.03;clip-path:url(#XMLID_42_);}
	.st259{opacity:0.03;clip-path:url(#XMLID_43_);fill:#010102;}
	.st260{opacity:0.04;clip-path:url(#XMLID_44_);}
	.st261{fill:#FDAF00;}
	.st262{fill:#FF7C00;}
	.st263{opacity:0.3;clip-path:url(#XMLID_45_);}
	.st264{opacity:0.3;}
	.st265{fill:none;stroke:#212121;stroke-width:0.9542;stroke-linecap:round;stroke-linejoin:round;stroke-miterlimit:10;}
	.st266{opacity:0.3;clip-path:url(#XMLID_47_);}
	.st267{fill:none;stroke:#212121;stroke-width:1.188;stroke-linecap:round;stroke-linejoin:round;stroke-miterlimit:10;}
	.st268{fill:#FF9D38;}
	.st269{fill:#C8DFFD;}
	.st270{fill:#A8CCFF;}
	.st271{fill:#D5E9FF;}
	.st272{fill:#B8D0FC;}
	.st273{fill:#0B3563;}
	.st274{fill:none;stroke:#BEDBF7;stroke-width:1.0668;stroke-miterlimit:10;}
	.st275{fill:#25468F;}
	.st276{fill:#E4EEF7;}
	.st277{fill:none;stroke:#3A65C9;stroke-width:1.0668;stroke-miterlimit:10;}
	.st278{fill:none;stroke:#3A65C9;stroke-width:1.001;stroke-miterlimit:10;}
	.st279{fill:#FF5521;}
	.st280{fill:#3A65C9;}
	.st281{fill:none;stroke:#FFCC40;stroke-width:2.1337;stroke-linecap:round;stroke-linejoin:round;stroke-miterlimit:10;}
	.st282{fill:#BEDBF7;}
	.st283{fill:none;stroke:#FFFFFF;stroke-width:1.2169;stroke-miterlimit:10;}
	.st284{fill:#10477B;}
	.st285{fill:#D44C10;}
	.st286{fill:#FF912B;}
	.st287{fill:#FC7600;}
	.st288{fill:#FFAE73;}
	.st289{fill:#FC9F38;}
	.st290{fill:#E65F00;}
	.st291{fill:#4681E1;}
	.st292{fill:#032444;}
	.st293{fill:#0D458E;}
	.st294{fill:#1E3865;}
	.st295{fill:#F48F4E;}
	.st296{fill:#254C82;}
	.st297{fill:#F9924F;}
	.st298{opacity:0.5;}
	.st299{fill:#499936;}
	.st300{fill:url(#SVGID_59_);}
	.st301{opacity:0.08;fill:#FFFFFF;}
	.st302{opacity:0.31;fill:#323197;}
	.st303{fill:#F5F5F7;}
	.st304{fill:#A1C2FF;}
	.st305{fill:#FF8D02;}
	.st306{opacity:0.08;}
	.st307{fill:none;stroke:#FFFFFF;stroke-width:2;stroke-linecap:round;stroke-linejoin:round;stroke-miterlimit:10;}
	.st308{opacity:0.44;fill:none;stroke:#FFFFFF;stroke-miterlimit:10;}
	.st309{opacity:0.4;fill:url(#SVGID_60_);}
	.st310{opacity:0.4;fill:url(#SVGID_61_);}
	.st311{fill:#010200;}
	.st312{opacity:0.4;fill:url(#SVGID_62_);}
	.st313{fill:#F74A2D;stroke:#000000;stroke-width:0.35;stroke-miterlimit:10;}
	.st314{clip-path:url(#SVGID_63_);fill:url(#SVGID_64_);}
	.st315{clip-path:url(#SVGID_63_);fill:url(#SVGID_65_);}
	.st316{clip-path:url(#SVGID_63_);fill:url(#SVGID_66_);}
	.st317{clip-path:url(#SVGID_63_);fill:url(#SVGID_67_);}
	.st318{fill:#393D43;}
	.st319{fill:#FDFDFB;}
	.st320{fill:#0086CE;}
	.st321{fill:#69B545;}
	.st322{fill:#D6347C;}
	.st323{fill:#F07F32;}
	.st324{fill:#6F519D;}
	.st325{fill-rule:evenodd;clip-rule:evenodd;fill:#51555B;}
	.st326{fill-rule:evenodd;clip-rule:evenodd;fill:#393D43;}
	.st327{fill:#003A70;}
	.st328{fill:url(#SVGID_68_);}
	.st329{fill:#003399;}
	.st330{fill-rule:evenodd;clip-rule:evenodd;fill:#003399;}
	.st331{fill:#A1A1A1;}
	.st332{fill-rule:evenodd;clip-rule:evenodd;fill:#006677;}
	.st333{fill-rule:evenodd;clip-rule:evenodd;fill:#E45300;}
	.st334{fill-rule:evenodd;clip-rule:evenodd;fill:#2156A6;}
	.st335{fill:#2156A6;}
	.st336{fill:#FB6E3B;}
	.st337{fill:#00C9BD;}
	.st338{fill-rule:evenodd;clip-rule:evenodd;fill:#00ACD8;}
	.st339{fill-rule:evenodd;clip-rule:evenodd;}
	.st340{fill-rule:evenodd;clip-rule:evenodd;fill:#0056A6;}
	.st341{fill-rule:evenodd;clip-rule:evenodd;fill:#F48120;}
	.st342{fill-rule:evenodd;clip-rule:evenodd;fill:#2E3191;}
	.st343{fill:#FBDA00;}
	.st344{fill:#1F1A17;}
	.st345{fill:#007CC2;}
	.st346{fill:#DA251C;}
	.st347{fill-rule:evenodd;clip-rule:evenodd;fill:#F0F0F0;}
	.st348{fill-rule:evenodd;clip-rule:evenodd;fill:#FECF22;}
	.st349{fill-rule:evenodd;clip-rule:evenodd;fill:#006AB4;}
	.st350{fill-rule:evenodd;clip-rule:evenodd;fill:#D61627;}
	.st351{fill-rule:evenodd;clip-rule:evenodd;fill:#E6E6E6;}
	.st352{fill:#007BC2;}
	.st353{fill:#231F20;}
	.st354{fill:#EC1C25;}
	.st355{fill:#243E92;}
	.st356{fill:#E22228;}
	.st357{fill:#FAD701;}
	.st358{fill-rule:evenodd;clip-rule:evenodd;fill:#E61F20;}
	.st359{fill-rule:evenodd;clip-rule:evenodd;fill:#004B97;}
	.st360{fill-rule:evenodd;clip-rule:evenodd;fill:#E50013;}
	.st361{fill-rule:evenodd;clip-rule:evenodd;fill:url(#SVGID_71_);}
	.st362{fill-rule:evenodd;clip-rule:evenodd;fill:url(#SVGID_72_);}
	.st363{fill-rule:evenodd;clip-rule:evenodd;fill:#412A8B;}
</style>
<path class="st66" d="M54.71,30.89H5.53C2.48,30.89,0,28.42,0,25.36V5.53C0,2.48,2.48,0,5.53,0h49.18c3.05,0,5.53,2.48,5.53,5.53
	v19.83C60.24,28.42,57.77,30.89,54.71,30.89z"/>
<g>
	<path class="st347" d="M10.98,8.4h38.17c0.32,0,0.61,0.13,0.83,0.34c0.21,0.21,0.34,0.5,0.34,0.83v11.26
		c0,0.32-0.13,0.61-0.34,0.83c-0.21,0.21-0.5,0.34-0.83,0.34H10.98c-0.32,0-0.61-0.13-0.83-0.34c-0.21-0.21-0.34-0.5-0.34-0.83V9.57
		c0-0.32,0.13-0.61,0.34-0.83C10.37,8.53,10.66,8.4,10.98,8.4z"/>
	<path class="st348" d="M49.88,17.63v3.2c0,0.4-0.33,0.72-0.72,0.72H10.98c-0.4,0-0.72-0.33-0.72-0.72v-3.2H49.88z"/>
	<rect x="10.26" y="13.23" class="st349" width="39.62" height="3.94"/>
	<path class="st350" d="M10.98,8.85h38.17c0.4,0,0.72,0.33,0.72,0.72v3.2H10.26v-3.2C10.26,9.17,10.59,8.85,10.98,8.85z"/>
	<path class="st351" d="M16.31,11.6c2.66-0.79,4.91-1.26,7.05-1.53c1.92-0.24,3.74-0.33,5.7-0.35V9.72h0.67h0.76h0.67v0.01
		c1.94,0.02,3.75,0.11,5.66,0.35c2.13,0.27,4.37,0.74,7.01,1.52c0.29,0.09,0.57,0.22,0.79,0.43c0.22,0.22,0.36,0.51,0.36,0.87v2.24
		v0.1v2.24c0,0.36-0.14,0.65-0.36,0.87c-0.21,0.21-0.49,0.35-0.79,0.43c-2.64,0.78-4.88,1.25-7.01,1.52
		c-1.91,0.24-3.72,0.33-5.66,0.35v0.01h-0.67h-0.02v0l-0.22,0l-0.04,0v0h-0.28v0l-0.39,0v0c-2.11-0.01-4.05-0.08-6.08-0.34
		c-2.16-0.27-4.44-0.74-7.15-1.54c-0.29-0.09-0.57-0.22-0.79-0.43c-0.22-0.22-0.36-0.51-0.36-0.87v-2.24v-0.1v-2.24
		c0-0.36,0.14-0.65,0.36-0.87C15.74,11.82,16.02,11.68,16.31,11.6z"/>
	<g>
		<path class="st349" d="M34.67,16.75c-0.16-0.23-0.01-0.62,0.11-0.83c0.12-0.23,0.31-0.52,0.6-0.46
			C35.51,15.93,35.09,16.8,34.67,16.75L34.67,16.75z M25.67,15.43c0.21,0.54-0.49,1.52-0.73,1.25
			C24.75,16.46,25.2,15.31,25.67,15.43L25.67,15.43z M27.15,16.68l-0.08-0.18c-0.23,0.05-0.6,0.27-0.86,0.21
			c-0.14-0.33,0.88-2.47,1.08-3.12l-0.51,0.02c-0.15,0.24-0.41,1.08-0.54,1.25c-0.91-0.1-1.29,0.17-1.66,0.65
			c-0.6,0.79-0.16,0.87-0.61,1.13c-0.4,0.23-0.34,0.1-0.37,0.07c-0.17-0.14,0.3-1.14,0.34-1.36c0.06-0.28-0.09-0.51-0.35-0.49
			c-0.25,0.01-0.43,0.19-0.6,0.28c-0.61,0.33-0.04-0.94-1.69,0.23c-0.13,0.09-0.45,0.28-0.51,0.34c0.01-0.1,0.49-1.13,0.59-1.37
			c0.19-0.46,0.37-0.94,0.53-1.42c-0.6-0.04-2.39,0.27-2.93,0.75c-1.03,0.92,0.2,2.13,1.01,1.2c-0.2-0.14-0.5,0-0.54-0.37
			c-0.04-0.31,0.07-0.52,0.24-0.65c0.2-0.16,1.1-0.32,1.42-0.38c-0.03,0.17-0.17,0.48-0.24,0.67c-0.35,0.99-0.79,2.5-2.05,2.53
			c-0.66,0.02-0.85-0.27-1.08-0.72c-0.14,0.16-0.2,0.5-0.12,0.75c0.07,0.22,0.25,0.37,0.45,0.47c0.99,0.48,1.85-0.33,2.55-0.87
			c0.18-0.14,0.83-0.8,1.17-0.64c0.19,0.37-0.36,1.16-0.37,1.55l0.65,0.01c0.12-0.32,0.21-0.67,0.32-1.01
			c0.09-0.29,0.23-0.8,0.6-0.54c0.14,0.39-0.47,1.19-0.13,1.46c0.35,0.28,1.13-0.28,1.32-0.39c0.15,0.21,0.14,0.47,0.52,0.53
			c0.3,0.05,0.6-0.09,0.77-0.23c0.11,0.13,0.08,0.26,0.32,0.24C26.01,17.28,26.73,16.81,27.15,16.68L27.15,16.68z M39.47,16.13
			c-0.03-0.34,0.34-0.81,0.61-0.79c0.09,0.2-0.07,0.42-0.17,0.53C39.8,16.01,39.69,16.15,39.47,16.13L39.47,16.13z M29.71,15.33
			l0.07,0.23c0.2-0.06,0.43-0.19,0.63-0.13c0.06,0.39-0.52,1.45-0.61,1.9l0.64-0.01c0.13-0.21,0.26-0.71,0.36-0.97
			c0.1-0.27,0.22-0.8,0.59-0.67c0.22,0.43-0.38,1.21-0.42,1.63l0.73,0.01c0.13-0.39,0.29-0.87,0.45-1.26
			c0.08-0.19,0.16-0.49,0.44-0.41c0.32,0.09-0.23,0.69-0.23,1.23c0,0.24,0.16,0.45,0.4,0.43c0.32-0.03,0.85-0.47,1.12-0.53
			c0.12,0.28,0.15,0.46,0.48,0.51c0.34,0.05,0.55-0.11,0.77-0.23c0.01,0.01,0.01,0.02,0.02,0.02l0.05,0.07
			c0.07,0.1,0.1,0.17,0.27,0.19c0.54,0.05,1.33-0.8,1.64-1.21c0.35-0.46,0.21-0.42,0.65-0.46c-0.1,0.42-0.58,1.1-0.17,1.5
			c0.41,0.41,1.22-0.14,1.47-0.29c0.23,0.25,0.35,0.47,0.89,0.45c0.43-0.02,0.66-0.19,1-0.29c0.42,0.68,1.77,0.01,1.72-0.4
			c-0.18-0.03-0.38,0.21-0.56,0.31c-0.25,0.13-0.5,0.05-0.51-0.24c0-0.14,0.34-1.21,0.41-1.34l0.41,0l0.14-0.47l-0.29-0.01
			c0.05-0.49,0.31-0.91,0.4-1.34l-0.58,0.02l-0.46,1.28l-0.42,0.02l-0.1,0.48l0.33-0.01c-0.07,0.46-0.33,1.07-0.57,1.36
			c-0.24,0.3-1.1,0.48-1.26-0.05c0.2-0.23,0.55-0.28,0.83-0.75c0.69-1.19-0.69-1.34-1.25-0.51c-0.35,0.52-0.24,0.68-0.22,1.29
			c-0.69,0.39-0.94,0.46-0.87-0.22c0.06-0.69,0.17-0.58,0.28-0.71c0.09-0.09,0.12-0.26,0.02-0.35c-0.11-0.11-0.3-0.01-0.5-0.09
			c-0.13-0.32,0.09-0.38,0.18-0.55c-0.12-0.03-0.21-0.01-0.33-0.03c-0.28-0.04-0.03-0.05-0.22-0.16c-0.16,0.06-0.17,0.07-0.23,0.25
			c-0.17,0.53-0.11,0.64-0.39,1.05c-0.16,0.22-0.69,0.96-1.05,0.83c-0.17-0.22,0.48-1.53,0.55-1.85c-0.66-0.05-0.56,0.08-0.65,0.18
			c-0.61-0.27-0.93-0.04-1.3,0.29c-0.53,0.47-0.56,1.15-0.62,1.23c-0.16,0.1-0.49,0.25-0.73,0.16c-0.07-0.27,0.36-1.07,0.42-1.4
			c0.07-0.34-0.13-0.53-0.47-0.44c-0.26,0.07-0.36,0.31-0.6,0.34c-0.2-0.14-0.21-0.44-0.62-0.37c-0.29,0.05-0.31,0.28-0.64,0.34
			c-0.01-0.01-0.01-0.02-0.02-0.03l-0.04-0.09c-0.02-0.05-0.05-0.19-0.13-0.23C30.71,14.8,30.05,15.22,29.71,15.33z"/>
		<path class="st350" d="M28.41,15.14c0.22,0,0.43,0.09,0.57,0.24c0.15,0.15,0.24,0.35,0.24,0.57c0,0.22-0.09,0.43-0.24,0.57
			c-0.15,0.15-0.35,0.24-0.57,0.24c-0.22,0-0.43-0.09-0.57-0.24c-0.15-0.15-0.24-0.35-0.24-0.57c0-0.22,0.09-0.43,0.24-0.57
			C27.99,15.23,28.19,15.14,28.41,15.14L28.41,15.14z M28.41,14.44c-0.42,0-0.79,0.17-1.06,0.44c-0.27,0.27-0.44,0.65-0.44,1.06
			c0,0.42,0.17,0.79,0.44,1.06c0.27,0.27,0.65,0.44,1.06,0.44c0.42,0,0.79-0.17,1.06-0.44c0.27-0.27,0.44-0.65,0.44-1.06
			c0-0.42-0.17-0.79-0.44-1.06C29.2,14.61,28.83,14.44,28.41,14.44L28.41,14.44z M29.36,15c-0.24-0.24-0.58-0.39-0.95-0.39
			c-0.37,0-0.7,0.15-0.95,0.39c-0.24,0.24-0.39,0.58-0.39,0.95c0,0.37,0.15,0.7,0.39,0.95c0.24,0.24,0.58,0.39,0.95,0.39
			c0.37,0,0.7-0.15,0.95-0.39c0.24-0.24,0.39-0.58,0.39-0.95C29.75,15.58,29.6,15.24,29.36,15L29.36,15z M28.41,14.79
			c-0.32,0-0.61,0.13-0.82,0.34c-0.21,0.21-0.34,0.5-0.34,0.82c0,0.32,0.13,0.61,0.34,0.82c0.21,0.21,0.5,0.34,0.82,0.34
			c0.32,0,0.61-0.13,0.82-0.34c0.21-0.21,0.34-0.5,0.34-0.82c0-0.32-0.13-0.61-0.34-0.82C29.02,14.92,28.73,14.79,28.41,14.79
			L28.41,14.79z M29.11,15.25c-0.18-0.18-0.43-0.29-0.7-0.29c-0.27,0-0.52,0.11-0.7,0.29c-0.18,0.18-0.29,0.43-0.29,0.7
			c0,0.27,0.11,0.52,0.29,0.7c0.18,0.18,0.43,0.29,0.7,0.29c0.27,0,0.52-0.11,0.7-0.29c0.18-0.18,0.29-0.43,0.29-0.7
			C29.4,15.67,29.29,15.42,29.11,15.25L29.11,15.25z M28.87,15.49c-0.12-0.12-0.28-0.19-0.45-0.19c-0.18,0-0.34,0.07-0.45,0.19
			c-0.12,0.12-0.19,0.28-0.19,0.45c0,0.18,0.07,0.34,0.19,0.45c0.12,0.12,0.28,0.19,0.45,0.19c0.18,0,0.34-0.07,0.45-0.19
			c0.12-0.12,0.19-0.28,0.19-0.45C29.05,15.77,28.98,15.61,28.87,15.49z"/>
	</g>
	<path class="st350" d="M16.5,12.24c5.25-1.56,8.86-1.85,13.23-1.85v0h0.76v0c4.33,0.01,7.93,0.31,13.15,1.85
		c0.35,0.1,0.67,0.3,0.67,0.67v2.24v0.1v2.24c0,0.37-0.32,0.56-0.67,0.67c-5.22,1.55-8.82,1.84-13.15,1.85v0h-0.02
		c-0.09,0-0.17,0-0.26,0v0h-0.28v0c-4.46,0-8.1-0.28-13.43-1.85c-0.35-0.1-0.67-0.3-0.67-0.67v-2.24v-0.1v-2.24
		C15.83,12.54,16.15,12.34,16.5,12.24L16.5,12.24z M29.82,11.39c-4.08,0.02-7.73,0.17-12.51,1.41c-0.36,0.09-0.67,0.3-0.67,0.67
		v1.69v0.1v1.69c0,0.37,0.31,0.58,0.67,0.67c4.74,1.23,8.38,1.39,12.42,1.41h0.68c4.04-0.02,7.68-0.18,12.42-1.41
		c0.36-0.09,0.67-0.3,0.67-0.67v-1.69v-0.1v-1.69c0-0.37-0.31-0.58-0.67-0.67c-4.78-1.24-8.44-1.39-12.51-1.41H29.82z"/>
</g>
</svg>
