<?xml version="1.0" encoding="utf-8"?>
<!-- Generator: Adobe Illustrator 24.0.0, SVG Export Plug-In . SVG Version: 6.00 Build 0)  -->
<svg version="1.1" id="Layer_1" xmlns="http://www.w3.org/2000/svg" xmlns:xlink="http://www.w3.org/1999/xlink" x="0px" y="0px"
	 viewBox="0 0 52.89 52.89" style="enable-background:new 0 0 52.89 52.89;" xml:space="preserve">
<style type="text/css">
	.st0{fill:#6C727C;}
	.st1{fill:#FC5E31;}
	.st2{fill:#8CC63F;}
	.st3{fill:#F3F4F5;}
	.st4{fill:#F74A2D;}
	.st5{fill:#153663;}
	.st6{fill:#153765;}
	.st7{fill:#153867;}
	.st8{fill:#153969;}
	.st9{fill:#15396B;}
	.st10{fill:#153A6D;}
	.st11{fill:#153B6F;}
	.st12{fill:#153C71;}
	.st13{fill:#143D73;}
	.st14{fill:#143E75;}
	.st15{fill:#143E77;}
	.st16{fill:#143F79;}
	.st17{fill:#14407B;}
	.st18{fill:#14417D;}
	.st19{fill:#14427F;}
	.st20{fill:#144381;}
	.st21{fill:#144383;}
	.st22{fill:#144485;}
	.st23{fill:#144587;}
	.st24{fill:#144689;}
	.st25{fill:#14478B;}
	.st26{fill:#14488D;}
	.st27{fill:#14488F;}
	.st28{fill:#144991;}
	.st29{fill:#134A93;}
	.st30{fill:#134B95;}
	.st31{fill:#134C97;}
	.st32{fill:#134D99;}
	.st33{fill:#134D9B;}
	.st34{fill:#134E9D;}
	.st35{fill:#134F9F;}
	.st36{fill:#1350A1;}
	.st37{fill-rule:evenodd;clip-rule:evenodd;fill:#F1E7ED;}
	.st38{fill-rule:evenodd;clip-rule:evenodd;fill:#A893D0;}
	.st39{opacity:0.5;fill-rule:evenodd;clip-rule:evenodd;fill:#5D2C84;}
	.st40{fill-rule:evenodd;clip-rule:evenodd;fill:#CABDE2;}
	.st41{fill-rule:evenodd;clip-rule:evenodd;fill:#704E8D;}
	.st42{fill-rule:evenodd;clip-rule:evenodd;fill:#FBF9FB;}
	.st43{opacity:0.83;fill-rule:evenodd;clip-rule:evenodd;fill:url(#SVGID_2_);}
	.st44{opacity:0.83;fill-rule:evenodd;clip-rule:evenodd;fill:url(#SVGID_3_);}
	.st45{fill:#8D6B96;}
	.st46{opacity:0.2;fill-rule:evenodd;clip-rule:evenodd;fill:#864C90;}
	.st47{fill-rule:evenodd;clip-rule:evenodd;fill:#CECBEA;}
	.st48{fill-rule:evenodd;clip-rule:evenodd;fill:#39175A;}
	.st49{fill-rule:evenodd;clip-rule:evenodd;fill:#F83D45;}
	.st50{fill-rule:evenodd;clip-rule:evenodd;fill:#B32742;}
	.st51{fill-rule:evenodd;clip-rule:evenodd;fill:#A28BCC;}
	.st52{opacity:0.5;fill-rule:evenodd;clip-rule:evenodd;fill:#864C90;}
	.st53{fill-rule:evenodd;clip-rule:evenodd;fill:url(#SVGID_4_);}
	.st54{fill-rule:evenodd;clip-rule:evenodd;fill:url(#SVGID_6_);}
	.st55{fill:#B32742;}
	.st56{fill-rule:evenodd;clip-rule:evenodd;fill:url(#SVGID_8_);}
	.st57{fill-rule:evenodd;clip-rule:evenodd;fill:url(#SVGID_9_);}
	.st58{fill-rule:evenodd;clip-rule:evenodd;fill:#7A5AC4;}
	.st59{fill-rule:evenodd;clip-rule:evenodd;fill:#7A5AA7;}
	.st60{fill-rule:evenodd;clip-rule:evenodd;fill:#5A2967;}
	.st61{fill-rule:evenodd;clip-rule:evenodd;fill:#C4D1ED;}
	.st62{opacity:0.5;fill-rule:evenodd;clip-rule:evenodd;fill:#6D4C90;}
	.st63{fill:#7A5AA7;}
	.st64{fill:#39175A;}
	.st65{fill-rule:evenodd;clip-rule:evenodd;fill:url(#SVGID_10_);}
	.st66{fill:#FFFFFF;}
	.st67{fill-rule:evenodd;clip-rule:evenodd;fill:url(#SVGID_11_);}
	.st68{fill-rule:evenodd;clip-rule:evenodd;fill:url(#SVGID_12_);}
	.st69{fill-rule:evenodd;clip-rule:evenodd;fill:url(#SVGID_13_);}
	.st70{fill-rule:evenodd;clip-rule:evenodd;fill:url(#SVGID_14_);}
	.st71{fill-rule:evenodd;clip-rule:evenodd;fill:url(#SVGID_15_);}
	.st72{fill-rule:evenodd;clip-rule:evenodd;fill:url(#SVGID_16_);}
	.st73{fill-rule:evenodd;clip-rule:evenodd;fill:url(#SVGID_17_);}
	.st74{fill-rule:evenodd;clip-rule:evenodd;fill:url(#SVGID_18_);}
	.st75{fill-rule:evenodd;clip-rule:evenodd;fill:url(#SVGID_19_);}
	.st76{opacity:0.4;fill-rule:evenodd;clip-rule:evenodd;fill:#864C90;}
	.st77{fill-rule:evenodd;clip-rule:evenodd;fill:url(#SVGID_20_);}
	.st78{fill-rule:evenodd;clip-rule:evenodd;fill:#FFFFFF;}
	.st79{fill-rule:evenodd;clip-rule:evenodd;fill:url(#SVGID_21_);}
	.st80{opacity:0.44;fill-rule:evenodd;clip-rule:evenodd;fill:#60003B;}
	.st81{fill-rule:evenodd;clip-rule:evenodd;fill:url(#SVGID_22_);}
	.st82{fill-rule:evenodd;clip-rule:evenodd;fill:url(#SVGID_23_);}
	.st83{fill-rule:evenodd;clip-rule:evenodd;fill:url(#SVGID_24_);}
	.st84{fill-rule:evenodd;clip-rule:evenodd;fill:url(#SVGID_25_);}
	.st85{fill-rule:evenodd;clip-rule:evenodd;fill:url(#SVGID_26_);}
	.st86{fill-rule:evenodd;clip-rule:evenodd;fill:url(#SVGID_27_);}
	.st87{fill-rule:evenodd;clip-rule:evenodd;fill:url(#SVGID_28_);}
	.st88{fill-rule:evenodd;clip-rule:evenodd;fill:url(#SVGID_29_);}
	.st89{fill-rule:evenodd;clip-rule:evenodd;fill:url(#SVGID_30_);}
	.st90{fill-rule:evenodd;clip-rule:evenodd;fill:url(#SVGID_31_);}
	.st91{fill-rule:evenodd;clip-rule:evenodd;fill:url(#SVGID_32_);}
	.st92{fill-rule:evenodd;clip-rule:evenodd;fill:url(#SVGID_33_);}
	.st93{fill-rule:evenodd;clip-rule:evenodd;fill:url(#SVGID_34_);}
	.st94{fill-rule:evenodd;clip-rule:evenodd;fill:url(#SVGID_35_);}
	.st95{fill-rule:evenodd;clip-rule:evenodd;fill:url(#SVGID_36_);}
	.st96{fill-rule:evenodd;clip-rule:evenodd;fill:url(#SVGID_37_);}
	.st97{fill-rule:evenodd;clip-rule:evenodd;fill:url(#SVGID_38_);}
	.st98{fill-rule:evenodd;clip-rule:evenodd;fill:url(#SVGID_39_);}
	.st99{fill-rule:evenodd;clip-rule:evenodd;fill:url(#SVGID_40_);}
	.st100{fill-rule:evenodd;clip-rule:evenodd;fill:url(#SVGID_41_);}
	.st101{fill-rule:evenodd;clip-rule:evenodd;fill:url(#SVGID_42_);}
	.st102{fill-rule:evenodd;clip-rule:evenodd;fill:url(#SVGID_43_);}
	.st103{fill-rule:evenodd;clip-rule:evenodd;fill:url(#SVGID_44_);}
	.st104{fill:#F2E225;}
	.st105{opacity:0.4;fill:url(#SVGID_45_);}
	.st106{fill:#814BA2;}
	.st107{fill:#925CB4;}
	.st108{fill:#B289C9;}
	.st109{fill:#A274BF;}
	.st110{opacity:0.4;fill:url(#SVGID_46_);}
	.st111{fill:#813034;}
	.st112{fill:#802F34;}
	.st113{fill:#AFD2EF;}
	.st114{fill:#E54C3C;}
	.st115{fill:#57607F;}
	.st116{fill:#BF3A2C;}
	.st117{fill:#BF3A2B;}
	.st118{fill:#8796C8;}
	.st119{fill:#C88D95;}
	.st120{fill:#8696C9;}
	.st121{fill:#56607F;}
	.st122{fill:#E3E4E6;}
	.st123{fill:#D8DADE;}
	.st124{opacity:0.4;fill:url(#SVGID_47_);}
	.st125{fill:#F2582F;}
	.st126{fill:#FF7043;}
	.st127{fill:#8E2611;}
	.st128{fill:#E53935;}
	.st129{fill:#F0534A;}
	.st130{fill:#D5D5D3;}
	.st131{opacity:0.4;fill:url(#SVGID_48_);}
	.st132{fill:#F8749D;}
	.st133{fill:#403063;}
	.st134{fill:#403365;}
	.st135{fill:#403264;}
	.st136{fill:#413265;}
	.st137{fill:#E4E5E6;}
	.st138{fill:#E2E2E4;}
	.st139{fill:#DEDEE2;}
	.st140{fill:#3D2E61;}
	.st141{fill:#FDF7F9;}
	.st142{fill:#FDD6E4;}
	.st143{opacity:0.4;fill:url(#SVGID_49_);}
	.st144{fill:#C20047;}
	.st145{fill:#FE405C;}
	.st146{fill:#B1D3EF;}
	.st147{fill:#E0F1FD;}
	.st148{opacity:0.4;fill:url(#SVGID_50_);}
	.st149{opacity:0.4;fill:url(#SVGID_51_);}
	.st150{opacity:0.4;fill:url(#SVGID_52_);}
	.st151{opacity:0.4;fill:url(#SVGID_53_);}
	.st152{opacity:0.4;fill:url(#SVGID_54_);}
	.st153{opacity:0.4;fill:url(#SVGID_55_);}
	.st154{opacity:0.4;fill:url(#SVGID_56_);}
	.st155{fill:#FF5F85;}
	.st156{fill:#FFE878;}
	.st157{fill:#B2527E;}
	.st158{fill:#004FAB;}
	.st159{fill:#57A3FE;}
	.st160{fill:#FEFEFE;}
	.st161{fill:#37A6CD;}
	.st162{fill:#E19A4B;}
	.st163{fill:#54BBE8;}
	.st164{fill:#FBB55F;}
	.st165{fill:#E29A4C;}
	.st166{fill:#E4E8E9;}
	.st167{fill:#D1D0D0;}
	.st168{fill:#E3E7E8;}
	.st169{fill:#566369;}
	.st170{fill:#E19A4C;}
	.st171{fill:#445155;}
	.st172{fill:#E4E7E7;}
	.st173{fill:#566368;}
	.st174{fill:#6E7A7E;}
	.st175{fill:#435054;}
	.st176{fill:#5E5461;}
	.st177{fill:#6F6571;}
	.st178{fill:#5D5360;}
	.st179{fill:#4B3F4E;}
	.st180{fill:#FCCE64;}
	.st181{fill:#FEDF7E;}
	.st182{fill:#857D86;}
	.st183{fill:#3E8FC8;}
	.st184{fill:#FCB630;}
	.st185{fill:#88B237;}
	.st186{fill:#E7594A;}
	.st187{fill:#4398D0;}
	.st188{fill:#D55245;}
	.st189{fill:#80A734;}
	.st190{fill:#FEA71A;}
	.st191{fill:#FAD390;}
	.st192{fill:#F2D45C;}
	.st193{fill:#FA7B76;}
	.st194{fill:#FE5364;}
	.st195{fill:#F8E3C1;}
	.st196{fill:#2D5871;}
	.st197{fill:#FDD8A7;}
	.st198{fill:#E0EEFA;}
	.st199{fill:#F3C792;}
	.st200{fill:#CBDEEC;}
	.st201{fill:#FE4D4C;}
	.st202{fill:#F23A3A;}
	.st203{fill:#1D4859;}
	.st204{fill:#FEB025;}
	.st205{fill:#FE901D;}
	.st206{fill:#1E495A;}
	.st207{fill:#2F5972;}
	.st208{fill:#F3C892;}
	.st209{opacity:0.4;fill:url(#SVGID_57_);}
	.st210{opacity:0.4;fill:url(#SVGID_58_);}
	.st211{fill:#949AA8;}
	.st212{fill:#B3B3B3;}
	.st213{fill:#575D72;}
	.st214{fill:#A3E0F4;}
	.st215{fill:#C2EAF8;}
	.st216{fill:#28304E;}
	.st217{fill:#EC5176;}
	.st218{fill:#FECC34;}
	.st219{fill:#FE76A3;}
	.st220{fill:#E69115;}
	.st221{fill:#FF0000;}
	.st222{fill:#F4AE00;}
	.st223{opacity:0.12;fill:#1B1E23;}
	.st224{fill:#E7E8FA;}
	.st225{fill:#57A845;}
	.st226{fill:none;stroke:#283847;stroke-width:1.2169;stroke-miterlimit:10;}
	.st227{opacity:0.5;fill:#283847;}
	.st228{fill:#6B98F6;}
	.st229{fill:#79AFFF;}
	.st230{clip-path:url(#XMLID_3_);fill:#79AFFF;}
	.st231{clip-path:url(#XMLID_3_);}
	.st232{fill:none;stroke:#212121;stroke-width:1.5836;stroke-linecap:round;stroke-linejoin:round;stroke-miterlimit:10;}
	.st233{fill:#17566C;}
	.st234{clip-path:url(#XMLID_6_);fill:#79AFFF;}
	.st235{clip-path:url(#XMLID_6_);fill:#2072A9;}
	.st236{clip-path:url(#XMLID_6_);fill:#2175B8;}
	.st237{opacity:0.02;clip-path:url(#XMLID_9_);}
	.st238{opacity:0.13;clip-path:url(#XMLID_9_);fill:#FFFFFF;}
	.st239{fill:none;stroke:#212121;stroke-width:0.5;stroke-linecap:round;stroke-linejoin:round;stroke-miterlimit:10;}
	.st240{fill:#212121;}
	.st241{opacity:0.02;clip-path:url(#XMLID_19_);}
	.st242{opacity:0.13;clip-path:url(#XMLID_19_);fill:#FFFFFF;}
	.st243{clip-path:url(#XMLID_20_);fill:#B0C7D8;}
	.st244{clip-path:url(#XMLID_21_);fill:#3A4149;}
	.st245{fill:#FBFFFF;}
	.st246{fill:#EEEEEE;}
	.st247{fill:#FF7B35;}
	.st248{fill:#509DFF;}
	.st249{fill:#B0C7D8;}
	.st250{opacity:0.3;fill:#FFFFFC;}
	.st251{clip-path:url(#XMLID_26_);fill:#FC6C2B;}
	.st252{fill:#B8D0E5;}
	.st253{fill:none;stroke:#000000;stroke-width:2.5763;stroke-miterlimit:10;}
	.st254{opacity:0.12;clip-path:url(#XMLID_27_);}
	.st255{clip-path:url(#XMLID_28_);fill:#217AAB;}
	.st256{opacity:0.2;}
	.st257{opacity:0.12;clip-path:url(#XMLID_29_);fill:#FFFFFF;}
	.st258{opacity:0.03;clip-path:url(#XMLID_42_);}
	.st259{opacity:0.03;clip-path:url(#XMLID_43_);fill:#010102;}
	.st260{opacity:0.04;clip-path:url(#XMLID_44_);}
	.st261{fill:#FDAF00;}
	.st262{fill:#FF7C00;}
	.st263{opacity:0.3;clip-path:url(#XMLID_45_);}
	.st264{opacity:0.3;}
	.st265{fill:none;stroke:#212121;stroke-width:0.9542;stroke-linecap:round;stroke-linejoin:round;stroke-miterlimit:10;}
	.st266{opacity:0.3;clip-path:url(#XMLID_47_);}
	.st267{fill:none;stroke:#212121;stroke-width:1.188;stroke-linecap:round;stroke-linejoin:round;stroke-miterlimit:10;}
	.st268{fill:#FF9D38;}
	.st269{fill:#C8DFFD;}
	.st270{fill:#A8CCFF;}
	.st271{fill:#D5E9FF;}
	.st272{fill:#B8D0FC;}
	.st273{fill:#0B3563;}
	.st274{fill:none;stroke:#BEDBF7;stroke-width:1.0668;stroke-miterlimit:10;}
	.st275{fill:#25468F;}
	.st276{fill:#E4EEF7;}
	.st277{fill:none;stroke:#3A65C9;stroke-width:1.0668;stroke-miterlimit:10;}
	.st278{fill:none;stroke:#3A65C9;stroke-width:1.001;stroke-miterlimit:10;}
	.st279{fill:#FF5521;}
	.st280{fill:#3A65C9;}
	.st281{fill:none;stroke:#FFCC40;stroke-width:2.1337;stroke-linecap:round;stroke-linejoin:round;stroke-miterlimit:10;}
	.st282{fill:#BEDBF7;}
	.st283{fill:none;stroke:#FFFFFF;stroke-width:1.2169;stroke-miterlimit:10;}
	.st284{fill:#10477B;}
	.st285{fill:#D44C10;}
	.st286{fill:#FF912B;}
	.st287{fill:#FC7600;}
	.st288{fill:#FFAE73;}
	.st289{fill:#FC9F38;}
	.st290{fill:#E65F00;}
	.st291{fill:#4681E1;}
	.st292{fill:#032444;}
	.st293{fill:#0D458E;}
	.st294{fill:#1E3865;}
	.st295{fill:#F48F4E;}
	.st296{fill:#254C82;}
	.st297{fill:#F9924F;}
	.st298{opacity:0.5;}
	.st299{fill:#499936;}
	.st300{fill:url(#SVGID_59_);}
	.st301{opacity:0.08;fill:#FFFFFF;}
	.st302{opacity:0.31;fill:#323197;}
	.st303{fill:#F5F5F7;}
	.st304{fill:#A1C2FF;}
	.st305{fill:#FF8D02;}
	.st306{opacity:0.08;}
	.st307{fill:none;stroke:#FFFFFF;stroke-width:2;stroke-linecap:round;stroke-linejoin:round;stroke-miterlimit:10;}
	.st308{opacity:0.44;fill:none;stroke:#FFFFFF;stroke-miterlimit:10;}
	.st309{opacity:0.4;fill:url(#SVGID_60_);}
	.st310{opacity:0.4;fill:url(#SVGID_61_);}
	.st311{fill:#010200;}
	.st312{opacity:0.4;fill:url(#SVGID_62_);}
	.st313{fill:#F74A2D;stroke:#000000;stroke-width:0.35;stroke-miterlimit:10;}
	.st314{clip-path:url(#SVGID_63_);fill:url(#SVGID_64_);}
	.st315{clip-path:url(#SVGID_63_);fill:url(#SVGID_65_);}
	.st316{clip-path:url(#SVGID_63_);fill:url(#SVGID_66_);}
	.st317{clip-path:url(#SVGID_63_);fill:url(#SVGID_67_);}
	.st318{fill:#393D43;}
	.st319{fill:#FDFDFB;}
	.st320{fill:#0086CE;}
	.st321{fill:#69B545;}
	.st322{fill:#D6347C;}
	.st323{fill:#F07F32;}
	.st324{fill:#6F519D;}
	.st325{fill-rule:evenodd;clip-rule:evenodd;fill:#51555B;}
	.st326{fill-rule:evenodd;clip-rule:evenodd;fill:#393D43;}
	.st327{fill:#003A70;}
	.st328{fill:url(#SVGID_68_);}
	.st329{fill:#003399;}
	.st330{fill-rule:evenodd;clip-rule:evenodd;fill:#003399;}
	.st331{fill:#A1A1A1;}
	.st332{fill-rule:evenodd;clip-rule:evenodd;fill:#006677;}
	.st333{fill-rule:evenodd;clip-rule:evenodd;fill:#E45300;}
	.st334{fill-rule:evenodd;clip-rule:evenodd;fill:#2156A6;}
	.st335{fill:#2156A6;}
	.st336{fill:#FB6E3B;}
	.st337{fill:#00C9BD;}
	.st338{fill-rule:evenodd;clip-rule:evenodd;fill:#00ACD8;}
	.st339{fill-rule:evenodd;clip-rule:evenodd;}
	.st340{fill-rule:evenodd;clip-rule:evenodd;fill:#0056A6;}
	.st341{fill-rule:evenodd;clip-rule:evenodd;fill:#F48120;}
	.st342{fill-rule:evenodd;clip-rule:evenodd;fill:#2E3191;}
	.st343{fill:#FBDA00;}
	.st344{fill:#1F1A17;}
	.st345{fill:#007CC2;}
	.st346{fill:#DA251C;}
	.st347{fill-rule:evenodd;clip-rule:evenodd;fill:#F0F0F0;}
	.st348{fill-rule:evenodd;clip-rule:evenodd;fill:#FECF22;}
	.st349{fill-rule:evenodd;clip-rule:evenodd;fill:#006AB4;}
	.st350{fill-rule:evenodd;clip-rule:evenodd;fill:#D61627;}
	.st351{fill-rule:evenodd;clip-rule:evenodd;fill:#E6E6E6;}
	.st352{fill:#007BC2;}
	.st353{fill:#231F20;}
	.st354{fill:#EC1C25;}
	.st355{fill:#243E92;}
	.st356{fill:#E22228;}
	.st357{fill:#FAD701;}
	.st358{fill-rule:evenodd;clip-rule:evenodd;fill:#E61F20;}
	.st359{fill-rule:evenodd;clip-rule:evenodd;fill:#004B97;}
	.st360{fill-rule:evenodd;clip-rule:evenodd;fill:#E50013;}
	.st361{fill-rule:evenodd;clip-rule:evenodd;fill:url(#SVGID_71_);}
	.st362{fill-rule:evenodd;clip-rule:evenodd;fill:url(#SVGID_72_);}
	.st363{fill-rule:evenodd;clip-rule:evenodd;fill:#412A8B;}
</style>
<linearGradient id="SVGID_2_" gradientUnits="userSpaceOnUse" x1="-2614.5142" y1="-657.8605" x2="-2561.6282" y2="-657.8605" gradientTransform="matrix(0 1 -1 0 -631.4175 2614.5142)">
	<stop  offset="0" style="stop-color:#F9F9F9;stop-opacity:0"/>
	<stop  offset="1" style="stop-color:#EAEAEA"/>
</linearGradient>
<circle style="opacity:0.4;fill:url(#SVGID_2_);" cx="26.44" cy="26.44" r="26.44"/>
<g>
	<path class="st155" d="M31.05,14.29c0.03,1.29-0.12,2.56-0.54,3.8c-0.29,0.84-0.67,1.62-1.21,2.32c-0.13,0.18-0.14,0.32-0.06,0.52
		c0.33,0.92,0.81,1.75,1.46,2.49c0.41,0.47,0.75,1.01,1.04,1.57c2,3.83,3.51,7.85,4.53,12.05c0.05,0.22,0.01,0.36-0.15,0.5
		c-0.24,0.2-0.48,0.38-0.76,0.52c-0.54-1.46-1.07-2.91-1.61-4.37c-0.72-1.96-1.44-3.92-2.16-5.88c-0.09-0.25-0.19-0.49-0.28-0.74
		c0.1,0.8,0.26,1.57,0.42,2.35c0.5,2.5,1.01,5,1.51,7.49c0.17,0.86,0.34,1.71,0.5,2.57c-0.23,0.01-0.46,0.01-0.68,0.02
		c-0.09-0.04-0.08-0.12-0.1-0.2c-0.25-1.18-0.51-2.37-0.77-3.55c-0.45-2.11-0.91-4.23-1.36-6.34c-0.24-1.14-0.48-2.27-0.73-3.41
		c-0.01,0.4,0.04,0.79,0.07,1.18c0.06,0.66,0.12,1.32,0.19,1.98c0.09,0.86,0.19,1.71,0.28,2.57c0.07,0.66,0.12,1.32,0.19,1.98
		c0.09,0.9,0.19,1.79,0.28,2.69c0.07,0.64,0.12,1.28,0.19,1.92c0.07,0.68,0.15,1.36,0.22,2.04c-0.21,0-0.4,0.06-0.6,0.13
		c-0.09-0.56-0.19-1.11-0.28-1.67c-0.18-1.15-0.36-2.31-0.54-3.46c-0.17-1.06-0.34-2.11-0.51-3.17c-0.2-1.27-0.41-2.54-0.61-3.81
		c-0.1-0.64-0.2-1.28-0.3-1.92c-0.1,0.94-0.06,1.87-0.1,2.81c-0.07,1.45-0.01,2.91-0.09,4.36c-0.05,1.05-0.02,2.11-0.06,3.17
		c-0.06,1.66-0.04,3.33-0.09,4.99c-0.81,0.05-1.6-0.12-2.41-0.06c-0.47,0.04-0.95,0.09-1.43,0.05c-0.01-0.53-0.01-1.05-0.04-1.58
		c-0.06-1.27,0.02-2.55-0.05-3.83c-0.07-1.22-0.02-2.45-0.04-3.68c-0.03-1.81-0.07-3.63-0.06-5.44c0-0.27,0-0.53,0-0.86
		c-0.15,0.3-0.13,0.56-0.18,0.81c-0.22,1.29-0.42,2.58-0.63,3.87c-0.22,1.32-0.44,2.64-0.66,3.96c-0.19,1.16-0.41,2.32-0.58,3.49
		c-0.09,0.63-0.26,1.24-0.27,1.88c-0.21-0.12-0.44-0.05-0.66-0.06c0.08-0.72,0.17-1.44,0.24-2.16c0.09-0.87,0.16-1.74,0.26-2.6
		c0.09-0.85,0.2-1.69,0.3-2.54c0.09-0.87,0.16-1.74,0.26-2.6c0.13-1.22,0.29-2.44,0.41-3.66c0.03-0.26,0.13-0.53,0.04-0.83
		c-0.09,0.41-0.19,0.78-0.27,1.16c-0.44,2-0.88,4.01-1.32,6.02c-0.31,1.43-0.62,2.87-0.94,4.3c-0.15,0.7-0.32,1.39-0.48,2.08
		c-0.23-0.12-0.48-0.05-0.72-0.08c0.85-4.11,1.7-8.22,2.55-12.33c-0.08,0.06-0.13,0.13-0.16,0.21c-0.22,0.6-0.44,1.19-0.67,1.79
		c-0.54,1.42-1.07,2.85-1.61,4.27c-0.58,1.54-1.16,3.09-1.74,4.64c-1-0.55-1.02-0.61-0.74-1.69c1.03-3.92,2.49-7.67,4.38-11.26
		c0.37-0.7,0.82-1.35,1.33-1.94c0.6-0.69,0.98-1.5,1.3-2.34c0.04-0.11,0.02-0.19-0.05-0.28c-1.35-1.83-1.84-3.9-1.77-6.14
		c0-0.03,0-0.06-0.01-0.09c0.16-0.44,0.21-0.91,0.24-1.37c0.02-0.54,0.03-1.08-0.05-1.61c0.23-0.1,0.51-0.02,0.72-0.18
		c0.08,0,0.16,0,0.24,0c-0.05,0.07-0.13,0.1-0.1,0.22c0.2,0.76,0.54,1.44,1.17,1.93c0.72,0.57,1.55,0.75,2.46,0.74
		c1.02,0,1.87-0.37,2.55-1.09c0.47-0.49,0.82-1.07,0.87-1.78c0.02,0,0.04,0,0.06,0c0.24,0.14,0.53,0.08,0.78,0.19
		c-0.09,0.53-0.09,1.07-0.06,1.61C30.85,13.37,30.87,13.85,31.05,14.29z"/>
	<path class="st156" d="M23.21,11.09c0.27,1.34,1.39,2.37,2.81,2.6c1.66,0.27,3.41-0.84,3.78-2.58c0.08,0,0.16,0,0.24,0
		c-0.05,0.71-0.41,1.29-0.87,1.78c-0.69,0.72-1.54,1.09-2.55,1.09c-0.91,0-1.74-0.18-2.46-0.74c-0.63-0.49-0.97-1.17-1.17-1.93
		c-0.03-0.12,0.05-0.16,0.1-0.22C23.13,11.09,23.17,11.09,23.21,11.09z"/>
	<path class="st157" d="M28.33,41.78c0.06-1.66,0.03-3.33,0.09-4.99c0.04-1.06,0-2.11,0.06-3.17c0.07-1.45,0.02-2.91,0.09-4.36
		c0.04-0.94,0-1.87,0.1-2.81c0.1,0.64,0.2,1.28,0.3,1.92c0.2,1.27,0.41,2.54,0.61,3.81c0.17,1.06,0.34,2.11,0.51,3.17
		c0.18,1.15,0.36,2.31,0.54,3.46c0.09,0.56,0.19,1.11,0.28,1.67c-0.28,0.21-0.5,0.48-0.66,0.79c-0.19,0.35-0.5,0.5-0.88,0.52
		C29.02,41.8,28.68,41.78,28.33,41.78z"/>
	<path class="st157" d="M21.98,40.39c0.01-0.64,0.18-1.25,0.27-1.88c0.17-1.17,0.39-2.33,0.58-3.49c0.22-1.32,0.44-2.64,0.66-3.96
		c0.21-1.29,0.41-2.58,0.63-3.87c0.04-0.25,0.03-0.51,0.18-0.81c0,0.33,0,0.59,0,0.86c-0.01,1.81,0.03,3.63,0.06,5.44
		c0.02,1.23-0.03,2.45,0.04,3.68c0.07,1.28-0.01,2.55,0.05,3.83c0.03,0.53,0.03,1.05,0.04,1.58c-0.3,0-0.59,0.01-0.89,0.01
		c-0.48,0-0.84-0.22-1.04-0.65C22.42,40.83,22.24,40.58,21.98,40.39z"/>
	<path class="st157" d="M17.49,37.99c0.58-1.55,1.16-3.09,1.74-4.64c0.54-1.42,1.07-2.85,1.61-4.27c0.22-0.6,0.44-1.19,0.67-1.79
		c0.03-0.08,0.08-0.15,0.16-0.21c-0.85,4.11-1.7,8.22-2.55,12.33c-0.39,0.05-0.77,0.02-1.12-0.18c-0.19-0.11-0.29-0.28-0.22-0.5
		C17.88,38.41,17.79,38.17,17.49,37.99z"/>
	<path class="st157" d="M33.73,39.46c-0.17-0.86-0.33-1.71-0.5-2.57c-0.5-2.5-1-5-1.51-7.49c-0.16-0.78-0.32-1.55-0.42-2.35
		c0.09,0.25,0.19,0.49,0.28,0.74c0.72,1.96,1.44,3.92,2.16,5.88c0.54,1.46,1.07,2.91,1.61,4.37c-0.3,0.17-0.38,0.42-0.28,0.75
		c0.07,0.23-0.04,0.4-0.25,0.51C34.48,39.49,34.11,39.52,33.73,39.46z"/>
	<path class="st157" d="M19.82,39.49c0.16-0.69,0.33-1.39,0.48-2.08c0.32-1.43,0.62-2.87,0.94-4.3c0.44-2.01,0.88-4.01,1.32-6.02
		c0.08-0.38,0.17-0.75,0.27-1.16c0.09,0.3-0.02,0.57-0.04,0.83c-0.12,1.22-0.28,2.44-0.41,3.66c-0.09,0.87-0.16,1.74-0.26,2.6
		c-0.09,0.85-0.2,1.69-0.3,2.54c-0.09,0.87-0.17,1.74-0.26,2.6c-0.08,0.72-0.16,1.44-0.24,2.16c-0.24,0.09-0.51,0.08-0.76,0.11
		c-0.24,0.02-0.41-0.12-0.45-0.38C20.09,39.83,20,39.64,19.82,39.49z"/>
	<path class="st157" d="M31.51,40.36c-0.07-0.68-0.15-1.36-0.22-2.04c-0.07-0.64-0.12-1.28-0.19-1.92c-0.09-0.9-0.19-1.79-0.28-2.69
		c-0.07-0.66-0.12-1.32-0.19-1.98c-0.09-0.86-0.19-1.71-0.28-2.57c-0.07-0.66-0.12-1.32-0.19-1.98c-0.04-0.39-0.08-0.79-0.07-1.18
		c0.24,1.14,0.48,2.27,0.73,3.41c0.45,2.11,0.9,4.23,1.36,6.34c0.25,1.18,0.51,2.37,0.77,3.55c0.02,0.08,0.01,0.16,0.1,0.2
		c-0.19,0.16-0.29,0.36-0.33,0.6c-0.04,0.27-0.22,0.4-0.48,0.39C31.99,40.46,31.75,40.4,31.51,40.36z"/>
	<path class="st157" d="M31.05,14.29c-0.18-0.44-0.2-0.91-0.22-1.37c-0.03-0.54-0.03-1.08,0.06-1.61c0.93-0.32,1.82,0.22,1.95,1.19
		c0.05,0.39,0.07,0.79,0.12,1.19c0.02,0.17-0.08,0.2-0.19,0.24C32.2,14.11,31.63,14.24,31.05,14.29z"/>
	<path class="st157" d="M22.13,11.28c0.08,0.53,0.07,1.07,0.05,1.61c-0.02,0.46-0.08,0.93-0.24,1.37c-0.6-0.05-1.17-0.19-1.74-0.38
		c-0.14-0.05-0.18-0.12-0.16-0.26c0.05-0.36,0.07-0.73,0.11-1.1C20.27,11.51,21.18,10.94,22.13,11.28z"/>
</g>
</svg>
