<svg xmlns="http://www.w3.org/2000/svg" width="169.811" height="46.94" viewBox="0 0 169.811 46.94">
    <defs>
        <style>
            .cls-1{fill:#fff}
        </style>
    </defs>
    <g id="ILLUSTRASI-01" transform="translate(.001)">
        <path id="Path_588" d="M46.15 46.08H30.29a1.51 1.51 0 0 1-1.2-.6l-8.38-11.09-2-2.62a.57.57 0 0 0-.86-.05l-1.8 2a4.75 4.75 0 0 0-1.25 3.21v8.65a.53.53 0 0 1-.53.53H.53a.53.53 0 0 1-.53-.56V2.11a.53.53 0 0 1 .53-.53h13.76a.53.53 0 0 1 .53.53v15.18a.19.19 0 0 0 .33.13L19 13.19 29.41 1.86a.86.86 0 0 1 .64-.28h15.42a.25.25 0 0 1 .19.41l-10.27 11.2-7.27 7.93 10 13.27 8.34 11a.41.41 0 0 1-.31.69z" class="cls-1"/>
        <path id="Path_589" d="M130.89 35.07V45.4a.68.68 0 0 1-.68.68H90.62a.68.68 0 0 1-.68-.68v-8.17a1.32 1.32 0 0 1 .32-.87l.36-.41L92 34.39l18-20.88a.19.19 0 0 0-.14-.32H91.3a.67.67 0 0 1-.68-.68V2.26a.67.67 0 0 1 .68-.68h37.93a.67.67 0 0 1 .68.68v8.26a.73.73 0 0 1-.16.45l-1.94 2.22-18.4 21.2h20.8a.67.67 0 0 1 .68.68z" class="cls-1"/>
        <rect id="Rectangle_99" width="15.01" height="44.5" class="cls-1" rx=".67" transform="translate(135.27 1.58)"/>
        <rect id="Rectangle_100" width="15.01" height="44.5" class="cls-1" rx=".67" transform="translate(154.8 1.58)"/>
        <path id="Path_590" d="M88.51 23.53a23.444 23.444 0 0 1-17.12 22.55c-.41.11-.82.22-1.24.31a23.169 23.169 0 0 1-2.79.44 22 22 0 0 1-2.3.11 23.411 23.411 0 0 1-2.38-.12 22.68 22.68 0 0 1-4-.74l-.68-.22a23.42 23.42 0 0 1-1.1-44.28c.38-.14.75-.27 1.14-.39v12.36a12.21 12.21 0 0 0 0 20 11.26 11.26 0 0 0 1.45.89 12.274 12.274 0 0 0 10.69.25l.51-.25A12.54 12.54 0 0 0 74 31.86a12.23 12.23 0 0 0 0-16.67V1.87a23.42 23.42 0 0 1 14.51 21.66z" class="cls-1"/>
        <path id="Path_591" fill="#8cc63f" d="M70.18 18a7.79 7.79 0 0 0-1.94-1.31 1.47 1.47 0 0 1-.85-1.35v-2.81a.4.4 0 0 1 .39-.4h.92a1.48 1.48 0 0 0 1.48-1.48V9.09a1.48 1.48 0 0 0-1.48-1.48h-.78a.53.53 0 0 1-.53-.53v-2a.54.54 0 0 1 .53-.54h.71A1.55 1.55 0 0 0 70.18 3V1.54A1.55 1.55 0 0 0 68.63 0h-4.16a1.75 1.75 0 0 0-1.76 1.75v13.72a1.28 1.28 0 0 1-.71 1.15 7.448 7.448 0 0 0 3.06 14.25 7.68 7.68 0 0 0 2.3-.36 7.6 7.6 0 0 0 2.79-1.65 7.47 7.47 0 0 0 0-10.92zm-2.79 7a2.829 2.829 0 1 1 .48-1.58 2.76 2.76 0 0 1-.48 1.58z"/>
    </g>
</svg>
